<?xml version="1.0" encoding="utf-8"?>
<!-- Generator: Adobe Illustrator 23.0.4, SVG Export Plug-In . SVG Version: 6.00 Build 0)  -->
<svg version="1.1" id="Layer_1" xmlns="http://www.w3.org/2000/svg" xmlns:xlink="http://www.w3.org/1999/xlink" x="0px" y="0px"
	 viewBox="0 0 400 300" style="enable-background:new 0 0 400 300;" xml:space="preserve">
<style type="text/css">
	.st0{fill:#FFFFFF;}
</style>
<g>
	<g>
		<g>
			<g>
				<path class="st0" d="M6.99,195.28v3.13c0,4.3,1.39,6.65,4.69,6.65c3.38,0,4.47-2.84,4.47-7.2c0-5.8-1.26-7.8-6.81-12.14
					c-5.59-4.39-8.51-7.13-8.51-14.82c0-6.74,2.04-13.4,10.91-13.37c8.82,0.03,10.55,6.16,10.55,12.2v2.62h-6.92v-2.43
					c0-3.91-0.71-6.35-3.75-6.35c-3.02,0-3.79,2.63-3.79,6.34c0,4.16,0.81,5.97,5.46,9.42c7.56,5.63,9.89,8.84,9.89,17.51
					c0,7.34-2.38,14.19-11.71,14.19C2.36,211.02,0,205.16,0,198.31v-3.03H6.99z"/>
			</g>
		</g>
		<g>
			<g>
				<path class="st0" d="M49.4,202.64c0,2.6,0.03,6.28,0.16,7.66h-6.41c-0.18-0.83-0.42-2.45-0.48-3.07
					c-1.33,2.66-3.62,3.69-6.58,3.69c-5.92,0-8.3-5.39-8.3-11.48v-0.71c0-9.52,6.21-12.38,13.41-12.38c0.37,0,0.76,0,1.26,0v-5.62
					c0-3.34-0.48-5.32-3.2-5.32c-2.68,0-3.35,2.07-3.35,4.81v0.82h-6.87v-0.71c0-5.7,2.21-10.67,10.46-10.67
					c7.42,0,9.91,4.3,9.91,10.53L49.4,202.64L49.4,202.64z M42.59,191.73c-0.41,0-1.25,0-1.59,0c-4.01,0-6.54,1.6-6.54,6.91v0.65
					c0,3.13,1.06,5.5,3.82,5.5c3.09,0,4.3-2.31,4.3-7.94V191.73z"/>
			</g>
		</g>
		<g>
			<g>
				<path class="st0" d="M58.55,210.29v-33.86h-4.06v-6.14h4.06v-4.64c0-5.25,2.1-9.99,9-9.99c1.09,0,2.21,0.08,2.89,0.28v6.25
					c-0.65-0.1-1.05-0.13-1.61-0.13c-2.68,0-3.3,1.6-3.3,4.4v3.81h4.97v6.14h-4.97v33.86h-6.98V210.29z"/>
			</g>
		</g>
		<g>
			<g>
				<path class="st0" d="M81.58,192.01v6.16c0,3.47,0.75,6.84,4.16,6.84c3.44,0,3.96-2.94,3.96-6.21v-0.25h6.82v0.23
					c0,4.39-0.98,12.16-10.66,12.16c-9.43,0-11.1-5.96-11.1-14.07V183c0-5.72,1.9-13.33,11.11-13.33c8.21,0,10.77,5.75,10.77,13.29
					c0,2.28,0,6.75,0,9.04H81.58V192.01z M89.95,186.48v-4.47c0-3.71-0.75-6.41-4.09-6.41c-3.07,0-4.22,2.36-4.22,6.42v4.44h8.31
					V186.48z"/>
			</g>
		</g>
		<g>
			<g>
				<path class="st0" d="M122.18,210.29l-7.19-51.98h7.43c1.37,11.82,3.4,31.01,3.81,40.13h0.13c1.01-9.89,3.75-28.36,5.34-40.13
					h6.91c1.64,12.04,4.37,29.24,5.25,39.82h0.18c0.59-9.62,2.65-27.65,4.02-39.82h7.08l-7.77,51.98h-7.26
					c-1.57-11.86-4.09-28.54-5.12-38.36h-0.13c-1.16,10.27-3.78,26.82-5.45,38.36H122.18z"/>
			</g>
		</g>
		<g>
			<g>
				<path class="st0" d="M178.46,202.64c0,2.6,0.03,6.28,0.16,7.66h-6.41c-0.18-0.83-0.42-2.45-0.48-3.07
					c-1.33,2.66-3.62,3.69-6.58,3.69c-5.92,0-8.3-5.39-8.3-11.48v-0.71c0-9.52,6.21-12.38,13.41-12.38c0.37,0,0.76,0,1.26,0v-5.62
					c0-3.34-0.48-5.32-3.2-5.32c-2.68,0-3.35,2.07-3.35,4.81v0.82h-6.87v-0.71c0-5.7,2.21-10.67,10.46-10.67
					c7.42,0,9.91,4.3,9.91,10.53L178.46,202.64L178.46,202.64z M171.65,191.73c-0.41,0-1.25,0-1.59,0c-4.01,0-6.54,1.6-6.54,6.91
					v0.65c0,3.13,1.06,5.5,3.82,5.5c3.09,0,4.3-2.31,4.3-7.94V191.73z"/>
			</g>
		</g>
		<g>
			<g>
				<path class="st0" d="M183.32,170.3h4.39v-9.69h6.95v9.69h5.28v6.14h-5.28v24.99c0,1.97,0.3,3.67,2.76,3.67
					c0.72,0,1.83-0.08,2.31-0.24v5.31c-1.29,0.58-3.2,0.72-4.64,0.72c-4.54,0-7.39-1.61-7.39-8.19v-26.27h-4.39v-6.13H183.32z"/>
			</g>
		</g>
		<g>
			<g>
				<path class="st0" d="M210.52,192.01v6.16c0,3.47,0.75,6.84,4.16,6.84c3.44,0,3.96-2.94,3.96-6.21v-0.25h6.82v0.23
					c0,4.39-0.98,12.16-10.66,12.16c-9.43,0-11.1-5.96-11.1-14.07V183c0-5.72,1.9-13.33,11.11-13.33c8.21,0,10.77,5.75,10.77,13.29
					c0,2.28,0,6.75,0,9.04h-15.08V192.01z M218.88,186.48v-4.47c0-3.71-0.75-6.41-4.09-6.41c-3.07,0-4.22,2.36-4.22,6.42v4.44h8.31
					V186.48z"/>
			</g>
		</g>
		<g>
			<g>
				<path class="st0" d="M232.86,183.87c0-6.57,0.06-9.72-0.08-13.59h6.62c0.08,0.89,0.21,4,0.21,6.38
					c1.54-5.21,5.04-6.91,8.66-6.96v8.6c-4.73,0.03-8.45,1.88-8.45,9.68v22.3h-6.98v-26.42H232.86z"/>
			</g>
		</g>
		<g>
			<g>
				<path class="st0" d="M25.62,247.94v25.08c0,9.61-4.03,14.26-12.41,14.26c-8.3,0-11.74-4.95-11.74-14.15v-25.22
					c0-9.48,4.6-14.07,12.19-14.07C21.47,233.84,25.62,238.68,25.62,247.94z M8.58,247.37v26.49c0,4.97,1.8,7.12,4.94,7.12
					c3.35,0,4.98-2.05,4.98-7.29v-26.35c0-4.71-1.53-7.15-5-7.15C10.25,240.2,8.58,242.45,8.58,247.37z"/>
			</g>
		</g>
		<g>
			<g>
				<path class="st0" d="M39.25,283.56V300h-6.98v-41.94c0-5.42,0-9.04-0.08-11.51h6.67c0.13,0.76,0.27,2.48,0.27,4.08
					c1.1-2.62,3.3-4.7,7.32-4.7c5.55,0,8.22,3.84,8.22,11.67v16.63c0,9.07-3.2,12.95-8.97,12.95
					C42.01,287.18,40.22,285.37,39.25,283.56z M47.66,274.33v-16.22c0-4.13-1.42-5.89-3.84-5.89c-3.26,0-4.6,2.39-4.6,7.26v13.54
					c0,4.32,0.71,7.87,4.26,7.87C46.64,280.88,47.66,278.42,47.66,274.33z"/>
			</g>
		</g>
		<g>
			<g>
				<path class="st0" d="M58.65,246.55h4.39v-9.69h6.95v9.69h5.28v6.14h-5.28v24.99c0,1.97,0.3,3.67,2.76,3.67
					c0.72,0,1.83-0.08,2.31-0.24v5.31c-1.29,0.58-3.2,0.72-4.64,0.72c-4.54,0-7.39-1.61-7.39-8.19v-26.25h-4.39v-6.14H58.65z"/>
			</g>
		</g>
		<g>
			<g>
				<path class="st0" d="M80.87,246.55h6.98v40.01h-6.98V246.55z M80.93,232.3h6.98v8.35h-6.98V232.3z"/>
			</g>
		</g>
		<g>
			<g>
				<path class="st0" d="M95.74,258.13c0-7.67,0-9.71-0.08-11.56h6.67c0.21,1.2,0.21,2.26,0.27,3.62c1.32-2.7,3.65-4.25,6.96-4.25
					c3.19,0,5.39,1.36,6.34,4.44c1.34-2.32,3.43-4.44,7.57-4.44c4.18,0,7.76,2.01,7.76,9.78v30.84h-6.98v-29.52
					c0-2.93-0.68-4.81-3.3-4.81c-3.2,0-3.94,2.66-3.94,6.76v27.57h-7.04v-29.27c0-3.92-1.09-5.07-3.34-5.07
					c-3.19,0-3.89,2.7-3.89,6.82v27.5h-6.98v-28.42H95.74z"/>
			</g>
		</g>
		<g>
			<g>
				<path class="st0" d="M139.21,246.55h6.98v40.01h-6.98V246.55z M139.26,232.3h6.98v8.35h-6.98V232.3z"/>
			</g>
		</g>
		<g>
			<g>
				<path class="st0" d="M151.81,281.82l12.78-28.91h-11.65v-6.35h19.35v4.9l-12.41,28.76h12.54l-0.61,6.35h-20V281.82z"/>
			</g>
		</g>
		<g>
			<g>
				<path class="st0" d="M199.06,278.89c0,2.6,0.03,6.28,0.16,7.66h-6.41c-0.18-0.83-0.42-2.45-0.48-3.07
					c-1.33,2.66-3.62,3.69-6.58,3.69c-5.92,0-8.3-5.39-8.3-11.48v-0.71c0-9.52,6.21-12.38,13.41-12.38c0.37,0,0.76,0,1.26,0v-5.62
					c0-3.34-0.48-5.32-3.2-5.32c-2.68,0-3.35,2.07-3.35,4.81v0.82h-6.87v-0.71c0-5.7,2.21-10.67,10.46-10.67
					c7.42,0,9.91,4.3,9.91,10.53V278.89z M192.25,267.99c-0.41,0-1.25,0-1.59,0c-4.01,0-6.54,1.6-6.54,6.91v0.65
					c0,3.13,1.06,5.5,3.82,5.5c3.09,0,4.3-2.31,4.3-7.94V267.99z"/>
			</g>
		</g>
		<g>
			<g>
				<path class="st0" d="M203.91,246.55h4.39v-9.69h6.95v9.69h5.28v6.14h-5.28v24.99c0,1.97,0.3,3.67,2.76,3.67
					c0.72,0,1.83-0.08,2.31-0.24v5.31c-1.29,0.58-3.2,0.72-4.64,0.72c-4.54,0-7.39-1.61-7.39-8.19v-26.25h-4.39v-6.14H203.91z"/>
			</g>
		</g>
		<g>
			<g>
				<path class="st0" d="M226.14,246.55h6.98v40.01h-6.98V246.55z M226.2,232.3h6.98v8.35h-6.98V232.3z"/>
			</g>
		</g>
		<g>
			<g>
				<path class="st0" d="M263.11,258.45v15.95c0,8.62-4.2,12.79-11.28,12.79c-7.26,0-11.11-4.22-11.11-12.67v-16.3
					c0-8.26,4.57-12.27,11.34-12.27C259.09,245.93,263.11,250.36,263.11,258.45z M247.73,258.11v16.64c0,3.71,1.19,6.24,4.23,6.24
					c2.85,0,4.15-2.04,4.15-6.34v-16.59c0-3.44-1.03-5.93-4.18-5.93C249,252.13,247.73,254.23,247.73,258.11z"/>
			</g>
		</g>
		<g>
			<g>
				<path class="st0" d="M270.57,258.83c0-8.08,0-10.39-0.08-12.27h6.67c0.13,0.91,0.27,2.41,0.27,3.79
					c1.17-2.58,3.41-4.42,7.36-4.42c4.67,0,8.1,2.76,8.1,10.23v30.38h-6.98V257.5c0-3.72-1.27-5.28-3.77-5.28
					c-3.06,0-4.57,1.57-4.57,7.9v26.43h-6.98v-27.72H270.57z"/>
			</g>
		</g>
		<g>
			<g>
				<path class="st0" d="M322.77,241.03h-8.38v-6.47h23.75v6.47h-8.39v45.51h-6.98V241.03z"/>
			</g>
		</g>
		<g>
			<g>
				<path class="st0" d="M358.59,258.45v15.95c0,8.62-4.2,12.79-11.28,12.79c-7.26,0-11.11-4.22-11.11-12.67v-16.3
					c0-8.26,4.57-12.27,11.34-12.27C354.59,245.93,358.59,250.36,358.59,258.45z M343.21,258.11v16.64c0,3.71,1.19,6.24,4.23,6.24
					c2.85,0,4.15-2.04,4.15-6.34v-16.59c0-3.44-1.03-5.93-4.18-5.93C344.48,252.13,343.21,254.23,343.21,258.11z"/>
			</g>
		</g>
		<g>
			<g>
				<path class="st0" d="M386.81,258.45v15.95c0,8.62-4.2,12.79-11.28,12.79c-7.26,0-11.11-4.22-11.11-12.67v-16.3
					c0-8.26,4.57-12.27,11.34-12.27C382.79,245.93,386.81,250.36,386.81,258.45z M371.41,258.11v16.64c0,3.71,1.19,6.24,4.23,6.24
					c2.85,0,4.15-2.04,4.15-6.34v-16.59c0-3.44-1.03-5.93-4.18-5.93C372.69,252.13,371.41,254.23,371.41,258.11z"/>
			</g>
		</g>
		<g>
			<g>
				<path class="st0" d="M393.02,286.56V232.3H400v54.26H393.02z"/>
			</g>
		</g>
	</g>
	<g>
		<path class="st0" d="M52.52,4.35c0-0.42-0.26-0.72-0.5-0.96c-0.68-0.66-1.36-1.32-2.04-1.98l-1.09-1.05
			c-0.02-0.02-0.03-0.03-0.04-0.05L48.67,0h-0.96l-1.08,1.1c-0.78,0.79-1.58,1.62-2.38,2.41c-0.1,0.1-0.41,0.4-0.41,0.83
			c0,0.43,0.32,0.74,0.42,0.84l0,0c0.65,0.63,1.3,1.28,1.93,1.92c0.36,0.36,0.71,0.71,1.07,1.07c0.68,0.68,1.24,0.68,1.94-0.02
			c0.92-0.92,1.87-1.87,2.83-2.84C52.28,5.07,52.52,4.76,52.52,4.35z"/>
	</g>
	<g>
		<path class="st0" d="M28.73,27.02c-0.15-0.14-0.3-0.24-0.45-0.33c-0.07-0.04-0.12-0.07-0.18-0.11l-0.32-0.21l-0.32,0.2
			c-0.04,0.03-0.09,0.05-0.13,0.08c-0.15,0.09-0.31,0.17-0.45,0.31c-1,1.02-2,2.04-2.96,3.05c-0.58,0.6-0.57,1.16,0.03,1.76
			c1.07,1.08,2.05,2.06,3,3.01c0.31,0.31,0.62,0.47,0.92,0.47l0,0c0.3,0,0.61-0.16,0.92-0.46l0.69-0.68
			c0.74-0.73,1.49-1.47,2.23-2.21c0.23-0.23,0.55-0.54,0.55-0.97c0-0.42-0.31-0.73-0.53-0.95C30.53,28.79,29.61,27.88,28.73,27.02z"
			/>
	</g>
	<g>
		<path class="st0" d="M36.19,27.35c-0.03,0.07-0.04,0.1-0.06,0.14L36,27.76l0.14,0.26c0.02,0.04,0.04,0.09,0.06,0.13l0.01,0.03
			c0.07,0.16,0.17,0.37,0.35,0.55c0.88,0.9,1.83,1.85,2.91,2.91c0.53,0.52,1.31,0.52,1.88,0c0.38-0.35,0.75-0.72,1.11-1.07
			l0.46-0.45c0.44-0.43,0.88-0.87,1.31-1.3c0.35-0.34,0.52-0.69,0.52-1.04c0-0.35-0.16-0.68-0.49-1.01
			c-0.48-0.48-0.98-0.96-1.46-1.42c-0.29-0.28-0.58-0.55-0.86-0.83c-0.17-0.17-0.34-0.34-0.5-0.51l-0.23-0.23
			c-0.44-0.45-1.03-0.46-1.47-0.04c-0.97,0.93-2.11,2.03-3.25,3.15C36.31,27.03,36.24,27.21,36.19,27.35z"/>
	</g>
	<g>
		<path class="st0" d="M25.74,47.28c1.11-1.1,2.01-2.01,2.84-2.84c0.7-0.71,0.7-1.31,0-2.02c-0.91-0.91-1.85-1.85-2.88-2.87
			c-0.14-0.14-0.29-0.23-0.43-0.31c-0.07-0.04-0.11-0.07-0.16-0.1l-0.32-0.21l-0.32,0.2c-0.05,0.03-0.1,0.06-0.15,0.09
			c-0.15,0.09-0.29,0.17-0.43,0.3c-1.2,1.15-2.11,2.03-2.96,2.86c-0.71,0.7-0.71,1.25,0,1.97c0.84,0.85,1.73,1.75,2.89,2.92l0,0
			C24.48,47.93,25.09,47.93,25.74,47.28z"/>
	</g>
	<g>
		<path class="st0" d="M12.4,62.04l0.07-0.07c0.45-0.45,0.9-0.9,1.34-1.35c0.62-0.62,0.62-1.16-0.01-1.79
			c-0.94-0.95-1.93-1.93-2.94-2.93c-0.13-0.13-0.26-0.22-0.4-0.31c-0.07-0.05-0.11-0.08-0.16-0.11l-0.32-0.24l-0.32,0.21
			c-0.04,0.03-0.09,0.05-0.13,0.08c-0.15,0.08-0.31,0.17-0.45,0.31c-0.63,0.61-1.26,1.23-1.89,1.85l-1.2,1.18
			c-0.33,0.32-0.4,0.64-0.4,0.85c0,0.21,0.07,0.53,0.39,0.86l0.67,0.67l0,0l0.23,0.23c0.78,0.78,1.58,1.57,2.35,2.36
			c0.22,0.22,0.45,0.33,0.69,0.33c0.37,0,0.62-0.25,0.71-0.34C11.22,63.22,11.81,62.63,12.4,62.04z"/>
	</g>
	<g>
		<path class="st0" d="M48.18,16.95c0.16-0.16,0.23-0.35,0.28-0.49c0.03-0.06,0.04-0.11,0.06-0.15l0.13-0.28l-0.16-0.27
			c-0.02-0.04-0.04-0.08-0.06-0.12c-0.07-0.14-0.16-0.3-0.3-0.45c-0.61-0.62-1.22-1.23-1.84-1.84l-1.13-1.13
			c-0.26-0.26-0.57-0.4-0.87-0.4c-0.29,0-0.59,0.12-0.85,0.37c-0.89,0.86-1.79,1.75-2.66,2.61l-0.47,0.47
			c-0.28,0.27-0.33,0.56-0.33,0.74c0,0.18,0.06,0.46,0.33,0.73c0.9,0.91,2.08,2.1,3.29,3.3c0.21,0.21,0.48,0.33,0.75,0.33
			c0.3-0.01,0.56-0.13,0.77-0.34C45.95,19.2,47.05,18.09,48.18,16.95z"/>
	</g>
	<g>
		<path class="st0" d="M60.62,14c0.28-0.28,0.31-0.84,0.06-1.16c-0.99-1.24-1.96-2.46-2.97-3.66c-0.19-0.23-0.46-0.49-0.86-0.51
			c-0.46-0.03-0.79,0.3-0.95,0.46c-1.1,1.07-2.01,1.97-2.86,2.84c-0.16,0.17-0.27,0.35-0.37,0.52c-0.04,0.06-0.07,0.13-0.11,0.19
			l-0.2,0.31l0.2,0.32c0.04,0.06,0.07,0.12,0.1,0.18c0.08,0.15,0.17,0.31,0.31,0.46c1.1,1.14,2.01,2.07,2.88,2.94
			c0.54,0.54,1.29,0.55,1.85,0.02C58.54,16.07,59.45,15.17,60.62,14z"/>
	</g>
	<g>
		<g>
			<path class="st0" d="M64.33,26.12L64.33,26.12L64.33,26.12z"/>
		</g>
		<g>
			<path class="st0" d="M10.43,111.29c5.23,6.6,11.76,11.57,19.38,14.76c5.01,2.1,10.45,3.33,16.14,3.65
				c4.13,0.23,8.37-0.12,12.59-1.03c1.56-0.34,3.11-0.81,4.61-1.27l0.11-0.03c0.42-0.13,0.84-0.26,1.27-0.39
				c0.1-0.03,0.2-0.07,0.3-0.13l5.81-2.58c0.22-0.07,0.43-0.17,0.68-0.3l0.25-0.14c4.44-2.45,8.48-5.57,12-9.29
				c0.07-0.07,0.12-0.14,0.17-0.21l3.85-4.71c0.06-0.06,0.1-0.12,0.15-0.18c2.14-3.03,3.92-6.27,5.3-9.62
				c1.22-2.96,2.15-6.09,2.76-9.28c0.67-3.51,0.94-7.23,0.81-11.06l0,0c-0.02-0.52-0.23-0.84-0.66-0.99
				c-0.04-0.01-0.07-0.03-0.09-0.06l-0.1-0.1c-0.33-0.32-0.66-0.65-0.99-0.98c-0.55-0.55-1.12-1.11-1.68-1.66
				c-0.05-0.05-0.08-0.11-0.08-0.18c0-0.07,0.03-0.13,0.07-0.18c0.37-0.36,0.74-0.73,1.09-1.08c0.36-0.37,0.73-0.73,1.1-1.09
				c0.17-0.16,0.62-0.6,0.41-1.34c-0.22-0.81-0.44-1.62-0.65-2.43l-0.11-0.4c-0.27-1.02-0.54-2.03-0.82-3.04l-0.2-0.76
				c-0.24-0.91-0.52-1.94-0.86-2.91c-0.85-2.43-2-4.72-3.45-7.43l-0.35-0.65l-0.91,0.81c-0.1,0.09-0.25,0.08-0.34-0.01
				c-0.84-0.84-1.69-1.68-2.53-2.53l-0.16-0.16c-0.05-0.05-0.08-0.12-0.08-0.19c0-0.07,0.02-0.14,0.07-0.18
				c0.4-0.39,0.77-0.76,1.13-1.14c0.21-0.23,0.42-0.76,0.18-1.15c-0.79-1.31-1.62-2.63-2.42-3.91l-0.35-0.56
				c-0.07-0.11-0.15-0.18-0.23-0.24c-0.03-0.02-0.07-0.05-0.11-0.1l-0.43-0.37l-0.61,0.66c-0.03,0.08-0.1,0.15-0.14,0.2
				c-0.23,0.24-0.47,0.47-0.72,0.71l-0.15,0.14c-0.1,0.09-0.25,0.09-0.34,0c-0.97-0.94-1.84-1.8-2.66-2.64
				c-0.1-0.1-0.09-0.25,0-0.35l0.51-0.5c0.45-0.45,0.55-0.54,0.74-0.71c0.11-0.1,0.26-0.24,0.55-0.51c0.74-0.71,0.39-1.32,0.11-1.62
				c-0.57-0.62-1.12-1.23-1.73-1.9l-0.26-0.29c-0.28-0.31-0.58-0.64-0.85-0.98c-0.05-0.07-0.07-0.16-0.04-0.23
				c0.19-0.54-0.09-0.94-0.22-1.13l-0.15-0.21c-0.86-1.21-1.75-2.47-2.6-3.71c-0.09-0.13-0.33-0.47-0.74-0.51
				c-0.41-0.04-0.71,0.26-0.83,0.38c-0.09,0.09-0.17,0.17-0.25,0.25c-0.1,0.09-0.25,0.09-0.34,0l-0.27-0.26
				c-0.27-0.26-0.53-0.53-0.8-0.79c-0.46-0.45-0.92-0.9-1.36-1.35c-0.11-0.11-0.17-0.18-0.2-0.23c-0.06-0.09-0.07-0.2,0-0.29
				c0.03-0.05,0.09-0.12,0.19-0.22c0.08-0.08,0.16-0.17,0.24-0.25c0.2-0.2,0.4-0.4,0.59-0.64c0.23-0.3,0.3-0.85,0.05-1.2
				c-0.65-0.9-1.31-1.8-1.96-2.68l-0.06-0.08c-0.37-0.48-0.71-0.94-1.05-1.4c-0.22-0.3-0.47-0.38-0.63-0.39
				c-0.24-0.02-0.48,0.08-0.7,0.3l-0.53,0.53c-0.38,0.38-0.76,0.76-1.14,1.15c-0.05,0.05-0.13,0.08-0.2,0.07
				c-0.07-0.01-0.14-0.04-0.18-0.1c-0.16-0.22-0.29-0.38-0.42-0.53c-0.75-0.82-1.54-1.62-2.29-2.37c-0.41-0.41-1.09-0.59-1.79,0.1
				l-0.92,0.91c-0.45,0.44-0.89,0.89-1.34,1.33c-0.16,0.16-0.41,0.41-0.57,0.53c-0.09,0.07-0.22,0.07-0.31,0
				c-0.17-0.13-0.43-0.39-0.59-0.54c-0.48-0.47-0.97-0.96-1.44-1.43c-0.29-0.29-0.58-0.59-0.88-0.88c-0.63-0.63-1.15-0.64-1.79-0.03
				c-1.01,0.97-2.02,1.96-3.01,2.94c-0.18,0.17-0.47,0.46-0.47,0.88c0,0.41,0.3,0.71,0.46,0.87c0.5,0.5,1,0.99,1.5,1.49
				c0.49,0.48,0.98,0.97,1.47,1.46c0.1,0.1,0.1,0.25,0,0.35c-0.4,0.41-0.81,0.82-1.21,1.22l-0.06,0.06
				c-0.45,0.44-0.91,0.9-1.36,1.36c-0.86,0.87-0.85,1.41,0.03,2.3c0.56,0.57,1.13,1.13,1.69,1.7l0.8,0.8c0.1,0.1,0.1,0.25,0,0.35
				l-0.18,0.18c-0.76,0.77-1.55,1.56-2.32,2.35l-0.09,0.1c-0.05,0.05-0.11,0.08-0.18,0.08c-0.05,0-0.13-0.02-0.18-0.07l-2.78-2.72
				c-0.72-0.7-1.2-0.7-1.91,0.01l-2.81,2.81c-0.1,0.08-0.27,0.09-0.35,0l-1.04-1.04c-0.66-0.65-1.33-1.33-1.99-2
				c-0.1-0.1-0.35-0.36-0.73-0.36c-0.34,0-0.57,0.19-0.74,0.36c-0.67,0.68-1.37,1.37-2.04,2.04l-0.99,0.98
				c-0.21,0.21-0.56,0.56-0.56,1.03c0,0.44,0.29,0.76,0.59,1.05l0.89,0.88c0.59,0.59,1.21,1.21,1.83,1.8
				c0.05,0.05,0.08,0.11,0.08,0.18s-0.03,0.13-0.07,0.18c-0.48,0.47-0.96,0.95-1.42,1.41c-0.5,0.5-1,1-1.5,1.49
				c-0.12,0.12-0.4,0.39-0.4,0.79s0.29,0.68,0.39,0.78c0.65,0.62,1.29,1.27,1.91,1.89l1.01,1.01c0.05,0.05,0.07,0.11,0.07,0.18
				s-0.03,0.13-0.07,0.18c-0.62,0.61-1.25,1.24-1.86,1.85l-0.9,0.9c-0.05,0.05-0.1,0.07-0.18,0.07c-0.07,0-0.13-0.03-0.18-0.08
				c-0.2-0.22-0.41-0.44-0.62-0.65c-0.66-0.68-1.35-1.38-2.05-2.07c-0.66-0.66-1.3-0.66-1.96,0l-0.33,0.33
				c-0.78,0.78-1.58,1.58-2.37,2.39c-0.05,0.05-0.11,0.08-0.18,0.08s-0.13-0.03-0.18-0.07c-0.52-0.53-1.04-1.05-1.55-1.56
				l-1.12-1.13c-0.29-0.3-0.63-0.63-1.08-0.63c-0.46,0-0.79,0.33-1.09,0.63c-0.88,0.88-1.76,1.76-2.64,2.65
				c-0.82,0.82-0.81,1.3,0.02,2.13l0.55,0.56c0.7,0.7,1.41,1.42,2.13,2.13c0.05,0.05,0.07,0.11,0.07,0.18s-0.03,0.13-0.07,0.18
				c-0.38,0.37-0.75,0.74-1.13,1.12l-0.24,0.24c-0.53,0.53-1.07,1.07-1.61,1.59c-0.1,0.1-0.36,0.36-0.36,0.73
				c0,0.38,0.26,0.64,0.36,0.73c0.85,0.83,1.71,1.69,2.54,2.52l0.39,0.39c0.05,0.05,0.07,0.11,0.07,0.18c0,0.07-0.03,0.13-0.07,0.18
				c-0.71,0.7-1.42,1.42-2.16,2.16l-0.52,0.51c-0.05,0.05-0.09,0.07-0.18,0.07c-0.07,0-0.13-0.03-0.18-0.08
				c-0.9-0.94-1.73-1.8-2.57-2.65c-0.26-0.26-0.59-0.53-1.03-0.53c-0.45,0-0.8,0.29-1.05,0.55l-0.64,0.64
				c-0.68,0.68-1.38,1.37-2.06,2.08c-0.05,0.05-0.11,0.08-0.18,0.08s-0.13-0.03-0.18-0.08c-0.87-0.89-1.74-1.75-2.59-2.58
				c-0.9-0.87-1.45-0.87-2.35,0c-0.54,0.52-1.07,1.05-1.6,1.57l-0.09,0.09c-0.36,0.36-0.72,0.71-1.08,1.06
				c-0.27,0.26-0.41,0.55-0.41,0.86c0,0.21,0.07,0.52,0.39,0.85l2.94,2.93c0.05,0.05,0.07,0.11,0.07,0.18
				c0,0.07-0.03,0.13-0.08,0.18c-0.84,0.81-1.75,1.7-2.86,2.79c-0.29,0.29-0.49,0.56-0.49,0.92c0,0.36,0.19,0.63,0.49,0.93
				l0.64,0.65c0.7,0.71,1.42,1.44,2.14,2.16c0.05,0.05,0.07,0.11,0.07,0.18s-0.03,0.13-0.07,0.18c-0.56,0.55-1.12,1.11-1.66,1.65
				L3.2,85.1c-0.33,0.34-0.66,0.67-1,1l-0.15,0.15l-0.08,1.47l1.53,1.51c0.52,0.52,1.04,1.03,1.56,1.54
				c0.05,0.05,0.07,0.11,0.07,0.18c0,0.07-0.03,0.13-0.07,0.18c-0.83,0.82-1.81,1.79-2.75,2.75c-0.26,0.27-0.31,0.7-0.28,0.99
				c0.11,0.92,0.68,1.51,1.1,1.87c0.4,0.35,0.8,0.72,1.19,1.09c0.26,0.25,0.53,0.49,0.8,0.74c0.05,0.05,0.08,0.12,0.08,0.19
				s-0.04,0.14-0.1,0.19c-0.08,0.06-0.16,0.13-0.25,0.21c-0.88,0.81-1.01,1.09-0.45,2.22c0.5,1.02,1.03,2.04,1.54,3.03l0.49,0.96
				c0.06,0.12,0.13,0.23,0.2,0.33c0,0,0.03,0.05,0.04,0.05l0.45,0.7l1.64-1.5c0.05-0.04,0.11-0.07,0.17-0.07h0.01
				c0.07,0,0.13,0.03,0.17,0.08c0.13,0.15,0.27,0.3,0.41,0.45c0.72,0.73,1.46,1.48,2.22,2.22c0.05,0.05,0.07,0.11,0.07,0.18
				c0,0.07-0.03,0.13-0.08,0.18c-0.31,0.29-0.45,0.4-0.54,0.48c-0.14,0.12-0.17,0.15-0.65,0.62c-0.09,0.09-0.17,0.16-0.24,0.23
				c-0.61,0.57-0.75,0.92-0.11,1.69L10.43,111.29z M25.52,70.2l-0.18,0.16c-0.12-0.13-0.24-0.26-0.37-0.38l-0.64-0.64
				c-0.51-0.51-1.03-1.04-1.56-1.56c-0.05-0.05-0.07-0.11-0.07-0.18c0-0.07,0.03-0.13,0.07-0.18c0.87-0.86,1.76-1.75,2.66-2.66
				c0.1-0.1,0.25-0.1,0.35,0c0.34,0.33,0.68,0.65,1.02,0.98c0.55,0.53,1.07,1.03,1.59,1.53c0.1,0.09,0.1,0.25,0.01,0.35l-0.21,0.23
				l0,0l-0.05,0.05c-0.78,0.84-1.57,1.7-2.38,2.53c-0.05,0.05-0.11,0.08-0.18,0.08l0,0c-0.07,0-0.13-0.03-0.18-0.08L25.52,70.2
				L25.52,70.2z M28.44,83.38c-0.77,0.78-1.61,1.63-2.63,2.65c-0.05,0.05-0.11,0.07-0.18,0.07c-0.06,0-0.13-0.02-0.17-0.07
				c-0.79-0.78-1.58-1.56-2.37-2.34l-0.27-0.27c-0.1-0.09-0.1-0.25-0.01-0.35c0.46-0.49,0.92-0.97,1.38-1.45l0.04-0.04
				c0.38-0.4,0.77-0.8,1.15-1.2c0.05-0.05,0.13-0.1,0.19-0.09c0.07,0,0.14,0.02,0.19,0.07l0.89,0.89c0.59,0.58,1.19,1.18,1.78,1.78
				C28.53,83.12,28.53,83.28,28.44,83.38z M28.47,91.26c-0.87,0.86-1.66,1.63-2.43,2.44l-0.21,0.22c-0.05,0.05-0.12,0.07-0.18,0.08
				c-0.07,0-0.13-0.03-0.18-0.07l-0.17-0.18c-0.73-0.74-1.46-1.5-2.17-2.25l-0.31-0.32c-0.09-0.1-0.09-0.25,0-0.35l0.85-0.84l0,0
				l0.1-0.09c0.54-0.53,1.09-1.08,1.63-1.6c0.05-0.04,0.09-0.07,0.21-0.12c0.08-0.04,0.18-0.03,0.25,0.02
				c0.18,0.13,0.37,0.27,0.51,0.42c0.39,0.42,0.79,0.86,1.17,1.29c0.31,0.35,0.62,0.69,0.92,1.02
				C28.57,91.02,28.56,91.17,28.47,91.26z M28.53,114.66c-0.55,0.54-1.09,1.07-1.63,1.61l-1.11,1.1c-0.05,0.05-0.11,0.07-0.17,0.07
				s-0.13-0.02-0.17-0.07c-0.86-0.86-1.75-1.75-2.63-2.66c-0.09-0.1-0.09-0.25,0-0.35c0.86-0.89,1.75-1.78,2.7-2.73
				c0.1-0.1,0.25-0.1,0.35,0c0.76,0.76,1.71,1.7,2.67,2.68C28.63,114.41,28.63,114.57,28.53,114.66z M33.47,94
				c-0.06,0-0.13-0.02-0.18-0.07c-0.83-0.82-1.65-1.66-2.47-2.48l-0.16-0.16c-0.1-0.1-0.1-0.25,0-0.35l1.13-1.14l0,0l1.52-1.53
				c0.05-0.05,0.11-0.07,0.18-0.07l0,0c0.07,0,0.13,0.03,0.18,0.07l0.81,0.81c0.64,0.64,1.24,1.24,1.84,1.84
				c0.1,0.1,0.1,0.25,0,0.35c-0.97,0.98-1.85,1.85-2.68,2.67C33.6,93.98,33.54,94,33.47,94z M30.58,83.47
				c-0.05-0.05-0.07-0.11-0.07-0.18s0.03-0.13,0.07-0.18c0.4-0.4,0.8-0.8,1.2-1.2l0.16-0.16c0.45-0.45,0.9-0.9,1.35-1.34
				c0.1-0.1,0.25-0.09,0.35,0c0.39,0.39,0.78,0.78,1.16,1.17l0.1,0.11c0.46,0.47,0.92,0.93,1.38,1.39c0.05,0.05,0.07,0.11,0.07,0.18
				c0,0.07-0.03,0.13-0.07,0.18c-0.82,0.82-1.65,1.63-2.48,2.44l-0.24,0.24c-0.05,0.05-0.11,0.07-0.17,0.07s-0.13-0.02-0.18-0.07
				l-0.71-0.71C31.88,84.76,31.23,84.11,30.58,83.47z M44.15,99.07l-1.11,1.11c-0.52,0.53-1.05,1.05-1.56,1.56
				c-0.05,0.05-0.11,0.07-0.18,0.07s-0.13-0.03-0.18-0.07c-0.79-0.79-1.63-1.64-2.66-2.69c-0.1-0.1-0.09-0.25,0-0.35
				c0.88-0.88,1.77-1.77,2.66-2.65c0.1-0.1,0.25-0.1,0.35,0l1.11,1.11c0.52,0.52,1.04,1.04,1.56,1.56c0.05,0.05,0.07,0.11,0.07,0.18
				C44.22,98.96,44.19,99.02,44.15,99.07z M51.93,106.85c-0.88,0.89-1.76,1.78-2.64,2.67c-0.05,0.05-0.11,0.07-0.18,0.07
				c-0.06,0-0.13-0.02-0.17-0.07c-0.87-0.85-1.74-1.7-2.61-2.56l-0.12-0.12c-0.05-0.05-0.07-0.11-0.07-0.18
				c0-0.07,0.03-0.13,0.07-0.18l2.71-2.68c0.1-0.1,0.25-0.1,0.35,0c0.38,0.39,0.77,0.77,1.15,1.16c0.5,0.51,1,1.01,1.51,1.52
				C52.02,106.59,52.02,106.75,51.93,106.85z M48.45,77.89c-0.71-0.72-1.45-1.47-2.19-2.2c-0.02-0.02-0.04-0.05-0.05-0.07
				c-0.05-0.1-0.03-0.21,0.05-0.29l0.18-0.18l0,0c0.82-0.81,1.66-1.64,2.48-2.48c0.05-0.05,0.11-0.07,0.18-0.07l0,0
				c0.07,0,0.13,0.03,0.18,0.08c0.55,0.56,1.1,1.12,1.65,1.66l1,1.01c0.1,0.1,0.1,0.25,0,0.35l-2.66,2.66
				c-0.05,0.05-0.11,0.07-0.18,0.07c-0.06,0-0.13-0.02-0.18-0.07L48.45,77.89z M59.73,83.47c-0.83,0.84-1.71,1.71-2.66,2.65
				c-0.05,0.05-0.11,0.07-0.17,0.07s-0.13-0.02-0.17-0.07c-0.9-0.89-1.79-1.78-2.66-2.65c-0.1-0.1-0.1-0.25,0-0.35
				c0.83-0.84,1.73-1.73,2.65-2.63c0.04-0.05,0.1-0.08,0.17-0.08c0.06-0.01,0.13,0.03,0.18,0.08c0.86,0.84,1.76,1.72,2.67,2.64
				C59.83,83.21,59.83,83.37,59.73,83.47z M59.65,36.59c-0.58,0.57-1.16,1.14-1.72,1.71l-0.07,0.07c-0.28,0.29-0.57,0.57-0.86,0.86
				c-0.05,0.05-0.11,0.07-0.18,0.07l0,0c-0.07,0-0.13-0.03-0.18-0.07l-0.61-0.62c-0.69-0.7-1.38-1.4-2.07-2.1
				c-0.1-0.1-0.11-0.27-0.01-0.36c0.76-0.76,1.52-1.52,2.31-2.31l0.39-0.39c0.05-0.05,0.13-0.07,0.18-0.07
				c0.07,0,0.13,0.03,0.18,0.08c0.79,0.87,1.65,1.78,2.63,2.78c0.05,0.05,0.07,0.11,0.07,0.18C59.73,36.48,59.7,36.54,59.65,36.59z
				 M59.77,44.23c0,0.07-0.03,0.13-0.07,0.18c-0.98,0.96-1.87,1.82-2.68,2.6c-0.05,0.05-0.11,0.07-0.17,0.07
				c-0.06,0-0.13-0.02-0.17-0.07c-0.57-0.56-1.13-1.12-1.69-1.68l-0.92-0.91c-0.1-0.1-0.1-0.25,0-0.35
				c0.87-0.87,1.76-1.76,2.66-2.64c0.1-0.09,0.25-0.09,0.35,0c0.83,0.82,1.66,1.66,2.46,2.47l0.15,0.15
				C59.74,44.1,59.77,44.16,59.77,44.23z M53.98,51.83c0.88-0.88,1.76-1.75,2.66-2.64c0.1-0.1,0.25-0.1,0.35,0l0.66,0.65
				c0.66,0.65,1.35,1.33,2.01,2c0.1,0.1,0.1,0.25,0,0.35c-0.95,0.95-1.8,1.8-2.59,2.57c-0.05,0.05-0.11,0.07-0.17,0.07
				s-0.12-0.02-0.17-0.07L54,52.2c-0.05-0.05-0.08-0.11-0.08-0.18C53.9,51.95,53.93,51.88,53.98,51.83z M59.78,59.85
				c0,0.07-0.03,0.13-0.07,0.18c-0.83,0.81-1.69,1.68-2.64,2.64c-0.05,0.05-0.11,0.07-0.18,0.07c-0.07,0-0.13-0.03-0.18-0.07
				c-0.62-0.62-1.23-1.24-1.85-1.85l-0.8-0.8c-0.1-0.1-0.1-0.25,0-0.35c0.88-0.89,1.75-1.77,2.63-2.65
				c0.05-0.05,0.11-0.08,0.18-0.08l0,0c0.07,0,0.13,0.02,0.18,0.07l0.01,0.01c0.4,0.4,0.8,0.81,1.21,1.22l0.1,0.1
				c0.44,0.45,0.89,0.9,1.33,1.35C59.75,59.72,59.78,59.79,59.78,59.85z M67.59,106.85c-0.89,0.91-1.77,1.83-2.66,2.75
				c-0.05,0.05-0.14,0.07-0.18,0.08c-0.07,0-0.13-0.03-0.18-0.07c-0.62-0.63-1.25-1.26-1.88-1.88l-0.85-0.85
				c-0.05-0.05-0.07-0.11-0.07-0.18c0-0.07,0.03-0.13,0.07-0.18l0.07-0.07l0,0c0.87-0.86,1.74-1.73,2.61-2.58
				c0.1-0.09,0.25-0.1,0.35,0c0.54,0.52,1.07,1.04,1.6,1.56l1.11,1.08C67.68,106.59,67.69,106.75,67.59,106.85z M64.53,88.28
				c0.09-0.09,0.23-0.09,0.33-0.02c0.86,0.83,1.73,1.69,2.68,2.64c0.09,0.1,0.1,0.25,0,0.35c-0.95,1-1.8,1.89-2.6,2.72
				c-0.05,0.05-0.1,0.08-0.18,0.08c-0.07,0-0.13-0.03-0.17-0.07c-0.35-0.34-0.69-0.69-1.04-1.04l-0.2-0.2
				c-0.49-0.49-0.98-0.98-1.49-1.48c-0.05-0.05-0.07-0.11-0.07-0.18c0-0.07,0.03-0.13,0.07-0.18c0.45-0.44,0.9-0.89,1.36-1.33
				l0.15-0.15C63.76,89.04,64.15,88.65,64.53,88.28z M64.5,62.68c-0.45-0.43-0.88-0.87-1.32-1.3l-0.1-0.1
				c-0.4-0.4-0.8-0.79-1.2-1.19c-0.05-0.05-0.07-0.11-0.07-0.18s0.03-0.13,0.07-0.18c0.91-0.89,1.8-1.78,2.68-2.66
				c0.05-0.05,0.11-0.07,0.18-0.07c0.07,0,0.13,0.03,0.18,0.07c0.8,0.82,1.71,1.73,2.62,2.65c0.05,0.05,0.07,0.11,0.07,0.18
				s-0.03,0.13-0.07,0.18l-1.17,1.16c-0.5,0.49-0.99,0.98-1.48,1.46c-0.05,0.05-0.11,0.07-0.17,0.07c-0.05,0-0.1-0.02-0.15-0.05
				C64.54,62.72,64.5,62.69,64.5,62.68z M75.38,67.95c-0.36,0.37-0.73,0.73-1.1,1.1l-0.07,0.07c-0.48,0.48-0.96,0.97-1.45,1.46
				c-0.05,0.05-0.11,0.08-0.18,0.08c-0.05,0-0.11-0.02-0.15-0.05c-0.04-0.03-0.08-0.06-0.1-0.09c-0.85-0.84-1.76-1.75-2.66-2.65
				c-0.1-0.1-0.1-0.25,0-0.35c0.8-0.8,1.6-1.61,2.4-2.41l0.24-0.24c0.05-0.05,0.11-0.07,0.18-0.07c0.07,0,0.13,0.03,0.18,0.07
				c0.9,0.91,1.81,1.82,2.71,2.73C75.48,67.7,75.48,67.85,75.38,67.95z M83.17,91.32c-0.59,0.61-1.19,1.22-1.79,1.83L80.55,94
				c-0.05,0.05-0.11,0.07-0.18,0.07l0,0c-0.07,0-0.13-0.03-0.18-0.07c-0.46-0.46-0.92-0.93-1.38-1.39c-0.45-0.45-0.9-0.9-1.35-1.35
				c-0.1-0.1-0.1-0.25,0-0.35c0.97-0.97,1.84-1.84,2.65-2.63c0.1-0.1,0.25-0.1,0.35,0c0.89,0.88,1.8,1.79,2.7,2.7
				C83.27,91.07,83.27,91.22,83.17,91.32z M81.38,63.6c0.9-0.93,1.83-1.86,2.71-2.75c0.09-0.09,0.26-0.09,0.35,0
				c0.9,0.91,1.81,1.81,2.71,2.71c0.05,0.05,0.07,0.11,0.07,0.18c0,0.07-0.03,0.13-0.08,0.18c-0.95,0.91-1.86,1.79-2.78,2.68
				c-0.05,0.05-0.11,0.07-0.17,0.07c-0.06,0-0.13-0.02-0.18-0.07l-1-1l0,0l-0.15-0.15c-0.5-0.5-0.99-0.99-1.48-1.49
				C81.28,63.85,81.28,63.69,81.38,63.6z M80.11,72.66c0.1-0.09,0.27-0.11,0.37-0.01c0.33,0.32,0.62,0.61,0.91,0.9l0.15,0.15
				c0.53,0.53,1.07,1.07,1.62,1.59c0.05,0.05,0.08,0.11,0.08,0.18c0,0.07-0.03,0.13-0.07,0.18c-0.87,0.87-1.69,1.75-2.6,2.73
				c-0.05,0.05-0.11,0.08-0.18,0.08l0,0c-0.07,0-0.13-0.03-0.18-0.07l-0.1-0.1c-0.87-0.87-1.78-1.77-2.65-2.67
				c-0.1-0.1-0.09-0.25,0-0.35C78.44,74.29,79.31,73.44,80.11,72.66z M76.45,52.98c0.07,0,0.13,0.03,0.18,0.07
				c0.91,0.92,1.83,1.83,2.74,2.76c0.1,0.1,0.1,0.25,0,0.35c-0.48,0.47-0.95,0.95-1.43,1.43l0,0l-1.27,1.27
				c-0.05,0.05-0.11,0.07-0.18,0.07c-0.06,0-0.12-0.02-0.17-0.07c-0.83-0.79-1.71-1.66-2.77-2.71c-0.1-0.1-0.1-0.25,0-0.35
				c0.94-0.96,1.88-1.91,2.72-2.74C76.32,53,76.38,52.98,76.45,52.98z M75.31,44.41c-0.81,0.83-1.67,1.7-2.64,2.66
				c-0.05,0.05-0.11,0.07-0.18,0.07c-0.05-0.01-0.13-0.03-0.18-0.07c-1.06-1.07-1.88-1.9-2.64-2.69c-0.05-0.05-0.07-0.11-0.07-0.18
				c0-0.05,0.02-0.1,0.05-0.15l1.1-1.19c0.47-0.5,0.95-1.01,1.42-1.53c0.05-0.05,0.11-0.08,0.18-0.08s0.13,0.02,0.18,0.07
				c0.56,0.56,1.13,1.11,1.69,1.67l1.08,1.07C75.41,44.16,75.41,44.31,75.31,44.41z M69.62,36.33l2.66-2.67c0.1-0.1,0.25-0.1,0.35,0
				l0.18,0.18c0.82,0.81,1.6,1.6,2.37,2.38c0.1,0.1,0.09,0.25,0,0.35c-0.62,0.63-1.25,1.26-1.87,1.87l-0.79,0.79
				c-0.05,0.05-0.11,0.07-0.18,0.07l0,0c-0.07,0-0.13-0.03-0.18-0.07c-0.88-0.9-1.77-1.78-2.55-2.55c-0.05-0.05-0.07-0.11-0.07-0.18
				C69.54,36.44,69.57,36.37,69.62,36.33z M68.38,76.53c0.1-0.1,0.25-0.1,0.35,0c0.88,0.87,1.76,1.77,2.71,2.73
				c0.1,0.1,0.09,0.25,0,0.35c-0.4,0.4-0.8,0.81-1.2,1.21l-0.17,0.17c-0.42,0.42-0.84,0.84-1.25,1.27
				c-0.05,0.05-0.11,0.08-0.18,0.08s-0.13-0.03-0.18-0.08c-1-1.03-1.88-1.91-2.71-2.74c-0.05-0.05-0.07-0.11-0.07-0.18
				c0-0.07,0.03-0.13,0.07-0.18l0.28-0.28C66.8,78.11,67.59,77.31,68.38,76.53z M61.79,28.41c0.05-0.04,0.1-0.09,0.15-0.14
				c0.75-0.76,1.49-1.55,2.2-2.31l0.01-0.01l0.35-0.37c0.05-0.05,0.09-0.08,0.19-0.08c0.07,0,0.14,0.03,0.18,0.09
				c0.68,0.8,1.4,1.65,2.15,2.45c0.12,0.13,0.27,0.26,0.45,0.39c0.06,0.04,0.1,0.11,0.11,0.18c0.01,0.07-0.02,0.14-0.07,0.2
				c-0.85,0.89-1.73,1.81-2.61,2.69c-0.05,0.05-0.11,0.07-0.18,0.07c-0.05,0-0.1-0.02-0.15-0.05l-0.24-0.23
				c-0.84-0.83-1.67-1.66-2.52-2.49c-0.05-0.05-0.09-0.13-0.09-0.2C61.72,28.53,61.74,28.45,61.79,28.41z M67.63,36.4
				c0,0.07-0.03,0.13-0.07,0.18c-0.05,0.05-0.1,0.1-0.16,0.16l0,0l-0.5,0.49c-0.68,0.67-1.37,1.34-2.06,2.01
				c-0.05,0.05-0.11,0.07-0.17,0.07c-0.06,0-0.13-0.02-0.18-0.07c-0.86-0.85-1.75-1.75-2.64-2.65c-0.1-0.1-0.1-0.25,0-0.35l0.19-0.2
				c0.83-0.84,1.67-1.69,2.52-2.5c0.1-0.09,0.25-0.09,0.35,0l2.65,2.68C67.61,36.27,67.63,36.33,67.63,36.4z M61.8,44.06
				c1.02-0.99,1.9-1.83,2.73-2.61c0.1-0.09,0.25-0.09,0.34,0c1.04,1.02,1.88,1.86,2.65,2.66c0.09,0.1,0.09,0.25,0,0.35l-1.23,1.21
				l0,0c-0.48,0.48-0.97,0.95-1.45,1.43c-0.05,0.05-0.11,0.07-0.18,0.07l0,0c-0.07,0-0.13-0.03-0.18-0.07
				c-0.39-0.39-0.78-0.78-1.17-1.17l-0.08-0.08c-0.48-0.48-0.96-0.96-1.44-1.44c-0.05-0.05-0.07-0.11-0.07-0.18
				C61.72,44.17,61.75,44.11,61.8,44.06z M61.79,51.89c0.62-0.62,1.25-1.24,1.87-1.85l0.86-0.85c0.1-0.1,0.26-0.1,0.35,0
				c0.9,0.91,1.81,1.82,2.72,2.73c0.05,0.05,0.07,0.11,0.07,0.18s-0.03,0.13-0.08,0.18l-1.04,0.99l0,0l-1.68,1.6
				c-0.05,0.05-0.11,0.07-0.17,0.07c-0.06,0-0.12-0.02-0.17-0.07l-0.09-0.08c-0.88-0.84-1.78-1.7-2.65-2.54
				c-0.05-0.05-0.08-0.11-0.08-0.18C61.72,52,61.75,51.93,61.79,51.89z M60.92,68.73c0.78,0.78,1.56,1.56,2.34,2.34l0.37,0.37
				c0.1,0.1,0.1,0.25,0,0.35c-0.75,0.77-1.68,1.72-2.61,2.69c-0.05,0.05-0.11,0.08-0.18,0.08l0,0c-0.07,0-0.13-0.03-0.18-0.07
				c-0.81-0.83-1.69-1.7-2.74-2.74c-0.05-0.05-0.07-0.11-0.07-0.18c0-0.07,0.03-0.13,0.07-0.18c0.4-0.4,0.8-0.81,1.2-1.21
				c0.48-0.48,0.96-0.97,1.44-1.45C60.67,68.63,60.82,68.63,60.92,68.73z M53.96,28.37c0.65-0.66,1.3-1.31,1.96-1.97l0.7-0.7
				c0.09-0.09,0.25-0.1,0.35-0.01l0.05,0.05l0.62,0.6c0.65,0.64,1.31,1.27,1.96,1.91l0,0c0.05,0.05,0.11,0.1,0.17,0.15
				c0.06,0.05,0.09,0.12,0.09,0.19c0,0.07-0.03,0.14-0.08,0.19c-0.88,0.85-1.79,1.75-2.7,2.66c-0.05,0.05-0.12,0.08-0.19,0.08
				c-0.06,0-0.12-0.02-0.17-0.06c-0.3-0.29-0.59-0.57-0.87-0.85l-0.29-0.29c-0.53-0.52-1.07-1.06-1.59-1.6
				C53.86,28.63,53.86,28.47,53.96,28.37z M53.16,92.13c0.84,0.82,1.69,1.67,2.52,2.48l0.21,0.21c0.1,0.1,0.1,0.25,0,0.35
				c-0.88,0.89-1.77,1.78-2.66,2.67c-0.05,0.05-0.11,0.07-0.18,0.07c-0.07,0-0.13-0.03-0.18-0.07l-0.55-0.56
				c-0.71-0.71-1.45-1.45-2.16-2.18c-0.1-0.1-0.09-0.25,0-0.35c0.74-0.74,1.68-1.68,2.65-2.62C52.91,92.04,53.06,92.04,53.16,92.13z
				 M52.02,67.69c0,0.07-0.03,0.13-0.07,0.18c-0.51,0.5-1.02,0.99-1.53,1.48l-0.08,0.08c-0.37,0.36-0.75,0.72-1.12,1.09
				c-0.05,0.05-0.11,0.07-0.17,0.07s-0.13-0.02-0.18-0.07c-0.58-0.58-1.16-1.16-1.74-1.74l-0.86-0.86c-0.1-0.1-0.1-0.25,0-0.35
				l0.85-0.85c0.6-0.59,1.21-1.2,1.81-1.81c0.1-0.1,0.25-0.1,0.35,0l0.93,0.91c0.58,0.57,1.17,1.14,1.75,1.72
				C52,67.56,52.02,67.62,52.02,67.69z M51.92,60.07c-0.02,0.02-0.04,0.05-0.06,0.07c-0.31,0.3-0.63,0.59-0.94,0.88l-0.17,0.16
				c-0.52,0.48-1.05,0.98-1.57,1.48c-0.05,0.05-0.11,0.07-0.17,0.07c-0.05,0-0.1-0.01-0.14-0.04c-0.8-0.55-1.42-1.29-2.08-2.07
				c-0.17-0.2-0.34-0.4-0.52-0.6c-0.08-0.1-0.08-0.24,0-0.33c0.85-0.92,1.73-1.84,2.56-2.69c0.05-0.05,0.11-0.08,0.18-0.08
				s0.13,0.03,0.17,0.07c0.99,0.98,1.89,1.88,2.73,2.75C52.01,59.83,52.01,59.98,51.92,60.07z M51.89,52.21
				c-0.36,0.37-0.69,0.7-1.01,1.02l-0.06,0.06c-0.51,0.51-1.02,1.03-1.53,1.55c-0.05,0.05-0.11,0.08-0.18,0.08l0,0
				c-0.07,0-0.13-0.03-0.18-0.07c-0.79-0.8-1.72-1.75-2.67-2.67c-0.05-0.05-0.08-0.11-0.08-0.18s0.03-0.13,0.07-0.18
				c0.68-0.67,1.36-1.35,2.02-2.01l0.62-0.62c0.05-0.05,0.13-0.07,0.18-0.07c0.07,0,0.13,0.03,0.18,0.08
				c0.26,0.29,0.52,0.57,0.78,0.83c0.24,0.25,0.49,0.49,0.74,0.73l0.07,0.06c0.35,0.35,0.69,0.68,1.02,1.02
				C51.94,51.93,51.97,52.1,51.89,52.21z M46.16,43.96c0.85-0.89,1.75-1.81,2.68-2.75c0.05-0.05,0.08-0.08,0.18-0.07
				c0.07,0,0.13,0.03,0.18,0.08l2.63,2.82c0.09,0.1,0.09,0.25-0.01,0.35l-0.14,0.14l0,0c-0.13,0.13-0.27,0.26-0.4,0.39l-0.51,0.51
				c-0.52,0.53-1.04,1.04-1.55,1.57c-0.05,0.05-0.11,0.08-0.18,0.08l0,0c-0.07,0-0.13-0.03-0.18-0.07l-0.9-0.89
				c-0.6-0.6-1.21-1.2-1.81-1.81C46.07,44.21,46.07,44.06,46.16,43.96z M44.99,84.29c0.05-0.05,0.11-0.07,0.18-0.07
				c0.07,0,0.13,0.03,0.18,0.07l2.74,2.76c0.1,0.1,0.1,0.25,0,0.35l-2.66,2.65c-0.05,0.05-0.11,0.07-0.18,0.07l0,0
				c-0.07,0-0.13-0.03-0.17-0.07l-0.62-0.62c-0.7-0.71-1.41-1.41-2.11-2.12c-0.09-0.1-0.09-0.25,0-0.35c0.83-0.85,1.68-1.7,2.5-2.53
				L44.99,84.29z M44.21,75.51c0,0.07-0.03,0.13-0.08,0.18c-0.68,0.64-1.34,1.29-1.99,1.93l-0.75,0.73
				c-0.05,0.05-0.11,0.07-0.17,0.07c-0.06,0-0.13-0.02-0.17-0.07c-0.34-0.33-0.68-0.66-1.02-0.99l-0.22-0.21
				c-0.49-0.47-0.99-0.96-1.49-1.45c-0.05-0.05-0.07-0.11-0.07-0.18c0-0.07,0.03-0.13,0.08-0.18l0.05-0.05l0.38-0.36
				c0.78-0.75,1.58-1.52,2.36-2.29c0.05-0.05,0.11-0.07,0.17-0.07l0,0c0.07,0,0.13,0.03,0.18,0.08c0.75,0.76,1.51,1.53,2.25,2.26
				l0.42,0.42C44.19,75.37,44.21,75.44,44.21,75.51z M38.21,59.93c0-0.07,0.03-0.13,0.07-0.18c0.69-0.68,1.38-1.38,2.06-2.05
				l0.75-0.75c0.05-0.05,0.11-0.07,0.18-0.07l0,0c0.07,0,0.13,0.03,0.18,0.07l0.28,0.29c0.65,0.66,1.32,1.33,1.97,2
				c0.13,0.13,0.24,0.26,0.33,0.39c0.07,0.1,0.06,0.23-0.02,0.31c-0.81,0.85-1.64,1.71-2.44,2.54l-0.14,0.14
				c-0.05,0.05-0.11,0.08-0.18,0.08c-0.06,0-0.12-0.02-0.17-0.07l-2.77-2.53C38.24,60.06,38.21,60,38.21,59.93z M44.09,67.92
				c-0.88,0.84-1.79,1.68-2.68,2.51c-0.05,0.04-0.11,0.07-0.17,0.07c-0.06,0-0.13-0.02-0.17-0.07c-0.54-0.52-1.07-1.05-1.6-1.58
				l-1.02-1.01c-0.1-0.09-0.1-0.25-0.01-0.34l0.84-0.93c0.53-0.59,1.08-1.19,1.62-1.77c0.04-0.05,0.12-0.08,0.18-0.09
				c0.09,0,0.14,0.02,0.19,0.06c0.97,0.93,1.93,1.87,2.83,2.8c0.05,0.05,0.07,0.11,0.07,0.18C44.17,67.82,44.14,67.88,44.09,67.92z
				 M38.36,43.98l1-0.99c0.55-0.55,1.12-1.12,1.69-1.67c0.1-0.1,0.25-0.09,0.35,0l1.22,1.23c0.48,0.48,0.95,0.96,1.43,1.44
				c0.05,0.05,0.07,0.11,0.07,0.18c0,0.07-0.03,0.13-0.07,0.18c-0.61,0.6-1.21,1.2-1.8,1.79l-0.87,0.87
				c-0.05,0.05-0.11,0.07-0.18,0.07c-0.07,0-0.13-0.03-0.18-0.07l-2.67-2.66c-0.05-0.05-0.07-0.11-0.07-0.18
				C38.28,44.1,38.31,44.03,38.36,43.98z M38.28,51.78c0.82-0.76,1.7-1.57,2.72-2.52c0.1-0.09,0.25-0.09,0.35,0.01
				c0.87,0.87,1.75,1.75,2.62,2.62c0.05,0.05,0.07,0.11,0.07,0.18s-0.03,0.13-0.08,0.18l-1,0.97c-0.57,0.55-1.14,1.1-1.71,1.65
				c-0.05,0.05-0.11,0.07-0.17,0.07c-0.05,0-0.1-0.02-0.15-0.05c-0.07-0.05-0.13-0.1-0.17-0.14c-0.48-0.49-0.96-0.99-1.43-1.49
				l-0.05-0.05c-0.34-0.35-0.67-0.71-1.01-1.06c-0.05-0.05-0.07-0.11-0.07-0.18C38.2,51.89,38.23,51.83,38.28,51.78z M37.18,107.69
				c0.05-0.05,0.11-0.07,0.17-0.07l0,0c0.07,0,0.13,0.03,0.18,0.07c0.83,0.84,1.73,1.76,2.73,2.8c0.09,0.1,0.09,0.25,0,0.35
				L39.1,112c-0.48,0.48-0.97,0.96-1.45,1.44c-0.05,0.05-0.11,0.07-0.18,0.07c-0.06-0.01-0.13-0.03-0.18-0.07
				c-0.46-0.47-0.93-0.94-1.4-1.41l-0.08-0.08c-0.42-0.42-0.84-0.85-1.26-1.27c-0.1-0.1-0.1-0.25,0-0.35
				C35.44,109.43,36.34,108.53,37.18,107.69z M36.31,67.68c0,0.07-0.03,0.13-0.07,0.18c-0.94,0.91-1.87,1.86-2.64,2.64
				c-0.05,0.05-0.14,0.07-0.18,0.07c-0.07,0-0.13-0.03-0.17-0.07c-0.46-0.45-0.92-0.91-1.38-1.37l-0.27-0.27
				c-0.35-0.35-0.69-0.69-1.04-1.03c-0.1-0.09-0.1-0.25-0.01-0.35c0.16-0.17,0.31-0.34,0.46-0.51l0.05-0.05
				c0.23-0.26,0.45-0.51,0.68-0.74c0.47-0.47,0.96-0.92,1.46-1.38c0.1-0.09,0.25-0.09,0.34,0.01c0.87,0.89,1.78,1.8,2.69,2.69
				C36.29,67.55,36.31,67.62,36.31,67.68z M30.55,59.64c0.06-0.06,0.12-0.12,0.18-0.18l2.46-2.45c0.1-0.1,0.25-0.1,0.35,0
				c0.87,0.86,1.76,1.74,2.65,2.63c0.1,0.1,0.1,0.25,0,0.35c-0.98,0.99-1.85,1.85-2.66,2.65l-0.07,0.06
				c-0.05,0.05-0.12,0.07-0.19,0.07c-0.06,0-0.13-0.02-0.17-0.07L33,62.6c-0.91-0.97-1.67-1.78-2.46-2.61
				c-0.05-0.05-0.07-0.11-0.07-0.18C30.47,59.74,30.51,59.68,30.55,59.64z M30.53,75.16c0.04-0.04,0.09-0.09,0.15-0.15
				c0.42-0.4,0.84-0.8,1.27-1.2l0.08-0.08c0.45-0.43,0.9-0.87,1.36-1.29c0.1-0.09,0.25-0.09,0.35,0.01
				c0.92,0.94,1.76,1.81,2.61,2.67c0.09,0.09,0.1,0.24,0.01,0.34c-0.75,0.82-1.57,1.69-2.58,2.73c-0.04,0.04-0.09,0.09-0.16,0.14
				c-0.05,0.03-0.1,0.05-0.15,0.05c-0.06,0-0.13-0.02-0.18-0.07c-0.87-0.86-1.79-1.79-2.67-2.71l-0.09-0.1
				C30.44,75.4,30.44,75.25,30.53,75.16z M29.7,99.94c0.79,0.79,1.59,1.59,2.38,2.39l0.33,0.33c0.1,0.1,0.1,0.25,0,0.35l-1.21,1.2
				c-0.47,0.47-0.94,0.94-1.42,1.41c-0.05,0.05-0.11,0.07-0.18,0.07s-0.13-0.03-0.18-0.07c-0.96-0.96-1.9-1.89-2.72-2.69
				c-0.05-0.05-0.07-0.11-0.07-0.18c0-0.07,0.03-0.13,0.07-0.18l0.25-0.25l0,0l0.1-0.1c0.77-0.77,1.54-1.54,2.31-2.3
				C29.45,99.84,29.6,99.85,29.7,99.94z M28.48,75.61c-0.87,0.88-1.74,1.75-2.62,2.63c-0.05,0.05-0.11,0.07-0.18,0.07
				c0,0,0,0-0.01,0c-0.07,0-0.13-0.03-0.18-0.08c-0.05-0.05-0.1-0.1-0.15-0.16l-0.51-0.51c-0.67-0.67-1.36-1.36-2.05-2.03
				c-0.1-0.09-0.1-0.25-0.01-0.35c0.28-0.29,0.56-0.57,0.83-0.84c0.19-0.19,0.39-0.37,0.58-0.55l0.06-0.05
				c0.36-0.33,0.72-0.68,1.07-1.04l0.09-0.1c0.05-0.05,0.11-0.08,0.18-0.08c0.09-0.01,0.13,0.02,0.18,0.07
				c0.8,0.78,1.61,1.59,2.38,2.37l0.31,0.31C28.58,75.36,28.58,75.52,28.48,75.61z M22.71,59.65l0.75-0.75
				c0.65-0.64,1.31-1.31,1.97-1.97c0.05-0.05,0.11-0.07,0.18-0.07l0,0c0.07,0,0.13,0.03,0.18,0.08c0.5,0.51,1,1.02,1.49,1.51
				c0.36,0.36,0.69,0.69,1.02,1.02l0.03,0.03l0.07,0.07c0.05,0.05,0.07,0.11,0.07,0.18s-0.03,0.13-0.07,0.18l-0.53,0.52
				c-0.73,0.72-1.46,1.45-2.19,2.17c-0.05,0.05-0.11,0.07-0.17,0.07c-0.06,0-0.13-0.02-0.17-0.07c-0.84-0.83-1.69-1.67-2.51-2.49
				l-0.12-0.12c-0.05-0.05-0.07-0.11-0.07-0.18S22.66,59.7,22.71,59.65z M14.9,99.09c-0.04-0.08-0.03-0.17,0.01-0.25
				c0.08-0.12,0.15-0.22,0.22-0.29c0.74-0.77,1.51-1.53,2.26-2.27l0.24-0.24c0.08-0.08,0.21-0.09,0.31-0.03l0.21,0.14
				c0.05,0.03,0.08,0.05,0.1,0.06c0.81,0.83,1.62,1.67,2.42,2.51c0.05,0.05,0.07,0.12,0.07,0.18c0,0.07-0.03,0.13-0.09,0.18
				c-0.18,0.16-0.36,0.32-0.52,0.49c-0.26,0.27-0.52,0.54-0.78,0.81l-0.13,0.14c-0.39,0.41-0.79,0.83-1.2,1.24
				c-0.05,0.05-0.11,0.07-0.18,0.07c-0.06,0-0.12-0.02-0.17-0.07c-0.89-0.84-1.81-1.71-2.72-2.61
				C14.93,99.14,14.91,99.11,14.9,99.09z M20.68,106.86c-1.04,1.05-1.9,1.91-2.71,2.71c-0.05,0.05-0.11,0.07-0.17,0.07l0,0
				c-0.07,0-0.13-0.03-0.18-0.07c-0.77-0.79-1.55-1.59-2.31-2.38l-0.27-0.28c-0.09-0.1-0.09-0.25,0-0.35l0.88-0.89
				c0.58-0.59,1.18-1.19,1.76-1.8c0.05-0.05,0.11-0.08,0.18-0.08l0,0c0.07,0,0.13,0.03,0.18,0.07c0.6,0.62,1.22,1.23,1.82,1.82
				l0.82,0.82C20.78,106.61,20.78,106.76,20.68,106.86z M20.72,91.25l-0.21,0.2c-0.83,0.79-1.67,1.58-2.5,2.37
				c-0.06,0.05-0.14,0.08-0.22,0.08c-0.06,0-0.11-0.02-0.16-0.06c-0.55-0.53-1.11-1.08-1.64-1.62c-0.35-0.35-0.69-0.7-1.05-1.04
				c-0.05-0.05-0.07-0.11-0.07-0.18c0-0.07,0.03-0.13,0.08-0.18c0.96-0.9,1.91-1.81,2.72-2.6c0.02-0.02,0.05-0.04,0.09-0.06
				c0.09-0.04,0.2-0.02,0.27,0.05c0.5,0.5,1,0.99,1.5,1.49l1.16,1.16c0.05,0.05,0.09,0.13,0.09,0.2
				C20.78,91.12,20.77,91.2,20.72,91.25z M20.63,83.42l-0.56,0.57c-0.71,0.72-1.42,1.43-2.13,2.15c-0.05,0.05-0.11,0.07-0.18,0.07
				l0,0c-0.07,0-0.13-0.03-0.18-0.08l-0.42-0.43c-0.69-0.71-1.39-1.44-2.07-2.16c-0.05-0.06-0.11-0.14-0.18-0.26
				c-0.05-0.08-0.04-0.19,0.01-0.26c0.11-0.16,0.18-0.26,0.26-0.33c0.44-0.42,0.89-0.83,1.33-1.23c0.37-0.34,0.75-0.69,1.13-1.04
				c0.1-0.09,0.25-0.09,0.35,0.01c0.53,0.55,1.08,1.09,1.61,1.62l1.03,1.03C20.73,83.17,20.73,83.32,20.63,83.42z M14.85,75.17
				l2.76-2.73c0.1-0.1,0.25-0.1,0.35,0c0.05,0.05,0.1,0.1,0.15,0.15c0.46,0.48,0.91,0.97,1.36,1.45l1.12,1.2
				c0.09,0.1,0.09,0.25-0.01,0.35c-0.88,0.87-1.76,1.75-2.63,2.63c-0.05,0.05-0.11,0.07-0.18,0.07c-0.06,0-0.13-0.02-0.17-0.07
				l-1.02-1.01c-0.49-0.48-0.98-0.96-1.46-1.45c-0.08-0.08-0.17-0.16-0.25-0.23c-0.05-0.05-0.08-0.11-0.09-0.18
				C14.77,75.29,14.8,75.22,14.85,75.17z M7.12,75.16l0.96-0.96c0.54-0.53,1.09-1.08,1.63-1.64c0.05-0.05,0.11-0.07,0.18-0.07
				s0.13,0.03,0.18,0.08c0.76,0.78,1.53,1.55,2.29,2.29l0.46,0.45c0.05,0.05,0.08,0.12,0.08,0.19c0,0.07-0.03,0.14-0.09,0.19
				c-0.84,0.78-1.67,1.57-2.47,2.33l-0.25,0.22c-0.05,0.05-0.11,0.07-0.17,0.07c-0.07,0-0.13-0.03-0.18-0.08
				c-0.47-0.49-0.95-0.98-1.42-1.48l-1.17-1.22C7.05,75.44,7.02,75.25,7.12,75.16z M12.84,83.23c0,0.07-0.03,0.13-0.08,0.18
				l-0.93,0.89c-0.61,0.58-1.22,1.17-1.83,1.74c-0.05,0.05-0.11,0.07-0.17,0.07c-0.07,0-0.13-0.03-0.18-0.08
				c-0.16-0.18-0.3-0.34-0.43-0.5c-0.2-0.24-0.4-0.48-0.62-0.71c-0.44-0.46-0.91-0.94-1.43-1.44c-0.05-0.05-0.07-0.11-0.07-0.18
				c0-0.07,0.03-0.13,0.07-0.18c0.79-0.78,1.63-1.62,2.6-2.6c0.09-0.09,0.26-0.09,0.35,0c0.94,0.95,1.86,1.87,2.64,2.63
				C12.81,83.09,12.84,83.16,12.84,83.23z M7.07,90.78c0.6-0.54,1.19-1.1,1.77-1.64l0.99-0.92c0.09-0.08,0.22-0.08,0.31-0.01
				c0.82,0.77,1.62,1.59,2.33,2.32l0.35,0.36c0.1,0.1,0.09,0.25,0,0.35l-0.73,0.73c-0.64,0.64-1.29,1.28-1.93,1.93
				c-0.05,0.05-0.11,0.07-0.18,0.07c-0.07,0-0.13-0.03-0.18-0.07c-0.93-0.94-1.86-1.87-2.75-2.75C7,91.1,6.98,91.04,6.98,90.97
				C6.98,90.9,7.02,90.83,7.07,90.78z M10.32,101.58c-0.07,0.07-0.12,0.12-0.17,0.16c-0.05,0.04-0.1,0.06-0.16,0.06
				c-0.06,0-0.12-0.02-0.16-0.06c-0.04-0.03-0.09-0.08-0.15-0.14l0,0c-0.26-0.25-0.52-0.51-0.78-0.76l-0.15-0.14
				c-0.52-0.51-1.05-1.03-1.6-1.54c-0.05-0.05-0.1-0.13-0.1-0.2s0.02-0.15,0.07-0.2c0.06-0.05,0.12-0.11,0.19-0.18l0.9-0.91
				c0.54-0.54,1.09-1.1,1.63-1.66c0.05-0.05,0.11-0.08,0.18-0.08l0,0c0.07,0,0.13,0.03,0.18,0.07c0.56,0.57,1.13,1.14,1.69,1.69
				l0.99,0.99c0.1,0.1,0.1,0.25,0,0.35C12.02,99.88,11.17,100.73,10.32,101.58z"/>
		</g>
	</g>
</g>
</svg>
