<?xml version="1.0" encoding="utf-8"?>
<!-- Generator: Adobe Illustrator 23.0.4, SVG Export Plug-In . SVG Version: 6.00 Build 0)  -->
<svg version="1.1" id="Layer_1" xmlns="http://www.w3.org/2000/svg" xmlns:xlink="http://www.w3.org/1999/xlink" x="0px" y="0px"
	 viewBox="0 0 400 131" style="enable-background:new 0 0 400 131;" xml:space="preserve">
<style type="text/css">
	.st0{fill:#FFFFFF;}
</style>
<g>
	<g>
		<g>
			<g>
				<path class="st0" d="M122.32,57v2.21c0,3.04,0.98,4.7,3.31,4.7c2.39,0,3.16-2.01,3.16-5.09c0-4.1-0.89-5.51-4.81-8.58
					c-3.95-3.1-6.01-5.04-6.01-10.47c0-4.76,1.44-9.47,7.71-9.45c6.23,0.02,7.45,4.35,7.45,8.62v1.85h-4.89v-1.72
					c0-2.76-0.5-4.49-2.65-4.49c-2.13,0-2.68,1.86-2.68,4.48c0,2.94,0.57,4.22,3.86,6.66c5.34,3.98,6.99,6.25,6.99,12.37
					c0,5.19-1.68,10.03-8.27,10.03c-6.44,0-8.11-4.14-8.11-8.98V57H122.32z"/>
			</g>
		</g>
		<g>
			<g>
				<path class="st0" d="M152.28,62.2c0,1.84,0.02,4.44,0.11,5.41h-4.53c-0.13-0.59-0.3-1.73-0.34-2.17
					c-0.94,1.88-2.56,2.61-4.65,2.61c-4.18,0-5.86-3.81-5.86-8.11v-0.5c0-6.73,4.39-8.75,9.47-8.75c0.26,0,0.54,0,0.89,0v-3.97
					c0-2.36-0.34-3.76-2.26-3.76c-1.89,0-2.37,1.46-2.37,3.4v0.58h-4.85v-0.5c0-4.03,1.56-7.54,7.39-7.54c5.24,0,7,3.04,7,7.44V62.2
					z M147.47,54.49c-0.29,0-0.88,0-1.12,0c-2.83,0-4.62,1.13-4.62,4.88v0.46c0,2.21,0.75,3.89,2.7,3.89c2.18,0,3.04-1.63,3.04-5.61
					V54.49z"/>
			</g>
		</g>
		<g>
			<g>
				<path class="st0" d="M158.74,67.61V43.68h-2.87v-4.34h2.87v-3.28c0-3.71,1.48-7.06,6.36-7.06c0.77,0,1.56,0.06,2.04,0.2v4.42
					c-0.46-0.07-0.74-0.09-1.14-0.09c-1.89,0-2.33,1.13-2.33,3.11v2.69h3.51v4.34h-3.51v23.93H158.74z"/>
			</g>
		</g>
		<g>
			<g>
				<path class="st0" d="M175.01,54.69v4.35c0,2.45,0.53,4.83,2.94,4.83c2.43,0,2.8-2.08,2.8-4.39V59.3h4.82v0.16
					c0,3.1-0.69,8.59-7.53,8.59c-6.66,0-7.84-4.21-7.84-9.94v-9.79c0-4.04,1.34-9.42,7.85-9.42c5.8,0,7.61,4.06,7.61,9.39
					c0,1.61,0,4.77,0,6.39H175.01z M180.92,50.78v-3.16c0-2.62-0.53-4.53-2.89-4.53c-2.17,0-2.98,1.67-2.98,4.54v3.14H180.92z"/>
			</g>
		</g>
		<g>
			<g>
				<path class="st0" d="M203.69,67.61l-5.08-36.73h5.25c0.97,8.35,2.4,21.91,2.69,28.36h0.09c0.71-6.99,2.65-20.04,3.77-28.36h4.88
					c1.16,8.51,3.09,20.66,3.71,28.14h0.13c0.42-6.8,1.87-19.54,2.84-28.14h5l-5.49,36.73h-5.13c-1.11-8.38-2.89-20.17-3.62-27.11
					h-0.09c-0.82,7.26-2.67,18.95-3.85,27.11H203.69z"/>
			</g>
		</g>
		<g>
			<g>
				<path class="st0" d="M243.45,62.2c0,1.84,0.02,4.44,0.11,5.41h-4.53c-0.13-0.59-0.3-1.73-0.34-2.17
					c-0.94,1.88-2.56,2.61-4.65,2.61c-4.18,0-5.86-3.81-5.86-8.11v-0.5c0-6.73,4.39-8.75,9.47-8.75c0.26,0,0.54,0,0.89,0v-3.97
					c0-2.36-0.34-3.76-2.26-3.76c-1.89,0-2.37,1.46-2.37,3.4v0.58h-4.85v-0.5c0-4.03,1.56-7.54,7.39-7.54c5.24,0,7,3.04,7,7.44V62.2
					z M238.64,54.49c-0.29,0-0.88,0-1.12,0c-2.83,0-4.62,1.13-4.62,4.88v0.46c0,2.21,0.75,3.89,2.7,3.89c2.18,0,3.04-1.63,3.04-5.61
					V54.49z"/>
			</g>
		</g>
		<g>
			<g>
				<path class="st0" d="M246.88,39.35h3.1v-6.85h4.91v6.85h3.73v4.34h-3.73v17.66c0,1.39,0.21,2.59,1.95,2.59
					c0.51,0,1.29-0.06,1.63-0.17v3.75c-0.91,0.41-2.26,0.51-3.28,0.51c-3.21,0-5.22-1.14-5.22-5.79V43.68h-3.1V39.35z"/>
			</g>
		</g>
		<g>
			<g>
				<path class="st0" d="M266.1,54.69v4.35c0,2.45,0.53,4.83,2.94,4.83c2.43,0,2.8-2.08,2.8-4.39V59.3h4.82v0.16
					c0,3.1-0.69,8.59-7.53,8.59c-6.66,0-7.84-4.21-7.84-9.94v-9.79c0-4.04,1.34-9.42,7.85-9.42c5.8,0,7.61,4.06,7.61,9.39
					c0,1.61,0,4.77,0,6.39H266.1z M272,50.78v-3.16c0-2.62-0.53-4.53-2.89-4.53c-2.17,0-2.98,1.67-2.98,4.54v3.14H272z"/>
			</g>
		</g>
		<g>
			<g>
				<path class="st0" d="M281.88,48.94c0-4.64,0.04-6.87-0.06-9.6h4.68c0.06,0.63,0.15,2.83,0.15,4.51
					c1.09-3.68,3.56-4.88,6.12-4.92v6.08c-3.34,0.02-5.97,1.33-5.97,6.84v15.76h-4.93V48.94z"/>
			</g>
		</g>
		<g>
			<g>
				<path class="st0" d="M135.48,94.21v17.72c0,6.79-2.85,10.08-8.77,10.08c-5.86,0-8.29-3.5-8.29-10V94.19
					c0-6.7,3.25-9.94,8.61-9.94C132.55,84.25,135.48,87.67,135.48,94.21z M123.44,93.81v18.72c0,3.51,1.27,5.03,3.49,5.03
					c2.37,0,3.52-1.45,3.52-5.15V93.79c0-3.33-1.08-5.05-3.53-5.05C124.62,88.74,123.44,90.33,123.44,93.81z"/>
			</g>
		</g>
		<g>
			<g>
				<path class="st0" d="M145.11,119.38V131h-4.93v-29.64c0-3.83,0-6.39-0.06-8.13h4.71c0.09,0.54,0.19,1.75,0.19,2.88
					c0.78-1.85,2.33-3.32,5.17-3.32c3.92,0,5.81,2.71,5.81,8.25v11.75c0,6.41-2.26,9.15-6.34,9.15
					C147.06,121.94,145.79,120.66,145.11,119.38z M151.05,112.86V101.4c0-2.92-1-4.16-2.71-4.16c-2.3,0-3.25,1.69-3.25,5.13v9.57
					c0,3.05,0.5,5.56,3.01,5.56C150.33,117.49,151.05,115.75,151.05,112.86z"/>
			</g>
		</g>
		<g>
			<g>
				<path class="st0" d="M158.81,93.23h3.1v-6.85h4.91v6.85h3.73v4.34h-3.73v17.66c0,1.39,0.21,2.59,1.95,2.59
					c0.51,0,1.29-0.06,1.63-0.17v3.75c-0.91,0.41-2.26,0.51-3.28,0.51c-3.21,0-5.22-1.14-5.22-5.79V97.57h-3.1V93.23z"/>
			</g>
		</g>
		<g>
			<g>
				<path class="st0" d="M174.51,93.23h4.93v28.27h-4.93V93.23z M174.55,83.16h4.93v5.9h-4.93V83.16z"/>
			</g>
		</g>
		<g>
			<g>
				<path class="st0" d="M185.01,101.41c0-5.42,0-6.86-0.06-8.17h4.71c0.15,0.85,0.15,1.6,0.19,2.56c0.93-1.91,2.58-3,4.92-3
					c2.25,0,3.81,0.96,4.48,3.14c0.95-1.64,2.42-3.14,5.35-3.14c2.95,0,5.48,1.42,5.48,6.91v21.79h-4.93v-20.86
					c0-2.07-0.48-3.4-2.33-3.4c-2.26,0-2.78,1.88-2.78,4.78v19.48h-4.97v-20.68c0-2.77-0.77-3.58-2.36-3.58
					c-2.25,0-2.75,1.91-2.75,4.82v19.43h-4.93V101.41z"/>
			</g>
		</g>
		<g>
			<g>
				<path class="st0" d="M215.72,93.23h4.93v28.27h-4.93V93.23z M215.76,83.16h4.93v5.9h-4.93V83.16z"/>
			</g>
		</g>
		<g>
			<g>
				<path class="st0" d="M224.62,118.15l9.03-20.43h-8.23v-4.49h13.67v3.46l-8.77,20.32h8.86l-0.43,4.49h-14.13V118.15z"/>
			</g>
		</g>
		<g>
			<g>
				<path class="st0" d="M258,116.08c0,1.84,0.02,4.44,0.11,5.41h-4.53c-0.13-0.59-0.3-1.73-0.34-2.17
					c-0.94,1.88-2.56,2.61-4.65,2.61c-4.18,0-5.86-3.81-5.86-8.11v-0.5c0-6.73,4.39-8.75,9.47-8.75c0.26,0,0.54,0,0.89,0v-3.97
					c0-2.36-0.34-3.76-2.26-3.76c-1.89,0-2.37,1.46-2.37,3.4v0.58h-4.85v-0.5c0-4.03,1.56-7.54,7.39-7.54c5.24,0,7,3.04,7,7.44
					V116.08z M253.19,108.38c-0.29,0-0.88,0-1.12,0c-2.83,0-4.62,1.13-4.62,4.88v0.46c0,2.21,0.75,3.89,2.7,3.89
					c2.18,0,3.04-1.63,3.04-5.61V108.38z"/>
			</g>
		</g>
		<g>
			<g>
				<path class="st0" d="M261.43,93.23h3.1v-6.85h4.91v6.85h3.73v4.34h-3.73v17.66c0,1.39,0.21,2.59,1.95,2.59
					c0.51,0,1.29-0.06,1.63-0.17v3.75c-0.91,0.41-2.26,0.51-3.28,0.51c-3.21,0-5.22-1.14-5.22-5.79V97.57h-3.1V93.23z"/>
			</g>
		</g>
		<g>
			<g>
				<path class="st0" d="M277.13,93.23h4.93v28.27h-4.93V93.23z M277.17,83.16h4.93v5.9h-4.93V83.16z"/>
			</g>
		</g>
		<g>
			<g>
				<path class="st0" d="M303.25,101.64v11.27c0,6.09-2.97,9.04-7.97,9.04c-5.13,0-7.85-2.98-7.85-8.95v-11.52
					c0-5.84,3.23-8.67,8.01-8.67C300.41,92.79,303.25,95.92,303.25,101.64z M292.38,101.4v11.76c0,2.62,0.84,4.41,2.99,4.41
					c2.01,0,2.93-1.44,2.93-4.48v-11.72c0-2.43-0.73-4.19-2.95-4.19C293.28,97.17,292.38,98.66,292.38,101.4z"/>
			</g>
		</g>
		<g>
			<g>
				<path class="st0" d="M308.52,101.91c0-5.71,0-7.34-0.06-8.67h4.71c0.09,0.64,0.19,1.7,0.19,2.68c0.83-1.82,2.41-3.12,5.2-3.12
					c3.3,0,5.72,1.95,5.72,7.23v21.47h-4.93v-20.53c0-2.63-0.9-3.73-2.66-3.73c-2.16,0-3.23,1.11-3.23,5.58v18.68h-4.93V101.91z"/>
			</g>
		</g>
		<g>
			<g>
				<path class="st0" d="M345.39,89.33h-5.92v-4.57h16.78v4.57h-5.93v32.16h-4.93V89.33z"/>
			</g>
		</g>
		<g>
			<g>
				<path class="st0" d="M370.7,101.64v11.27c0,6.09-2.97,9.04-7.97,9.04c-5.13,0-7.85-2.98-7.85-8.95v-11.52
					c0-5.84,3.23-8.67,8.01-8.67C367.87,92.79,370.7,95.92,370.7,101.64z M359.83,101.4v11.76c0,2.62,0.84,4.41,2.99,4.41
					c2.01,0,2.93-1.44,2.93-4.48v-11.72c0-2.43-0.73-4.19-2.95-4.19C360.73,97.17,359.83,98.66,359.83,101.4z"/>
			</g>
		</g>
		<g>
			<g>
				<path class="st0" d="M390.63,101.64v11.27c0,6.09-2.97,9.04-7.97,9.04c-5.13,0-7.85-2.98-7.85-8.95v-11.52
					c0-5.84,3.23-8.67,8.01-8.67C387.79,92.79,390.63,95.92,390.63,101.64z M379.75,101.4v11.76c0,2.62,0.84,4.41,2.99,4.41
					c2.01,0,2.93-1.44,2.93-4.48v-11.72c0-2.43-0.73-4.19-2.95-4.19C380.66,97.17,379.75,98.66,379.75,101.4z"/>
			</g>
		</g>
		<g>
			<g>
				<path class="st0" d="M395.02,121.5V83.16h4.93v38.34H395.02z"/>
			</g>
		</g>
	</g>
	<g>
		<path class="st0" d="M50.83,4.35c0-0.42-0.26-0.72-0.5-0.96c-0.68-0.66-1.36-1.32-2.04-1.98l-1.09-1.05
			c-0.02-0.02-0.03-0.03-0.04-0.05L46.98,0h-0.96l-1.08,1.1c-0.78,0.79-1.58,1.62-2.38,2.41c-0.1,0.1-0.41,0.4-0.41,0.83
			c0,0.43,0.32,0.74,0.42,0.84c0,0,0,0,0,0c0.65,0.63,1.3,1.28,1.93,1.92c0.36,0.36,0.71,0.71,1.07,1.07
			c0.68,0.68,1.24,0.68,1.94-0.02c0.92-0.92,1.87-1.87,2.83-2.84C50.59,5.07,50.83,4.76,50.83,4.35z"/>
	</g>
	<g>
		<path class="st0" d="M27.06,27.01c-0.15-0.14-0.3-0.24-0.45-0.33c-0.07-0.04-0.12-0.07-0.18-0.11l-0.32-0.21l-0.32,0.2
			c-0.04,0.03-0.09,0.05-0.13,0.08c-0.15,0.09-0.31,0.17-0.45,0.31c-1,1.02-2,2.04-2.96,3.05c-0.58,0.6-0.57,1.16,0.03,1.76
			c1.07,1.08,2.05,2.06,3,3.01c0.31,0.31,0.62,0.47,0.92,0.47h0c0.3,0,0.61-0.16,0.92-0.46l0.69-0.68c0.74-0.73,1.49-1.47,2.23-2.21
			c0.23-0.23,0.55-0.54,0.55-0.97c0-0.42-0.31-0.73-0.53-0.95C28.86,28.78,27.94,27.87,27.06,27.01z"/>
	</g>
	<g>
		<path class="st0" d="M34.51,27.34c-0.03,0.07-0.04,0.1-0.06,0.14l-0.13,0.27l0.14,0.26c0.02,0.04,0.04,0.09,0.06,0.13
			c0,0,0.01,0.03,0.01,0.03c0.07,0.16,0.17,0.37,0.35,0.55c0.88,0.9,1.83,1.85,2.91,2.91c0.53,0.52,1.31,0.52,1.88,0
			c0.38-0.35,0.75-0.72,1.11-1.07l0.46-0.45c0.44-0.43,0.88-0.87,1.31-1.3c0.35-0.34,0.52-0.69,0.52-1.04
			c0-0.35-0.16-0.68-0.49-1.01c-0.48-0.48-0.98-0.96-1.46-1.42c-0.29-0.28-0.58-0.55-0.86-0.83c-0.17-0.17-0.34-0.34-0.5-0.51
			l-0.23-0.23c-0.44-0.45-1.03-0.46-1.47-0.04c-0.97,0.93-2.11,2.03-3.25,3.15C34.63,27.02,34.56,27.2,34.51,27.34z"/>
	</g>
	<g>
		<path class="st0" d="M24.07,47.26c1.11-1.1,2.01-2.01,2.84-2.84c0.7-0.71,0.7-1.31,0-2.02c-0.91-0.91-1.85-1.85-2.88-2.87
			c-0.14-0.14-0.29-0.23-0.43-0.31c-0.07-0.04-0.11-0.07-0.16-0.1l-0.32-0.21l-0.32,0.2c-0.05,0.03-0.1,0.06-0.15,0.09
			c-0.15,0.09-0.29,0.17-0.43,0.3c-1.2,1.15-2.11,2.03-2.96,2.86c-0.71,0.7-0.71,1.25,0,1.97c0.84,0.85,1.73,1.75,2.89,2.92
			c0,0,0,0,0,0C22.81,47.91,23.42,47.91,24.07,47.26z"/>
	</g>
	<g>
		<path class="st0" d="M10.74,62.01l0.07-0.07c0.45-0.45,0.9-0.9,1.34-1.35c0.62-0.62,0.62-1.16-0.01-1.79
			c-0.94-0.95-1.93-1.93-2.94-2.93c-0.13-0.13-0.26-0.22-0.4-0.31c-0.07-0.05-0.11-0.08-0.16-0.11l-0.32-0.24L8,55.42
			c-0.04,0.03-0.09,0.05-0.13,0.08c-0.15,0.08-0.31,0.17-0.45,0.31c-0.63,0.61-1.26,1.23-1.89,1.85l-1.2,1.18
			c-0.33,0.32-0.4,0.64-0.4,0.85c0,0.21,0.07,0.53,0.39,0.86l0.67,0.67c0,0,0,0,0,0l0.23,0.23c0.78,0.78,1.58,1.57,2.35,2.36
			c0.22,0.22,0.45,0.33,0.69,0.33c0.37,0,0.62-0.25,0.71-0.34C9.56,63.19,10.15,62.6,10.74,62.01z"/>
	</g>
	<g>
		<path class="st0" d="M46.49,16.94c0.16-0.16,0.23-0.35,0.28-0.49c0.03-0.06,0.04-0.11,0.06-0.15l0.13-0.28l-0.16-0.27
			c-0.02-0.04-0.04-0.08-0.06-0.12c-0.07-0.14-0.16-0.3-0.3-0.45c-0.61-0.62-1.22-1.23-1.84-1.84l-1.13-1.13
			c-0.26-0.26-0.57-0.4-0.87-0.4c-0.29,0-0.59,0.12-0.85,0.37c-0.89,0.86-1.79,1.75-2.66,2.61l-0.47,0.47
			c-0.28,0.27-0.33,0.56-0.33,0.74c0,0.18,0.06,0.46,0.33,0.73c0.9,0.91,2.08,2.1,3.29,3.3c0.21,0.21,0.48,0.33,0.75,0.33
			c0.3-0.01,0.56-0.13,0.77-0.34C44.27,19.19,45.37,18.08,46.49,16.94z"/>
	</g>
	<g>
		<path class="st0" d="M58.92,13.99c0.28-0.28,0.31-0.84,0.06-1.16c-0.99-1.24-1.96-2.46-2.97-3.66c-0.19-0.23-0.46-0.49-0.86-0.51
			c-0.46-0.03-0.79,0.3-0.95,0.46c-1.1,1.07-2.01,1.97-2.86,2.84c-0.16,0.17-0.27,0.35-0.37,0.52c-0.04,0.06-0.07,0.13-0.11,0.19
			l-0.2,0.31l0.2,0.32c0.04,0.06,0.07,0.12,0.1,0.18c0.08,0.15,0.17,0.31,0.31,0.46c1.1,1.14,2.01,2.07,2.88,2.94
			c0.54,0.54,1.29,0.55,1.85,0.02C56.85,16.06,57.76,15.16,58.92,13.99z"/>
	</g>
	<g>
		<g>
			<polygon class="st0" points="62.63,26.11 62.63,26.11 62.63,26.11 			"/>
		</g>
		<g>
			<path class="st0" d="M8.77,111.24c5.23,6.6,11.75,11.56,19.36,14.75c5.01,2.1,10.44,3.33,16.13,3.65
				c4.13,0.23,8.36-0.12,12.58-1.03c1.56-0.34,3.11-0.81,4.61-1.27l0.11-0.03c0.42-0.13,0.84-0.26,1.27-0.39
				c0.1-0.03,0.2-0.07,0.3-0.13l5.81-2.58c0.22-0.07,0.43-0.17,0.68-0.3l0.25-0.14c4.44-2.45,8.47-5.57,11.99-9.29
				c0.07-0.07,0.12-0.14,0.17-0.21l3.85-4.71c0.06-0.06,0.1-0.12,0.15-0.18c2.14-3.03,3.92-6.27,5.3-9.62
				c1.22-2.96,2.15-6.09,2.76-9.28c0.67-3.51,0.94-7.23,0.81-11.05v0c-0.02-0.52-0.23-0.84-0.66-0.99
				c-0.04-0.01-0.07-0.03-0.09-0.06l-0.1-0.1c-0.33-0.32-0.66-0.65-0.99-0.98c-0.55-0.55-1.12-1.11-1.68-1.66
				c-0.05-0.05-0.08-0.11-0.08-0.18c0-0.07,0.03-0.13,0.07-0.18c0.37-0.36,0.74-0.73,1.09-1.08c0.36-0.37,0.73-0.73,1.1-1.09
				c0.17-0.16,0.62-0.6,0.41-1.34c-0.22-0.81-0.44-1.62-0.65-2.43l-0.11-0.4c-0.27-1.02-0.54-2.03-0.82-3.04l-0.2-0.76
				c-0.24-0.91-0.52-1.94-0.86-2.91c-0.85-2.43-2-4.72-3.45-7.43l-0.35-0.65l-0.91,0.81c-0.1,0.09-0.25,0.08-0.34-0.01
				c-0.84-0.84-1.69-1.68-2.53-2.53l-0.16-0.16c-0.05-0.05-0.08-0.12-0.08-0.19c0-0.07,0.02-0.14,0.07-0.18
				c0.4-0.39,0.77-0.76,1.13-1.14c0.21-0.23,0.42-0.76,0.18-1.15c-0.79-1.31-1.62-2.63-2.42-3.91l-0.35-0.56
				c-0.07-0.11-0.15-0.18-0.23-0.24c-0.03-0.02-0.07-0.05-0.11-0.1l-0.43-0.37l-0.61,0.66c-0.03,0.08-0.1,0.15-0.14,0.2
				c-0.23,0.24-0.47,0.47-0.72,0.71l-0.15,0.14c-0.1,0.09-0.25,0.09-0.34,0c-0.97-0.94-1.84-1.8-2.66-2.64
				c-0.1-0.1-0.09-0.25,0-0.35l0.51-0.5c0.45-0.45,0.55-0.54,0.74-0.71c0.11-0.1,0.26-0.24,0.55-0.51c0.74-0.71,0.39-1.32,0.11-1.62
				c-0.57-0.62-1.12-1.23-1.73-1.9l-0.26-0.29c-0.28-0.31-0.58-0.64-0.85-0.98c-0.05-0.07-0.07-0.16-0.04-0.23
				c0.19-0.54-0.09-0.94-0.22-1.13l-0.15-0.21c-0.86-1.21-1.75-2.47-2.6-3.71c-0.09-0.13-0.33-0.47-0.74-0.51
				c-0.41-0.04-0.71,0.26-0.83,0.38c-0.09,0.09-0.17,0.17-0.25,0.25c-0.1,0.09-0.25,0.09-0.34,0l-0.27-0.26
				c-0.27-0.26-0.53-0.53-0.8-0.79c-0.46-0.45-0.92-0.9-1.36-1.35c-0.11-0.11-0.17-0.18-0.2-0.23c-0.06-0.09-0.07-0.2,0-0.29
				c0.03-0.05,0.09-0.12,0.19-0.22c0.08-0.08,0.16-0.17,0.24-0.25c0.2-0.2,0.4-0.4,0.59-0.64c0.23-0.3,0.3-0.85,0.05-1.2
				c-0.65-0.9-1.31-1.8-1.96-2.68l-0.06-0.08C66.68,23,66.34,22.54,66,22.08c-0.22-0.3-0.47-0.38-0.63-0.39
				c-0.24-0.02-0.48,0.08-0.7,0.3l-0.53,0.53c-0.38,0.38-0.76,0.76-1.14,1.15c-0.05,0.05-0.13,0.08-0.2,0.07
				c-0.07-0.01-0.14-0.04-0.18-0.1c-0.16-0.22-0.29-0.38-0.42-0.53c-0.75-0.82-1.54-1.62-2.29-2.37c-0.41-0.41-1.09-0.59-1.79,0.1
				l-0.92,0.91c-0.45,0.44-0.89,0.89-1.34,1.33c-0.16,0.16-0.41,0.41-0.57,0.53c-0.09,0.07-0.22,0.07-0.31,0
				c-0.17-0.13-0.43-0.39-0.59-0.54c-0.48-0.47-0.97-0.96-1.44-1.43c-0.29-0.29-0.58-0.59-0.88-0.88c-0.63-0.63-1.15-0.64-1.79-0.03
				c-1.01,0.97-2.02,1.96-3.01,2.94c-0.18,0.17-0.47,0.46-0.47,0.88c0,0.41,0.3,0.71,0.46,0.87c0.5,0.5,1,0.99,1.5,1.49
				c0.49,0.48,0.98,0.97,1.47,1.46c0.1,0.1,0.1,0.25,0,0.35c-0.4,0.41-0.81,0.82-1.21,1.22l-0.06,0.06
				c-0.45,0.44-0.91,0.9-1.36,1.36c-0.86,0.87-0.85,1.41,0.03,2.3c0.56,0.57,1.13,1.13,1.69,1.7l0.8,0.8c0.1,0.1,0.1,0.25,0,0.35
				l-0.18,0.18c-0.76,0.77-1.55,1.56-2.32,2.35l-0.09,0.1c-0.05,0.05-0.11,0.08-0.18,0.08c-0.05,0-0.13-0.02-0.18-0.07l-2.78-2.72
				c-0.72-0.7-1.2-0.7-1.91,0.01l-2.81,2.81c-0.1,0.08-0.27,0.09-0.35,0l-1.04-1.04c-0.66-0.65-1.33-1.33-1.99-2
				c-0.1-0.1-0.35-0.36-0.73-0.36c-0.34,0-0.57,0.19-0.74,0.36c-0.67,0.68-1.37,1.37-2.04,2.04l-0.99,0.98
				c-0.21,0.21-0.56,0.56-0.56,1.03c0,0.44,0.29,0.76,0.59,1.05l0.89,0.88c0.59,0.59,1.21,1.21,1.83,1.8
				c0.05,0.05,0.08,0.11,0.08,0.18c0,0.07-0.03,0.13-0.07,0.18c-0.48,0.47-0.96,0.95-1.42,1.41c-0.5,0.5-1,1-1.5,1.49
				c-0.12,0.12-0.4,0.39-0.4,0.79c0,0.4,0.29,0.68,0.39,0.78c0.65,0.62,1.29,1.27,1.91,1.89l1.01,1.01
				c0.05,0.05,0.07,0.11,0.07,0.18c0,0.07-0.03,0.13-0.07,0.18c-0.62,0.61-1.25,1.24-1.86,1.85l-0.9,0.9
				c-0.05,0.05-0.1,0.07-0.18,0.07c-0.07,0-0.13-0.03-0.18-0.08c-0.2-0.22-0.41-0.44-0.62-0.65c-0.66-0.68-1.35-1.38-2.05-2.07
				c-0.66-0.66-1.3-0.66-1.96,0l-0.33,0.33c-0.78,0.78-1.58,1.58-2.37,2.39c-0.05,0.05-0.11,0.08-0.18,0.08
				c-0.07,0-0.13-0.03-0.18-0.07c-0.52-0.53-1.04-1.05-1.55-1.56l-1.12-1.13c-0.29-0.3-0.63-0.63-1.08-0.63
				c-0.46,0-0.79,0.33-1.09,0.63c-0.88,0.88-1.76,1.76-2.64,2.65c-0.82,0.82-0.81,1.3,0.02,2.13l0.55,0.56
				c0.7,0.7,1.41,1.42,2.13,2.13c0.05,0.05,0.07,0.11,0.07,0.18c0,0.07-0.03,0.13-0.07,0.18c-0.38,0.37-0.75,0.74-1.13,1.12
				l-0.24,0.24c-0.53,0.53-1.07,1.07-1.61,1.59c-0.1,0.1-0.36,0.36-0.36,0.73c0,0.38,0.26,0.64,0.36,0.73
				c0.85,0.83,1.71,1.69,2.54,2.52l0.39,0.39c0.05,0.05,0.07,0.11,0.07,0.18c0,0.07-0.03,0.13-0.07,0.18
				c-0.71,0.7-1.42,1.42-2.16,2.16l-0.52,0.51c-0.05,0.05-0.09,0.07-0.18,0.07c-0.07,0-0.13-0.03-0.18-0.08
				c-0.9-0.94-1.73-1.8-2.57-2.65c-0.26-0.26-0.59-0.53-1.03-0.53c-0.45,0-0.8,0.29-1.05,0.55l-0.64,0.64
				C9.89,69,9.19,69.69,8.51,70.4c-0.05,0.05-0.11,0.08-0.18,0.08S8.2,70.45,8.15,70.4c-0.87-0.89-1.74-1.75-2.59-2.58
				c-0.9-0.87-1.45-0.87-2.35,0c-0.54,0.52-1.07,1.05-1.6,1.57l-0.09,0.09c-0.36,0.36-0.72,0.71-1.08,1.06
				c-0.27,0.26-0.41,0.55-0.41,0.86c0,0.21,0.07,0.52,0.39,0.85l2.94,2.93c0.05,0.05,0.07,0.11,0.07,0.18
				c0,0.07-0.03,0.13-0.08,0.18c-0.84,0.81-1.75,1.7-2.86,2.79C0.2,78.62,0,78.89,0,79.25c0,0.36,0.19,0.63,0.49,0.93l0.64,0.65
				c0.7,0.71,1.42,1.44,2.14,2.16c0.05,0.05,0.07,0.11,0.07,0.18s-0.03,0.13-0.07,0.18c-0.56,0.55-1.12,1.11-1.66,1.65l-0.06,0.06
				c-0.33,0.34-0.66,0.67-1,1L0.4,86.21l-0.08,1.47l1.53,1.51c0.52,0.52,1.04,1.03,1.56,1.54c0.05,0.05,0.07,0.11,0.07,0.18
				c0,0.07-0.03,0.13-0.07,0.18c-0.83,0.82-1.81,1.79-2.75,2.75c-0.26,0.27-0.31,0.7-0.28,0.99c0.11,0.92,0.68,1.51,1.1,1.87
				c0.4,0.35,0.8,0.72,1.19,1.09c0.26,0.25,0.53,0.49,0.8,0.74c0.05,0.05,0.08,0.12,0.08,0.19c0,0.07-0.04,0.14-0.1,0.19
				c-0.08,0.06-0.16,0.13-0.25,0.21c-0.88,0.81-1.01,1.09-0.45,2.22c0.5,1.02,1.03,2.04,1.54,3.03l0.49,0.96
				c0.06,0.12,0.13,0.23,0.2,0.33c0,0,0.03,0.05,0.04,0.05l0.45,0.7l1.64-1.5c0.05-0.04,0.11-0.07,0.17-0.07c0,0,0.01,0,0.01,0
				c0.07,0,0.13,0.03,0.17,0.08c0.13,0.15,0.27,0.3,0.41,0.45c0.72,0.73,1.46,1.48,2.22,2.22c0.05,0.05,0.07,0.11,0.07,0.18
				c0,0.07-0.03,0.13-0.08,0.18c-0.31,0.29-0.45,0.4-0.54,0.48c-0.14,0.12-0.17,0.15-0.65,0.62c-0.09,0.09-0.17,0.16-0.24,0.23
				c-0.61,0.57-0.75,0.92-0.11,1.69L8.77,111.24z M23.85,70.17l-0.18,0.16c-0.12-0.13-0.24-0.26-0.37-0.38l-0.64-0.64
				c-0.51-0.51-1.03-1.04-1.56-1.56c-0.05-0.05-0.07-0.11-0.07-0.18c0-0.07,0.03-0.13,0.07-0.18c0.87-0.86,1.76-1.75,2.66-2.66
				c0.1-0.1,0.25-0.1,0.35,0c0.34,0.33,0.68,0.65,1.02,0.98c0.55,0.53,1.07,1.03,1.59,1.53c0.1,0.09,0.1,0.25,0.01,0.35l-0.21,0.23
				c0,0,0,0,0,0l-0.05,0.05c-0.78,0.84-1.57,1.7-2.38,2.53c-0.05,0.05-0.11,0.08-0.18,0.08c0,0,0,0,0,0c-0.07,0-0.13-0.03-0.18-0.08
				L23.85,70.17L23.85,70.17z M26.77,83.34c-0.77,0.78-1.61,1.63-2.63,2.65c-0.05,0.05-0.11,0.07-0.18,0.07
				c-0.06,0-0.13-0.02-0.17-0.07c-0.79-0.78-1.58-1.56-2.37-2.34l-0.27-0.27c-0.1-0.09-0.1-0.25-0.01-0.35
				c0.46-0.49,0.92-0.97,1.38-1.45l0.04-0.04c0.38-0.4,0.77-0.8,1.15-1.2c0.05-0.05,0.13-0.1,0.19-0.09c0.07,0,0.14,0.02,0.19,0.07
				l0.89,0.89c0.59,0.58,1.19,1.18,1.78,1.78C26.86,83.08,26.86,83.24,26.77,83.34z M26.8,91.22c-0.87,0.86-1.66,1.63-2.43,2.44
				l-0.21,0.22c-0.05,0.05-0.12,0.07-0.18,0.08c-0.07,0-0.13-0.03-0.18-0.07l-0.17-0.18c-0.73-0.74-1.46-1.5-2.17-2.25l-0.31-0.32
				c-0.09-0.1-0.09-0.25,0-0.35l0.85-0.84v0l0.1-0.09c0.54-0.53,1.09-1.08,1.63-1.6c0.05-0.04,0.09-0.07,0.21-0.12
				c0.08-0.04,0.18-0.03,0.25,0.02c0.18,0.13,0.37,0.27,0.51,0.42c0.39,0.42,0.79,0.86,1.17,1.29c0.31,0.35,0.62,0.69,0.92,1.02
				C26.9,90.98,26.89,91.13,26.8,91.22z M26.86,114.61c-0.55,0.54-1.09,1.07-1.63,1.61l-1.11,1.1c-0.05,0.05-0.11,0.07-0.17,0.07
				c-0.06,0-0.13-0.02-0.17-0.07c-0.86-0.86-1.75-1.75-2.63-2.66c-0.09-0.1-0.09-0.25,0-0.35c0.86-0.89,1.75-1.78,2.7-2.73
				c0.1-0.1,0.25-0.1,0.35,0c0.76,0.76,1.71,1.7,2.67,2.68C26.96,114.36,26.96,114.52,26.86,114.61z M31.8,93.95
				c-0.06,0-0.13-0.02-0.18-0.07c-0.83-0.82-1.65-1.66-2.47-2.48l-0.16-0.16c-0.1-0.1-0.1-0.25,0-0.35l1.13-1.14h0l1.52-1.53
				c0.05-0.05,0.11-0.07,0.18-0.07c0,0,0,0,0,0c0.07,0,0.13,0.03,0.18,0.07l0.81,0.81c0.64,0.64,1.24,1.24,1.84,1.84
				c0.1,0.1,0.1,0.25,0,0.35c-0.97,0.98-1.85,1.85-2.68,2.67C31.93,93.93,31.87,93.95,31.8,93.95z M28.91,83.43
				c-0.05-0.05-0.07-0.11-0.07-0.18s0.03-0.13,0.07-0.18c0.4-0.4,0.8-0.8,1.2-1.2l0.16-0.16c0.45-0.45,0.9-0.9,1.35-1.34
				c0.1-0.1,0.25-0.09,0.35,0c0.39,0.39,0.78,0.78,1.16,1.17l0.1,0.11c0.46,0.47,0.92,0.93,1.38,1.39c0.05,0.05,0.07,0.11,0.07,0.18
				c0,0.07-0.03,0.13-0.07,0.18c-0.82,0.82-1.65,1.63-2.48,2.44l-0.24,0.24c-0.05,0.05-0.11,0.07-0.17,0.07
				c-0.06,0-0.13-0.02-0.18-0.07l-0.71-0.71C30.21,84.72,29.56,84.07,28.91,83.43z M42.47,99.02l-1.11,1.11
				c-0.52,0.53-1.05,1.05-1.56,1.56c-0.05,0.05-0.11,0.07-0.18,0.07c-0.07,0-0.13-0.03-0.18-0.07c-0.79-0.79-1.63-1.64-2.66-2.69
				c-0.1-0.1-0.09-0.25,0-0.35c0.88-0.88,1.77-1.77,2.66-2.65c0.1-0.1,0.25-0.1,0.35,0l1.11,1.11c0.52,0.52,1.04,1.04,1.56,1.56
				c0.05,0.05,0.07,0.11,0.07,0.18C42.54,98.91,42.51,98.97,42.47,99.02z M50.24,106.8c-0.88,0.89-1.76,1.78-2.64,2.67
				c-0.05,0.05-0.11,0.07-0.18,0.07c-0.06,0-0.13-0.02-0.17-0.07c-0.87-0.85-1.74-1.7-2.61-2.56l-0.12-0.12
				c-0.05-0.05-0.07-0.11-0.07-0.18s0.03-0.13,0.07-0.18l2.71-2.68c0.1-0.1,0.25-0.1,0.35,0c0.38,0.39,0.77,0.77,1.15,1.16
				c0.5,0.51,1,1.01,1.51,1.52C50.33,106.54,50.33,106.7,50.24,106.8z M46.76,77.85c-0.71-0.72-1.45-1.47-2.19-2.2
				c-0.02-0.02-0.04-0.05-0.05-0.07c-0.05-0.1-0.03-0.21,0.05-0.29l0.18-0.18h0c0.82-0.81,1.66-1.64,2.48-2.48
				c0.05-0.05,0.11-0.07,0.18-0.07c0,0,0,0,0,0c0.07,0,0.13,0.03,0.18,0.08c0.55,0.56,1.1,1.12,1.65,1.66l1,1.01
				c0.1,0.1,0.1,0.25,0,0.35l-2.66,2.66c-0.05,0.05-0.11,0.07-0.18,0.07c-0.06,0-0.13-0.02-0.18-0.07L46.76,77.85z M58.04,83.43
				c-0.83,0.84-1.71,1.71-2.66,2.65c-0.05,0.05-0.11,0.07-0.17,0.07c-0.06,0-0.13-0.02-0.17-0.07c-0.9-0.89-1.79-1.78-2.66-2.65
				c-0.1-0.1-0.1-0.25,0-0.35c0.83-0.84,1.73-1.73,2.65-2.63c0.04-0.05,0.1-0.08,0.17-0.08c0.06-0.01,0.13,0.03,0.18,0.08
				c0.86,0.84,1.76,1.72,2.67,2.64C58.13,83.17,58.13,83.33,58.04,83.43z M57.96,36.57c-0.58,0.57-1.16,1.14-1.72,1.71l-0.07,0.07
				c-0.28,0.29-0.57,0.57-0.86,0.86c-0.05,0.05-0.11,0.07-0.18,0.07h0c-0.07,0-0.13-0.03-0.18-0.07l-0.61-0.62
				c-0.69-0.7-1.38-1.4-2.07-2.1c-0.1-0.1-0.11-0.27-0.01-0.36c0.76-0.76,1.52-1.52,2.31-2.31l0.39-0.39
				c0.05-0.05,0.13-0.07,0.18-0.07c0.07,0,0.13,0.03,0.18,0.08c0.79,0.87,1.65,1.78,2.63,2.78c0.05,0.05,0.07,0.11,0.07,0.18
				C58.04,36.46,58.01,36.52,57.96,36.57z M58.08,44.21c0,0.07-0.03,0.13-0.07,0.18c-0.98,0.96-1.87,1.82-2.68,2.6
				c-0.05,0.05-0.11,0.07-0.17,0.07c-0.06,0-0.13-0.02-0.17-0.07c-0.57-0.56-1.13-1.12-1.69-1.68l-0.92-0.91
				c-0.1-0.1-0.1-0.25,0-0.35c0.87-0.87,1.76-1.76,2.66-2.64c0.1-0.09,0.25-0.09,0.35,0c0.83,0.82,1.66,1.66,2.46,2.47L58,44.03
				C58.05,44.08,58.08,44.14,58.08,44.21z M52.29,51.81c0.88-0.88,1.76-1.75,2.66-2.64c0.1-0.1,0.25-0.1,0.35,0l0.66,0.65
				c0.66,0.65,1.35,1.33,2.01,2c0.1,0.1,0.1,0.25,0,0.35c-0.95,0.95-1.8,1.8-2.59,2.57c-0.05,0.05-0.11,0.07-0.17,0.07
				c-0.06,0-0.12-0.02-0.17-0.07l-2.73-2.57c-0.05-0.05-0.08-0.11-0.08-0.18C52.21,51.93,52.24,51.86,52.29,51.81z M58.09,59.82
				c0,0.07-0.03,0.13-0.07,0.18c-0.83,0.81-1.69,1.68-2.64,2.64c-0.05,0.05-0.11,0.07-0.18,0.07c-0.07,0-0.13-0.03-0.18-0.07
				c-0.62-0.62-1.23-1.24-1.85-1.85l-0.8-0.8c-0.1-0.1-0.1-0.25,0-0.35c0.88-0.89,1.75-1.77,2.63-2.65
				c0.05-0.05,0.11-0.08,0.18-0.08c0,0,0,0,0,0c0.07,0,0.13,0.02,0.18,0.07l0.01,0.01c0.4,0.4,0.8,0.81,1.21,1.22l0.1,0.1
				c0.44,0.45,0.89,0.9,1.33,1.35C58.06,59.69,58.09,59.76,58.09,59.82z M65.89,106.8c-0.89,0.91-1.77,1.83-2.66,2.75
				c-0.05,0.05-0.14,0.07-0.18,0.08c-0.07,0-0.13-0.03-0.18-0.07c-0.62-0.63-1.25-1.26-1.88-1.88l-0.85-0.85
				c-0.05-0.05-0.07-0.11-0.07-0.18c0-0.07,0.03-0.13,0.07-0.18l0.07-0.07c0,0,0,0,0,0c0.87-0.86,1.74-1.73,2.61-2.58
				c0.1-0.09,0.25-0.1,0.35,0c0.54,0.52,1.07,1.04,1.6,1.56l1.11,1.08C65.98,106.54,65.99,106.7,65.89,106.8z M62.83,88.24
				c0.09-0.09,0.23-0.09,0.33-0.02c0.86,0.83,1.73,1.69,2.68,2.64c0.09,0.1,0.1,0.25,0,0.35c-0.95,1-1.8,1.89-2.6,2.72
				c-0.05,0.05-0.1,0.08-0.18,0.08c-0.07,0-0.13-0.03-0.17-0.07c-0.35-0.34-0.69-0.69-1.04-1.04l-0.2-0.2
				c-0.49-0.49-0.98-0.98-1.49-1.48c-0.05-0.05-0.07-0.11-0.07-0.18c0-0.07,0.03-0.13,0.07-0.18c0.45-0.44,0.9-0.89,1.36-1.33
				l0.15-0.15C62.06,89,62.45,88.61,62.83,88.24z M62.8,62.65c-0.45-0.43-0.88-0.87-1.32-1.3l-0.1-0.1c-0.4-0.4-0.8-0.79-1.2-1.19
				c-0.05-0.05-0.07-0.11-0.07-0.18s0.03-0.13,0.07-0.18c0.91-0.89,1.8-1.78,2.68-2.66c0.05-0.05,0.11-0.07,0.18-0.07
				c0.07,0,0.13,0.03,0.18,0.07c0.8,0.82,1.71,1.73,2.62,2.65c0.05,0.05,0.07,0.11,0.07,0.18s-0.03,0.13-0.07,0.18l-1.17,1.16
				c-0.5,0.49-0.99,0.98-1.48,1.46c-0.05,0.05-0.11,0.07-0.17,0.07c-0.05,0-0.1-0.02-0.15-0.05C62.84,62.69,62.8,62.66,62.8,62.65z
				 M73.67,67.92c-0.36,0.37-0.73,0.73-1.1,1.1l-0.07,0.07c-0.48,0.48-0.96,0.97-1.45,1.46c-0.05,0.05-0.11,0.08-0.18,0.08
				c-0.05,0-0.11-0.02-0.15-0.05c-0.04-0.03-0.08-0.06-0.1-0.09c-0.85-0.84-1.76-1.75-2.66-2.65c-0.1-0.1-0.1-0.25,0-0.35
				c0.8-0.8,1.6-1.61,2.4-2.41l0.24-0.24c0.05-0.05,0.11-0.07,0.18-0.07s0.13,0.03,0.18,0.07c0.9,0.91,1.81,1.82,2.71,2.73
				C73.77,67.67,73.77,67.82,73.67,67.92z M81.46,91.28c-0.59,0.61-1.19,1.22-1.79,1.83l-0.83,0.84c-0.05,0.05-0.11,0.07-0.18,0.07
				c0,0,0,0,0,0c-0.07,0-0.13-0.03-0.18-0.07c-0.46-0.46-0.92-0.93-1.38-1.39c-0.45-0.45-0.9-0.9-1.35-1.35
				c-0.1-0.1-0.1-0.25,0-0.35c0.97-0.97,1.84-1.84,2.65-2.63c0.1-0.1,0.25-0.1,0.35,0c0.89,0.88,1.8,1.79,2.7,2.7
				C81.56,91.03,81.56,91.18,81.46,91.28z M79.67,63.57c0.9-0.93,1.83-1.86,2.71-2.75c0.09-0.09,0.26-0.09,0.35,0
				c0.9,0.91,1.81,1.81,2.71,2.71c0.05,0.05,0.07,0.11,0.07,0.18c0,0.07-0.03,0.13-0.08,0.18c-0.95,0.91-1.86,1.79-2.78,2.68
				c-0.05,0.05-0.11,0.07-0.17,0.07c-0.06,0-0.13-0.02-0.18-0.07l-1-1v0l-0.15-0.15c-0.5-0.5-0.99-0.99-1.48-1.49
				C79.57,63.82,79.57,63.66,79.67,63.57z M78.4,72.63c0.1-0.09,0.27-0.11,0.37-0.01c0.33,0.32,0.62,0.61,0.91,0.9l0.15,0.15
				c0.53,0.53,1.07,1.07,1.62,1.59c0.05,0.05,0.08,0.11,0.08,0.18c0,0.07-0.03,0.13-0.07,0.18c-0.87,0.87-1.69,1.75-2.6,2.73
				c-0.05,0.05-0.11,0.08-0.18,0.08c0,0,0,0,0,0c-0.07,0-0.13-0.03-0.18-0.07l-0.1-0.1c-0.87-0.87-1.78-1.77-2.65-2.67
				c-0.1-0.1-0.09-0.25,0-0.35C76.73,74.25,77.6,73.4,78.4,72.63z M74.74,52.95c0.07,0,0.13,0.03,0.18,0.07
				c0.91,0.92,1.83,1.83,2.74,2.76c0.1,0.1,0.1,0.25,0,0.35c-0.48,0.47-0.95,0.95-1.43,1.43l0,0l-1.27,1.27
				c-0.05,0.05-0.11,0.07-0.18,0.07c-0.06,0-0.12-0.02-0.17-0.07c-0.83-0.79-1.71-1.66-2.77-2.71c-0.1-0.1-0.1-0.25,0-0.35
				c0.94-0.96,1.88-1.91,2.72-2.74C74.61,52.97,74.67,52.95,74.74,52.95z M73.6,44.39c-0.81,0.83-1.67,1.7-2.64,2.66
				c-0.05,0.05-0.11,0.07-0.18,0.07c-0.05-0.01-0.13-0.03-0.18-0.07c-1.06-1.07-1.88-1.9-2.64-2.69c-0.05-0.05-0.07-0.11-0.07-0.18
				c0-0.05,0.02-0.1,0.05-0.15l1.1-1.19c0.47-0.5,0.95-1.01,1.42-1.53c0.05-0.05,0.11-0.08,0.18-0.08c0.07,0,0.13,0.02,0.18,0.07
				c0.56,0.56,1.13,1.11,1.69,1.67l1.08,1.07C73.7,44.14,73.7,44.29,73.6,44.39z M67.92,36.31l2.66-2.67c0.1-0.1,0.25-0.1,0.35,0
				l0.18,0.18c0.82,0.81,1.6,1.6,2.37,2.38c0.1,0.1,0.09,0.25,0,0.35c-0.62,0.63-1.25,1.26-1.87,1.87l-0.79,0.79
				c-0.05,0.05-0.11,0.07-0.18,0.07h0c-0.07,0-0.13-0.03-0.18-0.07c-0.88-0.9-1.77-1.78-2.55-2.55c-0.05-0.05-0.07-0.11-0.07-0.18
				C67.84,36.42,67.87,36.35,67.92,36.31z M66.68,76.49c0.1-0.1,0.25-0.1,0.35,0c0.88,0.87,1.76,1.77,2.71,2.73
				c0.1,0.1,0.09,0.25,0,0.35c-0.4,0.4-0.8,0.81-1.2,1.21l-0.17,0.17c-0.42,0.42-0.84,0.84-1.25,1.27
				c-0.05,0.05-0.11,0.08-0.18,0.08c-0.07,0-0.13-0.03-0.18-0.08c-1-1.03-1.88-1.91-2.71-2.74c-0.05-0.05-0.07-0.11-0.07-0.18
				c0-0.07,0.03-0.13,0.07-0.18l0.28-0.28C65.1,78.07,65.89,77.27,66.68,76.49z M60.09,28.4c0.05-0.04,0.1-0.09,0.15-0.14
				c0.75-0.76,1.49-1.55,2.2-2.31c0,0,0.01-0.01,0.01-0.01l0.35-0.37c0.05-0.05,0.09-0.08,0.19-0.08c0.07,0,0.14,0.03,0.18,0.09
				c0.68,0.8,1.4,1.65,2.15,2.45c0.12,0.13,0.27,0.26,0.45,0.39c0.06,0.04,0.1,0.11,0.11,0.18c0.01,0.07-0.02,0.14-0.07,0.2
				c-0.85,0.89-1.73,1.81-2.61,2.69c-0.05,0.05-0.11,0.07-0.18,0.07c-0.05,0-0.1-0.02-0.15-0.05l-0.24-0.23
				c-0.84-0.83-1.67-1.66-2.52-2.49c-0.05-0.05-0.09-0.13-0.09-0.2C60.02,28.52,60.04,28.44,60.09,28.4z M65.93,36.38
				c0,0.07-0.03,0.13-0.07,0.18c-0.05,0.05-0.1,0.1-0.16,0.16c0,0,0,0,0,0l-0.5,0.49c-0.68,0.67-1.37,1.34-2.06,2.01
				c-0.05,0.05-0.11,0.07-0.17,0.07c-0.06,0-0.13-0.02-0.18-0.07c-0.86-0.85-1.75-1.75-2.64-2.65c-0.1-0.1-0.1-0.25,0-0.35l0.19-0.2
				c0.83-0.84,1.67-1.69,2.52-2.5c0.1-0.09,0.25-0.09,0.35,0l2.65,2.68C65.91,36.25,65.93,36.31,65.93,36.38z M60.1,44.04
				c1.02-0.99,1.9-1.83,2.73-2.61c0.1-0.09,0.25-0.09,0.34,0c1.04,1.02,1.88,1.86,2.65,2.66c0.09,0.1,0.09,0.25,0,0.35l-1.23,1.21
				c0,0,0,0,0,0c-0.48,0.48-0.97,0.95-1.45,1.43c-0.05,0.05-0.11,0.07-0.18,0.07h0c-0.07,0-0.13-0.03-0.18-0.07
				c-0.39-0.39-0.78-0.78-1.17-1.17l-0.08-0.08c-0.48-0.48-0.96-0.96-1.44-1.44c-0.05-0.05-0.07-0.11-0.07-0.18
				C60.02,44.15,60.05,44.09,60.1,44.04z M60.09,51.87c0.62-0.62,1.25-1.24,1.87-1.85l0.86-0.85c0.1-0.1,0.26-0.1,0.35,0
				c0.9,0.91,1.81,1.82,2.72,2.73c0.05,0.05,0.07,0.11,0.07,0.18c0,0.07-0.03,0.13-0.08,0.18l-1.04,0.99c0,0,0,0,0,0l-1.68,1.6
				c-0.05,0.05-0.11,0.07-0.17,0.07c-0.06,0-0.12-0.02-0.17-0.07l-0.09-0.08c-0.88-0.84-1.78-1.7-2.65-2.54
				c-0.05-0.05-0.08-0.11-0.08-0.18C60.02,51.98,60.05,51.91,60.09,51.87z M59.22,68.7c0.78,0.78,1.56,1.56,2.34,2.34l0.37,0.37
				c0.1,0.1,0.1,0.25,0,0.35c-0.75,0.77-1.68,1.72-2.61,2.69c-0.05,0.05-0.11,0.08-0.18,0.08c0,0,0,0,0,0
				c-0.07,0-0.13-0.03-0.18-0.07c-0.81-0.83-1.69-1.7-2.74-2.74c-0.05-0.05-0.07-0.11-0.07-0.18c0-0.07,0.03-0.13,0.07-0.18
				c0.4-0.4,0.8-0.81,1.2-1.21c0.48-0.48,0.96-0.97,1.44-1.45C58.97,68.6,59.12,68.6,59.22,68.7z M52.27,28.36
				c0.65-0.66,1.3-1.31,1.96-1.97l0.7-0.7c0.09-0.09,0.25-0.1,0.35-0.01c0,0,0.05,0.05,0.05,0.05l0.62,0.6
				c0.65,0.64,1.31,1.27,1.96,1.91c0,0,0,0,0,0c0.05,0.05,0.11,0.1,0.17,0.15c0.06,0.05,0.09,0.12,0.09,0.19
				c0,0.07-0.03,0.14-0.08,0.19c-0.88,0.85-1.79,1.75-2.7,2.66c-0.05,0.05-0.12,0.08-0.19,0.08c-0.06,0-0.12-0.02-0.17-0.06
				c-0.3-0.29-0.59-0.57-0.87-0.85l-0.29-0.29c-0.53-0.52-1.07-1.06-1.59-1.6C52.17,28.62,52.17,28.46,52.27,28.36z M51.47,92.09
				c0.84,0.82,1.69,1.67,2.52,2.48l0.21,0.21c0.1,0.1,0.1,0.25,0,0.35c-0.88,0.89-1.77,1.78-2.66,2.67
				c-0.05,0.05-0.11,0.07-0.18,0.07c-0.07,0-0.13-0.03-0.18-0.07l-0.55-0.56c-0.71-0.71-1.45-1.45-2.16-2.18
				c-0.1-0.1-0.09-0.25,0-0.35c0.74-0.74,1.68-1.68,2.65-2.62C51.22,92,51.37,92,51.47,92.09z M50.33,67.66
				c0,0.07-0.03,0.13-0.07,0.18c-0.51,0.5-1.02,0.99-1.53,1.48l-0.08,0.08c-0.37,0.36-0.75,0.72-1.12,1.09
				c-0.05,0.05-0.11,0.07-0.17,0.07c-0.06,0-0.13-0.02-0.18-0.07c-0.58-0.58-1.16-1.16-1.74-1.74l-0.86-0.86
				c-0.1-0.1-0.1-0.25,0-0.35l0.85-0.85c0.6-0.59,1.21-1.2,1.81-1.81c0.1-0.1,0.25-0.1,0.35,0l0.93,0.91
				c0.58,0.57,1.17,1.14,1.75,1.72C50.31,67.53,50.33,67.59,50.33,67.66z M50.23,60.04c-0.02,0.02-0.04,0.05-0.06,0.07
				c-0.31,0.3-0.63,0.59-0.94,0.88l-0.17,0.16c-0.52,0.48-1.05,0.98-1.57,1.48c-0.05,0.05-0.11,0.07-0.17,0.07
				c-0.05,0-0.1-0.01-0.14-0.04c-0.8-0.55-1.42-1.29-2.08-2.07c-0.17-0.2-0.34-0.4-0.52-0.6c-0.08-0.1-0.08-0.24,0-0.33
				c0.85-0.92,1.73-1.84,2.56-2.69c0.05-0.05,0.11-0.08,0.18-0.08c0.07,0,0.13,0.03,0.17,0.07c0.99,0.98,1.89,1.88,2.73,2.75
				C50.32,59.8,50.32,59.95,50.23,60.04z M50.2,52.18c-0.36,0.37-0.69,0.7-1.01,1.02l-0.06,0.06c-0.51,0.51-1.02,1.03-1.53,1.55
				c-0.05,0.05-0.11,0.08-0.18,0.08h0c-0.07,0-0.13-0.03-0.18-0.07c-0.79-0.8-1.72-1.75-2.67-2.67c-0.05-0.05-0.08-0.11-0.08-0.18
				c0-0.07,0.03-0.13,0.07-0.18c0.68-0.67,1.36-1.35,2.02-2.01l0.62-0.62c0.05-0.05,0.13-0.07,0.18-0.07c0.07,0,0.13,0.03,0.18,0.08
				c0.26,0.29,0.52,0.57,0.78,0.83c0.24,0.25,0.49,0.49,0.74,0.73l0.07,0.06c0.35,0.35,0.69,0.68,1.02,1.02
				C50.25,51.91,50.28,52.08,50.2,52.18z M44.48,43.94c0.85-0.89,1.75-1.81,2.68-2.75c0.05-0.05,0.08-0.08,0.18-0.07
				c0.07,0,0.13,0.03,0.18,0.08l2.63,2.82c0.09,0.1,0.09,0.25-0.01,0.35L50,44.51l0,0c-0.13,0.13-0.27,0.26-0.4,0.39l-0.51,0.51
				c-0.52,0.53-1.04,1.04-1.55,1.57c-0.05,0.05-0.11,0.08-0.18,0.08c0,0,0,0,0,0c-0.07,0-0.13-0.03-0.18-0.07l-0.9-0.89
				c-0.6-0.6-1.21-1.2-1.81-1.81C44.39,44.19,44.39,44.04,44.48,43.94z M43.31,84.25c0.05-0.05,0.11-0.07,0.18-0.07
				c0.07,0,0.13,0.03,0.18,0.07l2.74,2.76c0.1,0.1,0.1,0.25,0,0.35l-2.66,2.65c-0.05,0.05-0.11,0.07-0.18,0.07c0,0,0,0,0,0
				c-0.07,0-0.13-0.03-0.17-0.07l-0.62-0.62c-0.7-0.71-1.41-1.41-2.11-2.12c-0.09-0.1-0.09-0.25,0-0.35c0.83-0.85,1.68-1.7,2.5-2.53
				L43.31,84.25z M42.53,75.47c0,0.07-0.03,0.13-0.08,0.18c-0.68,0.64-1.34,1.29-1.99,1.93l-0.75,0.73
				c-0.05,0.05-0.11,0.07-0.17,0.07s-0.13-0.02-0.17-0.07c-0.34-0.33-0.68-0.66-1.02-0.99l-0.22-0.21
				c-0.49-0.47-0.99-0.96-1.49-1.45c-0.05-0.05-0.07-0.11-0.07-0.18s0.03-0.13,0.08-0.18c0,0,0.05-0.05,0.05-0.05l0.38-0.36
				c0.78-0.75,1.58-1.52,2.36-2.29c0.05-0.05,0.11-0.07,0.17-0.07c0,0,0,0,0,0c0.07,0,0.13,0.03,0.18,0.08
				c0.75,0.76,1.51,1.53,2.25,2.26l0.42,0.42C42.51,75.33,42.53,75.4,42.53,75.47z M36.53,59.9c0-0.07,0.03-0.13,0.07-0.18
				c0.69-0.68,1.38-1.38,2.06-2.05l0.75-0.75c0.05-0.05,0.11-0.07,0.18-0.07c0,0,0,0,0,0c0.07,0,0.13,0.03,0.18,0.07l0.28,0.29
				c0.65,0.66,1.32,1.33,1.97,2c0.13,0.13,0.24,0.26,0.33,0.39c0.07,0.1,0.06,0.23-0.02,0.31c-0.81,0.85-1.64,1.71-2.44,2.54
				l-0.14,0.14c-0.05,0.05-0.11,0.08-0.18,0.08c-0.06,0-0.12-0.02-0.17-0.07l-2.77-2.53C36.56,60.03,36.53,59.97,36.53,59.9z
				 M42.41,67.89c-0.88,0.84-1.79,1.68-2.68,2.51c-0.05,0.04-0.11,0.07-0.17,0.07c-0.06,0-0.13-0.02-0.17-0.07
				c-0.54-0.52-1.07-1.05-1.6-1.58l-1.02-1.01c-0.1-0.09-0.1-0.25-0.01-0.34l0.84-0.93c0.53-0.59,1.08-1.19,1.62-1.77
				c0.04-0.05,0.12-0.08,0.18-0.09c0.09,0,0.14,0.02,0.19,0.06c0.97,0.93,1.93,1.87,2.83,2.8c0.05,0.05,0.07,0.11,0.07,0.18
				S42.46,67.85,42.41,67.89z M36.68,43.96l1-0.99c0.55-0.55,1.12-1.12,1.69-1.67c0.1-0.1,0.25-0.09,0.35,0l1.22,1.23
				c0.48,0.48,0.95,0.96,1.43,1.44c0.05,0.05,0.07,0.11,0.07,0.18c0,0.07-0.03,0.13-0.07,0.18c-0.61,0.6-1.21,1.2-1.8,1.79
				l-0.87,0.87c-0.05,0.05-0.11,0.07-0.18,0.07c-0.07,0-0.13-0.03-0.18-0.07l-2.67-2.66c-0.05-0.05-0.07-0.11-0.07-0.18
				S36.63,44.01,36.68,43.96z M36.6,51.76c0.82-0.76,1.7-1.57,2.72-2.52c0.1-0.09,0.25-0.09,0.35,0.01
				c0.87,0.87,1.75,1.75,2.62,2.62c0.05,0.05,0.07,0.11,0.07,0.18c0,0.07-0.03,0.13-0.08,0.18l-1,0.97
				c-0.57,0.55-1.14,1.1-1.71,1.65c-0.05,0.05-0.11,0.07-0.17,0.07c-0.05,0-0.1-0.02-0.15-0.05c-0.07-0.05-0.13-0.1-0.17-0.14
				c-0.48-0.49-0.96-0.99-1.43-1.49l-0.05-0.05c-0.34-0.35-0.67-0.71-1.01-1.06c-0.05-0.05-0.07-0.11-0.07-0.18
				C36.52,51.87,36.55,51.81,36.6,51.76z M35.5,107.64c0.05-0.05,0.11-0.07,0.17-0.07h0c0.07,0,0.13,0.03,0.18,0.07
				c0.83,0.84,1.73,1.76,2.73,2.8c0.09,0.1,0.09,0.25,0,0.35l-1.16,1.16c-0.48,0.48-0.97,0.96-1.45,1.44
				c-0.05,0.05-0.11,0.07-0.18,0.07c-0.06-0.01-0.13-0.03-0.18-0.07c-0.46-0.47-0.93-0.94-1.4-1.41l-0.08-0.08
				c-0.42-0.42-0.84-0.85-1.26-1.27c-0.1-0.1-0.1-0.25,0-0.35C33.76,109.38,34.66,108.48,35.5,107.64z M34.63,67.65
				c0,0.07-0.03,0.13-0.07,0.18c-0.94,0.91-1.87,1.86-2.64,2.64c-0.05,0.05-0.14,0.07-0.18,0.07c-0.07,0-0.13-0.03-0.17-0.07
				c-0.46-0.45-0.92-0.91-1.38-1.37l-0.27-0.27c-0.35-0.35-0.69-0.69-1.04-1.03c-0.1-0.09-0.1-0.25-0.01-0.35
				c0.16-0.17,0.31-0.34,0.46-0.51l0.05-0.05c0.23-0.26,0.45-0.51,0.68-0.74c0.47-0.47,0.96-0.92,1.46-1.38
				c0.1-0.09,0.25-0.09,0.34,0.01c0.87,0.89,1.78,1.8,2.69,2.69C34.61,67.52,34.63,67.59,34.63,67.65z M28.88,59.61
				c0.06-0.06,0.12-0.12,0.18-0.18l2.46-2.45c0.1-0.1,0.25-0.1,0.35,0c0.87,0.86,1.76,1.74,2.65,2.63c0.1,0.1,0.1,0.25,0,0.35
				c-0.98,0.99-1.85,1.85-2.66,2.65l-0.07,0.06c-0.05,0.05-0.12,0.07-0.19,0.07c-0.06,0-0.13-0.02-0.17-0.07l-0.1-0.1
				c-0.91-0.97-1.67-1.78-2.46-2.61c-0.05-0.05-0.07-0.11-0.07-0.18S28.84,59.65,28.88,59.61z M28.86,75.12
				c0.04-0.04,0.09-0.09,0.15-0.15c0.42-0.4,0.84-0.8,1.27-1.2l0.08-0.08c0.45-0.43,0.9-0.87,1.36-1.29
				c0.1-0.09,0.25-0.09,0.35,0.01c0.92,0.94,1.76,1.81,2.61,2.67c0.09,0.09,0.1,0.24,0.01,0.34c-0.75,0.82-1.57,1.69-2.58,2.73
				c-0.04,0.04-0.09,0.09-0.16,0.14c-0.05,0.03-0.1,0.05-0.15,0.05c-0.06,0-0.13-0.02-0.18-0.07c-0.87-0.86-1.79-1.79-2.67-2.71
				l-0.09-0.1C28.77,75.36,28.77,75.21,28.86,75.12z M28.03,99.89c0.79,0.79,1.59,1.59,2.38,2.39l0.33,0.33c0.1,0.1,0.1,0.25,0,0.35
				l-1.21,1.2c-0.47,0.47-0.94,0.94-1.42,1.41c-0.05,0.05-0.11,0.07-0.18,0.07s-0.13-0.03-0.18-0.07c-0.96-0.96-1.9-1.89-2.72-2.69
				c-0.05-0.05-0.07-0.11-0.07-0.18s0.03-0.13,0.07-0.18l0.25-0.25v0l0.1-0.1c0.77-0.77,1.54-1.54,2.31-2.3
				C27.78,99.79,27.93,99.8,28.03,99.89z M26.81,75.57c-0.87,0.88-1.74,1.75-2.62,2.63c-0.05,0.05-0.11,0.07-0.18,0.07
				c0,0,0,0-0.01,0c-0.07,0-0.13-0.03-0.18-0.08c-0.05-0.05-0.1-0.1-0.15-0.16l-0.51-0.51c-0.67-0.67-1.36-1.36-2.05-2.03
				c-0.1-0.09-0.1-0.25-0.01-0.35c0.28-0.29,0.56-0.57,0.83-0.84c0.19-0.19,0.39-0.37,0.58-0.55l0.06-0.05
				c0.36-0.33,0.72-0.68,1.07-1.04l0.09-0.1c0.05-0.05,0.11-0.08,0.18-0.08c0.09-0.01,0.13,0.02,0.18,0.07
				c0.8,0.78,1.61,1.59,2.38,2.37l0.31,0.31C26.91,75.32,26.91,75.48,26.81,75.57z M21.04,59.62l0.75-0.75
				c0.65-0.64,1.31-1.31,1.97-1.97c0.05-0.05,0.11-0.07,0.18-0.07h0c0.07,0,0.13,0.03,0.18,0.08c0.5,0.51,1,1.02,1.49,1.51
				c0.36,0.36,0.69,0.69,1.02,1.02c0,0,0.03,0.03,0.03,0.03l0.07,0.07c0.05,0.05,0.07,0.11,0.07,0.18c0,0.07-0.03,0.13-0.07,0.18
				l-0.53,0.52c-0.73,0.72-1.46,1.45-2.19,2.17c-0.05,0.05-0.11,0.07-0.17,0.07c-0.06,0-0.13-0.02-0.17-0.07
				c-0.84-0.83-1.69-1.67-2.51-2.49l-0.12-0.12c-0.05-0.05-0.07-0.11-0.07-0.18S20.99,59.67,21.04,59.62z M13.24,99.04
				c-0.04-0.08-0.03-0.17,0.01-0.25c0.08-0.12,0.15-0.22,0.22-0.29c0.74-0.77,1.51-1.53,2.26-2.27l0.24-0.24
				c0.08-0.08,0.21-0.09,0.31-0.03l0.21,0.14c0.05,0.03,0.08,0.05,0.1,0.06c0.81,0.83,1.62,1.67,2.42,2.51
				c0.05,0.05,0.07,0.12,0.07,0.18c0,0.07-0.03,0.13-0.09,0.18c-0.18,0.16-0.36,0.32-0.52,0.49c-0.26,0.27-0.52,0.54-0.78,0.81
				l-0.13,0.14c-0.39,0.41-0.79,0.83-1.2,1.24c-0.05,0.05-0.11,0.07-0.18,0.07c-0.06,0-0.12-0.02-0.17-0.07
				c-0.89-0.84-1.81-1.71-2.72-2.61C13.27,99.09,13.25,99.06,13.24,99.04z M19.02,106.81c-1.04,1.05-1.9,1.91-2.71,2.71
				c-0.05,0.05-0.11,0.07-0.17,0.07c0,0,0,0,0,0c-0.07,0-0.13-0.03-0.18-0.07c-0.77-0.79-1.55-1.59-2.31-2.38l-0.27-0.28
				c-0.09-0.1-0.09-0.25,0-0.35l0.88-0.89c0.58-0.59,1.18-1.19,1.76-1.8c0.05-0.05,0.11-0.08,0.18-0.08h0
				c0.07,0,0.13,0.03,0.18,0.07c0.6,0.62,1.22,1.23,1.82,1.82l0.82,0.82C19.12,106.56,19.12,106.71,19.02,106.81z M19.06,91.21
				l-0.21,0.2c-0.83,0.79-1.67,1.58-2.5,2.37c-0.06,0.05-0.14,0.08-0.22,0.08c-0.06,0-0.11-0.02-0.16-0.06
				c-0.55-0.53-1.11-1.08-1.64-1.62c-0.35-0.35-0.69-0.7-1.05-1.04c-0.05-0.05-0.07-0.11-0.07-0.18c0-0.07,0.03-0.13,0.08-0.18
				c0.96-0.9,1.91-1.81,2.72-2.6c0.02-0.02,0.05-0.04,0.09-0.06c0.09-0.04,0.2-0.02,0.27,0.05c0.5,0.5,1,0.99,1.5,1.49l1.16,1.16
				c0.05,0.05,0.09,0.13,0.09,0.2C19.12,91.08,19.11,91.16,19.06,91.21z M18.97,83.38l-0.56,0.57c-0.71,0.72-1.42,1.43-2.13,2.15
				c-0.05,0.05-0.11,0.07-0.18,0.07h0c-0.07,0-0.13-0.03-0.18-0.08l-0.42-0.43c-0.69-0.71-1.39-1.44-2.07-2.16
				c-0.05-0.06-0.11-0.14-0.18-0.26c-0.05-0.08-0.04-0.19,0.01-0.26c0.11-0.16,0.18-0.26,0.26-0.33c0.44-0.42,0.89-0.83,1.33-1.23
				c0.37-0.34,0.75-0.69,1.13-1.04c0.1-0.09,0.25-0.09,0.35,0.01c0.53,0.55,1.08,1.09,1.61,1.62l1.03,1.03
				C19.07,83.13,19.07,83.28,18.97,83.38z M13.19,75.13l2.76-2.73c0.1-0.1,0.25-0.1,0.35,0c0.05,0.05,0.1,0.1,0.15,0.15
				c0.46,0.48,0.91,0.97,1.36,1.45l1.12,1.2c0.09,0.1,0.09,0.25-0.01,0.35c-0.88,0.87-1.76,1.75-2.63,2.63
				c-0.05,0.05-0.11,0.07-0.18,0.07c-0.06,0-0.13-0.02-0.17-0.07l-1.02-1.01c-0.49-0.48-0.98-0.96-1.46-1.45
				c-0.08-0.08-0.17-0.16-0.25-0.23c-0.05-0.05-0.08-0.11-0.09-0.18C13.11,75.25,13.14,75.18,13.19,75.13z M5.47,75.12l0.96-0.96
				c0.54-0.53,1.09-1.08,1.63-1.64c0.05-0.05,0.11-0.07,0.18-0.07s0.13,0.03,0.18,0.08c0.76,0.78,1.53,1.55,2.29,2.29l0.46,0.45
				c0.05,0.05,0.08,0.12,0.08,0.19s-0.03,0.14-0.09,0.19c-0.84,0.78-1.67,1.57-2.47,2.33L8.44,78.2c-0.05,0.05-0.11,0.07-0.17,0.07
				c-0.07,0-0.13-0.03-0.18-0.08c-0.47-0.49-0.95-0.98-1.42-1.48L5.5,75.49C5.4,75.4,5.37,75.21,5.47,75.12z M11.18,83.19
				c0,0.07-0.03,0.13-0.08,0.18l-0.93,0.89c-0.61,0.58-1.22,1.17-1.83,1.74c-0.05,0.05-0.11,0.07-0.17,0.07
				c-0.07,0-0.13-0.03-0.18-0.08c-0.16-0.18-0.3-0.34-0.43-0.5c-0.2-0.24-0.4-0.48-0.62-0.71c-0.44-0.46-0.91-0.94-1.43-1.44
				c-0.05-0.05-0.07-0.11-0.07-0.18s0.03-0.13,0.07-0.18c0.79-0.78,1.63-1.62,2.6-2.6c0.09-0.09,0.26-0.09,0.35,0
				c0.94,0.95,1.86,1.87,2.64,2.63C11.15,83.05,11.18,83.12,11.18,83.19z M5.42,90.74c0.6-0.54,1.19-1.1,1.77-1.64l0.99-0.92
				c0.09-0.08,0.22-0.08,0.31-0.01c0.82,0.77,1.62,1.59,2.33,2.32l0.35,0.36c0.1,0.1,0.09,0.25,0,0.35l-0.73,0.73
				c-0.64,0.64-1.29,1.28-1.93,1.93c-0.05,0.05-0.11,0.07-0.18,0.07c-0.07,0-0.13-0.03-0.18-0.07c-0.93-0.94-1.86-1.87-2.75-2.75
				c-0.05-0.05-0.07-0.11-0.07-0.18S5.37,90.79,5.42,90.74z M8.66,101.53c-0.07,0.07-0.12,0.12-0.17,0.16
				c-0.05,0.04-0.1,0.06-0.16,0.06c-0.06,0-0.12-0.02-0.16-0.06c-0.04-0.03-0.09-0.08-0.15-0.14c0,0,0,0,0,0
				c-0.26-0.25-0.52-0.51-0.78-0.76l-0.15-0.14c-0.52-0.51-1.05-1.03-1.6-1.54c-0.05-0.05-0.1-0.13-0.1-0.2
				c0-0.07,0.02-0.15,0.07-0.2c0.06-0.05,0.12-0.11,0.19-0.18l0.9-0.91c0.54-0.54,1.09-1.1,1.63-1.66c0.05-0.05,0.11-0.08,0.18-0.08
				h0c0.07,0,0.13,0.03,0.18,0.07c0.56,0.57,1.13,1.14,1.69,1.69l0.99,0.99c0.1,0.1,0.1,0.25,0,0.35
				C10.36,99.83,9.51,100.68,8.66,101.53z"/>
		</g>
	</g>
</g>
</svg>
