<?xml version="1.0" encoding="utf-8"?>
<!-- Generator: Adobe Illustrator 19.0.0, SVG Export Plug-In . SVG Version: 6.00 Build 0)  -->
<svg version="1.1" id="Layer_1" xmlns="http://www.w3.org/2000/svg" xmlns:xlink="http://www.w3.org/1999/xlink" x="0px" y="0px"
	 viewBox="-373 583 43.5 60" style="enable-background:new -373 583 43.5 60;" xml:space="preserve">
<style type="text/css">
	.st0{fill:#365996;}
</style>
<path class="st0" d="M-349.7,585c0-0.2-0.1-0.3-0.2-0.4l-0.9-0.9l-0.5-0.5l-0.2-0.2h-0.4l-0.5,0.5l-1.1,1.1c0,0-0.2,0.2-0.2,0.4
	s0.1,0.3,0.2,0.4l0.9,0.9l0.5,0.5c0.3,0.3,0.6,0.3,0.9,0l1.3-1.3C-349.8,585.3-349.7,585.2-349.7,585z M-360.6,595.4l-0.2-0.2
	c0,0-0.1,0-0.1-0.1h-0.1l-0.1,0.1h-0.1c-0.1,0-0.1,0.1-0.2,0.1l-1.4,1.4c-0.3,0.3-0.3,0.5,0,0.8l1.4,1.4c0.1,0.1,0.3,0.2,0.4,0.2
	s0.3-0.1,0.4-0.2l0.3-0.3l1-1c0.1-0.1,0.3-0.2,0.3-0.4s-0.1-0.3-0.2-0.4C-359.2,596.8-360.6,595.4-360.6,595.4z M-357.2,595.5
	C-357.2,595.6-357.2,595.6-357.2,595.5l-0.1,0.2l0.1,0.1v0.1c0,0.1,0.1,0.2,0.2,0.3l1.3,1.3c0.2,0.2,0.6,0.2,0.9,0l0.5-0.5l0.2-0.2
	l0.6-0.6c0.2-0.2,0.2-0.3,0.2-0.5s-0.1-0.3-0.2-0.5l-0.7-0.7l-0.4-0.4l-0.2-0.2l-0.1-0.1c-0.2-0.2-0.5-0.2-0.7,0
	c-0.4,0.4-1,0.9-1.5,1.4C-357.1,595.4-357.2,595.5-357.2,595.5z M-362,604.6l1.3-1.3c0.3-0.3,0.3-0.6,0-0.9l-1.3-1.3
	c-0.1-0.1-0.1-0.1-0.2-0.1h-0.1l-0.1-0.1l-0.1,0.1h-0.1c-0.1,0-0.1,0.1-0.2,0.1c-0.5,0.5-1,0.9-1.4,1.3c-0.3,0.3-0.3,0.6,0,0.9
	l1.3,1.3C-362.6,604.9-362.3,604.9-362,604.6z M-368.1,611.4c0.2-0.2,0.4-0.4,0.6-0.7c0.3-0.3,0.3-0.5,0-0.8l-1.3-1.3
	c-0.1-0.1-0.1-0.1-0.2-0.1c0,0-0.1,0-0.1-0.1l-0.1-0.1l-0.1,0.1h-0.1c-0.1,0-0.1,0.1-0.2,0.1c-0.3,0.3-0.6,0.6-0.9,0.8l-0.5,0.6
	c-0.2,0.1-0.2,0.3-0.2,0.4c0,0.1,0,0.2,0.2,0.4l0.3,0.3l0.1,0.1l1.1,1.1c0.1,0.1,0.2,0.2,0.3,0.2c0.2,0,0.3-0.1,0.3-0.2
	L-368.1,611.4z M-351.7,590.8c0.1-0.1,0.1-0.2,0.1-0.2v-0.1l0.1-0.1l-0.1-0.1v-0.1c0-0.1-0.1-0.1-0.1-0.2l-0.8-0.8l-0.5-0.5
	c-0.1-0.1-0.3-0.2-0.4-0.2s-0.3,0.1-0.4,0.2l-1.2,1.2l-0.3,0.1c-0.1,0.1-0.2,0.3-0.2,0.3c0,0.1,0,0.2,0.2,0.3l1.5,1.5
	c0.1,0.1,0.2,0.2,0.3,0.2s0.3-0.1,0.4-0.2C-352.7,591.8-352.2,591.3-351.7,590.8z M-346,589.4c0.1-0.1,0.1-0.4,0-0.5
	c-0.5-0.6-0.9-1.1-1.4-1.7c0-0.1-0.2-0.2-0.3-0.2c-0.2,0-0.4,0.1-0.4,0.2l-1.3,1.3c-0.1,0.1-0.1,0.2-0.2,0.2c0,0,0,0.1-0.1,0.1
	l-0.1,0.1l0.1,0.1v0.1c0,0.1,0.1,0.1,0.1,0.2l1.3,1.3c0.3,0.4,0.7,0.4,0.9,0.1C-347,590.4-346.5,589.9-346,589.4z"/>
<path class="st0" d="M-369,633.9c2.4,3,5.4,5.3,8.9,6.8c2.3,1,4.8,1.5,7.4,1.7c1.9,0.1,3.8-0.1,5.8-0.5l2.1-0.6h0.1
	c0.2-0.1,0.4-0.1,0.6-0.2c0,0,0.1,0,0.1-0.1l2.7-1.2c0.1,0,0.2-0.1,0.3-0.1l0.1-0.1c2-1.1,3.9-2.6,5.5-4.3l0.1-0.1l1.8-2.2
	c0,0,0-0.1,0.1-0.1c1-1.4,1.8-2.9,2.4-4.4c0.6-1.4,1-2.8,1.3-4.3c0.3-1.6,0.4-3.3,0.4-5.1c0-0.2-0.1-0.4-0.3-0.5
	c-0.2-0.1-0.3-0.3-0.5-0.4l-0.8-0.8v-0.2l0.5-0.5l0.5-0.5c0.1-0.1,0.3-0.3,0.2-0.6c-0.1-0.4-0.2-0.7-0.3-1.1l-0.1-0.2
	c-0.1-0.5-0.2-0.9-0.4-1.4l-0.1-0.3c-0.1-0.4-0.2-0.9-0.4-1.3c-0.4-1.1-0.9-2.2-1.6-3.4l-0.2-0.3l-0.4,0.4h-0.2l-1.2-1.2l-0.1-0.1
	v-0.2c0.2-0.2,0.4-0.3,0.5-0.5c0.1-0.1,0.2-0.3,0.1-0.5c-0.4-0.6-0.7-1.2-1.1-1.8l-0.2-0.3c0-0.1-0.1-0.1-0.1-0.1h-0.1l-0.2-0.2
	l-0.2,0.5c0,0,0,0.1-0.1,0.1l-0.3,0.3l-0.1,0.1h-0.2l-1.2-1.2v-0.2l0.2-0.2c0.2-0.2,0.3-0.2,0.3-0.3c0.1,0,0.1-0.1,0.3-0.2
	c0.3-0.3,0.2-0.6,0.1-0.7c-0.3-0.3-0.5-0.6-0.8-0.9l-0.1-0.1l-0.4-0.4v-0.1c0.1-0.2,0-0.4-0.1-0.5l-0.1-0.1
	c-0.4-0.6-0.8-1.1-1.2-1.7c0-0.1-0.2-0.2-0.3-0.2s-0.3,0.1-0.4,0.2l-0.1,0.1h-0.2l-0.1-0.1l-0.4-0.4l-0.6-0.6l-0.1-0.1v-0.1
	c0,0,0-0.1,0.1-0.1l0.1-0.1l0.3-0.3c0.1-0.1,0.1-0.4,0-0.5l-0.9-1.2c-0.2-0.2-0.3-0.4-0.5-0.6c-0.1-0.5-0.2-0.6-0.3-0.6
	c-0.1,0-0.2,0-0.3,0.1l-0.2,0.2l-0.5,0.5h-0.2c-0.1-0.1-0.1-0.2-0.2-0.2c-0.3-0.4-0.7-0.7-1-1.1c-0.2-0.2-0.5-0.3-0.8,0l-0.5,0.6
	l-0.6,0.6c-0.1,0.1-0.2,0.2-0.3,0.2h-0.1c-0.1-0.1-0.2-0.2-0.3-0.2l-0.7-0.7l-0.4-0.4c-0.3-0.3-0.5-0.3-0.8,0
	c-0.5,0.4-0.9,0.9-1.4,1.3c-0.1,0.1-0.2,0.2-0.2,0.4s0.1,0.3,0.2,0.4l0.7,0.7l0.7,0.7v0.2l-0.6,0.6l-0.6,0.6c-0.4,0.4-0.4,0.6,0,1.1
	l0.8,0.8l0.4,0.4v0.2l-0.1,0.1c-0.3,0.4-0.7,0.7-1.1,1.1h-0.2l-1.3-1.2c-0.3-0.3-0.5-0.3-0.9,0l-1.2,1.1h-0.2l-0.5-0.5l-0.9-0.9
	c0,0-0.2-0.2-0.3-0.2c-0.2,0-0.3,0.1-0.3,0.2l-0.9,0.9l-0.5,0.5c-0.1,0.1-0.3,0.3-0.3,0.5s0.1,0.3,0.3,0.5l0.4,0.4l0.8,0.8v0.2
	c-0.2,0.2-0.4,0.4-0.7,0.6l-0.7,0.7c-0.1,0.1-0.2,0.2-0.2,0.4c0,0.2,0.1,0.3,0.2,0.4l0.9,0.9l0.5,0.5v0.2c-0.3,0.3-0.6,0.6-0.9,0.8
	l-0.4,0.4h-0.2l-0.3-0.3l-0.9-0.9c-0.3-0.3-0.6-0.3-0.9,0l-0.1-0.1l-1.1,1.1h-0.2l-0.7-0.7l-0.5-0.5c-0.1-0.1-0.3-0.3-0.5-0.3
	c-0.2,0-0.4,0.2-0.5,0.3l-1.2,1.2c-0.4,0.4-0.4,0.6,0,1l0.3,0.3c0.3,0.3,0.6,0.7,1,1v0.2l-0.5,0.5l-0.1,0.1l-0.7,0.7
	c0,0-0.2,0.2-0.2,0.3c0,0.2,0.1,0.3,0.2,0.3l1.2,1.2l0.2,0.2v0.2l-1,1l-0.2,0.2h-0.2l-1.2-1.2c-0.1-0.1-0.3-0.2-0.5-0.2
	c-0.2,0-0.4,0.1-0.5,0.3l-0.3,0.3c-0.3,0.3-0.6,0.6-0.9,1h-0.2l-1.2-1.2c-0.4-0.4-0.7-0.4-1.1,0l-0.7,0.7l-0.5,0.5
	c-0.2-0.1-0.3,0.1-0.3,0.2c0,0.1,0,0.2,0.2,0.4l1.3,1.3v0.2l-1.3,1.3c-0.1,0.1-0.2,0.2-0.2,0.4s0.1,0.3,0.2,0.4l0.3,0.3l1,1v0.2
	l-0.8,0.8l-0.5,0.5l-0.1,0.1v0.7l0.7,0.7l0.7,0.7v0.2l-1.3,1.3c-0.1,0.1-0.1,0.3-0.1,0.5c0.1,0.4,0.3,0.7,0.5,0.9
	c0.2,0.2,0.4,0.3,0.5,0.5c0.1,0.1,0.2,0.2,0.4,0.3v0.2l-0.1,0.1c-0.4,0.4-0.5,0.5-0.2,1c0.2,0.5,0.5,0.9,0.7,1.4l0.2,0.4
	c0,0.1,0.1,0.1,0.1,0.2l0.2,0.3l0.8-0.7h0.2l0.2,0.2l1,1v0.2l-0.2,0.2l-0.3,0.3c-0.1-0.2-0.1-0.2-0.1-0.1c-0.3,0.3-0.3,0.4-0.1,0.8
	C-369.1,633.9-369,633.9-369,633.9z M-362.1,615.1c-0.1,0-0.2,0-0.3-0.1l-0.3-0.3l-0.7-0.7v-0.2l1.2-1.2h0.2
	c0.2,0.2,0.3,0.3,0.5,0.4c0.3,0.2,0.5,0.5,0.7,0.7v0.2l-0.1,0.1c-0.4,0.4-0.7,0.8-1.1,1.2h-0.2
	C-362.2,615.2-362.1,615.1-362.1,615.1z M-360.7,621.2l-1.2,1.2h-0.2l-1.1-1.1l-0.1-0.1V621c0.2-0.2,0.4-0.4,0.6-0.7l0.5-0.5h0.2
	l0.4,0.4l0.8,0.8C-360.7,621.1-360.7,621.1-360.7,621.2z M-360.7,624.8c-0.4,0.4-0.8,0.7-1.1,1.1l-0.1,0.1h-0.2l-0.1-0.1l-1-1
	l-0.1-0.1v-0.2l0.4-0.4l0.7-0.7l0.1-0.1h0.1c0.1,0.1,0.2,0.1,0.2,0.2c0.2,0.2,0.4,0.4,0.5,0.6c0.1,0.2,0.3,0.3,0.4,0.5
	C-360.7,624.7-360.7,624.7-360.7,624.8z M-360.7,635.5c-0.3,0.2-0.5,0.5-0.7,0.7l-0.6,0.5h-0.2l-1.2-1.2v-0.2
	c0.4-0.4,0.8-0.8,1.2-1.3h0.2l1.2,1.2C-360.7,635.4-360.7,635.5-360.7,635.5z M-358.4,626C-358.5,626-358.5,626-358.4,626
	c-0.5-0.4-0.8-0.8-1.2-1.2l-0.1-0.1v-0.2l0.5-0.5l0.7-0.7h0.2l0.4,0.4l0.8,0.8v0.2C-357.1,624.7-358.4,626-358.4,626z M-359.8,621.2
	V621l0.5-0.5l0.1-0.1l0.6-0.6h0.2l0.5,0.5v0.1l0.6,0.6v0.2c-0.4,0.4-0.8,0.7-1.1,1.1l-0.1,0.1h-0.2l-0.3-0.3
	C-359.2,621.8-359.5,621.5-359.8,621.2z M-353.5,628.4l-0.5,0.5l-0.7,0.7h-0.2c-0.4-0.4-0.7-0.8-1.2-1.2v-0.2l1.2-1.2h0.2l0.5,0.5
	l0.7,0.7V628.4C-353.5,628.3-353.5,628.3-353.5,628.4z M-350,631.9l-1.2,1.2h-0.2l-1.2-1.2l-0.1-0.1v-0.2l1.2-1.2h0.2l0.5,0.5
	l0.7,0.7C-349.9,631.8-349.9,631.9-350,631.9z M-351.6,618.7l-1-1v-0.1l0.1-0.1l1.1-1.1h0.2l0.8,0.8l0.5,0.5v0.2l-1.2,1.2h-0.2
	C-351.3,619.1-351.6,618.7-351.6,618.7z M-346.4,621.2l-1.2,1.2h-0.2l-1.2-1.2V621l1.2-1.2h0.2l1.2,1.2
	C-346.4,621-346.4,621.2-346.4,621.2z M-346.5,599.7l-0.8,0.8l-0.4,0.4h-0.2l-0.3-0.3c-0.3-0.3-0.6-0.6-0.9-1c0,0-0.1-0.1,0-0.2
	l1.1-1.1l0.2-0.2h0.2c0.4,0.4,0.8,0.8,1.2,1.3C-346.4,599.6-346.4,599.6-346.5,599.7C-346.4,599.7-346.4,599.7-346.5,599.7z
	 M-346.4,603.2C-346.4,603.3-346.4,603.3-346.4,603.2l-1.3,1.3h-0.2l-0.8-0.8l-0.3-0.4v-0.2l1.2-1.2h0.2l1.1,1.1
	C-346.5,603-346.4,603.2-346.4,603.2z M-349.1,606.7l1.2-1.2h0.2l0.3,0.3l0.9,0.9v0.2l-1.2,1.2h-0.2l-1.1-1.2
	C-349.1,606.9-349.1,606.8-349.1,606.7C-349.1,606.8-349.1,606.8-349.1,606.7z M-346.4,610.4C-346.4,610.4-346.4,610.5-346.4,610.4
	c-0.4,0.5-0.8,0.9-1.2,1.3h-0.2l-0.8-0.8l-0.4-0.4v-0.2l1.2-1.2h0.2l0.6,0.6C-346.8,609.9-346.6,610.1-346.4,610.4
	C-346.4,610.3-346.4,610.4-346.4,610.4z M-342.8,631.9c-0.4,0.4-0.8,0.8-1.2,1.3h-0.2l-0.9-0.9l-0.4-0.4v-0.2l1.2-1.2h0.2l0.7,0.7
	l0.5,0.5C-342.8,631.8-342.8,631.9-342.8,631.9z M-344.2,623.4h0.2l1.2,1.2v0.2c-0.4,0.5-0.8,0.9-1.2,1.2h-0.2l-0.5-0.5l-0.1-0.1
	l-0.7-0.7v-0.2l0.6-0.6l0.1-0.1C-344.6,623.8-344.4,623.6-344.2,623.4z M-344.2,611.7l-0.6-0.6l-0.5-0.5v-0.2l1.2-1.2h0.2l1.2,1.2
	v0.2l-0.7,0.4c-0.2,0.2-0.5,0.4-0.7,0.7H-344.2z M-339.3,614.1l-0.5,0.5l-0.7,0.7h-0.2l-1.2-1.2v-0.2l1.1-1.1l0.1-0.1h0.2
	C-340.1,613.1-339.7,613.5-339.3,614.1C-339.2,614-339.2,614.1-339.3,614.1z M-335.7,624.8c-0.3,0.3-0.5,0.6-0.8,0.8l-0.4,0.4h-0.2
	l-0.6-0.6l-0.6-0.6v-0.2l1.2-1.2h0.2l1.2,1.2C-335.6,624.7-335.6,624.8-335.7,624.8z M-336.5,612.1c0.4-0.4,0.8-0.9,1.2-1.3h0.2
	l1.2,1.2v0.2c-0.4,0.4-0.9,0.8-1.3,1.2h-0.2l-0.4-0.4l-0.7-0.7C-336.6,612.2-336.6,612.2-336.5,612.1z M-337.1,616.3
	c0,0,0.1-0.1,0.2,0c0.2,0.1,0.3,0.3,0.4,0.4l0.1,0.1l0.7,0.7v0.2c-0.4,0.4-0.8,0.8-1.2,1.3h-0.2l-1.2-1.2v-0.2
	C-337.9,617-337.5,616.6-337.1,616.3z M-338.8,607.3C-338.7,607.3-338.7,607.3-338.8,607.3l1.3,1.3v0.2l-0.7,0.7l-0.6,0.6h-0.2
	c-0.4-0.4-0.8-0.8-1.3-1.2v-0.2C-339.7,608.1-339.2,607.7-338.8,607.3z M-339.3,603.3l-1.2,1.2h-0.2l-1.2-1.2v-0.2l0.5-0.5
	c0.2-0.2,0.4-0.5,0.7-0.7h0.2l0.8,0.8L-339.3,603.3C-339.2,603.2-339.2,603.3-339.3,603.3z M-341.9,599.6l1.2-1.2h0.2l0.1,0.1
	l1.1,1.1v0.2l-0.9,0.9l-0.4,0.3h-0.2l-1.2-1.2C-341.9,599.8-341.9,599.7-341.9,599.6C-341.9,599.7-341.9,599.6-341.9,599.6z
	 M-342.5,618h0.2c0.4,0.4,0.8,0.8,1.2,1.3v0.2c-0.2,0.2-0.4,0.4-0.5,0.6l-0.1,0.1l-0.6,0.6h-0.2c-0.5-0.5-0.9-0.9-1.2-1.3v-0.2
	l0.1-0.1C-343.2,618.8-342.8,618.4-342.5,618z M-345.5,596C-345.5,596-345.4,596-345.5,596l1.1-1.1l0.2-0.2h0.2
	c0.3,0.4,0.6,0.8,1,1.1c0,0.1,0,0.2,0.1,0.2c0,0,0,0.1,0.1,0.1v0.1l-1.2,1.2h-0.2l-0.1-0.1c-0.4-0.4-0.8-0.8-1.2-1.1V596
	C-345.5,596.1-345.5,596-345.5,596z M-342.8,599.7c-0.1,0.1-0.1,0.1-0.1,0.2l-0.2,0.1l-0.9,0.9h-0.2l-1.2-1.2v-0.2l0.1-0.1
	c0.4-0.4,0.8-0.8,1.2-1.1h0.2L-342.8,599.7C-342.8,599.6-342.8,599.6-342.8,599.7z M-345.5,603.2c0.5-0.5,0.9-0.8,1.3-1.2h0.2
	l1.2,1.2v0.2l-0.6,0.6l-0.7,0.7h-0.2l-0.5-0.5l-0.7-0.7C-345.5,603.5-345.5,603.2-345.5,603.2z M-345.5,606.8
	c0.3-0.3,0.6-0.6,0.9-0.8l0.4-0.4h0.2c0.4,0.4,0.8,0.8,1.2,1.3v0.2l-0.5,0.5l-0.8,0.7h-0.2l-1.2-1.2
	C-345.5,607.1-345.5,606.8-345.5,606.8z M-345.9,614.5l1.1,1.1l0.2,0.2v0.2c-0.3,0.4-0.8,0.8-1.2,1.2h-0.2l-1.3-1.3v-0.2
	c0.2-0.2,0.4-0.4,0.5-0.6l0.7-0.7C-346,614.4-345.9,614.4-345.9,614.5z M-349.1,596l0.9-0.9l0.3-0.3h0.2l0.3,0.3l0.9,0.9
	c0,0,0.1,0,0.1,0.1v0.2l-1.2,1.2h-0.2l-0.4-0.4l-0.1-0.1l-0.7-0.7C-349.1,596.1-349.1,596-349.1,596z M-349.4,625.2
	c0.4,0.4,0.8,0.8,1.2,1.1l0.1,0.1v0.2l-1.2,1.2h-0.2l-0.3-0.3l-1-1v-0.2l1.2-1.2C-349.5,625.1-349.5,625.1-349.4,625.2z M-349.9,614
	C-349.9,614-350,614-349.9,614c-0.3,0.3-0.5,0.5-0.7,0.8l-0.5,0.5h-0.2l-0.8-0.8l-0.4-0.4v-0.2l0.4-0.4c0.3-0.3,0.6-0.5,0.8-0.8h0.2
	l0.4,0.4C-350.5,613.4-350.2,613.7-349.9,614C-350,613.9-349.9,614-349.9,614z M-350,610.5c-0.2,0.2-0.3,0.3-0.5,0.4v0.1
	c-0.2,0.2-0.5,0.4-0.7,0.7h-0.2c-0.4-0.3-0.7-0.6-1-0.9c-0.1-0.1-0.2-0.2-0.2-0.3v-0.2l1.2-1.2h0.2c0.5,0.4,0.9,0.9,1.3,1.3
	C-350,610.4-350,610.5-350,610.5z M-350,606.9l-0.5,0.5l-0.7,0.7h-0.2l-1.2-1.2v-0.2l0.9-0.9l0.3-0.3h0.2c0.1,0.1,0.2,0.3,0.4,0.4
	l0.3,0.3l0.5,0.5C-350,606.7-350,606.9-350,606.9z M-352.6,603.1c0.4-0.4,0.8-0.8,1.2-1.3h0.2l1.2,1.3v0.2l-0.1,0.1l-0.2,0.2
	l-0.2,0.2l-0.7,0.7h-0.2l-0.4-0.4c-0.3-0.3-0.6-0.5-0.8-0.8C-352.7,603.2-352.7,603.2-352.6,603.1z M-353.2,621.6
	C-353.1,621.6-353.1,621.6-353.2,621.6h0.2l1.3,1.3v0.2l-1.3,1.1h-0.2l-0.3-0.3l-1-1v-0.2C-354,622.4-353.6,622-353.2,621.6z
	 M-353.5,617.6c-0.3,0.4-0.7,0.7-0.9,1l-0.3,0.3h-0.2l-0.5-0.5l-0.1-0.1c-0.2-0.2-0.5-0.4-0.7-0.7v-0.2l0.2-0.2
	c0.4-0.3,0.7-0.7,1.1-1h0.2l1,1L-353.5,617.6C-353.5,617.5-353.5,617.5-353.5,617.6z M-356.3,610.4c0.3-0.4,0.7-0.7,1-1l0.3-0.3h0.2
	l0.1,0.1l0.9,0.9l0.2,0.2v0.1c-0.4,0.4-0.8,0.8-1.1,1.2l-0.1,0.1h-0.2L-356.3,610.4C-356.3,610.5-356.3,610.5-356.3,610.4z
	 M-353.6,614.1c-0.4,0.4-0.8,0.8-1.2,1.1h-0.2l-0.7-0.7l-0.5-0.5v-0.2l0.4-0.4c0.2-0.3,0.5-0.5,0.7-0.8h0.2l1.3,1.3
	C-353.5,614-353.5,614-353.6,614.1C-353.5,614-353.6,614.1-353.6,614.1z M-356.2,603.1l0.5-0.5l0.8-0.8h0.2l0.6,0.6l0.7,0.7v0.2
	c-0.3,0.3-0.6,0.5-0.8,0.8l-0.4,0.4h-0.2l-1.2-1.2C-356.2,603.3-356.2,603.3-356.2,603.1C-356.2,603.2-356.2,603.2-356.2,603.1z
	 M-356.2,606.7c0.4-0.3,0.8-0.7,1.2-1.2h0.2l1.2,1.2v0.2l-0.5,0.4l-0.8,0.8h-0.2c0,0-0.1,0-0.1-0.1c-0.2-0.2-0.4-0.5-0.7-0.7
	l-0.5-0.5C-356.3,606.9-356.3,606.8-356.2,606.7C-356.3,606.8-356.3,606.7-356.2,606.7z M-356.7,632.3h0.2l1.3,1.3v0.2l-0.5,0.5
	l-0.7,0.7h-0.2l-0.6-0.6l-0.6-0.6v-0.2C-357.5,633.1-357.1,632.7-356.7,632.3z M-357.1,614C-357.1,614-357.2,614-357.1,614
	c-0.5,0.5-0.9,0.9-1.2,1.3h-0.2l-0.6-0.6l-0.1-0.1l-0.5-0.5v-0.2c0.1-0.1,0.1-0.2,0.2-0.2l0.3-0.3c0.2-0.2,0.4-0.4,0.7-0.6h0.2
	L-357.1,614C-357.1,613.9-357.1,614-357.1,614z M-359.8,610.3C-359.7,610.3-359.7,610.2-359.8,610.3l1.2-1.2h0.2l1.2,1.2v0.2
	c-0.4,0.5-0.8,0.8-1.2,1.2h-0.2c-0.4-0.4-0.8-0.8-1.1-1.2C-359.8,610.4-359.8,610.4-359.8,610.3z M-359.8,617.4
	C-359.8,617.4-359.7,617.4-359.8,617.4c0.3-0.3,0.5-0.4,0.7-0.6l0.6-0.6h0.2l1.2,1.2v0.2c-0.3,0.4-0.7,0.8-1.2,1.3l-0.1,0.1h-0.2
	l-1.2-1.2V617.4z M-360.2,628.8l1.1,1.1l0.2,0.2v0.2l-0.6,0.5c-0.2,0.2-0.4,0.4-0.7,0.6h-0.2l-1.2-1.2V630l0.1-0.1l1.1-1.1
	C-360.3,628.7-360.2,628.7-360.2,628.8z M-360.7,617.6l-1.2,1.2h-0.2l-0.1-0.1l-0.2-0.2l-0.9-0.9v-0.2l0.4-0.4l0.3-0.3l0.5-0.5h0.2
	l1.1,1.1l0.1,0.1C-360.7,617.4-360.7,617.6-360.7,617.6z M-363.4,610.3l0.4-0.3l0.9-0.9h0.2l0.7,0.7l0.5,0.5v0.2l-0.3,0.2l-1,1h-0.2
	l-1.1-1.1l-0.1-0.1V610.3C-363.4,610.4-363.4,610.3-363.4,610.3z M-366.9,628.4v-0.1c0-0.1,0.1-0.1,0.1-0.1c0.3-0.4,0.7-0.7,1-1
	l0.1-0.2h0.3c0.4,0.4,0.7,0.8,1.1,1.1v0.2c-0.1,0.1-0.2,0.1-0.2,0.2l-0.4,0.4l-0.1,0.1c-0.2,0.2-0.4,0.4-0.5,0.6h-0.2
	C-365.7,629.6-366.9,628.4-366.9,628.4z M-364.3,631.9l-1.2,1.2h-0.2l-1.1-1.1l-0.1-0.1v-0.2l0.4-0.4l0.8-0.8h0.2l0.8,0.8l0.4,0.4
	C-364.2,631.8-364.2,631.9-364.3,631.9z M-364.3,624.8c-0.5,0.5-0.9,0.8-1.2,1.2h-0.2c-0.3-0.2-0.5-0.5-0.8-0.7l-0.5-0.5v-0.2
	c0.4-0.4,0.9-0.8,1.2-1.2h0.1l0.7,0.7l0.5,0.5C-364.3,624.6-364.2,624.7-364.3,624.8C-364.2,624.7-364.2,624.8-364.3,624.8z
	 M-364.3,621.2l-0.3,0.3l-1,1h-0.2l-0.2-0.2c-0.3-0.3-0.6-0.7-0.9-1l-0.1-0.1v-0.1c0.1-0.1,0.1-0.1,0.1-0.2l0.6-0.6
	c0.3-0.2,0.4-0.3,0.6-0.5h0.2c0.2,0.3,0.5,0.5,0.7,0.7l0.5,0.5C-364.3,621-364.3,621.2-364.3,621.2z M-367,617.4l1.3-1.3h0.2
	l0.1,0.1c0.2,0.2,0.4,0.4,0.6,0.7l0.5,0.5v0.2l-1.2,1.2h-0.2l-0.5-0.5l-0.7-0.7L-367,617.4L-367,617.4
	C-367,617.5-367,617.4-367,617.4z M-370.5,617.4l0.4-0.4c0.2-0.2,0.5-0.5,0.7-0.8h0.2c0.3,0.4,0.7,0.7,1,1l0.2,0.2v0.2
	c-0.3,0.4-0.7,0.8-1,1.1l-0.1,0.1h-0.2l-0.7-0.7L-370.5,617.4L-370.5,617.4z M-367.9,621.1C-367.9,621.1-367.9,621.2-367.9,621.1
	l-0.5,0.5c-0.3,0.3-0.6,0.5-0.8,0.8h-0.2c-0.1-0.1-0.1-0.2-0.2-0.2l-0.3-0.3l-0.7-0.7V621l1.2-1.2h0.2L-367.9,621.1
	C-367.9,621-367.9,621.1-367.9,621.1z M-370.5,624.6c0.3-0.2,0.5-0.5,0.8-0.8l0.5-0.4h0.1l1.1,1.1l0.2,0.2v0.2l-0.3,0.3l-0.9,0.9
	h-0.2l-1.3-1.3C-370.5,624.7-370.6,624.7-370.5,624.6C-370.6,624.6-370.5,624.6-370.5,624.6z M-369,629.5
	C-369.1,629.5-369.1,629.6-369,629.5c-0.1,0.1-0.1,0.1-0.2,0.1h-0.1l-0.1-0.1c-0.1-0.1-0.2-0.2-0.4-0.3l-0.1-0.1l-0.7-0.7v-0.2
	l0.1-0.1l0.5-0.4c0.2-0.2,0.5-0.5,0.7-0.8h0.2l0.8,0.8l0.5,0.5v0.2C-368.3,628.7-368.6,629.1-369,629.5z"/>
</svg>
