<?xml version="1.0" encoding="utf-8"?>
<!-- Generator: Adobe Illustrator 19.0.0, SVG Export Plug-In . SVG Version: 6.00 Build 0)  -->
<svg version="1.1" id="Layer_1" xmlns="http://www.w3.org/2000/svg" xmlns:xlink="http://www.w3.org/1999/xlink" x="0px" y="0px"
	 viewBox="-419 241 200 65.5" style="enable-background:new -419 241 200 65.5;" xml:space="preserve">
<style type="text/css">
	.st0{fill:#365996;}
</style>
<g>
	<path class="st0" d="M-354.6,269.9v1c0,1.4,0.4,2.2,1.5,2.2s1.4-0.9,1.4-2.3c0-1.9-0.4-2.5-2.2-3.9c-1.7-1.5-2.7-2.4-2.7-4.9
		c0-2.2,0.7-4.3,3.5-4.3c2.9,0,3.4,2,3.4,3.9v0.8h-2.2v-0.8c0-1.3-0.2-2.1-1.2-2.1s-1.2,0.9-1.2,2.1c0,1.3,0.3,1.9,1.8,3.1
		c2.4,1.8,3.2,2.9,3.2,5.7c0,2.4-0.8,4.6-3.8,4.6c-2.9,0-3.7-1.9-3.7-4.1v-1C-356.8,269.9-354.6,269.9-354.6,269.9z M-340.9,272.3
		c0,0.8,0,2,0.1,2.5h-2.1c-0.1-0.3-0.1-0.8-0.2-1c-0.4,0.9-1.2,1.2-2.1,1.2c-1.9,0-2.7-1.7-2.7-3.7v-0.2c0-3.1,2-4,4.3-4h0.4v-1.8
		c0-1.1-0.2-1.7-1-1.7c-0.9,0-1.1,0.7-1.1,1.6v0.3h-2.2v-0.2c0-1.8,0.7-3.5,3.4-3.5c2.4,0,3.2,1.4,3.2,3.4
		C-340.9,265.2-340.9,272.3-340.9,272.3z M-343.1,268.8h-0.5c-1.3,0-2.1,0.5-2.1,2.2v0.2c0,1,0.3,1.8,1.2,1.8c1,0,1.4-0.7,1.4-2.6
		V268.8z M-337.9,274.8v-11h-1.3v-2h1.3v-1.5c0-1.7,0.7-3.2,2.9-3.2c0.4,0,0.7,0,0.9,0.1v2h-0.5c-0.9,0-1.1,0.5-1.1,1.4v1.2h1.6v2
		h-1.5v11H-337.9z M-330.4,268.8v2c0,1.1,0.2,2.2,1.3,2.2s1.3-1,1.3-2v-0.1h2.2v0.1c0,1.4-0.3,3.9-3.4,3.9s-3.6-1.9-3.6-4.6v-4.5
		c0-1.9,0.6-4.3,3.6-4.3c2.7,0,3.5,1.9,3.5,4.3v2.9L-330.4,268.8z M-327.7,267.1v-1.4c0-1.2-0.2-2.1-1.3-2.1c-1,0-1.4,0.8-1.4,2.1
		v1.4C-330.4,267.1-327.7,267.1-327.7,267.1z M-317.3,274.8l-2.3-16.9h2.4c0.4,3.8,1.1,10,1.2,13c0.3-3.2,1.2-9.2,1.7-13h2.2
		c0.5,3.9,1.4,9.5,1.7,12.9h0.1c0.2-3.1,0.9-8.9,1.3-12.9h2.3l-2.5,16.9h-2.3c-0.5-3.8-1.3-9.2-1.7-12.4c-0.4,3.3-1.2,8.7-1.8,12.4
		C-315,274.8-317.3,274.8-317.3,274.8z M-299.1,272.3c0,0.8,0,2,0.1,2.5h-2.1c-0.1-0.3-0.1-0.8-0.2-1c-0.4,0.9-1.2,1.2-2.1,1.2
		c-1.9,0-2.7-1.7-2.7-3.7v-0.2c0-3.1,2-4,4.3-4h0.4v-1.8c0-1.1-0.2-1.7-1-1.7c-0.9,0-1.1,0.7-1.1,1.6v0.3h-2.2v-0.2
		c0-1.8,0.7-3.5,3.4-3.5c2.4,0,3.2,1.4,3.2,3.4L-299.1,272.3L-299.1,272.3z M-301.3,268.8h-0.5c-1.3,0-2.1,0.5-2.1,2.2v0.2
		c0,1,0.3,1.8,1.2,1.8c1,0,1.4-0.7,1.4-2.6V268.8z M-297.5,261.8h1.4v-3.1h2.2v3.1h1.7v2h-1.7v8.1c0,0.6,0.1,1.2,0.9,1.2
		c0.2,0,0.6,0,0.7-0.1v1.7c-0.4,0.2-1,0.2-1.5,0.2c-1.5,0-2.4-0.5-2.4-2.7v-8.4h-1.4L-297.5,261.8z M-288.7,268.8v2
		c0,1.1,0.2,2.2,1.3,2.2s1.3-1,1.3-2v-0.1h2.2v0.1c0,1.4-0.3,3.9-3.4,3.9c-3.1,0-3.6-1.9-3.6-4.6v-4.5c0-1.9,0.6-4.3,3.6-4.3
		c2.7,0,3.5,1.9,3.5,4.3v2.9L-288.7,268.8z M-286,267.1v-1.4c0-1.2-0.2-2.1-1.3-2.1c-1,0-1.4,0.8-1.4,2.1v1.4
		C-288.7,267.1-286,267.1-286,267.1z M-281.5,266.2v-4.4h2.1c0,0.3,0.1,1.3,0.1,2.1c0.5-1.7,1.6-2.2,2.8-2.3v2.8
		c-1.5,0-2.7,0.6-2.7,3.1v7.3h-2.3L-281.5,266.2L-281.5,266.2z M-348.5,286.9v8.1c0,3.1-1.3,4.6-4,4.6s-3.8-1.6-3.8-4.6v-8.2
		c0-3.1,1.5-4.6,3.9-4.6C-349.9,282.4-348.5,284-348.5,286.9z M-354.1,286.8v8.6c0,1.6,0.6,2.3,1.6,2.3c1.1,0,1.6-0.7,1.6-2.4v-8.5
		c0-1.5-0.5-2.3-1.6-2.3C-353.5,284.4-354.1,285.2-354.1,286.8z M-344.1,298.5v5.3h-2.3v-17.3h2.2c0,0.2,0.1,0.8,0.1,1.3
		c0.4-0.8,1.1-1.5,2.4-1.5c1.8,0,2.7,1.2,2.7,3.8v5.4c0,2.9-1,4.2-2.9,4.2C-343.2,299.7-343.8,299.1-344.1,298.5z M-341.4,295.5
		v-5.2c0-1.3-0.5-1.9-1.2-1.9c-1.1,0-1.5,0.8-1.5,2.3v4.4c0,1.4,0.2,2.5,1.4,2.5C-341.7,297.6-341.4,296.8-341.4,295.5z
		 M-337.9,286.5h1.4v-3.1h2.2v3.1h1.7v2h-1.7v8.1c0,0.6,0.1,1.2,0.9,1.2c0.2,0,0.6,0,0.7-0.1v1.7c-0.4,0.2-1,0.2-1.5,0.2
		c-1.5,0-2.4-0.5-2.4-2.7v-8.5h-1.4C-338,288.4-337.9,286.5-337.9,286.5z M-330.7,286.5h2.3v12.9h-2.3V286.5z M-330.7,281.9h2.3v2.7
		h-2.3V281.9z M-325.9,290.2v-3.7h2.2c0.1,0.4,0.1,0.7,0.1,1.2c0.4-0.9,1.2-1.4,2.3-1.4c1,0,1.7,0.4,2.1,1.4
		c0.4-0.8,1.1-1.4,2.5-1.4c1.4,0,2.5,0.7,2.5,3.2v10h-2.4v-9.6c0-0.9-0.2-1.6-1.1-1.6c-1,0-1.3,0.9-1.3,2.2v8.9h-2.3v-9.5
		c0-1.3-0.4-1.6-1.1-1.6c-1,0-1.3,0.9-1.3,2.2v8.9h-2.3C-326,299.4-325.9,290.2-325.9,290.2z M-311.8,286.5h2.3v12.9h-2.3V286.5z
		 M-311.8,281.9h2.3v2.7h-2.3V281.9z M-307.7,297.9l4.1-9.4h-3.8v-2.1h6.3v1.6l-4,9.3h4.1l-0.2,2.1h-6.5
		C-307.7,299.4-307.7,297.9-307.7,297.9z M-292.4,297c0,0.8,0,2,0.1,2.5h-2.1c-0.1-0.3-0.1-0.8-0.2-1c-0.4,0.9-1.2,1.2-2.1,1.2
		c-1.9,0-2.7-1.7-2.7-3.7v-0.2c0-3.1,2-4,4.3-4h0.4V290c0-1.1-0.2-1.7-1-1.7c-0.9,0-1.1,0.7-1.1,1.6v0.3h-2.2V290
		c0-1.8,0.7-3.5,3.4-3.5c2.4,0,3.2,1.4,3.2,3.4V297L-292.4,297z M-294.6,293.4h-0.5c-1.3,0-2.1,0.5-2.1,2.2v0.2c0,1,0.3,1.8,1.2,1.8
		c1,0,1.4-0.7,1.4-2.6C-294.6,295-294.6,293.4-294.6,293.4z M-290.9,286.5h1.4v-3.1h2.2v3.1h1.7v2h-1.7v8.1c0,0.6,0.1,1.2,0.9,1.2
		c0.2,0,0.6,0,0.7-0.1v1.7c-0.4,0.2-1,0.2-1.5,0.2c-1.5,0-2.4-0.5-2.4-2.7v-8.5h-1.4C-291,288.4-290.9,286.5-290.9,286.5z
		 M-283.7,286.5h2.3v12.9h-2.3C-283.7,299.4-283.7,286.5-283.7,286.5z M-283.7,281.9h2.3v2.7h-2.3
		C-283.7,284.6-283.7,281.9-283.7,281.9z M-271.7,290.4v5.2c0,2.8-1.4,4.1-3.7,4.1c-2.3,0-3.6-1.4-3.6-4.1v-5.3c0-2.7,1.5-4,3.7-4
		C-273,286.3-271.7,287.7-271.7,290.4z M-276.7,290.2v5.4c0,1.2,0.4,2,1.4,2c0.9,0,1.3-0.7,1.3-2.1v-5.4c0-1.1-0.3-1.9-1.4-1.9
		C-276.3,288.3-276.7,289-276.7,290.2z M-269.3,290.5v-4h2.2c0,0.3,0.1,0.8,0.1,1.2c0.4-0.8,1.1-1.4,2.4-1.4c1.5,0,2.6,0.9,2.6,3.3
		v9.8h-2.3V290c0-1.2-0.4-1.7-1.2-1.7c-1,0-1.5,0.5-1.5,2.6v8.6h-2.3C-269.3,299.5-269.3,290.5-269.3,290.5z M-252.4,284.7h-2.7
		v-2.1h7.7v2.1h-2.7v14.7h-2.3V284.7z M-240.8,290.4v5.2c0,2.8-1.4,4.1-3.7,4.1c-2.3,0-3.6-1.4-3.6-4.1v-5.3c0-2.7,1.5-4,3.7-4
		C-242.1,286.3-240.8,287.7-240.8,290.4z M-245.8,290.2v5.4c0,1.2,0.4,2,1.4,2c0.9,0,1.3-0.7,1.3-2.1v-5.4c0-1.1-0.3-1.9-1.4-1.9
		C-245.4,288.3-245.8,289-245.8,290.2z M-231.7,290.4v5.2c0,2.8-1.4,4.1-3.7,4.1c-2.3,0-3.6-1.4-3.6-4.1v-5.3c0-2.7,1.5-4,3.7-4
		C-233,286.3-231.7,287.7-231.7,290.4z M-236.7,290.2v5.4c0,1.2,0.4,2,1.4,2c0.9,0,1.3-0.7,1.3-2.1v-5.4c0-1.1-0.3-1.9-1.4-1.9
		C-236.3,288.3-236.7,289-236.7,290.2z M-229.7,299.4v-17.5h2.3v17.6L-229.7,299.4L-229.7,299.4z"/>
	<g>
		<path class="st0" d="M-387.3,245.8c0-0.2-0.1-0.3-0.2-0.4l-0.9-0.9l-0.5-0.5l-0.2-0.2h-0.4l-0.5,0.5l-1.1,1.1c0,0-0.2,0.2-0.2,0.4
			c0,0.2,0.1,0.3,0.2,0.4l0.9,0.9l0.5,0.5c0.3,0.3,0.6,0.3,0.9,0l1.3-1.3C-387.4,246.1-387.3,246-387.3,245.8z"/>
	</g>
	<g>
		<path class="st0" d="M-398.2,256.2l-0.2-0.2c0,0-0.1,0-0.1-0.1h-0.1l-0.1,0.1h-0.1c-0.1,0-0.1,0.1-0.2,0.1l-1.4,1.4
			c-0.3,0.3-0.3,0.5,0,0.8l1.4,1.4c0.1,0.1,0.3,0.2,0.4,0.2s0.3-0.1,0.4-0.2l0.3-0.3l1-1c0.1-0.1,0.3-0.2,0.3-0.4
			c0-0.2-0.1-0.3-0.2-0.4C-396.8,257.6-398.2,256.2-398.2,256.2z"/>
	</g>
	<g>
		<path class="st0" d="M-394.8,256.3C-394.8,256.4-394.8,256.4-394.8,256.3l-0.1,0.2l0.1,0.1v0.1c0,0.1,0.1,0.2,0.2,0.3l1.3,1.3
			c0.2,0.2,0.6,0.2,0.9,0l0.5-0.5l0.2-0.2l0.6-0.6c0.2-0.2,0.2-0.3,0.2-0.5c0-0.2-0.1-0.3-0.2-0.5l-0.7-0.7l-0.4-0.4l-0.2-0.2
			l-0.1-0.1c-0.2-0.2-0.5-0.2-0.7,0c-0.4,0.4-1,0.9-1.5,1.4C-394.7,256.2-394.8,256.3-394.8,256.3z"/>
	</g>
	<g>
		<path class="st0" d="M-399.6,265.4l1.3-1.3c0.3-0.3,0.3-0.6,0-0.9l-1.3-1.3c-0.1-0.1-0.1-0.1-0.2-0.1h-0.1l-0.1-0.1l-0.1,0.1h-0.1
			c-0.1,0-0.1,0.1-0.2,0.1c-0.5,0.5-1,0.9-1.4,1.3c-0.3,0.3-0.3,0.6,0,0.9l1.3,1.3C-400.2,265.7-399.9,265.7-399.6,265.4z"/>
	</g>
	<g>
		<path class="st0" d="M-405.7,272.2c0.2-0.2,0.4-0.4,0.6-0.7c0.3-0.3,0.3-0.5,0-0.8l-1.3-1.3c-0.1-0.1-0.1-0.1-0.2-0.1
			c0,0-0.1,0-0.1-0.1l-0.1-0.1l-0.1,0.1h-0.1c-0.1,0-0.1,0.1-0.2,0.1c-0.3,0.3-0.6,0.6-0.9,0.8l-0.5,0.6c-0.2,0.1-0.2,0.3-0.2,0.4
			s0,0.2,0.2,0.4l0.3,0.3l0.1,0.1l1.1,1.1c0.1,0.1,0.2,0.2,0.3,0.2c0.2,0,0.3-0.1,0.3-0.2L-405.7,272.2z"/>
	</g>
	<g>
		<path class="st0" d="M-389.3,251.6c0.1-0.1,0.1-0.2,0.1-0.2v-0.1l0.1-0.1l-0.1-0.1V251c0-0.1-0.1-0.1-0.1-0.2l-0.8-0.8l-0.5-0.5
			c-0.1-0.1-0.3-0.2-0.4-0.2s-0.3,0.1-0.4,0.2l-1.2,1.2l-0.3,0.1c-0.1,0.1-0.2,0.3-0.2,0.3c0,0.1,0,0.2,0.2,0.3l1.5,1.5
			c0.1,0.1,0.2,0.2,0.3,0.2s0.3-0.1,0.4-0.2C-390.3,252.6-389.8,252.1-389.3,251.6z"/>
	</g>
	<g>
		<path class="st0" d="M-383.6,250.2c0.1-0.1,0.1-0.4,0-0.5c-0.5-0.6-0.9-1.1-1.4-1.7c0-0.1-0.2-0.2-0.3-0.2c-0.2,0-0.4,0.1-0.4,0.2
			l-1.3,1.3c-0.1,0.1-0.1,0.2-0.2,0.2c0,0,0,0.1-0.1,0.1l-0.1,0.1l0.1,0.1v0.1c0,0.1,0.1,0.1,0.1,0.2l1.3,1.3
			c0.3,0.4,0.7,0.4,0.9,0.1C-384.6,251.2-384.1,250.7-383.6,250.2z"/>
	</g>
	<g>
		<path class="st0" d="M-406.6,294.7c2.4,3,5.4,5.3,8.9,6.8c2.3,1,4.8,1.5,7.4,1.7c1.9,0.1,3.8-0.1,5.8-0.5l2.1-0.6h0.1
			c0.2-0.1,0.4-0.1,0.6-0.2c0,0,0.1,0,0.1-0.1l2.7-1.2c0.1,0,0.2-0.1,0.3-0.1l0.1-0.1c2-1.1,3.9-2.6,5.5-4.3l0.1-0.1l1.8-2.2
			c0,0,0-0.1,0.1-0.1c1-1.4,1.8-2.9,2.4-4.4c0.6-1.4,1-2.8,1.3-4.3c0.3-1.6,0.4-3.3,0.4-5.1c0-0.2-0.1-0.4-0.3-0.5
			c-0.2-0.1-0.3-0.3-0.5-0.4l-0.8-0.8V278l0.5-0.5l0.5-0.5c0.1-0.1,0.3-0.3,0.2-0.6c-0.1-0.4-0.2-0.7-0.3-1.1l-0.1-0.2
			c-0.1-0.5-0.2-0.9-0.4-1.4l-0.1-0.3c-0.1-0.4-0.2-0.9-0.4-1.3c-0.4-1.1-0.9-2.2-1.6-3.4l-0.2-0.3l-0.4,0.4h-0.2l-1.2-1.2l-0.1-0.1
			v-0.2c0.2-0.2,0.4-0.3,0.5-0.5c0.1-0.1,0.2-0.3,0.1-0.5c-0.4-0.6-0.7-1.2-1.1-1.8l-0.2-0.3c0-0.1-0.1-0.1-0.1-0.1h-0.1l-0.2-0.2
			l-0.2,0.5c0,0,0,0.1-0.1,0.1l-0.3,0.3l-0.1,0.1h-0.2l-1.2-1.2v-0.2l0.2-0.2c0.2-0.2,0.3-0.2,0.3-0.3c0.1,0,0.1-0.1,0.3-0.2
			c0.3-0.3,0.2-0.6,0.1-0.7c-0.3-0.3-0.5-0.6-0.8-0.9l-0.1-0.1l-0.4-0.4v-0.1c0.1-0.2,0-0.4-0.1-0.5l-0.1-0.1
			c-0.4-0.6-0.8-1.1-1.2-1.7c0-0.1-0.2-0.2-0.3-0.2c-0.1,0-0.3,0.1-0.4,0.2l-0.1,0.1h-0.2l-0.1-0.1l-0.4-0.4l-0.6-0.6l-0.1-0.1v-0.1
			c0,0,0-0.1,0.1-0.1l0.1-0.1l0.3-0.3c0.1-0.1,0.1-0.4,0-0.5l-0.9-1.2c-0.2-0.2-0.3-0.4-0.5-0.6c-0.1-0.5-0.2-0.6-0.3-0.6
			c-0.1,0-0.2,0-0.3,0.1l-0.2,0.2l-0.5,0.5h-0.2c-0.1-0.1-0.1-0.2-0.2-0.2c-0.3-0.4-0.7-0.7-1-1.1c-0.2-0.2-0.5-0.3-0.8,0l-0.5,0.6
			l-0.6,0.6c-0.1,0.1-0.2,0.2-0.3,0.2h-0.1c-0.1-0.1-0.2-0.2-0.3-0.2l-0.7-0.7l-0.4-0.4c-0.3-0.3-0.5-0.3-0.8,0
			c-0.5,0.4-0.9,0.9-1.4,1.3c-0.1,0.1-0.2,0.2-0.2,0.4s0.1,0.3,0.2,0.4l0.7,0.7l0.7,0.7v0.2l-0.6,0.6l-0.6,0.6
			c-0.4,0.4-0.4,0.6,0,1.1l0.8,0.8l0.4,0.4v0.2l-0.1,0.1c-0.3,0.4-0.7,0.7-1.1,1.1h-0.2l-1.3-1.2c-0.3-0.3-0.5-0.3-0.9,0l-1.2,1.1
			h-0.2l-0.5-0.5l-0.9-0.9c0,0-0.2-0.2-0.3-0.2c-0.2,0-0.3,0.1-0.3,0.2l-0.9,0.9l-0.5,0.5c-0.1,0.1-0.3,0.3-0.3,0.5
			c0,0.2,0.1,0.3,0.3,0.5l0.4,0.4l0.8,0.8v0.2c-0.2,0.2-0.4,0.4-0.7,0.6l-0.7,0.7c-0.1,0.1-0.2,0.2-0.2,0.4c0,0.2,0.1,0.3,0.2,0.4
			l0.9,0.9l0.5,0.5v0.2c-0.3,0.3-0.6,0.6-0.9,0.8l-0.4,0.4h-0.2l-0.3-0.3l-0.9-0.9c-0.3-0.3-0.6-0.3-0.9,0l-0.1-0.1l-1.1,1.1h-0.2
			l-0.7-0.7l-0.5-0.5c-0.1-0.1-0.3-0.3-0.5-0.3s-0.4,0.2-0.5,0.3l-1.2,1.2c-0.4,0.4-0.4,0.6,0,1l0.3,0.3c0.3,0.3,0.6,0.7,1,1v0.2
			l-0.5,0.5l-0.1,0.1l-0.7,0.7c0,0-0.2,0.2-0.2,0.3c0,0.2,0.1,0.3,0.2,0.3l1.2,1.2l0.2,0.2v0.2l-1,1l-0.2,0.2h-0.2l-1.2-1.2
			c-0.1-0.1-0.3-0.2-0.5-0.2c-0.2,0-0.4,0.1-0.5,0.3l-0.3,0.3c-0.3,0.3-0.6,0.6-0.9,1h-0.2l-1.2-1.2c-0.4-0.4-0.7-0.4-1.1,0
			l-0.7,0.7l-0.5,0.5c-0.2-0.1-0.3,0.1-0.3,0.2c0,0.1,0,0.2,0.2,0.4l1.3,1.3v0.2l-1.3,1.3c-0.1,0.1-0.2,0.2-0.2,0.4
			c0,0.2,0.1,0.3,0.2,0.4l0.3,0.3l1,1v0.2l-0.8,0.8l-0.5,0.5l-0.1,0.1v0.7l0.7,0.7l0.7,0.7v0.2l-1.3,1.3c-0.1,0.1-0.1,0.3-0.1,0.5
			c0.1,0.4,0.3,0.7,0.5,0.9c0.2,0.2,0.4,0.3,0.5,0.5c0.1,0.1,0.2,0.2,0.4,0.3v0.2l-0.1,0.1c-0.4,0.4-0.5,0.5-0.2,1
			c0.2,0.5,0.5,0.9,0.7,1.4l0.2,0.4c0,0.1,0.1,0.1,0.1,0.2l0.2,0.3l0.8-0.7h0.2l0.2,0.2l1,1v0.2l-0.2,0.2l-0.3,0.3
			c-0.1-0.2-0.1-0.2-0.1-0.1c-0.3,0.3-0.3,0.4-0.1,0.8C-406.7,294.7-406.6,294.7-406.6,294.7z M-399.7,275.9c-0.1,0-0.2,0-0.3-0.1
			l-0.3-0.3l-0.7-0.7v-0.2l1.2-1.2h0.2c0.2,0.2,0.3,0.3,0.5,0.4c0.3,0.2,0.5,0.5,0.7,0.7v0.2l-0.1,0.1c-0.4,0.4-0.7,0.8-1.1,1.2
			h-0.2C-399.8,276-399.7,275.9-399.7,275.9z M-398.3,282l-1.2,1.2h-0.2l-1.1-1.1l-0.1-0.1v-0.2c0.2-0.2,0.4-0.4,0.6-0.7l0.5-0.5
			h0.2l0.4,0.4l0.8,0.8C-398.3,281.9-398.3,281.9-398.3,282z M-398.3,285.6c-0.4,0.4-0.8,0.7-1.1,1.1l-0.1,0.1h-0.2l-0.1-0.1l-1-1
			l-0.1-0.1v-0.2l0.4-0.4l0.7-0.7l0.1-0.1h0.1c0.1,0.1,0.2,0.1,0.2,0.2c0.2,0.2,0.4,0.4,0.5,0.6c0.1,0.2,0.3,0.3,0.4,0.5
			C-398.3,285.5-398.3,285.5-398.3,285.6z M-398.3,296.3c-0.3,0.2-0.5,0.5-0.7,0.7l-0.6,0.5h-0.2l-1.2-1.2v-0.2
			c0.4-0.4,0.8-0.8,1.2-1.3h0.2l1.2,1.2C-398.3,296.2-398.3,296.3-398.3,296.3z M-396,286.8C-396.1,286.8-396.1,286.8-396,286.8
			c-0.5-0.4-0.8-0.8-1.2-1.2l-0.1-0.1v-0.2l0.5-0.5l0.7-0.7h0.2l0.4,0.4l0.8,0.8v0.2C-394.7,285.5-396,286.8-396,286.8z M-397.4,282
			v-0.2l0.5-0.5l0.1-0.1l0.6-0.6h0.2l0.5,0.5v0.1l0.6,0.6v0.2c-0.4,0.4-0.8,0.7-1.1,1.1l-0.1,0.1h-0.2l-0.3-0.3
			C-396.8,282.6-397.1,282.3-397.4,282z M-391.1,289.2l-0.5,0.5l-0.7,0.7h-0.2c-0.4-0.4-0.7-0.8-1.2-1.2V289l1.2-1.2h0.2l0.5,0.5
			l0.7,0.7V289.2C-391.1,289.1-391.1,289.1-391.1,289.2z M-387.6,292.7l-1.2,1.2h-0.2l-1.2-1.2l-0.1-0.1v-0.2l1.2-1.2h0.2l0.5,0.5
			l0.7,0.7C-387.5,292.6-387.5,292.7-387.6,292.7z M-389.2,279.5l-1-1v-0.1l0.1-0.1l1.1-1.1h0.2l0.8,0.8l0.5,0.5v0.2l-1.2,1.2h-0.2
			C-388.9,279.9-389.2,279.5-389.2,279.5z M-384,282l-1.2,1.2h-0.2l-1.2-1.2v-0.2l1.2-1.2h0.2l1.2,1.2C-384,281.8-384,282-384,282z
			 M-384.1,260.5l-0.8,0.8l-0.4,0.4h-0.2l-0.3-0.3c-0.3-0.3-0.6-0.6-0.9-1c0,0-0.1-0.1,0-0.2l1.1-1.1l0.2-0.2h0.2
			c0.4,0.4,0.8,0.8,1.2,1.3C-384,260.4-384,260.4-384.1,260.5C-384,260.5-384,260.5-384.1,260.5z M-384,264
			C-384,264.1-384,264.1-384,264l-1.3,1.3h-0.2l-0.8-0.8l-0.3-0.4v-0.2l1.2-1.2h0.2l1.1,1.1C-384.1,263.8-384,264-384,264z
			 M-386.7,267.5l1.2-1.2h0.2l0.3,0.3l0.9,0.9v0.2l-1.2,1.2h-0.2l-1.1-1.2C-386.7,267.7-386.7,267.6-386.7,267.5
			C-386.7,267.6-386.7,267.6-386.7,267.5z M-384,271.2C-384,271.2-384,271.3-384,271.2c-0.4,0.5-0.8,0.9-1.2,1.3h-0.2l-0.8-0.8
			l-0.4-0.4v-0.2l1.2-1.2h0.2l0.6,0.6C-384.4,270.7-384.2,270.9-384,271.2C-384,271.1-384,271.2-384,271.2z M-380.4,292.7
			c-0.4,0.4-0.8,0.8-1.2,1.3h-0.2l-0.9-0.9l-0.4-0.4v-0.2l1.2-1.2h0.2l0.7,0.7l0.5,0.5C-380.4,292.6-380.4,292.7-380.4,292.7z
			 M-381.8,284.2h0.2l1.2,1.2v0.2c-0.4,0.5-0.8,0.9-1.2,1.2h-0.2l-0.5-0.5l-0.1-0.1l-0.7-0.7v-0.2l0.6-0.6l0.1-0.1
			C-382.2,284.6-382,284.4-381.8,284.2z M-381.8,272.5l-0.6-0.6l-0.5-0.5v-0.2l1.2-1.2h0.2l1.2,1.2v0.2l-0.7,0.4
			C-381.2,272-381.5,272.2-381.8,272.5L-381.8,272.5z M-376.9,274.9l-0.5,0.5l-0.7,0.7h-0.2l-1.2-1.2v-0.2l1.1-1.1l0.1-0.1h0.2
			c0.4,0.4,0.8,0.8,1.2,1.3C-376.8,274.8-376.8,274.9-376.9,274.9z M-373.3,285.6c-0.3,0.3-0.5,0.6-0.8,0.8l-0.4,0.4h-0.2l-0.6-0.6
			l-0.6-0.6v-0.2l1.2-1.2h0.2l1.2,1.2C-373.2,285.5-373.2,285.6-373.3,285.6z M-374.1,272.9c0.4-0.4,0.8-0.9,1.2-1.3h0.2l1.2,1.2
			v0.2c-0.4,0.4-0.9,0.8-1.3,1.2h-0.2l-0.4-0.4l-0.7-0.7C-374.2,273-374.2,273-374.1,272.9z M-374.7,277.1c0,0,0.1-0.1,0.2,0
			c0.2,0.1,0.3,0.3,0.4,0.4l0.1,0.1l0.7,0.7v0.2c-0.4,0.4-0.8,0.8-1.2,1.3h-0.2l-1.2-1.2v-0.2C-375.5,277.8-375.1,277.4-374.7,277.1
			z M-376.4,268.1C-376.3,268.1-376.3,268.1-376.4,268.1l1.3,1.3v0.2l-0.7,0.7l-0.6,0.6h-0.2c-0.4-0.4-0.8-0.8-1.3-1.2v-0.2
			C-377.3,268.9-376.8,268.5-376.4,268.1z M-376.9,264.1l-1.2,1.2h-0.2l-1.2-1.2v-0.2l0.5-0.5c0.2-0.2,0.4-0.5,0.7-0.7h0.2l0.8,0.8
			l0.5,0.5C-376.8,264-376.8,264.1-376.9,264.1z M-379.5,260.4l1.2-1.2h0.2l0.1,0.1l1.1,1.1v0.2l-0.9,0.9l-0.4,0.3h-0.2l-1.2-1.2
			C-379.5,260.6-379.5,260.5-379.5,260.4C-379.5,260.5-379.5,260.4-379.5,260.4z M-380.1,278.8h0.2c0.4,0.4,0.8,0.8,1.2,1.3v0.2
			c-0.2,0.2-0.4,0.4-0.5,0.6l-0.1,0.1l-0.6,0.6h-0.2c-0.5-0.5-0.9-0.9-1.2-1.3v-0.2l0.1-0.1C-380.8,279.6-380.4,279.2-380.1,278.8z
			 M-383.1,256.8C-383.1,256.8-383,256.8-383.1,256.8l1.1-1.1l0.2-0.2h0.2c0.3,0.4,0.6,0.8,1,1.1c0,0.1,0,0.2,0.1,0.2
			c0,0,0,0.1,0.1,0.1v0.1l-1.2,1.2h-0.2l-0.1-0.1c-0.4-0.4-0.8-0.8-1.2-1.1V256.8C-383.1,256.9-383.1,256.8-383.1,256.8z
			 M-380.4,260.5c-0.1,0.1-0.1,0.1-0.1,0.2l-0.2,0.1l-0.9,0.9h-0.2l-1.2-1.2v-0.2l0.1-0.1c0.4-0.4,0.8-0.8,1.2-1.1h0.2L-380.4,260.5
			C-380.4,260.4-380.4,260.4-380.4,260.5z M-383.1,264c0.5-0.5,0.9-0.8,1.3-1.2h0.2l1.2,1.2v0.2l-0.6,0.6l-0.7,0.7h-0.2l-0.5-0.5
			l-0.7-0.7C-383.1,264.3-383.1,264-383.1,264z M-383.1,267.6c0.3-0.3,0.6-0.6,0.9-0.8l0.4-0.4h0.2c0.4,0.4,0.8,0.8,1.2,1.3v0.2
			l-0.5,0.5l-0.8,0.7h-0.2l-1.2-1.2C-383.1,267.9-383.1,267.6-383.1,267.6z M-383.5,275.3l1.1,1.1l0.2,0.2v0.2
			c-0.3,0.4-0.8,0.8-1.2,1.2h-0.2l-1.3-1.3v-0.2c0.2-0.2,0.4-0.4,0.5-0.6l0.7-0.7C-383.6,275.2-383.5,275.2-383.5,275.3z
			 M-386.7,256.8l0.9-0.9l0.3-0.3h0.2l0.3,0.3l0.9,0.9c0,0,0.1,0,0.1,0.1v0.2l-1.2,1.2h-0.2l-0.4-0.4l-0.1-0.1l-0.7-0.7
			C-386.7,256.9-386.7,256.8-386.7,256.8z M-387,286c0.4,0.4,0.8,0.8,1.2,1.1l0.1,0.1v0.2l-1.2,1.2h-0.2l-0.3-0.3l-1-1v-0.2l1.2-1.2
			C-387.1,285.9-387.1,285.9-387,286z M-387.5,274.8C-387.5,274.8-387.6,274.8-387.5,274.8c-0.3,0.3-0.5,0.5-0.7,0.8l-0.5,0.5h-0.2
			l-0.8-0.8l-0.4-0.4v-0.2l0.4-0.4c0.3-0.3,0.6-0.5,0.8-0.8h0.2l0.4,0.4C-388.1,274.2-387.8,274.5-387.5,274.8
			C-387.6,274.7-387.5,274.8-387.5,274.8z M-387.6,271.3c-0.2,0.2-0.3,0.3-0.5,0.4v0.1c-0.2,0.2-0.5,0.4-0.7,0.7h-0.2
			c-0.4-0.3-0.7-0.6-1-0.9c-0.1-0.1-0.2-0.2-0.2-0.3v-0.2l1.2-1.2h0.2c0.5,0.4,0.9,0.9,1.3,1.3
			C-387.6,271.2-387.6,271.3-387.6,271.3z M-387.6,267.7l-0.5,0.5l-0.7,0.7h-0.2l-1.2-1.2v-0.2l0.9-0.9l0.3-0.3h0.2
			c0.1,0.1,0.2,0.3,0.4,0.4l0.3,0.3l0.5,0.5C-387.6,267.5-387.6,267.7-387.6,267.7z M-390.2,263.9c0.4-0.4,0.8-0.8,1.2-1.3h0.2
			l1.2,1.3v0.2l-0.1,0.1l-0.2,0.2l-0.2,0.2l-0.7,0.7h-0.2l-0.4-0.4c-0.3-0.3-0.6-0.5-0.8-0.8C-390.3,264-390.3,264-390.2,263.9z
			 M-390.8,282.4C-390.7,282.4-390.7,282.4-390.8,282.4h0.2l1.3,1.3v0.2l-1.3,1.1h-0.2l-0.3-0.3l-1-1v-0.2
			C-391.6,283.2-391.2,282.8-390.8,282.4z M-391.1,278.4c-0.3,0.4-0.7,0.7-0.9,1l-0.3,0.3h-0.2l-0.5-0.5l-0.1-0.1
			c-0.2-0.2-0.5-0.4-0.7-0.7v-0.2l0.2-0.2c0.4-0.3,0.7-0.7,1.1-1h0.2l1,1L-391.1,278.4C-391.1,278.3-391.1,278.3-391.1,278.4z
			 M-393.9,271.2c0.3-0.4,0.7-0.7,1-1l0.3-0.3h0.2l0.1,0.1l0.9,0.9l0.2,0.2v0.1c-0.4,0.4-0.8,0.8-1.1,1.2l-0.1,0.1h-0.2
			L-393.9,271.2C-393.9,271.3-393.9,271.3-393.9,271.2z M-391.2,274.9c-0.4,0.4-0.8,0.8-1.2,1.1h-0.2l-0.7-0.7l-0.5-0.5v-0.2
			l0.4-0.4c0.2-0.3,0.5-0.5,0.7-0.8h0.2l1.3,1.3C-391.1,274.8-391.1,274.8-391.2,274.9C-391.1,274.8-391.2,274.9-391.2,274.9z
			 M-393.8,263.9l0.5-0.5l0.8-0.8h0.2l0.6,0.6l0.7,0.7v0.2c-0.3,0.3-0.6,0.5-0.8,0.8l-0.4,0.4h-0.2l-1.2-1.2
			C-393.8,264.1-393.8,264.1-393.8,263.9C-393.8,264-393.8,264-393.8,263.9z M-393.8,267.5c0.4-0.3,0.8-0.7,1.2-1.2h0.2l1.2,1.2v0.2
			l-0.5,0.4l-0.8,0.8h-0.2c0,0-0.1,0-0.1-0.1c-0.2-0.2-0.4-0.5-0.7-0.7l-0.5-0.5C-393.9,267.7-393.9,267.6-393.8,267.5
			C-393.9,267.6-393.9,267.5-393.8,267.5z M-394.3,293.1h0.2l1.3,1.3v0.2l-0.5,0.5l-0.7,0.7h-0.2l-0.6-0.6l-0.6-0.6v-0.2
			C-395.1,293.9-394.7,293.5-394.3,293.1z M-394.7,274.8C-394.7,274.8-394.8,274.8-394.7,274.8c-0.5,0.5-0.9,0.9-1.2,1.3h-0.2
			l-0.6-0.6l-0.1-0.1l-0.5-0.5v-0.2c0.1-0.1,0.1-0.2,0.2-0.2l0.3-0.3c0.2-0.2,0.4-0.4,0.7-0.6h0.2L-394.7,274.8
			C-394.7,274.7-394.7,274.8-394.7,274.8z M-397.4,271.1C-397.3,271.1-397.3,271-397.4,271.1l1.2-1.2h0.2l1.2,1.2v0.2
			c-0.4,0.5-0.8,0.8-1.2,1.2h-0.2c-0.4-0.4-0.8-0.8-1.1-1.2C-397.4,271.2-397.4,271.2-397.4,271.1z M-397.4,278.2
			C-397.4,278.2-397.3,278.2-397.4,278.2c0.3-0.3,0.5-0.4,0.7-0.6l0.6-0.6h0.2l1.2,1.2v0.2c-0.3,0.4-0.7,0.8-1.2,1.3l-0.1,0.1h-0.2
			l-1.2-1.2V278.2z M-397.8,289.6l1.1,1.1l0.2,0.2v0.2l-0.6,0.5c-0.2,0.2-0.4,0.4-0.7,0.6h-0.2l-1.2-1.2v-0.2l0.1-0.1l1.1-1.1
			C-397.9,289.5-397.8,289.5-397.8,289.6z M-398.3,278.4l-1.2,1.2h-0.2l-0.1-0.1l-0.2-0.2l-0.9-0.9v-0.2l0.4-0.4l0.3-0.3l0.5-0.5
			h0.2l1.1,1.1l0.1,0.1C-398.3,278.2-398.3,278.4-398.3,278.4z M-401,271.1l0.4-0.3l0.9-0.9h0.2l0.7,0.7l0.5,0.5v0.2l-0.3,0.2l-1,1
			h-0.2l-1.1-1.1l-0.1-0.1V271.1C-401,271.2-401,271.1-401,271.1z M-404.5,289.2v-0.1c0-0.1,0.1-0.1,0.1-0.1c0.3-0.4,0.7-0.7,1-1
			l0.1-0.2h0.3c0.4,0.4,0.7,0.8,1.1,1.1v0.2c-0.1,0.1-0.2,0.1-0.2,0.2l-0.4,0.4l-0.1,0.1c-0.2,0.2-0.4,0.4-0.5,0.6h-0.2
			C-403.3,290.4-404.5,289.2-404.5,289.2z M-401.9,292.7l-1.2,1.2h-0.2l-1.1-1.1l-0.1-0.1v-0.2l0.4-0.4l0.8-0.8h0.2l0.8,0.8l0.4,0.4
			C-401.8,292.6-401.8,292.7-401.9,292.7z M-401.9,285.6c-0.5,0.5-0.9,0.8-1.2,1.2h-0.2c-0.3-0.2-0.5-0.5-0.8-0.7l-0.5-0.5v-0.2
			c0.4-0.4,0.9-0.8,1.2-1.2h0.1l0.7,0.7l0.5,0.5C-401.9,285.4-401.8,285.5-401.9,285.6C-401.8,285.5-401.8,285.6-401.9,285.6z
			 M-401.9,282l-0.3,0.3l-1,1h-0.2l-0.2-0.2c-0.3-0.3-0.6-0.7-0.9-1l-0.1-0.1v-0.1c0.1-0.1,0.1-0.1,0.1-0.2l0.6-0.6
			c0.3-0.2,0.4-0.3,0.6-0.5h0.2c0.2,0.3,0.5,0.5,0.7,0.7l0.5,0.5C-401.9,281.8-401.9,282-401.9,282z M-404.6,278.2l1.3-1.3h0.2
			l0.1,0.1c0.2,0.2,0.4,0.4,0.6,0.7l0.5,0.5v0.2l-1.2,1.2h-0.2l-0.5-0.5l-0.7-0.7l-0.1-0.1V278.2
			C-404.6,278.3-404.6,278.2-404.6,278.2z M-408.1,278.2l0.4-0.4c0.2-0.2,0.5-0.5,0.7-0.8h0.2c0.3,0.4,0.7,0.7,1,1l0.2,0.2v0.2
			c-0.3,0.4-0.7,0.8-1,1.1l-0.1,0.1h-0.2l-0.7-0.7l-0.5-0.6V278.2z M-405.5,281.9C-405.5,281.9-405.5,282-405.5,281.9l-0.5,0.5
			c-0.3,0.3-0.6,0.5-0.8,0.8h-0.2c-0.1-0.1-0.1-0.2-0.2-0.2l-0.3-0.3l-0.7-0.7v-0.2l1.2-1.2h0.2L-405.5,281.9
			C-405.5,281.8-405.5,281.9-405.5,281.9z M-408.1,285.4c0.3-0.2,0.5-0.5,0.8-0.8l0.5-0.4h0.1l1.1,1.1l0.2,0.2v0.2l-0.3,0.3
			l-0.9,0.9h-0.2l-1.3-1.3C-408.1,285.5-408.2,285.5-408.1,285.4C-408.2,285.4-408.1,285.4-408.1,285.4z M-406.6,290.3
			C-406.7,290.3-406.7,290.4-406.6,290.3c-0.1,0.1-0.1,0.1-0.2,0.1h-0.1l-0.1-0.1c-0.1-0.1-0.2-0.2-0.4-0.3l-0.1-0.1l-0.7-0.7V289
			l0.1-0.1l0.5-0.4c0.2-0.2,0.5-0.5,0.7-0.8h0.2l0.8,0.8l0.5,0.5v0.2C-405.9,289.5-406.2,289.9-406.6,290.3z"/>
	</g>
</g>
</svg>
