<?xml version="1.0" encoding="utf-8"?>
<!-- Generator: Adobe Illustrator 19.0.0, SVG Export Plug-In . SVG Version: 6.00 Build 0)  -->
<svg version="1.1" id="Layer_1" xmlns="http://www.w3.org/2000/svg" xmlns:xlink="http://www.w3.org/1999/xlink" x="0px" y="0px"
	 viewBox="-238 311.3 482.7 458.7" enable-background="new -238 311.3 482.7 458.7" xml:space="preserve">
<rect x="-276.7" y="225.6" fill="#E9F0F9" width="560" height="630"/>
<path fill="#679188" d="M-189.7,879.1c-28.5,21.5-74,10.2-88.2,2.5c-0.1-0.1,92.9-214.3,96.6-225.5c1.1-3.3,1.1-3.3,4.6-3.3
	c0.4,0,0.9,0,1.3,0c3.7,0.5,7.4,0.8,11,1.5c10.8,2.1,20.7,6.2,29.6,12.7c1.9,1.1,2.3,2.6,1.8,4.8
	C-135.2,682.9-186.9,868.2-189.7,879.1z"/>
<path fill="#313337" d="M-94,630.3c-12.5,0-25.1,0-37.6,0c-4.3,0-6.4-2.1-6.4-6.3c0-13.8,0-27.6-0.1-41.5c0-2.3,0.9-4,2.4-5.6
	c0.7,0.8,0.4,1.7,0.4,2.5c0,11.2,0,22.4,0,33.5c0,0.8-0.1,1.7,0.3,2.4c0.3,0.9,0.9,1.2,1.8,1.3c0.6,0,1.2,0,1.8,0
	c16.9,0,33.8,0,50.6,0c3.6,0,3.8-0.1,3.8-3.7c0-3.6,0-7.2,0-10.8c0-0.8-0.1-1.7,0.3-2.5c0.7-0.8,1.6-1.1,2.6-0.5
	c0,8.4,0,16.9,0,25.3c0,3.6-2.1,5.7-5.7,5.7C-84.4,630.3-89.2,630.3-94,630.3z"/>
<path fill="#313337" d="M-135.4,554.3c-0.8,1.4-1.4,2.8-2.5,4c0-6.7,0-13.3,0-20c0-9.8,0.1-19.7,0-29.5c0-3.7,2.3-6.3,6.2-6.3
	c17.2,0.1,34.4,0.1,51.7,0c4.3,0,6.3,2.8,6.2,6.3c-0.2,6.3,0,12.6,0,18.8c0.3,0.4,0.4,0.9,0.5,1.4c0.1,2.5,0,5,0,7.4
	c0,0.6-0.3,1.1-0.5,1.6c0,4.4,0,8.9,0,13.3c-0.9,1.4-1.6,1.6-2.7,0.9c-0.3-0.9-0.2-1.9-0.2-2.8c0-13,0-26,0-39c0-1.1,0-2.1-0.2-3.1
	c-0.4-0.6-0.9-0.9-1.6-0.8c-1.8-0.1-3.6-0.7-5.4-0.1c-1,0.2-2,0.1-3,0.1c-14.7,0-29.4,0-44.1,0c-0.7,0-1.3,0-2,0
	c-1.1,0-1.7,0.6-1.9,1.7c-0.2,0.9-0.1,1.8-0.1,2.7c0,12.2,0,24.3,0,36.5C-135.1,549.7-135,552-135.4,554.3z"/>
<path fill="#5C3713" d="M-76.3,552.6c0.8-0.4,1.5-0.9,2.3-1.3c2.8-0.3,5,0.3,6.1,3.2c0.9,2.4,0.3,4.5-1.8,6.1c-1.4,1-2.9,2-4.3,3
	c-0.5,0.9-1.5,1.5-2.3,2.1c-2.5,1.6-5.7,1.3-7.7-0.7c-1.7-1.7-1.9-4.1-0.3-6.4C-82.2,555.9-79.4,554.1-76.3,552.6z"/>
<path fill="#5C3713" d="M-74,566.6c2.4-0.3,4.4,0.2,5.7,2.4c1.4,2.4,1.2,4.8-0.9,6.6c-1.6,1.4-3.2,2.7-4.8,4.1
	c-0.5,1.1-1.5,1.6-2.3,2.3c-2.5,1-5.8-0.1-7.2-2.4c-1.3-2.1-0.5-5.6,1.7-7.5c1.7-1.5,3.5-2.9,5.3-4.3
	C-75.8,567.3-75.1,566.5-74,566.6z"/>
<path fill="#5C3713" d="M-74,599.3c-0.8,0.1-1.5,0.2-2.3,0.3c-2.9,0.3-5-2.1-4.7-5.2c0.3-3.1,2.2-5.2,4.3-7.3
	c0.8-0.6,1.5-1.5,2.7-1.2c2.5-0.6,4.4,0.2,5.8,2.4c1.2,2,1.1,3.9-0.5,5.8C-70.2,596.1-71.8,598-74,599.3z"/>
<path fill="#5C3713" d="M-73.9,538c0-3.5,0-6.9,0-10.4c3.3,0.7,3.7,2.7,3.1,5.9C-71.2,535.4-72.3,536.9-73.9,538z"/>
<path fill="#323437" d="M-73.9,585.9c-0.8,0.5-1.6,0.9-2.4,1.4c-1-1.9-0.8-3.8-0.1-5.6c0.8-0.7,1.6-1.3,2.3-2
	C-74,581.7-74,583.8-73.9,585.9z"/>
<path fill="#333437" d="M-74,566.6c-0.8,0.5-1.5,0.9-2.3,1.4c-0.8-0.8-0.5-1.7-0.1-2.6c0.8-0.6,1.6-1.1,2.4-1.7
	C-74,564.6-74,565.6-74,566.6z"/>
<path fill="#4A4C51" d="M-101.7,624.1c0,2.4-2,4.3-4.4,4.2c-2.3,0-4.3-2.2-4.3-4.4c0.1-2,2.4-4.3,4.4-4.2
	C-103.5,619.7-101.6,621.7-101.7,624.1z"/>
<g>
	<path fill="#E9C1AC" d="M272,828.4c14.9,47.3-27.7,63.3-49.6,63.8c-2.9-4-5.3-8.4-7.9-12.6c-7.6-12.4-124-212-131.5-224.4
		c-0.8-1.3-0.9-2.4,0.2-3.6c0.7-0.8,1.3-1.7,1.9-2.5c6.1-8,13.7-14.2,22.4-19.1c3.9-2.2,8-4,12.2-5.7c2.6-1,2.7-1,4.3,1.4
		c9.2,13.5,19,26.7,28.6,39.9c9.1,12.5,109.9,148.4,118.9,161c0.3,0.4,0.6,0.8,0.8,1.3C272.1,828.1,272.1,828.2,272,828.4z"/>
	<path fill="#5C3713" d="M55.6,550.2c2.6,1.5,5.2,3.1,7.9,4.6c5.5,3,10.5,6.7,15.3,10.6c6.4,5.2,12.2,11.1,16.8,18
		c3.1,4.8,5.6,9.8,6.5,15.5c0.3,1.9,0.6,3.8,0.5,5.8c-0.1,1,0.2,1.6,0.9,2.3c5.7,5.6,11.2,11.4,16.2,17.6c-4.7,2-9.4,4.1-13.9,6.7
		c-7.9,4.7-14.8,10.6-20.5,17.9c-1.7-1.7-2.4-4.1-3.6-6.1c-1.4-2.5-2.6-5-3.8-7.6c-0.4-0.8-0.8-1-1.7-0.9
		c-5.4,0.9-10.8,0.6-16.2-0.2c-3.3-0.5-6.5-1.1-9.7-2.3c-0.7-1.1-0.5-2.3-0.4-3.4c0.5-6.3,0.8-12.6,1.3-18.9
		c0.4-5.9,0.8-11.8,1.2-17.8c0.4-6.5,1-13.1,1.2-19.6c0-0.9-0.3-1.5-0.9-2c-1.6-1.3-3-2.7-4.4-4.1c-0.8-0.8-1.7-1-2.7-0.7
		c-1.8,0.5-3.7,0.9-5.5,1.1c-4.7,0.6-8.8-0.5-12.1-4.1c-1-1-1.9-2.1-2.8-3.3c-0.6-0.9-0.6-1.7,0.2-2.5c1-1,2.2-1.6,3.3-2.5
		c0.1-0.1,0.3-0.2,0.4-0.3c6.1-2.8,12.5-4.9,19.2-6C51,547.9,53.5,548.4,55.6,550.2z"/>
	<path fill="#698CC8" d="M28,562.3c4.5,4.7,10,5.1,15.8,3.4c2.7-0.8,4.6-0.6,6.3,1.7c0.9,1.3,2.3,2.2,3.5,3.3
		c0.5,0.4,0.7,0.9,0.7,1.6c-0.5,6.4-0.8,12.8-1.3,19.2c-0.5,7.5-1.1,15-1.6,22.5c-0.3,4.1-0.5,8.2-0.7,12.3c-0.1,2-0.2,4-0.4,6
		c-1.1,3.2-3.4,4.4-6.7,4.4c-9.7-0.1-19.5-0.1-29.2-0.1c-0.7-0.3-0.8-1-0.8-1.7c-0.1-1.1-0.1-2.2,0.1-3.3c0.2-1.6,0.3-3.2,0.2-4.8
		c-0.2-20.6,0.5-41.2,0.3-61.8c0-0.7,0-1.3,0.2-2c0.1-0.2,0.2-0.4,0.4-0.5c0.4-0.3,0.9-0.3,1.4-0.3c3.6,0,7.1,0,10.7,0
		C27.2,562.1,27.6,562.3,28,562.3z"/>
	<path fill="#B3C5E2" d="M55.6,550.2c-3.9-2.4-8-1.5-12-0.5c-4.6,1.2-9,2.5-13.3,4.6c-0.4,0.2-0.8,0.5-1.2,0.3
		c-0.5,0.3-1,0.4-1.6,0.4c-3.7,0-7.5,0-11.2,0c-0.4,0-0.9-0.1-1.3-0.3c-0.6-0.8-0.5-1.7-0.5-2.5c0-5.7,0-11.4,0-17.1
		c0-2.2-0.1-2.3-2.4-2.3c-2.6,0-5.2,0-7.8,0c-4,0.1-7.9,0-11.9,0c-0.7,0-1.3,0-1.8-0.5c0.6-0.4,1.2-0.2,1.8-0.2c20,0,40,0,60,0
		c3.4,0,4.3,1,4.1,4.4C56.1,541,55.9,545.6,55.6,550.2z"/>
	<path fill="#86A3D2" d="M14.7,562.6c0,8.2,0.2,16.4-0.1,24.6c-0.4,14.1-0.2,28.2-0.3,42.2c0,1.8-0.4,3.5-0.3,5.3
		c0,0.6,0,1.2,0.3,1.8c-3.1,0-6.2,0-9.3,0c-0.3-2.7-0.5-5.5-0.5-8.3c-0.1-9-0.1-18.1,0-27.1c0-5.2-0.6-10.4-0.3-15.6
		c-0.1-6.8-0.1-13.5-0.1-20.3c0-0.9-0.1-1.9,0.4-2.7c0.4-0.4,1-0.4,1.5-0.4c2.4,0,4.7,0,7.1,0C13.7,562.2,14.3,562.2,14.7,562.6z"/>
	<path fill="#5C3713" d="M-9.7,602c-5-0.8-6.1-4.4-5.5-8.6c0.2-1.5,1.2-2.6,3-3.3c-3-0.6-5-2.1-5.5-4.8c-1.1-5,0.9-8.3,5.8-7.9
		c1.2,0.1,2.4,0.5,3.6,0.3c3.5-0.2,7-0.2,10.1,1.8c2.2,1.4,3,3.6,2.8,6.2c0,0.9-0.1,1.8-0.3,2.6c-0.9,2.5-2.5,4.3-6,3.3
		c-0.7-0.2-1.3-0.4-2-0.4c-0.6-0.3-1.3-0.3-2-0.4c0.6,0,1.1,0.1,1.6,0.3c0.7,0.1,1.3,0.1,2,0.3c1.3,0.3,2.4,0.7,3.5,1.5
		c4.7,3.4,3.2,9.9-1.6,11.5c1.7,1.3,3.2,2.9,3.4,5.1c0.2,1.6-0.4,3.1-1.3,4.4c-1.7,2.4-4.2,2.9-7,1.5c-1.3-0.2-2.6-0.5-3.9-0.7
		c-2.9-0.4-4.9-2.8-5.1-6c-0.2-3.3,1.1-5.3,4-6c0.7-0.4,1.5-0.1,2.3-0.1c0.4,0,0.8,0.3,1,0.3c-0.2,0-0.4-0.3-0.8-0.4
		C-8.5,602.5-9.2,602.5-9.7,602z"/>
	<path fill="#B3C5E2" d="M-9.4,532.3c4.6,0,9.2,0,13.7,0.1c0.6,0.6,0.5,1.4,0.5,2.2c0,6,0,12,0,18c0,0.7,0,1.5-0.4,2.1
		c-0.3,0.4-0.8,0.5-1.2,0.5c-4.3,0-8.5,0.2-12.8-0.1c-0.3-0.1-0.6-0.3-0.7-0.6c-0.5-6.3-1.1-12.5-1.5-18.8
		C-11.9,533.3-11.3,532.7-9.4,532.3z"/>
	<path fill="#698CC8" d="M-5.3,615.3c0.4,0,0.8,0,1.2,0.1c3.1,0.5,4.9-0.3,6.2-2.8c1.2-2.5,0.7-5-1.4-6.9c-0.6-0.5-1.2-1-1.9-1.6
		c2.8-0.5,4.4-2.1,5-4.7c0.6-2.8-0.8-5.3-3.8-6.9c-0.7-0.4-1.4-0.6-2.2-0.9c0-0.3,0-0.5,0.4-0.3c4.3,0.2,5.1-0.5,6.3-5.6
		c0.1-0.1,0.2-0.2,0.3,0C5.1,600.4,5,615.1,5,629.9c0,1.6,0.4,3.3,0.3,5c0,0.6,0,1.2-0.3,1.8c-1.7,0-3.4,0.3-5.1-0.2
		c-2.3-0.7-3.6-2.3-3.8-4.5c-0.5-4.2-0.7-8.5-1.1-12.7C-5.1,617.8-5.2,616.6-5.3,615.3z"/>
	<path fill="#5C3713" d="M-8.6,575.7c-1.8-0.7-3.5-1.5-4.9-3c-1.7-1.9-2.5-4-1.6-6.4c0.9-2.5,2.6-4.2,5.5-4.4
		c1.2-0.7,2.3,0.2,3.3,0.5c1.4,0.6,2.8,1,4.2,1.6c4.5,2,5.8,8.4,2.5,11.9c-1.5,1.6-3.5,2.3-5.8,1.5C-6.5,577-7.8,576.8-8.6,575.7z"
		/>
	<path fill="#8EA8D6" d="M-6.4,562.7c-1.1,0-2.1-0.9-3.2-0.8c-0.2-2.5-0.4-5-0.6-7.5c0.1,0.1,0.2,0.2,0.2,0.3
		c1.7,0.4,3.4,0.1,5.1,0.2c2.7,0,5.4,0,8.1,0c1,0,1.4,0.4,1.6,1.3c0.3,1.3,0.3,2.5,0.3,3.8c0,1.7,0.2,1.9,1.9,1.9c1.8,0,3.5,0,5.3,0
		c0.7,0,1.4-0.1,2.1,0.3c0.2,0.1,0.3,0.3,0.2,0.5c0,0,0,0,0,0c-3.3,0-6.7,0-10,0c-0.3,0.3-0.6,0.5-1,0.5
		C0.3,563.1-3.1,563.5-6.4,562.7z"/>
	<path fill="#698CC8" d="M-6.4,562.7c3.7,0,7.4,0,11.1,0c0,7.7,0,15.3,0,23c-0.1,0-0.2,0-0.3,0c0.4-3.8-2.9-7-7-7.3
		c-1.9-0.2-3.8-0.5-5.7-0.7c-0.1-0.6-0.2-1.3-0.2-1.9c0.8,0.3,1.7,0.6,2.5,0.9c4,1.5,7.2-0.5,7.7-4.7c0.5-4-1-6.4-4.7-7.9
		C-4.2,563.6-5.4,563.4-6.4,562.7z"/>
	<path fill="#A65525" d="M-7.7,602.6c-0.9,0-1.8,0-2.7,0c0.2-0.2,0.4-0.4,0.6-0.6c0.7,0.1,1.3,0.2,2,0.3c0.1,0.1,0.1,0.1,0.1,0.2
		C-7.6,602.6-7.6,602.6-7.7,602.6z"/>
	<path fill="#8DA7D6" d="M14.7,562.6c0-0.1,0-0.2,0-0.3c-1-2.2-0.6-4.4-0.1-6.7c0.1-0.5,0.5-0.8,1.1-0.8c4.4,0.1,8.9-0.2,13.3,0.2
		c-1,0.9-2.3,1.5-3.2,2.5c-0.6,0.6-0.7,1.1-0.1,1.8c0.9,1,1.6,2.1,2.5,3.1c-0.5,0.5-1.2,0.3-1.7,0.3
		C22.4,562.6,18.5,562.6,14.7,562.6z"/>
	<path fill="#A4B9DD" d="M28.9,555c-4,0-8,0.1-12,0c-1.8-0.1-2.2,0.8-2.2,2.2c-0.1,1.7,0,3.4,0,5.2c-2.8,0-5.6-0.1-8.5,0
		c-1.3,0-1.6-0.4-1.6-1.6c0-1.5,0.1-3-0.2-4.4c-0.2-1.1-0.6-1.3-1.6-1.3c-3.7,0-7.4,0-11.1,0c-0.6,0-1.2,0.2-1.7-0.3
		c4.8,0,9.5,0,14.3,0c0.1-0.1,0.2-0.2,0.4-0.3c3.3-0.4,6.6-0.4,9.8,0c0.2,0,0.3,0.2,0.4,0.3c4.7,0,9.4,0,14.1,0
		C29,554.8,29,554.9,28.9,555z"/>
	<path fill="#C3D0E7" d="M15,554.6c-3.6,0-7.1,0-10.7,0c0-7.4,0-14.9,0-22.3c3.1,0,6.1,0,9.2,0c1.2,0,1.5,0.4,1.5,1.5
		C15,540.7,15,547.7,15,554.6z"/>
	<path fill="#6780AC" d="M-1.9,591.3c-0.1,0.1-0.3,0.2-0.4,0.3c-0.6-0.1-1.3-0.2-1.9-0.3c-0.1-0.1-0.1-0.2,0-0.3c0.1,0,0.2,0,0.2,0
		C-3.3,591-2.6,590.8-1.9,591.3z"/>
	<path fill="#635C57" d="M-4,590.9c-0.1,0.1-0.2,0.2-0.3,0.3c-0.6-0.1-1.1-0.2-1.7-0.4C-5.3,590.7-4.6,590.4-4,590.9z"/>
	<path fill="#8B4A20" d="M-7.7,602.6c0-0.1,0-0.2,0-0.3c0.4,0.1,0.7,0.3,1.1,0.4C-7,603.1-7.4,603-7.7,602.6z"/>
</g>
<g>
	<path fill="#698CC8" d="M90.6,434.2c5.7,3.1,11.1,1.8,16.1-1.6c2.3-1.6,4.2-1.9,6.5-0.2c1.3,0.9,2.9,1.4,4.4,2.1
		c0.6,0.3,1,0.6,1.1,1.3c1.5,6.2,3.1,12.5,4.6,18.7c1.8,7.3,3.5,14.6,5.3,22c1,4,2,7.9,3,11.9c0.5,1.9,1,3.9,1.5,5.8
		c-0.1,3.4-1.9,5.2-5.1,6.2c-9.3,2.8-18.6,5.8-27.9,8.7c-0.8-0.1-1.1-0.7-1.3-1.4c-0.4-1-0.8-2.1-0.9-3.2c-0.2-1.6-0.7-3.1-1.2-4.7
		c-6.5-19.6-11.9-39.4-18.3-59c-0.2-0.6-0.4-1.3-0.4-1.9c0-0.2,0.1-0.4,0.2-0.6c0.3-0.4,0.8-0.6,1.3-0.7c3.4-1.1,6.8-2.2,10.2-3.2
		C89.8,434.2,90.2,434.2,90.6,434.2z"/>
	<path fill="#B3C5E2" d="M113.3,414.3c-4.5-1.1-8,1-11.6,3.2c-4,2.5-7.9,5.2-11.3,8.4c-0.3,0.3-0.6,0.7-1.1,0.7
		c-0.4,0.5-0.8,0.7-1.4,0.9c-3.6,1.2-7.1,2.3-10.7,3.4c-0.4,0.1-0.9,0.2-1.3,0.1c-0.8-0.5-1-1.4-1.3-2.3c-1.7-5.4-3.4-10.9-5.2-16.3
		c-0.7-2.1-0.8-2.2-3-1.5c-2.5,0.8-4.9,1.6-7.4,2.3c-3.7,1.3-7.5,2.4-11.3,3.6c-0.6,0.2-1.3,0.4-1.9,0c0.4-0.5,1.1-0.6,1.6-0.7
		c19.1-6,38.1-12.1,57.2-18.1c3.3-1,4.4-0.4,5.2,3C111,405.4,112.2,409.9,113.3,414.3z"/>
	<path fill="#698CC8" d="M78,438.5c2.5,7.8,5.1,15.6,7.4,23.5c3.9,13.5,8.3,26.9,12.5,40.4c0.5,1.7,0.7,3.5,1.3,5.1
		c0.2,0.6,0.3,1.2,0.8,1.6c-3,0.9-5.9,1.9-8.9,2.8c-1.1-2.5-2.1-5.1-3-7.7c-2.8-8.6-5.5-17.2-8.2-25.8c-1.5-5-3.7-9.7-5-14.8
		c-2.1-6.4-4.1-12.9-6.2-19.3c-0.3-0.9-0.7-1.8-0.4-2.7c0.3-0.5,0.8-0.7,1.3-0.9c2.2-0.7,4.5-1.4,6.7-2.1
		C77,438.4,77.5,438.2,78,438.5z"/>
	<path fill="#5C3713" d="M66.7,483.4c-5.1,0.7-7.2-2.3-7.9-6.5c-0.3-1.5,0.3-2.8,1.8-4.1c-3,0.3-5.4-0.5-6.7-2.9
		c-2.5-4.4-1.6-8.2,3.2-9.3c1.2-0.3,2.4-0.3,3.6-0.8c3.3-1.2,6.6-2.3,10.1-1.3c2.6,0.7,4,2.5,4.5,5.1c0.3,0.8,0.5,1.7,0.5,2.6
		c-0.1,2.6-1.1,4.8-4.7,4.9c-0.7,0-1.4,0.1-2,0.3c-0.7-0.1-1.3,0.1-2,0.3c0.5-0.2,1.1-0.3,1.6-0.2c0.7-0.1,1.3-0.3,2-0.3
		c1.3-0.1,2.5-0.1,3.8,0.3c5.5,1.8,6,8.4,2,11.4c2.1,0.7,3.9,1.8,4.8,3.9c0.6,1.5,0.6,3,0.1,4.6c-0.9,2.8-3.1,4.1-6.3,3.6
		c-1.3,0.2-2.6,0.3-3.9,0.5c-2.9,0.5-5.6-1.2-6.7-4.2c-1.2-3.1-0.5-5.4,2-6.9c0.6-0.6,1.4-0.5,2.1-0.8c0.4-0.1,0.8,0,1,0
		c-0.2,0.1-0.5-0.2-0.9-0.1C67.9,483.5,67.3,483.7,66.7,483.4z"/>
	<path fill="#B3C5E2" d="M45.9,416.8c4.4-1.4,8.7-2.7,13.1-4.1c0.8,0.4,0.9,1.2,1.2,1.9c1.8,5.7,3.6,11.4,5.4,17.1
		c0.2,0.7,0.5,1.4,0.3,2.1c-0.2,0.4-0.6,0.7-1,0.8c-4.1,1.3-8.1,2.7-12.2,3.8c-0.3,0-0.6-0.1-0.8-0.4c-1.5-3.7-3.1-7.5-4.6-11.2
		c-0.8-2.1-1.7-4.2-2.5-6.2C43.9,418.6,44.2,417.8,45.9,416.8z"/>
	<path fill="#698CC8" d="M74.9,494.7c0.4-0.1,0.7-0.2,1.1-0.3c3.1-0.4,4.6-1.8,5-4.6c0.4-2.8-0.8-5-3.4-6.2
		c-0.7-0.3-1.4-0.6-2.3-0.9c2.5-1.3,3.5-3.4,3.3-6c-0.3-2.8-2.4-4.8-5.7-5.4c-0.8-0.1-1.5-0.1-2.3-0.2c-0.1-0.3-0.1-0.5,0.3-0.4
		c4.1-1.1,4.7-2,4.3-7.3c0-0.2,0.1-0.2,0.3-0.1c4.9,13.9,9.2,28,13.7,42c0.5,1.6,1.4,3,1.8,4.6c0.1,0.6,0.4,1.2,0.2,1.8
		c-1.6,0.5-3.2,1.3-4.9,1.3c-2.4,0.1-4.1-1.1-5-3.2c-1.7-3.9-3.3-7.9-4.9-11.8C75.8,497.1,75.4,495.9,74.9,494.7z"/>
	<path fill="#5C3713" d="M59.8,458c-2-0.1-3.8-0.4-5.6-1.4c-2.2-1.3-3.6-3.1-3.5-5.6c0.1-2.7,1.3-4.8,3.9-5.9c1-1,2.2-0.5,3.3-0.5
		c1.5,0.2,3,0.1,4.5,0.3c4.9,0.5,8.1,6.2,6,10.6c-1,2-2.7,3.3-5,3.2C62.2,458.6,60.9,458.8,59.8,458z"/>
	<path fill="#698CC8" d="M57.9,444.9c-1.1,0.3-2.2-0.2-3.3,0.2c-0.9-2.3-1.9-4.7-2.8-7c0.1,0.1,0.2,0.1,0.3,0.2
		c1.7-0.2,3.3-0.9,4.9-1.4c2.6-0.8,5.2-1.6,7.8-2.5c0.9-0.3,1.5-0.1,1.9,0.7c0.7,1.1,1,2.3,1.4,3.5c0.6,1.7,0.8,1.8,2.4,1.3
		c1.7-0.5,3.4-1.1,5.1-1.6c0.7-0.2,1.4-0.5,2.1-0.3c0.2,0.1,0.3,0.2,0.3,0.5c0,0,0,0,0,0c-3.2,1-6.4,2-9.6,3
		c-0.2,0.3-0.5,0.6-0.9,0.7C64.4,443.3,61.4,444.7,57.9,444.9z"/>
	<path fill="#698CC8" d="M57.9,444.9c3.5-1.1,7-2.2,10.5-3.4c2.3,7.3,4.6,14.6,7,21.9c-0.1,0-0.2,0.1-0.3,0.1
		c-0.8-3.7-4.8-5.8-8.9-4.9c-1.9,0.4-3.8,0.7-5.7,1.1c-0.3-0.6-0.5-1.2-0.8-1.7c0.9,0,1.8,0.1,2.6,0.1c4.2,0.2,6.8-2.6,6-6.8
		c-0.8-4-2.8-5.8-6.9-6.1C60.3,445.1,59.1,445.2,57.9,444.9z"/>
	<path fill="#A65525" d="M68.8,483.4c-0.9,0.3-1.7,0.5-2.6,0.8c0.1-0.3,0.3-0.5,0.4-0.8c0.7-0.1,1.3-0.2,2-0.3
		c0.1,0,0.2,0.1,0.2,0.2C68.9,483.3,68.8,483.4,68.8,483.4z"/>
	<path fill="#698CC8" d="M78,438.5c0-0.1-0.1-0.2-0.1-0.3c-1.6-1.8-1.9-4-2.1-6.3c0-0.5,0.2-1,0.8-1.1c4.2-1.3,8.4-2.9,12.7-3.9
		c-0.7,1.2-1.8,2.1-2.3,3.3c-0.4,0.8-0.4,1.3,0.4,1.8c1.1,0.7,2.2,1.5,3.3,2.2c-0.3,0.6-1,0.6-1.6,0.8
		C85.4,436.2,81.7,437.3,78,438.5z"/>
	<path fill="#698CC8" d="M89.3,426.9c-3.8,1.2-7.6,2.5-11.4,3.6c-1.7,0.5-1.8,1.5-1.5,2.8c0.5,1.7,1,3.3,1.5,4.9
		c-2.7,0.9-5.4,1.6-8.1,2.6c-1.2,0.4-1.7,0.1-2-1.1c-0.4-1.4-0.8-2.8-1.5-4.2c-0.5-1-1-1.1-1.9-0.8c-3.5,1.2-7.1,2.3-10.6,3.4
		c-0.6,0.2-1.1,0.6-1.7,0.2c4.5-1.4,9.1-2.9,13.6-4.3c0.1-0.1,0.2-0.3,0.3-0.4c3-1.4,6.1-2.4,9.4-3c0.2,0,0.3,0.1,0.5,0.1
		c4.5-1.4,8.9-2.8,13.4-4.2C89.3,426.7,89.3,426.8,89.3,426.9z"/>
	<path fill="#6780AC" d="M70.8,470.8c-0.1,0.1-0.2,0.3-0.3,0.4c-0.7,0.1-1.3,0.2-2,0.3c-0.1-0.1-0.2-0.2-0.1-0.3c0-0.1,0.1,0,0.2,0
		C69.5,471,70.1,470.6,70.8,470.8z"/>
	<path fill="#635C57" d="M68.8,471.1c-0.1,0.1-0.1,0.2-0.2,0.4c-0.6,0.1-1.2,0.1-1.7,0.2C67.5,471.2,68,470.8,68.8,471.1z"/>
	<path fill="#8B4A20" d="M68.8,483.4c0-0.1-0.1-0.2-0.1-0.3c0.4,0,0.8,0,1.2,0.1C69.6,483.7,69.2,483.6,68.8,483.4z"/>
	<polyline fill="#698CC8" points="90.4,425.9 86.4,433.7 52.5,439.9 47.2,426.9 	"/>
	<path fill="#5C3713" d="M113.3,414.3c3,0.7,5.9,1.4,8.9,2c6.1,1.2,12,3.2,17.8,5.5c7.7,3,15,6.8,21.5,12.1
		c4.4,3.6,8.3,7.6,10.9,12.8c0.9,1.7,1.8,3.5,2.2,5.4c0.2,1,0.7,1.5,1.6,1.9c7.1,3.6,17.9-6.6,23.9-8.9c-3.9,3.4,7.4,24.4,4,28.2
		c-6.1,6.9-7.3,16.6-9,15c-2.1-1.9-35.8-0.1-36.6,0.4c-4.9,2.5-10.1,3.9-15.5,4.7c-3.3,0.5-6.6,0.9-9.9,0.8c-1-0.8-1.1-2-1.4-3.1
		c-1.4-6.2-3-12.3-4.5-18.4c-1.4-5.8-2.8-11.5-4.2-17.3c-1.6-6.4-3-12.7-4.7-19c-0.2-0.8-0.7-1.4-1.5-1.7c-1.9-0.7-3.6-1.7-5.4-2.6
		c-1-0.5-1.9-0.5-2.8,0.1c-1.6,1-3.2,2-4.9,2.8c-4.3,2-8.6,2.2-12.7-0.3c-1.2-0.7-2.5-1.4-3.6-2.3c-0.9-0.7-1-1.4-0.6-2.4
		c0.6-1.3,1.6-2.2,2.4-3.3c0.1-0.2,0.2-0.3,0.3-0.4c5-4.6,10.4-8.4,16.5-11.5C108.2,413.4,110.7,413.2,113.3,414.3z"/>
	<path fill="#DEDA9E" d="M413.6,365.5c49.5,0.6,51.6,46,45.2,67c-4.7,1.5-9.6,2.4-14.4,3.6c-14.1,3.4-240,51.9-254.2,55.2
		c-1.5,0.4-2.5,0.1-3.3-1.3c-0.5-0.9-1.2-1.7-1.8-2.6c-5.7-8.3-9.2-17.4-11.2-27.2c-0.9-4.4-1.3-8.9-1.6-13.4
		c-0.1-2.8-0.1-2.9,2.7-3.7c15.7-4.6,31.3-9.7,46.8-14.7c14.7-4.7,175.2-58.3,190-62.9c0.5-0.2,0.9-0.3,1.5-0.3
		C413.4,365.3,413.6,365.3,413.6,365.5z"/>
	<path fill="#C3D0E7" d="M63.5,426.7c-1.5-4.7-3-9.2-4.4-13.9c2.9-0.9,5.8-1.8,8.7-2.8c1.1-0.4,1.6-0.1,1.9,1
		c1.6,5.2,3.2,10.2,4.9,15.4L63.5,426.7z"/>
</g>
<path fill="#D9E1F1" d="M-78.3,589.5c0.7-0.7,1.3-1.5,2-2.2c0-1.9,0-3.8-0.1-5.6c-2.5,0.9-5.4,0-6.8-2.2c-1.2-1.7-0.7-4.5,1-6.4
	c0.4-0.4,0.8-0.8,1.2-1.1c1.6-1.3,3.1-2.6,4.7-4c0-0.9-0.1-1.8-0.1-2.6c-0.4,0.2-0.8,0.5-1.3,0.7c-2,0.8-4.7,0.2-6.2-1.5
	c-1.4-1.5-1.4-3.4-0.1-5.5c0.7-1.2,1.7-2.1,2.8-2.8c1.7-1.2,3.3-2.4,5-3.6c0-0.6,0-1.2,0-1.8c0-14,0-27.9,0-41.9
	c0-0.8,0.2-1.7-0.5-2.3c-0.2,0-0.4,0.1-0.6,0.2V506h-0.9c0,0,0,0,0,0c-1.8-0.1-3.6-0.4-5.4,0l0,0.1h0c0,0,0,0,0-0.1
	c-0.6,0-1.1,0-1.7,0c-15.5,0-31.1,0-46.6,0c-3.2,0-3.5,0.4-3.5,3.5c0,14.4,0,28.8,0,43.1c0,0.6-0.2,1.2,0.2,1.8
	c0.7-1.3,1.3-2.5,2-3.8c0.2-0.4,0.4-0.9,1.1-0.8c3.8,0.7,6.2,1.9,5.7,6.6c-0.5,5.6-2.7,10.6-5.6,15.3c-1,1.7-2.4,3.2-3.2,5
	c-0.1,0.1-0.2,0.2-0.3,0.4c0,3.9,0,7.8,0,11.7h0v22.4h0c0,1.5,0.1,3.1,0.2,4.6c0.1,1.6,1.3,1.7,2.5,1.7c17.9,0,35.9,0,53.8,0
	c2.2,0,2.7-0.6,2.7-2.8c0-5,0-10,0-15c-3.7-1.2-4.6-2.4-4.1-5.7C-80.2,592.2-79.5,590.7-78.3,589.5z"/>
<g>
	<path fill="#4A4C51" d="M-125.5,528h-2.5v5.8h-1.8v-14.3h4c1.4,0,2.5,0.4,3.2,1.1c0.7,0.7,1.1,1.8,1.1,3.2c0,0.9-0.2,1.6-0.6,2.3
		c-0.4,0.7-0.9,1.2-1.6,1.5l2.8,6.1v0.1h-1.9L-125.5,528z M-128,526.4h2.2c0.8,0,1.3-0.2,1.8-0.7c0.4-0.5,0.7-1.1,0.7-1.9
		c0-1.8-0.8-2.7-2.5-2.7h-2.2V526.4z"/>
	<path fill="#4A4C51" d="M-116.3,533.9c-1.3,0-2.3-0.4-3-1.2c-0.7-0.8-1.1-1.9-1.1-3.5V528c0-1.6,0.3-2.8,1-3.7s1.6-1.3,2.9-1.3
		c1.2,0,2.2,0.4,2.8,1.2c0.6,0.8,0.9,2,0.9,3.7v1.1h-5.9v0.2c0,1.1,0.2,2,0.6,2.5c0.4,0.5,1,0.8,1.8,0.8c0.5,0,1-0.1,1.3-0.3
		c0.4-0.2,0.8-0.5,1.1-0.9l0.9,1.1C-113.6,533.4-114.7,533.9-116.3,533.9z M-116.5,524.4c-0.7,0-1.3,0.2-1.6,0.7
		c-0.3,0.5-0.5,1.3-0.6,2.3h4.2v-0.2c0-1-0.2-1.7-0.5-2.2C-115.3,524.6-115.8,524.4-116.5,524.4z"/>
	<path fill="#4A4C51" d="M-103.6,528.9c0,1.7-0.3,2.9-0.9,3.8c-0.6,0.8-1.5,1.2-2.6,1.2c-1.1,0-1.9-0.4-2.5-1.2v5.1h-1.7v-14.7h1.6
		l0.1,1.2c0.6-0.9,1.4-1.4,2.5-1.4c1.2,0,2,0.4,2.6,1.2c0.6,0.8,0.9,2,0.9,3.6V528.9z M-105.3,528c0-1.2-0.2-2.1-0.5-2.6
		c-0.4-0.6-1-0.8-1.8-0.8c-0.8,0-1.5,0.4-1.9,1.2v5.5c0.4,0.8,1.1,1.2,1.9,1.2c0.8,0,1.4-0.3,1.7-0.8s0.6-1.4,0.6-2.6V528z"/>
	<path fill="#4A4C51" d="M-102.3,527.9c0-1.5,0.4-2.8,1.1-3.7c0.7-0.9,1.7-1.3,3-1.3s2.2,0.4,3,1.3s1.1,2.1,1.2,3.6v1.1
		c0,1.5-0.4,2.7-1.1,3.6c-0.7,0.9-1.7,1.3-3,1.3c-1.2,0-2.2-0.4-3-1.3c-0.7-0.9-1.1-2-1.2-3.5V527.9z M-100.5,528.9
		c0,1.1,0.2,1.9,0.6,2.6c0.4,0.6,1,0.9,1.7,0.9c1.5,0,2.3-1.1,2.4-3.3v-1.2c0-1.1-0.2-1.9-0.6-2.6s-1-0.9-1.7-0.9
		c-0.7,0-1.3,0.3-1.7,0.9c-0.4,0.6-0.6,1.5-0.6,2.6V528.9z"/>
	<path fill="#4A4C51" d="M-88.1,524.8c-0.2,0-0.5-0.1-0.8-0.1c-0.9,0-1.5,0.5-1.9,1.5v7.6h-1.7v-10.6h1.7l0,1.1
		c0.5-0.8,1.1-1.3,2-1.3c0.3,0,0.5,0,0.7,0.1L-88.1,524.8z"/>
	<path fill="#4A4C51" d="M-84.2,520.6v2.6h1.6v1.4h-1.6v6.6c0,0.4,0.1,0.7,0.2,1c0.1,0.2,0.4,0.3,0.7,0.3c0.2,0,0.5,0,0.7-0.1l0,1.5
		c-0.4,0.1-0.8,0.2-1.2,0.2c-0.7,0-1.2-0.2-1.6-0.7c-0.4-0.5-0.5-1.2-0.5-2.1v-6.6h-1.6v-1.4h1.6v-2.6H-84.2z"/>
</g>
<rect x="-130.2" y="540" fill="#4A4C51" width="47.3" height="2.2"/>
<g>
	<g>
		<rect x="-129" y="560.1" fill="#4A4C51" width="4.4" height="38.5"/>
		<rect x="-120.9" y="576.2" fill="#4A4C51" width="4.4" height="22.5"/>
		<rect x="-113.1" y="571.2" fill="#4A4C51" width="4.4" height="27.4"/>
	</g>
	<g>
		<rect x="-104.5" y="578" fill="#4A4C51" width="4.4" height="20.6"/>
		<rect x="-96.4" y="584.4" fill="#4A4C51" width="4.4" height="14.2"/>
		<rect x="-88.6" y="581.3" fill="#4A4C51" width="4.4" height="17.3"/>
	</g>
</g>
<path fill="#5C3713" d="M-94,630.3c-10.8,9.6-22.5,17.6-37.2,20.3c-0.8,0.1-1.4,0.4-1.5,1.3c-0.8,5.1-1.6,10.3-2.5,15.4
	c-3.8-2.5-7.7-5-11.9-6.9c-7.4-3.4-15.2-5.5-23.2-6.4c-1.7-0.2-3.4-0.4-5.1-0.6c2.7-6.9,5.9-13.6,9.3-20.2c0.6-1.2,0.7-2.3,0.2-3.6
	c-1.8-5.1-2.1-10.4-1-15.7c3.5-17.3,11.1-32.7,22.2-46.4c2.4-2.9,5.1-5.6,6.7-9.1c0.5-1.6,1.6-2.8,2.3-4.4c0.6-1.1,1.1-2.3,1.7-3.4
	c0.5-0.9,1.2-1.2,2.2-1.1c3.8,0.5,5.8,2.7,5.5,6.6c-0.3,4.9-1.9,9.4-4.4,13.7c-1.4,2.4-3,4.8-4.5,7.2c-0.2,0.2-0.3,0.5-0.5,0.7
	c-1.5,1.8-1.9,3.9-1.8,6.2c0.1,12.8,0,25.5,0,38.3c0,0.2,0,0.3,0,0.5c0,5.7,1.6,7.3,7.2,7.3c11.2,0,22.4,0,33.6,0
	C-95.8,629.8-94.8,629.6-94,630.3z"/>
<g opacity="0.7">
	<path fill="#F0F1F3" d="M-78.3,506c-0.2,0.5-0.3,0.9-0.6,1.4c-4.4,7.6-8.8,15.3-13.3,22.9c-1.6,2.7-2.9,5.6-4.9,8.1
		c-0.6,0.2-0.4,0.4-0.2,0.7c-1,0.4-1.1,1.4-1.7,2.1c-0.5,0.6-0.8,1.3-0.9,2c0,0.2,0,0.3,0,0.4c0,0,0,0,0,0c-0.7,1.2-1.5,2.5-2.2,3.7
		c-0.7-0.3-1.3,0-1.6,0.6c-0.4,0.6,0.3,0.8,0.6,1.1c0.3-0.4,0.4-1,0.9-1.3c0,0.4,0.2,0.7,0.5,0.9c0.6-0.9,1.1-1.8,1.7-2.6
		c0.6-0.5,1.4-0.9,1-1.9c0.1,0,0.2-0.1,0.2-0.1c0.4-0.6,0.7-1.3,1.1-1.9c0.3-0.5,1.2-0.6,1-1.4c0.2-0.4,0.4-0.7,0.6-1.1
		c0-0.1,0-0.2,0-0.3c0,0,0,0,0,0c0,0,0,0,0,0c0.5-0.9,1.1-1.8,1.6-2.7c4.1-7,8.1-14.1,12.2-21.1c1.8-3,3.2-6.2,5.4-8.9
		C-77.2,506-77.7,505.8-78.3,506z"/>
	<path fill="#F0F1F3" d="M-121.1,576.3c0.3-0.4,0.5-0.9,0.5-1.4c0,0,0,0,0,0c0,0,0,0,0,0c0.1,0,0.2,0,0.3,0c1-0.6,1.5-1.4,1.5-2.6
		c-0.1-0.2-0.2-0.4-0.3-0.6c-0.2-0.3-0.5-0.5-0.3-0.9c0.2-0.4,0.6-0.3,1-0.2c0.2,0.1,0.4,0.1,0.6,0c1.4-1.5,2.6-3.2,2.9-5.4
		c-0.3-0.5-1.2,0.1-1.4-0.7c0-0.2,0-0.4,0.2-0.4c0.7-0.4,0.9,0.5,1.3,0.7c0.1,0,0.1,0,0.1,0.1c1.1-0.5,1.4-1.6,1.8-2.6
		c0-0.2,0-0.3,0-0.5c-0.5-1,0.3-1.2,0.9-1.5c0.8-0.5,1-1.5,1.7-2.1c0.2-0.3,0.4-0.7,0.5-1c0-0.7,0.9-1.1,0.6-1.9
		c-0.2-0.3-0.9-0.4-0.6-1c0.3-0.6,0.9-0.1,1.3-0.2c0.8-0.6,1.2-1.6,1.7-2.4c-0.3-0.9,0.5-1,0.9-1.3c0.2-0.5,0.3-1,0-1.5
		c-0.3-0.4-1-0.7-0.6-1.2c0.5-0.6,0.8,0.3,1.2,0.4c1.1-0.5,1.2-1.7,1.8-2.5c0-0.1,0.1-0.3,0-0.4c-0.1-0.6,0.2-0.9,0.6-1.1
		c0.1-0.1,0.2-0.2,0.3-0.3c0.6-0.7,0.8-1.6,1.4-2.3c0.4-0.8,1.1-1.5,1.2-2.4c-0.6-1-0.1-1.5,0.9-1.6c0.6-0.3,0.7-0.9,1-1.5
		c0-0.1,0-0.2,0-0.3c0,0,0,0,0,0c0,0,0,0,0,0c0-0.1,0-0.2,0.1-0.3c5.2-8.9,10.3-17.8,15.5-26.8c0.5-0.8,0.8-1.7,1.3-2.6
		c-0.9-0.4-1.8-0.1-2.8-0.2c-0.2,0.3-0.5,0.5-0.6,0.8c-4.6,8-9.3,16.1-13.9,24.1c-0.8,1.4-2,2.7-2.2,4.4c-0.1,0-0.2,0-0.3,0
		c-0.9,0.5-1.3,1.3-1.6,2.2c0,0.2,0,0.3,0,0.5c0.3,0.9-0.5,1.1-1,1.5c-0.9,0.9-1.4,2-1.8,3.2c-0.1,0.7-0.7,1-1.2,1.4
		c0.8,0.8,0.6,1.3-0.4,1.6c-0.6,0.8-0.7,1.9-1.7,2.4c-0.4,0.4-0.6,0.8-0.7,1.3c-0.1,0.3-0.2,0.7-0.3,1c0.1,0.5,0.6,0.9,0.3,1.3
		c-0.4,0.6-0.9-0.2-1.3,0c-0.2,1-0.8,1.8-1.4,2.6c-0.2,0.6-0.8,1.1-1,1.7c-0.1,0.3-0.2,0.7-0.4,1c0.1,0.1,0.2,0.2,0.4,0.3
		c0.3,0.2,0.8,0.5,0.5,0.9c-0.3,0.5-0.7,0.1-1-0.1c-0.1-0.1-0.3-0.1-0.5-0.2c-0.8,0.7-0.7,2.1-2,2.4c0.1,0.7,0.8,1.6-0.7,1.6
		c-0.2,1.2-0.8,2.2-1.7,3c-0.5,0-0.5,0.3-0.3,0.6c0.1,0.7-0.6,0.9-1,1.4c0.2,0.3,0.7,0.5,0.5,1c-0.2,0.6-0.8,0.2-1.2,0.4
		c-0.5,1.1-0.6,2.5-2,3c-0.1,0.7-0.6,1.4,0,2c-0.5,0-0.8,0.3-1,0.7c-2.1,3.7-4.2,7.4-6.4,11c-1.9,3.3-3.9,6.6-5.9,10
		c0,1.8,0,3.5,0,5.6c0.4-0.6,0.7-1,1-1.4C-129.9,591.6-125.5,583.9-121.1,576.3z"/>
	<path fill="#F0F1F3" d="M-102.6,550.6C-102.6,550.6-102.6,550.6-102.6,550.6c0.3-0.5,0.5-1,0.8-1.6c-0.5-0.4-0.8,0-1.2,0.3
		c-0.5,0.8-1.1,1.6-1.6,2.4c-0.3,0.9-0.8,1.7-1.6,2.3c-0.5,0.4-0.8,0.9-0.5,1.5c-0.8,0.4-1,1.3-1.5,1.9c-0.3,0.6-0.6,1.2-0.7,1.9
		c-0.9,1.5-1.8,3.1-2.7,4.6c-0.5,0.5-1.2,0.8-1,1.8c-2,3.5-4,7-6,10.6c0,0.1,0,0.3,0,0.4h0c-0.4,0.2-0.6,0.5-0.8,0.8
		c-4.4,7.6-8.9,15.2-13.2,22.8c-1.2,2.1-3.2,4.1-2.7,6.9c0.1-0.1,0.3-0.2,0.3-0.4c4.5-7.8,9.1-15.6,13.6-23.5c1.2-2.1,2.7-4,3.4-6.4
		c0,0,0,0,0,0c0,0,0,0,0,0c0.1-0.1,0.2-0.2,0.3-0.4c0.8-0.2,0.9-1,1.3-1.5c0.6-0.7,0.9-1.5,1.4-2.4c0.4-0.9,1-1.6,1.7-2.4
		c0.3-0.6,0.4-1.2,0.7-1.7c1.9-3.3,3.7-6.5,5.7-9.7c0.6-0.7,0.9-1.5,1.2-2.3c0-0.2,0-0.4-0.1-0.7c0.6-0.4,1-0.9,1.2-1.6
		c0.2-0.9,0.5-1.7,1.3-2.1c0.7,0.2,1.3-0.1,1.5-0.7C-101.7,551.1-102.3,550.9-102.6,550.6z"/>
</g>
<g id="Layer_2">
</g>
<g id="Layer_1_1_">
</g>
</svg>
