<?xml version="1.0" encoding="utf-8"?>
<!-- Generator: Adobe Illustrator 19.0.0, SVG Export Plug-In . SVG Version: 6.00 Build 0)  -->
<svg version="1.1" id="Layer_1" xmlns="http://www.w3.org/2000/svg" xmlns:xlink="http://www.w3.org/1999/xlink" x="0px" y="0px"
	 viewBox="86 -118.7 482.7 594" enable-background="new 86 -118.7 482.7 594" xml:space="preserve">
<rect x="-11.8" y="-174.4" fill="#E9F0F9" width="662.2" height="745"/>
<path fill="#679188" d="M91,598.4c-33.7,25.4-87.5,12.1-104.3,3c-0.1-0.1,109.9-253.4,114.2-266.7c1.3-3.9,1.3-3.9,5.4-3.9
	c0.5,0,1.1,0,1.5,0c4.4,0.6,8.8,0.9,13,1.8c12.8,2.5,24.5,7.3,35,15c2.2,1.3,2.7,3.1,2.1,5.7C155.5,366.4,94.4,585.5,91,598.4z"/>
<path fill="#313337" d="M204.2,304.2c-14.8,0-29.7,0-44.5,0c-5.1,0-7.6-2.5-7.6-7.5c0-16.3,0-32.6-0.1-49.1c0-2.7,1.1-4.7,2.8-6.6
	c0.8,0.9,0.5,2,0.5,3c0,13.2,0,26.5,0,39.6c0,0.9-0.1,2,0.4,2.8c0.4,1.1,1.1,1.4,2.1,1.5c0.7,0,1.4,0,2.1,0c20,0,40,0,59.8,0
	c4.3,0,4.5-0.1,4.5-4.4c0-4.3,0-8.5,0-12.8c0-0.9-0.1-2,0.4-3c0.8-0.9,1.9-1.3,3.1-0.6c0,9.9,0,20,0,29.9c0,4.3-2.5,6.7-6.7,6.7
	C215.6,304.2,209.9,304.2,204.2,304.2z"/>
<path fill="#313337" d="M155.3,214.3c-0.9,1.7-1.7,3.3-3,4.7c0-7.9,0-15.7,0-23.7c0-11.6,0.1-23.3,0-34.9c0-4.4,2.7-7.5,7.3-7.5
	c20.3,0.1,40.7,0.1,61.1,0c5.1,0,7.5,3.3,7.3,7.5c-0.2,7.5,0,14.9,0,22.2c0.4,0.5,0.5,1.1,0.6,1.7c0.1,3,0,5.9,0,8.8
	c0,0.7-0.4,1.3-0.6,1.9c0,5.2,0,10.5,0,15.7c-1.1,1.7-1.9,1.9-3.2,1.1c-0.4-1.1-0.2-2.2-0.2-3.3c0-15.4,0-30.7,0-46.1
	c0-1.3,0-2.5-0.2-3.7c-0.5-0.7-1.1-1.1-1.9-0.9c-2.1-0.1-4.3-0.8-6.4-0.1c-1.2,0.2-2.4,0.1-3.5,0.1c-17.4,0-34.8,0-52.2,0
	c-0.8,0-1.5,0-2.4,0c-1.3,0-2,0.7-2.2,2c-0.2,1.1-0.1,2.1-0.1,3.2c0,14.4,0,28.7,0,43.2C155.6,208.9,155.7,211.6,155.3,214.3z"/>
<path fill="#5C3713" d="M225.1,212.3c0.9-0.5,1.8-1.1,2.7-1.5c3.3-0.4,5.9,0.4,7.2,3.8c1.1,2.8,0.4,5.3-2.1,7.2
	c-1.7,1.2-3.4,2.4-5.1,3.5c-0.6,1.1-1.8,1.8-2.7,2.5c-3,1.9-6.7,1.5-9.1-0.8c-2-2-2.2-4.8-0.4-7.6
	C218.2,216.2,221.5,214.1,225.1,212.3z"/>
<path fill="#5C3713" d="M227.9,228.8c2.8-0.4,5.2,0.2,6.7,2.8c1.7,2.8,1.4,5.7-1.1,7.8c-1.9,1.7-3.8,3.2-5.7,4.8
	c-0.6,1.3-1.8,1.9-2.7,2.7c-3,1.2-6.9-0.1-8.5-2.8c-1.5-2.5-0.6-6.6,2-8.9c2-1.8,4.1-3.4,6.3-5.1
	C225.7,229.7,226.6,228.7,227.9,228.8z"/>
<path fill="#5C3713" d="M227.9,267.5c-0.9,0.1-1.8,0.2-2.7,0.4c-3.4,0.4-5.9-2.5-5.6-6.1c0.4-3.7,2.6-6.1,5.1-8.6
	c0.9-0.7,1.8-1.8,3.2-1.4c3-0.7,5.2,0.2,6.9,2.8c1.4,2.4,1.3,4.6-0.6,6.9C232.4,263.7,230.5,266,227.9,267.5z"/>
<path fill="#5C3713" d="M228,195c0-4.1,0-8.2,0-12.3c3.9,0.8,4.4,3.2,3.7,7C231.2,192,229.9,193.7,228,195z"/>
<path fill="#323437" d="M228,251.7c-0.9,0.6-1.9,1.1-2.8,1.7c-1.2-2.2-0.9-4.5-0.1-6.6c0.9-0.8,1.9-1.5,2.7-2.4
	C227.9,246.7,227.9,249.2,228,251.7z"/>
<path fill="#333437" d="M227.9,228.8c-0.9,0.6-1.8,1.1-2.7,1.7c-0.9-0.9-0.6-2-0.1-3.1c0.9-0.7,1.9-1.3,2.8-2
	C227.9,226.5,227.9,227.7,227.9,228.8z"/>
<path fill="#4A4C51" d="M195.1,296.8c0,2.8-2.4,5.1-5.2,5c-2.7,0-5.1-2.6-5.1-5.2c0.1-2.4,2.8-5.1,5.2-5
	C193,291.6,195.2,294,195.1,296.8z"/>
<g>
	<path fill="#E9C1AC" d="M637,538.4c17.6,55.9-32.8,74.9-58.7,75.4c-3.4-4.7-6.3-9.9-9.3-14.9c-9-14.7-146.6-250.7-155.5-265.4
		c-0.9-1.5-1.1-2.8,0.2-4.3c0.8-0.9,1.5-2,2.2-3c7.2-9.5,16.2-16.8,26.5-22.6c4.6-2.6,9.5-4.7,14.4-6.7c3.1-1.2,3.2-1.2,5.1,1.7
		c10.9,16,22.5,31.6,33.8,47.2c10.8,14.8,130,175.5,140.6,190.4c0.4,0.5,0.7,0.9,0.9,1.5C637.1,538.1,637.1,538.2,637,538.4z"/>
	<path fill="#5C3713" d="M381.1,209.5c3.1,1.8,6.1,3.7,9.3,5.4c6.5,3.5,12.4,7.9,18.1,12.5c7.6,6.1,14.4,13.1,19.9,21.3
		c3.7,5.7,6.6,11.6,7.7,18.3c0.4,2.2,0.7,4.5,0.6,6.9c-0.1,1.2,0.2,1.9,1.1,2.7c6.7,6.6,13.2,13.5,19.2,20.8
		c-5.6,2.4-11.1,4.8-16.4,7.9c-9.3,5.6-17.5,12.5-24.2,21.2c-2-2-2.8-4.8-4.3-7.2c-1.7-3-3.1-5.9-4.5-9c-0.5-0.9-0.9-1.2-2-1.1
		c-6.4,1.1-12.8,0.7-19.2-0.2c-3.9-0.6-7.7-1.3-11.5-2.7c-0.8-1.3-0.6-2.7-0.5-4c0.6-7.5,0.9-14.9,1.5-22.4c0.5-7,0.9-14,1.4-21
		c0.5-7.7,1.2-15.5,1.4-23.2c0-1.1-0.4-1.8-1.1-2.4c-1.9-1.5-3.5-3.2-5.2-4.8c-0.9-0.9-2-1.2-3.2-0.8c-2.1,0.6-4.4,1.1-6.5,1.3
		c-5.6,0.7-10.4-0.6-14.3-4.8c-1.2-1.2-2.2-2.5-3.3-3.9c-0.7-1.1-0.7-2,0.2-3c1.2-1.2,2.6-1.9,3.9-3c0.1-0.1,0.4-0.2,0.5-0.4
		c7.2-3.3,14.8-5.8,22.7-7.1C375.7,206.7,378.6,207.3,381.1,209.5z"/>
	<path fill="#698CC8" d="M348.5,223.8c5.3,5.6,11.8,6,18.7,4c3.2-0.9,5.4-0.7,7.5,2c1.1,1.5,2.7,2.6,4.1,3.9
		c0.6,0.5,0.8,1.1,0.8,1.9c-0.6,7.6-0.9,15.1-1.5,22.7c-0.6,8.9-1.3,17.7-1.9,26.6c-0.4,4.8-0.6,9.7-0.8,14.5
		c-0.1,2.4-0.2,4.7-0.5,7.1c-1.3,3.8-4,5.2-7.9,5.2c-11.5-0.1-23.1-0.1-34.5-0.1c-0.8-0.4-0.9-1.2-0.9-2c-0.1-1.3-0.1-2.6,0.1-3.9
		c0.2-1.9,0.4-3.8,0.2-5.7c-0.2-24.4,0.6-48.7,0.4-73.1c0-0.8,0-1.5,0.2-2.4c0.1-0.2,0.2-0.5,0.5-0.6c0.5-0.4,1.1-0.4,1.7-0.4
		c4.3,0,8.4,0,12.7,0C347.5,223.5,348,223.8,348.5,223.8z"/>
	<path fill="#B3C5E2" d="M381.1,209.5c-4.6-2.8-9.5-1.8-14.2-0.6c-5.4,1.4-10.6,3-15.7,5.4c-0.5,0.2-0.9,0.6-1.4,0.4
		c-0.6,0.4-1.2,0.5-1.9,0.5c-4.4,0-8.9,0-13.2,0c-0.5,0-1.1-0.1-1.5-0.4c-0.7-0.9-0.6-2-0.6-3c0-6.7,0-13.5,0-20.2
		c0-2.6-0.1-2.7-2.8-2.7c-3.1,0-6.1,0-9.2,0c-4.7,0.1-9.3,0-14.1,0c-0.8,0-1.5,0-2.1-0.6c0.7-0.5,1.4-0.2,2.1-0.2
		c23.7,0,47.3,0,71,0c4,0,5.1,1.2,4.8,5.2C381.7,198.6,381.5,204,381.1,209.5z"/>
	<path fill="#86A3D2" d="M332.8,224.1c0,9.7,0.2,19.4-0.1,29.1c-0.5,16.7-0.2,33.3-0.4,49.9c0,2.1-0.5,4.1-0.4,6.3
		c0,0.7,0,1.4,0.4,2.1c-3.7,0-7.3,0-11,0c-0.4-3.2-0.6-6.5-0.6-9.8c-0.1-10.6-0.1-21.4,0-32c0-6.1-0.7-12.3-0.4-18.4
		c-0.1-8-0.1-16-0.1-24c0-1.1-0.1-2.2,0.5-3.2c0.5-0.5,1.2-0.5,1.8-0.5c2.8,0,5.6,0,8.4,0C331.6,223.6,332.3,223.6,332.8,224.1z"/>
	<path fill="#5C3713" d="M303.9,270.7c-5.9-0.9-7.2-5.2-6.5-10.2c0.2-1.8,1.4-3.1,3.5-3.9c-3.5-0.7-5.9-2.5-6.5-5.7
		c-1.3-5.9,1.1-9.8,6.9-9.3c1.4,0.1,2.8,0.6,4.3,0.4c4.1-0.2,8.3-0.2,11.9,2.1c2.6,1.7,3.5,4.3,3.3,7.3c0,1.1-0.1,2.1-0.4,3.1
		c-1.1,3-3,5.1-7.1,3.9c-0.8-0.2-1.5-0.5-2.4-0.5c-0.7-0.4-1.5-0.4-2.4-0.5c0.7,0,1.3,0.1,1.9,0.4c0.8,0.1,1.5,0.1,2.4,0.4
		c1.5,0.4,2.8,0.8,4.1,1.8c5.6,4,3.8,11.7-1.9,13.6c2,1.5,3.8,3.4,4,6c0.2,1.9-0.5,3.7-1.5,5.2c-2,2.8-5,3.4-8.3,1.8
		c-1.5-0.2-3.1-0.6-4.6-0.8c-3.4-0.5-5.8-3.3-6-7.1c-0.2-3.9,1.3-6.3,4.7-7.1c0.8-0.5,1.8-0.1,2.7-0.1c0.5,0,0.9,0.4,1.2,0.4
		c-0.2,0-0.5-0.4-0.9-0.5C305.3,271.3,304.5,271.3,303.9,270.7z"/>
	<path fill="#B3C5E2" d="M304.3,188.3c5.4,0,10.9,0,16.2,0.1c0.7,0.7,0.6,1.7,0.6,2.6c0,7.1,0,14.2,0,21.3c0,0.8,0,1.8-0.5,2.5
		c-0.4,0.5-0.9,0.6-1.4,0.6c-5.1,0-10.1,0.2-15.1-0.1c-0.4-0.1-0.7-0.4-0.8-0.7c-0.6-7.5-1.3-14.8-1.8-22.2
		C301.3,189.5,302,188.8,304.3,188.3z"/>
	<path fill="#698CC8" d="M309.1,286.4c0.5,0,0.9,0,1.4,0.1c3.7,0.6,5.8-0.4,7.3-3.3c1.4-3,0.8-5.9-1.7-8.2c-0.7-0.6-1.4-1.2-2.2-1.9
		c3.3-0.6,5.2-2.5,5.9-5.6c0.7-3.3-0.9-6.3-4.5-8.2c-0.8-0.5-1.7-0.7-2.6-1.1c0-0.4,0-0.6,0.5-0.4c5.1,0.2,6-0.6,7.5-6.6
		c0.1-0.1,0.2-0.2,0.4,0c0.4,17.4,0.2,34.8,0.2,52.3c0,1.9,0.5,3.9,0.4,5.9c0,0.7,0,1.4-0.4,2.1c-2,0-4,0.4-6-0.2
		c-2.7-0.8-4.3-2.7-4.5-5.3c-0.6-5-0.8-10.1-1.3-15C309.3,289.4,309.2,288,309.1,286.4z"/>
	<path fill="#5C3713" d="M305.2,239.6c-2.1-0.8-4.1-1.8-5.8-3.5c-2-2.2-3-4.7-1.9-7.6c1.1-3,3.1-5,6.5-5.2c1.4-0.8,2.7,0.2,3.9,0.6
		c1.7,0.7,3.3,1.2,5,1.9c5.3,2.4,6.9,9.9,3,14.1c-1.8,1.9-4.1,2.7-6.9,1.8C307.7,241.1,306.1,240.9,305.2,239.6z"/>
	<path fill="#8EA8D6" d="M307.8,224.2c-1.3,0-2.5-1.1-3.8-0.9c-0.2-3-0.5-5.9-0.7-8.9c0.1,0.1,0.2,0.2,0.2,0.4c2,0.5,4,0.1,6,0.2
		c3.2,0,6.4,0,9.6,0c1.2,0,1.7,0.5,1.9,1.5c0.4,1.5,0.4,3,0.4,4.5c0,2,0.2,2.2,2.2,2.2c2.1,0,4.1,0,6.3,0c0.8,0,1.7-0.1,2.5,0.4
		c0.2,0.1,0.4,0.4,0.2,0.6l0,0c-3.9,0-7.9,0-11.8,0c-0.4,0.4-0.7,0.6-1.2,0.6C315.7,224.7,311.7,225.2,307.8,224.2z"/>
	<path fill="#698CC8" d="M307.8,224.2c4.4,0,8.8,0,13.1,0c0,9.1,0,18.1,0,27.2c-0.1,0-0.2,0-0.4,0c0.5-4.5-3.4-8.3-8.3-8.6
		c-2.2-0.2-4.5-0.6-6.7-0.8c-0.1-0.7-0.2-1.5-0.2-2.2c0.9,0.4,2,0.7,3,1.1c4.7,1.8,8.5-0.6,9.1-5.6c0.6-4.7-1.2-7.6-5.6-9.3
		C310.4,225.3,309,225.1,307.8,224.2z"/>
	<path fill="#A65525" d="M306.3,271.4c-1.1,0-2.1,0-3.2,0c0.2-0.2,0.5-0.5,0.7-0.7c0.8,0.1,1.5,0.2,2.4,0.4c0.1,0.1,0.1,0.1,0.1,0.2
		C306.4,271.4,306.4,271.4,306.3,271.4z"/>
	<path fill="#8DA7D6" d="M332.8,224.1c0-0.1,0-0.2,0-0.4c-1.2-2.6-0.7-5.2-0.1-7.9c0.1-0.6,0.6-0.9,1.3-0.9
		c5.2,0.1,10.5-0.2,15.7,0.2c-1.2,1.1-2.7,1.8-3.8,3c-0.7,0.7-0.8,1.3-0.1,2.1c1.1,1.2,1.9,2.5,3,3.7c-0.6,0.6-1.4,0.4-2,0.4
		C341.9,224.1,337.2,224.1,332.8,224.1z"/>
	<path fill="#A4B9DD" d="M349.5,215.1c-4.7,0-9.5,0.1-14.2,0c-2.1-0.1-2.6,0.9-2.6,2.6c-0.1,2,0,4,0,6.1c-3.3,0-6.6-0.1-10.1,0
		c-1.5,0-1.9-0.5-1.9-1.9c0-1.8,0.1-3.5-0.2-5.2c-0.2-1.3-0.7-1.5-1.9-1.5c-4.4,0-8.8,0-13.1,0c-0.7,0-1.4,0.2-2-0.4
		c5.7,0,11.2,0,16.9,0c0.1-0.1,0.2-0.2,0.5-0.4c3.9-0.5,7.8-0.5,11.6,0c0.2,0,0.4,0.2,0.5,0.4c5.6,0,11.1,0,16.7,0
		C349.7,214.9,349.7,215,349.5,215.1z"/>
	<path fill="#C3D0E7" d="M333.1,214.7c-4.3,0-8.4,0-12.7,0c0-8.8,0-17.6,0-26.4c3.7,0,7.2,0,10.9,0c1.4,0,1.8,0.5,1.8,1.8
		C333.1,198.2,333.1,206.5,333.1,214.7z"/>
	<path fill="#6780AC" d="M313.1,258.1c-0.1,0.1-0.4,0.2-0.5,0.4c-0.7-0.1-1.5-0.2-2.2-0.4c-0.1-0.1-0.1-0.2,0-0.4c0.1,0,0.2,0,0.2,0
		C311.5,257.7,312.3,257.5,313.1,258.1z"/>
	<path fill="#635C57" d="M310.6,257.6c-0.1,0.1-0.2,0.2-0.4,0.4c-0.7-0.1-1.3-0.2-2-0.5C309.1,257.3,309.9,257,310.6,257.6z"/>
	<path fill="#8B4A20" d="M306.3,271.4c0-0.1,0-0.2,0-0.4c0.5,0.1,0.8,0.4,1.3,0.5C307.1,272,306.6,271.9,306.3,271.4z"/>
</g>
<g>
	<path fill="#698CC8" d="M422.5,72.3c6.7,3.7,13.1,2.1,19-1.9c2.7-1.9,5-2.2,7.7-0.2c1.5,1.1,3.4,1.7,5.2,2.5
		c0.7,0.4,1.2,0.7,1.3,1.5c1.8,7.3,3.7,14.8,5.4,22.1c2.1,8.6,4.1,17.3,6.3,26c1.2,4.7,2.4,9.3,3.5,14.1c0.6,2.2,1.2,4.6,1.8,6.9
		c-0.1,4-2.2,6.1-6,7.3c-11,3.3-22,6.9-33,10.3c-0.9-0.1-1.3-0.8-1.5-1.7c-0.5-1.2-0.9-2.5-1.1-3.8c-0.2-1.9-0.8-3.7-1.4-5.6
		c-7.7-23.2-14.1-46.6-21.6-69.8c-0.2-0.7-0.5-1.5-0.5-2.2c0-0.2,0.1-0.5,0.2-0.7c0.4-0.5,0.9-0.7,1.5-0.8c4-1.3,8-2.6,12.1-3.8
		C421.6,72.3,422,72.3,422.5,72.3z"/>
	<path fill="#B3C5E2" d="M449.4,48.7c-5.3-1.3-9.5,1.2-13.7,3.8c-4.7,3-9.3,6.1-13.4,9.9c-0.4,0.4-0.7,0.8-1.3,0.8
		c-0.5,0.6-0.9,0.8-1.7,1.1c-4.3,1.4-8.4,2.7-12.7,4c-0.5,0.1-1.1,0.2-1.5,0.1c-0.9-0.6-1.2-1.7-1.5-2.7c-2-6.4-4-12.9-6.1-19.3
		c-0.8-2.5-0.9-2.6-3.5-1.8c-3,0.9-5.8,1.9-8.8,2.7c-4.4,1.5-8.9,2.8-13.4,4.3c-0.7,0.2-1.5,0.5-2.2,0c0.5-0.6,1.3-0.7,1.9-0.8
		c22.6-7.1,45.1-14.3,67.6-21.4c3.9-1.2,5.2-0.5,6.1,3.5C446.6,38.2,448.1,43.5,449.4,48.7z"/>
	<path fill="#698CC8" d="M407.6,77.4c3,9.2,6,18.4,8.8,27.8c4.6,16,9.8,31.8,14.8,47.8c0.6,2,0.8,4.1,1.5,6c0.2,0.7,0.4,1.4,0.9,1.9
		c-3.5,1.1-7,2.2-10.5,3.3c-1.3-3-2.5-6-3.5-9.1c-3.3-10.2-6.5-20.3-9.7-30.5c-1.8-5.9-4.4-11.5-5.9-17.5
		c-2.5-7.6-4.8-15.3-7.3-22.8c-0.4-1.1-0.8-2.1-0.5-3.2c0.4-0.6,0.9-0.8,1.5-1.1c2.6-0.8,5.3-1.7,7.9-2.5
		C406.4,77.2,407,77,407.6,77.4z"/>
	<path fill="#5C3713" d="M394.2,130.5c-6,0.8-8.5-2.7-9.3-7.7c-0.4-1.8,0.4-3.3,2.1-4.8c-3.5,0.4-6.4-0.6-7.9-3.4
		c-3-5.2-1.9-9.7,3.8-11c1.4-0.4,2.8-0.4,4.3-0.9c3.9-1.4,7.8-2.7,11.9-1.5c3.1,0.8,4.7,3,5.3,6c0.4,0.9,0.6,2,0.6,3.1
		c-0.1,3.1-1.3,5.7-5.6,5.8c-0.8,0-1.7,0.1-2.4,0.4c-0.8-0.1-1.5,0.1-2.4,0.4c0.6-0.2,1.3-0.4,1.9-0.2c0.8-0.1,1.5-0.4,2.4-0.4
		c1.5-0.1,3-0.1,4.5,0.4c6.5,2.1,7.1,9.9,2.4,13.5c2.5,0.8,4.6,2.1,5.7,4.6c0.7,1.8,0.7,3.5,0.1,5.4c-1.1,3.3-3.7,4.8-7.5,4.3
		c-1.5,0.2-3.1,0.4-4.6,0.6c-3.4,0.6-6.6-1.4-7.9-5c-1.4-3.7-0.6-6.4,2.4-8.2c0.7-0.7,1.7-0.6,2.5-0.9c0.5-0.1,0.9,0,1.2,0
		c-0.2,0.1-0.6-0.2-1.1-0.1C395.7,130.6,395,130.8,394.2,130.5z"/>
	<path fill="#B3C5E2" d="M369.6,51.7c5.2-1.7,10.3-3.2,15.5-4.8c0.9,0.5,1.1,1.4,1.4,2.2c2.1,6.7,4.3,13.5,6.4,20.2
		c0.2,0.8,0.6,1.7,0.4,2.5c-0.2,0.5-0.7,0.8-1.2,0.9c-4.8,1.5-9.6,3.2-14.4,4.5c-0.4,0-0.7-0.1-0.9-0.5c-1.8-4.4-3.7-8.9-5.4-13.2
		c-0.9-2.5-2-5-3-7.3C367.3,53.8,367.6,52.9,369.6,51.7z"/>
	<path fill="#698CC8" d="M403.9,143.8c0.5-0.1,0.8-0.2,1.3-0.4c3.7-0.5,5.4-2.1,5.9-5.4c0.5-3.3-0.9-5.9-4-7.3
		c-0.8-0.4-1.7-0.7-2.7-1.1c3-1.5,4.1-4,3.9-7.1c-0.4-3.3-2.8-5.7-6.7-6.4c-0.9-0.1-1.8-0.1-2.7-0.2c-0.1-0.4-0.1-0.6,0.4-0.5
		c4.8-1.3,5.6-2.4,5.1-8.6c0-0.2,0.1-0.2,0.4-0.1c5.8,16.4,10.9,33.1,16.2,49.7c0.6,1.9,1.7,3.5,2.1,5.4c0.1,0.7,0.5,1.4,0.2,2.1
		c-1.9,0.6-3.8,1.5-5.8,1.5c-2.8,0.1-4.8-1.3-5.9-3.8c-2-4.6-3.9-9.3-5.8-14C405,146.7,404.5,145.2,403.9,143.8z"/>
	<path fill="#5C3713" d="M386.1,100.4c-2.4-0.1-4.5-0.5-6.6-1.7c-2.6-1.5-4.3-3.7-4.1-6.6c0.1-3.2,1.5-5.7,4.6-7
		c1.2-1.2,2.6-0.6,3.9-0.6c1.8,0.2,3.5,0.1,5.3,0.4c5.8,0.6,9.6,7.3,7.1,12.5c-1.2,2.4-3.2,3.9-5.9,3.8
		C388.9,101.1,387.4,101.4,386.1,100.4z"/>
	<path fill="#698CC8" d="M383.8,84.9c-1.3,0.4-2.6-0.2-3.9,0.2c-1.1-2.7-2.2-5.6-3.3-8.3c0.1,0.1,0.2,0.1,0.4,0.2
		c2-0.2,3.9-1.1,5.8-1.7c3.1-0.9,6.1-1.9,9.2-3c1.1-0.4,1.8-0.1,2.2,0.8c0.8,1.3,1.2,2.7,1.7,4.1c0.7,2,0.9,2.1,2.8,1.5
		c2-0.6,4-1.3,6-1.9c0.8-0.2,1.7-0.6,2.5-0.4c0.2,0.1,0.4,0.2,0.4,0.6l0,0c-3.8,1.2-7.6,2.4-11.4,3.5c-0.2,0.4-0.6,0.7-1.1,0.8
		C391.5,83,388,84.7,383.8,84.9z"/>
	<path fill="#698CC8" d="M383.8,84.9c4.1-1.3,8.3-2.6,12.4-4c2.7,8.6,5.4,17.3,8.3,25.9c-0.1,0-0.2,0.1-0.4,0.1
		c-0.9-4.4-5.7-6.9-10.5-5.8c-2.2,0.5-4.5,0.8-6.7,1.3c-0.4-0.7-0.6-1.4-0.9-2c1.1,0,2.1,0.1,3.1,0.1c5,0.2,8-3.1,7.1-8
		c-0.9-4.7-3.3-6.9-8.2-7.2C386.7,85.2,385.3,85.3,383.8,84.9z"/>
	<path fill="#A65525" d="M396.7,130.5c-1.1,0.4-2,0.6-3.1,0.9c0.1-0.4,0.4-0.6,0.5-0.9c0.8-0.1,1.5-0.2,2.4-0.4
		c0.1,0,0.2,0.1,0.2,0.2C396.8,130.3,396.7,130.5,396.7,130.5z"/>
	<path fill="#698CC8" d="M407.6,77.4c0-0.1-0.1-0.2-0.1-0.4c-1.9-2.1-2.2-4.7-2.5-7.5c0-0.6,0.2-1.2,0.9-1.3c5-1.5,9.9-3.4,15-4.6
		c-0.8,1.4-2.1,2.5-2.7,3.9c-0.5,0.9-0.5,1.5,0.5,2.1c1.3,0.8,2.6,1.8,3.9,2.6c-0.4,0.7-1.2,0.7-1.9,0.9
		C416.4,74.6,412,75.9,407.6,77.4z"/>
	<path fill="#698CC8" d="M421,63.6c-4.5,1.4-9,3-13.5,4.3c-2,0.6-2.1,1.8-1.8,3.3c0.6,2,1.2,3.9,1.8,5.8c-3.2,1.1-6.4,1.9-9.6,3.1
		c-1.4,0.5-2,0.1-2.4-1.3c-0.5-1.7-0.9-3.3-1.8-5c-0.6-1.2-1.2-1.3-2.2-0.9c-4.1,1.4-8.4,2.7-12.5,4c-0.7,0.2-1.3,0.7-2,0.2
		c5.3-1.7,10.8-3.4,16.1-5.1c0.1-0.1,0.2-0.4,0.4-0.5c3.5-1.7,7.2-2.8,11.1-3.5c0.2,0,0.4,0.1,0.6,0.1c5.3-1.7,10.5-3.3,15.8-5
		C421,63.4,421,63.5,421,63.6z"/>
	<path fill="#6780AC" d="M399.1,115.6c-0.1,0.1-0.2,0.4-0.4,0.5c-0.8,0.1-1.5,0.2-2.4,0.4c-0.1-0.1-0.2-0.2-0.1-0.4
		c0-0.1,0.1,0,0.2,0C397.6,115.8,398.3,115.3,399.1,115.6z"/>
	<path fill="#635C57" d="M396.7,115.9c-0.1,0.1-0.1,0.2-0.2,0.5c-0.7,0.1-1.4,0.1-2,0.2C395.2,116,395.8,115.6,396.7,115.9z"/>
	<path fill="#8B4A20" d="M396.7,130.5c0-0.1-0.1-0.2-0.1-0.4c0.5,0,0.9,0,1.4,0.1C397.7,130.8,397.2,130.7,396.7,130.5z"/>
	<polyline fill="#698CC8" points="422.3,62.5 417.5,71.7 377.5,79 371.2,63.6 	"/>
	<path fill="#5C3713" d="M449.4,48.7c3.5,0.8,7,1.7,10.5,2.4c7.2,1.4,14.2,3.8,21,6.5c9.1,3.5,17.7,8,25.4,14.3
		c5.2,4.3,9.8,9,12.9,15.1c1.1,2,2.1,4.1,2.6,6.4c0.2,1.2,0.8,1.8,1.9,2.2c8.4,4.3,21.2-7.8,28.3-10.5c-4.6,4,8.8,28.9,4.7,33.3
		c-7.2,8.2-8.6,19.6-10.6,17.7c-2.5-2.2-42.3-0.1-43.3,0.5c-5.8,3-11.9,4.6-18.3,5.6c-3.9,0.6-7.8,1.1-11.7,0.9
		c-1.2-0.9-1.3-2.4-1.7-3.7c-1.7-7.3-3.5-14.5-5.3-21.8c-1.7-6.9-3.3-13.6-5-20.5c-1.9-7.6-3.5-15-5.6-22.5c-0.2-0.9-0.8-1.7-1.8-2
		c-2.2-0.8-4.3-2-6.4-3.1c-1.2-0.6-2.2-0.6-3.3,0.1c-1.9,1.2-3.8,2.4-5.8,3.3c-5.1,2.4-10.2,2.6-15-0.4c-1.4-0.8-3-1.7-4.3-2.7
		c-1.1-0.8-1.2-1.7-0.7-2.8c0.7-1.5,1.9-2.6,2.8-3.9c0.1-0.2,0.2-0.4,0.4-0.5c5.9-5.4,12.3-9.9,19.5-13.6
		C443.3,47.7,446.3,47.4,449.4,48.7z"/>
	<path fill="#DEDA9E" d="M804.5-9c58.5,0.7,61,54.4,53.5,79.2c-5.6,1.8-11.4,2.8-17,4.3c-16.7,4-283.8,61.4-300.6,65.3
		c-1.8,0.5-3,0.1-3.9-1.5c-0.6-1.1-1.4-2-2.1-3.1c-6.7-9.8-10.9-20.6-13.2-32.2c-1.1-5.2-1.5-10.5-1.9-15.8
		c-0.1-3.3-0.1-3.4,3.2-4.4c18.6-5.4,37-11.5,55.3-17.4C595,59.9,784.8-3.5,802.3-9c0.6-0.2,1.1-0.4,1.8-0.4
		C804.2-9.2,804.5-9.2,804.5-9z"/>
	<path fill="#C3D0E7" d="M390.5,63.4c-1.8-5.6-3.5-10.9-5.2-16.4c3.4-1.1,6.9-2.1,10.3-3.3c1.3-0.5,1.9-0.1,2.2,1.2
		c1.9,6.1,3.8,12.1,5.8,18.2L390.5,63.4z"/>
</g>
<path fill="#D9E1F1" d="M222.8,255.9c0.8-0.8,1.5-1.8,2.4-2.6c0-2.2,0-4.5-0.1-6.6c-3,1.1-6.4,0-8-2.6c-1.4-2-0.8-5.3,1.2-7.6
	c0.5-0.5,0.9-0.9,1.4-1.3c1.9-1.5,3.7-3.1,5.6-4.7c0-1.1-0.1-2.1-0.1-3.1c-0.5,0.2-0.9,0.6-1.5,0.8c-2.4,0.9-5.6,0.2-7.3-1.8
	c-1.7-1.8-1.7-4-0.1-6.5c0.8-1.4,2-2.5,3.3-3.3c2-1.4,3.9-2.8,5.9-4.3c0-0.7,0-1.4,0-2.1c0-16.6,0-33,0-49.5c0-0.9,0.2-2-0.6-2.7
	c-0.2,0-0.5,0.1-0.7,0.2v-1.1h-1.1l0,0c-2.1-0.1-4.3-0.5-6.4,0v0.1l0,0c0,0,0,0,0-0.1c-0.7,0-1.3,0-2,0c-18.3,0-36.8,0-55.1,0
	c-3.8,0-4.1,0.5-4.1,4.1c0,17,0,34.1,0,51c0,0.7-0.2,1.4,0.2,2.1c0.8-1.5,1.5-3,2.4-4.5c0.2-0.5,0.5-1.1,1.3-0.9
	c4.5,0.8,7.3,2.2,6.7,7.8c-0.6,6.6-3.2,12.5-6.6,18.1c-1.2,2-2.8,3.8-3.8,5.9c-0.1,0.1-0.2,0.2-0.4,0.5c0,4.6,0,9.2,0,13.8l0,0v26.5
	l0,0c0,1.8,0.1,3.7,0.2,5.4c0.1,1.9,1.5,2,3,2c21.2,0,42.5,0,63.6,0c2.6,0,3.2-0.7,3.2-3.3c0-5.9,0-11.8,0-17.7
	c-4.4-1.4-5.4-2.8-4.8-6.7C220.5,259.1,221.4,257.3,222.8,255.9z"/>
<g>
	<path fill="#4A4C51" d="M167,183.2h-3v6.9h-2.1v-16.9h4.7c1.7,0,3,0.5,3.8,1.3c0.8,0.8,1.3,2.1,1.3,3.8c0,1.1-0.2,1.9-0.7,2.7
		c-0.5,0.8-1.1,1.4-1.9,1.8l3.3,7.2v0.1h-2.2L167,183.2z M164,181.3h2.6c0.9,0,1.5-0.2,2.1-0.8c0.5-0.6,0.8-1.3,0.8-2.2
		c0-2.1-0.9-3.2-3-3.2H164V181.3z"/>
	<path fill="#4A4C51" d="M177.8,190.2c-1.5,0-2.7-0.5-3.5-1.4c-0.8-0.9-1.3-2.2-1.3-4.1v-1.4c0-1.9,0.4-3.3,1.2-4.4
		c0.8-1.1,1.9-1.5,3.4-1.5c1.4,0,2.6,0.5,3.3,1.4c0.7,0.9,1.1,2.4,1.1,4.4v1.3h-7v0.2c0,1.3,0.2,2.4,0.7,3c0.5,0.6,1.2,0.9,2.1,0.9
		c0.6,0,1.2-0.1,1.5-0.4c0.5-0.2,0.9-0.6,1.3-1.1l1.1,1.3C181,189.6,179.7,190.2,177.8,190.2z M177.6,178.9c-0.8,0-1.5,0.2-1.9,0.8
		c-0.4,0.6-0.6,1.5-0.7,2.7h5v-0.2c0-1.2-0.2-2-0.6-2.6C179,179.2,178.4,178.9,177.6,178.9z"/>
	<path fill="#4A4C51" d="M192.9,184.3c0,2-0.4,3.4-1.1,4.5c-0.7,0.9-1.8,1.4-3.1,1.4c-1.3,0-2.2-0.5-3-1.4v6h-2v-17.4h1.9l0.1,1.4
		c0.7-1.1,1.7-1.7,3-1.7c1.4,0,2.4,0.5,3.1,1.4c0.7,0.9,1.1,2.4,1.1,4.3V184.3z M190.8,183.2c0-1.4-0.2-2.5-0.6-3.1
		c-0.5-0.7-1.2-0.9-2.1-0.9c-0.9,0-1.8,0.5-2.2,1.4v6.5c0.5,0.9,1.3,1.4,2.2,1.4c0.9,0,1.7-0.4,2-0.9c0.4-0.6,0.7-1.7,0.7-3.1
		C190.8,184.5,190.8,183.2,190.8,183.2z"/>
	<path fill="#4A4C51" d="M194.4,183.1c0-1.8,0.5-3.3,1.3-4.4c0.8-1.1,2-1.5,3.5-1.5c1.5,0,2.6,0.5,3.5,1.5c0.9,1.1,1.3,2.5,1.4,4.3
		v1.3c0,1.8-0.5,3.2-1.3,4.3c-0.8,1.1-2,1.5-3.5,1.5c-1.4,0-2.6-0.5-3.5-1.5c-0.8-1.1-1.3-2.4-1.4-4.1V183.1z M196.5,184.3
		c0,1.3,0.2,2.2,0.7,3.1c0.5,0.7,1.2,1.1,2,1.1c1.8,0,2.7-1.3,2.8-3.9v-1.4c0-1.3-0.2-2.2-0.7-3.1s-1.2-1.1-2-1.1
		c-0.8,0-1.5,0.4-2,1.1c-0.5,0.7-0.7,1.8-0.7,3.1v1.2H196.5z"/>
	<path fill="#4A4C51" d="M211.2,179.4c-0.2,0-0.6-0.1-0.9-0.1c-1.1,0-1.8,0.6-2.2,1.8v9h-2v-12.5h2v1.3c0.6-0.9,1.3-1.5,2.4-1.5
		c0.4,0,0.6,0,0.8,0.1L211.2,179.4z"/>
	<path fill="#4A4C51" d="M215.8,174.5v3.1h1.9v1.7h-1.9v7.8c0,0.5,0.1,0.8,0.2,1.2c0.1,0.2,0.5,0.4,0.8,0.4c0.2,0,0.6,0,0.8-0.1v1.8
		c-0.5,0.1-0.9,0.2-1.4,0.2c-0.8,0-1.4-0.2-1.9-0.8s-0.6-1.4-0.6-2.5v-7.8h-1.9v-1.7h1.9v-3.1h2V174.5z"/>
</g>
<rect x="161.4" y="197.4" fill="#4A4C51" width="55.9" height="2.6"/>
<g>
	<g>
		<rect x="162.8" y="221.2" fill="#4A4C51" width="5.2" height="45.5"/>
		<rect x="172.4" y="240.2" fill="#4A4C51" width="5.2" height="26.6"/>
		<rect x="181.6" y="234.3" fill="#4A4C51" width="5.2" height="32.4"/>
	</g>
	<g>
		<rect x="191.8" y="242.3" fill="#4A4C51" width="5.2" height="24.4"/>
		<rect x="201.4" y="249.9" fill="#4A4C51" width="5.2" height="16.8"/>
		<rect x="210.6" y="246.2" fill="#4A4C51" width="5.2" height="20.5"/>
	</g>
</g>
<path fill="#5C3713" d="M204.2,304.2c-12.8,11.4-26.6,20.8-44,24c-0.9,0.1-1.7,0.5-1.8,1.5c-0.9,6-1.9,12.2-3,18.2
	c-4.5-3-9.1-5.9-14.1-8.2c-8.8-4-18-6.5-27.4-7.6c-2-0.2-4-0.5-6-0.7c3.2-8.2,7-16.1,11-23.9c0.7-1.4,0.8-2.7,0.2-4.3
	c-2.1-6-2.5-12.3-1.2-18.6c4.1-20.5,13.1-38.7,26.3-54.9c2.8-3.4,6-6.6,7.9-10.8c0.6-1.9,1.9-3.3,2.7-5.2c0.7-1.3,1.3-2.7,2-4
	c0.6-1.1,1.4-1.4,2.6-1.3c4.5,0.6,6.9,3.2,6.5,7.8c-0.4,5.8-2.2,11.1-5.2,16.2c-1.7,2.8-3.5,5.7-5.3,8.5c-0.2,0.2-0.4,0.6-0.6,0.8
	c-1.8,2.1-2.2,4.6-2.1,7.3c0.1,15.1,0,30.2,0,45.3c0,0.2,0,0.4,0,0.6c0,6.7,1.9,8.6,8.5,8.6c13.2,0,26.5,0,39.7,0
	C202.1,303.6,203.3,303.3,204.2,304.2z"/>
<g opacity="0.7">
	<path fill="#F0F1F3" d="M222.8,157.2c-0.2,0.6-0.4,1.1-0.7,1.7c-5.2,9-10.4,18.1-15.7,27.1c-1.9,3.2-3.4,6.6-5.8,9.6
		c-0.7,0.2-0.5,0.5-0.2,0.8c-1.2,0.5-1.3,1.7-2,2.5c-0.6,0.7-0.9,1.5-1.1,2.4c0,0.2,0,0.4,0,0.5l0,0c-0.8,1.4-1.8,3-2.6,4.4
		c-0.8-0.4-1.5,0-1.9,0.7c-0.5,0.7,0.4,0.9,0.7,1.3c0.4-0.5,0.5-1.2,1.1-1.5c0,0.5,0.2,0.8,0.6,1.1c0.7-1.1,1.3-2.1,2-3.1
		c0.7-0.6,1.7-1.1,1.2-2.2c0.1,0,0.2-0.1,0.2-0.1c0.5-0.7,0.8-1.5,1.3-2.2c0.4-0.6,1.4-0.7,1.2-1.7c0.2-0.5,0.5-0.8,0.7-1.3
		c0-0.1,0-0.2,0-0.4l0,0l0,0c0.6-1.1,1.3-2.1,1.9-3.2c4.8-8.3,9.6-16.7,14.4-25c2.1-3.5,3.8-7.3,6.4-10.5
		C224.1,157.2,223.5,156.9,222.8,157.2z"/>
	<path fill="#F0F1F3" d="M172.2,240.3c0.4-0.5,0.6-1.1,0.6-1.7l0,0l0,0c0.1,0,0.2,0,0.4,0c1.2-0.7,1.8-1.7,1.8-3.1
		c-0.1-0.2-0.2-0.5-0.4-0.7c-0.2-0.4-0.6-0.6-0.4-1.1s0.7-0.4,1.2-0.2c0.2,0.1,0.5,0.1,0.7,0c1.7-1.8,3.1-3.8,3.4-6.4
		c-0.4-0.6-1.4,0.1-1.7-0.8c0-0.2,0-0.5,0.2-0.5c0.8-0.5,1.1,0.6,1.5,0.8c0.1,0,0.1,0,0.1,0.1c1.3-0.6,1.7-1.9,2.1-3.1
		c0-0.2,0-0.4,0-0.6c-0.6-1.2,0.4-1.4,1.1-1.8c0.9-0.6,1.2-1.8,2-2.5c0.2-0.4,0.5-0.8,0.6-1.2c0-0.8,1.1-1.3,0.7-2.2
		c-0.2-0.4-1.1-0.5-0.7-1.2s1.1-0.1,1.5-0.2c0.9-0.7,1.4-1.9,2-2.8c-0.4-1.1,0.6-1.2,1.1-1.5c0.2-0.6,0.4-1.2,0-1.8
		c-0.4-0.5-1.2-0.8-0.7-1.4c0.6-0.7,0.9,0.4,1.4,0.5c1.3-0.6,1.4-2,2.1-3c0-0.1,0.1-0.4,0-0.5c-0.1-0.7,0.2-1.1,0.7-1.3
		c0.1-0.1,0.2-0.2,0.4-0.4c0.7-0.8,0.9-1.9,1.7-2.7c0.5-0.9,1.3-1.8,1.4-2.8c-0.7-1.2-0.1-1.8,1.1-1.9c0.7-0.4,0.8-1.1,1.2-1.8
		c0-0.1,0-0.2,0-0.4l0,0l0,0c0-0.1,0-0.2,0.1-0.4c6.1-10.5,12.2-21,18.3-31.7c0.6-0.9,0.9-2,1.5-3.1c-1.1-0.5-2.1-0.1-3.3-0.2
		c-0.2,0.4-0.6,0.6-0.7,0.9c-5.4,9.5-11,19-16.4,28.5c-0.9,1.7-2.4,3.2-2.6,5.2c-0.1,0-0.2,0-0.4,0c-1.1,0.6-1.5,1.5-1.9,2.6
		c0,0.2,0,0.4,0,0.6c0.4,1.1-0.6,1.3-1.2,1.8c-1.1,1.1-1.7,2.4-2.1,3.8c-0.1,0.8-0.8,1.2-1.4,1.7c0.9,0.9,0.7,1.5-0.5,1.9
		c-0.7,0.9-0.8,2.2-2,2.8c-0.5,0.5-0.7,0.9-0.8,1.5c-0.1,0.4-0.2,0.8-0.4,1.2c0.1,0.6,0.7,1.1,0.4,1.5c-0.5,0.7-1.1-0.2-1.5,0
		c-0.2,1.2-0.9,2.1-1.7,3.1c-0.2,0.7-0.9,1.3-1.2,2c-0.1,0.4-0.2,0.8-0.5,1.2c0.1,0.1,0.2,0.2,0.5,0.4c0.4,0.2,0.9,0.6,0.6,1.1
		c-0.4,0.6-0.8,0.1-1.2-0.1c-0.1-0.1-0.4-0.1-0.6-0.2c-0.9,0.8-0.8,2.5-2.4,2.8c0.1,0.8,0.9,1.9-0.8,1.9c-0.2,1.4-0.9,2.6-2,3.5
		c-0.6,0-0.6,0.4-0.4,0.7c0.1,0.8-0.7,1.1-1.2,1.7c0.2,0.4,0.8,0.6,0.6,1.2c-0.2,0.7-0.9,0.2-1.4,0.5c-0.6,1.3-0.7,3-2.4,3.5
		c-0.1,0.8-0.7,1.7,0,2.4c-0.6,0-0.9,0.4-1.2,0.8c-2.5,4.4-5,8.8-7.6,13c-2.2,3.9-4.6,7.8-7,11.8c0,2.1,0,4.1,0,6.6
		c0.5-0.7,0.8-1.2,1.2-1.7C161.8,258.4,167,249.3,172.2,240.3z"/>
	<path fill="#F0F1F3" d="M194,209.9L194,209.9c0.4-0.6,0.6-1.2,0.9-1.9c-0.6-0.5-0.9,0-1.4,0.4c-0.6,0.9-1.3,1.9-1.9,2.8
		c-0.4,1.1-0.9,2-1.9,2.7c-0.6,0.5-0.9,1.1-0.6,1.8c-0.9,0.5-1.2,1.5-1.8,2.2c-0.4,0.7-0.7,1.4-0.8,2.2c-1.1,1.8-2.1,3.7-3.2,5.4
		c-0.6,0.6-1.4,0.9-1.2,2.1c-2.4,4.1-4.7,8.3-7.1,12.5c0,0.1,0,0.4,0,0.5l0,0c-0.5,0.2-0.7,0.6-0.9,0.9c-5.2,9-10.5,18-15.6,27
		c-1.4,2.5-3.8,4.8-3.2,8.2c0.1-0.1,0.4-0.2,0.4-0.5c5.3-9.2,10.8-18.4,16.1-27.8c1.4-2.5,3.2-4.7,4-7.6l0,0l0,0
		c0.1-0.1,0.2-0.2,0.4-0.5c0.9-0.2,1.1-1.2,1.5-1.8c0.7-0.8,1.1-1.8,1.7-2.8c0.5-1.1,1.2-1.9,2-2.8c0.4-0.7,0.5-1.4,0.8-2
		c2.2-3.9,4.4-7.7,6.7-11.5c0.7-0.8,1.1-1.8,1.4-2.7c0-0.2,0-0.5-0.1-0.8c0.7-0.5,1.2-1.1,1.4-1.9c0.2-1.1,0.6-2,1.5-2.5
		c0.8,0.2,1.5-0.1,1.8-0.8C195.1,210.5,194.4,210.3,194,209.9z"/>
</g>
<g id="Layer_2">
</g>
<g id="Layer_1_1_">
</g>
</svg>
