<?xml version="1.0" encoding="utf-8"?>
<!-- Generator: Adobe Illustrator 19.0.0, SVG Export Plug-In . SVG Version: 6.00 Build 0)  -->
<svg version="1.1" xmlns="http://www.w3.org/2000/svg" xmlns:xlink="http://www.w3.org/1999/xlink" x="0px" y="0px"
	 viewBox="85 -75 480 550" enable-background="new 85 -75 480 550" xml:space="preserve">
<g id="Layer_3">
	<rect x="85" y="-75" fill="#D1D6DF" width="480" height="550"/>
</g>
<g id="Layer_1">
	<path id="XMLID_192_" fill="#303236" d="M125.5,106.9c0.9-3.5,3.4-5.7,6.8-6c0.9-0.1,1.8,0,2.7,0c42.4,0,84.8,0,127.2,0
		c2.7,0,5.3,0.1,7.7,2.2c3-9,5.8-17.8,8.7-26.6c1.4-4.2,2.7-8.4,4.1-12.6c0.2-0.7,0.4-1.5,1.2-1.7c1-0.2,1.3,0.7,1.7,1.2
		c1.6,2.3,3,4.7,3.6,7.6c0.3,5.6,0.1,11.3,0.2,16.9c0.1,6-0.2,12.1,0.2,18.1c-0.5,2.8-0.2,5.7-0.2,8.5c0,12.9,0,25.8,0,38.7
		c0,11.8,0,23.5,0,35.3c0,1-0.1,2,0.2,3c-0.4,6.3-0.1,12.6-0.2,18.9c0,2.8,0,5.6,0,8.4c0,15.4,0,30.8,0,46.2c0,8.1,0.1,16.3,0,24.4
		c-0.1,10.4,0.2,20.9-0.1,31.3c-0.6,2.9-2,5.4-3.8,7.7c-1.4,1.7-2,1.6-2.7-0.6c-1.5-4.4-2.8-8.9-4.3-13.3c-2.4-7.5-4.9-15-7.3-22.5
		c-0.7-2.1-1.4-4.3-1-7.1c-3.3,2.9-7,2.3-10.5,2.3c-41.6,0-83.2,0-124.8,0c-1,0-2-0.1-3-0.1c-2-1.8-0.6-3.7-0.1-5.5
		c3.3-0.8,6.3-2.4,9.5-3.7c4.5-1.8,9.1-2.1,13.6-0.2c4.8,2.1,9.9,2.1,15,1.5c3.7-0.4,7.3-0.6,10.8,1.1c1.8,0.9,3.8,0.8,5.7,0.5
		c1.9-0.3,3.7-0.2,5.4,0.5c4.7,1.8,9.8,2.1,14.7,3c1.2,0.2,2.3,0.2,3.5-0.1c5.8-1.4,11.3-3.6,16.9-5.6c1.6-0.5,2.3-1.9,3.1-3.1
		c1.2-0.9,2.5-0.7,3.9-0.7c8,0,16,0,24,0c3.7,0,4.4-0.6,4.4-4.4c0.1-9,0-18,0-27c0-41.1,0-82.2,0-123.3c0-6.9,0-6.9-7-6.9
		c-22.2,0-44.3,0-66.5,0c-4.9,0-5,0.1-5,5.1c0,1.1,0,2.2,0,3.3c0,1.7-0.6,2.9-2.4,3.3c-4.3,0.9-8.6-0.2-12.9-0.4
		c-3.6-0.1-7.1,0-10.6,0.9c-6.1,1.6-11.8,0.8-17.3-2.2c-1-0.6-2.2-0.8-3.2-1.5c-0.9-0.9-0.8-2.2-0.8-3.3c-0.1-2.8-1.3-4.5-4.2-4.9
		c-1.2-0.2-2.4-0.7-3.6-1C124.9,111.2,124.9,111.2,125.5,106.9z"/>
	<path id="XMLID_191_" fill="#284867" d="M125.5,106.9c-0.5,2.9,0.6,4.4,3.6,4.8c1.9,0.3,3.8,1.1,5.7,1.6c1.5,0.4,2.3,1,2.4,2.8
		c0,1.7,0.4,3.4,0.4,5.2c0.7,5.6-0.9,10.9-2.4,16.2c-1.4,5.1-3.6,9.9-5.8,14.6c-2.6,3.5-3,7.5-3,11.8c0.1,26.1,0.1,52.2,0.1,78.3
		c0,1.4,0.2,2.8-0.3,4.2c-0.3,0.4-0.5,0.9-1.1,0.5c0.1-0.7,0.2-1.5,0.2-2.2c0-28.4,0-56.9,0-85.3c0-0.2,0-0.5-0.1-1
		c-1.1,1.3-2.1,0.3-3-0.1c-5.9-2.7-11.5-6.1-17.6-8.3c-10.4-3.7-21.3-5.3-32.2-6.6c-6.1-0.7-12.2-1.4-18.4-2.1
		c-1.6-0.2-2.1-0.6-1.5-2.3c4.9-14.3,9.8-28.7,14.5-43c0.6-1.8,1.2-2,2.9-1.5c17.4,5.1,34.8,10.1,52.2,15.3c2.4,0.7,3.6,0.7,3.2-2.2
		C125.2,107.4,125.4,107.1,125.5,106.9z"/>
	<path id="XMLID_190_" fill="#284867" d="M124.9,247c0.2-0.1,0.5-0.3,0.7-0.4c0.4-0.3,0.8-0.3,1.2,0c3.5,8,5.5,16.3,6,25
		c0.1,2.4,0,4.8,0,7.2c0,1,0,2-0.7,2.8c0.4,1.8-1.2,3.6-0.1,5.3c-1.4,1.4-1.1,3.4-1.6,5.1c-0.3,1-0.7,1.7-1.9,1.9
		c-10.8,1.9-21.2,5.6-32,7.8c-6.4,1.3-12.8,2-19.4,1.8c-2.3-0.1-3.6-0.9-4.4-3.3c-4.9-14.8-10-29.5-15.1-44.2
		c-0.6-1.6-0.8-2.4,1.5-2.6c15.8-1.7,31.6-3.5,47.5-5.2C112.7,247.7,118.8,247.4,124.9,247z"/>
	<path id="XMLID_143_" fill="#494B50" d="M181.1,124.4c1.5-0.4,2.2-1.2,2.1-3c-0.2-2.1,0-4.3,0-6.5c0-1.6,0.8-2.5,2.5-2.5
		c1.8,0,3.5,0,5.3,0c22.6,0,45.2,0,67.8,0c3.8,0,4.6,0.8,4.6,4.5c0,51.5,0,102.9,0,154.4c0,3.5-0.9,4.4-4.4,4.4c-8.7,0-17.3,0-26,0
		c-0.9,0-1.9-0.3-2.6,0.5c-0.9,0.2-1.4-0.3-2-0.8c-2-1.6-4.2-1.9-6.6-1c-7.1,2.7-14.1,1.9-21.1,0c-0.2,0-0.3-0.1-0.5-0.1
		c-0.7-0.3-2-0.4-1.7-1.4c0.2-0.8,1.4-0.8,2.2-0.7c2.3,0.4,4.7,0.2,7,0.5c3.3,0.6,6.4,0,9.2-1.5c5.7-3.2,11.6-6.3,17-10.1
		c0.8-0.5,1.5-1.1,2.1-1.8c1.7-1.7,1.8-2.3,0.2-4.2c-1.9-2.3-1.9-2.8,0.8-4.2c0.8-0.4,1.6-0.8,2.3-1.4c0.9-0.8,1.5-1.8,1.1-3.1
		c-0.4-1.2-1.3-1.9-2.5-2.3c-1.4-0.4-2.8-0.2-4.2,0.1c-1.9,0.4-3.7,0.9-5.5,1.6c-7.9,2.9-16.1,3.2-24.3,4.1
		c-1.2,0.1-2.3,0.1-3.5-0.1c-0.9-0.1-1.7-0.5-1.8-1.5c-0.1-1,0.5-1.5,1.3-1.9c1.2-0.6,2.5-0.9,3.9-0.8c9.6,0.6,18.1-3.3,26.7-6.7
		c0.9-0.4,1.8-0.9,2.5-1.6c2.3-2,1.9-4.2-1-5.4c-1.4-0.6-2.8-0.6-4.2-0.4c-3.1,0.4-6.1,0.8-9.1,1.7c-4.5,1.3-9.2,1.7-13.8,1.6
		c-6.8-0.1-13.6,0.8-20.5,0.6c-1.4,0-2.8-0.1-4.2-0.5c-0.7-0.3-1.4-0.6-1.6-1.4c-0.2-1,0.5-1.5,1.1-2.1c0.3-0.3,0.7-0.5,1.1-0.6
		c6.4-2.9,13-5.2,20.2-5.2c2,0,4-0.3,5.8-1.4c1.2-0.8,2.1-1.8,1.5-3.3c-0.6-1.4-1.8-2-3.3-1.5c-1.7,0.5-3.3,0.2-4.9-0.4
		c-1.8-0.7-3.6-1.3-5.4-1.9c-2.9-1-5.7-1-8.6-0.1c-1.1,0.3-2.3,0.9-3.2-0.4c-0.5-1.4-0.4-2.8-0.4-4.2c0.1-6.2-0.3-12.5,0.2-18.7
		c1-2,2.3-1,3.5-0.3c1,0.7,1.9,1.6,3.1,2c2.4,0.7,3.8-0.5,3.1-2.8c-1.3-3.8-3.1-7.2-7-9c-1.2-0.6-2.8-0.8-2.9-2.7
		c0.2-3.7-0.4-7.5,0.4-11.2c0.7-1.1,1.7-0.8,2.7-0.6c4.6,0.6,9.1,1.9,13.6,3.4c1,0.3,1.9,0.7,2.9,0.8c4.4,0.4,8.5,1.6,12.5,3.2
		c3,1.2,6.2,1.8,9.5,2.3c1.5,0.2,3.1,0.2,3.6-1.7c0.5-1.7-0.7-2.6-2-3.3c-8.9-4.6-17.3-10.1-26.9-13.3c-0.8-0.3-2-0.6-1.6-1.8
		c0.3-1,1.3-1.2,2.2-1.3c2.8-0.2,5.5,0.3,8.1,1c6,1.8,11.8,4.1,17.6,6.5c1.3,0.5,2.6,1.1,4.1,1.2c1.5,0.1,2.9-0.3,3.6-1.8
		c0.7-1.5-0.3-2.5-1.4-3.4c-1.6-1.3-3.4-2.5-5.1-3.7c-0.5-0.4-1.2-0.8-1-1.6c0.2-0.6,0.9-0.7,1.4-0.8c0.6-0.1,1.2-0.2,1.7-0.4
		c1.9-0.8,2.2-2.1,0.8-3.7c-0.7-0.8-1.5-1.4-2.3-2c-4.3-3.4-9.1-5.9-13.7-8.7c-2.8-1.8-6.1-2.3-9.3-2.4c-2.4-0.1-4.8-0.5-7.2-0.7
		c-1-0.1-2.3-0.3-2.3-1.8c0-1.4,0.8-2.2,2.1-2.4c5.1-0.9,10.2-2.5,15.6-1.6c3.1,0.5,6.1-0.3,9.2-0.5c0.9,0,1.7-0.4,1.9-1.4
		c0.2-0.9-0.4-1.6-1.1-2.1c-0.2-0.2-0.4-0.3-0.6-0.4c-6-1.8-11.9-3.9-18.3-2.9c-4.7,0.7-9.4,1.5-14.1,1.9
		C186.3,125.5,183.6,125.6,181.1,124.4z"/>
	<path id="XMLID_142_" fill="#806460" d="M183.1,216.5c0.2,0,0.4,0.1,0.5,0c5.8-2.6,11.2-0.7,16.5,1.5c1.4,0.6,2.9,1.2,4.5,0.3
		c1.9-1,3.2,0.2,4.1,1.7c1,1.6,0.2,3.1-1.1,4.1c-1.6,1.2-3.6,1.9-5.6,1.8c-7.2-0.2-13.9,2-20.4,4.8c-1.1,0.5-2.9,0.8-2.7,2.2
		c0.2,1.6,2.2,1.4,3.3,1.5c4,0,8,0.5,12-0.3c1.3-0.2,2.7-0.2,4-0.1c8.5,0.3,16.9-0.5,25.2-2.7c2.1-0.6,4.4-0.8,6.6-0.8
		c1.7,0,3.1,0.7,4.3,1.8c1.4,1.3,1.5,2.7,0.3,4.2s-2.7,2.4-4.5,3.1c-6.1,2.4-12.2,4.9-18.7,6.1c-2.4,0.5-4.8,0.2-7.2,0.3
		c-1.4,0-2.6,0.3-3.9,0.6c-0.7,0.2-1.5,0.6-1.3,1.5c0.2,0.8,0.9,0.8,1.6,0.9c3.1,0.3,6.1-0.5,9.2-0.6c8.3-0.2,16.1-3,24-5.2
		c1.2-0.3,2.5-0.3,3.7-0.2c1.7,0.1,3,1,3.6,2.6s0.2,2.9-1.2,4c-0.6,0.5-1.2,1.1-2,1.4c-3.3,1.3-3.3,1.4-0.8,4c1.4,1.4,1.5,2.5,0,4
		c-3.8,3.8-8.7,6.1-13.3,8.7c-3.8,2.2-7.3,5-11.9,5.5c-3.4,0.4-6.8-0.4-10.1-0.5c-1,0-2-0.2-3-0.1c2.8,1.4,5.9,1.6,8.8,2.3
		c4.2,1,8.3,0.4,12.2-1c4.1-1.5,7.4-1.1,10.4,2.1c0.2,1.5-0.7,2.2-1.8,2.6c-6.1,2.4-12.3,4.8-18.6,6.2c-3.3,0.8-6.6-0.7-9.8-1.1
		c-2.9-0.3-5.7-1.1-8.4-2.1c-1.4-0.5-2.8-0.7-4.4-0.4c-2.3,0.4-4.6,0.5-6.8-0.7c-3-1.7-6.3-1.3-9.5-1c-5.5,0.7-10.9,0.6-16.2-1.6
		c-4.9-2.1-9.6-1.2-14.2,0.9c-2.6,1.2-5.1,2.9-8.2,2.6c0.6-11.5-1-22.6-5.3-33.3c-0.2-0.5-0.1-1.1-0.2-1.7c2-2.2,4.9-2.6,7.5-3.9
		c3.5-1.7,7.1-3,9.5-6.6c1.1-1.7,3.2-2.6,4.9-3.8c6.6-4.3,12.8-9,20-12.2C173.1,218.1,178.1,217.3,183.1,216.5z"/>
	<path id="XMLID_141_" fill="#806460" d="M182.6,180.9c1.3,1.3,3.2,1.4,4.5,2.5c3,2.2,4.7,5.4,5.9,8.7c0.4,1.3,0.2,2.9-1.1,3.5
		c-1.7,0.8-3.4,0.1-4.8-1c-1.2-1-2.2-2.3-4-2.2c-2.2,0.2-4.1-0.5-5.8-1.8c-4.5-3.5-9.1-6.7-13.9-9.7c-0.6-0.4-1.3-0.8-1.8-1.4
		c-5.2-5.6-10.9-10.7-16.1-16.3c-4.2-4.6-9.2-7.9-14.5-10.8c-0.6-0.3-1.5-0.4-1.9-1.2c1.5-3.6,3-7.1,4.3-10.8
		c2-5.8,3.6-11.7,3.6-17.8c0-0.5,0-1,0.5-1.4c1.4-0.1,2.6,0.5,3.7,1.2c4.7,2.7,9.8,3.8,15.1,2.4c6.4-1.7,12.8-1.3,19.2-0.6
		c1.8,0.2,3.7,0.1,5.5,0.1c7.6,0.9,15-0.7,22.4-1.8c3.6-0.6,7.1,0.2,10.6,1c2.4,0.5,4.8,1.2,7.2,1.9c1.5,0.5,3,1.5,2.7,3.3
		c-0.2,1.9-1.8,2-3.4,2.2c-7.9,0.9-15.9-0.7-23.7,1.8c-1.2,0.4-2.2,0.7-2.1,1.9c0.1,1.2,1.5,1.1,2.4,1.2c3.4,0.4,6.8,0.8,10.1,1
		c4.4,0.3,7.7,3,11.2,5.1c3.9,2.2,7.7,4.5,11,7.7c0.8,0.8,2,1.6,1.4,2.9c-0.6,1.3-1.7,2-3.1,2.3c-0.8,0.2-1.6-0.2-2.5,0.4
		c2,1.4,3.8,2.8,5.7,4.1c1.7,1.2,3.3,2.5,2.3,4.9c-0.7,1.8-3.4,2.6-5.9,1.7c-4.4-1.6-8.6-3.6-13-5c-4.7-1.5-9.3-3.8-14.4-3.5
		c-0.9,0.1-2.4-0.4-2.6,0.8c-0.2,1,1.3,0.9,2.1,1.2c7.4,2.8,14.4,6.4,21.3,10.4c1.9,1.1,4,2.1,6,3.1c1.5,0.7,2,1.9,1.6,3.5
		c-0.4,1.7-1.2,2.6-3.1,2.5c-3.6-0.2-7-1.1-10.4-2.2c-3.8-1.2-7.4-2.9-11.5-3.2c-3.6-0.3-6.9-1.7-10.3-2.8c-3.3-1-6.7-1.2-10-1.9
		c-1,0.2-2-0.3-2.9-0.6c-2.1-0.7-4.1-0.2-6,0.9c-1.2,0.7-1.2,1.3-0.2,2.3c2.6,2.3,5.5,4.3,7.5,7.2
		C182.1,179.5,182.8,180,182.6,180.9z"/>
	<path id="XMLID_140_" fill="#B3C5E3" d="M283.1,71.8c0,82.7,0,165.2,0,247.7c-0.8-0.2-0.8-0.9-1-1.5c-3.1-9.5-6.1-19-9.2-28.5
		c-0.7-2.2-0.6-4.5-0.5-6.7c0.4-8.5,0.2-17,0.2-25.5c0-48,0.1-96.1-0.1-144.1c0-7.3,0.9-14.1,3.5-20.9c2.3-6.2,4.1-12.5,6.2-18.7
		C282.3,73,282.4,72.4,283.1,71.8z"/>
	<path id="XMLID_139_" fill="#303236" d="M129.1,151.4c2.6,0.3,4.6,1.8,6.7,3.2c3.8,2.5,7.3,5.3,10.5,8.7
		c5.1,5.4,10.3,10.6,15.6,15.7c4.1,3.9,9.6,6.2,13.9,10c2.1,1.8,4.6,2.7,7.2,3.6c0,8,0,16,0,24c-2.5,1.2-5.2,1.8-7.9,2.2
		c-5.9,1-10.9,4-15.7,7.2c-4.7,3.1-9.4,6.3-14.1,9.4c-0.4,0.3-1,0.5-1.2,0.9c-3,5.3-8.8,6.2-13.5,8.7c-1.3,0.7-2.8,1.1-4.1,1.7
		c-0.3,0-0.7,0-1,0c0-29.3,0-58.5,0-87.8C125.5,155.7,127.7,153.7,129.1,151.4z"/>
	<path id="XMLID_133_" fill="#303236" d="M182.6,180.9c-2.6-3.6-5.9-6.5-9.4-9.2c-1.5-1.1-1.4-1.8,0.3-2.9c3.3-2,6.4-1.8,9.6,0.1
		c0,3.2,0,6.4,0,9.7C183.1,179.4,183.4,180.3,182.6,180.9z"/>
	<path id="XMLID_132_" fill="#504E52" d="M220.1,259.3c-6.8,2.3-13.8,2.4-20.9,2.6C206.2,261.2,213.1,260.1,220.1,259.3z"/>
</g>
<g id="Layer_2">
	<polyline fill="none" stroke="#365996" stroke-width="1.5" stroke-miterlimit="10" points="290,80 345,80 350,85 370,85 385,70 
		435,70 	"/>
	<polyline fill="none" stroke="#365996" stroke-width="1.5" stroke-miterlimit="10" points="290,85 340,85 350,95 380,95 395,80 
		455,80 	"/>
	<polyline fill="none" stroke="#365996" stroke-width="1.5" stroke-miterlimit="10" points="395,95 415,95 425,105 470,105 	"/>
	<polyline fill="none" stroke="#365996" stroke-width="1.5" stroke-miterlimit="10" points="290,100 335,100 350,115 415,115 	"/>
	<polyline fill="none" stroke="#365996" stroke-width="1.5" stroke-miterlimit="10" points="290,105 325,105 345,125 435,125 	"/>
	<polyline fill="none" stroke="#365996" stroke-width="1.5" stroke-miterlimit="10" points="290,125 330,125 345,140 390,140 	"/>
	<polyline fill="none" stroke="#365996" stroke-width="1.5" stroke-miterlimit="10" points="395,150 420,150 430,140 475,140 	"/>
	<polyline fill="none" stroke="#365996" stroke-width="1.5" stroke-miterlimit="10" points="410,160 390,160 400,170 415,170 	"/>
	<polyline fill="none" stroke="#365996" stroke-width="1.5" stroke-miterlimit="10" points="290,160 310,160 320,150 370,150 	"/>
	<path fill="none" stroke="#365996" stroke-width="1.5" stroke-miterlimit="10" d="M290,170c0.8-0.5,90,0,90,0l15,15h25"/>
	<polyline fill="none" stroke="#365996" stroke-width="1.5" stroke-miterlimit="10" points="290,190 390,190 400,200 425,200 
		440,185 490,185 	"/>
	<polyline fill="none" stroke="#365996" stroke-width="1.5" stroke-miterlimit="10" points="290,200 385,200 395,210 435,210 
		450,195 510,195 	"/>
	<polyline fill="none" stroke="#365996" stroke-width="1.5" stroke-miterlimit="10" points="455,210 475,210 485,220 525,220 	"/>
	<polyline fill="none" stroke="#365996" stroke-width="1.5" stroke-miterlimit="10" points="290,210 385,210 400,225 470,225 	"/>
	<polyline fill="none" stroke="#365996" stroke-width="1.5" stroke-miterlimit="10" points="290,220 375,220 390,235 490,235 	"/>
	<polyline fill="none" stroke="#365996" stroke-width="1.5" stroke-miterlimit="10" points="290,235 375,235 395,255 450,255 	"/>
	<polyline fill="none" stroke="#365996" stroke-width="1.5" stroke-miterlimit="10" points="290,265 310,265 325,250 370,250 	"/>
	<polyline fill="none" stroke="#365996" stroke-width="1.5" stroke-miterlimit="10" points="290,285 305,285 325,265 415,265 	"/>
	<polyline fill="none" stroke="#365996" stroke-width="1.5" stroke-miterlimit="10" points="290,290 320,290 335,275 395,275 	"/>
	<polyline fill="none" stroke="#365996" stroke-width="1.5" stroke-miterlimit="10" points="290,300 325,300 330,295 355,295 
		370,310 435,310 	"/>
	<polyline fill="none" stroke="#365996" stroke-width="1.5" stroke-miterlimit="10" points="290,310 325,310 330,305 350,305 
		365,320 415,320 	"/>
	<circle fill="#3A5D98" cx="435" cy="70" r="2.5"/>
	<circle fill="#3A5D98" cx="455" cy="80" r="2.5"/>
	<circle fill="#3A5D98" cx="470" cy="105" r="2.5"/>
	<circle fill="#3A5D98" cx="415" cy="115" r="2.5"/>
	<circle fill="#3A5D98" cx="435" cy="125" r="2.5"/>
	<circle fill="#3A5D98" cx="475" cy="140" r="2.5"/>
	<circle fill="#3A5D98" cx="370" cy="150" r="2.5"/>
	<circle fill="#3A5D98" cx="410" cy="160" r="2.5"/>
	<circle fill="#3A5D98" cx="415" cy="170" r="2.5"/>
	<circle fill="#3A5D98" cx="490" cy="185" r="2.5"/>
	<circle fill="#3A5D98" cx="510" cy="195" r="2.5"/>
	<circle fill="#3A5D98" cx="525" cy="220" r="2.5"/>
	<circle fill="#3A5D98" cx="470" cy="225" r="2.5"/>
	<circle fill="#3A5D98" cx="490" cy="235" r="2.5"/>
	<circle fill="#3A5D98" cx="450" cy="255" r="2.5"/>
	<circle fill="#3A5D98" cx="415" cy="265" r="2.5"/>
	<circle fill="#3A5D98" cx="435" cy="310" r="2.5"/>
	<circle fill="#3A5D98" cx="415" cy="320" r="2.5"/>
	<circle fill="#3A5D98" cx="390" cy="140" r="2.5"/>
	<circle fill="#3A5D98" cx="390" cy="150" r="2.5"/>
	<circle fill="#3A5D98" cx="390" cy="95" r="2.5"/>
	<circle fill="#3A5D98" cx="450" cy="210" r="2.5"/>
	<circle fill="#3A5D98" cx="370" cy="250" r="2.5"/>
	<circle fill="#3A5D98" cx="370" cy="295" r="2.5"/>
	<circle fill="#3A5D98" cx="395" cy="275" r="2.5"/>
	<circle fill="#3A5D98" cx="450" cy="285" r="2.5"/>
	<g>
		<circle fill="#365996" cx="13.7" cy="249.9" r="4"/>
		<path fill="none" stroke="#365996" stroke-width="1.5" stroke-miterlimit="10" d="M-35,110c0,0,49,53.7,49.2,134.2"/>
	</g>
	<polyline fill="none" stroke="#365996" stroke-width="1.5" stroke-miterlimit="10" points="450,285 410,285 400,295 375,295 	"/>
</g>
</svg>
