<?xml version="1.0" encoding="utf-8"?>
<!-- Generator: Adobe Illustrator 19.0.0, SVG Export Plug-In . SVG Version: 6.00 Build 0)  -->
<svg version="1.1" id="Layer_1" xmlns="http://www.w3.org/2000/svg" xmlns:xlink="http://www.w3.org/1999/xlink" x="0px" y="0px"
	 viewBox="-724 266 480 550" enable-background="new -724 266 480 550" xml:space="preserve">
<g id="Layer_3">
	<rect x="-724" y="266" fill="#D1D6DF" width="480" height="550"/>
</g>
<g id="Layer_2">
	<polyline fill="none" stroke="#365996" stroke-width="1.5" stroke-miterlimit="10" points="-465,446.5 -416.4,446.5 -412,450.9 
		-394.4,450.9 -381.1,437.6 -337,437.6 	"/>
	<polyline fill="none" stroke="#365996" stroke-width="1.5" stroke-miterlimit="10" points="-465,450.9 -420.9,450.9 -412,459.7 
		-385.5,459.7 -372.3,446.5 -319.3,446.5 	"/>
	<polyline fill="none" stroke="#365996" stroke-width="1.5" stroke-miterlimit="10" points="-372.3,459.7 -354.6,459.7 
		-345.8,468.5 -306.1,468.5 	"/>
	<polyline fill="none" stroke="#365996" stroke-width="1.5" stroke-miterlimit="10" points="-465,464.1 -425.3,464.1 -412,477.4 
		-354.6,477.4 	"/>
	<polyline fill="none" stroke="#365996" stroke-width="1.5" stroke-miterlimit="10" points="-465,468.5 -434.1,468.5 -416.4,486.2 
		-337,486.2 	"/>
	<polyline fill="none" stroke="#365996" stroke-width="1.5" stroke-miterlimit="10" points="-465,486.2 -429.7,486.2 -416.4,499.4 
		-376.7,499.4 	"/>
	<polyline fill="none" stroke="#365996" stroke-width="1.5" stroke-miterlimit="10" points="-372.3,508.3 -350.2,508.3 
		-341.4,499.4 -301.7,499.4 	"/>
	<polyline fill="none" stroke="#365996" stroke-width="1.5" stroke-miterlimit="10" points="-359.1,517.1 -376.7,517.1 
		-367.9,525.9 -354.6,525.9 	"/>
	<polyline fill="none" stroke="#365996" stroke-width="1.5" stroke-miterlimit="10" points="-465,517.1 -447.3,517.1 -438.5,508.3 
		-394.4,508.3 	"/>
	<path fill="none" stroke="#365996" stroke-width="1.5" stroke-miterlimit="10" d="M-465,525.9c0.7-0.4,79.5,0,79.5,0l13.2,13.2
		h22.1"/>
	<polyline fill="none" stroke="#365996" stroke-width="1.5" stroke-miterlimit="10" points="-465,543.6 -376.7,543.6 -367.9,552.4 
		-345.8,552.4 -332.6,539.2 -288.4,539.2 	"/>
	<polyline fill="none" stroke="#365996" stroke-width="1.5" stroke-miterlimit="10" points="-465,552.4 -381.1,552.4 -372.3,561.2 
		-337,561.2 -323.8,548 -270.8,548 	"/>
	<polyline fill="none" stroke="#365996" stroke-width="1.5" stroke-miterlimit="10" points="-319.3,561.2 -301.7,561.2 
		-292.9,570.1 -257.5,570.1 	"/>
	<polyline fill="none" stroke="#365996" stroke-width="1.5" stroke-miterlimit="10" points="-465,561.2 -381.1,561.2 -367.9,574.5 
		-306.1,574.5 	"/>
	<polyline fill="none" stroke="#365996" stroke-width="1.5" stroke-miterlimit="10" points="-465,570.1 -390,570.1 -376.7,583.3 
		-288.4,583.3 	"/>
	<polyline fill="none" stroke="#365996" stroke-width="1.5" stroke-miterlimit="10" points="-465,583.3 -390,583.3 -372.3,601 
		-323.8,601 	"/>
	<polyline fill="none" stroke="#365996" stroke-width="1.5" stroke-miterlimit="10" points="-465,609.8 -447.3,609.8 -434.1,596.6 
		-394.4,596.6 	"/>
	<polyline fill="none" stroke="#365996" stroke-width="1.5" stroke-miterlimit="10" points="-465,627.5 -451.8,627.5 -434.1,609.8 
		-354.6,609.8 	"/>
	<polyline fill="none" stroke="#365996" stroke-width="1.5" stroke-miterlimit="10" points="-465,631.9 -438.5,631.9 -425.3,618.6 
		-372.3,618.6 	"/>
	<polyline fill="none" stroke="#365996" stroke-width="1.5" stroke-miterlimit="10" points="-465,640.7 -434.1,640.7 -429.7,636.3 
		-407.6,636.3 -394.4,649.5 -337,649.5 	"/>
	<polyline fill="none" stroke="#365996" stroke-width="1.5" stroke-miterlimit="10" points="-465,649.5 -434.1,649.5 -429.7,645.1 
		-412,645.1 -398.8,658.4 -354.6,658.4 	"/>
	<circle fill="#3A5D98" cx="-337" cy="437.6" r="2.2"/>
	<circle fill="#3A5D98" cx="-319.3" cy="446.5" r="2.2"/>
	<circle fill="#3A5D98" cx="-306.1" cy="468.5" r="2.2"/>
	<circle fill="#3A5D98" cx="-354.6" cy="477.4" r="2.2"/>
	<circle fill="#3A5D98" cx="-337" cy="486.2" r="2.2"/>
	<circle fill="#3A5D98" cx="-301.7" cy="499.4" r="2.2"/>
	<circle fill="#3A5D98" cx="-394.4" cy="508.3" r="2.2"/>
	<circle fill="#3A5D98" cx="-359.1" cy="517.1" r="2.2"/>
	<circle fill="#3A5D98" cx="-354.6" cy="525.9" r="2.2"/>
	<circle fill="#3A5D98" cx="-288.4" cy="539.2" r="2.2"/>
	<circle fill="#3A5D98" cx="-270.8" cy="548" r="2.2"/>
	<circle fill="#3A5D98" cx="-257.5" cy="570.1" r="2.2"/>
	<circle fill="#3A5D98" cx="-306.1" cy="574.5" r="2.2"/>
	<circle fill="#3A5D98" cx="-288.4" cy="583.3" r="2.2"/>
	<circle fill="#3A5D98" cx="-323.8" cy="601" r="2.2"/>
	<circle fill="#3A5D98" cx="-354.6" cy="609.8" r="2.2"/>
	<circle fill="#3A5D98" cx="-337" cy="649.5" r="2.2"/>
	<circle fill="#3A5D98" cx="-354.6" cy="658.4" r="2.2"/>
	<circle fill="#3A5D98" cx="-376.7" cy="499.4" r="2.2"/>
	<circle fill="#3A5D98" cx="-376.7" cy="508.3" r="2.2"/>
	<circle fill="#3A5D98" cx="-376.7" cy="459.7" r="2.2"/>
	<circle fill="#3A5D98" cx="-323.8" cy="561.2" r="2.2"/>
	<circle fill="#3A5D98" cx="-394.4" cy="596.6" r="2.2"/>
	<circle fill="#3A5D98" cx="-394.4" cy="636.3" r="2.2"/>
	<circle fill="#3A5D98" cx="-372.3" cy="618.6" r="2.2"/>
	<circle fill="#3A5D98" cx="-323.8" cy="627.5" r="2.2"/>
	<polyline fill="none" stroke="#365996" stroke-width="1.5" stroke-miterlimit="10" points="-323.8,627.5 -359.1,627.5 
		-367.9,636.3 -390,636.3 	"/>
</g>
<g id="XMLID_2_">
	<g id="XMLID_42_" transform="matrix(1,0,0,1,0,85.6918)">
		<g>
			<path id="XMLID_12_" fill="#404040" d="M-448.7,346.1c0-3.6-2.9-6.5-6.5-6.5l-180.6-0.3c-3.6,0-6.5,2.9-6.5,6.5l-0.4,232.5
				c0,3.6,2.9,6.5,6.5,6.5l180.6,0.3c3.6,0,6.5-2.9,6.5-6.5L-448.7,346.1z"/>
		</g>
	</g>
	<g id="XMLID_47_">
		<g>
			<g id="XMLID_32_" transform="matrix(0.569106,0,0,0.902439,272.358,130.277)">
				<path id="XMLID_33_" fill="#4D4D4D" d="M-1283.7,345.8c0-3.1-3.9-5.6-8.8-5.6l-175.9-0.2c-4.9,0-8.8,2.5-8.8,5.6l-0.6,234.4
					c0,3.1,3.9,5.6,8.8,5.6l175.9,0.2c4.9,0,8.8-2.5,8.8-5.6L-1283.7,345.8z"/>
			</g>
			
				<rect id="XMLID_31_" x="-631" y="519.2" transform="matrix(1 1.738214e-003 -1.738214e-003 1 0.9549 1.0578)" fill="#666666" width="45.7" height="61.3"/>
		</g>
	</g>
	<path id="XMLID_15_" fill="#8E5B49" d="M-640.5,578.9l19.9-12.7l14.7-12.6l0-0.2c0.5-2-0.4-4.2-2.3-5.1l0,0c-1.4-0.7-3-0.8-4.3-0.1
		l-28.4,15.5c-3.2,1.6-6.6,3-10,4.2l-13.9,4.6c0,0,20.4-25.9,5.9-31.2c0,0-7.1,15-17.5,20.3s-29.5,17.1-31.7,35l-32.9,4.8l13.9,33.3
		c0,0,29.4-7.9,34.8-6.9c0,0,7,4.3,22.5,0c15.5-4.3,27.9-9.8,27.9-9.8l14.9-2.2c5.2-0.8,10.2-2.1,15-4l6.4-3l-0.1-1.5
		c-0.2-2.3-2.3-4.1-4.5-3.6l-4.4,0c-1.1,0.2-2.2,0.5-3.2,0.8h0c-1.8,0.6-3.6,1-5.5,1.2l-17.4,1.9l6.9-2.8c11.8-4.9,17-8.9,27.7-15.9
		l10.2-6.7l0,0c0.1-1.2-0.4-2.4-1.4-3.1l-0.5-0.4c-1.5-1.2-3.4-1.5-5.1-0.8l-5.9,2.7l-10.4,5.2l-18.6,6.8l5.9-2.4
		c12.6-5.1,24.3-12.3,34.6-21.1l2.7-2.3l0,0c-0.4-1.4-1.4-2.6-2.7-3.1l-2.1-0.8c-0.9-0.4-1.9-0.3-2.7,0.1l-17.5,10.2
		c-1.4,0.7-2.9,1.3-4.5,1.7l-15.9,3.8"/>
	<path id="XMLID_418_" fill="#404040" d="M-411.5,375.7c0-2.6-2.5-4.5-4.9-3.5c-0.4,0.2-0.7,0.4-0.8,0.7l-29.8,50.7
		c-1.3,2.2-2,4.7-2,7.2l-0.4,234c0,2.5,0.7,5,1.9,7.1l29.7,51.4c0.1,0.3,0.5,0.4,1.1,0.4c2.6,0.1,4.7-2.1,4.7-4.8L-411.5,375.7z"/>
	<g id="XMLID_45_" transform="matrix(9.24649e-17,-1.51007,0.578947,3.54503e-17,530.579,1341.13)">
		<g>
			<path id="XMLID_11_" fill="#C5D5EF" d="M419.6-1642.7l27.7-42.2l156.3,0.7l27.3,42.4c0.4,0.6,0.2,2.3-0.2,2.3l-210.7-1
				C419.3-1640.4,419.2-1642.1,419.6-1642.7z"/>
		</g>
	</g>
	<path id="XMLID_344_" fill="#679188" d="M-909.4,649.1c-19.5,26.9-8.2,69.1-0.7,82.2c0.1,0.1,197.9-90.3,208.2-94
		c3-1.1,3.1-1.1,3-4.3c0-0.4,0-0.8-0.1-1.2c-0.5-3.4-0.9-6.9-1.6-10.2c-2.2-10-6.2-19.1-12.3-27.3c-1.1-1.8-2.5-2.1-4.5-1.6
		C-727.7,594.8-899.2,646.3-909.4,649.1z"/>
	<path id="XMLID_23_" fill="#8E5B49" d="M-532.9,505l15.2,5.9c1.5,0.6,2.9,1.3,4.2,2.2l16,12.5c0.8,0.5,1.7,0.7,2.7,0.5l2.2-0.6
		c1.4-0.3,2.5-1.4,3.1-2.7l0,0l-2.4-2.7c-9.1-10.1-19.7-18.8-31.5-25.5l-5.5-3.2l17.5,9.2l9.6,6.6l5.5,3.5c1.6,0.9,3.5,0.8,5.2-0.1
		l0.5-0.3c1-0.6,1.7-1.7,1.8-2.9l0,0l-9.2-8c-9.7-8.4-14.2-13-25.3-19.4l-6.4-3.7l14.9,3.3l4.9,5c1.2,1.2,2.9,1.9,4.6,1.9h0
		c1.9,0,3.5-1.4,3.7-3.3l0,0l-11.4-12.1l-16.4-5.5c0,0-11.6-7.1-26.4-13.4c-14.8-6.3-22.3-3-22.3-3c-5.5,0.3-33.6-11.5-33.6-11.5
		l-18.2,31.1l31.9,9.1c-0.2,18.1,17.1,32.2,26.7,38.9c9.6,6.7,14.6,22.5,14.6,22.5c8.7-1.9,6.8-12.2,3.6-20.6
		c-2.3-6.1-5.3-11.2-5.3-11.2l13.2,6.4c3.3,1.6,6.4,3.4,9.4,5.5l26.1,19.2c1.2,0.8,2.8,1,4.3,0.5l0,0c2-0.7,3.2-2.7,2.9-4.8l0-0.2
		l-12.8-14.4l-18-15.2"/>
	<path id="XMLID_48_" fill="#679188" d="M-793.1,353.5c-43-4-48.9,35.2-45.2,54c4,1.7,8.1,3,12.2,4.4
		c11.9,4.2,203.3,66.7,215.2,70.9c1.3,0.5,2.2,0.3,3-0.8c0.5-0.7,1.2-1.4,1.8-2.1c5.7-6.6,9.6-14.2,12.1-22.6
		c1.2-3.7,1.9-7.6,2.6-11.4c0.3-2.4,0.3-2.5-2-3.4c-13.2-5.4-26.2-11.3-39.3-17c-12.3-5.4-146.6-66.3-158.9-71.7
		c-0.4-0.2-0.8-0.4-1.2-0.4C-792.9,353.3-793,353.4-793.1,353.5z"/>
</g>
</svg>
