<?xml version="1.0" encoding="utf-8"?>
<!-- Generator: Adobe Illustrator 19.0.0, SVG Export Plug-In . SVG Version: 6.00 Build 0)  -->
<svg version="1.1" id="Layer_1" xmlns="http://www.w3.org/2000/svg" xmlns:xlink="http://www.w3.org/1999/xlink" x="0px" y="0px"
	 viewBox="0 0 480 460" enable-background="new 0 0 480 460" xml:space="preserve">
<rect id="XMLID_3_" x="0" y="0" fill="#E8EFF8" width="478.5" height="460"/>
<path id="XMLID_192_" fill="#303236" d="M40.5,136.9c0.9-3.5,3.4-5.7,6.8-6c0.9-0.1,1.8,0,2.7,0c42.4,0,84.8,0,127.2,0
	c2.7,0,5.3,0.1,7.7,2.2c3-9,5.8-17.8,8.7-26.6c1.4-4.2,2.7-8.4,4.1-12.6c0.2-0.7,0.4-1.5,1.2-1.7c1-0.2,1.3,0.7,1.7,1.2
	c1.6,2.3,3,4.7,3.6,7.6c0.3,5.6,0.1,11.3,0.2,16.9c0.1,6-0.2,12.1,0.2,18.1c-0.5,2.8-0.2,5.7-0.2,8.5c0,12.9,0,25.8,0,38.7
	c0,11.8,0,23.5,0,35.3c0,1-0.1,2,0.2,3c-0.4,6.3-0.1,12.6-0.2,18.9c0,2.8,0,5.6,0,8.4c0,15.4,0,30.8,0,46.2c0,8.1,0.1,16.3,0,24.4
	c-0.1,10.4,0.2,20.9-0.1,31.3c-0.6,2.9-2,5.4-3.8,7.7c-1.4,1.7-2,1.6-2.7-0.6c-1.5-4.4-2.8-8.9-4.3-13.3c-2.4-7.5-4.9-15-7.3-22.5
	c-0.7-2.1-1.4-4.3-1-7.1c-3.3,2.9-7,2.3-10.5,2.3c-41.6,0-83.2,0-124.8,0c-1,0-2-0.1-3-0.1c-2-1.8-0.6-3.7-0.1-5.5
	c3.3-0.8,6.3-2.4,9.5-3.7c4.5-1.8,9.1-2.1,13.6-0.2c4.8,2.1,9.9,2.1,15,1.5c3.7-0.4,7.3-0.6,10.8,1.1c1.8,0.9,3.8,0.8,5.7,0.5
	c1.9-0.3,3.7-0.2,5.4,0.5c4.7,1.8,9.8,2.1,14.7,3c1.2,0.2,2.3,0.2,3.5-0.1c5.8-1.4,11.3-3.6,16.9-5.6c1.6-0.5,2.3-1.9,3.1-3.1
	c1.2-0.9,2.5-0.7,3.9-0.7c8,0,16,0,24,0c3.7,0,4.4-0.6,4.4-4.4c0.1-9,0-18,0-27c0-41.1,0-82.2,0-123.3c0-6.9,0-6.9-7-6.9
	c-22.2,0-44.3,0-66.5,0c-4.9,0-5,0.1-5,5.1c0,1.1,0,2.2,0,3.3c0,1.7-0.6,2.9-2.4,3.3c-4.3,0.9-8.6-0.2-12.9-0.4
	c-3.6-0.1-7.1,0-10.6,0.9c-6.1,1.6-11.8,0.8-17.3-2.2c-1-0.6-2.2-0.8-3.2-1.5c-0.9-0.9-0.8-2.2-0.8-3.3c-0.1-2.8-1.3-4.5-4.2-4.9
	c-1.2-0.2-2.4-0.7-3.6-1C39.9,141.2,39.9,141.2,40.5,136.9z"/>
<path id="XMLID_191_" fill="#284867" d="M40.5,136.9c-0.5,2.9,0.6,4.4,3.6,4.8c1.9,0.3,3.8,1.1,5.7,1.6c1.5,0.4,2.3,1,2.4,2.8
	c0,1.7,0.4,3.4,0.4,5.2c0.7,5.6-0.9,10.9-2.4,16.2c-1.4,5.1-3.6,9.9-5.8,14.6c-2.6,3.5-3,7.5-3,11.8c0.1,26.1,0.1,52.2,0.1,78.3
	c0,1.4,0.2,2.8-0.3,4.2c-0.3,0.4-0.5,0.9-1.1,0.5c0.1-0.7,0.2-1.5,0.2-2.2c0-28.4,0-56.9,0-85.3c0-0.2,0-0.5-0.1-1
	c-1.1,1.3-2.1,0.3-3-0.1c-5.9-2.7-11.5-6.1-17.6-8.3c-10.4-3.7-21.3-5.3-32.2-6.6c-6.1-0.7-12.2-1.4-18.4-2.1
	c-1.6-0.2-2.1-0.6-1.5-2.3c4.9-14.3,9.8-28.7,14.5-43c0.6-1.8,1.2-2,2.9-1.5c17.4,5.1,34.8,10.1,52.2,15.3c2.4,0.7,3.6,0.7,3.2-2.2
	C40.2,137.4,40.4,137.1,40.5,136.9z"/>
<path id="XMLID_190_" fill="#284867" d="M39.9,277c0.2-0.1,0.5-0.3,0.7-0.4c0.4-0.3,0.8-0.3,1.2,0c3.5,8,5.5,16.3,6,25
	c0.1,2.4,0,4.8,0,7.2c0,1,0,2-0.7,2.8c0.4,1.8-1.2,3.6-0.1,5.3c-1.4,1.4-1.1,3.4-1.6,5.1c-0.3,1-0.7,1.7-1.9,1.9
	c-10.8,1.9-21.2,5.6-32,7.8c-6.4,1.3-12.8,2-19.4,1.8c-2.3-0.1-3.6-0.9-4.4-3.3c-4.9-14.8-10-29.5-15.1-44.2
	c-0.6-1.6-0.8-2.4,1.5-2.6c15.8-1.7,31.6-3.5,47.5-5.2C27.7,277.7,33.8,277.4,39.9,277z"/>
<path id="XMLID_189_" fill="#375A96" d="M204.3,350.6c-0.3-10.3-0.1-20.6,0-31c0.1-0.2,0.3-0.3,0.5,0c15.8,0,11.5,0,27.3,0
	c1.3,0,2.2-0.4,3.1-1.3c3.8-3.9,7.7-7.7,11.5-11.5c1.1-1.1,2.2-1.6,3.7-1.6c22.3,0,34.5,0,56.8,0c0.4,0,0.8,0,1.3,0
	c0.5,0,1.1,0,1,0.8c-0.1,0.6-0.6,0.5-1,0.5c-0.7,0-1.3,0-2,0c-21.8,0-33.5,0-55.3,0c-1.8,0-3.1,0.5-4.3,1.8
	c-3.5,3.7-7.2,7.2-10.7,10.8c-1.1,1.2-2.3,1.6-3.9,1.6c-14.9-0.1-9.9,0-24.8-0.1c-2.1,0-2.8,0.5-2.6,2.6c0.3,2.7-1.2,6.3,0.6,7.9
	c1.5,1.3,5.1,0.4,7.7,0.4c13.6,0,7.2,0,20.8,0c1.6,0,2.9-0.2,3.9-1.6c3.5-5,8.2-6.3,14.2-6c10.5,0.5,11,0.2,21.5,0.1
	c1.5,0,2.5,0.4,3.5,1.4c3.7,3.8,7.6,7.5,11.3,11.4c1.1,1.2,2.3,1.6,3.9,1.6c17.5-0.1,35,0,52.5,0c0.9,0,1.9-0.2,2.9,0.4
	c-0.5,0.9-1.2,0.7-1.8,0.7c-18.3,0-36.5,0-54.8,0c-1.2,0-2-0.3-2.8-1.2c-3.9-3.9-7.8-7.8-11.6-11.7c-0.9-1-1.9-1.3-3.3-1.3
	c-12.4,0-14.9,0-27.3,0c-1.4,0-2.5,0.3-3.3,1.4c-3.5,5.1-8.3,6.3-14.4,6.1c-13.7-0.5-7.4,0-21-0.2c-3,0-2.3,1.6-2.4,3.3
	c-0.1,1.8,0,2.8,2.4,2.8c17.6-0.1,15.2-0.1,32.8,0c2,0,3.6-0.4,4.7-2c2.4-3.4,5.7-4.4,9.9-4.2c6.9,0.4,3.8,0.1,10.8,0.1
	c1.4,0,2.3,0.4,3.3,1.3c3.5,3.6,7.2,7.2,10.7,10.8c1.3,1.3,2.5,1.9,4.3,1.8c14.8-0.1,29.5,0,44.3,0c0.9,0,2-0.2,2.9,0.3
	c-0.2,1.1-1.1,0.8-1.6,0.8c-15.7,0-31.4,0-47,0c-1.2,0-2-0.5-2.8-1.3c-3.6-3.7-7.3-7.3-10.9-11c-1.2-1.2-2.4-1.8-4.1-1.7
	c-7.4,0.1-4.8,0.1-12.3,0c-1.9,0-3.4,0.4-4.5,1.9c-2.6,3.6-6.1,4.6-10.6,4.5c-16.6-0.3-13.2-0.1-29.8-0.2c-2,0-2.5,0.6-2.5,2.5
	C204.7,345.1,205.1,347.9,204.3,350.6z"/>
<path id="XMLID_188_" fill="#3C5F99" d="M204.3,240.5c0-6.3,0-12.7,0-19c0.7-0.4,1.5-0.2,2.2-0.2c43.4,0,56.8,0,100.2,0
	c0.7,0,1.5-0.2,2.2,0.2c2,1,3.2,2.8,4.7,4.4c1.1,1.1,2.3,1.7,3.9,1.7c7.7-0.1,15.3-0.1,23,0c1.4,0,2.5-0.4,3.5-1.4
	c3.7-3.8,7.5-7.6,11.3-11.4c0.8-0.8,1.6-1.3,2.8-1.3c15.7,0,31.4,0,47,0c0.5,0,1.1-0.1,1.7,0.5c-0.8,1-1.8,0.6-2.7,0.6
	c-14.8,0-29.7,0.1-44.5,0c-1.8,0-3.1,0.5-4.4,1.8c-3.5,3.7-7.2,7.2-10.7,10.8c-1,1-1.9,1.4-3.3,1.3c-8-0.1-16-0.1-24,0
	c-1.8,0-3.3-0.4-4.3-1.9c-2.5-3.6-5.9-4.4-10.3-4.4c-41.6,0.2-53.2,0.1-94.9,0.1c-1,0-2.6-0.6-3,0.5c-0.4,1.5-0.1,3.3-0.1,5
	c0,0.5,0.6,0.5,1,0.5c0.7,0,1.3,0,2,0c40.5,0,51.1,0,91.6,0c2.2,0,4.1,0.3,5.4,2.2c3,4.3,7,5.4,12.2,5.2c10.6-0.4,21.2-0.2,31.8-0.1
	c1.5,0,2.6-0.4,3.7-1.5c3.8-3.9,7.6-7.7,11.5-11.5c0.7-0.7,1.4-1.2,2.6-1.2c18.9,0.1,37.9,0.1,56.8,0.1c0.4,0.5,0.2,1-0.3,1.1
	c-0.7,0.2-1.5,0.1-2.2,0.1c-17.6,0-35.1,0-52.7,0c-0.9,0-1.8-0.3-2.7,0.3c-4.2,4.2-8.4,8.3-12.6,12.5c-1,1-2.1,1.5-3.5,1.4
	c-12.6-0.1-25.2-0.1-37.8,0c-1.6,0-2.8-0.4-3.7-1.6c-3.5-5.2-8.4-6-14.4-6c-38.7,0.3-47.4,0.2-86,0.1c-2.5,0-3.1,0.7-2.9,3
	c0.2,2.6,0.2,5.3,0.2,8C204.7,240.6,204.5,240.7,204.3,240.5z"/>
<path id="XMLID_187_" fill="#385C97" d="M204.3,240.5c0.2,0,0.4,0,0.5-0.1c35.7,0,41.4,0,77.1,0c5.3,0,10.7,0.1,16,0
	c1.8,0,3.1,0.6,4.3,1.9c3.3,3.5,6.9,6.8,10.2,10.3c1.4,1.5,2.9,2.1,5,2.1c21.8-0.1,43.5-0.1,65.3,0c0.9,0,2.5-0.6,2.5,0.6
	c0,1.3-1.6,0.7-2.5,0.7c-22,0-44,0-66.1,0.1c-1.9,0-3.3-0.6-4.6-2c-3.6-3.7-7.3-7.3-10.9-11c-1-1-2-1.5-3.5-1.5
	c-40.3,0-50.6,0.1-90.9,0c-2.5,0-2.3,1.2-2.3,2.9c0,1.7-0.1,2.8,2.4,2.8c36.6-0.1,43.2,0,79.8-0.1c2,0,3.4,0.5,4.8,2
	c5.3,5.4,10.7,10.7,16.1,16c1,0.4,2,0.2,3,0.2c30.8,0,61.7,0,92.5,0c1,0,2.7-0.7,2.7,0.7c0,1.5-1.7,0.7-2.7,0.7
	c-31.1,0-62.2,0-93.3,0c-0.9,0-1.8,0.2-2.7-0.2c-6-6-12-12.1-18.1-18.1c-1-0.2-2-0.1-3-0.1c-36.5,0-42.9,0-79.4,0
	c-0.9,0-1.8,0.2-2.7-0.2C204.2,245.5,204.3,243,204.3,240.5z"/>
<path id="XMLID_186_" fill="#395C98" d="M204.3,135.9c0-11.7,0-23.3,0-35c0.8,3.7,0.2,7.4,0.3,11.2c0.1,1.4,0.1,2.8,0.1,4.2
	c0.3,0.4,0.3,0.7,0,1.1c0,2.8,0.1,5.7-0.1,8.5c-0.1,2,0.6,2.4,2.5,2.4c20.9-0.1,21.7,0,42.6-0.1c2,0,3.4,0.5,4.8,2
	c3.4,3.6,7,6.9,10.4,10.5c1.3,1.3,2.5,1.8,4.4,1.8c21.9-0.1,33.7-0.1,55.6,0c0.9,0,2.6-0.8,2.7,0.7c0,1-1.7,0.5-2.6,0.5
	c-22,0-34,0-56.1,0.1c-1.8,0-3.1-0.5-4.4-1.8c-3.7-3.9-7.5-7.6-11.3-11.4c-0.9-0.9-1.8-1.3-3.1-1.3c-21.1,0-22.2,0.1-43.3,0
	c-2.7,0-2.1,1.6-2.2,3c-0.1,1.7,0,2.7,2.3,2.7c17.4-0.1,14.9,0,32.3-0.1c1.8,0,3.1,0.5,4.4,1.8c4.9,5.1,10,10,15,15.1
	c1.1,1.1,2.2,1.5,3.7,1.5c31,0,52.1,0,83.1,0c0.9,0,2-0.3,2.9,0.4c-0.5,1.1-1.4,0.7-2.1,0.7c-31.6,0-53.2,0-84.8,0
	c-1.4,0-2.3-0.6-3.2-1.5c-5.6-5.6-11.2-11.2-16.8-16.8c-0.9-0.3-1.8-0.2-2.7-0.2c-17.2,0-14.4,0-31.5,0
	C206.1,136.1,205.2,136.4,204.3,135.9z"/>
<path id="XMLID_185_" fill="#3C5E99" d="M204.2,248c37.6,0,45.1,0,82.7,0c0.8,0,1.7-0.3,2.4,0.4c-37.2,0-44.4,0-81.6-0.1
	c-2.5,0-3.3,0.6-3.1,3.1c0.2,3.9,0.2,7.8,0,11.8c-0.1,1.9,0.6,2.3,2.4,2.3c23.5-0.1,27,0,50.5,0c14.2,0,18.4,0,32.5,0
	c1.5,0,2.6,0.4,3.7,1.5c4.1,4.2,8.4,8.4,12.5,12.6c1.1,1.2,2.3,1.6,3.9,1.6c15.7-0.1,31.4,0,47,0c0.7,0,1.3,0,2,0c0.5,0,1.1,0,1,0.7
	c0,0.6-0.5,0.5-0.9,0.6c-0.5,0-1,0-1.5,0c-16,0-32,0-48,0c-1.6,0-2.8-0.5-3.9-1.6c-4.1-4.2-8.4-8.4-12.5-12.6
	c-1.1-1.2-2.3-1.7-3.9-1.7c-37.4,0-44.9,0-82.3,0c-1.9,0-2.6,0.4-2.5,2.4c0.2,8.5,0.1,17,0.1,25.5c0.3,0.4,0.3,0.7,0,1.1
	c0,5.2-0.1,10.4-0.1,15.6c0,0.6-0.1,1.2,0.5,1.5c0.2,0.4,0.3,0.8,0,1.2c-1.1,1.8-0.3,3.7-0.5,5.6c-0.2,0-0.3,0-0.5,0
	c0-21.4,0-42.9-0.1-64.3C204.2,252.9,204.2,250.4,204.2,248z"/>
<path id="XMLID_184_" fill="#3D609A" d="M204.3,135.9c18,0,16.1,0,34.1,0c1,0,2-0.3,2.9,0.4c-17.9,0-15.9,0.1-33.8,0
	c-2.3,0-3,0.6-2.9,2.9c0.2,4,0.2,8,0,12c-0.1,2,0.6,2.3,2.4,2.3c18.3-0.1,16.5,0,34.8-0.1c1.8,0,3.1,0.5,4.4,1.8
	c4.7,4.6,9.1,9.5,14.1,13.8c0.9,0.4,1.8,0.2,2.7,0.2c15.7,0,21.5,0,37.2,0.1c0.8,0,2.3-0.8,2.2,1.1c-17,0-24,0-41,0.1
	c-1.3,0-2.2-0.5-3-1.4c-4.3-4.3-8.6-8.6-12.9-12.9c-1.1-1.1-2.1-1.6-3.7-1.6c-18.2,0.1-16.4,0.1-34.5,0c-1.9,0-2.5,0.5-2.5,2.5
	c0.1,20.5,0.1,41,0,61.5c0,2.3,0.6,2.7,2.8,2.7c42.9-0.1,55.7,0,98.6,0c1,0,2-0.2,2.9,0.3c-44.9,0-59.8,0-104.6,0
	c0-22.8-0.1-45.6-0.1-68.4C204.2,147.4,204.3,141.6,204.3,135.9z"/>
<path id="XMLID_183_" fill="#365A96" d="M333.8,212.9c-0.7,0.8-1.4,0.5-2,0.5c-6.9,0-13.8,0-20.8,0c-1.3,0-2.2-0.4-3.1-1.3
	c-3.3-3.4-6.8-6.6-10-10.1c-1.8-2-3.8-2.7-6.5-2.7c-37.4,0.1-44.7,0.1-82.1,0c-1,0-2.1,0.3-3.1-0.4c0.5-1.2,1.4-0.8,2.2-0.8
	c38.4,0,46.9,0,85.3,0c1.4,0,2.3,0.5,3.3,1.4c3.8,3.9,7.7,7.6,11.5,11.5c1,1,1.9,1.4,3.3,1.3c6.4-0.1,12.8,0,19.3,0
	C332,212.4,332.9,212,333.8,212.9z"/>
<path id="XMLID_182_" fill="#395C98" d="M205.6,109.8c0.9-0.8,1.7-0.6,2.5-0.6c23.8,0,27.5,0,51.3-0.1c1.9,0,3,0.8,4,2.1
	c2.5,3.4-4.3,4.4-0.1,4.2c6.4-0.4,12.8-0.1,19.3-0.1c1.6,0,2.8-0.4,3.9-1.6c3.6-3.7,7.3-7.3,10.9-11c1-1,2.1-1.4,3.5-1.4
	c15.3,0,30.5,0,45.8,0c0.6,0,1.2,0,1.7,0c0.2,0,0.4,0.3,0.5,0.4c0.1,0.4-0.1,0.7-0.5,0.7c-0.7,0.1-1.3,0.1-2,0.1
	c-14.8,0-29.7,0-44.5,0c-1.9,0-3.3,0.6-4.6,1.9c-3.4,3.6-7,6.9-10.4,10.5c-1.1,1.1-2.2,1.5-3.7,1.5c-7.8-0.1-5.7-0.1-13.5,0
	c-2,0-3.6-0.4-4.8-2c-2.5-3.5-5.8-4.3-10.1-4.3c-22.1,0.2-24.2,0.1-46.3,0.1C207.6,110.4,206.6,110.7,205.6,109.8z"/>
<path id="XMLID_181_" fill="#385B97" d="M204.8,117.4c0-0.4,0-0.7,0-1.1c22.4,0,24.9,0,47.3,0c1.9,0,3.4,0.3,4.5,1.9
	c3.3,4.7,7.7,5.9,13.3,5.6c10.2-0.5,10.3-0.2,20.5-0.1c1.9,0,3.3-0.6,4.6-1.9c3.6-3.8,7.4-7.4,11.1-11.2c0.8-0.8,1.6-1.3,2.8-1.3
	c18.3,0,36.7,0,55,0c0.5,0,1-0.1,1.5,0.4c-0.5,1.3-1.7,0.7-2.5,0.7c-17.3,0-34.7,0.1-52,0c-2.1,0-3.6,0.5-5,2
	c-3.5,3.8-7.3,7.3-10.9,11c-1,1-1.9,1.4-3.3,1.3c-12.7,0-15.4,0-28,0c-1.5,0-2.6-0.3-3.5-1.5c-3.6-5.2-8.5-6.2-14.6-6.1
	C225.3,117.7,225,117.4,204.8,117.4z"/>
<path id="XMLID_180_" fill="#375A96" d="M205.2,314c-0.3-0.4-0.4-0.8,0-1.2c1.9-0.5,3.8,0,5.7,0c10.1,0,0.1,0,10.2,0
	c1.5,0,2.6-0.4,3.7-1.5c4.9-5,10-10,15-15c0.6-0.6,1.4-1.2,2.1-1.8c0.8-0.3,1.7-0.2,2.5-0.2c31,0,52.1,0,83.1,0c0.2,0,0.3,0,0.5,0
	c0.7,0.2,2-0.5,2.1,0.6c0,1.4-1.4,0.8-2.2,0.8c-31,0-52.1,0-83.1,0c-1,0-2-0.2-3,0.2c-5.6,5.5-11.1,11-16.7,16.5
	c-0.7,0.7-1.3,1.5-2.5,1.5C210.2,314,217.7,314,205.2,314z"/>
<path id="XMLID_179_" fill="#375A96" d="M204.8,295.6c0-0.4,0-0.7,0-1.1c12.9,0,5.9,0,18.8,0c1.6,0,2.6-0.5,3.7-1.6
	c4.2-4.3,8.5-8.5,12.7-12.8c1.1-1.1,2.2-1.5,3.7-1.5c16.1,0,22.2,0,38.3,0c0.4,0,0.8,0,1.3,0c0.5,0,1.1,0,1,0.7
	c-0.1,0.6-0.6,0.5-1,0.5c-0.6,0-1.2,0-1.8,0c-15.8,0-21.5,0-37.3,0c-1.6,0-2.8,0.4-3.9,1.6c-4.1,4.2-8.3,8.2-12.3,12.4
	c-1.2,1.3-2.5,1.7-4.2,1.7C210.8,295.6,217.8,295.6,204.8,295.6z"/>
<path id="XMLID_178_" fill="#42639C" d="M282.3,180.4c-19.1,0-28.2,0-47.3-0.1c-1.2,0-2,0.5-2.8,1.3c-2.7,2.7-5.4,5.4-8.1,8.2
	c-0.7,0.7-1.4,1.3-2.5,1.3c-11.3,0-2.7,0-14,0c-0.4,0-0.8-0.2-1.3-0.3c0.6-1.4,1.8-0.8,2.6-0.8c10.3,0,0.5-0.1,10.8,0
	c1.9,0,3.3-0.6,4.6-1.9c2.3-2.5,4.9-4.8,7.2-7.3c1.2-1.3,2.5-1.7,4.2-1.7c18.9,0.1,27.8,0,46.8,0C282.7,179.5,282.8,180,282.3,180.4
	z"/>
<path id="XMLID_177_" fill="#DEE3EC" d="M307.4,266.5c32.8,0,65.7,0,98.5,0c0-0.2,0-0.5,0-0.7c-0.8-0.5-1.8-0.3-2.7-0.3
	c-30.9,0-61.7,0-92.6,0c-0.9,0-2,0.4-2.8-0.4c31.8,0,63.7,0,95.5,0c1.6,0,2.9,0.1,4-1.7c1.1-1.8,3.9-1.8,5.3-0.4
	c1.6,1.5,1.6,4,0.1,5.6c-1.3,1.4-4.1,1.6-5.3,0c-1.1-1.4-2.3-1.5-3.9-1.5c-31,0-62,0-93,0C309.4,267,308.3,267.4,307.4,266.5z"/>
<path id="XMLID_176_" fill="#DCE2EB" d="M241.7,296c0.8-0.9,1.9-0.4,2.8-0.4c30.9,0,51.7,0,82.6,0c0.9,0,1.9,0.2,3.1-0.5
	c-1.2-0.7-2.2-0.5-3.1-0.5c-30.8,0-51.5,0-82.3,0c-1,0-2-0.1-3-0.1c0.9-0.7,1.9-0.4,2.9-0.4c31,0,52,0,83,0c1.4,0,2.6,0,3.7-1.5
	c1.2-1.6,4-1.4,5.3,0c1.6,1.6,1.6,3.8,0.1,5.4c-1.5,1.5-4.3,1.6-5.5-0.2c-1.1-1.7-2.4-1.7-4-1.7C295.4,296.1,273.6,296.1,241.7,296z
	"/>
<path id="XMLID_175_" fill="#48689F" d="M308,125.4c0.6-1.5,1.4-1.2,2.1-1.2c6.2,0,12.5,0,18.7,0c1.3,0,2.2,0.4,3.1,1.3
	c3,3,6,6,9,9.1c1,1.1,2,1.4,3.5,1.4c11.5-0.1,23,0,34.5,0c0.4,0,0.8-0.1,1.2,0c0.7,0.1,1.8-0.5,1.8,0.6c0,1-1.2,0.7-1.8,0.7
	c-12.2,0-24.3,0-36.5,0c-1.3,0-2.2-0.5-3-1.4c-2.8-2.9-5.8-5.6-8.4-8.5c-1.4-1.6-3-2.1-5-2c-5.5,0.1-11,0-16.5,0
	C309.8,125.4,309,125.4,308,125.4z"/>
<path id="XMLID_174_" fill="#3E609A" d="M400,249.2c-3.5-3.4-7-6.8-10.5-10.3c-1-1-2.1-1.4-3.5-1.4c-6.1,0.1-12.2,0-18.2,0
	c-0.6,0-1.6,0.4-1.6-0.5c-0.1-1.2,1.1-0.7,1.7-0.7c6.3,0,12.7,0,19,0c1.2,0,2,0.4,2.8,1.2c2.9,3,5.9,5.8,8.8,8.9
	c1.2,1.3,2.5,1.8,4.3,1.8c12.4-0.1,24.8,0,37.2,0c0.2,0.4,0.2,0.8-0.2,1.1c-0.4,0.2-0.8,0.1-1.2,0.1
	C425.7,249.2,412.9,249.4,400,249.2z"/>
<path id="XMLID_173_" fill="#3E609A" d="M364,312.7c-0.8,0.7-1.8,0.4-2.6,0.4c-11.7,0-23.4,0-35,0c-1.6,0-2.6,0.4-3.7,1.6
	c-2.9,3.1-6,6-9,9.1c-0.9,0.9-1.8,1.4-3,1.3c-6.3-0.1-12.5,0-18.8,0c-0.7,0-1.8,0.4-1.8-0.6c0-1.1,1.2-0.6,1.8-0.6
	c5.9,0,11.8-0.1,17.8,0c1.7,0,2.9-0.5,4.1-1.7c2.8-3,5.8-5.8,8.6-8.7c0.9-0.9,1.8-1.3,3.1-1.3c12.2,0,24.4,0,36.5,0
	C362.6,312,363.5,311.7,364,312.7z"/>
<path id="XMLID_172_" fill="#3B5E99" d="M389.3,168.1c-0.9,0.7-1.9,0.4-2.7,0.4c-11.6,0-23.2,0-34.8,0c-1.5,0-2.6,0.4-3.7,1.5
	c-2.9,3.1-6,6-9,9.1c-0.9,0.9-1.7,1.4-3,1.4c-6.3-0.1-12.5,0-18.8-0.1c-0.6,0-1.8,0.4-1.8-0.6c0-1,1.2-0.6,1.9-0.6
	c5.9,0,11.8-0.1,17.8,0c1.5,0,2.7-0.4,3.7-1.5c2.9-3.1,6-6,9-9.1c0.7-0.7,1.5-1.2,2.6-1.2c12.4,0,24.9,0,37.3,0
	C388.2,167.4,388.9,167.2,389.3,168.1z"/>
<path id="XMLID_171_" fill="#3F619A" d="M322.3,188.4c-5.1,0.5-10.3,0-15.4,0.3c-0.4,0.7,0.3,1,0.7,1.4c1.1,1.1,2.4,2.1,3.3,3.4
	c3.3,4.3,7.4,6.7,13,5.6c0.5-0.1,1.6-0.4,1.7,0.4c0.1,1.2-1,0.7-1.7,0.8c-0.1,0-0.2,0-0.2,0c-7.4,0.1-7.4,0.1-12.7-5.1c-2-2-4-4-6-6
	c-0.6-0.6-1.3-1.6,0.2-1.7c5.7-0.1,11.4-0.1,17.1-0.1C322.3,187.8,322.3,188.1,322.3,188.4z"/>
<path id="XMLID_170_" fill="#E7E8E9" d="M302.3,170.4c-0.1-1.9-1.6-1.1-2.5-1.1c-15.7-0.1-21.3,0-37-0.1c-0.9,0-1.8,0.2-2.7-0.3
	c16.3,0,22.7-0.1,39-0.1c1.7,0,3.1,0.1,4.3-1.7c1.3-1.9,3.8-1.7,5.4,0c1.4,1.5,1.4,4.2,0,5.4c-1.7,1.4-4.4,1.1-5.7-0.7
	C302.8,171.4,302.6,170.9,302.3,170.4z"/>
<path id="XMLID_169_" fill="#E6E7E9" d="M400,249.2c12.6,0,25.2,0,37.8-0.1c0.8,0,2.2,0.8,2.3-1c0.6-1.8,1.6-3,3.7-3.1
	c1.8-0.1,3.3,0.4,3.7,2.2c0.5,1.8,0.2,3.7-1.7,4.8c-1.7,1-3.5,0.9-4.5-0.7c-1.2-1.8-2.6-1.8-4.3-1.7c-11.4,0-22.8,0-34.3,0
	C401.8,249.5,400.8,249.8,400,249.2z"/>
<path id="XMLID_168_" fill="#D2D9E4" d="M365.5,223c0.8-0.9,1.9-0.5,2.8-0.5c17.6,0,35.2,0,52.8-0.1c0.8,0,2.1,0.8,2.3-0.9
	c0.3,0,0.7,0,1-0.1c0.5,0.5,0.5,1,0.1,1.5C404.9,223,385.2,223,365.5,223z"/>
<path id="XMLID_167_" fill="#E6E8E9" d="M282.3,180.4c0.3-0.5,0.1-0.9,0-1.4c0.7-2,1.5-3.8,4.2-3.7c2,0.1,3.1,1.2,3.6,2.8
	c0.5,1.7-0.4,3-1.8,4c-1.5,1.1-2.9,1-4.3-0.2C283.5,181.5,282.9,181,282.3,180.4z"/>
<path id="XMLID_166_" fill="#375B97" d="M424.5,223c0-0.5,0-1-0.1-1.5c1.2-2.8,2.9-2.9,5.4-0.4c1.2,1.6,0.4,2.5-1,3.3
	C426.9,225.7,425.5,224.9,424.5,223z"/>
<path id="XMLID_165_" fill="#3B5E98" d="M364.2,279c1.6,0.2,2.7,1.1,2.7,2.7c0,1.7-1.1,2.8-2.8,2.8c-1.6,0-2.6-1.1-2.6-2.7
	C361.5,280.1,362.6,279.3,364.2,279z"/>
<path id="XMLID_164_" fill="#385B97" d="M328.8,143c0.2-1.6,1.2-2.6,2.8-2.5c1.6,0,2.7,1.1,2.6,2.7c0,1.7-1.1,2.8-2.9,2.7
	C329.7,145.8,328.9,144.7,328.8,143z"/>
<path id="XMLID_163_" fill="#385C97" d="M286.3,327.2c-1.7-0.1-2.7-1-2.8-2.6c-0.1-1.6,0.9-2.7,2.5-2.8c1.7-0.1,2.9,0.9,2.9,2.7
	C288.9,326.1,287.8,327,286.3,327.2z"/>
<path id="XMLID_162_" fill="#3A5D98" d="M355.5,101.9c-0.1,1.8-1,2.8-2.6,2.9c-1.7,0.1-2.9-1-2.8-2.7c0-1.6,1-2.6,2.7-2.6
	C354.4,99.3,355.3,100.4,355.5,101.9z"/>
<path id="XMLID_161_" fill="#395C98" d="M410.7,211.4c1.6,0.1,2.7,1.1,2.7,2.7c0,1.7-1.1,2.8-2.8,2.7c-1.6-0.1-2.6-1.1-2.5-2.8
	C408.1,212.4,409.1,211.5,410.7,211.4z"/>
<path id="XMLID_160_" fill="#3B5D98" d="M326,185.4c1.7,0.1,2.8,0.9,2.9,2.5c0.1,1.8-1,2.8-2.7,2.9c-1.6,0-2.7-1-2.7-2.6
	C323.5,186.5,324.4,185.6,326,185.4z"/>
<path id="XMLID_159_" fill="#3B5E98" d="M362.5,233.9c1.5,0.2,2.5,1.2,2.5,2.8c0,1.6-1.2,2.7-2.7,2.6c-1.7,0-2.8-1.2-2.7-2.9
	C359.6,234.9,360.7,234,362.5,233.9z"/>
<path id="XMLID_158_" fill="#395C97" d="M329.2,196.9c1.9,0.1,3,1.1,3,2.6c0.1,1.7-1,2.8-2.8,2.8c-1.6,0-2.6-1-2.6-2.7
	C326.9,197.9,328,197.2,329.2,196.9z"/>
<path id="XMLID_157_" fill="#3B5E98" d="M288.1,276.6c1.5,0.2,2.6,1,2.7,2.6c0.1,1.6-0.9,2.7-2.5,2.8c-1.8,0.1-2.9-1-2.9-2.7
	C285.4,277.7,286.5,276.8,288.1,276.6z"/>
<path id="XMLID_156_" fill="#395C97" d="M352.1,156.5c-1.6-0.1-2.7-1-2.7-2.7c0-1.7,1.1-2.7,2.7-2.7c1.6,0,2.7,1.1,2.7,2.7
	C354.8,155.4,353.8,156.4,352.1,156.5z"/>
<path id="XMLID_155_" fill="#395C97" d="M337.5,215.6c-1.6-0.2-2.6-1-2.6-2.7c0-1.7,1.1-2.7,2.7-2.7c1.6,0,2.7,1.1,2.7,2.7
	C340.2,214.5,339.3,215.5,337.5,215.6z"/>
<path id="XMLID_154_" fill="#375B97" d="M316,305.8c-0.1,1.7-0.9,2.7-2.6,2.8c-1.7,0-2.7-0.9-2.7-2.6c-0.1-1.7,0.9-2.7,2.5-2.8
	C314.9,303.1,315.9,304.1,316,305.8z"/>
<path id="XMLID_153_" fill="#365A96" d="M370.5,312.7c-0.2,1.6-1.1,2.5-2.8,2.5c-1.7-0.1-2.6-1.1-2.6-2.7c0.1-1.6,1.1-2.6,2.8-2.6
	C369.6,309.9,370.5,310.9,370.5,312.7z"/>
<path id="XMLID_152_" fill="#3A5D98" d="M307,124.5c-0.1,1.8-1,2.8-2.7,2.8c-1.7,0-2.7-1.1-2.7-2.7c0-1.6,1-2.7,2.7-2.7
	C306,121.9,306.8,123,307,124.5z"/>
<path id="XMLID_151_" fill="#395C97" d="M334.5,349.7c-1.6-0.2-2.6-1.1-2.6-2.8c0.1-1.7,1.2-2.6,2.8-2.6c1.6,0,2.7,1.1,2.6,2.8
	C337.3,348.8,336.2,349.7,334.5,349.7z"/>
<path id="XMLID_150_" fill="#385B97" d="M351.5,341.8c-1.9,0-2.9-0.9-3-2.5c-0.1-1.6,0.9-2.7,2.6-2.8c1.6-0.1,2.7,0.9,2.8,2.5
	C354,340.6,353,341.5,351.5,341.8z"/>
<path id="XMLID_149_" fill="#395C97" d="M392.1,255.2c-0.1,1.7-1,2.7-2.6,2.8c-1.6,0-2.7-1-2.7-2.7c0-1.7,0.9-2.7,2.6-2.7
	C391.1,252.5,392,253.6,392.1,255.2z"/>
<path id="XMLID_148_" fill="#385B97" d="M388.6,136.7c-0.2,1.7-1.1,2.7-2.7,2.6c-1.6-0.1-2.6-1.1-2.6-2.8c0.1-1.7,1-2.6,2.7-2.6
	C387.7,133.9,388.5,135,388.6,136.7z"/>
<path id="XMLID_147_" fill="#375A96" d="M369.4,107.3c1.6,0.2,2.6,1,2.6,2.7c0,1.7-1.1,2.7-2.7,2.7c-1.6,0-2.7-1.1-2.7-2.7
	C366.7,108.4,367.7,107.4,369.4,107.3z"/>
<path id="XMLID_146_" fill="#375A96" d="M392.9,170.6c-1.5-0.2-2.5-1-2.5-2.7c0-1.7,1-2.6,2.7-2.6c1.7,0,2.7,1.1,2.6,2.7
	C395.7,169.6,394.7,170.6,392.9,170.6z"/>
<path id="XMLID_145_" fill="#375A96" d="M314.1,180c-0.2,1.7-1.1,2.6-2.8,2.5c-1.7-0.1-2.6-1.1-2.5-2.7c0.1-1.7,1.1-2.6,2.7-2.5
	C313.2,177.4,314,178.4,314.1,180z"/>
<path id="XMLID_144_" fill="#D2D9E4" d="M428.9,224.4c0.8-1,1.3-2,1-3.3c1.5,0,1.3,1.2,1,1.9C430.5,223.7,430.4,225.2,428.9,224.4z"
	/>
<path id="XMLID_143_" fill="#494B50" d="M96.1,154.4c1.5-0.4,2.2-1.2,2.1-3c-0.2-2.1,0-4.3,0-6.5c0-1.6,0.8-2.5,2.5-2.5
	c1.8,0,3.5,0,5.3,0c22.6,0,45.2,0,67.8,0c3.8,0,4.6,0.8,4.6,4.5c0,51.5,0,102.9,0,154.4c0,3.5-0.9,4.4-4.4,4.4c-8.7,0-17.3,0-26,0
	c-0.9,0-1.9-0.3-2.6,0.5c-0.9,0.2-1.4-0.3-2-0.8c-2-1.6-4.2-1.9-6.6-1c-7.1,2.7-14.1,1.9-21.1,0c-0.2,0-0.3-0.1-0.5-0.1
	c-0.7-0.3-2-0.4-1.7-1.4c0.2-0.8,1.4-0.8,2.2-0.7c2.3,0.4,4.7,0.2,7,0.5c3.3,0.6,6.4,0,9.2-1.5c5.7-3.2,11.6-6.3,17-10.1
	c0.8-0.5,1.5-1.1,2.1-1.8c1.7-1.7,1.8-2.3,0.2-4.2c-1.9-2.3-1.9-2.8,0.8-4.2c0.8-0.4,1.6-0.8,2.3-1.4c0.9-0.8,1.5-1.8,1.1-3.1
	c-0.4-1.2-1.3-1.9-2.5-2.3c-1.4-0.4-2.8-0.2-4.2,0.1c-1.9,0.4-3.7,0.9-5.5,1.6c-7.9,2.9-16.1,3.2-24.3,4.1c-1.2,0.1-2.3,0.1-3.5-0.1
	c-0.9-0.1-1.7-0.5-1.8-1.5c-0.1-1,0.5-1.5,1.3-1.9c1.2-0.6,2.5-0.9,3.9-0.8c9.6,0.6,18.1-3.3,26.7-6.7c0.9-0.4,1.8-0.9,2.5-1.6
	c2.3-2,1.9-4.2-1-5.4c-1.4-0.6-2.8-0.6-4.2-0.4c-3.1,0.4-6.1,0.8-9.1,1.7c-4.5,1.3-9.2,1.7-13.8,1.6c-6.8-0.1-13.6,0.8-20.5,0.6
	c-1.4,0-2.8-0.1-4.2-0.5c-0.7-0.3-1.4-0.6-1.6-1.4c-0.2-1,0.5-1.5,1.1-2.1c0.3-0.3,0.7-0.5,1.1-0.6c6.4-2.9,13-5.2,20.2-5.2
	c2,0,4-0.3,5.8-1.4c1.2-0.8,2.1-1.8,1.5-3.3c-0.6-1.4-1.8-2-3.3-1.5c-1.7,0.5-3.3,0.2-4.9-0.4c-1.8-0.7-3.6-1.3-5.4-1.9
	c-2.9-1-5.7-1-8.6-0.1c-1.1,0.3-2.3,0.9-3.2-0.4c-0.5-1.4-0.4-2.8-0.4-4.2c0.1-6.2-0.3-12.5,0.2-18.7c1-2,2.3-1,3.5-0.3
	c1,0.7,1.9,1.6,3.1,2c2.4,0.7,3.8-0.5,3.1-2.8c-1.3-3.8-3.1-7.2-7-9c-1.2-0.6-2.8-0.8-2.9-2.7c0.2-3.7-0.4-7.5,0.4-11.2
	c0.7-1.1,1.7-0.8,2.7-0.6c4.6,0.6,9.1,1.9,13.6,3.4c1,0.3,1.9,0.7,2.9,0.8c4.4,0.4,8.5,1.6,12.5,3.2c3,1.2,6.2,1.8,9.5,2.3
	c1.5,0.2,3.1,0.2,3.6-1.7c0.5-1.7-0.7-2.6-2-3.3c-8.9-4.6-17.3-10.1-26.9-13.3c-0.8-0.3-2-0.6-1.6-1.8c0.3-1,1.3-1.2,2.2-1.3
	c2.8-0.2,5.5,0.3,8.1,1c6,1.8,11.8,4.1,17.6,6.5c1.3,0.5,2.6,1.1,4.1,1.2c1.5,0.1,2.9-0.3,3.6-1.8c0.7-1.5-0.3-2.5-1.4-3.4
	c-1.6-1.3-3.4-2.5-5.1-3.7c-0.5-0.4-1.2-0.8-1-1.6c0.2-0.6,0.9-0.7,1.4-0.8c0.6-0.1,1.2-0.2,1.7-0.4c1.9-0.8,2.2-2.1,0.8-3.7
	c-0.7-0.8-1.5-1.4-2.3-2c-4.3-3.4-9.1-5.9-13.7-8.7c-2.8-1.8-6.1-2.3-9.3-2.4c-2.4-0.1-4.8-0.5-7.2-0.7c-1-0.1-2.3-0.3-2.3-1.8
	c0-1.4,0.8-2.2,2.1-2.4c5.1-0.9,10.2-2.5,15.6-1.6c3.1,0.5,6.1-0.3,9.2-0.5c0.9,0,1.7-0.4,1.9-1.4c0.2-0.9-0.4-1.6-1.1-2.1
	c-0.2-0.2-0.4-0.3-0.6-0.4c-6-1.8-11.9-3.9-18.3-2.9c-4.7,0.7-9.4,1.5-14.1,1.9C101.3,155.5,98.6,155.6,96.1,154.4z"/>
<path id="XMLID_142_" fill="#806460" d="M98.1,246.5c0.2,0,0.4,0.1,0.5,0c5.8-2.6,11.2-0.7,16.5,1.5c1.4,0.6,2.9,1.2,4.5,0.3
	c1.9-1,3.2,0.2,4.1,1.7c1,1.6,0.2,3.1-1.1,4.1c-1.6,1.2-3.6,1.9-5.6,1.8c-7.2-0.2-13.9,2-20.4,4.8c-1.1,0.5-2.9,0.8-2.7,2.2
	c0.2,1.6,2.2,1.4,3.3,1.5c4,0,8,0.5,12-0.3c1.3-0.2,2.7-0.2,4-0.1c8.5,0.3,16.9-0.5,25.2-2.7c2.1-0.6,4.4-0.8,6.6-0.8
	c1.7,0,3.1,0.7,4.3,1.8c1.4,1.3,1.5,2.7,0.3,4.2c-1.2,1.5-2.7,2.4-4.5,3.1c-6.1,2.4-12.2,4.9-18.7,6.1c-2.4,0.5-4.8,0.2-7.2,0.3
	c-1.4,0-2.6,0.3-3.9,0.6c-0.7,0.2-1.5,0.6-1.3,1.5c0.2,0.8,0.9,0.8,1.6,0.9c3.1,0.3,6.1-0.5,9.2-0.6c8.3-0.2,16.1-3,24-5.2
	c1.2-0.3,2.5-0.3,3.7-0.2c1.7,0.1,3,1,3.6,2.6c0.6,1.6,0.2,2.9-1.2,4c-0.6,0.5-1.2,1.1-2,1.4c-3.3,1.3-3.3,1.4-0.8,4
	c1.4,1.4,1.5,2.5,0,4c-3.8,3.8-8.7,6.1-13.3,8.7c-3.8,2.2-7.3,5-11.9,5.5c-3.4,0.4-6.8-0.4-10.1-0.5c-1,0-2-0.2-3-0.1
	c2.8,1.4,5.9,1.6,8.8,2.3c4.2,1,8.3,0.4,12.2-1c4.1-1.5,7.4-1.1,10.4,2.1c0.2,1.5-0.7,2.2-1.8,2.6c-6.1,2.4-12.3,4.8-18.6,6.2
	c-3.3,0.8-6.6-0.7-9.8-1.1c-2.9-0.3-5.7-1.1-8.4-2.1c-1.4-0.5-2.8-0.7-4.4-0.4c-2.3,0.4-4.6,0.5-6.8-0.7c-3-1.7-6.3-1.3-9.5-1
	c-5.5,0.7-10.9,0.6-16.2-1.6c-4.9-2.1-9.6-1.2-14.2,0.9c-2.6,1.2-5.1,2.9-8.2,2.6c0.6-11.5-1-22.6-5.3-33.3
	c-0.2-0.5-0.1-1.1-0.2-1.7c2-2.2,4.9-2.6,7.5-3.9c3.5-1.7,7.1-3,9.5-6.6c1.1-1.7,3.2-2.6,4.9-3.8c6.6-4.3,12.8-9,20-12.2
	C88.1,248.1,93.1,247.3,98.1,246.5z"/>
<path id="XMLID_141_" fill="#806460" d="M97.6,210.9c1.3,1.3,3.2,1.4,4.5,2.5c3,2.2,4.7,5.4,5.9,8.7c0.4,1.3,0.2,2.9-1.1,3.5
	c-1.7,0.8-3.4,0.1-4.8-1c-1.2-1-2.2-2.3-4-2.2c-2.2,0.2-4.1-0.5-5.8-1.8c-4.5-3.5-9.1-6.7-13.9-9.7c-0.6-0.4-1.3-0.8-1.8-1.4
	c-5.2-5.6-10.9-10.7-16.1-16.3c-4.2-4.6-9.2-7.9-14.5-10.8c-0.6-0.3-1.5-0.4-1.9-1.2c1.5-3.6,3-7.1,4.3-10.8
	c2-5.8,3.6-11.7,3.6-17.8c0-0.5,0-1,0.5-1.4c1.4-0.1,2.6,0.5,3.7,1.2c4.7,2.7,9.8,3.8,15.1,2.4c6.4-1.7,12.8-1.3,19.2-0.6
	c1.8,0.2,3.7,0.1,5.5,0.1c7.6,0.9,15-0.7,22.4-1.8c3.6-0.6,7.1,0.2,10.6,1c2.4,0.5,4.8,1.2,7.2,1.9c1.5,0.5,3,1.5,2.7,3.3
	c-0.2,1.9-1.8,2-3.4,2.2c-7.9,0.9-15.9-0.7-23.7,1.8c-1.2,0.4-2.2,0.7-2.1,1.9c0.1,1.2,1.5,1.1,2.4,1.2c3.4,0.4,6.8,0.8,10.1,1
	c4.4,0.3,7.7,3,11.2,5.1c3.9,2.2,7.7,4.5,11,7.7c0.8,0.8,2,1.6,1.4,2.9c-0.6,1.3-1.7,2-3.1,2.3c-0.8,0.2-1.6-0.2-2.5,0.4
	c2,1.4,3.8,2.8,5.7,4.1c1.7,1.2,3.3,2.5,2.3,4.9c-0.7,1.8-3.4,2.6-5.9,1.7c-4.4-1.6-8.6-3.6-13-5c-4.7-1.5-9.3-3.8-14.4-3.5
	c-0.9,0.1-2.4-0.4-2.6,0.8c-0.2,1,1.3,0.9,2.1,1.2c7.4,2.8,14.4,6.4,21.3,10.4c1.9,1.1,4,2.1,6,3.1c1.5,0.7,2,1.9,1.6,3.5
	c-0.4,1.7-1.2,2.6-3.1,2.5c-3.6-0.2-7-1.1-10.4-2.2c-3.8-1.2-7.4-2.9-11.5-3.2c-3.6-0.3-6.9-1.7-10.3-2.8c-3.3-1-6.7-1.2-10-1.9
	c-1,0.2-2-0.3-2.9-0.6c-2.1-0.7-4.1-0.2-6,0.9c-1.2,0.7-1.2,1.3-0.2,2.3c2.6,2.3,5.5,4.3,7.5,7.2C97.1,209.5,97.8,210,97.6,210.9z"
	/>
<path id="XMLID_140_" fill="#B3C5E3" d="M198.1,101.8c0,82.7,0,165.2,0,247.7c-0.8-0.2-0.8-0.9-1-1.5c-3.1-9.5-6.1-19-9.2-28.5
	c-0.7-2.2-0.6-4.5-0.5-6.7c0.4-8.5,0.2-17,0.2-25.5c0-48,0.1-96.1-0.1-144.1c0-7.3,0.9-14.1,3.5-20.9c2.3-6.2,4.1-12.5,6.2-18.7
	C197.3,103,197.4,102.4,198.1,101.8z"/>
<path id="XMLID_139_" fill="#303236" d="M44.1,181.4c2.6,0.3,4.6,1.8,6.7,3.2c3.8,2.5,7.3,5.3,10.5,8.7c5.1,5.4,10.3,10.6,15.6,15.7
	c4.1,3.9,9.6,6.2,13.9,10c2.1,1.8,4.6,2.7,7.2,3.6c0,8,0,16,0,24c-2.5,1.2-5.2,1.8-7.9,2.2c-5.9,1-10.9,4-15.7,7.2
	c-4.7,3.1-9.4,6.3-14.1,9.4c-0.4,0.3-1,0.5-1.2,0.9c-3,5.3-8.8,6.2-13.5,8.7c-1.3,0.7-2.8,1.1-4.1,1.7c-0.3,0-0.7,0-1,0
	c0-29.3,0-58.5,0-87.8C40.5,185.7,42.7,183.7,44.1,181.4z"/>
<path id="XMLID_138_" fill="#385B97" d="M412.6,266.1c-0.2,1.6-1.1,2.5-2.8,2.4c-1.5-0.1-2.4-1-2.4-2.6c0-1.7,1-2.7,2.6-2.6
	C411.7,263.3,412.6,264.3,412.6,266.1z"/>
<path id="XMLID_137_" fill="#385B97" d="M331.3,295.3c0.1-1.7,1-2.7,2.6-2.7c1.5,0,2.5,0.9,2.5,2.5c0.1,1.7-0.8,2.7-2.5,2.8
	C332.5,298,331.5,297,331.3,295.3z"/>
<path id="XMLID_136_" fill="#385B97" d="M308.9,169.6c-0.1,1.7-1,2.8-2.7,2.8c-1.7,0-2.6-1.1-2.6-2.7c0-1.5,1-2.5,2.5-2.6
	C307.8,167.1,308.8,168,308.9,169.6z"/>
<path id="XMLID_135_" fill="#375A96" d="M444,246c1.6,0.2,2.5,1,2.5,2.7c0,1.7-1.1,2.6-2.8,2.5c-1.5,0-2.5-1.1-2.5-2.6
	C441.3,247,442.2,246,444,246z"/>
<path id="XMLID_134_" fill="#375A96" d="M289,178.9c-0.1,1.8-1,2.8-2.6,2.8c-1.6,0-2.6-1-2.5-2.7c0.1-1.6,1-2.4,2.5-2.5
	C288,176.4,288.8,177.4,289,178.9z"/>
<path id="XMLID_133_" fill="#303236" d="M97.6,210.9c-2.6-3.6-5.9-6.5-9.4-9.2c-1.5-1.1-1.4-1.8,0.3-2.9c3.3-2,6.4-1.8,9.6,0.1
	c0,3.2,0,6.4,0,9.7C98.1,209.4,98.4,210.3,97.6,210.9z"/>
<path id="XMLID_132_" fill="#504E52" d="M135.1,289.3c-6.8,2.3-13.8,2.4-20.9,2.6C121.2,291.2,128.1,290.1,135.1,289.3z"/>
</svg>
