<?xml version="1.0" encoding="utf-8"?>
<!-- Generator: Adobe Illustrator 19.0.0, SVG Export Plug-In . SVG Version: 6.00 Build 0)  -->
<svg version="1.1" id="Layer_1" xmlns="http://www.w3.org/2000/svg" xmlns:xlink="http://www.w3.org/1999/xlink" x="0px" y="0px"
	 viewBox="224 -214 480 460" style="enable-background:new 224 -214 480 460;" xml:space="preserve">
<style type="text/css">
	.st0{fill:none;}
	.st1{fill:#182F4C;}
	.st2{fill:#B3C3EB;}
	.st3{fill:#FE5A00;}
	.st4{fill:#F4F8FD;}
	.st5{fill:#F1F6FC;}
	.st6{fill:#F0F7FC;}
	.st7{fill:#F3F8FD;}
	.st8{fill:#F2F7FC;}
	.st9{fill:#F5FBFE;}
	.st10{fill:#F6FAFD;}
	.st11{fill:#192F4C;}
	.st12{fill:#192F4B;}
	.st13{fill:#E8F0F9;stroke:#192F4C;stroke-width:3;stroke-linecap:round;stroke-miterlimit:10;}
	.st14{fill:none;stroke:#192F4C;stroke-width:1.5;stroke-linecap:round;stroke-miterlimit:10;}
	.st15{fill:none;stroke:#192F4C;stroke-width:3;stroke-linecap:round;stroke-miterlimit:10;}
</style>
<image style="overflow:visible;" width="121" height="358" xlink:href="C:\Users\bheku\Downloads\male staff.png"  transform="matrix(1 0 0 1 249 -131.6809)">
</image>
<image style="overflow:visible;" width="103" height="347" xlink:href="C:\Users\bheku\Downloads\female staff.png"  transform="matrix(1 0 0 1 574 -123.9)">
</image>
<g>
	<path class="st0" d="M526.2-93.2c-6.7,3.3-13.6,4.5-21,3.3c-7.2-1.2-13.4-4.4-18.5-9.5c-5.4-5.4-8.7-12-9.6-19.7
		c-1.1-9.4,1.2-17.9,7-25.3c4.3-5.5,10-9.5,16.7-11.4c9.2-2.7,18.1-1.8,26.5,2.9c0.4,0.2,0.8,0.5,1.2,0.7c3.6,2.3,6.7,5.1,9.3,8.5
		c1.1,1.4,2,2.9,2.8,4.4l0,0c1.9,3.6,3.2,7.5,3.6,11.5c0.2,1.7,0.5,3.4,0.3,5.2c-0.2,3.4-0.7,6.8-1.9,10.1c-1.1,3.1-2.6,6.1-4.5,8.8
		C535.1-99.1,531-95.7,526.2-93.2z"/>
	<path class="st1" d="M514-132.3c1.8-0.3,3.3-0.5,4.8-0.7c1.4-0.2,2.7-0.4,4.1-0.7c0.5-0.1,1-0.1,1.4,0.4c0.3,0.5,0.1,1-0.2,1.4
		c-6.4,9.1-12.9,18.2-19.3,27.3c-0.4,0.5-0.7,1-1.1,1.5c-0.4,0.5-0.8,1-1.5,0.6c-0.7-0.3-0.6-1-0.4-1.6c0.6-2.2,1.3-4.5,1.9-6.7
		c1.1-3.8,2.2-7.7,3.3-11.5c0.2-0.6,0.1-0.8-0.6-0.7c-1.8,0.4-3.6,0.7-5.4,1c-1.2,0.2-1.6-0.4-1.3-1.5c2-6.4,4.1-12.8,6.1-19.2
		c0.3-0.8,0.8-1.2,1.6-1.2c3.7-0.3,7.4-0.6,11-1c0.3,0,0.6-0.1,0.9,0c0.9,0.1,1.2,0.8,0.7,1.7c-1.1,2-2.3,4-3.4,6
		C515.9-135.5,515-134,514-132.3z"/>
</g>
<g>
	<path class="st0" d="M416.9-157.3c18.8,0,33.9,15.2,33.9,34c0,18.7-15.3,33.9-34.1,33.8c-18.7-0.1-33.8-15.1-33.7-33.8
		C383-142.6,398.5-157.4,416.9-157.3z"/>
	<path class="st2" d="M412.5-131.9c0-5.1,0-8.5,0-12c0-2.4,1.8-4.1,4.2-4.2c2-0.1,4.2,1.8,4.3,4.2c0.2,10.5,0.1,20.9,0.1,31.4
		c0,0.7,0.2,1.2,0.7,1.7c2.9,2.4,3.3,7,1.3,10c-1.7,2.6-5.4,3.9-8.4,3.2c-4.2-1.1-6.6-5.3-5.6-9.4c0.4-1.6,1.2-2.9,2.5-3.9
		c0.4-0.3,0.6-0.7,0.6-1.2c0-1,0-2,0-3C412.3-121.3,412.6-127.4,412.5-131.9z"/>
	<path class="st3" d="M414.1-116.3c0-1.9,0-3.8,0-5.7c0-0.7,0.3-1,1-0.9c1.2,0,2.4,0,3.6,0c0.8,0,1.1,0.3,1.1,1.1c0,3.5,0,7,0,10.5
		c0,0.8,0.2,1.4,0.8,1.9c1.8,1.6,2.4,4,1.5,6.1c-0.8,2-3,3.5-5.1,3.5c-2.1,0-4.2-1.4-5-3.3c-0.9-2.2-0.6-4.2,1.1-5.9
		c0.8-0.8,1.1-1.6,1.1-2.8C414-113.2,414.1-114.7,414.1-116.3C414.1-116.3,414.1-116.3,414.1-116.3z"/>
	<path class="st4" d="M415.4-129.4c-0.4-0.2-1.3,0.4-1.3-0.6c0-0.9,0.8-0.5,1.3-0.5c0.5,0,1.3-0.4,1.3,0.5
		C416.8-129,415.9-129.6,415.4-129.4z"/>
	<path class="st5" d="M415.4-126.5c-0.4-0.2-1.2,0.3-1.3-0.5c0-1,0.8-0.5,1.3-0.5c0.5,0,1.3-0.3,1.3,0.5
		C416.8-126.2,415.9-126.7,415.4-126.5z"/>
	<path class="st6" d="M415.3-140.6c-0.4-0.1-1.2,0.3-1.2-0.5c0-0.9,0.8-0.4,1.2-0.5c0.3-0.1,0.5,0,0.8,0c0.3,0,0.6,0.1,0.6,0.5
		c0,0.4-0.3,0.5-0.6,0.6C415.9-140.6,415.7-140.6,415.3-140.6z"/>
	<path class="st7" d="M415.4-136.1c0.5,0.2,1.4-0.3,1.4,0.6c0,0.9-0.9,0.5-1.3,0.5c-0.5,0-1.2,0.3-1.3-0.5
		C414.1-136.4,415-135.9,415.4-136.1z"/>
	<path class="st8" d="M415.4-124.9c0.5,0.2,1.3-0.3,1.4,0.5c0,0.9-0.8,0.5-1.3,0.5c-0.5,0-1.3,0.3-1.3-0.6
		C414.2-125.3,415-124.6,415.4-124.9z"/>
	<path class="st9" d="M415.4-138.8c0.5,0.2,1.3-0.3,1.3,0.5c0,0.8-0.8,0.5-1.3,0.5c-0.5,0-1.3,0.4-1.3-0.4
		C414.1-139.2,415.1-138.5,415.4-138.8z"/>
	<path class="st10" d="M415.6-133.2c0.3,0.2,1.2-0.4,1.2,0.4c0,0.8-0.8,0.5-1.3,0.5c-0.4,0-1.3,0.4-1.3-0.5c0-0.7,0.8-0.3,1.2-0.4
		C415.4-133.2,415.5-133.2,415.6-133.2z"/>
</g>
<g>
	<path class="st0" d="M445.1-79.9c10.1-5.7,20.5-6.2,31.2-1.6c3.6,1.6,6.9,3.8,9.7,6.6c2.3,2.2,4.2,4.8,5.8,7.6
		c1.7,3,2.9,6.2,3.6,9.6c0.8,3.7,0.8,7.4,0.5,11.1c-0.2,2.1-0.7,4.2-1.4,6.3c-0.9,3.1-2.4,6-4.2,8.7c-2.4,3.6-5.4,6.5-8.9,9
		c-0.9,0.7-1.9,1.2-2.9,1.8l0,0c-4,2.2-8.2,3.5-12.7,4c-6.4,0.7-12.5-0.3-18.3-3.1c-5.5-2.6-9.9-6.5-13.3-11.4
		c-2.6-3.7-4.2-7.8-5.2-12.1c-0.8-3.4-0.9-6.9-0.6-10.4c0.9-8,4.2-15,9.9-20.7C440.5-76.8,442.7-78.5,445.1-79.9z"/>
	<path class="st11" d="M474.5-50.6c0,2.8,0,5.6,0,8.4c0,1,0.1,2,0.5,2.9c0.5,1.2,1.3,1.6,2.6,1.6c1.2,0,1.8-0.6,2.2-1.8
		c0.4-1.1,0.3-2.3,0.3-3.5c0-0.7,0.2-0.9,0.9-0.9c2.6,0,2.6,0,2.4,2.5c0,0.7-0.1,1.4-0.3,2.1c-1,4.3-6.4,6.3-9.9,3.5
		c-1.6-1.2-2-3-2.1-4.9c-0.1-1.2-0.1-2.3-0.1-3.5c0-4.5,0-9.1,0-13.6c0-1.4,0-2.8,0.4-4.1c1-3.2,3.8-4.8,7.2-4.1
		c2.8,0.5,4.2,2.1,4.6,5.1c0.1,1,0.1,2,0.1,3c0,0.5-0.1,0.7-0.7,0.7c-2.6,0.1-2.6,0.1-2.7-2.4c0-0.5-0.1-1-0.2-1.5
		c-0.4-1.4-1.3-2-2.6-2c-1.3,0-2.2,0.8-2.5,2.1c-0.2,0.9-0.3,1.9-0.3,2.9C474.4-55.6,474.4-53.1,474.5-50.6
		C474.4-50.6,474.4-50.6,474.5-50.6z"/>
	<path class="st11" d="M442.3-50.4c0-4.8,0-9.6,0-14.4c0-0.7,0.1-0.9,0.9-0.9c3,0,5.9,0,8.9,0c0.8,0,1,0.3,0.9,1
		c0,2.1,0,2.1-2.1,2.1c-1.5,0-3.1,0-4.6,0c-0.6,0-0.8,0.2-0.8,0.8c0,2.8,0,5.6,0,8.4c0,0.6,0.2,0.8,0.8,0.8c1.8,0,3.6,0,5.4,0
		c0.6,0,0.8,0.2,0.8,0.8c0,2.2,0,2.2-2.3,2.2c-1.1,0-2.3,0-3.4,0c-1.5,0-1.3-0.1-1.3,1.3c0,4.1,0,8.2,0,12.3c0,0.8-0.2,1-1,1
		c-2.3,0-2.3,0-2.3-2.4C442.3-41.7,442.3-46,442.3-50.4z"/>
	<path class="st12" d="M467.6-45.5c-0.1-2.1-0.4-4.2-2.7-5.3c1.5-0.8,2.3-2,2.6-3.5c0.5-2,0.5-4.1,0.2-6.1c-0.5-3.6-2.2-5.1-5.9-5.3
		c-1.7-0.1-3.4,0-5.1-0.1c-0.9,0-1.1,0.2-1.1,1.1c0,9,0,18.1,0,27.1c0,2.5,0,2.5,2.5,2.5c0.7,0,0.9-0.2,0.9-0.9c0-3.8,0-7.5,0-11.3
		c0-2.2,0-2.2,2.3-2.2c1.9,0.1,2.6,0.7,3,2.6c0.1,0.5,0.1,1.1,0.1,1.6c0,2.6,0,5.2,0.1,7.7c0.1,2.4,0.1,2.4,2.5,2.4
		c0.2,0,0.3,0,0.4,0c0.4,0,0.5-0.2,0.5-0.5C467.5-38.9,467.8-42.2,467.6-45.5z M464.3-54.5c-0.4,1.5-1.3,2.2-2.9,2.4
		c-2.4,0.2-2.4,0.2-2.4-2.2c0-2.6,0-5.1,0-7.7c0-0.8,0.3-0.9,1-0.9c3.8-0.2,4.6,1.3,4.7,4.6c0,0.2,0,0.4,0,0.7
		C464.6-56.6,464.6-55.5,464.3-54.5z"/>
</g>
<g>
	<path class="st11" d="M499.5,45.5c0-20.6-16.7-37.3-37.3-37.3h-0.5v3.1h0.5c18.8,0,34.2,15.3,34.2,34.2c0,12.6-7.2,24.4-18.4,30.3
		l-0.5-2.8l-17,8.6l18.9,1.2l-0.8-3.7C491.3,72.8,499.5,59.6,499.5,45.5z"/>
	<circle class="st13" cx="462.5" cy="45.1" r="24.9"/>
	<line class="st14" x1="449.6" y1="66.5" x2="452.5" y2="61.7"/>
	<line class="st14" x1="483.9" y1="57.9" x2="479.1" y2="55.1"/>
	<line class="st14" x1="475.3" y1="23.7" x2="472.5" y2="28.5"/>
	<line class="st14" x1="441.1" y1="32.2" x2="445.9" y2="35.1"/>
	<line class="st14" x1="440.9" y1="57.6" x2="445.7" y2="54.8"/>
	<line class="st14" x1="475" y1="66.7" x2="472.2" y2="61.9"/>
	<line class="st14" x1="484.1" y1="32.6" x2="479.3" y2="35.4"/>
	<line class="st14" x1="450" y1="23.5" x2="452.8" y2="28.3"/>
	<line class="st14" x1="437.5" y1="45.1" x2="443.1" y2="45.1"/>
	<line class="st14" x1="462.5" y1="70" x2="462.5" y2="64.5"/>
	<line class="st14" x1="487.4" y1="45.1" x2="481.9" y2="45.1"/>
	<circle class="st11" cx="462.5" cy="45.1" r="2.7"/>
	<line class="st15" x1="462.5" y1="45.1" x2="462.5" y2="32.1"/>
	<line class="st15" x1="462.5" y1="45.1" x2="470.5" y2="53.1"/>
	<line class="st14" x1="462.5" y1="20.1" x2="462.5" y2="25.7"/>
</g>
</svg>
