<?xml version="1.0" encoding="utf-8"?>
<!-- Generator: Adobe Illustrator 19.0.0, SVG Export Plug-In . SVG Version: 6.00 Build 0)  -->
<svg version="1.1" xmlns="http://www.w3.org/2000/svg" xmlns:xlink="http://www.w3.org/1999/xlink" x="0px" y="0px"
	 viewBox="0 0 482.7 550" enable-background="new 0 0 482.7 550" xml:space="preserve">
<g id="Layer_2">
	<rect fill="#3C80C9" width="482.7" height="550"/>
</g>
<g id="Layer_3">
	<g>
		<path fill="#182F4B" d="M356.1,135H126.5c-21,0-38,17-38,38v23h305.6v-23C394.1,152.1,377.1,135,356.1,135z"/>
		<rect x="88.5" y="202.3" fill="#182F4B" width="305.6" height="212.7"/>
		<g>
			<g>
				<path fill="#EDF2F9" d="M118.9,179.7v-26.4h7.9c2.3,0,4.1,0.7,5.5,2c1.4,1.4,2.1,3.3,2.1,5.8c0,2.5-0.7,4.4-2.1,5.8
					c-1.4,1.3-3.4,2-5.9,2h-2.8v10.7H118.9z M123.6,157.2v8.1h2.3c1.3,0,2.3-0.3,2.9-1c0.6-0.7,0.9-1.7,0.9-3.1c0-1.3-0.3-2.3-0.9-3
					c-0.6-0.7-1.5-1-2.6-1H123.6z"/>
				<path fill="#EDF2F9" d="M135.6,179.7v-26.4h4.7v22.4h9l-0.5,4H135.6z"/>
				<path fill="#EDF2F9" d="M161.1,173.1H155l-1.3,6.6H149l6.1-26.4h6.1l6.2,26.4h-4.9L161.1,173.1z M155.8,169h4.4
					c-0.3-1.3-0.6-2.8-0.9-4.4c-0.3-1.7-0.6-3-0.8-4.1c-0.2-1.1-0.4-2-0.5-2.7H158C157.9,158.8,157.1,162.5,155.8,169z"/>
				<path fill="#EDF2F9" d="M172.5,179.7h-4.2v-26.4h5.3c4.3,11.6,6.6,17.8,6.8,18.7h0c-0.2-2.5-0.2-6.3-0.2-11.4v-7.3h4.2v26.4
					h-5.1c-4.3-11.8-6.6-18.3-7-19.6h0c0.1,2.2,0.2,6.1,0.2,11.9V179.7z"/>
				<path fill="#EDF2F9" d="M191.3,179.7H187v-26.4h5.3c4.3,11.6,6.6,17.8,6.8,18.7h0c-0.2-2.5-0.2-6.3-0.2-11.4v-7.3h4.2v26.4h-5.1
					c-4.3-11.8-6.6-18.3-7-19.6h0c0.1,2.2,0.2,6.1,0.2,11.9V179.7z"/>
				<path fill="#EDF2F9" d="M205.8,153.3h4.7v26.4h-4.7V153.3z"/>
				<path fill="#EDF2F9" d="M217.3,179.7h-4.2v-26.4h5.3c4.3,11.6,6.6,17.8,6.8,18.7h0c-0.2-2.5-0.2-6.3-0.2-11.4v-7.3h4.2v26.4
					h-5.1c-4.3-11.8-6.6-18.3-7-19.6h0c0.1,2.2,0.2,6.1,0.2,11.9V179.7z"/>
				<path fill="#EDF2F9" d="M247.7,164.9v14.8h-3.6c-0.1-0.9-0.2-1.7-0.2-2.3c-1,1.8-2.8,2.7-5.2,2.7c-2.7,0-4.6-1.1-5.8-3.4
					c-1.2-2.3-1.8-5.6-1.8-10.1c0-9.2,3-13.8,8.9-13.8c1.4,0,2.5,0.2,3.5,0.7c1,0.5,1.7,1,2.2,1.5c0.5,0.6,0.9,1.3,1.2,2.1
					c0.3,0.8,0.5,1.5,0.5,1.9c0.1,0.4,0.1,0.9,0.1,1.4H243c-0.2-2.5-1.2-3.7-3.1-3.7c-1.4,0-2.4,0.9-3,2.6c-0.6,1.7-0.9,4.1-0.9,7.2
					c0,3.3,0.3,5.7,0.8,7.2c0.5,1.5,1.5,2.3,2.9,2.3c1.2,0,2.1-0.5,2.6-1.4c0.5-0.9,0.7-2.4,0.7-4.4v-1.5h-3.5v-4H247.7z"/>
			</g>
		</g>
		<g>
			<rect x="118.9" y="221.2" fill="#EDF2F9" width="61.2" height="34.6"/>
			<rect x="180.1" y="221.2" fill="#819FCF" width="61.2" height="34.6"/>
			<rect x="241.3" y="221.2" fill="#EDF2F9" width="61.2" height="34.6"/>
			<rect x="302.6" y="221.2" fill="#F9CA45" width="61.2" height="34.6"/>
			<rect x="118.9" y="267" fill="#819FCF" width="61.2" height="34.6"/>
			<rect x="180.1" y="267" fill="#EDF2F9" width="61.2" height="34.6"/>
			<rect x="241.3" y="267" fill="#F9CA45" width="61.2" height="34.6"/>
			<rect x="302.6" y="267" fill="#819FCF" width="61.2" height="34.6"/>
			<rect x="118.9" y="312.8" fill="#EDF2F9" width="61.2" height="34.6"/>
			<rect x="180.1" y="312.8" fill="#F9CA45" width="61.2" height="34.6"/>
			<rect x="241.3" y="312.8" fill="#819FCF" width="61.2" height="34.6"/>
			<rect x="302.6" y="312.8" fill="#F9CA45" width="61.2" height="34.6"/>
			<rect x="118.9" y="358.5" fill="#F9CA45" width="61.2" height="34.6"/>
			<rect x="180.1" y="358.5" fill="#819FCF" width="61.2" height="34.6"/>
			<rect x="241.3" y="358.5" fill="#F9CA45" width="61.2" height="34.6"/>
			<rect x="302.6" y="358.5" fill="#EDF2F9" width="61.2" height="34.6"/>
			<g>
				<g>
					<path fill="#182F4C" d="M124.6,288.8v-9.2h4.7v1.4h-3.1v2.4h2.9v1.4h-2.9v3.9H124.6z"/>
					<path fill="#182F4C" d="M132.8,284.9h-0.7v3.9h-1.6v-9.2h2.8c0.8,0,1.5,0.2,1.9,0.6c0.5,0.4,0.7,1,0.7,1.9
						c0,0.6-0.1,1.1-0.4,1.4c-0.2,0.3-0.5,0.6-0.8,0.7c0.4,0.2,0.6,0.4,0.8,0.8c0.2,0.3,0.3,0.9,0.3,1.5v0.4c0,0.7,0,1.3,0.1,1.9
						h-1.6c-0.1-0.3-0.1-1-0.1-1.9v-0.3c0-0.6-0.1-1.1-0.3-1.3C133.7,285.1,133.3,284.9,132.8,284.9z M132.1,281v2.6h0.8
						c0.5,0,0.8-0.1,1.1-0.3c0.2-0.2,0.3-0.6,0.3-1c0-0.8-0.4-1.3-1.2-1.3H132.1z"/>
					<path fill="#182F4C" d="M141.1,286.2h1.6c0,0.2,0,0.3-0.1,0.5c0,0.1-0.1,0.4-0.2,0.7s-0.3,0.6-0.4,0.8
						c-0.2,0.2-0.4,0.4-0.8,0.6c-0.4,0.2-0.8,0.3-1.3,0.3c-0.5,0-0.9-0.1-1.3-0.3c-0.4-0.2-0.6-0.4-0.9-0.7
						c-0.2-0.3-0.4-0.6-0.5-1.1c-0.1-0.4-0.2-0.9-0.2-1.3c0-0.4,0-0.9,0-1.4c0-3.1,1-4.7,3-4.7c1.7,0,2.5,0.9,2.7,2.8h-1.6
						c0-0.5-0.2-0.9-0.3-1.1c-0.2-0.2-0.4-0.3-0.7-0.3c-0.5,0-0.8,0.3-1,0.8s-0.3,1.4-0.3,2.5c0,0.5,0,0.9,0,1.3
						c0,0.4,0.1,0.7,0.2,1c0.1,0.3,0.2,0.6,0.4,0.8c0.2,0.2,0.4,0.3,0.6,0.3C140.6,287.6,141,287.2,141.1,286.2z"/>
					<path fill="#182F4C" d="M146.1,286.3h1.6c0.1,0.9,0.5,1.4,1.2,1.4c0.7,0,1.1-0.4,1.1-1.2c0-0.4-0.1-0.7-0.3-0.9
						c-0.2-0.3-0.6-0.5-1.2-0.8c-0.8-0.4-1.4-0.8-1.7-1.2c-0.3-0.4-0.5-0.9-0.5-1.6c0-0.7,0.2-1.3,0.7-1.8c0.5-0.5,1.1-0.7,1.9-0.7
						c0.5,0,0.9,0.1,1.3,0.2s0.6,0.4,0.8,0.6c0.2,0.3,0.3,0.5,0.4,0.8c0.1,0.3,0.1,0.6,0.1,0.9h-1.6c-0.1-0.9-0.4-1.3-1-1.3
						c-0.6,0-0.9,0.3-0.9,1c0,0.3,0.1,0.6,0.3,0.8c0.2,0.2,0.5,0.4,1.1,0.7c0.9,0.4,1.5,0.8,1.8,1.3s0.5,1,0.5,1.8
						c0,0.8-0.2,1.4-0.7,1.9c-0.5,0.5-1.2,0.7-2.1,0.7c-0.5,0-0.9-0.1-1.3-0.2c-0.4-0.1-0.7-0.4-0.9-0.6c-0.2-0.3-0.4-0.6-0.5-0.9
						C146.2,287,146.1,286.7,146.1,286.3z"/>
					<path fill="#182F4C" d="M155.7,288.8h-1.6l-1.7-9.2h1.8c0.5,3.4,0.8,5.7,0.9,6.9h0c0.1-0.7,0.3-1.9,0.7-3.7
						c0.3-1.8,0.5-2.8,0.6-3.1h1.5c0,0.1,0.2,0.8,0.4,2c0.2,1.2,0.4,2.1,0.5,2.9c0.1,0.8,0.2,1.4,0.3,1.9h0c0.1-0.7,0.3-1.9,0.5-3.7
						c0.3-1.7,0.4-2.8,0.5-3.1h1.6l-1.9,9.2h-1.6c-0.1-0.4-0.2-1.1-0.4-2c-0.2-0.9-0.3-1.8-0.5-2.5c-0.1-0.8-0.2-1.4-0.3-1.9h0
						C156.8,283.1,156.4,285.2,155.7,288.8z"/>
					<path fill="#182F4C" d="M165.3,279.6c1,0,1.7,0.4,2.2,1.1c0.5,0.8,0.7,1.9,0.7,3.5c0,1.7-0.2,2.9-0.7,3.7
						c-0.5,0.8-1.2,1.1-2.3,1.1c-1,0-1.7-0.4-2.2-1.2c-0.5-0.8-0.7-2-0.7-3.7C162.3,281.1,163.3,279.6,165.3,279.6z M165.3,280.9
						c-0.5,0-0.8,0.3-1,0.8c-0.2,0.5-0.3,1.3-0.3,2.4c0,1.1,0.1,2,0.3,2.6c0.2,0.6,0.5,0.9,1,0.9c0.5,0,0.8-0.3,1-0.8
						c0.2-0.6,0.3-1.4,0.3-2.6c0-1.1-0.1-1.9-0.3-2.4C166.1,281.2,165.8,280.9,165.3,280.9z"/>
					<path fill="#182F4C" d="M170.8,288.8v-7.7h-2v-1.4h5.6v1.4h-2v7.7H170.8z"/>
				</g>
			</g>
			<g>
				<g>
					<path fill="#182F4C" d="M308.3,288.8v-9.2h4.7v1.4h-3.1v2.4h2.9v1.4h-2.9v3.9H308.3z"/>
					<path fill="#182F4C" d="M316.5,284.9h-0.7v3.9h-1.6v-9.2h2.8c0.8,0,1.5,0.2,1.9,0.6c0.5,0.4,0.7,1,0.7,1.9
						c0,0.6-0.1,1.1-0.4,1.4s-0.5,0.6-0.8,0.7c0.4,0.2,0.6,0.4,0.8,0.8c0.2,0.3,0.3,0.9,0.3,1.5v0.4c0,0.7,0,1.3,0.1,1.9H318
						c-0.1-0.3-0.1-1-0.1-1.9v-0.3c0-0.6-0.1-1.1-0.3-1.3C317.4,285.1,317,284.9,316.5,284.9z M315.8,281v2.6h0.8
						c0.5,0,0.8-0.1,1.1-0.3c0.2-0.2,0.3-0.6,0.3-1c0-0.8-0.4-1.3-1.2-1.3H315.8z"/>
					<path fill="#182F4C" d="M324.7,286.2h1.6c0,0.2,0,0.3-0.1,0.5c0,0.1-0.1,0.4-0.2,0.7c-0.1,0.3-0.3,0.6-0.4,0.8
						c-0.2,0.2-0.4,0.4-0.8,0.6s-0.8,0.3-1.3,0.3c-0.5,0-0.9-0.1-1.3-0.3c-0.4-0.2-0.6-0.4-0.9-0.7c-0.2-0.3-0.4-0.6-0.5-1.1
						c-0.1-0.4-0.2-0.9-0.2-1.3s0-0.9,0-1.4c0-3.1,1-4.7,3-4.7c1.7,0,2.5,0.9,2.7,2.8h-1.6c0-0.5-0.2-0.9-0.3-1.1
						c-0.2-0.2-0.4-0.3-0.7-0.3c-0.5,0-0.8,0.3-1,0.8s-0.3,1.4-0.3,2.5c0,0.5,0,0.9,0,1.3c0,0.4,0.1,0.7,0.2,1
						c0.1,0.3,0.2,0.6,0.4,0.8c0.2,0.2,0.4,0.3,0.6,0.3C324.3,287.6,324.6,287.2,324.7,286.2z"/>
					<path fill="#182F4C" d="M329.8,286.3h1.6c0.1,0.9,0.5,1.4,1.2,1.4c0.7,0,1.1-0.4,1.1-1.2c0-0.4-0.1-0.7-0.3-0.9
						c-0.2-0.3-0.6-0.5-1.2-0.8c-0.8-0.4-1.4-0.8-1.7-1.2c-0.3-0.4-0.5-0.9-0.5-1.6c0-0.7,0.2-1.3,0.7-1.8c0.5-0.5,1.1-0.7,1.9-0.7
						c0.5,0,0.9,0.1,1.3,0.2s0.6,0.4,0.8,0.6c0.2,0.3,0.3,0.5,0.4,0.8c0.1,0.3,0.1,0.6,0.1,0.9h-1.6c-0.1-0.9-0.4-1.3-1-1.3
						c-0.6,0-0.9,0.3-0.9,1c0,0.3,0.1,0.6,0.3,0.8c0.2,0.2,0.5,0.4,1.1,0.7c0.9,0.4,1.5,0.8,1.8,1.3c0.4,0.4,0.5,1,0.5,1.8
						c0,0.8-0.2,1.4-0.7,1.9c-0.5,0.5-1.2,0.7-2.1,0.7c-0.5,0-0.9-0.1-1.3-0.2c-0.4-0.1-0.7-0.4-0.9-0.6c-0.2-0.3-0.4-0.6-0.5-0.9
						C329.8,287,329.8,286.7,329.8,286.3z"/>
					<path fill="#182F4C" d="M339.4,288.8h-1.6l-1.7-9.2h1.8c0.5,3.4,0.8,5.7,0.9,6.9h0c0.1-0.7,0.3-1.9,0.7-3.7
						c0.3-1.8,0.5-2.8,0.6-3.1h1.5c0,0.1,0.2,0.8,0.4,2c0.2,1.2,0.4,2.1,0.5,2.9c0.1,0.8,0.2,1.4,0.3,1.9h0c0.1-0.7,0.3-1.9,0.5-3.7
						c0.3-1.7,0.4-2.8,0.5-3.1h1.6l-1.9,9.2h-1.6c-0.1-0.4-0.2-1.1-0.4-2c-0.2-0.9-0.3-1.8-0.5-2.5c-0.1-0.8-0.2-1.4-0.3-1.9h0
						C340.5,283.1,340.1,285.2,339.4,288.8z"/>
					<path fill="#182F4C" d="M349,279.6c1,0,1.7,0.4,2.2,1.1c0.5,0.8,0.7,1.9,0.7,3.5c0,1.7-0.2,2.9-0.7,3.7
						c-0.5,0.8-1.2,1.1-2.3,1.1c-1,0-1.7-0.4-2.2-1.2c-0.5-0.8-0.7-2-0.7-3.7C346,281.1,347,279.6,349,279.6z M349,280.9
						c-0.5,0-0.8,0.3-1,0.8c-0.2,0.5-0.3,1.3-0.3,2.4c0,1.1,0.1,2,0.3,2.6c0.2,0.6,0.5,0.9,1,0.9c0.5,0,0.8-0.3,1-0.8
						c0.2-0.6,0.3-1.4,0.3-2.6c0-1.1-0.1-1.9-0.3-2.4C349.8,281.2,349.5,280.9,349,280.9z"/>
					<path fill="#182F4C" d="M354.4,288.8v-7.7h-2v-1.4h5.6v1.4h-2v7.7H354.4z"/>
				</g>
			</g>
			<g>
				<g>
					<path fill="#182F4C" d="M185.9,243.1v-9.2h4.7v1.4h-3.1v2.4h2.9v1.4h-2.9v3.9H185.9z"/>
					<path fill="#182F4C" d="M194.1,239.2h-0.7v3.9h-1.6v-9.2h2.8c0.8,0,1.5,0.2,1.9,0.6c0.5,0.4,0.7,1,0.7,1.9
						c0,0.6-0.1,1.1-0.4,1.4c-0.2,0.3-0.5,0.6-0.8,0.7c0.4,0.2,0.6,0.4,0.8,0.8c0.2,0.3,0.3,0.9,0.3,1.5v0.4c0,0.7,0,1.3,0.1,1.9
						h-1.6c-0.1-0.3-0.1-1-0.1-1.9v-0.3c0-0.6-0.1-1.1-0.3-1.3C194.9,239.3,194.6,239.2,194.1,239.2z M193.3,235.2v2.6h0.8
						c0.5,0,0.8-0.1,1.1-0.3c0.2-0.2,0.3-0.6,0.3-1c0-0.8-0.4-1.3-1.2-1.3H193.3z"/>
					<path fill="#182F4C" d="M202.3,240.4h1.6c0,0.2,0,0.3-0.1,0.5c0,0.1-0.1,0.4-0.2,0.7s-0.3,0.6-0.4,0.8
						c-0.2,0.2-0.4,0.4-0.8,0.6c-0.4,0.2-0.8,0.3-1.3,0.3c-0.5,0-0.9-0.1-1.3-0.3c-0.4-0.2-0.6-0.4-0.9-0.7
						c-0.2-0.3-0.4-0.6-0.5-1.1c-0.1-0.4-0.2-0.9-0.2-1.3c0-0.4,0-0.9,0-1.4c0-3.1,1-4.7,3-4.7c1.7,0,2.5,0.9,2.7,2.8h-1.6
						c0-0.5-0.2-0.9-0.3-1.1c-0.2-0.2-0.4-0.3-0.7-0.3c-0.5,0-0.8,0.3-1,0.8c-0.2,0.6-0.3,1.4-0.3,2.5c0,0.5,0,0.9,0,1.3
						c0,0.4,0.1,0.7,0.2,1c0.1,0.3,0.2,0.6,0.4,0.8s0.4,0.3,0.6,0.3C201.8,241.9,202.2,241.4,202.3,240.4z"/>
					<path fill="#182F4C" d="M207.3,240.5h1.6c0.1,0.9,0.5,1.4,1.2,1.4c0.7,0,1.1-0.4,1.1-1.2c0-0.4-0.1-0.7-0.3-0.9
						c-0.2-0.3-0.6-0.5-1.2-0.8c-0.8-0.4-1.4-0.8-1.7-1.2c-0.3-0.4-0.5-0.9-0.5-1.6c0-0.7,0.2-1.3,0.7-1.8c0.5-0.5,1.1-0.7,1.9-0.7
						c0.5,0,0.9,0.1,1.3,0.2c0.4,0.2,0.6,0.4,0.8,0.6c0.2,0.3,0.3,0.5,0.4,0.8c0.1,0.3,0.1,0.6,0.1,0.9h-1.6c-0.1-0.9-0.4-1.3-1-1.3
						c-0.6,0-0.9,0.3-0.9,1c0,0.3,0.1,0.6,0.3,0.8c0.2,0.2,0.5,0.4,1.1,0.7c0.9,0.4,1.5,0.8,1.8,1.3c0.4,0.4,0.5,1,0.5,1.8
						c0,0.8-0.2,1.4-0.7,1.9c-0.5,0.5-1.2,0.7-2.1,0.7c-0.5,0-0.9-0.1-1.3-0.2c-0.4-0.1-0.7-0.4-0.9-0.6c-0.2-0.3-0.4-0.6-0.5-0.9
						C207.4,241.2,207.3,240.9,207.3,240.5z"/>
					<path fill="#182F4C" d="M216.9,243.1h-1.6l-1.7-9.2h1.8c0.5,3.4,0.8,5.7,0.9,6.9h0c0.1-0.7,0.3-1.9,0.7-3.7
						c0.3-1.8,0.5-2.8,0.6-3.1h1.5c0,0.1,0.2,0.8,0.4,2c0.2,1.2,0.4,2.1,0.5,2.9c0.1,0.8,0.2,1.4,0.3,1.9h0c0.1-0.7,0.3-1.9,0.5-3.7
						s0.4-2.8,0.5-3.1h1.6l-1.9,9.2h-1.6c-0.1-0.4-0.2-1.1-0.4-2c-0.2-0.9-0.3-1.8-0.5-2.5c-0.1-0.8-0.2-1.4-0.3-1.9h0
						C218.1,237.3,217.6,239.5,216.9,243.1z"/>
					<path fill="#182F4C" d="M226.6,233.8c1,0,1.7,0.4,2.2,1.1c0.5,0.8,0.7,1.9,0.7,3.5c0,1.7-0.2,2.9-0.7,3.7
						c-0.5,0.8-1.2,1.1-2.3,1.1c-1,0-1.7-0.4-2.2-1.2c-0.5-0.8-0.7-2-0.7-3.7C223.6,235.3,224.6,233.8,226.6,233.8z M226.5,235.2
						c-0.5,0-0.8,0.3-1,0.8c-0.2,0.5-0.3,1.3-0.3,2.4c0,1.1,0.1,2,0.3,2.6c0.2,0.6,0.5,0.9,1,0.9c0.5,0,0.8-0.3,1-0.8
						c0.2-0.6,0.3-1.4,0.3-2.6c0-1.1-0.1-1.9-0.3-2.4C227.4,235.4,227,235.2,226.5,235.2z"/>
					<path fill="#182F4C" d="M232,243.1v-7.7h-2v-1.4h5.6v1.4h-2v7.7H232z"/>
				</g>
			</g>
			<g>
				<g>
					<path fill="#182F4C" d="M247.1,334.6v-9.2h4.7v1.4h-3.1v2.4h2.9v1.4h-2.9v3.9H247.1z"/>
					<path fill="#182F4C" d="M255.3,330.7h-0.7v3.9h-1.6v-9.2h2.8c0.8,0,1.5,0.2,1.9,0.6c0.5,0.4,0.7,1,0.7,1.9
						c0,0.6-0.1,1.1-0.4,1.4c-0.2,0.3-0.5,0.6-0.8,0.7c0.4,0.2,0.6,0.4,0.8,0.8c0.2,0.3,0.3,0.9,0.3,1.5v0.4c0,0.7,0,1.3,0.1,1.9
						h-1.6c-0.1-0.3-0.1-1-0.1-1.9v-0.3c0-0.6-0.1-1.1-0.3-1.3C256.1,330.8,255.8,330.7,255.3,330.7z M254.6,326.8v2.6h0.8
						c0.5,0,0.8-0.1,1.1-0.3c0.2-0.2,0.3-0.6,0.3-1c0-0.8-0.4-1.3-1.2-1.3H254.6z"/>
					<path fill="#182F4C" d="M263.5,332h1.6c0,0.2,0,0.3-0.1,0.5c0,0.1-0.1,0.4-0.2,0.7c-0.1,0.3-0.3,0.6-0.4,0.8
						c-0.2,0.2-0.4,0.4-0.8,0.6c-0.4,0.2-0.8,0.3-1.3,0.3c-0.5,0-0.9-0.1-1.3-0.3c-0.4-0.2-0.6-0.4-0.9-0.7
						c-0.2-0.3-0.4-0.6-0.5-1.1c-0.1-0.4-0.2-0.9-0.2-1.3c0-0.4,0-0.9,0-1.4c0-3.1,1-4.7,3-4.7c1.7,0,2.5,0.9,2.7,2.8h-1.6
						c0-0.5-0.2-0.9-0.3-1.1c-0.2-0.2-0.4-0.3-0.7-0.3c-0.5,0-0.8,0.3-1,0.8c-0.2,0.6-0.3,1.4-0.3,2.5c0,0.5,0,0.9,0,1.3
						c0,0.4,0.1,0.7,0.2,1c0.1,0.3,0.2,0.6,0.4,0.8c0.2,0.2,0.4,0.3,0.6,0.3C263,333.4,263.4,332.9,263.5,332z"/>
					<path fill="#182F4C" d="M268.5,332.1h1.6c0.1,0.9,0.5,1.4,1.2,1.4c0.7,0,1.1-0.4,1.1-1.2c0-0.4-0.1-0.7-0.3-0.9
						c-0.2-0.3-0.6-0.5-1.2-0.8c-0.8-0.4-1.4-0.8-1.7-1.2c-0.3-0.4-0.5-0.9-0.5-1.6c0-0.7,0.2-1.3,0.7-1.8c0.5-0.5,1.1-0.7,1.9-0.7
						c0.5,0,0.9,0.1,1.3,0.2c0.4,0.2,0.6,0.4,0.8,0.6c0.2,0.3,0.3,0.5,0.4,0.8c0.1,0.3,0.1,0.6,0.1,0.9h-1.6c-0.1-0.9-0.4-1.3-1-1.3
						c-0.6,0-0.9,0.3-0.9,1c0,0.3,0.1,0.6,0.3,0.8c0.2,0.2,0.5,0.4,1.1,0.7c0.9,0.4,1.5,0.8,1.8,1.3c0.4,0.4,0.5,1,0.5,1.8
						c0,0.8-0.2,1.4-0.7,1.9c-0.5,0.5-1.2,0.7-2.1,0.7c-0.5,0-0.9-0.1-1.3-0.2c-0.4-0.1-0.7-0.4-0.9-0.6c-0.2-0.3-0.4-0.6-0.5-0.9
						C268.6,332.8,268.6,332.4,268.5,332.1z"/>
					<path fill="#182F4C" d="M278.1,334.6h-1.6l-1.7-9.2h1.8c0.5,3.4,0.8,5.7,0.9,6.9h0c0.1-0.7,0.3-1.9,0.7-3.7
						c0.3-1.8,0.5-2.8,0.6-3.1h1.5c0,0.1,0.2,0.8,0.4,2s0.4,2.1,0.5,2.9c0.1,0.8,0.2,1.4,0.3,1.9h0c0.1-0.7,0.3-1.9,0.5-3.7
						c0.3-1.7,0.4-2.8,0.5-3.1h1.6l-1.9,9.2h-1.6c-0.1-0.4-0.2-1.1-0.4-2c-0.2-0.9-0.3-1.8-0.5-2.5c-0.1-0.8-0.2-1.4-0.3-1.9h0
						C279.3,328.9,278.9,331,278.1,334.6z"/>
					<path fill="#182F4C" d="M287.8,325.3c1,0,1.7,0.4,2.2,1.1c0.5,0.8,0.7,1.9,0.7,3.5c0,1.7-0.2,2.9-0.7,3.7
						c-0.5,0.8-1.2,1.1-2.3,1.1c-1,0-1.7-0.4-2.2-1.2c-0.5-0.8-0.7-2-0.7-3.7C284.8,326.9,285.8,325.3,287.8,325.3z M287.8,326.7
						c-0.5,0-0.8,0.3-1,0.8c-0.2,0.5-0.3,1.3-0.3,2.4c0,1.1,0.1,2,0.3,2.6s0.5,0.9,1,0.9c0.5,0,0.8-0.3,1-0.8
						c0.2-0.6,0.3-1.4,0.3-2.6c0-1.1-0.1-1.9-0.3-2.4C288.6,327,288.2,326.7,287.8,326.7z"/>
					<path fill="#182F4C" d="M293.2,334.6v-7.7h-2v-1.4h5.6v1.4h-2v7.7H293.2z"/>
				</g>
			</g>
			<g>
				<g>
					<path fill="#182F4C" d="M185.9,380.4v-9.2h4.7v1.4h-3.1v2.4h2.9v1.4h-2.9v3.9H185.9z"/>
					<path fill="#182F4C" d="M194.1,376.5h-0.7v3.9h-1.6v-9.2h2.8c0.8,0,1.5,0.2,1.9,0.6c0.5,0.4,0.7,1,0.7,1.9
						c0,0.6-0.1,1.1-0.4,1.4c-0.2,0.3-0.5,0.6-0.8,0.7c0.4,0.2,0.6,0.4,0.8,0.8c0.2,0.3,0.3,0.9,0.3,1.5v0.4c0,0.7,0,1.3,0.1,1.9
						h-1.6c-0.1-0.3-0.1-1-0.1-1.9v-0.3c0-0.6-0.1-1.1-0.3-1.3C194.9,376.6,194.6,376.5,194.1,376.5z M193.3,372.6v2.6h0.8
						c0.5,0,0.8-0.1,1.1-0.3c0.2-0.2,0.3-0.6,0.3-1c0-0.8-0.4-1.3-1.2-1.3H193.3z"/>
					<path fill="#182F4C" d="M202.3,377.7h1.6c0,0.2,0,0.3-0.1,0.5c0,0.1-0.1,0.4-0.2,0.7s-0.3,0.6-0.4,0.8
						c-0.2,0.2-0.4,0.4-0.8,0.6c-0.4,0.2-0.8,0.3-1.3,0.3c-0.5,0-0.9-0.1-1.3-0.3c-0.4-0.2-0.6-0.4-0.9-0.7
						c-0.2-0.3-0.4-0.6-0.5-1.1c-0.1-0.4-0.2-0.9-0.2-1.3c0-0.4,0-0.9,0-1.4c0-3.1,1-4.7,3-4.7c1.7,0,2.5,0.9,2.7,2.8h-1.6
						c0-0.5-0.2-0.9-0.3-1.1c-0.2-0.2-0.4-0.3-0.7-0.3c-0.5,0-0.8,0.3-1,0.8c-0.2,0.6-0.3,1.4-0.3,2.5c0,0.5,0,0.9,0,1.3
						c0,0.4,0.1,0.7,0.2,1c0.1,0.3,0.2,0.6,0.4,0.8c0.2,0.2,0.4,0.3,0.6,0.3C201.8,379.2,202.2,378.7,202.3,377.7z"/>
					<path fill="#182F4C" d="M207.3,377.8h1.6c0.1,0.9,0.5,1.4,1.2,1.4c0.7,0,1.1-0.4,1.1-1.2c0-0.4-0.1-0.7-0.3-0.9
						c-0.2-0.3-0.6-0.5-1.2-0.8c-0.8-0.4-1.4-0.8-1.7-1.2c-0.3-0.4-0.5-0.9-0.5-1.6c0-0.7,0.2-1.3,0.7-1.8c0.5-0.5,1.1-0.7,1.9-0.7
						c0.5,0,0.9,0.1,1.3,0.2c0.4,0.2,0.6,0.4,0.8,0.6c0.2,0.3,0.3,0.5,0.4,0.8c0.1,0.3,0.1,0.6,0.1,0.9h-1.6c-0.1-0.9-0.4-1.3-1-1.3
						c-0.6,0-0.9,0.3-0.9,1c0,0.3,0.1,0.6,0.3,0.8c0.2,0.2,0.5,0.4,1.1,0.7c0.9,0.4,1.5,0.8,1.8,1.3c0.4,0.4,0.5,1,0.5,1.8
						c0,0.8-0.2,1.4-0.7,1.9s-1.2,0.7-2.1,0.7c-0.5,0-0.9-0.1-1.3-0.2c-0.4-0.1-0.7-0.4-0.9-0.6c-0.2-0.3-0.4-0.6-0.5-0.9
						C207.4,378.6,207.3,378.2,207.3,377.8z"/>
					<path fill="#182F4C" d="M216.9,380.4h-1.6l-1.7-9.2h1.8c0.5,3.4,0.8,5.7,0.9,6.9h0c0.1-0.7,0.3-1.9,0.7-3.7
						c0.3-1.8,0.5-2.8,0.6-3.1h1.5c0,0.1,0.2,0.8,0.4,2c0.2,1.2,0.4,2.1,0.5,2.9c0.1,0.8,0.2,1.4,0.3,1.9h0c0.1-0.7,0.3-1.9,0.5-3.7
						c0.3-1.7,0.4-2.8,0.5-3.1h1.6l-1.9,9.2h-1.6c-0.1-0.4-0.2-1.1-0.4-2c-0.2-0.9-0.3-1.8-0.5-2.5c-0.1-0.8-0.2-1.4-0.3-1.9h0
						C218.1,374.7,217.6,376.8,216.9,380.4z"/>
					<path fill="#182F4C" d="M226.6,371.1c1,0,1.7,0.4,2.2,1.1c0.5,0.8,0.7,1.9,0.7,3.5c0,1.7-0.2,2.9-0.7,3.7
						c-0.5,0.8-1.2,1.1-2.3,1.1c-1,0-1.7-0.4-2.2-1.2c-0.5-0.8-0.7-2-0.7-3.7C223.6,372.7,224.6,371.1,226.6,371.1z M226.5,372.5
						c-0.5,0-0.8,0.3-1,0.8c-0.2,0.5-0.3,1.3-0.3,2.4c0,1.1,0.1,2,0.3,2.6c0.2,0.6,0.5,0.9,1,0.9c0.5,0,0.8-0.3,1-0.8
						c0.2-0.6,0.3-1.4,0.3-2.6c0-1.1-0.1-1.9-0.3-2.4C227.4,372.8,227,372.5,226.5,372.5z"/>
					<path fill="#182F4C" d="M232,380.4v-7.7h-2v-1.4h5.6v1.4h-2v7.7H232z"/>
				</g>
			</g>
		</g>
	</g>
</g>
</svg>
