<?xml version="1.0" encoding="utf-8"?>
<!-- Generator: Adobe Illustrator 19.0.0, SVG Export Plug-In . SVG Version: 6.00 Build 0)  -->
<svg version="1.1" id="Layer_1" xmlns="http://www.w3.org/2000/svg" xmlns:xlink="http://www.w3.org/1999/xlink" x="0px" y="0px"
	 viewBox="85 -75 480 550" enable-background="new 85 -75 480 550" xml:space="preserve">
<rect x="85" y="-75" fill="#BEC4CE" width="480" height="550"/>
<g>
	<path fill="#FEFEFE" d="M253.4,205.5c30.8,0,55.7,25,55.7,55.8c-0.1,30.7-25.1,55.6-56,55.5c-30.6-0.1-55.4-24.9-55.4-55.6
		C197.7,229.6,223,205.4,253.4,205.5z"/>
	<path fill="#FEFEFE" d="M422.1,310.8c-10.9,5.5-22.4,7.4-34.5,5.4c-11.9-1.9-22-7.2-30.5-15.6c-8.9-8.9-14.2-19.7-15.8-32.3
		c-1.9-15.4,2-29.3,11.5-41.5c7.1-9.1,16.3-15.5,27.5-18.7c15.1-4.4,29.7-2.9,43.5,4.8c0.7,0.4,1.4,0.8,2,1.2
		c5.9,3.7,11,8.4,15.2,14c1.7,2.3,3.3,4.7,4.6,7.3l0,0c3.1,6,5.2,12.2,5.9,19c0.3,2.8,0.7,5.7,0.5,8.5c-0.4,5.6-1.1,11.2-3.1,16.5
		c-1.8,5.2-4.2,10-7.4,14.4C436.6,301,430,306.7,422.1,310.8z"/>
	<path fill="#FEFEFE" d="M294.3,90.7c16.6-9.3,33.7-10.2,51.2-2.7c6,2.7,11.3,6.3,16,10.9c3.8,3.7,6.9,7.9,9.5,12.5
		c2.8,5,4.7,10.2,6,15.7c1.4,6,1.3,12.1,0.8,18.2c-0.3,3.5-1.1,7-2.2,10.3c-1.5,5.1-3.9,9.8-6.9,14.3c-3.9,5.8-8.8,10.6-14.5,14.7
		c-1.5,1.1-3.2,2-4.8,2.9l0,0c-6.5,3.6-13.4,5.8-20.8,6.5c-10.5,1.1-20.5-0.5-30-5.1c-9-4.3-16.2-10.6-21.9-18.8
		c-4.2-6.1-7-12.7-8.5-19.9c-1.2-5.6-1.5-11.4-0.9-17.1c1.5-13.2,6.9-24.6,16.3-34C286.7,95.8,290.4,93.1,294.3,90.7z"/>
	<path fill="#B3C3EB" d="M246.1,247.2c0-8.3,0-14,0-19.8c0-4,3-6.7,6.9-6.9c3.3-0.2,7,3,7.1,6.8c0.4,17.2,0.1,34.4,0.2,51.6
		c0,1.2,0.3,2,1.2,2.8c4.8,4,5.5,11.4,2.2,16.5c-2.8,4.2-8.9,6.5-13.8,5.2c-6.9-1.8-10.8-8.7-9.1-15.4c0.6-2.5,2-4.7,4-6.4
		c0.7-0.6,1-1.1,1-2c0-1.6,0-3.3,0-4.9C245.8,264.7,246.3,254.7,246.1,247.2z"/>
	<path fill="#182F4C" d="M402,246.7c2.9-0.4,5.4-0.8,7.9-1.2c2.2-0.4,4.5-0.7,6.7-1.1c0.9-0.2,1.7-0.1,2.2,0.7
		c0.5,0.9,0.2,1.6-0.4,2.3c-10.6,15-21.1,29.9-31.7,44.9c-0.6,0.8-1.2,1.7-1.8,2.5c-0.6,0.9-1.3,1.6-2.4,1c-1.2-0.6-0.9-1.6-0.7-2.6
		c1-3.7,2.1-7.4,3.2-11.1c1.8-6.3,3.6-12.6,5.5-18.9c0.3-1,0.2-1.3-1-1.1c-2.9,0.6-5.9,1.2-8.9,1.6c-2,0.3-2.7-0.6-2.1-2.5
		c3.3-10.5,6.7-21,10-31.5c0.4-1.4,1.2-1.9,2.7-2c6-0.5,12.1-1,18.1-1.6c0.5,0,1-0.1,1.5-0.1c1.4,0.2,1.9,1.4,1.1,2.8
		c-1.9,3.3-3.7,6.6-5.6,9.9C405.1,241.3,403.7,243.8,402,246.7z"/>
	<path fill="#192F4B" d="M326.8,138.5c3.8,1.9,4.3,5.3,4.4,8.7c0.2,5.4-0.2,10.8,0.5,16.2c0.1,0.6-0.1,0.9-0.8,0.9
		c-0.2,0-0.5,0-0.7,0c-3.8,0-3.9,0-4-3.9c-0.1-4.2-0.1-8.5-0.2-12.7c0-0.9-0.1-1.8-0.2-2.6c-0.6-3.1-1.8-4.1-4.9-4.2
		c-3.8-0.1-3.8-0.1-3.8,3.6c0,6.2,0,12.3,0,18.5c0,1.1-0.3,1.4-1.4,1.4c-4.1,0-4.1,0-4.1-4.1c0-14.8,0-29.7,0-44.5
		c0-1.4,0.4-1.8,1.8-1.8c2.8,0.1,5.6,0,8.4,0.1c6,0.3,8.8,2.7,9.7,8.7c0.5,3.3,0.4,6.7-0.3,10C330.6,135.2,329.3,137.2,326.8,138.5z
		"/>
	<path fill="#192F4C" d="M342.5,138.9c0,4.6,0,9.2,0,13.8c0,1.6,0.2,3.3,0.8,4.8c0.8,1.9,2.2,2.7,4.3,2.6c1.9-0.1,3-1,3.7-3
		c0.6-1.9,0.5-3.8,0.5-5.7c0-1.2,0.4-1.5,1.5-1.5c4.2,0,4.2,0,4,4.1c-0.1,1.2-0.2,2.4-0.4,3.5c-1.6,7.1-10.5,10.3-16.3,5.7
		c-2.6-2-3.2-5-3.5-8c-0.2-1.9-0.2-3.8-0.2-5.8c0-7.4,0-14.9,0-22.3c0-2.3,0-4.5,0.7-6.7c1.6-5.2,6.2-7.8,11.8-6.8
		c4.5,0.9,6.9,3.5,7.5,8.4c0.2,1.6,0.1,3.2,0.2,4.9c0,0.8-0.2,1.1-1.1,1.1c-4.2,0.2-4.3,0.2-4.4-3.9c0-0.8-0.2-1.7-0.4-2.5
		c-0.6-2.2-2.1-3.3-4.3-3.3c-2.1,0.1-3.7,1.3-4.2,3.5c-0.3,1.5-0.4,3.1-0.4,4.7C342.4,130.6,342.4,134.7,342.5,138.9
		C342.4,138.9,342.4,138.9,342.5,138.9z"/>
	<path fill="#192F4C" d="M289.6,139.2c0-7.9,0-15.8,0-23.7c0-1.1,0.2-1.6,1.5-1.5c4.9,0.1,9.8,0.1,14.6,0c1.3,0,1.6,0.4,1.6,1.6
		c-0.1,3.4,0,3.4-3.4,3.4c-2.5,0-5,0-7.5,0c-1,0-1.3,0.3-1.2,1.3c0,4.6,0,9.2,0,13.8c0,1,0.4,1.3,1.3,1.3c3,0,5.9,0,8.9,0
		c1,0,1.3,0.3,1.3,1.4c0,3.7,0,3.7-3.7,3.7c-1.9,0-3.7,0-5.6,0c-2.5,0-2.2-0.2-2.2,2.1c0,6.8,0,13.5,0,20.3c0,1.3-0.3,1.7-1.6,1.7
		c-3.8-0.1-3.8,0-3.8-3.9C289.6,153.4,289.6,146.3,289.6,139.2z"/>
	<path fill="#FE5A00" d="M248.7,272.9c0-3.1,0-6.2,0-9.3c0-1.2,0.4-1.6,1.6-1.5c2,0.1,3.9,0.1,5.9,0c1.3,0,1.8,0.4,1.8,1.8
		c0,5.8,0,11.5,0,17.3c0,1.3,0.4,2.3,1.4,3.2c3,2.6,3.9,6.6,2.5,10.1c-1.3,3.3-4.9,5.7-8.4,5.7c-3.4,0-6.9-2.3-8.2-5.4
		c-1.5-3.6-1-6.9,1.7-9.7c1.3-1.4,1.9-2.7,1.8-4.5C248.6,278,248.6,275.4,248.7,272.9C248.6,272.9,248.7,272.9,248.7,272.9z"/>
	<path fill="#F4F8FD" d="M250.9,251.4c-0.7-0.4-2.2,0.6-2.1-1c0-1.4,1.4-0.8,2.1-0.8c0.8,0,2.2-0.6,2.2,0.8
		C253.1,252.1,251.6,251,250.9,251.4z"/>
	<path fill="#F1F6FC" d="M250.9,256.1c-0.7-0.3-2.1,0.6-2.1-0.9c0-1.6,1.4-0.8,2.1-0.9c0.8,0,2.1-0.5,2.1,0.8
		C253.1,256.7,251.7,255.9,250.9,256.1z"/>
	<path fill="#F0F7FC" d="M250.8,233c-0.6-0.2-1.9,0.5-2-0.9c0-1.5,1.3-0.7,2-0.9c0.4-0.1,0.9,0,1.3,0c0.5,0,1,0.2,1,0.8
		c0,0.7-0.5,0.9-1.1,0.9C251.7,233,251.3,233,250.8,233z"/>
	<path fill="#F3F8FD" d="M250.8,240.4c0.8,0.3,2.2-0.5,2.2,0.9c0,1.5-1.4,0.8-2.2,0.8c-0.7,0-2,0.5-2.1-0.8
		C248.8,239.8,250.1,240.7,250.8,240.4z"/>
	<path fill="#F2F7FC" d="M250.8,258.7c0.9,0.3,2.2-0.4,2.2,0.9c0,1.5-1.4,0.9-2.2,0.9c-0.8,0-2.2,0.5-2.1-1
		C248.9,258.1,250.3,259.2,250.8,258.7z"/>
	<path fill="#F5FBFE" d="M250.9,235.8c0.8,0.4,2.1-0.5,2.1,0.8c0,1.3-1.3,0.9-2.1,0.8c-0.7,0-2.1,0.6-2.1-0.7
		C248.8,235.2,250.3,236.4,250.9,235.8z"/>
	<path fill="#F6FAFD" d="M251.1,245.1c0.6,0.3,1.9-0.6,1.9,0.7c0,1.3-1.4,0.8-2.1,0.8c-0.7,0-2.1,0.6-2.1-0.8c0-1.2,1.3-0.5,2-0.7
		C250.9,245.1,251,245.1,251.1,245.1z"/>
	<path fill="#FEFEFE" d="M326.3,127.4c0,1.5,0,3.3-0.4,5c-0.6,2.5-2.1,3.6-4.8,3.9c-4,0.4-4,0.4-4-3.6c0-4.2,0.1-8.4,0-12.6
		c0-1.3,0.4-1.5,1.6-1.5c6.2-0.3,7.6,2.1,7.6,7.6C326.3,126.5,326.3,126.9,326.3,127.4z"/>
</g>
</svg>
