<?xml version="1.0" encoding="utf-8"?>
<!-- Generator: Adobe Illustrator 19.0.0, SVG Export Plug-In . SVG Version: 6.00 Build 0)  -->
<svg version="1.1" id="Layer_1" xmlns="http://www.w3.org/2000/svg" xmlns:xlink="http://www.w3.org/1999/xlink" x="0px" y="0px"
	 viewBox="0 0 480 460" enable-background="new 0 0 480 460" xml:space="preserve">
<rect x="-8.3" y="-6.9" fill="#F3C848" width="495" height="473.5"/>
<g id="XMLID_87_">
	<path id="XMLID_85_" fill="#FFFFFF" d="M318.2,193.1c-6.2,3.1-12.7,4.2-19.6,3.1c-6.7-1.1-12.6-4-17.3-8.9c-5-5.1-8.1-11.2-9-18.4
		c-1.1-8.8,1.2-16.7,6.6-23.6c4-5.2,9.3-8.8,15.7-10.6c8.6-2.5,16.9-1.6,24.7,2.7c0.4,0.2,0.8,0.5,1.2,0.7c3.4,2.1,6.3,4.7,8.7,8
		c1,1.3,1.9,2.7,2.6,4.2l0,0c1.8,3.4,2.9,7,3.4,10.8c0.2,1.6,0.4,3.2,0.3,4.8c-0.2,3.2-0.6,6.4-1.7,9.4c-1,2.9-2.4,5.7-4.3,8.2
		C326.4,187.6,322.6,190.8,318.2,193.1z"/>
	<path id="XMLID_82_" fill="#192F4D" d="M306.7,156.6c1.6-0.2,3.1-0.5,4.5-0.7c1.2-0.2,2.6-0.4,3.8-0.6c0.5-0.1,0.9-0.1,1.2,0.4
		c0.3,0.5,0.1,0.9-0.2,1.3c-6,8.5-12,17-18,25.5c-0.3,0.5-0.7,0.9-1,1.5c-0.3,0.5-0.7,0.9-1.4,0.5c-0.7-0.3-0.5-0.9-0.4-1.5
		c0.6-2.1,1.2-4.2,1.8-6.3c1-3.6,2.1-7.1,3.1-10.7c0.2-0.5,0.1-0.8-0.5-0.6c-1.7,0.4-3.3,0.7-5,0.9c-1.1,0.2-1.6-0.3-1.2-1.4
		c1.9-6,3.8-11.9,5.7-17.9c0.2-0.8,0.7-1.1,1.6-1.2c3.4-0.2,6.9-0.6,10.3-0.9c0.3,0,0.5-0.1,0.9,0c0.8,0.1,1.1,0.8,0.6,1.6
		c-1.1,1.9-2.1,3.7-3.2,5.6C308.5,153.6,307.6,155,306.7,156.6z"/>
</g>
<g id="XMLID_88_">
	<path id="XMLID_86_" fill="#FFFFFF" d="M209.6,96.7c17.5,0,31.7,14.3,31.7,31.7S227,160,209.4,160c-17.4-0.1-31.6-14.1-31.6-31.6
		C177.9,110.4,192.3,96.7,209.6,96.7z"/>
	<path id="XMLID_83_" fill="#B4C2E4" d="M205.4,120.4c0-4.7,0-8,0-11.2c0-2.2,1.7-3.8,4-4c1.9-0.1,4,1.7,4,3.9
		c0.2,9.8,0.1,19.5,0.2,29.4c0,0.7,0.2,1.2,0.7,1.6c2.8,2.2,3.1,6.5,1.2,9.4c-1.6,2.4-5,3.7-7.8,2.9c-3.9-1-6.1-4.9-5.2-8.8
		c0.4-1.5,1.2-2.7,2.3-3.6c0.4-0.3,0.5-0.6,0.5-1.2c0-0.9,0-1.9,0-2.8C205.2,130.3,205.5,124.7,205.4,120.4z"/>
	<path id="XMLID_78_" fill="#F15D22" d="M206.9,135.1c0-1.8,0-3.6,0-5.3c0-0.7,0.2-0.9,0.9-0.9c1.1,0,2.2,0.1,3.3,0c0.8,0,1,0.2,1,1
		c0,3.3,0,6.6,0,9.8c0,0.8,0.2,1.3,0.8,1.8c1.7,1.5,2.2,3.8,1.4,5.7c-0.8,1.9-2.8,3.3-4.8,3.3c-1.9,0-3.9-1.3-4.7-3.1
		c-0.9-2-0.5-4,1-5.5c0.8-0.8,1.1-1.6,1-2.6C206.8,137.9,206.9,136.5,206.9,135.1L206.9,135.1z"/>
	<path id="XMLID_77_" fill="#F4F8FD" d="M208.2,122.8c-0.4-0.2-1.2,0.4-1.2-0.5c0-0.9,0.8-0.5,1.2-0.5c0.5,0,1.2-0.3,1.2,0.5
		C209.4,123.2,208.6,122.6,208.2,122.8z"/>
	<path id="XMLID_76_" fill="#F1F6FC" d="M208.2,125.5c-0.4-0.2-1.2,0.3-1.2-0.5c0-0.9,0.8-0.5,1.2-0.5c0.5,0,1.2-0.3,1.2,0.5
		C209.4,125.8,208.6,125.4,208.2,125.5z"/>
	<path id="XMLID_75_" fill="#F0F8FD" d="M208.1,112.4c-0.3-0.1-1.1,0.3-1.1-0.5c0-0.9,0.7-0.4,1.2-0.5c0.2-0.1,0.5,0,0.8,0
		s0.5,0.1,0.5,0.5c0,0.4-0.2,0.5-0.6,0.5C208.6,112.4,208.4,112.4,208.1,112.4z"/>
	<path id="XMLID_74_" fill="#F2F7FC" d="M208.2,116.6c0.5,0.2,1.2-0.3,1.2,0.5c0,0.9-0.8,0.5-1.2,0.5c-0.4,0-1.2,0.3-1.2-0.5
		C207,116.2,207.8,116.7,208.2,116.6z"/>
	<path id="XMLID_73_" fill="#F2F7FC" d="M208.2,126.9c0.5,0.2,1.2-0.2,1.2,0.5c0,0.9-0.8,0.5-1.2,0.5c-0.5,0-1.2,0.3-1.2-0.5
		C207,126.6,207.8,127.2,208.2,126.9z"/>
	<path id="XMLID_72_" fill="#F5FBFE" d="M208.2,114c0.5,0.2,1.2-0.2,1.2,0.5c0,0.8-0.8,0.5-1.2,0.5s-1.2,0.3-1.2-0.4
		C207,113.6,207.9,114.3,208.2,114z"/>
	<path id="XMLID_71_" fill="#F6FAFE" d="M208.3,119.3c0.3,0.2,1.1-0.3,1.1,0.4c0,0.8-0.8,0.5-1.2,0.5c-0.4,0-1.2,0.4-1.2-0.5
		c0-0.7,0.8-0.3,1.2-0.4C208.2,119.3,208.2,119.3,208.3,119.3z"/>
</g>
<g id="XMLID_92_">
	<path id="XMLID_28_" fill="#BC5227" d="M446.4,221.3c0,0.9,0,1.7,0,2.6c-0.5,0.6-0.3,1.4-0.5,2c-1,6-3.3,8.1-9.4,8.3
		c-4.4,0.2-5.2,0.7-4.4,4.9c1.4,8.8,0.9,17.7,1.3,26.5c0.7,16,2.1,32,2,48c0,2.9,0.9,5.6,0.9,8.5c-0.1,7.4-1.5,8.9-8.9,9.5
		c-6.6,1.4-13,2.7-19.7,2.3c-3.7,0.4-7.3,0.3-11,0.1c-6.6,0.7-13.2,0-19.7-1.6c-7.9-0.9-9.5-3.3-8.7-11c0.8-6.8,1.4-13.7,1.4-20.6
		c0-9.2,0.3-18.4,0.6-27.5c-0.2-4,0.6-8.1-0.7-12.1c-0.7-2.8,1.6-5.4,0.9-7.3c-0.1-1.4-1-0.7-0.4-0.9c1-0.4,0,3.9-1.3,5.5
		c-2,0.8-3.9,1.7-6.2,1.3c-1.6,0.2-3.3,0.8-4.7-0.8c0-1.2,0-2.3,0-3.5c1.3-7.5,0.9-15.1,0.9-22.7c-0.1-19,1.6-37.8,6.1-56.2
		c1.4-5.9,3.1-11.7,8.2-15.7c2-1.6,4.1-3.3,7-1.6c1.2,1.8,2.1,3.7,2.8,5.8c0.5,1.1,1.1,2.2,1.4,3.4c1.5,6.6,5.9,11,11.4,14.4
		c0.9,0.5,1.8,1.2,2.3,2.1c2,2.7,1.2,5.3-0.6,7.8c-1.7,2.6-3.4,5.1-6.1,6.9c-2.4,1.5-1.9,4.6-0.9,7.1c0.3,1,1.3,1.9,1.5,3.1
		c0.9,4.3-1.4,7.8-2.4,11.7c-1.4,5.4-1.5,5.4,3.6,7c7.6,2.2,15.1,4.6,22.6,6.8c2.3,0.7,4.1,1,5.2-1.9c1.1-2.9,0.4-4.4-2.5-5.7
		c-4.1-1.8-8.1-3.7-11.8-6.1c-3.1-2-5-4.7-4.3-8.6c-0.3-2.9,0.3-5.4,2.4-7.7c2.4-1.7,4.6-0.7,7,0.2c4.2,1.5,8.1,3.7,12.5,4.6
		c2.6,0.4,4-0.3,4.8-2.9c1-3.9,2.5-7.7,3.6-11.5c0.9-2.9,0.4-4.6-2.8-5.4c-2.2-0.5-4.4-1.3-6.4-2.6c-2.9-2.8-6-4.9-10.2-3.3
		c-0.7,0-1.2-0.2-1.8-0.5c-2.1-1.9-0.9-3.4,0.5-5c1.9-2,4.3-3.7,5.4-6.4c0.3-0.5,0.7-1,1.1-1.4c2.2-1.4,3.3-3.8,4.6-6
		c2.2-2.3,2.6-6.2,6.4-7.1c5,0.5,8,3.7,10,7.8c3.9,8.4,5.3,17.5,6.1,26.7c0.5,5.5,1.1,11.1,0.9,16.7
		C446.2,213.4,445.5,217.4,446.4,221.3z"/>
	<path id="XMLID_27_" fill="#F3C848" d="M445.7,209.1c-1.4-13.1-3.2-26.2-7-38.9c-1.6-5.4-4.6-9.4-10.3-11.1c-0.7-0.3-1.4-0.3-2-0.4
		c-0.4-0.2-0.9-0.3-1.2-0.3c-8.8-3.2-8.4-3.2-7.6-12.4c0.7-7.5,0.9-15.1-0.8-22.6c-1.4-6.8-6.7-11.2-13.3-11.3
		c-6.6-0.1-11.3,3.6-13.4,10.4c-2,6.2-1.4,12.5,0.2,18.6c2,7.7-0.1,13.4-6.9,17.6c-1.7,0.1-2,2.7-4.1,2.1c-0.1-1.2-0.5-1.4-1.6-0.9
		c-5.4,2.4-8.3,6.8-9.8,12.3c-5.8,20.7-8.1,41.8-8.6,63.1c-0.1,6,0,12-0.8,18c-0.1,0.9,0.4,2.1-0.9,2.6c0-47.7,0-95.5-0.1-143.3
		c0-2.7,0.7-3.2,3.3-3.2c27.4,0.1,54.8,0.2,82.2,0c3.2,0,3.4,1,3.4,3.7c-0.1,32.2-0.1,64.2-0.1,96.4
		C446,209.9,445.7,209.8,445.7,209.1z"/>
	<path id="XMLID_26_" fill="#F3C848" d="M426.5,330.3c8.1-1.7,8-1.7,7.6-10.2c-1.4-28.2-2.6-56.3-4-84.5c-0.1-1.4,0-2.8,0-4.4
		c1.3,0.3,2.4,0.4,3.5,0.7c7.4,1.6,9.6,0.3,12-7.1c0.1-0.3,0.5-0.6,0.8-0.9c0,60.3,0,120.6,0.1,181c0,3-0.6,3.7-3.6,3.6
		c-8.3-0.3-16.7-0.1-25-0.1c-0.2-2.2,1.8-2.3,3.1-2.8c2.6-0.9,3.1-2.5,2.3-4.9c-0.8-2.6-2.5-4.8-2.5-7.7c-0.8-4-2.3-7.9-0.2-11.9
		c2.5-2.1,3-4.8,3.2-8c1.2-12.1,0.6-24.2,0.8-36.3C424.7,334.4,424.7,332.1,426.5,330.3z"/>
	<path id="XMLID_25_" fill="#F3C848" d="M357.6,259.3c1.4-0.2,2.7-0.3,4.1-0.5c2,1.2,1.6,3.1,1.4,5c-0.6,5.2,0.9,9.9,3.6,15.2
		c0.9-2.8,0.1-5.6,2.6-6.9c1-0.3,1.5,0.2,2,1.1c0.3,15.9,0.3,31.7-1,47.6c-0.8,8.4-0.9,8.4,7.3,10.4c1.4,1.3,1.8,2.9,1.7,4.7
		C379,348,380,360,380.1,372c0.1,3.6,0.5,6.8,3.3,9.3c1.4,3.2,1,6.5,0.5,9.8c0,2.6-1.4,4.8-2.4,7.1c-1.4,3.2-2.4,6.2,1.9,8.2
		c0.7,0.3,1.4,1.1,0.9,2.1c-7.9,0-15.8-0.2-23.7,0.1c-2.6,0.1-3.1-0.5-3.1-3.1C357.7,356.6,357.6,308,357.6,259.3z"/>
	<path id="XMLID_24_" fill="#F3C848" d="M396.4,332.8c3.7-0.1,7.5-0.1,11.1-0.2c3.7,2.8,2.9,7.2,3.5,11c1.6,10.8,1.5,21.8,2.6,32.7
		c0.2,1.3,0.4,2.6,0.8,3.7c0.9,3.4,1.4,6.9,0.5,10.4c-0.1,2.7-0.9,5.4-1.5,8c-0.8,3.1-1,6,2.2,8c0.6,0.3,0.9,1.1,0.6,1.9
		c-10,0-20.1,0-30.1,0c-0.3-1.5,0.9-2,1.9-2.4c3.3-1,3.4-3.4,2.9-6.1c-0.5-2.6-1.3-5.3-1.3-8c-0.3-3.8-0.6-7.7,0.4-11.6
		c2-6.2,1.2-12.8,1.8-19.1c0.7-7.7,1.1-15.4,2-23.1C394.1,336,394.6,334.1,396.4,332.8z"/>
	<path id="XMLID_23_" fill="#1A3755" d="M391,392c0.6,3.1,1.2,6.1,1.9,9.1c0.9,4.1-0.6,6.2-4.8,6.4c-0.8,0-1.8-0.3-2,0.9
		c-0.6,0-1.2,0-1.7,0c-0.2-0.3-0.3-0.6-0.4-0.7c-7-2.6-7.2-3.2-4-9.9c0.9-1.9,1.7-3.9,2.6-5.8C385.1,387.4,388.3,387.5,391,392z"/>
	<path id="XMLID_22_" fill="#1A3655" d="M416.2,408.3c-5.9-3.1-5.9-3.1-4.4-10.3c0.5-2.4,1.2-4.7,1.8-7c4-3.9,6.6-3.1,8.7,2.6
		c1,2.2,2.1,4.3,3,6.6c1.7,4.4,0.7,6.1-3.9,7.2c-1.1,0.3-2.6-0.7-3.3,0.9C417.4,408.3,416.8,408.3,416.2,408.3z"/>
	<path id="XMLID_21_" fill="#D0854E" d="M445.7,209.1c0.3,0,0.5,0,0.8,0.2c0,4,0,8.1,0,12.1C444.6,217.3,445.9,213.2,445.7,209.1z"
		/>
	<path id="XMLID_20_" fill="#2A4571" d="M382.1,157.5c1.5-1.1,3.1-2,4.4-3.3c2.6-2.6,3.5-5.6,2.6-9.4c-1.7-7.4-2.9-14.9-1-22.5
		c2-8.1,7.5-12.5,15.7-12.3c7.7,0.2,13.9,5.4,14.8,13.4c1.2,9.5,2.6,19.1-0.9,28.4c-0.8,2,0.5,2,1.8,2.5c2.7,0.9,5.9,1.3,7.7,4
		c-0.9,3-3.1,5.3-5,7.7c-3.2,3.5-5.9,7.4-9.4,10.5c-6.5,5.5-23.5,4.8-29.3-6.2c-0.2-0.4-0.3-0.9-0.2-1.3c-0.3-1.3-0.8-2.6-2-3.3
		C381.5,163,379.6,160.1,382.1,157.5z"/>
	<path id="XMLID_19_" fill="#193655" d="M396.4,332.8c-2.1,14.9-3.1,29.9-3.5,44.9c0,1.4,0,2.6-1.6,3.1c-3.1,3.1-4.8,3.3-8.6,0.9
		c-3.1-0.6-4.3-2.2-4.3-5.6c-0.2-15.1-1.4-30-0.9-45.1C383.8,331.6,390.1,332.2,396.4,332.8z"/>
	<path id="XMLID_18_" fill="#193655" d="M413,380.8c-2-3.6-1.5-7.7-1.7-11.5c-0.6-12.3-1.7-24.5-3.7-36.6c6.3-0.8,12.6-1.5,18.9-2.4
		c0.5,15.7,0,31.4-0.8,47.1c-0.2,3.2-2.1,3.6-4.3,4.3C418.3,384.4,415.5,383.4,413,380.8z"/>
	<path id="XMLID_17_" fill="#FFFFFF" d="M423.2,186.9c3.9,1.5,10,1,11.5,4.4c1.3,3-1.8,7.7-3,11.7c-0.3,1.1-0.7,2.2-1,3.3
		c-2.1,7.1-3,7.6-10.3,5c-4.2-1.4-8.2-3.3-12.3-5.1c-0.9-0.4-1.9-0.7-2.9-0.4c-1.2,0-2-0.8-2.2-1.7c-0.9-2.9-3.1-4.8-5.1-6.7
		c-1.2-1.2-2.7-2.3-1.6-4.4c-0.4-2.3,3-4.4,0.3-6.7c2.6-7.9,4.3-8.6,12.1-4.8c0.9,0.6,1.4,1.6,2.5,2c0.5,0.1,1,0.2,1.5,0.3
		C415.4,187.3,418.8,188.7,423.2,186.9z"/>
	<path id="XMLID_16_" fill="#FFFFFF" d="M403.1,213.7c-0.4,3.3,1.3,5.4,4.1,6.7c4.5,2.2,8.8,4.7,13.4,6.6c2.4,1,3.2,2,2.4,4.6
		c-2.3,7.1-2.1,7.2-9.2,5.1c-8.5-2.6-16.9-5.2-25.4-7.6c-2.6-0.8-3-1.8-2.2-4.2c1.6-4.8,3.1-9.8,4.5-14.7
		C394.4,209.1,400.5,210.8,403.1,213.7z"/>
	<path id="XMLID_15_" fill="#735747" d="M403.1,213.7c-4.1-1.4-8.5-1.5-12.4-3.4c-5.3-4.7-4.1-11.7,2.4-13.8
		c2.2-0.7,0.4-1.8,0.6-2.6c0.2-0.8-0.3-1.9,0.9-2.1c0.4-0.1,1.1,0.8,1.6,1.1c0.3,0.5,0.3,1.3,0.7,1.4c4.4,2.6,7.3,6.3,8.3,11.4
		C404.3,208.4,403.2,210.9,403.1,213.7z"/>
	<path id="XMLID_14_" fill="#735747" d="M369.8,272.2c-0.3,1.8-2.8,3.4-0.3,5.4c-0.9,0.7,0.7,2.2-1.4,2.7c-1.4,0.3-2,0.4-2.8-0.7
		c-3.1-4.3-3.9-9.4-3.9-14.5c0-2.1,0.3-4.3,0.3-6.4c2-0.3,4-0.7,6-1c2.7,2.9,2.5,6.7,2.9,10.3C370.4,269.4,370.9,270.9,369.8,272.2z
		"/>
	<path id="XMLID_13_" fill="#BB5327" d="M408.4,182.4c-1.1-0.3-2.3-0.4-3.3-0.9c-3.1-1.4-5.7-1.8-6.1,2.8c-0.2,1.4-1.2,1.8-2.5,1.9
		c-0.4-0.6-0.9-1.3-1.4-1.9c-5.3-3.2-8.8-8.1-11.9-13.2c-0.3-0.6-0.3-1.4,0.1-2c3.5,4.3,7.6,7.8,13.3,8.8c7.5,1.3,14.2,0.5,19.2-6.2
		c1.7-2.4,3.3-5,6.2-6.4c0.2,0.1,0.3,0.3,0.5,0.3c-0.6,2.7-2.2,4.8-4.3,6.6c-0.1,0.1-0.3,0.3-0.3,0.3
		C415.4,176.6,412.1,179.7,408.4,182.4z"/>
	<path id="XMLID_12_" fill="#7D8188" d="M423.2,186.9c-2,6.9-6,1.2-8.8,1.2c-3.4,0-2.6-2.4-1.7-4.4
		C417.4,180.8,420.8,182.2,423.2,186.9z"/>
	<path id="XMLID_11_" fill="#F3C848" d="M369.8,267.8c-0.7-3.4-1.4-6.8-2.1-10.1c3.7-1,0.7-4.6,3-7c0,3.7,0,6.8,0,9.9
		C370.7,263,372.2,265.7,369.8,267.8z"/>
	<path id="XMLID_10_" fill="#D6B39A" d="M383.4,169.1c1.6,4.8,4.9,8.5,8.5,11.9c1.1,1,2.2,2.2,3.2,3.3c-6.3-2.7-9.8-8-12.6-14
		C382.4,170.1,383.1,169.5,383.4,169.1L383.4,169.1z"/>
	<path id="XMLID_9_" fill="#D6B095" d="M408.4,182.4c3.2-3.2,6.4-6.6,9.6-9.8c-0.3,3.6-3.5,5-5.4,7.4c-0.8,1-2.9,1.4-1.5,3.3
		C409.9,183.7,409.2,182.7,408.4,182.4z"/>
	<path id="XMLID_8_" fill="#DAE1E8" d="M369.8,267.8c1.4-2.3,0.3-4.8,0.9-7.2c0.9,4.1,0.9,8.3,0.6,12.4c-0.5-0.3-0.9-0.5-1.4-0.9
		C369.8,270.8,369.8,269.3,369.8,267.8z"/>
	<path id="XMLID_7_" fill="#C7763C" d="M382.1,157.5c-0.2,2.7-0.4,5.5-0.6,8.3c-2-1.2-1.2-3.5-2.1-5
		C379.8,159.3,380.2,157.8,382.1,157.5z"/>
	<path id="XMLID_6_" fill="#C0B0A9" d="M422.1,165.3c1.7-2.3,3.5-4.6,5.2-6.8c0.3,0.3,0.8,0.5,1.1,0.8c-2.4,2-3.1,5.1-5.1,7.2
		c-0.7,0-0.7-0.7-1.1-0.9L422.1,165.3z"/>
	<path id="XMLID_5_" fill="#D7B79F" d="M422.3,165.5c0.3,0.3,0.7,0.7,1.1,0.9c-1.4,2.1-2.1,4.8-5,5.8
		C419.2,169.7,421.7,168.2,422.3,165.5z"/>
	<path id="XMLID_4_" fill="#5F4849" d="M413,380.8c2.7,1.1,5.7,0.8,8.5,0.9c0.3,4,0.4,8,0.7,11.9c-2-3.9-5-4.3-8.7-2.6
		C413.3,387.7,414.1,384.2,413,380.8z"/>
	<path id="XMLID_3_" fill="#624C4D" d="M382.7,381.6c2.9-0.3,5.9,0.5,8.6-0.9c-0.7,3.7-0.3,7.4-0.3,11.1c-2.8-2.6-5.7-2.6-8.6-0.1
		C382.5,388.5,382.6,385.1,382.7,381.6z"/>
	<path id="XMLID_2_" fill="#735747" d="M414.3,126.6c0.2,4.4,0.5,8.8-1.1,13.1c-2,4.9-6.5,8.3-11.1,7.8c-4.2-0.3-9.2-5.7-9.9-11.1
		c-0.4-4.1-0.9-8.3,0.7-12.3c2.5-5.7,7.4-5.5,12.3-5.3C410.3,119.1,412.9,122.1,414.3,126.6z"/>
	<path id="XMLID_1_" fill="#D2D3D7" d="M414.3,126.6c-3.3-7.2-15-8.4-21.4-2.5c-0.6-3.1,1.4-4.8,3.7-6.1
		C404.3,113.6,412.9,117.8,414.3,126.6z"/>
</g>
<g id="XMLID_93_">
	<path id="XMLID_57_" fill="#193655" d="M73,408.6c-7.3-3.9-7.6-4.9-4.1-13.2c0.5-1.4,1.1-2.6,1.7-3.9c0.7-2.8,2.2-4.5,5.2-4.5
		c2.6,0,4.3,0.9,4.8,3.6c0.8,3.4,1.9,6.8,2.6,10.2c1,5.1,0.6,5.6-4.6,6.8c-0.6,0.2-1.1,0.2-1.3,0.8C75.9,408.6,74.5,408.6,73,408.6z
		"/>
	<path id="XMLID_56_" fill="#2A4571" d="M103,153.3c5.6,1.8,10.5,4.7,15.3,8c4.1,3,5.7,7.6,6.9,12.2c2.6,9.8,4.6,19.7,5,30
		c-3.2,1.6-3.8,4.3-3.8,7.8c-0.3,15.4,0.8,30.6,1,46c0.1,4.1-0.5,7.9-1.6,11.7c-0.4,0.7-1,1.1-1.8,1.4c-19.6,7.8-38.6,5-57.3-3
		c-1.6-1.4-2.3-3.1-2.7-5.1c-1-5.4-2.4-10.7-3.2-16.2c-0.3-3.4,0.4-6.8-0.6-10.2c-0.3-1.8-0.3-3.5,0-5.3c1.1-7.3,0.3-14.7,0.4-21.9
		c-1.4-3.5-4.6-2.6-7.2-3c-2.8-0.3-5.7-0.1-8-2c-1-2.9,0.4-5.5,1.2-8.1c2.8-10.2,6.4-20.1,11.2-29.5c5.1-10.1,14.1-13.6,24.6-14.8
		c1.5,0.6,1.7,1.8,1.6,3.1c-0.3,3,0.2,5.9,1.4,8.7c0.2,0.4,0.2,0.8,0.3,1.2c2.4,9.6,5.6,19,8.3,28.5c0.5,2.2,1.5,4.4,1.4,6.8
		c0,0.8,0.3,1.9-0.3,2.4c-3.5,3-2.4,6.6-1.9,10.2c0.2,1.5,0.1,3.4,2.4,3.1c2-0.3,3.4-1.3,3.1-3.6c-0.4-3.6,0.8-7.8-3-10.5
		c-0.5-0.4-0.3-1.4-0.3-2c0.1-3,0.5-5.8,1.3-8.7c1-3.5,1.2-7.2,1.8-10.7c0-0.4,0-0.9,0.1-1.4c0.8-3.6,1.2-7.3,1.6-10.9
		c0.1-2.6,0.2-5.1,0.9-7.7C101.9,157.7,101.3,155.1,103,153.3z"/>
	<path id="XMLID_55_" fill="#BC5227" d="M67,266.7c12.6,4.9,25.5,7.9,39.2,6.9c6-0.4,11.6-2.4,17.4-4.1c2.6,4.2,0,8.4,0.1,12.6
		c-0.7,32.8-1.3,65.7-1.9,98.6c0,1.7,0.9,3.9-1.6,4.8c-3.5,2-6.8,2-10.3,0c-2.2-0.5-2.1-2.5-2.4-4.1c-3.3-13.4-5.2-27.1-4.8-40.9
		c0.5-16.5-0.8-32.9-4.7-49.1c-0.3-1.1-0.7-2.2-1-3.3c-2.2-1.3-0.9-4.9-3.9-5.7c-1.4-0.3-2.7-0.8-3.8-1.9c-3.8-3.4-4.2-3.4-8.7-0.5
		c-0.5,0.3-1,0.5-1.6,0.5c-4-1.4-7.3-3.9-10.4-6.6C65.4,271.5,65.1,268.7,67,266.7z"/>
	<path id="XMLID_54_" fill="#604849" d="M78.9,280.3c-0.9,0.1-2,0.4-2.9,0.3c-3-0.7-3.5,0.7-2.9,3.1c-1.4,3.7-5.3,3.2-7.9,4.8
		c-2.7-0.1-3.7-2.2-4.9-4.1c-0.7-1.3-1.3-2.5-0.8-4.1c0.5-5.1-1.4-9.6-3.2-14.3c-5-13-9.5-26.2-11.7-40c-1.3-7.5-0.8-15,0.9-22.4
		c4.7,0.5,9.5,1.1,14.2,1.5c1.9,0.2,2.4,1,2.3,2.7c-0.7,3.4-0.5,6.8-0.8,10.3c0.3,2.7-0.2,5.4-0.7,7.9c-1,4.8-0.6,9.5,0.7,14.2
		c0.3,1.9,0.3,4,0.8,5.8c1.2,5.5,2.4,10.9,3.4,16.4c0.3,1.6,0.9,2.9,1.9,4.1c-1.3,3.4,0.6,5.6,3,7.3C72.9,276.3,76,278.2,78.9,280.3
		z"/>
	<path id="XMLID_53_" fill="#604849" d="M84.9,150.6c1-4.2,3.6-8.1,2.6-12.7c-0.5-1.2,0.3-1.9,1-2.5c1.5-1.4,1.9-3,1.2-5
		c-0.8-2.3-0.7-4.5,1.4-6.2c1.9-1.6,3.9-2.2,6.2-0.7c2.5,1.6,2.7-0.8,3.5-2.1c3-5.7,6.4-7.1,11.6-4.9c1.2,5.2,0.5,10.8,3,15.8
		c0.5,1,0.2,1.7-0.8,2c-2.4,0.9-2.2,3.1-2.4,5.1c-0.3,4.6-2.7,6.6-7.3,6.8c-5.6,0.3-5.6,0.6-3.5,6.2c0.8,4.9-1.7,8.7-4.2,12.5
		c-1.1,1.6-3,1.6-4.6,0.8C88.9,163.7,84.4,154.8,84.9,150.6z"/>
	<path id="XMLID_52_" fill="#BC5227" d="M67,345.5c4.8,0,9.6,0,14.4-0.2c1.9-0.1,3,0.6,3,2.5c-0.8,11.1-1.4,22.1-1.3,33.2
		c0,1.6,0.5,3.6-2.1,3.7c-3.5,1.8-7.1,1.8-10.7,0.1c-2.7,0.3-2.4-1.6-2.4-3.3C67.5,369.5,67.2,357.5,67,345.5z"/>
	<path id="XMLID_51_" fill="#818181" d="M112.3,116.4c-6-0.9-9.8,1.5-11.4,7.3c-0.6,2.2-1.7,3.4-3.6,0.9c-1.3-1.5-2.8-1.8-4.5-0.8
		c-1.8,1-3.5,2.7-2.4,4.4c2.8,4.5,0.3,6.9-2.8,9.5c-5.5-5.5-7.2-12.3-6.5-19.7c0.6-6.2,4.8-9.8,10.7-11.3c4.2-1.1,8.5-2.4,12.8-3
		c2.8-0.4,6.3-1,6.2,3.8c0,1.7,1.4,0.8,2.3,1c1.2,0.3,2.8-0.7,3.4,0.8c0.6,1.4-0.5,2.7-1.4,3.8C114.2,114.4,113.2,115.3,112.3,116.4
		z"/>
	<path id="XMLID_50_" fill="#60484A" d="M124.9,269.5c2.7-20.3-0.7-40.6,0-60.8c0.2-4.5,1.8-5.2,5.2-5.2c1.6,15.7,3,31.4,2.4,47.3
		c-0.2,3.1,0.5,5.9,1.3,8.8c1.7,6.2,0.5,11.7-3.5,16.8c-1.4,1.8-2.5,2.3-4.3,1c-2.3-0.9-2.4-3.2-0.4-5.5c2.9-3.2,2.9-3.2,2.8-6.3
		c-1.5,1.5-0.9,3.5-1.8,4.8C125.6,271.7,124.8,271.6,124.9,269.5z"/>
	<path id="XMLID_49_" fill="#193655" d="M121,390.5c6.7,4.6,13.8,8.3,21.6,10.4c1.3,0.3,2.2,1.4,2,2.9c-0.2,1.3-1.4,1.7-2.5,1.9
		c-1.7,0.3-3.4,0.4-5.1,0.4c-8.8,0.1-17.6,0-26.4,0.3c-3,0.1-4.2-1.2-4.1-3.9c0.3-3.6,0.3-7.3,3.2-10.1c0.8-0.7,1.6-0.6,2.4-0.3
		c2.5,1.1,4.6,0.8,6.5-1.3C119.4,390.2,120.2,390,121,390.5z"/>
	<path id="XMLID_48_" fill="#2A4671" d="M84.9,150.6c1.1,4.5,3.2,8.4,5.8,12.1c2.6,3.5,4.8,3.3,6.8-0.6c1.7-3.1,2.7-6.5,3.7-9.9
		c0.3,0,0.4,0.1,0.7,0.2c1.7,2.5-0.8,5.1,0.1,7.5c-0.8,2.6-0.9,5.2-0.8,7.8c-1.8,3.5-1.4,7.3-1.7,10.9c0,0.3,0,0.8,0,1.1
		c-1.5,3.5-1.9,7.2-1.7,10.9c-0.5,2.8-1.1,5.6-1.6,8.4c-0.7,0.6-1.4,1.1-1.8-0.3c0.5-1.9-2.1-3.5-0.8-5.5c-2.9-9.8-6-19.4-8.5-29.3
		c0-0.3,0-0.5,0-0.8c-1.5-2.6-1.4-5.6-1.7-8.4c0.2-1.3-0.3-2.4-0.8-3.5C83,150.1,84.1,150.8,84.9,150.6z"/>
	<path id="XMLID_47_" fill="#614A4B" d="M121,390.5c-3.3,3.5-6.9,4.6-11.2,1.9c1.2-2.3,0.1-4.6,0-6.8c3.5,0,6.8,0,10.3,0
		C120.4,387.2,120.7,388.9,121,390.5z"/>
	<path id="XMLID_46_" fill="#F3C848" d="M124.9,269.5c1.3-0.3,1.4-0.3,1.4-1.3c0-1.7-0.3-3.5,1.6-4.5c0.9-0.5,1.4,0.4,1.9,1.2
		c1.3,2.2,0.1,3.8-1.4,5.2c-1.8,1.7-4.3,2.8-3.5,6c0.2,0.8,0.7,0.7,1.2,0.9c-2.4,0.8-1.1,3.5-2.4,4.9c0-4.2,0-8.4,0-12.6
		C124,269.5,124.5,269.5,124.9,269.5z"/>
	<path id="XMLID_45_" fill="#5E4849" d="M70.3,384.9c3.5,0,7.2-0.1,10.7-0.1c-0.2,1.9-0.3,4-0.4,5.9c-3.3-4.1-6.5-3.8-10,0.8
		C70.5,389.4,70.4,387.1,70.3,384.9z"/>
	<path id="XMLID_44_" fill="#E0E0E3" d="M94.4,198.8c0.6,0.1,1.2,0.2,1.8,0.3c0,0.8-0.3,1.9,0.2,2.4c0.8,0.9,3-0.3,3,2
		c0.2,3.7,1.1,7.5,0.5,11c-0.4,2.4-4.1,2.1-6.2,2.4c-2.1,0.3-1.5-1.9-1.7-3.2c-0.3-2.1-0.5-4.2-0.8-6.3c-0.3-1.9-0.8-3.9,2.1-4.6
		C95.5,202.2,93.9,200.1,94.4,198.8z"/>
	<path id="XMLID_43_" fill="#A0AABB" d="M85,164c3.5,9.5,9.1,25.7,10.9,35.8c-0.5-0.4-1.4-0.8-1.4-1.4c-1.7-8.9-7.3-23.9-9.9-32.6
		C84.3,165.1,84.3,164.5,85,164z"/>
	<path id="XMLID_42_" fill="#C9CED6" d="M103,153.3c-0.3-0.3-0.7-0.7-0.9-0.9c0.7,1.9-1.9,12.5-2.3,18.2c-0.6,1.6-0.7,3.3-0.6,5.1
		c-1.8,6.4-3.4,19.4-2.4,22.6c0.4-2.6,1.9-13,2.8-19.9c0,0.1,0,0.3,0.1,0.3c0.6-3.6,1.2-7.3,1.7-10.9l-0.1,0.1
		C102.1,162.2,103.1,154.7,103,153.3z"/>
	<path id="XMLID_41_" fill="#C0C6D0" d="M83.3,154.9c0.6,2.8,1.1,5.7,1.7,8.4C82.7,160.8,82.5,157.9,83.3,154.9z"/>
	<path id="XMLID_100_" fill="#878C93" d="M95.9,287.4c0.1-2.1-0.8-3.9-2.4-5.2c-1.3-0.7-2.8-1-3.7-2C85.5,276,83,276,79,280.3
		c-5.1-1.5-6.1-1.1-6.5,3c2.4,1.9,4.8,3.5,3.3,7.3c-1.4,3.6-4.3,4.1-7.6,4.1c-1.1,0-2.3,0-3.4,0c-3.4,0.1-6.8-0.5-10,0.6
		c-0.2,0.2-0.3,0.3-0.4,0.4c0.3-3.4,0.8-6.8,0-10c2.3-0.3,4.7-0.1,6.6-1.9c-0.4-1.1-0.9-2.1-1.4-3.2c-3.7,0.1-7,0.8-7.9,5.1l0,0
		c-0.8,1.1-0.8,2.4-0.8,3.6c0,15.9,0,31.7,0,47.5c0,1.3-0.1,2.5,0.8,3.6l0,0c0.8,3.6,3.5,4.8,6.8,4.9c2.8,0.1,5.7,0.1,8.4,0.2
		c1.9,1.5,4.3,1.2,6.6,1.2c3.7,0.1,7.4-0.3,10.9,1.2c0.4-1.9,1.4-2.7,3.5-2.6c4,0.2,6.6-1.9,7.6-5.8c0.2-0.5,0.3-1.1,0.3-1.7
		C95.8,320.9,95.4,304.2,95.9,287.4z M64.5,312.7c-0.3-1-0.8-1.9-1.5-2.6c0.2,0.1,0.3,0.3,0.4,0.3c0.8,0.8,1.4,1.1,2.1,1.1
		C65.1,311.8,64.8,312.2,64.5,312.7z M61.1,308.2c-1.3-1.1-2.5-2.1-3.4-3.4C58.7,305.8,59.9,307,61.1,308.2z M64.3,327.5
		c0.1,0.3,0.2,0.6,0.3,0.8c-0.2-0.2-0.3-0.3-0.5-0.5C64.1,327.8,64.2,327.7,64.3,327.5z M67.7,310.4c-0.4,0.2-0.8,0.3-1.2,0.4
		c0.2-0.2,0.3-0.4,0.4-0.8c0.1,0.1,0.2,0.1,0.3,0.2C67.4,310.3,67.5,310.3,67.7,310.4z M80.7,329.6c0.5-0.4,0.8-0.9,1.2-1.5
		c0.2,1,0.8,1.8,1.6,2.5C82.6,329.9,81.6,329.5,80.7,329.6z M84.8,332c1.7,1.7,3.4,3.4,5.1,5.1C88.2,335.4,86.4,333.8,84.8,332z"/>
	<path id="XMLID_33_" fill="#F3C848" d="M54.1,285.6c1.9-2.2,4.4-1.9,6.8-1.9c1.4,1.5,1.7,4.1,4.3,4.3c2.1,2.6,1.9,5.1,0.1,7.8
		c-3.7,0.1-7.3,0.2-11.1,0.2C52.5,292.5,53.3,289,54.1,285.6z"/>
	<path id="XMLID_32_" fill="#BC5227" d="M65.3,295.7c0-2.6-0.1-5.1-0.1-7.8c2.7-1.4,5.3-2.9,8-4.2c2,0.2,4.3-0.6,4.3,3
		c0,5.2-1.8,8.4-5.8,9C69.6,296,67.4,295.7,65.3,295.7z"/>
	<path id="XMLID_95_" fill="#DFE7EF" d="M88.7,334.9c-2-2.4-5.3-3.8-6.1-7.3l0,0c0.8-3.5,0.8-14,0.3-17.5c-0.2-0.9-1.4-0.9-1.6-0.1
		c-3.4-0.1-8.9-0.4-11.7-0.3l0,0c-0.8,0-1.7,0-2.5,0c-1.5,1.6-2.7,1.1-4.1-0.3c-2.5-2.5-4.7-5.4-8.9-8.1c3.2,5.1,7.9,7.3,9.9,11.7
		l0,0c-0.7,5.1-0.2,10.2-0.3,15.4c0,2.4,2.1,1.9,3.4,2.6l0,0l0,0c4,1.4,8,1.2,12,0.2l0,0c2.2-1.4,3.8-0.5,5.4,1.3
		c2.1,2.4,4.5,4.5,6.7,6.7c0.4-0.5,0.9-1,1.4-1.4C91.2,336.7,89.7,336,88.7,334.9z M79,330c-3.8,0.1-7.5,0.1-11.3,0.2
		c-2.4-0.6-3.3-2.3-3.3-4.6c0.1-4.2,0.2-8.4,0.3-12.6l0,0c1.4-1.4,3-2.3,4.9-2.5c2.7,0.3,8.3,0.3,11.6,0.8c-0.1,4,0.6,12.6,0.5,15.5
		C81.5,328.4,80.5,329.5,79,330z"/>
	<path id="XMLID_29_" fill="#DAE1E8" d="M95.4,339.4c0-16.2,0-32.4,0-48.7c0-3-0.3-5.9-1.9-8.6c0.4-0.9,0.8-2.8,1.7-0.4
		c0.8,2,1.1,4.2,1.7,6.4c-1.2,1.3-0.7,3-0.7,4.5c0,14.1,0,28.2-0.1,42.2C96.2,336.4,96.7,338.1,95.4,339.4z"/>
</g>
<g id="XMLID_89_">
	<path id="XMLID_69_" fill="#FFFFFF" d="M195.2,232c0-2-0.1-3.9-0.1-5.9c0-4,0-8,0-12.1c0-3.4,1.3-6.1,3.8-8.2c0.8-0.6,1-1.2,1-2.2
		c-0.1-1.4,0.2-2.6,1.5-3.4c0.1-0.1,0.3-0.1,0.5-0.2c0.3,0,0.5,0.1,0.8,0.2c0.8,0.7,1.7,0.9,2.7,0.8c2.3,0,4.7,0,7.1,0
		c1.1,0,2.2-0.1,3-0.9c0.2-0.2,0.5-0.3,0.8-0.2c1,0.5,1.7,1.2,1.9,2.4c0.1,0.5,0.3,0.7,0.8,0.7c2.5,0.1,2.5,0.1,2.5-2.4
		c0.1-4,2.2-7.1,5.8-8.3c1.6-0.5,3.2-0.4,4.9-0.4c5.3,0,10.6,0,16,0c5.1,0,8.6,3.6,8.7,8.7c0,8.6,0,17.1,0,25.6c0,1,0,2,0,3
		c-0.1,0.1-0.3,0.3-0.5,0.3c-2.7,0.1-5.3,0.8-8,1.2c-5,0.7-9.9,0.5-14.9,0.4c-4.9-0.2-9.8-0.3-14.7-0.3c-3.8,0-7.7,0.3-11.5,0.4
		c-2.9,0.1-5.9,0.5-8.8,0.5c-0.8,0-1.5,0.1-2.3,0.2C195.7,232.2,195.5,232.2,195.2,232z"/>
	<path id="XMLID_68_" fill="#819FCF" d="M257.2,266.8c-0.4,0.3-0.3,0.8-0.3,1.2c0,2.5,0,5.1,0,7.6c0,1-0.1,2.1-0.4,3
		c-0.2,0-0.3-0.1-0.5-0.2c-1-2.2-1.9-4.4-3.4-6.4c-3.6-5-8.2-8.6-14.1-10.6c-2.8-1-5.8-1.4-8.7-1.4c-7.4,0.1-13.9,2.6-19.3,7.9
		c-2.7,2.7-4.9,5.8-6.2,9.3c-0.1,0.3-0.2,0.8-0.7,0.7c-0.8-2.7-2.8-4.7-3.5-7.5c-0.1-0.5-0.3-1-0.4-1.4c0,2.3-0.1,4.5,0,6.8
		c0.1,1.6,0.4,3,1.4,4.3c0.5,0.6,1,1,1.6,1.4c0.3,0.5,0.1,1,0,1.5c-0.1,0.8-0.2,1.7-0.4,2.5c-0.1,0.2-0.2,0.3-0.5,0.4
		c-1.7-1-3.4-2.1-4.5-3.7c-1.3-1.9-2.1-4-2.1-6.2c0-2.7,0-5.3,0-8c0-8.9,0-17.8,0-26.7c0-0.4-0.1-0.8,0.1-1.2c0.2-0.3,0.6-0.3,1-0.3
		c4,0.1,8,0.6,12.1,0.7c3.2,0.1,6.4,0.2,9.7,0.3c4,0.2,8.2,0.1,12.2,0.1c3.8-0.1,7.7-0.3,11.4-0.7c4.2-0.5,8.3-1.6,12.3-2.9
		c0.5-0.2,1.1-0.3,1.6-0.5c0.7-0.2,1.1,0.1,1.1,0.7c0,8.6,0.1,17.1,0,25.7c-0.6,0.5-1-0.1-1.3-0.3c-1.2-1.2-2.5-2.5-3.9-3.5
		c-5.3-4.1-11.2-6.4-17.8-7.2c-1-0.1-2.1-0.1-3.1-0.2c-0.1,0-0.3,0-0.3,0c-0.3,0.1-0.8,0-0.8,0.5c0,0.4,0.4,0.4,0.7,0.4
		c0.8,0,1.7,0.1,2.5,0.1c2.9,0.1,5.8,0.8,8.6,1.8c5,1.8,9.3,4.6,13.1,8.3c0.9,0.9,1.6,1.9,2.4,2.8
		C257.1,266.1,257.4,266.4,257.2,266.8z"/>
	<path id="XMLID_67_" fill="#B5C3E4" d="M256.5,263.4c0.2-0.3,0.1-0.6,0.1-1c0-8.1,0-16.2,0-24.3c0-1.2-0.1-1.2-1.2-0.8
		c-2.1,0.8-4.3,1.4-6.4,1.9c-1.3,0.3-2.5,0.7-3.8,0.9c-2.1,0.3-4.3,0.6-6.4,0.8c-6.2,0.5-12.4,0.5-18.6,0.5
		c-5.1-0.1-10.2-0.3-15.3-0.5c-3.2-0.1-6.3-0.4-9.5-0.7c-0.3-0.6-0.1-1.2-0.1-1.9c0-2.1,0-4.2,0.1-6.2c0.8-0.4,1.8-0.3,2.7-0.3
		c8-0.4,15.8-0.9,23.8-1c6.4-0.1,12.8,0.5,19.2,0.4c3.5-0.1,7-0.5,10.4-1c1.5-0.2,3-0.7,4.5-0.8c0.3,0,0.7,0.1,1,0.1
		c0,2.8,0,5.6,0,8.4c0,8,0,16,0,24c0,0.5-0.1,1.2-0.1,1.7C256.5,263.6,256.4,263.6,256.5,263.4z"/>
	<path id="XMLID_66_" fill="#575664" d="M216.4,200.2c-1,1.2-2.2,1.4-3.7,1.4c-2.5-0.1-5.1-0.1-7.5,0c-1.3,0-2.3-0.3-3.2-1.4
		c-0.2-0.9-0.5-1.9,0.1-2.7c0.5-0.8,1.2-1.3,2.3-1.3c3.2,0,6.3,0,9.4,0c2.1,0,3.1,1.4,2.7,3.4C216.4,199.8,216.4,200,216.4,200.2z"
		/>
	<path id="XMLID_65_" fill="#DAE1E8" d="M256.1,278.3c0.1,0.1,0.2,0.2,0.3,0.3c1.2,4.1,1.8,8.3,1.2,12.5
		c-1.2,8.5-5.3,15.1-12.4,19.9c-2.4,1.6-5.1,2.7-7.9,3.6c-0.5,0.1-0.9,0.3-1.4,0.3c-0.6,0.1-1.3,0.4-1.9,0.3c0-0.5,0.1-0.6,0.8-0.8
		c0.8-0.1,1.5-0.3,2.3-0.5c4.5-1.2,8.5-3.5,11.8-6.8c3.6-3.6,6.1-7.8,7.3-12.8c1.2-4.7,1-9.5-0.2-14.1
		C255.6,279.5,255.4,278.8,256.1,278.3z"/>
	<path id="XMLID_64_" fill="#DAE1E8" d="M233.8,315c0.7-0.1,1.4-0.1,2.1-0.1c-1.4,0.7-3,0.6-4.5,0.7c-11.2,0.3-19.9-4.3-25.8-13.8
		c-2.9-4.8-4-10.1-3.8-15.7c0.1-0.1,0.1-0.2,0.2-0.3c0.8,0.3,0.8,1,0.7,1.6c-0.1,2.2,0.1,4.4,0.7,6.6c1,4.2,2.9,7.9,5.6,11.2
		c2.9,3.6,6.5,6.1,10.7,7.8c2.9,1.2,6,1.9,9.1,1.9c1.4,0,2.8,0.1,4.3-0.1C233.3,314.6,233.6,314.7,233.8,315z"/>
	<path id="XMLID_63_" fill="#F3C848" d="M239.3,198.4c1.7,0,3.4,0,5.1,0c2.8,0,4.9,2,4.9,4.8c0.1,2.3,0.1,4.7,0,7.1
		c-0.1,2.7-2,4.7-4.8,4.7c-3.6,0.1-7.1,0.1-10.6,0c-2.6,0-4.6-1.9-4.7-4.5c-0.1-2.5-0.1-5.1,0-7.6c0.1-2.7,2.2-4.5,4.8-4.5
		C235.8,198.4,237.5,198.4,239.3,198.4z"/>
	<path id="XMLID_62_" fill="#192F4C" d="M233.8,315c-1.4,0.2-2.9,0.2-4.3,0.2c-6.6,0-12.3-2.3-17.4-6.4c-3.6-2.9-6.1-6.6-7.8-10.8
		c-1.4-3.2-2.1-6.6-1.9-10.2c0-0.8-0.1-1.4-0.3-2.1c0-1.4,0.3-2.8,0.5-4.2c-0.3-1,0.3-3,1.1-3.6c1.2-2.9,2.6-5.6,4.7-8
		c6.6-7.6,14.9-11.2,24.9-9.9c11.2,1.4,18.8,7.7,23,18.2c0,0.1,0,0.2,0,0.3c-0.3,1,0.1,1.9,0.3,2.7c0.8,3.5,1,7.1,0.5,10.7
		c-0.8,5.6-3.2,10.2-6.8,14.4c-3,3.4-6.7,5.9-11,7.5c-1.4,0.5-2.8,0.9-4.3,1.2C234.5,314.7,234.1,314.8,233.8,315z"/>
	<path id="XMLID_61_" fill="#C0D0E6" d="M203.6,277.8c-0.3,1.2-0.8,2.5-1.1,3.6c-0.3,0.4-0.5,0.3-0.9,0c-1.5-1.4-2.3-3.1-2.3-5
		c-0.1-2.7,0-5.4,0-8.2c0-0.1,0-0.3,0.2-0.4c0.7,1.4,1,2.9,1.7,4.4c0.5,1.1,1,2.2,1.7,3.2C203.4,276.1,203.9,276.8,203.6,277.8z"/>
	<path id="XMLID_60_" fill="#FFFFFF" d="M230.6,310.2c0-0.5,0-1.1,0-1.6c0-0.5-0.3-0.9-0.8-0.9c-0.5,0-0.8,0.3-0.8,0.8
		c0,1-0.1,2,0,3c0.1,0.8-0.2,0.9-0.9,0.9c-5.1-0.4-9.7-2.1-13.7-5.3c-5.6-4.5-8.8-10.5-9.3-17.7c-0.1-0.8,0.1-1,0.9-0.9
		c0.9,0.1,1.8,0,2.7,0c0.6,0,1.1-0.1,1.1-0.9c0-0.7-0.5-0.8-1.1-0.8c-1,0-1.9-0.1-2.8,0c-0.7,0.1-0.9-0.2-0.8-0.9
		c0.3-5,2.1-9.5,5.1-13.4c3.7-4.9,8.6-7.9,14.6-9.3c1.2-0.3,2.4-0.4,3.6-0.5c0.5,0,0.7,0.1,0.7,0.7c0,1,0,2.1,0,3.1
		c0,0.6,0.2,1,0.9,1c0.6,0,0.8-0.5,0.8-1c0-1,0.1-1.9,0-2.8c-0.1-0.8,0.3-1,1-0.9c6.2,0.5,11.4,2.9,15.8,7.3
		c4.3,4.3,6.7,9.6,7.1,15.7c0.1,0.8-0.1,1-0.9,1c-1-0.1-1.9,0-2.8,0c-0.5,0-1,0.2-1,0.8c0,0.6,0.4,0.8,1,0.8c1,0,2,0.1,3,0
		c0.6,0,0.8,0.1,0.8,0.8c-0.5,6.9-3.4,12.6-8.6,17.2c-4,3.5-8.8,5.5-14.1,6c-1.3,0.1-1.3,0.1-1.3-1.2
		C230.6,310.8,230.6,310.5,230.6,310.2L230.6,310.2z"/>
	<path id="XMLID_59_" fill="#1F324E" d="M231,286.3c-0.4-0.3-0.5-0.7-0.5-1.2c0-2.5,0-5,0-7.5s0-3.1,0-5.6c0-0.5-0.1-1-0.8-1
		c-0.6,0-0.6,0.5-0.6,1c0,0.3,0,0.5,0,0.8c0,4.8,0,7.5,0,12.3c0,0.5-0.1,1-0.5,1.4c-0.3,0.3-0.5,0.8-0.5,1.2l-8.6,7.2l1.3,1.6
		l8.7-7.4c0.5,0.1,1.2-0.1,1.4-0.3C231.7,288,231.7,287,231,286.3z"/>
	<path id="XMLID_58_" fill="#FFFBF4" d="M265.5,286.7c0-19.7-16-35.8-35.8-35.8v2.1c18.6,0,33.7,15.1,33.7,33.7
		c0,12.8-7.4,24.5-18.7,30.2l-0.5-2.7l-14.5,7.3l16.1,1l-0.7-3.4C257.4,313.1,265.5,300.4,265.5,286.7z"/>
</g>
</svg>
