<?xml version="1.0" encoding="utf-8"?>
<!-- Generator: Adobe Illustrator 19.0.0, SVG Export Plug-In . SVG Version: 6.00 Build 0)  -->
<svg version="1.1" id="Layer_1" xmlns="http://www.w3.org/2000/svg" xmlns:xlink="http://www.w3.org/1999/xlink" x="0px" y="0px"
	 viewBox="225 -259 482.7 550" enable-background="new 225 -259 482.7 550" xml:space="preserve">
<g id="Layer_2">
	<rect x="225" y="-259" fill="#3C80C9" width="482.7" height="550"/>
</g>
<g id="Layer_3">
	<g>
		<path fill="#182F4B" d="M581.2-124H351.5c-21,0-38,17-38,38v23h305.6v-23C619.2-106.9,602.2-124,581.2-124z"/>
		<rect x="313.5" y="-56.7" fill="#182F4B" width="305.6" height="212.7"/>
		<g>
			<g>
				<path fill="#EDF2F9" d="M344-79.3v-26.4h7.9c2.3,0,4.1,0.7,5.5,2c1.4,1.4,2.1,3.3,2.1,5.8s-0.7,4.4-2.1,5.8
					c-1.4,1.3-3.4,2-5.9,2h-2.8v10.7L344-79.3L344-79.3z M348.6-101.8v8.1h2.3c1.3,0,2.3-0.3,2.9-1s0.9-1.7,0.9-3.1
					c0-1.3-0.3-2.3-0.9-3s-1.5-1-2.6-1H348.6z"/>
				<path fill="#EDF2F9" d="M360.6-79.3v-26.4h4.7v22.4h9l-0.5,4H360.6z"/>
				<path fill="#EDF2F9" d="M386.1-85.9H380l-1.3,6.6H374l6.1-26.4h6.1l6.2,26.4h-4.9L386.1-85.9z M380.9-90h4.4
					c-0.3-1.3-0.6-2.8-0.9-4.4c-0.3-1.7-0.6-3-0.8-4.1c-0.2-1.1-0.4-2-0.5-2.7l0,0C383-100.2,382.1-96.5,380.9-90z"/>
				<path fill="#EDF2F9" d="M397.5-79.3h-4.2v-26.4h5.3c4.3,11.6,6.6,17.8,6.8,18.7l0,0c-0.2-2.5-0.2-6.3-0.2-11.4v-7.3h4.2v26.4
					h-5.1c-4.3-11.8-6.6-18.3-7-19.6l0,0c0.1,2.2,0.2,6.1,0.2,11.9V-79.3z"/>
				<path fill="#EDF2F9" d="M416.4-79.3H412v-26.4h5.3c4.3,11.6,6.6,17.8,6.8,18.7l0,0c-0.2-2.5-0.2-6.3-0.2-11.4v-7.3h4.2v26.4H423
					c-4.3-11.8-6.6-18.3-7-19.6l0,0c0.1,2.2,0.2,6.1,0.2,11.9v7.7L416.4-79.3L416.4-79.3z"/>
				<path fill="#EDF2F9" d="M430.9-105.7h4.7v26.4h-4.7V-105.7z"/>
				<path fill="#EDF2F9" d="M442.4-79.3h-4.2v-26.4h5.3c4.3,11.6,6.6,17.8,6.8,18.7l0,0c-0.2-2.5-0.2-6.3-0.2-11.4v-7.3h4.2v26.4
					h-5.1c-4.3-11.8-6.6-18.3-7-19.6l0,0c0.1,2.2,0.2,6.1,0.2,11.9V-79.3z"/>
				<path fill="#EDF2F9" d="M472.8-94.1v14.8h-3.6c-0.1-0.9-0.2-1.7-0.2-2.3c-1,1.8-2.8,2.7-5.2,2.7c-2.7,0-4.6-1.1-5.8-3.4
					c-1.2-2.3-1.8-5.6-1.8-10.1c0-9.2,3-13.8,8.9-13.8c1.4,0,2.5,0.2,3.5,0.7s1.7,1,2.2,1.5c0.5,0.6,0.9,1.3,1.2,2.1
					c0.3,0.8,0.5,1.5,0.5,1.9c0.1,0.4,0.1,0.9,0.1,1.4H468c-0.2-2.5-1.2-3.7-3.1-3.7c-1.4,0-2.4,0.9-3,2.6c-0.6,1.7-0.9,4.1-0.9,7.2
					c0,3.3,0.3,5.7,0.8,7.2s1.5,2.3,2.9,2.3c1.2,0,2.1-0.5,2.6-1.4s0.7-2.4,0.7-4.4v-1.5h-3.5v-4h8.2V-94.1z"/>
			</g>
		</g>
		<g>
			<rect x="344" y="-37.8" fill="#EDF2F9" width="61.2" height="34.6"/>
			<rect x="405.1" y="-37.8" fill="#819FCF" width="61.2" height="34.6"/>
			<rect x="466.4" y="-37.8" fill="#EDF2F9" width="61.2" height="34.6"/>
			<rect x="527.7" y="-37.8" fill="#F9CA45" width="61.2" height="34.6"/>
			<rect x="344" y="8" fill="#819FCF" width="61.2" height="34.6"/>
			<rect x="405.1" y="8" fill="#EDF2F9" width="61.2" height="34.6"/>
			<rect x="466.4" y="8" fill="#F9CA45" width="61.2" height="34.6"/>
			<rect x="527.7" y="8" fill="#819FCF" width="61.2" height="34.6"/>
			<rect x="344" y="53.8" fill="#EDF2F9" width="61.2" height="34.6"/>
			<rect x="405.1" y="53.8" fill="#F9CA45" width="61.2" height="34.6"/>
			<rect x="466.4" y="53.8" fill="#819FCF" width="61.2" height="34.6"/>
			<rect x="527.7" y="53.8" fill="#F9CA45" width="61.2" height="34.6"/>
			<rect x="344" y="99.5" fill="#F9CA45" width="61.2" height="34.6"/>
			<rect x="405.1" y="99.5" fill="#819FCF" width="61.2" height="34.6"/>
			<rect x="466.4" y="99.5" fill="#F9CA45" width="61.2" height="34.6"/>
			<rect x="527.7" y="99.5" fill="#EDF2F9" width="61.2" height="34.6"/>
		</g>
	</g>
</g>
</svg>
