<?xml version="1.0" encoding="utf-8"?>
<!-- Generator: Adobe Illustrator 19.0.0, SVG Export Plug-In . SVG Version: 6.00 Build 0)  -->
<svg version="1.1" xmlns="http://www.w3.org/2000/svg" xmlns:xlink="http://www.w3.org/1999/xlink" x="0px" y="0px"
	 viewBox="0 0 1920 1080" enable-background="new 0 0 1920 1080" xml:space="preserve">
<symbol  id="Pencil" viewBox="-12.5 -68.6 25 137.4">
	<path id="XMLID_515_" fill="#F27F94" d="M-5,57.3l-4.6-0.6c-0.9-0.1-1.6,0.5-1.8,1.3l-1.1,8.3c-0.1,0.9,0.5,1.6,1.3,1.8l4.6,0.6
		c0.9,0.1,1.6-0.5,1.8-1.3l1.1-8.3C-3.5,58.2-4.1,57.5-5,57.3z"/>
	<polygon id="XMLID_81_" fill="#FDDCAC" points="10.3,-67.5 9.3,-67.6 4.7,-59.3 4.5,-57.8 12.3,-56.7 12.5,-58.3 	"/>
	<path id="XMLID_76_" fill="#F9A734" d="M12.3-56.5l-7.7-1l-15.4,112c-0.1,0.9,0.5,1.6,1.3,1.8l4.6,0.6c0.9,0.1,1.6-0.5,1.8-1.3
		L12.3-56.5z"/>
	<polygon id="XMLID_58_" fill="#2F2F2F" points="10.1,-68.6 9.8,-68.6 8.6,-66.4 8.5,-66 10.6,-65.7 10.6,-66.1 	"/>
</symbol>
<g id="Layer_2">
	<rect id="XMLID_1_" fill="#DBDFE4" width="1920" height="1080"/>
</g>
<g id="Layer_1">
	<path id="XMLID_377_" fill="#4D4D4D" d="M1455.3,396l32.6-30.2c1.4-1.5,0.8-4.2-1.2-6l-12.1-10.9c-2-1.8-4.8-2-6.1-0.5L1442,384
		c-1.4,1.5-0.8,4.2,1.2,6l6,5.4C1451.2,397.3,1453.9,397.5,1455.3,396z"/>
	<path id="XMLID_375_" fill="#404040" d="M1488.1,391.4l17.1-19.1c1.5-1.6,1.3-4.2-0.3-5.6l-39.1-35.1c-1.6-1.5-4.2-1.3-5.6,0.3
		l-17.1,19.1c-1.5,1.6-1.3,4.2,0.3,5.6l39.1,35.1C1484.1,393.1,1486.6,393,1488.1,391.4z"/>
	<circle id="XMLID_378_" fill="#404040" cx="1443.8" cy="396.4" r="16.2"/>
	
		<use xlink:href="#Pencil"  width="25" height="137.4" id="XMLID_34_" x="-12.5" y="-68.6" transform="matrix(0.9641 0.6069 0.6069 -0.9641 737.0893 675.9992)" overflow="visible"/>
	
		<use xlink:href="#Pencil"  width="25" height="137.4" id="XMLID_601_" x="-12.5" y="-68.6" transform="matrix(-1.0642 -0.4065 -0.4065 1.0642 691.7454 710.3878)" overflow="visible"/>
	<g id="XMLID_469_">
		<g id="XMLID_401_" transform="matrix(6.12323e-17,1,-1,6.12323e-17,1569.79,-228.47)">
			<g id="XMLID_402_" transform="matrix(1,0,0,1,-56,-5.08887)">
				<path id="XMLID_403_" fill="#BCC9D8" d="M430.9,183.6C297.3,167,203.6,35.9,220.2-97.7s138.4-228.5,272-211.8
					s228.5,138.4,211.8,272C687.5,96.1,564.5,200.2,430.9,183.6z"/>
			</g>
		</g>
		<g id="XMLID_30_" transform="matrix(6.12323e-17,1,-1,6.12323e-17,1569.79,-228.47)">
			<g id="XMLID_32_" transform="matrix(1,0,0,1,-56,-5.08887)">
				<path id="XMLID_80_" fill="#698CC8" d="M431.1,181.3C298.6,164.8,205.7,34.9,222.2-97.6s137.3-226.5,269.8-210
					c132.5,16.5,226.5,137.3,210,269.8S563.6,197.8,431.1,181.3z"/>
			</g>
		</g>
		<g id="XMLID_82_" transform="matrix(6.12323e-17,1,-1,6.12323e-17,1569.79,-228.47)">
			<g id="XMLID_83_" transform="matrix(1,0,0,1,-56,-5.08887)">
				<path id="XMLID_86_" fill="#6285B7" d="M434.4,154.7C316.3,140,233.5,24.2,248.2-93.9s122.3-201.9,240.4-187.2
					S690.5-158.8,675.8-40.7C661.1,77.4,552.5,169.4,434.4,154.7z"/>
			</g>
		</g>
		<g id="XMLID_87_" transform="matrix(6.12323e-17,1,-1,6.12323e-17,1569.79,-228.47)">
			<g id="XMLID_108_" transform="matrix(1,0,0,1,-56,-5.08887)">
				<path id="XMLID_109_" fill="#587CA0" d="M436.2,139.6c-110-13.7-187.1-121.5-173.4-231.5s113.9-188,223.9-174.3
					s188,113.9,174.3,223.9C647.4,67.6,546.2,153.3,436.2,139.6z"/>
			</g>
		</g>
		<g id="XMLID_84_" transform="matrix(6.12323e-17,1,-1,6.12323e-17,1569.79,-228.47)">
			<g id="XMLID_85_" transform="matrix(1,0,0,1,-56,-5.08887)">
				<path id="XMLID_400_" fill="#4F6F8C" d="M438.3,122.9C337.3,110.3,266.4,11.3,279-89.7s104.6-172.7,205.6-160.1
					c101,12.6,172.7,104.6,160.1,205.6S539.3,135.5,438.3,122.9z"/>
			</g>
		</g>
		<polygon id="XMLID_368_" opacity="0.2" fill="#698CC8" points="1639.1,175.4 1862.7,250.5 1876.7,155 1832.7,48.8 1784.7,-1.9 
			1720.4,-41.7 1627.8,-49.7 1545,-29.1 1460.3,28.6 1405.2,142.9 1406.6,204.6 		"/>
		<polygon id="XMLID_342_" opacity="0.6" fill="#698CC8" points="1646.6,169.2 1717.8,385.4 1656.5,396.6 1631.3,172 		"/>
		<polygon id="XMLID_178_" opacity="0.6" fill="#698CC8" points="1642.9,176.3 1482.1,325 1445,298.7 1432.7,253.2 1635.4,163.4 		
			"/>
		<g id="XMLID_232_">
			<g id="XMLID_502_">
				<g id="XMLID_493_">
					<path id="XMLID_501_" fill="#404040" d="M1582.6,194.1l20.8-65.1c2.5-7.9,11-12.2,18.9-9.7l65.1,20.8c7.9,2.5,12.2,11,9.7,18.9
						l-20.8,65.1c-2.5,7.9-11,12.2-18.9,9.7l-65.1-20.8C1584.5,210.4,1580.1,202,1582.6,194.1z"/>
					<path id="XMLID_500_" fill="#404040" d="M1611.8,229.4l-31.3-60.7c-3.8-7.3-0.9-16.4,6.5-20.2l60.7-31.3
						c7.3-3.8,16.4-0.9,20.2,6.5l31.3,60.7c3.8,7.3,0.9,16.4-6.5,20.2l-60.7,31.3C1624.7,239.6,1615.6,236.7,1611.8,229.4z"/>
				</g>
				<g id="XMLID_491_">
					<path id="XMLID_107_" fill="#404040" d="M1580.2,170.9l44.1-52.2c5.3-6.3,14.8-7.1,21.1-1.8l52.2,44.1
						c6.3,5.3,7.1,14.8,1.8,21.1l-44.1,52.2c-5.3,6.3-14.8,7.1-21.1,1.8L1582,192C1575.7,186.7,1574.9,177.2,1580.2,170.9z"/>
					<path id="XMLID_106_" fill="#404040" d="M1593.7,214.6l-5.7-68.1c-0.7-8.2,5.5-15.5,13.7-16.2l68.1-5.7
						c8.2-0.7,15.5,5.5,16.2,13.7l5.7,68.1c0.7,8.2-5.5,15.5-13.7,16.2l-68.1,5.7C1601.7,229,1594.4,222.9,1593.7,214.6z"/>
				</g>
			</g>
			<path id="XMLID_490_" fill="#4D4D4D" d="M1600.4,143.2L1600.4,143.2c18.3-21.7,51.1-24.4,72.8-6.1l0,0
				c21.7,18.3,24.4,51.1,6.1,72.8v0c-18.3,21.7-51.1,24.4-72.8,6.1l0,0C1584.8,197.6,1582.1,164.9,1600.4,143.2z"/>
		</g>
	</g>
	<g id="XMLID_201_">
		<path id="XMLID_41_" fill="#3C80C8" d="M1167.7,833.7c-10.9-3.2-17.2-14.5-14.2-25.5c0,0,0.8-9.1,15.2-58.9
			c14.5-49.8,19.6-64,19.6-64c1.7-5.9,7.8-9.2,13.7-7.5l48.3,14c5.9,1.7,9.2,7.8,7.5,13.7c0,0-6.2,23.4-18.1,64.4
			c-11.9,41-19,57.8-19,57.8c-3.3,10.9-14.7,17.1-25.6,13.9L1167.7,833.7z"/>
		<path id="XMLID_40_" fill="#DCE3F8" d="M1175.5,821.9c-9.7-2.8-15.3-12.9-12.6-22.6l29-109.3c1.5-5.2,6.9-8.2,12.1-6.7l41.6,12.1
			c5.2,1.5,8.2,6.9,6.7,12.1l-34,107.9c-2.9,9.6-13,15.1-22.7,12.3L1175.5,821.9z"/>
		<path id="XMLID_39_" fill="#182F4C" d="M1222.7,775.2c4.3,1.2,8.8-1.2,10-5.5l19.5-62.1c1.5-5.2-1.5-10.6-6.7-12.1l-41.6-12.1
			c-5.2-1.5-10.6,1.5-12.1,6.7l-16.8,62.9c-1.2,4.3,1.2,8.8,5.5,10c3.3,1,7.5,5.7,6.9,10.4l-0.7,5.2c-0.3,2.7,1.3,5.2,3.9,6
			l11.7,3.4c2.6,0.8,5.4-0.5,6.5-3l2.2-4.8C1213.7,775.3,1219.4,774.2,1222.7,775.2z"/>
		<circle id="XMLID_38_" fill="#3C80C8" cx="1222.4" cy="699.2" r="23.2"/>
		<circle id="XMLID_17_" fill="#FFFFFF" cx="1222.4" cy="699.2" r="15.7"/>
		<path id="XMLID_13_" fill="#DCE3F8" d="M1214.3,771.2l-22.9-6.6c-1.3-0.4-2.1-1.8-1.7-3.1l0.3-1.2c0.4-1.3,1.8-2.1,3.1-1.7
			l22.9,6.6c1.3,0.4,2.1,1.8,1.7,3.1l-0.3,1.2C1217,770.8,1215.6,771.5,1214.3,771.2z"/>
		<path id="XMLID_12_" fill="#1B2F4F" d="M1191.3,823.1l-8.7-2.5c-1.4-0.4-2.3-1.9-2.1-3.3l1.1-6.4c0.2-1,1.2-1.7,2.2-1.4
			c0,0,3.9,0.5,6.4,1.2s6.1,2.4,6.1,2.4c1,0.3,1.5,1.4,1.1,2.4l-2.5,6C1194.2,822.8,1192.7,823.6,1191.3,823.1z"/>
		<path id="XMLID_11_" fill="#DCE3F8" d="M1203,784l-9.4-2.7c-1.6-0.5-2.5-2-2.3-3.6l1.2-7c0.2-1.1,1.3-1.8,2.4-1.5l13.5,3.9
			c1.1,0.3,1.7,1.5,1.2,2.6l-2.7,6.5C1206.2,783.7,1204.6,784.5,1203,784z"/>
		<g id="XMLID_10_">
			
				<rect id="XMLID_53_" x="1194.8" y="778.4" transform="matrix(0.9604 0.2786 -0.2786 0.9604 264.5404 -303.3129)" fill="#182F4C" width="9.2" height="1.1"/>
		</g>
		<g id="XMLID_9_">
			
				<rect id="XMLID_35_" x="1195.4" y="776.4" transform="matrix(0.9604 0.2786 -0.2786 0.9604 263.9985 -303.5572)" fill="#182F4C" width="9.2" height="1.1"/>
		</g>
		<g id="XMLID_8_">
			
				<rect id="XMLID_27_" x="1195.9" y="774.4" transform="matrix(0.9604 0.2786 -0.2786 0.9604 263.4566 -303.8015)" fill="#182F4C" width="9.2" height="1.1"/>
		</g>
		<path id="XMLID_7_" fill="#1B2F4F" d="M1215.1,788l3,0.5c2.3,0.4,4.6-0.8,5.4-3l1.6-4c0.3-0.9-0.2-1.8-1.1-2l-5.4-1
			c-1.1-0.2-2.3,0.4-2.7,1.5l-2.2,5.5C1213.3,786.6,1214,787.8,1215.1,788z"/>
		<path id="XMLID_6_" fill="#1B2F4F" d="M1180.8,778.1l-2.8-1.1c-2.2-0.9-3.4-3.2-3-5.4l0.8-4.2c0.2-0.9,1.1-1.4,2-1.1l5.1,2.1
			c1.1,0.4,1.7,1.6,1.5,2.7l-1.1,5.8C1183.1,777.8,1181.9,778.5,1180.8,778.1z"/>
		<g id="XMLID_5_">
			<path id="XMLID_26_" fill="#DCE3F8" d="M1187.5,819.8c-0.9-0.3-1.7-0.9-2.2-1.8c-1-1.8-0.3-4.1,1.5-5.1l0.5,1
				c-1.3,0.7-1.7,2.3-1,3.5c0.7,1.3,2.3,1.7,3.5,1c1.3-0.7,1.7-2.3,1-3.5l1-0.5c1,1.8,0.3,4.1-1.5,5.1
				C1189.4,820,1188.4,820.1,1187.5,819.8z"/>
		</g>
		<g id="XMLID_4_">
			
				<rect id="XMLID_24_" x="1188.6" y="812.7" transform="matrix(0.9604 0.2786 -0.2786 0.9604 273.8753 -299.1046)" fill="#DCE3F8" width="1.1" height="2.5"/>
		</g>
		<path id="XMLID_3_" fill="#FFFFFF" d="M1224.8,761l-37.9-11c-2.2-0.6-3.4-2.9-2.8-5l4.4-17.7c0.4-1.5,1.9-2.4,3.4-1.9l41.9,12.1
			c1.5,0.4,2.3,2,1.8,3.4l-5.7,17.3C1229.2,760.4,1226.9,761.6,1224.8,761z"/>
	</g>
	<g id="XMLID_49_" transform="matrix(0.203479,0,0,0.203479,1069.49,361.343)">
		<g id="XMLID_197_" transform="matrix(1,0,0,0.968614,0,16.0376)">
			<path id="XMLID_198_" fill="#404040" d="M-2384.4-3821.8c6.6-21.1-4.6-43.8-25.1-50.6l-381.2-127.3c-20.5-6.8-42.4,4.8-49,25.9
				l-270.2,862.4c-6.6,21.1,4.6,43.8,25.1,50.6l381.2,127.3c20.5,6.8,42.4-4.8,49-25.9L-2384.4-3821.8z"/>
		</g>
		<g id="XMLID_195_" transform="matrix(0.926172,0,0,0.846214,62.1365,47.9694)">
			<path id="XMLID_196_" fill="#C5D5EF" d="M-2659.9-4418.1c2.7-9-1.9-18.7-10.1-21.7l-425.5-150.6c-8.2-2.9-17.1,2-19.8,11.1
				l-267.8,906.2c-2.7,9,1.9,18.7,10.1,21.6l425.5,150.6c8.2,2.9,17.1-2,19.8-11.1L-2659.9-4418.1z"/>
		</g>
		<g id="XMLID_59_" transform="matrix(1.0026,0,0,1.0026,794.054,262.892)">
			<g id="XMLID_193_">
				<path id="XMLID_194_" fill="#355996" d="M-3434.4-3862.8c0.4-1.3-0.1-2.4-0.6-3.3c-1.4-2.6-2.8-5.2-4.2-7.9l-2.2-4.2
					c0-0.1-0.1-0.1-0.1-0.2l-0.2-1.1l-2.9-0.9l-4.3,2.2c-3.1,1.6-6.3,3.3-9.4,4.9c-0.4,0.2-1.6,0.8-2,2.1c-0.4,1.3,0.2,2.5,0.4,2.9
					c1.3,2.5,2.6,5.1,3.9,7.6c0.7,1.4,1.4,2.8,2.2,4.2c1.4,2.7,3,3.2,5.8,1.8c3.6-1.9,7.4-3.8,11.2-5.7
					C-3435.8-3860.9-3434.8-3861.6-3434.4-3862.8z"/>
			</g>
			<g id="XMLID_175_">
				<path id="XMLID_192_" fill="#355996" d="M-3527.1-3818.2c-0.3-0.6-0.7-1-1-1.4c-0.2-0.2-0.3-0.3-0.4-0.5l-0.8-0.9l-1.1,0.3
					c-0.1,0.1-0.3,0.1-0.5,0.1c-0.5,0.1-1.1,0.2-1.6,0.5c-4,2.1-7.9,4.2-11.8,6.2c-2.3,1.2-2.8,2.9-1.6,5.3c2.1,4.2,4.1,8.1,6,11.9
					c0.6,1.2,1.4,2,2.3,2.3s2,0.1,3.2-0.5l2.7-1.4c2.9-1.5,5.9-2.9,8.8-4.4c0.9-0.5,2.2-1.1,2.6-2.4c0.4-1.3-0.2-2.5-0.7-3.3
					C-3523.4-3811.2-3525.3-3814.8-3527.1-3818.2z"/>
			</g>
			<g id="XMLID_173_">
				<path id="XMLID_174_" fill="#355996" d="M-3505.2-3810c-0.2,0.2-0.2,0.3-0.3,0.4l-0.6,0.7l0.2,0.9c0,0.1,0,0.3,0.1,0.4l0,0.1
					c0.1,0.5,0.1,1.3,0.5,2c1.8,3.5,3.7,7.3,5.9,11.5c1.1,2.1,3.4,2.8,5.6,1.8c1.5-0.7,2.9-1.4,4.3-2.1l1.8-0.9
					c1.7-0.9,3.5-1.7,5.2-2.6c1.4-0.7,2.2-1.6,2.6-2.6c0.3-1,0.2-2.2-0.5-3.5c-1-1.9-2-3.8-3-5.6c-0.6-1.1-1.2-2.2-1.8-3.3
					c-0.3-0.7-0.7-1.3-1-2l-0.5-0.9c-0.9-1.8-2.6-2.4-4.3-1.5c-3.8,1.8-8.2,4-12.7,6.3C-3504.5-3810.9-3504.9-3810.4-3505.2-3810z"
					/>
			</g>
			<g id="XMLID_171_">
				<path id="XMLID_172_" fill="#355996" d="M-3555.5-3760.8c4.4-2.2,7.9-4.1,11.2-5.7c2.8-1.4,3.3-3.2,1.9-6
					c-1.8-3.6-3.7-7.3-5.8-11.3c-0.3-0.6-0.6-1-1-1.3c-0.2-0.2-0.3-0.3-0.4-0.5l-0.8-0.9l-1.1,0.3c-0.2,0-0.4,0.1-0.5,0.1
					c-0.5,0.1-1,0.2-1.6,0.5c-4.7,2.3-8.2,4-11.6,5.7c-2.8,1.4-3.3,3-1.9,5.9c1.7,3.3,3.5,6.9,5.8,11.5
					C-3559.9-3760-3558.1-3759.4-3555.5-3760.8z"/>
			</g>
			<g id="XMLID_169_">
				<path id="XMLID_170_" fill="#355996" d="M-3609.4-3729.7l0.3-0.1c1.8-0.9,3.5-1.8,5.3-2.7c2.4-1.2,3-2.9,1.7-5.3
					c-1.9-3.7-3.9-7.6-5.9-11.6c-0.3-0.5-0.6-0.9-0.9-1.3c-0.2-0.2-0.3-0.3-0.4-0.5l-0.7-1l-1.2,0.3c-0.1,0.1-0.3,0.1-0.5,0.1
					c-0.5,0.1-1.1,0.2-1.6,0.5c-2.5,1.2-4.9,2.5-7.4,3.7l-4.7,2.4c-1.3,0.6-1.8,1.5-2,2.1c-0.2,0.6-0.3,1.6,0.3,2.9l1.8,3.5
					c1.6,3.1,3.2,6.2,4.7,9.3c0.4,0.9,1,1.4,1.7,1.6c1.1,0.4,2.1-0.1,2.4-0.3C-3614.1-3727.3-3611.8-3728.5-3609.4-3729.7z"/>
			</g>
			<g id="XMLID_167_">
				<path id="XMLID_168_" fill="#355996" d="M-3459.5-3829.5c0.6-0.3,1-0.8,1.3-1.2c0.1-0.1,0.2-0.3,0.3-0.4l0.7-0.7l-0.2-1
					c0-0.1,0-0.3-0.1-0.4c-0.1-0.5-0.2-1-0.5-1.6c-1.2-2.4-2.4-4.8-3.7-7.3l-2.3-4.5c-0.5-1-1.3-1.7-2.2-2c-0.9-0.3-1.9-0.2-2.9,0.3
					c-3.5,1.7-7,3.5-10.4,5.2l-1.9,0.9c-1.1,0.5-1.5,1.4-1.7,1.9c-0.2,0.5-0.3,1.4,0.3,2.5c1.8,3.6,4.2,8.3,6.6,13
					c0.4,0.8,1.1,1.4,1.9,1.7c0.9,0.3,1.8,0.2,2.6-0.3C-3468.3-3824.9-3463.9-3827.2-3459.5-3829.5z"/>
			</g>
			<g id="XMLID_165_">
				<path id="XMLID_166_" fill="#355996" d="M-3419.6-3826.3c1.1-0.6,1.7-2.2,1.3-3.4c-1.8-4.6-3.5-9.2-5.3-13.8
					c-0.3-0.9-0.9-1.9-2.1-2.3c-1.3-0.5-2.6,0.1-3.3,0.5c-4.3,2.1-7.9,3.9-11.3,5.7c-0.6,0.4-1.1,0.8-1.6,1.2
					c-0.2,0.1-0.3,0.3-0.5,0.5l-0.9,0.7l0.3,1.1c0.1,0.2,0.1,0.4,0.1,0.6c0.1,0.5,0.2,1.1,0.5,1.7c2.2,4.5,4,8.1,5.7,11.5
					c1.1,2.1,3.3,2.9,5.5,1.8C-3427.8-3822.1-3424.2-3823.9-3419.6-3826.3z"/>
			</g>
			<g id="XMLID_60_">
				<g id="XMLID_61_">
					<path id="XMLID_62_" fill="#355996" d="M-3662.7-3584.9c9.2,24.7,23.9,45.8,43.5,62.6c12.9,11.1,27.9,20,44.5,26.4
						c12.1,4.7,25,7.7,38.5,9.1c5,0.5,10,0.6,15,0.7l0.4,0c1.4,0,2.8,0,4.2,0.1c0.3,0,0.7,0,1-0.1l19.8-2.1c0.7,0,1.4-0.1,2.3-0.2
						l0.9-0.2c15.6-3,30.6-8.4,44.7-16.1c0.3-0.1,0.5-0.3,0.7-0.5l16-10.3c0.2-0.1,0.4-0.3,0.6-0.4c9.3-7,17.7-14.9,25.1-23.6
						c6.5-7.6,12.3-16.1,17.2-25c5.4-9.8,9.8-20.6,13.1-32.1c0.4-1.6,0.1-2.7-1-3.6c-0.1-0.1-0.2-0.2-0.2-0.3l-0.2-0.4
						c-0.7-1.3-1.3-2.6-2-3.9c-1.1-2.2-2.3-4.4-3.4-6.6c-0.1-0.2-0.1-0.4-0.1-0.6c0.1-0.2,0.2-0.4,0.4-0.5c1.4-0.7,2.9-1.5,4.3-2.2
						c1.4-0.8,2.9-1.5,4.3-2.2c0.7-0.3,2.4-1.2,2.5-3.6c0.1-2.6,0.3-5.3,0.4-7.9l0.1-1.3c0.2-3.3,0.3-6.6,0.5-9.8l0.1-2.5
						c0.2-2.9,0.3-6.3,0.2-9.5c-0.2-8.1-1.4-16-3.1-25.5l-0.4-2.3l-3.5,1.5c-0.4,0.2-0.8,0-1-0.4c-1.7-3.3-3.4-6.6-5.1-10l-0.3-0.6
						c-0.1-0.2-0.1-0.4-0.1-0.6c0.1-0.2,0.2-0.4,0.4-0.5c1.6-0.8,3-1.5,4.5-2.3c0.8-0.5,2-1.9,1.6-3.3c-1.1-4.7-2.3-9.4-3.4-14
						l-0.5-2c-0.1-0.4-0.3-0.7-0.5-0.9c-0.1-0.1-0.2-0.2-0.2-0.4l-0.9-1.5l-2.5,1.4c-0.2,0.2-0.4,0.4-0.6,0.5
						c-0.9,0.5-1.9,0.9-2.8,1.4l-0.6,0.3c-0.4,0.2-0.8,0-1-0.3c-2-3.7-3.7-7.1-5.4-10.4c-0.2-0.4,0-0.8,0.3-1l2-1
						c1.8-0.9,2.2-1.1,2.9-1.4c0.4-0.2,1-0.5,2.1-1c2.9-1.4,2.4-3.6,1.9-4.7c-1.1-2.4-2.2-4.7-3.3-7.3l-0.5-1.1
						c-0.5-1.2-1.1-2.5-1.6-3.7c-0.1-0.3-0.1-0.5,0.1-0.7c1.1-1.4,0.6-2.9,0.4-3.6l-0.2-0.8c-1.4-4.4-2.8-9-4.2-13.6
						c-0.1-0.5-0.5-1.7-1.7-2.2c-1.2-0.5-2.4,0.1-2.8,0.3c-0.4,0.2-0.7,0.3-1,0.5c-0.4,0.2-0.8,0-1-0.3l-0.6-1
						c-0.6-1-1.1-2.1-1.6-3.1c-0.9-1.8-1.9-3.6-2.8-5.3c-0.2-0.4-0.3-0.7-0.4-0.9c-0.1-0.3,0-0.7,0.3-0.9c0.1-0.1,0.4-0.3,0.8-0.5
						c0.3-0.2,0.6-0.4,1-0.5c0.8-0.4,1.6-0.8,2.4-1.3c1-0.7,1.7-2.2,1.3-3.5c-1.1-3.3-2.2-6.6-3.3-9.9l-0.1-0.3
						c-0.6-1.8-1.2-3.5-1.8-5.2c-0.4-1.1-1-1.6-1.5-1.8c-0.7-0.3-1.5-0.2-2.4,0.2l-2.1,1.1c-1.5,0.8-3,1.5-4.5,2.3
						c-0.2,0.1-0.5,0.1-0.7,0c-0.2-0.1-0.4-0.3-0.4-0.5c-0.3-0.8-0.5-1.4-0.7-2c-1.4-3.2-3-6.3-4.5-9.3c-0.8-1.6-2.7-2.8-5.4-1.4
						l-3.6,1.8c-1.8,0.9-3.5,1.8-5.3,2.7c-0.6,0.3-1.6,0.8-2.2,1c-0.3,0.1-0.7,0-0.9-0.3c-0.4-0.6-0.9-1.6-1.2-2.2
						c-1-1.9-2-3.8-2.9-5.6c-0.6-1.1-1.2-2.3-1.8-3.5c-1.3-2.5-2.8-3-5.3-1.8c-3.9,1.9-7.9,3.9-11.8,5.9c-0.7,0.3-1.8,0.9-2.2,2.2
						c-0.4,1.2,0.2,2.4,0.5,3c1,2,2,3.9,3,5.9c1,1.9,2,3.8,3,5.8c0.2,0.4,0.1,0.8-0.3,1c-1.6,0.8-3.2,1.7-4.8,2.5l-0.2,0.1
						c-1.8,0.9-3.6,1.8-5.4,2.7c-3.4,1.8-3.9,3.4-2.1,6.9c1.1,2.2,2.3,4.5,3.4,6.7l1.6,3.2c0.2,0.4,0.1,0.8-0.3,1l-0.7,0.4
						c-3,1.6-6.1,3.2-9.2,4.8l-0.4,0.2c-0.2,0.1-0.4,0.1-0.6,0.1c-0.1,0-0.4-0.2-0.5-0.4l-5.7-10.8c-1.5-2.8-2.9-3.2-5.7-1.8
						l-11.1,5.7c-0.4,0.1-0.9,0-1-0.3l-2.1-4.1c-1.3-2.6-2.7-5.2-4-7.9c-0.2-0.4-0.7-1.4-1.8-1.8c-1-0.3-1.9,0-2.6,0.4
						c-2.7,1.4-5.4,2.8-8,4.1l-3.9,2c-0.8,0.4-2.2,1.1-2.7,2.5c-0.4,1.3,0.1,2.5,0.7,3.7l1.8,3.5c1.2,2.3,2.4,4.8,3.7,7.1
						c0.1,0.2,0.1,0.4,0.1,0.6c-0.1,0.2-0.2,0.4-0.4,0.5c-1.9,0.9-3.8,1.9-5.6,2.8c-2,1-3.9,2-5.9,3c-0.5,0.2-1.6,0.8-2,2
						c-0.4,1.2,0.2,2.3,0.4,2.7c1.3,2.5,2.6,5,3.9,7.5l2,4c0.1,0.2,0.1,0.4,0,0.6c-0.1,0.2-0.2,0.4-0.4,0.5
						c-2.4,1.2-4.9,2.5-7.3,3.7l-3.5,1.8c-0.2,0.1-0.4,0.1-0.6,0c-0.2-0.1-0.4-0.2-0.5-0.4c-0.4-0.8-0.8-1.7-1.2-2.5
						c-1.3-2.7-2.7-5.4-4.1-8.1c-1.3-2.6-3.2-3.2-5.8-1.9l-1.3,0.7c-3.1,1.6-6.2,3.2-9.4,4.8c-0.2,0.1-0.4,0.1-0.6,0.1
						c-0.2-0.1-0.4-0.2-0.5-0.4c-1-2.1-2.1-4.1-3.1-6.1l-2.2-4.4c-0.6-1.2-1.3-2.5-2.6-2.9c-1.4-0.4-2.7,0.2-3.9,0.8
						c-3.5,1.8-6.9,3.5-10.4,5.4c-3.2,1.7-3.7,3.1-2,6.4l1.1,2.2c1.4,2.8,2.8,5.6,4.3,8.4c0.1,0.2,0.1,0.4,0,0.6
						c-0.1,0.2-0.2,0.4-0.4,0.5c-1.5,0.7-2.9,1.5-4.4,2.2l-0.9,0.5c-2.1,1.1-4.2,2.2-6.3,3.2c-0.4,0.2-1.4,0.7-1.8,1.8
						c-0.4,1.1,0.2,2.2,0.4,2.5c1.7,3.3,3.5,6.7,5.1,10l0.8,1.5c0.1,0.2,0.1,0.4,0,0.6c-0.1,0.2-0.2,0.4-0.4,0.5
						c-2.8,1.4-5.6,2.9-8.5,4.4l-2,1c-0.2,0.1-0.3,0.1-0.6,0c-0.2-0.1-0.4-0.2-0.5-0.4c-1.8-3.7-3.4-7-5.1-10.4
						c-0.5-1-1.2-2.1-2.6-2.6c-1.3-0.4-2.7,0.1-3.7,0.6l-2.5,1.3c-2.7,1.4-5.4,2.8-8.1,4.2c-0.2,0.1-0.4,0.1-0.6,0.1
						s-0.4-0.2-0.5-0.4c-1.7-3.5-3.5-6.9-5.2-10.2c-1.8-3.5-3.5-4-7-2.3c-2.1,1-4.2,2.1-6.3,3.1l-0.4,0.2c-1.4,0.7-2.8,1.4-4.2,2.1
						c-1.1,0.5-1.8,1.2-2.1,2.2c-0.2,0.6-0.3,1.6,0.3,2.9l5.9,11.6c0.1,0.2,0.1,0.4,0,0.6c-0.1,0.2-0.2,0.4-0.4,0.5
						c-3.3,1.6-6.9,3.4-11.2,5.6c-1.1,0.6-2,1.2-2.3,2.3s0,2.1,0.6,3.2l1.3,2.6c1.4,2.8,2.8,5.7,4.3,8.5c0.1,0.2,0.1,0.4,0,0.6
						c-0.1,0.2-0.2,0.4-0.4,0.5c-2.2,1.1-4.4,2.2-6.5,3.3l-0.2,0.1c-1.3,0.7-2.6,1.4-3.9,2l-0.6,0.3l-1.7,4.3l3.1,6
						c1,2.1,2.1,4.1,3.2,6.1c0.1,0.2,0.1,0.4,0,0.6c-0.1,0.2-0.2,0.4-0.4,0.5c-3.3,1.6-7.1,3.6-10.8,5.5c-1,0.6-1.6,1.8-1.8,2.7
						c-0.6,2.8,0.6,5.2,1.5,6.6c0.9,1.4,1.7,2.9,2.5,4.4c0.5,1,1.1,2,1.7,3c0.1,0.2,0.1,0.4,0.1,0.6c-0.1,0.2-0.3,0.4-0.5,0.5
						c-0.3,0.1-0.6,0.2-0.9,0.4c-3.4,1.6-4.1,2.3-3.5,6.2c0.5,3.5,1.1,7.1,1.7,10.5l0.5,3.3c0.1,0.4,0.2,0.8,0.3,1.2
						c0,0,0,0.2,0.1,0.2l0.7,2.5l6.3-2.9c0.2-0.1,0.4-0.1,0.6,0l0,0c0.2,0.1,0.4,0.2,0.4,0.4c0.2,0.6,0.5,1.2,0.8,1.7
						c1.4,2.9,2.9,5.8,4.5,8.8c0.1,0.2,0.1,0.4,0,0.6c-0.1,0.2-0.2,0.4-0.4,0.5c-1.2,0.6-1.7,0.8-2.1,0.9c-0.5,0.2-0.7,0.3-2.5,1.2
						c-0.4,0.2-0.7,0.3-0.9,0.5c-2.4,1.1-3.1,2-2,4.9L-3662.7-3584.9z M-3578.2-3692.7l-0.7,0.3c-0.2-0.5-0.5-1-0.7-1.5l-1.3-2.5
						c-1-2-2.1-4.1-3.1-6.2c-0.1-0.2-0.1-0.4,0-0.6c0.1-0.2,0.2-0.4,0.4-0.5c3.4-1.7,6.9-3.5,10.5-5.4c0.4-0.2,0.8-0.1,1,0.3
						c0.7,1.3,1.4,2.6,2.1,3.9c1.1,2.1,2.2,4.1,3.3,6.1c0.2,0.4,0.1,0.8-0.3,1.1l-0.8,0.5l-0.2,0.1c-3.1,1.8-6.3,3.6-9.5,5.2
						c-0.2,0.1-0.4,0.1-0.6,0.1c-0.2-0.1-0.4-0.2-0.5-0.4L-3578.2-3692.7z M-3582.2-3650.7c-3,1.6-6.4,3.3-10.4,5.4
						c-0.2,0.1-0.4,0.1-0.6,0c-0.2-0.1-0.4-0.2-0.4-0.4c-1.6-3.1-3.2-6.2-4.8-9.3l-0.5-1.1c-0.2-0.4-0.1-0.8,0.3-1.1
						c1.8-1,3.7-2,5.5-3l0.2-0.1c1.5-0.8,3.1-1.6,4.6-2.5c0.2-0.1,0.5-0.2,0.7-0.1c0.2,0.1,0.4,0.2,0.5,0.4l1.8,3.5
						c1.2,2.3,2.4,4.7,3.6,7C-3581.7-3651.3-3581.9-3650.9-3582.2-3650.7z M-3589.7-3627.2c-3.4,1.7-6.5,3.3-9.6,4.9l-0.8,0.5
						c-0.2,0.1-0.4,0.1-0.6,0.1c-0.2-0.1-0.4-0.2-0.5-0.4l-0.3-0.7c-1.5-2.9-2.9-5.9-4.3-8.8l-0.6-1.3c-0.2-0.4,0-0.8,0.3-1l3.3-1.7
						l0.4-0.2c2.1-1.1,4.3-2.2,6.4-3.2c0.2-0.1,0.3-0.1,0.7-0.2c0.3,0,0.6,0.1,0.7,0.3c0.4,0.6,0.8,1.2,1.1,1.7
						c0.8,1.6,1.5,3.3,2.2,5c0.6,1.3,1.2,2.7,1.8,3.9C-3589.2-3627.8-3589.4-3627.3-3589.7-3627.2z M-3612.1-3557.4
						c-2.2,1.1-4.3,2.1-6.4,3.2l-4.4,2.2c-0.2,0.1-0.4,0.1-0.6,0c-0.2-0.1-0.4-0.2-0.4-0.4c-1.7-3.4-3.5-6.9-5.3-10.5
						c-0.2-0.4,0-0.8,0.3-1c3.4-1.8,6.9-3.6,10.7-5.5c0.4-0.2,0.8-0.1,1,0.3c1.5,3,3.5,6.7,5.4,10.6
						C-3611.6-3558.1-3611.7-3557.6-3612.1-3557.4z M-3577.5-3614.2c-0.2-0.1-0.4-0.2-0.5-0.4c-1.7-3.2-3.3-6.5-5-9.8l-0.3-0.6
						c-0.2-0.4-0.1-0.8,0.3-1l4.5-2.3l6-3.1c0.2-0.1,0.4-0.1,0.6,0c0.2,0.1,0.4,0.2,0.5,0.4l5.3,10.4c0.2,0.4,0.1,0.8-0.3,1
						c-3.8,2-7.3,3.7-10.6,5.4C-3577.1-3614.1-3577.3-3614.1-3577.5-3614.2z M-3575.9-3648.3c-0.1-0.2-0.1-0.4,0-0.6
						c0.1-0.2,0.2-0.4,0.4-0.5l5.4-2.7c1.8-0.9,3.5-1.8,5.3-2.7c0.4-0.2,0.8,0,1,0.3c0.8,1.5,1.6,3.1,2.3,4.6l0.2,0.4
						c0.9,1.8,1.8,3.7,2.8,5.5c0.1,0.2,0.1,0.4,0,0.6c-0.1,0.2-0.2,0.4-0.4,0.5c-3.2,1.7-6.5,3.3-9.7,4.9l-0.9,0.5
						c-0.2,0.1-0.4,0.1-0.6,0c-0.2-0.1-0.4-0.2-0.5-0.4l-1.4-2.8C-3573.3-3643.2-3574.6-3645.8-3575.9-3648.3z M-3550.6-3588.8
						l-4.4,2.2c-2.1,1.1-4.1,2.1-6.2,3.1c-0.2,0.1-0.4,0.1-0.6,0s-0.4-0.2-0.5-0.4c-1.6-3.1-3.3-6.5-5.3-10.6c-0.2-0.4,0-0.8,0.3-1
						c3.5-1.8,7-3.6,10.5-5.3c0.4-0.2,0.8-0.1,1,0.3l5.4,10.5c0.1,0.2,0.1,0.4,0,0.6C-3550.3-3589.1-3550.4-3588.9-3550.6-3588.8z
						 M-3534.9-3558.1c-3.5,1.8-7,3.6-10.4,5.4c-0.2,0.1-0.4,0.1-0.6,0c-0.2-0.1-0.4-0.2-0.4-0.4c-1.8-3.4-3.5-6.7-5.3-10.1
						l-0.2-0.5c-0.1-0.2-0.1-0.4,0-0.6c0.1-0.2,0.2-0.4,0.4-0.5l10.7-5.4c0.4-0.2,0.8-0.1,1,0.3c0.8,1.5,1.6,3,2.3,4.6c1,2,2,4,3,6
						C-3534.4-3558.8-3534.6-3558.4-3534.9-3558.1z M-3517.4-3647.8c-1.4-2.8-2.9-5.8-4.4-8.7c0-0.1-0.1-0.2-0.1-0.3
						c-0.1-0.3,0.1-0.7,0.4-0.8l0.7-0.4c3.2-1.6,6.5-3.3,9.8-5c0.2-0.1,0.4-0.1,0.6,0c0.2,0.1,0.4,0.2,0.5,0.4
						c1.1,2.2,2.2,4.4,3.3,6.5l2,4c0.2,0.4,0.1,0.8-0.3,1l-10.5,5.4c-0.2,0.1-0.4,0.1-0.6,0c-0.2-0.1-0.4-0.2-0.5-0.4
						L-3517.4-3647.8z M-3489.2-3620.3c-3.3,1.7-6.7,3.4-10.5,5.3c-0.2,0.1-0.4,0.1-0.6,0s-0.4-0.2-0.4-0.4c-1.8-3.5-3.6-7-5.4-10.5
						c-0.2-0.4-0.1-0.8,0.3-1c3.3-1.7,6.8-3.5,10.4-5.3c0.2-0.1,0.4-0.1,0.6-0.1c0.2,0,0.4,0.2,0.5,0.4c1.8,3.3,3.6,6.8,5.4,10.4
						C-3488.6-3620.9-3488.8-3620.5-3489.2-3620.3z M-3444.2-3759.9c-2.3,1.1-4.6,2.3-6.8,3.4l-0.3,0.1c-1.1,0.6-2.2,1.1-3.4,1.7
						c-0.2,0.1-0.4,0.1-0.6,0c-0.2-0.1-0.4-0.2-0.5-0.4l-1.2-2.4c-1.4-2.8-2.8-5.5-4.1-8.3c-0.2-0.4-0.1-0.9,0.3-1.1l10.6-5.4
						c0.2-0.1,0.5-0.1,0.6,0c0.2,0.1,0.4,0.2,0.5,0.4c1.5,3.4,3.2,6.9,5.2,10.8c0.1,0.2,0.1,0.4,0,0.6
						C-3443.9-3760.2-3444-3760-3444.2-3759.9z M-3451.2-3737.1c-0.1,0.2-0.2,0.4-0.4,0.5c-3.8,1.9-7.3,3.6-10.5,5.2
						c-0.2,0.1-0.4,0.1-0.6,0c-0.2-0.1-0.4-0.2-0.4-0.4c-1.2-2.2-2.3-4.4-3.4-6.6l-1.9-3.6c-0.2-0.4-0.1-0.8,0.3-1
						c3.4-1.8,6.9-3.5,10.5-5.3c0.4-0.2,0.8,0,1,0.3c1.7,3.2,3.3,6.5,4.9,9.7l0.3,0.6C-3451.2-3737.5-3451.2-3737.3-3451.2-3737.1z
						 M-3475.8-3720c3.5-1.8,6.9-3.5,10.5-5.3c0.4-0.2,0.8-0.1,1,0.3l1.3,2.6c1.3,2.6,2.7,5.3,4.1,7.9c0.2,0.4,0.1,0.8-0.3,1
						c-3.7,1.9-7.1,3.6-10.2,5.2c-0.2,0.1-0.4,0.1-0.6,0s-0.3-0.2-0.4-0.4l-5.7-10.3c-0.1-0.2-0.1-0.4-0.1-0.6
						C-3476.2-3719.7-3476-3719.9-3475.8-3720z M-3466.3-3690.6c-0.1,0.2-0.2,0.4-0.4,0.5c-3.3,1.6-6.7,3.4-10.4,5.3
						c-0.2,0.1-0.4,0.1-0.6,0c-0.2-0.1-0.4-0.2-0.5-0.4c-1.2-2.4-2.5-4.9-3.7-7.3l-1.6-3.2c-0.2-0.4-0.1-0.8,0.3-1
						c3.5-1.8,6.9-3.6,10.4-5.4c0.2-0.1,0.4-0.1,0.6-0.1c0.2,0.1,0.4,0.2,0.5,0.4l0,0c0.8,1.6,1.6,3.2,2.4,4.8l0.2,0.4
						c0.9,1.8,1.8,3.5,2.7,5.3C-3466.2-3691-3466.2-3690.7-3466.3-3690.6z M-3488.3-3543.1c-3.5,1.9-7,3.7-10.6,5.6
						c-0.2,0.1-0.5,0.1-0.6,0.1c-0.2-0.1-0.4-0.2-0.5-0.4c-1.2-2.5-2.5-5-3.8-7.4l-1.7-3.4c-0.1-0.2-0.1-0.4,0-0.6
						c0.1-0.2,0.2-0.4,0.4-0.5l0.3-0.1c3.4-1.7,6.9-3.5,10.3-5.2c0.4-0.2,0.8-0.1,1,0.3c1.1,2.1,2.2,4.1,3.3,6.2l2.3,4.3
						C-3487.8-3543.8-3487.9-3543.3-3488.3-3543.1z M-3479.5-3601.3c0.4-0.2,0.8,0,1,0.3c1.8,3.3,3.5,6.7,5.4,10.4
						c0.2,0.4,0.1,0.8-0.3,1c-3.8,2.1-7.2,3.9-10.4,5.6c-0.2,0.1-0.4,0.1-0.6,0.1c-0.2-0.1-0.4-0.2-0.4-0.4
						c-0.7-1.4-1.4-2.7-2.1-4.1l-0.4-0.8c-1-1.9-2-3.9-3-5.8c-0.1-0.2-0.1-0.4,0-0.6c0.1-0.2,0.2-0.4,0.4-0.5
						c1.8-0.9,3.5-1.8,5.3-2.7l0.6-0.3C-3482.5-3599.8-3481-3600.6-3479.5-3601.3z M-3454.9-3677.6c-0.9-1.7-1.8-3.4-2.7-5.1
						l-0.2-0.4c-0.8-1.6-1.6-3.1-2.4-4.7c-0.1-0.2-0.1-0.4,0-0.6c0.1-0.2,0.2-0.4,0.4-0.5c3.6-1.8,7.1-3.6,10.5-5.3
						c0.2-0.1,0.4-0.1,0.6,0s0.4,0.2,0.5,0.4c1.6,3.2,3.4,6.8,5.3,10.4c0.1,0.2,0.1,0.4,0,0.6c-0.1,0.2-0.2,0.4-0.4,0.5l-4.6,2.3
						c-2,1-3.9,2-5.8,2.9c-0.2,0.1-0.4,0.1-0.6,0c-0.1,0-0.3-0.2-0.4-0.3C-3454.9-3677.4-3455-3677.6-3454.9-3677.6z
						 M-3427.6-3651.4c-1.4,0.8-2.9,1.5-4.3,2.2l-0.3,0.1c-1.9,1-3.8,2-5.7,3c-0.2,0.1-0.4,0.1-0.6,0.1c-0.1,0-0.3-0.2-0.4-0.3
						s-0.2-0.3-0.2-0.4c-1.7-3.3-3.6-6.9-5.4-10.5c-0.2-0.4-0.1-0.8,0.3-1c3.2-1.6,6.3-3.3,9.5-4.9l0.9-0.5c0.2-0.1,0.4-0.1,0.6,0
						s0.4,0.2,0.5,0.4c1.8,3.6,3.6,7.2,5.4,10.7C-3427.1-3652.1-3427.2-3651.6-3427.6-3651.4z M-3426.9-3574.3
						c-2.3,1.2-4.7,2.5-7.1,3.7l-3.3,1.7c-0.2,0.1-0.4,0.1-0.6,0c-0.2-0.1-0.4-0.2-0.5-0.4c-0.9-1.8-1.8-3.7-2.8-5.5
						c-0.9-1.8-1.8-3.5-2.7-5.3c-0.2-0.4-0.1-0.8,0.3-1c3.8-2,7.3-3.7,10.4-5.3c0.4-0.2,0.8-0.1,1,0.3c1.8,3.5,3.6,7.1,5.4,10.6
						C-3426.4-3574.9-3426.5-3574.5-3426.9-3574.3z M-3405.6-3658.6c3.6-1.9,7.2-3.8,10.7-5.6c0.4-0.2,0.9,0,1,0.3
						c1.8,3.6,3.6,7.1,5.5,10.7c0.1,0.2,0.1,0.4,0,0.6c-0.1,0.2-0.2,0.4-0.4,0.5c-3.7,1.8-7.3,3.5-10.9,5.3c-0.2,0.1-0.4,0.1-0.6,0
						c-0.2-0.1-0.4-0.2-0.5-0.4l-2.3-4.5c-1-2-2-3.9-3-5.9C-3406.1-3657.9-3406-3658.4-3405.6-3658.6z M-3418.1-3632.8
						c0.4-0.2,0.9-0.1,1.1,0.3c0.7,1.3,1.3,2.4,1.8,3.6l0.3,0.6c1.1,2.1,2.2,4.2,3.3,6.3c0.1,0.2,0.1,0.4,0.1,0.6
						c-0.1,0.2-0.2,0.4-0.4,0.5c-3.4,1.8-6.7,3.6-10.4,5.6c-0.2,0.1-0.4,0.1-0.6,0.1c-0.2-0.1-0.4-0.2-0.5-0.4l-0.2-0.4
						c-1.8-3.4-3.6-7-5.3-10.5c-0.2-0.4,0-0.8,0.3-1C-3424.6-3629.6-3421.2-3631.3-3418.1-3632.8z M-3410-3695
						c0.2,0.1,0.4,0.2,0.5,0.4c1.8,3.6,3.7,7.2,5.5,10.9c0.2,0.4,0.1,0.8-0.3,1c-1.9,0.9-3.7,1.9-5.6,2.9l-5,2.6
						c-0.2,0.1-0.4,0.1-0.6,0c-0.2-0.1-0.3-0.2-0.4-0.4c-1.7-3.2-3.5-6.6-5.6-10.7c-0.2-0.4-0.1-0.8,0.3-1c3.7-2,7.4-3.9,10.7-5.5
						C-3410.4-3695-3410.2-3695-3410-3695z M-3405.2-3721.6c-3.2,1.7-6.6,3.5-10.4,5.4c-0.2,0.1-0.4,0.1-0.6,0
						c-0.1-0.1-0.4-0.2-0.5-0.4c-2.1-4.2-3.8-7.5-5.3-10.6c-0.1-0.2-0.1-0.4,0-0.6c0-0.1,0.2-0.3,0.3-0.4l4.4-2.5
						c1.9-1,3.8-2.1,5.7-3.2c0.2-0.1,0.4-0.1,0.6-0.1c0.2,0.1,0.4,0.2,0.5,0.4c1.1,2.2,2.3,4.4,3.4,6.6l2.2,4.2
						C-3404.6-3722.2-3404.8-3721.8-3405.2-3721.6z M-3414.3-3751.1l10.5-5.4c0.4-0.2,0.8-0.1,1,0.3l0.4,0.7
						c1.7,3.2,3.2,6.3,4.8,9.4c0.2,0.4,0,0.8-0.3,1c-2.5,1.3-4.9,2.5-7.4,3.8l-3.1,1.6c-0.2,0.1-0.4,0.1-0.6,0
						c-0.2-0.1-0.4-0.2-0.5-0.4c-1.8-3.5-3.6-7-5.1-10.1c-0.1-0.2-0.1-0.4,0-0.6C-3414.7-3750.9-3414.5-3751.1-3414.3-3751.1z
						 M-3456.7-3632.6c0.4-0.2,0.8-0.1,1,0.3c1.8,3.4,3.5,7,5.4,10.7c0.2,0.4,0,0.8-0.3,1c-1.6,0.8-3.2,1.6-4.7,2.4l-0.7,0.3
						c-1.7,0.8-3.3,1.7-4.9,2.6c-0.2,0.1-0.4,0.1-0.6,0.1c-0.2-0.1-0.4-0.2-0.5-0.4c-2-4-3.8-7.5-5.4-10.8c-0.1-0.2-0.1-0.4,0-0.6
						c0.1-0.2,0.2-0.4,0.4-0.5l1.1-0.6C-3463-3629.4-3459.8-3631-3456.7-3632.6z M-3430-3782.2c0.2-0.1,0.4-0.2,0.6-0.3
						c3-1.5,5.9-3.2,8.8-4.8l0,0l1.4-0.8c0.2-0.1,0.3-0.2,0.6-0.1c0.2,0.1,0.4,0.2,0.4,0.4c1.3,3,2.6,6.3,4,9.4c0.2,0.5,0.6,1,1,1.6
						c0.1,0.2,0.2,0.4,0.2,0.6c0,0.2-0.2,0.4-0.4,0.5c-3.4,1.8-6.9,3.7-10.4,5.5c-0.2,0.1-0.4,0.1-0.6,0c-0.1,0-0.3-0.2-0.4-0.3
						l-0.5-0.9c-1.7-3.3-3.4-6.6-5.1-9.8c-0.1-0.2-0.1-0.5-0.1-0.7S-3430.2-3782.2-3430-3782.2z M-3420.3-3752.8
						c-0.1,0.2-0.2,0.4-0.4,0.5c-0.2,0.1-0.4,0.2-0.6,0.3l-2,1c-2.7,1.3-5.4,2.7-8.1,4c-0.2,0.1-0.4,0.1-0.6,0s-0.4-0.2-0.5-0.4
						c-1.7-3.4-3.5-6.9-5.3-10.4c-0.2-0.4-0.1-0.8,0.3-1l0.8-0.4c3.3-1.7,6.6-3.4,9.9-5c0.4-0.2,0.8,0,1,0.3l5.3,10.5
						C-3420.2-3753.2-3420.2-3753-3420.3-3752.8z M-3445.1-3735.6c4-2,7.4-3.6,10.6-5.1c0.4-0.2,0.8,0,1,0.3c2.1,4,3.8,7.4,5.3,10.5
						c0.2,0.4,0,0.8-0.3,1l-4.8,2.4c-1.9,1-3.8,1.9-5.7,2.9c-0.2,0.1-0.4,0.1-0.6,0s-0.4-0.2-0.5-0.4l-5.4-10.6
						c-0.1-0.2-0.1-0.4,0-0.6C-3445.4-3735.4-3445.3-3735.5-3445.1-3735.6z M-3452.6-3712.3c2.4-1.2,4.9-2.5,7.4-3.7l3.4-1.7
						c0.4-0.2,0.9,0,1,0.3c1.8,3.6,3.6,7.2,5.5,10.8c0.1,0.2,0.1,0.4,0,0.6c-0.1,0.2-0.2,0.4-0.4,0.5l-4.1,1.9l-6.5,3.1
						c-0.2,0.1-0.4,0.1-0.6,0c-0.2-0.1-0.3-0.2-0.4-0.4l-0.2-0.3c-1.8-3.4-3.7-6.8-5.4-10.1c-0.1-0.2-0.1-0.4-0.1-0.6
						C-3452.9-3712-3452.8-3712.2-3452.6-3712.3z M-3471.4-3663l5.5,10.7c0.2,0.4,0.1,0.8-0.3,1c-3,1.6-6.7,3.5-10.4,5.5
						c-0.2,0.1-0.4,0.1-0.6,0.1c-0.2-0.1-0.4-0.2-0.5-0.4c-1.6-3.3-3.4-6.7-5.5-10.8c-0.1-0.2-0.1-0.4,0-0.6
						c0.1-0.2,0.2-0.4,0.4-0.5c1.6-0.8,3.2-1.6,4.7-2.4c1.9-1,3.8-2,5.7-2.9C-3472.1-3663.5-3471.6-3663.4-3471.4-3663z
						 M-3453.3-3789.9c2.6-1.3,5.1-2.7,7.7-4l2.8-1.4c0.4-0.2,0.8-0.1,1.1,0.3l0.1,0.2l1.3,2.4c1.3,2.5,2.7,5,4,7.6
						c0.1,0.2,0.2,0.4,0.4,0.6c0.1,0.2,0.2,0.4,0.1,0.7c-0.1,0.2-0.2,0.4-0.4,0.5c-3.4,1.7-7,3.5-10.6,5.3c-0.2,0.1-0.4,0.1-0.6,0.1
						c-0.2-0.1-0.3-0.2-0.4-0.3c-0.6-1.2-1.2-2.3-1.8-3.4l-0.6-1.1c-1.1-2.1-2.2-4.2-3.2-6.3
						C-3453.8-3789.2-3453.7-3789.7-3453.3-3789.9z M-3517.1-3600.8c1.7,3.3,3.4,6.6,5.1,9.8l0.4,0.8c0.2,0.4,0.1,0.8-0.3,1
						c-3.5,1.8-7,3.6-10.5,5.4c-0.2,0.1-0.4,0.1-0.6,0c-0.2-0.1-0.4-0.2-0.5-0.4l-1.1-2.2c-1.4-2.8-2.9-5.7-4.3-8.6
						c-0.2-0.4,0-0.8,0.3-1c2.9-1.5,6.6-3.4,10.4-5.3C-3517.7-3601.3-3517.3-3601.2-3517.1-3600.8z M-3496.9-3674.7
						c-0.1,0.2-0.2,0.4-0.4,0.5c-2,1-4,2-6,2.9l-0.3,0.2c-1.4,0.7-2.9,1.4-4.4,2.2c-0.2,0.1-0.4,0.1-0.6,0s-0.4-0.2-0.5-0.4
						l-5.2-10.3c-0.2-0.4-0.1-0.8,0.3-1l3.4-1.7c2.4-1.2,4.8-2.4,7.1-3.6c0.4-0.2,0.8-0.1,1,0.3l1.9,3.6c1.2,2.3,2.4,4.5,3.6,6.8
						C-3496.9-3675.1-3496.9-3674.9-3496.9-3674.7z M-3489.9-3697.5c-0.1,0-0.2,0.1-0.2,0.2c-1.2,0.6-2.4,1.2-3.6,1.7l-0.7,0.3
						c-2,0.9-4.1,1.9-6.1,2.9c-0.2,0.1-0.4,0.1-0.6,0c-0.1,0-0.3-0.1-0.4-0.3c-1.9-2.4-3-5.2-4.2-8.2c-0.3-0.8-0.6-1.5-1-2.3
						c-0.1-0.4,0-0.8,0.3-1c3.4-1.9,6.9-3.8,10.2-5.5c0.2-0.1,0.4-0.1,0.6-0.1c0.2,0.1,0.4,0.2,0.4,0.4c2,3.9,3.8,7.4,5.5,10.8
						C-3489.4-3698.1-3489.5-3697.7-3489.9-3697.5z M-3482.4-3720.9c-1.4,0.8-2.7,1.4-4,2.1l-0.2,0.1c-2,1-4,2.1-6.1,3.1
						c-0.2,0.1-0.4,0.1-0.6,0.1c-0.2-0.1-0.4-0.2-0.5-0.4c-1.6-3.1-3.4-6.9-5.4-10.5c-0.1-0.2-0.1-0.4-0.1-0.6
						c0.1-0.2,0.2-0.4,0.4-0.5c2.7-1.3,5.4-2.7,8-4l2.4-1.2c0.2-0.1,0.5-0.1,0.6,0c0.2,0.1,0.4,0.2,0.5,0.4c0.5,1.1,1,2.2,1.5,3.2
						c0.5,1,1,1.9,1.5,2.9l0.2,0.2c0.7,1.4,1.4,2.7,2.1,4C-3482-3721.7-3482.1-3721.1-3482.4-3720.9z M-3491.5-3751
						c3.4-1.8,7-3.7,10.6-5.6c0.2-0.1,0.3-0.2,0.6,0c0.2,0.1,0.4,0.2,0.5,0.4l5.1,10.9c0.2,0.4,0,0.8-0.4,1l-0.6,0.3
						c-0.5,0.3-1.1,0.5-1.6,0.8l-2,1c-2.1,1.1-4.1,2.1-6.1,3.2c-0.2,0.1-0.4,0.1-0.6,0.1c-0.2-0.1-0.4-0.2-0.5-0.4l-1.8-3.5
						c-1.2-2.4-2.4-4.7-3.6-7.1C-3492-3750.3-3491.9-3750.8-3491.5-3751z M-3533.8-3632c0.2-0.1,0.4-0.1,0.6,0
						c0.2,0.1,0.4,0.2,0.5,0.4l5.5,10.9c0.2,0.4,0.1,0.8-0.3,1l-10.5,5.3c-0.2,0.1-0.4,0.1-0.6,0c-0.2-0.1-0.4-0.2-0.4-0.4l-1.2-2.4
						c-1.4-2.8-2.8-5.6-4.2-8.3c-0.2-0.4,0-0.8,0.3-1c3.3-1.7,6.6-3.4,9.9-5.1L-3533.8-3632z M-3527.7-3658.9
						c-0.1,0.2-0.2,0.4-0.4,0.5c-2.6,1.3-5.2,2.6-7.8,3.8l-2.9,1.5c-0.2,0.1-0.4,0.1-0.6,0s-0.4-0.2-0.4-0.4
						c-0.7-1.3-1.4-2.6-2.1-3.9l-0.5-0.8c-1-1.9-2-3.8-3-5.8c-0.1-0.2-0.1-0.4,0-0.6c0.1-0.2,0.2-0.4,0.4-0.5l0.2-0.1l1.5-0.7
						c3-1.5,6.2-3,9.2-4.5c0.2-0.1,0.4-0.1,0.6,0c0.2,0.1,0.4,0.2,0.5,0.4c1.5,3,3,6,4.5,8.9l0.8,1.7
						C-3527.6-3659.4-3527.6-3659.1-3527.7-3658.9z M-3530.6-3711.1c0.1-0.2,0.2-0.4,0.4-0.5c2.7-1.4,5.4-2.8,8.1-4.1l3-1.5
						c0.2-0.1,0.4-0.1,0.6,0c0.2,0.1,0.4,0.2,0.5,0.4l0.6,1.1c1.3,2.6,2.7,5.2,3.9,7.9c0.3,0.5,0.5,1,0.6,1.5c0.1,0.4,0,0.7-0.4,0.9
						c-3.2,1.8-6.5,3.5-9.7,5.2l-0.6,0.3c-0.2,0.1-0.4,0.1-0.6,0.1c-0.2-0.1-0.3-0.2-0.4-0.4l-5.8-10.2
						C-3530.6-3710.7-3530.6-3710.9-3530.6-3711.1z M-3520.7-3681.6c-3.4,1.7-7,3.3-10.4,4.9c-0.2,0.1-0.4,0.1-0.6,0
						c-0.2-0.1-0.4-0.2-0.4-0.4c-1.1-2.1-2.2-4.2-3.2-6.2l-2.1-4c-0.2-0.4-0.1-0.8,0.3-1l3.4-2c2.1-1.2,4.4-2.5,6.5-3.7
						c0.2-0.1,0.4-0.1,0.6-0.1c0.3,0.1,0.4,0.2,0.5,0.4c2,3.7,3.9,7.4,5.7,11.1c0.1,0.2,0.1,0.4,0,0.6
						C-3520.4-3681.8-3520.6-3681.7-3520.7-3681.6z M-3514.8-3758.4l3.9-2c2.2-1.1,4.4-2.3,6.6-3.3c0.4-0.2,0.8,0,1,0.3l2.4,4.8
						c1,1.9,1.9,3.8,2.9,5.7c0.1,0.2,0.1,0.4,0,0.6c-0.1,0.2-0.2,0.4-0.4,0.5c-2.4,1.2-4.8,2.4-7.1,3.6l-3.4,1.8
						c-0.2,0.1-0.4,0.1-0.6,0c-0.2-0.1-0.4-0.2-0.5-0.4l-5.4-10.5c-0.1-0.2-0.1-0.4,0-0.6C-3515.1-3758.2-3515-3758.3-3514.8-3758.4
						z M-3522.5-3735.3c3.2-1.5,6.6-3,10.5-4.9c0.4-0.2,0.8,0,1,0.4c1.8,3.4,3.5,6.9,5.3,10.3c0.1,0.2,0.1,0.4,0,0.6
						s-0.2,0.4-0.4,0.5l-3.9,1.9c-2.2,1.1-4.5,2.2-6.7,3.3c-0.2,0.1-0.4,0.1-0.6,0c-0.1,0-0.3-0.2-0.4-0.3c-0.2-0.2-0.3-0.4-0.4-0.6
						c-1-1.9-1.9-3.9-2.8-5.8l-0.1-0.2c-0.7-1.4-1.3-2.8-2-4.1c-0.1-0.2-0.1-0.4,0-0.6C-3522.9-3735-3522.7-3735.2-3522.5-3735.3z
						 M-3579.6-3569.8c0.2-0.1,0.4-0.1,0.6,0c0.2,0.1,0.4,0.2,0.5,0.4c1.7,3.3,3.5,6.9,5.4,11c0.2,0.4,0,0.8-0.3,1l-4.6,2.3
						c-1.9,1-3.8,1.9-5.7,2.9c-0.2,0.1-0.4,0.1-0.6,0c-0.2-0.1-0.4-0.2-0.5-0.4c-0.9-1.8-1.9-3.7-2.8-5.6l-0.2-0.3
						c-0.8-1.7-1.7-3.3-2.5-5c-0.2-0.4-0.1-0.8,0.3-1C-3586.5-3566.3-3583-3568.2-3579.6-3569.8z M-3543.7-3689.8
						c-0.1,0.2-0.2,0.4-0.4,0.5c-3.7,1.8-7.4,3.7-10.4,5.3c-0.2,0.1-0.5,0.1-0.6,0c-0.2-0.1-0.4-0.2-0.4-0.4
						c-0.9-1.8-1.9-3.6-2.8-5.4l-0.5-1.1c-0.7-1.4-1.4-2.7-2.1-4.1c-0.2-0.4-0.1-0.8,0.3-1.1c0.6-0.4,1.3-0.7,1.9-1.1l0.2-0.1
						c0.9-0.6,1.8-1.1,2.7-1.5c1.9-0.9,3.7-1.8,5.7-2.7c0.4-0.2,0.8,0,1,0.4c1.7,3.5,3.6,7.1,5.4,10.6
						C-3543.6-3690.2-3543.6-3690-3543.7-3689.8z M-3553.1-3719.3c0.2-0.1,0.5-0.2,0.7-0.4l9.7-4.9c0.4-0.2,0.8-0.1,1,0.3
						c1.8,3.4,3.6,6.9,5.4,10.4c0.2,0.4,0.1,0.8-0.3,1c-3.9,2-7.3,3.7-10.5,5.3l-0.3,0.1c-0.2,0.1-0.4,0.1-0.6,0
						c-0.2-0.1-0.4-0.2-0.4-0.4l-0.2-0.4c-1.8-3.8-3.3-6.9-4.8-10.1c-0.1-0.2-0.1-0.4,0-0.6
						C-3553.4-3719.1-3553.2-3719.2-3553.1-3719.3z M-3568.1-3673.1c0.2-0.1,0.4-0.2,0.6-0.3c1.6-0.8,3.3-1.6,4.9-2.4l0.3-0.2
						c1.8-0.8,3.5-1.7,5.3-2.5c0.4-0.2,0.8,0,1,0.4c1.8,3.7,3.5,7.1,5.2,10.5c0.2,0.4,0.1,0.8-0.3,1c-3,1.7-6.3,3.5-10.3,5.6
						c-0.2,0.1-0.4,0.2-0.6,0.3c-0.2,0-0.3,0.1-0.5,0c-0.2-0.1-0.4-0.2-0.5-0.4c-1.8-3.4-3.6-7.1-5.3-10.6l-0.2-0.4
						C-3568.6-3672.5-3568.4-3673-3568.1-3673.1z M-3594.4-3600.1c1.6,3.1,3.2,6.3,4.8,9.4l0.7,1.3c0.2,0.4,0.1,0.8-0.3,1l-4.8,2.4
						c-1.9,0.9-3.7,1.9-5.6,2.8c-0.2,0.1-0.4,0.1-0.6,0c-0.2-0.1-0.4-0.2-0.5-0.4c-1.9-3.8-3.8-7.5-5.5-10.6c-0.1-0.2-0.1-0.4,0-0.6
						c0.1-0.2,0.2-0.4,0.4-0.5l1.4-0.7c3-1.6,6.1-3.1,9.1-4.6C-3595.1-3600.7-3594.6-3600.5-3594.4-3600.1z M-3574.6-3673.8
						c-3.4,1.8-6.9,3.5-10.3,5.3c-0.2,0.1-0.4,0.1-0.6,0l0,0c-0.2-0.1-0.4-0.2-0.5-0.4c-0.1-0.2-0.2-0.4-0.3-0.6l-1-2
						c-1.4-2.6-2.7-5.4-4.2-8c-0.2-0.4-0.1-0.8,0.3-1.1c1.1-0.6,2.2-1.2,3.3-1.7c0.7-0.4,1.5-0.7,2.3-1.1l0.2-0.1
						c1.4-0.6,2.8-1.3,4.2-2.1l0.4-0.2c0.2-0.1,0.4-0.1,0.6-0.1c0.3,0.1,0.4,0.2,0.5,0.4c1.6,3.1,3.3,6.3,4.8,9.4l0.6,1.2
						C-3574.1-3674.4-3574.2-3673.9-3574.6-3673.8z M-3576.4-3726.9l3-1.5c2.6-1.3,5.2-2.6,7.8-4c0.2-0.1,0.4-0.1,0.6,0
						c0.2,0.1,0.4,0.2,0.5,0.4c1,2,2,4,3,5.9l2.3,4.4c0.1,0.2,0.1,0.4,0,0.6c-0.1,0.2-0.2,0.4-0.4,0.5l-2.1,1
						c-2.9,1.4-5.7,2.9-8.6,4.4c-0.2,0.1-0.4,0.1-0.6,0s-0.4-0.2-0.4-0.4c-1.7-3.3-3.4-6.6-5.1-9.8l-0.2-0.5c-0.1-0.2-0.1-0.4,0-0.6
						C-3576.8-3726.6-3576.6-3726.8-3576.4-3726.9z M-3637.7-3616.9c0-0.3,0.1-0.5,0.3-0.7c0.4-0.3,0.7-0.5,0.9-0.7
						c2.9-1.6,6-3.1,8.9-4.6l0.9-0.5c0.3-0.2,0.7-0.1,1,0.2l0.5,0.6c0.1,0.1,0.2,0.2,0.2,0.3c1.6,3.3,3.2,6.5,4.8,9.8
						c0.1,0.2,0.1,0.4,0,0.6c-0.1,0.2-0.2,0.4-0.4,0.4c-0.7,0.3-1.4,0.6-2,1c-1,0.6-2.1,1.1-3.1,1.7l-0.5,0.3
						c-1.6,0.8-3.2,1.7-4.8,2.5c-0.2,0.1-0.4,0.1-0.6,0c-0.2-0.1-0.3-0.2-0.4-0.4c-1.8-3.4-3.7-6.8-5.6-10.4
						C-3637.6-3616.7-3637.7-3616.9-3637.7-3616.9z M-3627.9-3588.2c-4.1,2.1-7.5,3.9-10.7,5.5c-0.2,0.1-0.4,0.1-0.6,0
						c-0.2-0.1-0.4-0.2-0.5-0.4c-1.5-3.1-3.1-6.2-4.6-9.3l-0.5-1.1c-0.2-0.4,0-0.8,0.3-1l3.5-1.8c2.3-1.2,4.7-2.4,7-3.7
						c0.2-0.1,0.4-0.1,0.6-0.1c0.2,0.1,0.4,0.2,0.5,0.4c1.2,2.4,2.4,4.8,3.7,7.2l1.7,3.2
						C-3627.4-3588.9-3627.5-3588.4-3627.9-3588.2z M-3612.8-3634.6l-0.8,0.4c-3.2,1.6-6.5,3.1-9.7,4.7c-0.2,0.1-0.5,0.1-0.7,0
						c-0.2-0.1-0.3-0.2-0.4-0.3c-1.1-2.1-2.3-4.3-3.3-6.4c-0.7-1.4-1.4-2.8-2.1-4.1c-0.1-0.2-0.1-0.4,0-0.6c0.1-0.2,0.2-0.4,0.4-0.5
						c3.7-1.8,7.4-3.6,10.6-5.1c0.1,0,0.2-0.1,0.3-0.1c0.3,0,0.6,0.1,0.8,0.4c1,2,2,3.9,3,5.9l2.3,4.6c0.1,0.2,0.1,0.5,0.1,0.7
						C-3612.5-3635-3612.6-3634.7-3612.8-3634.6z M-3605.5-3658.1l-2.2,1.2c-2.8,1.5-5.6,2.9-8.4,4.4c-0.2,0.1-0.4,0.1-0.6,0
						c-0.2-0.1-0.4-0.2-0.5-0.4l-0.8-1.7c-1.4-2.8-2.8-5.6-4.1-8.4c-0.1-0.2-0.2-0.5-0.3-0.9c-0.1-0.3,0.1-0.6,0.3-0.8
						c0.5-0.4,0.8-0.6,1.1-0.7c1.7-0.8,3.5-1.6,5.1-2.4c1.4-0.7,2.9-1.3,4.4-2c0.4-0.2,0.8,0,1,0.4c1,2.1,2.2,4.3,3.2,6.4l2.1,4.1
						C-3605-3658.7-3605.1-3658.3-3605.5-3658.1z M-3614.8-3688.2l10.9-5.5c0.4-0.2,0.8-0.1,1,0.3c0.1,0.2,0.2,0.4,0.3,0.6
						c0.9,1.9,1.8,3.8,2.7,5.6l2.2,4.7c0.2,0.4,0,0.8-0.4,1c-3.5,1.7-6.9,3.5-10.4,5.3c-0.2,0.1-0.4,0.1-0.6,0
						c-0.2-0.1-0.4-0.2-0.4-0.4l-2.1-4c-1-1.9-2-3.8-3-5.7c-0.2-0.3-0.4-0.6-0.5-0.9c-0.1-0.2-0.1-0.4-0.1-0.6
						C-3615.1-3687.9-3615-3688.1-3614.8-3688.2z M-3637.8-3695.7l3.8-1.9c2.1-1.1,4.3-2.2,6.4-3.3c0.2-0.1,0.4-0.1,0.6,0
						c0.2,0.1,0.4,0.2,0.5,0.4c1.5,3.1,3.1,6.1,4.6,9l0.9,1.8c0.1,0.2,0.1,0.4,0.1,0.6c-0.1,0.2-0.2,0.4-0.5,0.5
						c-3.3,1.5-6.5,3.1-9.6,4.6l-1,0.4c-0.2,0.1-0.4,0.1-0.6,0c-0.2-0.1-0.4-0.2-0.5-0.4c-0.9-1.9-1.9-3.8-2.8-5.8l-2.3-4.8
						C-3638.3-3694.9-3638.2-3695.5-3637.8-3695.7z M-3628.5-3666.1c-0.1,0.2-0.2,0.4-0.4,0.5l-3.6,1.8c-2.4,1.1-4.8,2.3-7.1,3.4
						c-0.2,0.1-0.4,0.1-0.6,0c-0.2-0.1-0.4-0.2-0.5-0.4c-0.3-0.7-0.6-1.3-0.8-1.9c-0.4-0.9-0.7-1.8-1.2-2.7
						c-0.9-1.8-1.8-3.7-2.9-5.7c-0.1-0.2-0.1-0.4,0-0.6c0.1-0.2,0.2-0.4,0.4-0.5c3.1-1.6,6.4-3.3,10.3-5.2c0.4-0.2,0.9,0,1,0.3
						c1.9,3.7,3.7,7.4,5.3,10.4C-3628.5-3666.6-3628.5-3666.3-3628.5-3666.1z M-3653-3649.2c2.3-1,4.6-2.1,6.9-3.2l3.8-1.8
						c0.3-0.2,0.7,0,0.9,0.3c1.7,3.1,3.3,6.3,4.7,9.2l0.7,1.4c0.2,0.4,0,0.8-0.3,1l-2.9,1.5c-2.5,1.3-5.1,2.6-7.6,3.9
						c-0.2,0.1-0.4,0.1-0.6,0c-0.2-0.1-0.4-0.2-0.5-0.4c-1.9-3.7-3.7-7.4-5.5-10.8c-0.1-0.2-0.1-0.4,0-0.6
						C-3653.4-3648.9-3653.2-3649.1-3653-3649.2z M-3653.7-3613.9c-0.3,0.1-0.5,0.2-0.7,0.3c-0.2,0.1-0.4,0.1-0.5,0
						s-0.3-0.2-0.4-0.3c-0.1-0.1-0.2-0.3-0.3-0.6c-0.5-1-1.1-2-1.6-3l-0.3-0.6c-1.1-2-2.1-4.1-3.3-6.1c-0.1-0.2-0.2-0.5-0.1-0.7
						s0.2-0.4,0.4-0.5c0.2-0.1,0.5-0.2,0.7-0.4l3.6-1.8c2.1-1.1,4.3-2.2,6.5-3.4c0.2-0.1,0.4-0.1,0.6-0.1c0.2,0.1,0.4,0.2,0.5,0.4
						c1.1,2.2,2.3,4.5,3.4,6.7l2,3.9c0.2,0.4,0.1,0.8-0.3,1C-3647-3617.3-3650.4-3615.6-3653.7-3613.9z"/>
				</g>
			</g>
		</g>
		<path id="XMLID_55_" fill="#FFFFFF" fill-opacity="0.65" d="M-3036.5-3163.1l-1-1.1l12-37l576.4-520.3l23,7.4L-3036.5-3163.1z"/>
		<path id="XMLID_52_" fill="#FFFFFF" fill-opacity="0.9" d="M-2409.6-3708.6l-638.3,576.2l-5.6,17.4l650.8-587.5
			C-2404.2-3705.2-2406.6-3707.4-2409.6-3708.6z"/>
		<g id="XMLID_50_" transform="matrix(1,0,0,1,0.055047,-3.13662)">
			<circle id="XMLID_51_" fill="#666666" cx="-2879.9" cy="-2928.4" r="32.5"/>
		</g>
	</g>
	<g id="XMLID_199_">
		
			<rect id="XMLID_395_" x="162.8" y="288.9" transform="matrix(0.868 0.4966 -0.4966 0.868 196.9904 -70.4954)" fill="#3A81C9" width="136.5" height="92.7"/>
		
			<rect id="XMLID_392_" x="190.7" y="278.1" transform="matrix(0.868 0.4966 -0.4966 0.868 176.4398 -90.8083)" fill="#1B2D49" width="136.5" height="16.6"/>
		<g id="XMLID_385_">
			<line id="XMLID_389_" fill="none" stroke="#3A81C9" stroke-miterlimit="10" x1="203.6" y1="257.6" x2="311.9" y2="319.6"/>
			<line id="XMLID_386_" fill="none" stroke="#3A81C9" stroke-miterlimit="10" x1="206.1" y1="253.2" x2="314.4" y2="315.2"/>
		</g>
		
			<rect id="XMLID_382_" x="189" y="282" transform="matrix(0.868 0.4966 -0.4966 0.868 168.0957 -60.9847)" fill="#F5E5EE" width="19.5" height="7.2"/>
		
			<rect id="XMLID_379_" x="183.8" y="291.1" transform="matrix(0.868 0.4966 -0.4966 0.868 171.9032 -57.2212)" fill="#F5E5EE" width="19.5" height="7.2"/>
		
			<rect id="XMLID_376_" x="178.6" y="300.1" transform="matrix(0.868 0.4966 -0.4966 0.868 175.7106 -53.4578)" fill="#F5E5EE" width="19.5" height="7.2"/>
		
			<rect id="XMLID_373_" x="173.5" y="309.1" transform="matrix(0.868 0.4966 -0.4966 0.868 179.5181 -49.6944)" fill="#F5E5EE" width="19.5" height="7.2"/>
		
			<rect id="XMLID_370_" x="168.3" y="318.2" transform="matrix(0.868 0.4966 -0.4966 0.868 183.3256 -45.9309)" fill="#F5E5EE" width="19.5" height="7.2"/>
		
			<rect id="XMLID_367_" x="163.1" y="327.2" transform="matrix(0.868 0.4966 -0.4966 0.868 187.1331 -42.1675)" fill="#F5E5EE" width="19.5" height="7.2"/>
		
			<rect id="XMLID_364_" x="157.9" y="336.3" transform="matrix(0.868 0.4966 -0.4966 0.868 190.9405 -38.4041)" fill="#F5E5EE" width="19.5" height="7.2"/>
		
			<rect id="XMLID_361_" x="209.3" y="295.9" transform="matrix(0.868 0.4966 -0.4966 0.868 178.1556 -71.1624)" fill="#F1496E" width="27.1" height="7.2"/>
		
			<rect id="XMLID_358_" x="204.2" y="304.9" transform="matrix(0.868 0.4966 -0.4966 0.868 181.9631 -67.3989)" fill="#F3696F" width="27.1" height="7.2"/>
		
			<rect id="XMLID_355_" x="199" y="313.9" transform="matrix(0.868 0.4966 -0.4966 0.868 185.7706 -63.6355)" fill="#F5806D" width="27.1" height="7.2"/>
		
			<rect id="XMLID_352_" x="193.8" y="323" transform="matrix(0.868 0.4966 -0.4966 0.868 189.5781 -59.872)" fill="#F69971" width="27.1" height="7.2"/>
		
			<rect id="XMLID_349_" x="188.7" y="332" transform="matrix(0.868 0.4966 -0.4966 0.868 193.3855 -56.1086)" fill="#F8B86E" width="27.1" height="7.2"/>
		
			<rect id="XMLID_346_" x="183.5" y="341.1" transform="matrix(0.868 0.4966 -0.4966 0.868 197.193 -52.3452)" fill="#F9C66E" width="27.1" height="7.2"/>
		
			<rect id="XMLID_343_" x="178.3" y="350.1" transform="matrix(0.868 0.4966 -0.4966 0.868 201.0005 -48.5817)" fill="#F9D114" width="27.1" height="7.2"/>
		
			<rect id="XMLID_340_" x="253.2" y="320.9" transform="matrix(0.868 0.4966 -0.4966 0.868 196.3938 -89.614)" fill="#F34970" width="27.1" height="7.2"/>
		
			<rect id="XMLID_337_" x="248" y="330" transform="matrix(0.868 0.4966 -0.4966 0.868 200.2013 -85.8505)" fill="#EE6085" width="27.1" height="7.2"/>
		
			<rect id="XMLID_334_" x="242.8" y="339" transform="matrix(0.868 0.4966 -0.4966 0.868 204.0088 -82.0871)" fill="#EC799C" width="27.1" height="7.2"/>
		
			<rect id="XMLID_331_" x="237.6" y="348.1" transform="matrix(0.868 0.4966 -0.4966 0.868 207.8163 -78.3237)" fill="#EC9AB3" width="27.1" height="7.2"/>
		
			<rect id="XMLID_328_" x="232.5" y="357.1" transform="matrix(0.868 0.4966 -0.4966 0.868 211.6237 -74.5602)" fill="#E9AFC1" width="27.1" height="7.2"/>
		
			<rect id="XMLID_325_" x="227.3" y="366.1" transform="matrix(0.868 0.4966 -0.4966 0.868 215.4312 -70.7968)" fill="#E4C6D1" width="27.1" height="7.2"/>
		
			<rect id="XMLID_322_" x="222.1" y="375.2" transform="matrix(0.868 0.4966 -0.4966 0.868 219.2387 -67.0334)" fill="#F4E5EB" width="27.1" height="7.2"/>
		
			<rect id="XMLID_319_" x="280.5" y="334.4" transform="matrix(0.868 0.4966 -0.4966 0.868 206.1643 -99.4988)" fill="#F8E5EE" width="19.5" height="7.2"/>
		
			<rect id="XMLID_316_" x="275.3" y="343.4" transform="matrix(0.868 0.4966 -0.4966 0.868 209.9718 -95.7353)" fill="#F8E5EE" width="19.5" height="7.2"/>
		
			<rect id="XMLID_313_" x="270.1" y="352.4" transform="matrix(0.868 0.4966 -0.4966 0.868 213.7792 -91.9719)" fill="#F8E5EE" width="19.5" height="7.2"/>
		
			<rect id="XMLID_310_" x="264.9" y="361.5" transform="matrix(0.868 0.4966 -0.4966 0.868 217.5867 -88.2085)" fill="#F8E5EE" width="19.5" height="7.2"/>
		
			<rect id="XMLID_307_" x="259.8" y="370.5" transform="matrix(0.868 0.4966 -0.4966 0.868 221.3942 -84.445)" fill="#F8E5EE" width="19.5" height="7.2"/>
		
			<rect id="XMLID_304_" x="254.6" y="379.6" transform="matrix(0.868 0.4966 -0.4966 0.868 225.2017 -80.6816)" fill="#F8E5EE" width="19.5" height="7.2"/>
		
			<rect id="XMLID_301_" x="249.4" y="388.6" transform="matrix(0.868 0.4966 -0.4966 0.868 229.0091 -76.9182)" fill="#F8E5EE" width="19.5" height="7.2"/>
		<g id="XMLID_288_">
			<g id="XMLID_594_">
				<path id="XMLID_598_" fill="#F5E5EE" d="M195,274.1l2-3.5l0.5,0.3l-0.1,0.3c0.1-0.1,0.3-0.1,0.5-0.1s0.3,0.1,0.4,0.2
					c0.1,0.1,0.2,0.2,0.3,0.3c0.1,0.1,0.1,0.2,0.2,0.3c0.1,0.2,0.1,0.4,0.1,0.7c0,0.2-0.1,0.5-0.3,0.7c-0.1,0.3-0.3,0.5-0.5,0.6
					c-0.2,0.1-0.4,0.2-0.6,0.3c-0.1,0-0.2,0-0.4,0c-0.1,0-0.2-0.1-0.4-0.1c-0.2-0.1-0.3-0.2-0.4-0.3c-0.1-0.1-0.1-0.2-0.2-0.3
					l-0.7,1.2L195,274.1z M197,272c-0.1,0.1-0.1,0.2-0.2,0.3s-0.1,0.2-0.1,0.3c0,0.1-0.1,0.2-0.1,0.3c0,0.1,0,0.2,0.1,0.3
					c0,0.1,0.1,0.2,0.2,0.2c0.1,0.1,0.2,0.1,0.3,0.1c0.1,0,0.2,0,0.3,0c0.1,0,0.2-0.1,0.3-0.2c0.1-0.1,0.2-0.2,0.2-0.3
					c0.1-0.1,0.1-0.2,0.2-0.4c0-0.1,0.1-0.2,0-0.4c0-0.1,0-0.2-0.1-0.2c0-0.1-0.1-0.1-0.2-0.2c-0.1-0.1-0.2-0.1-0.3-0.1
					c-0.1,0-0.2,0-0.3,0.1C197.2,271.8,197.1,271.9,197,272z"/>
				<path id="XMLID_595_" fill="#F5E5EE" d="M198.5,274.9l2-3.5l0.6,0.4l-0.8,1.4l1.4,0.8l0.8-1.4l0.6,0.4l-2,3.5l-0.6-0.4l0.9-1.5
					l-1.4-0.8l-0.9,1.5L198.5,274.9z"/>
			</g>
		</g>
		<g id="XMLID_255_">
			<g id="XMLID_755_">
				<path id="XMLID_784_" fill="#F5E5EE" d="M216.1,285l2-3.5l1.4,0.8c0.2,0.1,0.4,0.2,0.5,0.4c0.1,0.1,0.2,0.3,0.3,0.4
					c0,0.2,0.1,0.3,0,0.5c0,0.2-0.1,0.3-0.2,0.5c-0.1,0.2-0.2,0.3-0.3,0.4c-0.1,0.1-0.3,0.2-0.4,0.2c-0.2,0-0.3,0-0.5,0
					c-0.2,0-0.4-0.1-0.6-0.2l-0.7-0.4l-0.7,1.2L216.1,285z M217.8,283.5l0.7,0.4c0.2,0.1,0.4,0.2,0.5,0.1c0.2,0,0.3-0.2,0.4-0.3
					c0.1-0.2,0.1-0.3,0.1-0.5c0-0.2-0.2-0.3-0.4-0.4l-0.7-0.4L217.8,283.5z"/>
				<path id="XMLID_782_" fill="#F5E5EE" d="M219.1,286.7l2-3.5l0.6,0.3l-0.7,1.3c0.1-0.1,0.3-0.1,0.4-0.1c0.2,0,0.3,0.1,0.4,0.1
					c0.1,0.1,0.2,0.2,0.3,0.3c0.1,0.1,0.1,0.2,0.2,0.3c0,0.1,0,0.3,0,0.4c0,0.1-0.1,0.3-0.1,0.4l-1,1.7l-0.6-0.3l0.9-1.6
					c0.1-0.1,0.1-0.3,0.1-0.4c0-0.1-0.1-0.2-0.3-0.3c-0.1-0.1-0.2-0.1-0.3-0.1c-0.1,0-0.2,0-0.3,0.1c-0.1,0-0.2,0.1-0.2,0.2
					c-0.1,0.1-0.1,0.1-0.2,0.2l-0.8,1.3L219.1,286.7z"/>
				<path id="XMLID_763_" fill="#F5E5EE" d="M222.5,287c0.1-0.2,0.3-0.4,0.4-0.5c0.2-0.1,0.3-0.2,0.5-0.3c0.1,0,0.3-0.1,0.5,0
					c0.2,0,0.3,0.1,0.5,0.2c0.2,0.1,0.3,0.2,0.5,0.4c0.1,0.2,0.2,0.4,0.2,0.6c0,0.2,0,0.4-0.1,0.5c-0.1,0.2-0.1,0.3-0.2,0.5
					c0,0,0,0,0,0.1l-0.1,0.1l-1.7-1c-0.1,0.1-0.1,0.2-0.1,0.3c0,0.1,0,0.2,0,0.3c0,0.1,0.1,0.1,0.1,0.2c0,0.1,0.1,0.1,0.2,0.2
					c0.1,0.1,0.2,0.1,0.2,0.1c0.1,0,0.1,0,0.2,0c0.1,0,0.2-0.1,0.2-0.2l0.6,0.3c0,0.1-0.1,0.1-0.2,0.2c-0.1,0.1-0.2,0.1-0.3,0.1
					c-0.2,0.1-0.4,0.1-0.5,0.1c-0.2,0-0.4-0.1-0.5-0.2c-0.2-0.1-0.3-0.2-0.4-0.3c-0.1-0.1-0.2-0.3-0.2-0.4c-0.1-0.2-0.1-0.4,0-0.6
					C222.4,287.4,222.4,287.2,222.5,287z M223.3,287.1l1.1,0.6c0.1-0.2,0.1-0.4,0.1-0.6c0-0.1,0-0.1-0.1-0.2s-0.1-0.1-0.2-0.2
					c-0.1-0.1-0.2-0.1-0.3-0.1c-0.1,0-0.2,0-0.3,0c-0.1,0-0.1,0.1-0.2,0.1C223.4,286.9,223.3,287,223.3,287.1z"/>
				<path id="XMLID_761_" fill="#F5E5EE" d="M224.7,289.9l1.4-2.5l0.5,0.3l-0.1,0.4c0.2-0.1,0.3-0.1,0.5-0.1c0.2,0,0.3,0.1,0.5,0.1
					c0.1,0.1,0.2,0.2,0.3,0.3c0.1,0.1,0.1,0.2,0.2,0.3c0,0.1,0,0.2,0,0.4c0,0.1-0.1,0.3-0.1,0.4l-1,1.7l-0.6-0.3l0.9-1.5
					c0.1-0.1,0.1-0.3,0.1-0.4c0-0.1-0.1-0.2-0.3-0.3c-0.1-0.1-0.2-0.1-0.3-0.1c-0.1,0-0.2,0.1-0.3,0.1c-0.1,0.1-0.2,0.2-0.3,0.3
					s-0.1,0.2-0.2,0.3l-0.6,1L224.7,289.9z"/>
				<path id="XMLID_758_" fill="#F5E5EE" d="M227.9,290.7c0-0.2,0.1-0.4,0.2-0.6c0.1-0.2,0.2-0.4,0.4-0.5c0.1-0.1,0.3-0.2,0.4-0.3
					c0.1-0.1,0.3-0.1,0.5-0.1s0.4,0.1,0.6,0.2c0.2,0.1,0.3,0.3,0.5,0.4c0.1,0.2,0.2,0.3,0.2,0.5c0,0.2,0,0.3,0,0.5
					c0,0.2-0.1,0.4-0.2,0.6c-0.1,0.2-0.2,0.4-0.4,0.5c-0.1,0.1-0.3,0.2-0.4,0.3c-0.1,0.1-0.3,0.1-0.5,0.1c-0.2,0-0.4-0.1-0.6-0.2
					c-0.2-0.1-0.3-0.3-0.5-0.4c-0.1-0.2-0.2-0.3-0.2-0.5C227.9,291.1,227.9,290.9,227.9,290.7z M229,290.2c-0.1,0.1-0.2,0.2-0.2,0.3
					c-0.1,0.1-0.1,0.2-0.2,0.4c0,0.1,0,0.2,0,0.4c0,0.1,0,0.1,0.1,0.2c0,0.1,0.1,0.1,0.2,0.2c0.1,0,0.2,0.1,0.3,0.1
					c0.1,0,0.2,0,0.2,0c0.1,0,0.2-0.1,0.3-0.2c0.1-0.1,0.2-0.2,0.2-0.3c0.1-0.1,0.1-0.2,0.2-0.4c0-0.1,0-0.2,0-0.4
					c0-0.1,0-0.1-0.1-0.2c0-0.1-0.1-0.1-0.2-0.2c-0.1,0-0.2-0.1-0.2-0.1c-0.1,0-0.2,0-0.2,0C229.2,290,229.1,290.1,229,290.2z"/>
				<path id="XMLID_756_" fill="#F5E5EE" d="M230.7,292.5l1.6-2.9l0.6,0.3l-1.6,2.8c0,0.1-0.1,0.1-0.1,0.2c0,0.1,0.1,0.1,0.2,0.2
					c0,0,0,0,0.1,0c0,0,0,0,0,0l-0.3,0.5c-0.1,0-0.1,0-0.1-0.1c0,0-0.1,0-0.1-0.1c-0.2-0.1-0.3-0.3-0.4-0.4
					C230.6,292.9,230.6,292.7,230.7,292.5z"/>
			</g>
		</g>
		<g id="XMLID_244_">
			<g id="XMLID_562_">
				<path id="XMLID_565_" fill="#F5E5EE" d="M260.7,308.2c0.1-0.1,0.2-0.3,0.2-0.4c0.1-0.1,0.2-0.2,0.3-0.3s0.2-0.2,0.3-0.3
					c0.1-0.1,0.2-0.1,0.4-0.2c0.2-0.1,0.4-0.1,0.6,0c0.2,0,0.4,0.1,0.6,0.2c0.2,0.1,0.3,0.2,0.5,0.4c0.1,0.2,0.2,0.3,0.3,0.6
					c0,0.2,0,0.3,0,0.5c0,0.2-0.1,0.3-0.1,0.5l-0.6-0.4c0-0.1,0.1-0.2,0.1-0.2c0-0.1,0-0.1,0-0.2c0-0.1-0.1-0.2-0.1-0.3
					c-0.1-0.1-0.2-0.2-0.3-0.2c-0.1-0.1-0.2-0.1-0.3-0.1c-0.1,0-0.2,0-0.3,0c-0.1,0-0.2,0.1-0.3,0.1c-0.1,0.1-0.2,0.1-0.2,0.2
					c-0.1,0.1-0.1,0.2-0.2,0.3c-0.1,0.1-0.1,0.2-0.1,0.2c0,0.1-0.1,0.2-0.1,0.3c0,0.1-0.1,0.2-0.1,0.3c0,0.1-0.1,0.2-0.1,0.3
					s0,0.2,0,0.3c0,0.1,0.1,0.2,0.1,0.3c0.1,0.1,0.2,0.2,0.3,0.2c0.1,0.1,0.2,0.1,0.3,0.1c0.1,0,0.2,0,0.3,0
					c0.2-0.1,0.3-0.2,0.4-0.3l0.6,0.4c-0.1,0.1-0.2,0.2-0.3,0.3c-0.1,0.1-0.3,0.2-0.4,0.2c-0.2,0.1-0.4,0.1-0.6,0
					c-0.2,0-0.4-0.1-0.6-0.2c-0.2-0.1-0.3-0.2-0.5-0.4c-0.1-0.2-0.2-0.3-0.3-0.5c0-0.1-0.1-0.3-0.1-0.4c0-0.1,0-0.3,0.1-0.4
					c0-0.1,0.1-0.3,0.2-0.4C260.6,308.5,260.6,308.3,260.7,308.2z"/>
				<path id="XMLID_563_" fill="#F5E5EE" d="M263,311.8l2-3.5l0.6,0.4l-2,3.5L263,311.8z"/>
			</g>
		</g>
		<g id="XMLID_223_">
			<g id="XMLID_647_">
				<path id="XMLID_674_" fill="#F5E5EE" d="M273.8,318l2-3.5l1.3,0.8c0.2,0.1,0.4,0.2,0.5,0.4c0.1,0.2,0.2,0.3,0.3,0.5
					c0,0.1,0,0.3,0,0.4s0,0.3-0.1,0.4c0,0.1-0.1,0.3-0.1,0.4c-0.1,0.1-0.1,0.2-0.2,0.4c-0.1,0.1-0.1,0.2-0.2,0.4
					c-0.1,0.1-0.2,0.2-0.3,0.3c-0.1,0.1-0.2,0.2-0.3,0.3c-0.1,0.1-0.2,0.1-0.4,0.2c-0.2,0.1-0.4,0.1-0.6,0c-0.2,0-0.4-0.1-0.6-0.2
					L273.8,318z M274.7,317.7l0.7,0.4c0.1,0.1,0.2,0.1,0.3,0.1c0.1,0,0.2,0,0.3,0c0.1,0,0.2-0.1,0.3-0.1c0.1-0.1,0.1-0.1,0.2-0.2
					c0.1-0.1,0.1-0.2,0.2-0.2c0.1-0.1,0.1-0.2,0.1-0.2c0-0.1,0.1-0.2,0.1-0.2s0.1-0.2,0.1-0.3c0-0.1,0.1-0.2,0.1-0.3
					c0-0.1,0-0.2,0-0.3c0-0.1-0.1-0.2-0.1-0.3c-0.1-0.1-0.1-0.2-0.2-0.2l-0.7-0.4L274.7,317.7z"/>
				<path id="XMLID_664_" fill="#F5E5EE" d="M277.1,319.9l2-3.5l1.4,0.8c0.2,0.1,0.4,0.2,0.5,0.4s0.2,0.3,0.3,0.4
					c0,0.2,0.1,0.3,0,0.5c0,0.2-0.1,0.3-0.2,0.5c-0.1,0.2-0.2,0.3-0.3,0.4c-0.1,0.1-0.3,0.2-0.4,0.2c-0.2,0-0.3,0-0.5,0
					c-0.2,0-0.4-0.1-0.6-0.2l-0.7-0.4l-0.7,1.2L277.1,319.9z M278.8,318.4l0.7,0.4c0.2,0.1,0.4,0.2,0.5,0.1c0.2,0,0.3-0.2,0.4-0.3
					c0.1-0.2,0.1-0.3,0.1-0.5c0-0.2-0.2-0.3-0.4-0.4l-0.7-0.4L278.8,318.4z"/>
				<path id="XMLID_649_" fill="#F5E5EE" d="M280.1,321.6l2-3.5l1.3,0.8c0.2,0.1,0.4,0.2,0.5,0.4c0.1,0.2,0.2,0.3,0.3,0.5
					c0,0.1,0,0.3,0,0.4c0,0.1,0,0.3-0.1,0.4c0,0.1-0.1,0.3-0.1,0.4c-0.1,0.1-0.1,0.2-0.2,0.4c-0.1,0.1-0.1,0.2-0.2,0.4
					c-0.1,0.1-0.2,0.2-0.3,0.3c-0.1,0.1-0.2,0.2-0.3,0.3c-0.1,0.1-0.2,0.1-0.4,0.2c-0.2,0.1-0.4,0.1-0.6,0c-0.2,0-0.4-0.1-0.6-0.2
					L280.1,321.6z M281.1,321.4l0.7,0.4c0.1,0.1,0.2,0.1,0.3,0.1c0.1,0,0.2,0,0.3,0c0.1,0,0.2-0.1,0.3-0.1c0.1-0.1,0.1-0.1,0.2-0.2
					c0.1-0.1,0.1-0.2,0.2-0.2c0.1-0.1,0.1-0.2,0.1-0.2c0-0.1,0.1-0.2,0.1-0.3s0.1-0.2,0.1-0.3c0-0.1,0.1-0.2,0.1-0.3
					c0-0.1,0-0.2,0-0.3c0-0.1-0.1-0.2-0.1-0.3c-0.1-0.1-0.1-0.2-0.2-0.2l-0.7-0.4L281.1,321.4z"/>
			</g>
		</g>
		<g id="XMLID_200_">
			<g id="XMLID_681_">
				<path id="XMLID_694_" fill="#F5E5EE" d="M291.9,328.3l1.4-2.5l0.5,0.3l-0.1,0.4c0.1-0.1,0.3-0.1,0.5-0.1c0.2,0,0.3,0,0.5,0.1
					c0.2,0.1,0.3,0.2,0.4,0.4c0.1,0.1,0.1,0.3,0.1,0.5c0.2-0.1,0.3-0.1,0.5-0.1c0.2,0,0.3,0.1,0.5,0.2c0.3,0.2,0.4,0.4,0.5,0.6
					c0,0.2,0,0.5-0.2,0.8l-1,1.7l-0.6-0.3l0.9-1.6c0.1-0.2,0.1-0.3,0.1-0.4c0-0.1-0.1-0.2-0.2-0.3c-0.1,0-0.2-0.1-0.3-0.1
					c-0.1,0-0.2,0-0.2,0.1c-0.1,0-0.2,0.1-0.2,0.2c-0.1,0.1-0.1,0.1-0.2,0.2l-0.8,1.4l-0.6-0.3l0.9-1.6c0.1-0.2,0.1-0.3,0.1-0.4
					c0-0.1-0.1-0.2-0.2-0.3c-0.1,0-0.2-0.1-0.3-0.1c-0.1,0-0.2,0-0.2,0.1c-0.1,0-0.2,0.1-0.2,0.2c-0.1,0.1-0.1,0.1-0.2,0.2l-0.8,1.4
					L291.9,328.3z"/>
				<path id="XMLID_689_" fill="#F5E5EE" d="M295.8,331.1c0.1-0.1,0.1-0.2,0.3-0.3c0.1-0.1,0.2-0.1,0.3-0.1
					c-0.1-0.1-0.1-0.2-0.1-0.3c0-0.1,0-0.2,0.1-0.3c0.1-0.2,0.3-0.3,0.6-0.3c0-0.1,0-0.2,0-0.4s0.1-0.3,0.1-0.4
					c0.1-0.2,0.2-0.3,0.3-0.4c0.1-0.1,0.3-0.1,0.4-0.2c0.1,0,0.3,0,0.4,0c0.2,0,0.3,0.1,0.4,0.2c0.1,0.1,0.2,0.1,0.3,0.2
					c0.1,0.1,0.1,0.2,0.2,0.3c0.1-0.1,0.2-0.1,0.4-0.1c0.1,0,0.2,0,0.4,0.1l0.1,0c0,0,0.1,0,0.1,0.1l-0.3,0.5l0,0
					c-0.1,0-0.1-0.1-0.2-0.1s-0.1,0-0.2,0.1c0,0.2,0,0.4-0.1,0.5c-0.1,0.1-0.2,0.3-0.3,0.3c-0.1,0.1-0.3,0.1-0.4,0.2
					c-0.1,0-0.3,0-0.4,0c-0.2,0-0.3-0.1-0.4-0.2c-0.1-0.1-0.3-0.2-0.4-0.3c0,0-0.1,0-0.1,0c0,0-0.1,0-0.1,0.1c0,0.1,0,0.1,0,0.2
					c0,0.1,0.1,0.1,0.1,0.1l0.4,0.2c0.1,0,0.1,0.1,0.2,0.1c0.1,0,0.1,0.1,0.2,0.1c0.1,0.1,0.1,0.1,0.2,0.2c0.1,0.1,0.1,0.1,0.1,0.2
					c0.1,0.1,0.1,0.3,0.1,0.4c0,0.1-0.1,0.3-0.1,0.4c-0.1,0.2-0.2,0.3-0.3,0.3c-0.1,0.1-0.3,0.1-0.4,0.1c-0.2,0-0.3,0-0.5-0.1
					c-0.2-0.1-0.3-0.1-0.5-0.2c-0.2-0.1-0.3-0.2-0.5-0.3c-0.1-0.1-0.3-0.3-0.3-0.4c-0.1-0.1-0.1-0.2-0.1-0.4
					C295.7,331.4,295.7,331.2,295.8,331.1z M296.6,331.2c-0.1,0-0.1,0.1-0.2,0.2c0,0.1-0.1,0.2,0,0.2c0,0.1,0.1,0.1,0.1,0.2
					s0.1,0.1,0.2,0.2c0.1,0.1,0.1,0.1,0.2,0.1c0.1,0,0.1,0.1,0.2,0.1s0.2,0.1,0.2,0.1c0.1,0,0.2,0,0.2,0c0.1,0,0.1-0.1,0.2-0.2
					c0-0.1,0.1-0.2,0-0.2c0-0.1-0.1-0.1-0.1-0.2c0-0.1-0.1-0.1-0.2-0.1c-0.1,0-0.1-0.1-0.2-0.1l-0.5-0.3
					C296.7,331.2,296.7,331.2,296.6,331.2z M298,329.2c-0.1,0-0.2,0.1-0.3,0.3s-0.1,0.3-0.1,0.4c0,0.1,0.1,0.2,0.3,0.3
					c0.1,0.1,0.3,0.1,0.4,0.1c0.1,0,0.2-0.1,0.3-0.3s0.1-0.3,0.1-0.4c0-0.1-0.1-0.2-0.3-0.3C298.3,329.2,298.1,329.1,298,329.2z"/>
				<path id="XMLID_687_" fill="#F5E5EE" d="M298.6,332.3l3.5-2.7l0.4,0.3l-3.5,2.7L298.6,332.3z"/>
				<path id="XMLID_682_" fill="#F5E5EE" d="M301,333.5l2-3.5l0.6,0.4l-1.6,2.9l1.6,0.9l-0.3,0.6L301,333.5z"/>
			</g>
		</g>
	</g>
	<g id="XMLID_2_">
		<g id="XMLID_42_" transform="matrix(1,0,0,1,0,85.6918)">
			<g id="XMLID_345_">
				<path id="XMLID_347_" fill="#404040" d="M320.6,348c-5.3-3.5-12.4-1.9-15.9,3.4L131,619c-3.5,5.3-1.9,12.4,3.4,15.9L479,858.6
					c5.3,3.5,12.4,1.9,15.9-3.4l173.7-267.7c3.5-5.3,1.9-12.4-3.4-15.9L320.6,348z"/>
			</g>
		</g>
		<g id="XMLID_47_">
			<g id="XMLID_475_">
				<g id="XMLID_477_" transform="matrix(0.569106,0,0,0.902439,272.358,130.277)">
					<path id="XMLID_478_" fill="#4D4D4D" d="M96.1,362.9c-7.2-3-16.9-1.7-21.6,2.9L-94.7,530.2c-4.7,4.6-2.6,10.7,4.6,13.6
						l551,225.5c7.2,3,16.9,1.7,21.6-2.9L651.7,602c4.7-4.6,2.6-10.7-4.6-13.6L96.1,362.9z"/>
				</g>
				
					<rect id="XMLID_476_" x="302.5" y="729.3" transform="matrix(0.5444 -0.8388 0.8388 0.5444 -500.9619 644.5693)" fill="#666666" width="80.8" height="108.3"/>
			</g>
		</g>
		<path id="XMLID_15_" fill="#8E5B49" d="M354.9,859.4l0.3-41.7l-4.6-33.8l-0.2-0.2c-2.4-2.7-6.6-3.4-9.8-1.5l0,0
			c-2.4,1.4-4,3.7-4.3,6.3l-4.2,57.1c-0.7,6.4-1.8,12.7-3.4,18.9l-6.5,25.1c0,0-18.8-55.1-40.6-38.8c0,0,15.4,24.9,13.4,45.5
			c-2.1,20.6-3,60.1,21.5,80.6l-24.5,53.3l62.7,11.4c0,0,16.5-51.3,23.2-58.3c0,0,13.1-6.2,21.6-33.3c8.5-27.1,12.3-50.8,12.3-50.8
			l11-24.3c3.8-8.4,6.6-17.2,8.4-26.2l1.7-12.3l-2.4-1.3c-3.6-1.9-8.2-0.5-9.7,3.1l-4.2,6.6c-0.7,1.8-1.4,3.7-1.9,5.6l0,0
			c-0.9,3.2-2,6.3-3.5,9.3l-14,27.7l2.4-12.9c4.1-22.3,3.1-33.7,3-56.3l-0.1-21.5l0,0c-1.6-1.3-3.9-1.6-5.9-0.9l-1,0.4
			c-3.2,1.1-5.5,3.7-6.1,6.8l-1.7,11.4l-2.2,20.4l-7.8,34.2l2.1-11c4.4-23.6,5.1-47.8,1.9-71.6l-0.8-6.3l0,0c-2.4-0.8-5.1-0.4-7.2,1
			l-3.3,2.3c-1.4,1-2.3,2.5-2.5,4.1l-1.6,35.8c-0.3,2.8-0.9,5.6-1.8,8.3l-9.6,27.2"/>
		<path id="XMLID_418_" fill="#404040" d="M273.1,324.6c-3.8-2.5-9-0.5-10,3.9c-0.2,0.8-0.1,1.5,0.2,1.9l46.6,92.9
			c2,4,5,7.4,8.8,9.8l346.8,225.1c3.7,2.4,8,3.8,12.4,4l104.8,5.3c0.5,0.1,1.1-0.3,1.7-1.2c2.6-3.8,1.3-9-2.5-11.6L273.1,324.6z"/>
		<g id="XMLID_45_" transform="matrix(9.24649e-17,-1.51007,0.578947,3.54503e-17,530.579,1341.13)">
			<g id="XMLID_420_">
				<path id="XMLID_428_" fill="#C5D5EF" d="M453.6,390.9l2.6-147.6l150.3-604.2l50.3-64.9c0.8-1,1.5,1.3,1.1,3.1L455.1,392.2
					C454.6,394,453.5,393.1,453.6,390.9z"/>
			</g>
		</g>
		<path id="XMLID_344_" fill="#EAC1AC" d="M201,1325.7c21.2,54.8,94.6,78.5,121.2,79.9c0.3-0.1,55.8-380.3,60.2-399.1
			c1.3-5.5,1.3-5.6-3.6-8.6c-0.6-0.4-1.2-0.8-1.9-1.1c-5.6-2.5-11-5.3-16.7-7.5c-16.9-6.4-34.3-9.2-52.4-7.9
			c-3.6-0.1-5.5,1.7-6.7,5.1C294.8,1004.1,206.7,1308,201,1325.7z"/>
		<path id="XMLID_23_" fill="#8E5B49" d="M348.5,628.8l23.3-16.9c2.3-1.7,4.8-3,7.4-4.1l33.8-11.7c1.5-0.6,2.7-1.9,3.2-3.5l1.3-3.8
			c0.8-2.4,0.4-5.1-1.1-7.2v0l-6.3,1c-23.7,3.7-46.7,11.2-68.1,22.2l-9.9,5.1l30.5-17.1l19-7.9l10.5-4.8c2.8-1.5,4.6-4.4,4.8-7.8
			l0.1-1.1c0.1-2.1-0.9-4.2-2.6-5.4l0,0l-20.6,6c-21.7,6.3-32.9,8.6-53.1,18.9l-11.7,6l19.2-18.9l12.1-2.4c3-0.6,5.6-2.4,7.3-4.9
			l0,0c1.9-2.8,1.3-6.6-1.3-8.7l0,0l-28.9,5.3L293.4,586c0,0-21.7,10.4-45.2,26.3c-23.5,15.8-25.8,30.1-25.8,30.1
			c-4.8,8.4-49.3,38.8-49.3,38.8l28.7,56.9l44.2-38.7c26.6,17.7,64.2,5.5,83.4-2.3s47.4-0.1,47.4-0.1c5.5-14.8-11.6-21.8-27.1-25.1
			c-11.3-2.4-21.7-2.8-21.7-2.8l22.2-13.4c5.5-3.3,11.2-6.2,17.1-8.7l53.5-20.3c2.4-1,4.2-3.2,4.9-5.9h0c0.8-3.6-1-7.4-4.3-8.9
			l-0.3-0.1l-33.7,5.2l-39.9,12.2"/>
		<path id="XMLID_48_" fill="#EAC1AC" d="M-126.1,869.6c-47.2,60,5.3,106.3,36.7,118.9c6.4-4.2,12.2-9.2,18.2-13.9
			c17.7-13.7,294-237.7,311.6-251.4c1.9-1.5,2.6-2.9,1.7-5.2c-0.6-1.5-0.9-3.1-1.4-4.7c-4.4-14.8-11.9-27.9-21.8-39.7
			c-4.5-5.3-9.4-10.1-14.5-14.8c-3.3-2.8-3.4-2.8-7-0.3c-20.7,14.4-41.8,28.1-62.9,42c-19.9,13.1-239.1,153.8-258.9,167
			c-0.6,0.4-1.3,0.8-1.8,1.4C-126.1,869.1-126.1,869.4-126.1,869.6z"/>
	</g>
	<g id="XMLID_65_">
		<g id="XMLID_22_">
			<path id="XMLID_1821_" fill="#664C3E" d="M1660.1,876.8c0,0-49-13.3-50.1-19.9c-1.1-6.6-3.3-12.8-6.3-18.7
				c-3.3-6.5-7.5-12.4-12.5-17.7c-4.9-5.3-10.2-10.2-16.3-14.1c-2.8-1.8-5.5-3.6-8.4-5.2c-2-1.1-3.9-2.3-6-3.1
				c-0.1-0.1-0.2-0.3-0.3-0.4c-3.6-1.8-7.2-3.5-10.7-5.4c-4.9-2.7-9.2-6.2-13.4-9.9c-0.2,0-0.3-0.1-0.3-0.3
				c-0.6-0.6-1.2-1.1-1.9-1.7c-0.2,0-0.3-0.1-0.3-0.3c-0.4-0.4-0.7-0.7-1.1-1.1c-0.2,0-0.3-0.1-0.3-0.3c-0.2-0.2-0.4-0.4-0.7-0.7
				c-0.2,0-0.3,0-0.3-0.3c-0.4-0.4-0.7-0.7-1.1-1.1c-0.2,0.1-0.4,0-0.3-0.3c-0.1-0.1-0.3-0.2-0.4-0.4c-0.2,0-0.3-0.1-0.3-0.3
				c-0.2-0.2-0.4-0.5-0.6-0.7c-0.2,0-0.3-0.1-0.3-0.3c-0.2-0.2-0.4-0.4-0.6-0.7c-0.2,0-0.3-0.1-0.3-0.3c-0.4-0.3-0.6-0.8-1.2-0.9
				c-0.1,0.1-0.2,0.2-0.3,0.1c-0.2,0.1-0.4,0.1-0.5,0.2c0,0.2-0.2,0.3-0.4,0.2c-2.2,0.8-3.9,2.1-5.2,4.1c0.1,0.2,0,0.3-0.2,0.4
				c-0.6,1.2-0.8,2.6-0.9,3.9c0.2,0.7,0.3,1.5,0.2,2.3c0.3,1,0.6,2,1,3.1c0.2,0.1,0.3,0.2,0.2,0.4c0.1,0.3,0.3,0.6,0.4,0.8
				c0.3,0,0.3,0.2,0.2,0.4c0.1,0.2,0.2,0.3,0.3,0.5c0.7,1.6,1.7,3,2.8,4.4c0.1,0.1,0.1,0.2,0.2,0.3c0.4,0.1,0.5,0.3,0.5,0.6
				c0.2,0.2,0.4,0.5,0.6,0.7c0.2,0,0.3,0.1,0.3,0.4c0.4,0.5,0.9,1.1,1.3,1.6c0.2,0,0.3,0.1,0.3,0.3c0.2,0.2,0.4,0.5,0.6,0.7
				c0.3,0,0.5,0.2,0.5,0.6c0.5,0.6,1.1,1.1,1.6,1.7c0.2,0,0.3,0.1,0.3,0.3c0.1,0.1,0.1,0.2,0.2,0.2c1,1,2,2.1,3,3.1
				c0.2,0.1,0.3,0.1,0.5,0.3c3.4,3.3,7,6.3,10.7,9.3c1.7,1.4,3.2,2.8,4.2,4.8c3.1,6.1,6.1,12.2,8.9,18.4c3.9,8.3,7.5,16.8,11.2,25.2
				c0.4,0.9,0.1,1.2-0.7,1.5c-2.1,0.7-4.1,1.6-6.2,2.3c-7.8,2.9-15.6,5.7-23.4,8.5c-8.4,3.1-16.8,6.1-25.1,9.2
				c-5.2,1.9-10.4,3.8-15.6,5.7c0.2,0.9,1,1.1,1.7,1.4c5.7,3,13.7,9.2,19.6,11.7c7.4,3.1,14.6,6.7,22.4,8.9c5.3,1.5,18.2,3,23.7,3.4
				c2.4,0.1,73.5,20.8,73.5,20.8L1660.1,876.8z"/>
			<path id="XMLID_1799_" fill="#F5F8FC" d="M1527.4,773.8c-0.4-0.3-0.6-0.8-1.2-0.9c-0.2-0.2-0.3-0.1-0.3,0.1
				c-0.2,0.1-0.4,0.1-0.5,0.2c-0.2-0.1-0.3,0-0.4,0.2c-2.1,0.8-3.9,2.1-5.2,4.1c-0.2,0.1-0.3,0.2-0.2,0.4c-0.6,1.2-0.8,2.6-0.9,3.9
				c-0.3,0.8-0.1,1.5,0.2,2.3c0.3,1,0.6,2,1,3.1c-0.1,0.2-0.1,0.4,0.2,0.4c0.1,0.3,0.3,0.6,0.4,0.8c-0.1,0.2,0,0.3,0.2,0.4
				c0.1,0.2,0.2,0.3,0.3,0.5c-0.1,0.7-0.7,1-1.3,1.2c-4.8,1.8-9.6,3.5-14.5,5.3c-9.6,3.5-19.2,6.9-28.7,10.4
				c-8.3,3-16.6,6.1-24.9,9.1c-7.1,2.6-14.2,5.2-21.4,7.7c-0.6,0.2-1.2,0.4-1.5,1c-0.3,0.6-0.4,1.3,0.1,1.9c0.6,0.7,1.3,0.8,2.1,0.5
				c5.3-1.9,10.7-3.8,16-5.8c6.8-2.5,13.7-4.9,20.5-7.4c7.2-2.6,14.5-5.3,21.7-7.9c8.2-3,16.4-5.9,24.7-8.9c2.7-1,5.4-1.9,8-2.9
				c0.8-0.3,1.4-0.3,2,0.1c0.1,0.1,0.1,0.2,0.2,0.3c0,0.4,0.1,0.6,0.5,0.6c0.2,0.2,0.4,0.5,0.6,0.7c-0.1,0.2,0,0.4,0.3,0.4
				c0.4,0.5,0.9,1,1.3,1.6c-0.1,0.2,0,0.4,0.3,0.3c0.2,0.2,0.4,0.5,0.6,0.7c0,0.4,0.1,0.6,0.5,0.6c0.5,0.6,1.1,1.1,1.6,1.7
				c-0.1,0.2,0.1,0.3,0.3,0.3c0.1,0.1,0.1,0.2,0.2,0.2c-0.6,0.8-1.7,0.9-2.5,1.2c-10.9,4-21.7,8-32.6,12c-8.6,3.1-17.2,6.2-25.8,9.3
				c-6.5,2.3-13,4.6-19.4,7c-4.9,1.8-9.9,3.7-14.8,5.5c-2.5,0.3-4.9-0.8-7.3-1.2c-3.9-0.8-7.7-1.9-11.5-2.7
				c-2.6-0.6-5.2-1.2-7.7-1.9c-1-0.3-2.1-0.7-3.2-0.3c-0.8-0.2-1.2-0.7-1.4-1.5c-1.8-5.9-4.2-11.6-6.2-17.4
				c-2.7-7.9-5.7-15.7-8.5-23.5c-2.4-6.7-4.8-13.4-7.3-20.1c-3.4-9.2-6.6-18.4-10-27.6c-3.6-9.8-7.1-19.7-10.7-29.5
				c-1.2-3.3-1.4-2.8,1.8-3.9c4.6-1.7,9.1-3.4,13.7-5c4.1-1.5,8.2-2.8,12.2-4.3c6.7-2.4,13.3-5,19.9-7.3c8.2-2.8,16.3-6,24.5-8.8
				c8.3-2.8,16.4-6.1,24.6-9c6.8-2.4,13.6-4.9,20.3-7.4c4.8-1.8,9.6-3.5,14.5-5.3c4.8-1.7,9.7-3.4,14.5-5.2c0.8-0.3,1.2-0.2,1.5,0.7
				c1.4,3.8,2.8,7.6,4.2,11.4c2.9,7.9,5.6,15.9,8.6,23.8c2.3,6.1,4.4,12.3,6.6,18.4c1.5,4.1,3,8.2,4.5,12.3c1.7,4.5,3.2,9.2,5,13.7
				c1.5,3.7,2.6,7.7,4,11.5c2.1,5.8,4.2,11.6,6.3,17.4c2.1,5.8,4.3,11.7,6.4,17.5c1.9,5.3,3.8,10.7,5.7,16c0.1,0.4,0.2,0.8,0,1.2
				c-3.6-1.8-7.2-3.5-10.7-5.4c-4.9-2.7-9.2-6.2-13.4-9.9c0-0.2-0.1-0.3-0.3-0.3c-0.6-0.6-1.2-1.1-1.9-1.7c0-0.2-0.1-0.3-0.3-0.3
				c-0.4-0.3-0.7-0.7-1.1-1.1c0-0.2-0.1-0.3-0.3-0.3c-0.2-0.2-0.4-0.4-0.7-0.7c0-0.2-0.1-0.3-0.3-0.3c-0.4-0.4-0.7-0.7-1.1-1.1
				c0-0.2-0.1-0.3-0.3-0.3c-0.1-0.1-0.3-0.2-0.4-0.4c0.1-0.2-0.1-0.3-0.3-0.3c-0.2-0.2-0.4-0.4-0.6-0.7c0.1-0.3,0-0.4-0.3-0.3
				c-0.2-0.2-0.4-0.4-0.6-0.7C1527.7,773.9,1527.6,773.7,1527.4,773.8z M1503.1,720.4c-5.5,2-11.1,4.1-16.6,6.1
				c-6.6,2.4-13.3,4.7-19.9,7.1c-6.9,2.5-13.9,5.1-20.8,7.6c-4.3,1.6-8.6,3-12.9,4.6c-3.4,1.2-6.8,2.6-10.2,3.9
				c-3.6,1.3-7.3,2.5-11,3.8c-2,0.7-4,1.4-6,2.2c-1.3,0.5-1.9,1.6-1.5,2.6c0.4,0.9,1.5,1.2,2.8,0.7c5.7-2.1,11.3-4.3,17-6.2
				c5.6-1.8,10.9-4.1,16.5-6c8.8-3.1,17.5-6.4,26.3-9.6c5.8-2.1,11.5-4,17.3-6.1c6.8-2.5,13.6-5,20.4-7.4c1-0.4,1.2-1.1,1.2-2
				c0-0.8-0.5-1.3-1.5-1.5C1504,720,1503.6,720.3,1503.1,720.4z M1397.3,733.1c2.2-0.7,4.3-1.5,6.5-2.3c6.2-2.2,12.4-4.4,18.6-6.7
				c8.3-3,16.7-6.1,25-9.1c4.6-1.7,9.2-3.3,13.7-5c8.3-3,16.5-6,24.8-8.9c2.9-1.1,5.8-2.1,8.7-3.2c1.9-0.7,2.3-2,1.2-3.1
				c-0.6-0.7-1.4-0.6-2.1-0.3c-3,1.1-6.1,2.3-9.1,3.4c-6.4,2.3-12.8,4.5-19.2,6.9c-5.2,1.9-10.3,3.8-15.5,5.7
				c-3.7,1.4-7.5,2.7-11.2,4c-5.7,2.1-11.3,4.1-17,6.2c-6.9,2.5-13.9,5.1-20.8,7.6c-1.6,0.6-3.2,1.1-4.9,1.6
				c-0.7,0.2-1.2,0.7-1.3,1.4C1394.5,732.6,1395.7,733.6,1397.3,733.1z M1402.1,746c2.7-0.9,5.4-1.9,8-2.9
				c6.4-2.3,12.8-4.6,19.2-6.9c6.6-2.4,13.2-4.8,19.8-7.2c6.2-2.2,12.5-4.5,18.7-6.7c8.9-3.2,17.8-6.4,26.7-9.6
				c1.6-0.6,3.2-1.2,4.8-1.8c1.4-0.5,2-1.4,1.7-2.4c-0.4-1.2-1.5-1.6-3.1-1c-4.4,1.6-8.8,3.2-13.2,4.8c-9.9,3.6-19.9,7.1-29.8,10.7
				c-9.2,3.3-18.3,6.7-27.4,10c-6.5,2.4-13.1,4.6-19.6,7c-2.5,0.9-4.9,1.8-7.3,2.8c-0.6,0.2-1.1,0.5-1.2,1.2
				C1399.2,745.6,1400.5,746.6,1402.1,746z M1434.4,795.9c3.5-1.3,6.9-2.5,10.4-3.8c5.8-2.1,11.7-4.2,17.5-6.3
				c5.4-2,10.8-3.9,16.2-6c5.3-2.1,10.8-3.8,16.2-5.7c0.5-0.2,0.9-0.3,1.3-0.6c0.8-0.5,1.1-1.3,0.6-2.2c-0.5-0.9-1.2-1.2-2.1-0.9
				c-7.7,2.8-15.5,5.6-23.2,8.4c-4.5,1.6-8.9,3.2-13.4,4.8c-3.7,1.3-7.3,2.7-11,4.1c-3.2,1.2-6.4,2.3-9.7,3.4
				c-1.4,0.5-2.9,1-4.3,1.6c-0.6,0.3-1.2,0.6-1.3,1.6C1431.4,795.6,1432.8,796.5,1434.4,795.9z M1489.1,757.7
				c-5.1,1.9-10.2,3.7-15.4,5.6c-6.8,2.4-13.6,4.8-20.3,7.3c-5.5,2.1-11,3.9-16.5,6.1c-2.7,1.1-5.5,2-8.3,2.9
				c-1.5,0.5-2.1,1.5-1.6,2.6c0.4,0.9,1.5,1.2,2.8,0.8c7.4-2.7,14.7-5.4,22.1-8.1c10.7-3.9,21.3-7.8,32-11.6c2.3-0.8,4.7-1.7,7-2.5
				c0.9-0.3,1.2-1.1,1.1-1.9c-0.1-0.8-0.7-1.2-1.1-1.4C1490.1,757.2,1489.6,757.5,1489.1,757.7z M1483.7,744.9
				c-5.9,2.4-12,4.4-18,6.6c-10.7,3.8-21.4,7.8-32.1,11.7c-3.2,1.2-6.4,2.3-9.5,3.5c-1.5,0.5-2,1.4-1.6,2.4c0.4,1,1.4,1.4,2.9,0.8
				c5.1-1.8,10.2-3.7,15.2-5.6c4.8-1.7,9.6-3.4,14.4-5.2c5.3-1.9,10.5-3.8,15.7-5.7c4.9-1.8,9.8-3.6,14.7-5.4
				c0.4-0.2,0.9-0.3,1.2-0.5c0.7-0.4,1-1.1,0.9-1.8c-0.1-0.8-0.8-1.1-1.5-1.3C1485.1,744.3,1484.4,744.6,1483.7,744.9z
				 M1505.1,765.3c-2.2-0.3-3.8,0.8-4.2,2.8c-0.3,2.1,0.6,3.4,2.7,3.7c2,0.3,3.5-0.7,3.8-2.7
				C1507.7,767.4,1506.5,765.5,1505.1,765.3z M1499.2,759.1c1.7,0.3,3.3-1,3.6-2.8c0.3-1.9-0.8-3.4-2.7-3.7
				c-1.9-0.3-3.4,0.8-3.7,2.7C1496.1,757.2,1497.2,758.8,1499.2,759.1z M1491.8,742.5c-0.3,2,0.8,3.6,2.8,3.9
				c1.8,0.3,3.3-0.9,3.6-2.8c0.3-1.8-0.8-3.3-2.8-3.6C1493.6,739.6,1492.1,740.6,1491.8,742.5z"/>
			<path id="XMLID_1798_" fill="#FDFDFD" d="M1497.7,889.2c5.2-1.9,10.4-3.8,15.6-5.7c8.4-3.1,16.8-6.1,25.1-9.2
				c7.8-2.8,15.6-5.7,23.4-8.5c2.1-0.8,4.1-1.6,6.2-2.3c0.8-0.3,1-0.6,0.7-1.5c-3.7-8.4-7.4-16.9-11.2-25.2
				c-2.9-6.2-5.9-12.3-8.9-18.4c-1-2-2.5-3.5-4.2-4.8c-3.7-3-7.3-6-10.7-9.3c-0.1-0.1-0.3-0.2-0.5-0.3c-0.4,0.1-0.8,0.2-1.2,0.3
				c-5.1,1.9-10.1,3.7-15.2,5.6c-8.6,3.1-17.1,6.2-25.7,9.3c-6.5,2.4-13.1,4.7-19.6,7.1c-6.5,2.4-12.9,4.7-19.4,7.1
				c-3.8,1.4-7.6,2.7-11.3,4c0.2,0.1,0.3,0.2,0.5,0.3c4.8,1.2,9.5,2.4,14.3,3.6c1.3,0.3,2.7,0.7,4.1,0.3c0.3-0.3,0.7-0.4,1.1-0.5
				c4.8-1.7,9.6-3.1,14.3-5c4.2-1.7,8.5-3,12.7-4.6c5.8-2.2,11.8-4.2,17.7-6.4c5.2-2,10.5-3.7,15.7-5.8c4.2-1.7,8.6-3.1,12.9-4.6
				c1.2-0.4,2.4-0.9,3.6-1.2c0.9-0.2,1.6,0.1,1.9,1.1c0.3,0.9,0.3,1.5-0.6,2.1c-1.3,0.8-2.9,1-4.3,1.5c-6.6,2.5-13.2,5.1-19.9,7.4
				c-7.6,2.6-15.1,5.5-22.6,8.1c-5.1,1.8-10.3,3.7-15.4,5.5c-3.7,1.3-7.4,2.7-11,4.1c0.3,0.6,0.9,0.8,1.4,0.9c1.4,0.4,2.9,0.7,4.3,1
				c5.9,1.2,11.6,2.9,17.5,4.2c1.1,0.2,1.3,0.9,1,1.8c-1.5,5.5-2.5,11.2-3.6,16.8c-1.7,8.2-3.8,16.2-5.2,24.5
				c-0.2,1.1-0.5,2.1-1.1,3c0.4,0.3,0.9,0.2,1.3,0c3.7-1.6,7.5-2.7,11.3-4.1C1494.1,890.5,1495.9,889.8,1497.7,889.2z"/>
			<path id="XMLID_1797_" fill="#F3C94A" d="M1479.8,895.3c0.7-0.9,0.9-1.9,1.1-3c1.4-8.2,3.5-16.3,5.2-24.5
				c1.2-5.6,2.1-11.3,3.6-16.8c0.2-0.9,0-1.5-1-1.8c-5.9-1.3-11.6-3-17.5-4.2c-1.5-0.3-2.9-0.7-4.3-1c-0.6-0.1-1.2-0.3-1.4-0.9
				c-1.1-0.5-2.3-0.7-3.5-0.9c-0.8-0.1-1.7-0.2-2.4-0.8c-1.4,0.4-2.8,0-4.1-0.3c-4.8-1.2-9.6-2.4-14.3-3.6c-0.2,0-0.3-0.2-0.5-0.3
				c-1.5-0.3-3.1-0.6-4.6-0.8c-0.5-0.1-1-0.2-1.2-0.7c-2.5,0.3-4.9-0.8-7.3-1.2c-3.9-0.8-7.7-1.9-11.5-2.7c-2.6-0.6-5.2-1.2-7.7-1.9
				c-1-0.3-2.1-0.7-3.2-0.3c0.3,1.2,1.3,1.7,2.1,2.4c5.6,4.9,11.1,9.9,16.7,14.7c2.4,2.1,4.7,4.5,7.3,6.3c3.3,2.3,5.9,5.4,9,8
				c7.3,6.3,14.5,12.7,21.7,19.1c5.1,4.5,10.2,8.9,15.2,13.4C1478,894.3,1478.7,895.1,1479.8,895.3z"/>
			<path id="XMLID_1626_" fill="#8493ED" d="M1434.9,835.8c0.2,0.5,0.7,0.6,1.2,0.7c1.5,0.3,3.1,0.6,4.6,0.8c3.8-1.3,7.6-2.7,11.3-4
				c6.5-2.3,12.9-4.7,19.4-7.1c6.5-2.4,13.1-4.7,19.6-7.1c8.6-3.1,17.1-6.2,25.7-9.3c5.1-1.8,10.1-3.7,15.2-5.6
				c0.4-0.1,0.8-0.2,1.2-0.3c-1-1-2-2.1-3-3.1c-0.6,0.8-1.7,0.9-2.5,1.2c-10.9,4-21.7,8-32.6,12c-8.6,3.1-17.2,6.2-25.8,9.3
				c-6.5,2.3-13,4.6-19.4,7C1444.7,832,1439.8,833.9,1434.9,835.8z"/>
			<path id="XMLID_1625_" fill="#8493ED" d="M1520.9,789.1c-0.1,0.7-0.7,1-1.3,1.2c-4.8,1.8-9.6,3.5-14.5,5.3
				c-9.6,3.5-19.2,6.9-28.7,10.4c-8.3,3-16.6,6.1-24.9,9.1c-7.1,2.6-14.2,5.2-21.4,7.7c-0.6,0.2-1.2,0.4-1.5,1
				c-0.3,0.6-0.4,1.3,0.1,1.9c0.6,0.7,1.3,0.8,2.1,0.5c5.3-1.9,10.7-3.8,16-5.8c6.8-2.5,13.7-4.9,20.5-7.4
				c7.2-2.6,14.5-5.3,21.7-7.9c8.2-3,16.4-5.9,24.7-8.9c2.7-1,5.4-1.9,8-2.9c0.8-0.3,1.4-0.3,2,0.1
				C1522.6,792.1,1521.6,790.7,1520.9,789.1z"/>
			<path id="XMLID_1624_" fill="#8493ED" d="M1518.7,781.6c-0.3,0.8-0.1,1.5,0.2,2.3C1519,783.1,1518.9,782.4,1518.7,781.6z"/>
			<path id="XMLID_1623_" fill="#8493ED" d="M1527.5,798c0,0.4,0.1,0.6,0.5,0.6C1528,798.3,1527.9,798.1,1527.5,798z"/>
			<path id="XMLID_1622_" fill="#8493ED" d="M1523.9,793.7c0,0.4,0.1,0.6,0.5,0.6C1524.4,794,1524.2,793.8,1523.9,793.7z"/>
			<path id="XMLID_1621_" fill="#8493ED" d="M1532.6,779.1c0-0.2-0.1-0.3-0.3-0.3C1532.2,779,1532.3,779.1,1532.6,779.1z"/>
			<path id="XMLID_1620_" fill="#8493ED" d="M1531.6,778.1c0-0.2-0.1-0.3-0.3-0.3C1531.3,778,1531.4,778.1,1531.6,778.1z"/>
			<path id="XMLID_1619_" fill="#8493ED" d="M1530.2,776.7c0-0.2-0.1-0.3-0.3-0.3C1529.9,776.7,1530,776.7,1530.2,776.7z"/>
			<path id="XMLID_1618_" fill="#8493ED" d="M1529.5,776.1c0.1-0.2-0.1-0.3-0.3-0.3C1529.2,776,1529.3,776.1,1529.5,776.1z"/>
			<path id="XMLID_1617_" fill="#8493ED" d="M1528.6,775.1c0.1-0.3,0-0.4-0.3-0.3C1528.2,775,1528.3,775.1,1528.6,775.1z"/>
			<path id="XMLID_1616_" fill="#8493ED" d="M1527.6,774.1c0.1-0.2,0-0.3-0.3-0.3C1527.3,774,1527.4,774.1,1527.6,774.1z"/>
			<path id="XMLID_1615_" fill="#8493ED" d="M1525.3,773.1c-0.2-0.1-0.3,0-0.4,0.2C1525.2,773.4,1525.3,773.4,1525.3,773.1z"/>
			<path id="XMLID_1614_" fill="#8493ED" d="M1526.2,772.8c-0.2-0.2-0.3-0.1-0.3,0.1C1526,773.1,1526.1,773,1526.2,772.8z"/>
			<path id="XMLID_1613_" fill="#8493ED" d="M1529.6,800.3c-0.1,0.2,0.1,0.3,0.3,0.3C1529.9,800.4,1529.8,800.3,1529.6,800.3z"/>
			<path id="XMLID_1612_" fill="#8493ED" d="M1519.8,777.3c-0.2,0.1-0.3,0.2-0.2,0.4C1519.8,777.7,1519.9,777.5,1519.8,777.3z"/>
			<path id="XMLID_1611_" fill="#8493ED" d="M1526.6,797c-0.1,0.2,0,0.4,0.3,0.3C1526.9,797.1,1526.8,797,1526.6,797z"/>
			<path id="XMLID_1610_" fill="#8493ED" d="M1525,795.1c-0.1,0.2,0,0.4,0.3,0.4C1525.3,795.2,1525.2,795.1,1525,795.1z"/>
			<path id="XMLID_1609_" fill="#8493ED" d="M1520.4,788.2c-0.1,0.2,0,0.3,0.2,0.4C1520.8,788.4,1520.7,788.2,1520.4,788.2z"/>
			<path id="XMLID_1608_" fill="#8493ED" d="M1519.9,787c-0.1,0.2-0.1,0.4,0.2,0.4C1520.2,787.2,1520.1,787,1519.9,787z"/>
			<path id="XMLID_1607_" fill="#8493ED" d="M1534,780.4c0-0.2-0.1-0.3-0.3-0.3C1533.6,780.3,1533.7,780.4,1534,780.4z"/>
			<path id="XMLID_1606_" fill="#8493ED" d="M1536.1,782.4c0-0.2-0.1-0.3-0.3-0.3C1535.8,782.3,1535.9,782.4,1536.1,782.4z"/>
			<path id="XMLID_1590_" fill="#8493ED" d="M1504.3,720.1c-0.3-0.1-0.7,0.1-1.2,0.3c-5.5,2-11.1,4.1-16.6,6.1
				c-6.6,2.4-13.3,4.7-19.9,7.1c-6.9,2.5-13.9,5.1-20.8,7.6c-4.3,1.6-8.6,3-12.9,4.6c-3.4,1.2-6.8,2.6-10.2,3.9
				c-3.6,1.3-7.3,2.5-11,3.8c-2,0.7-4,1.4-6,2.2c-1.3,0.5-1.9,1.6-1.5,2.6c0.4,0.9,1.5,1.2,2.8,0.7c5.7-2.1,11.3-4.3,17-6.2
				c5.6-1.8,10.9-4.1,16.5-6c8.8-3.1,17.5-6.4,26.3-9.6c5.8-2.1,11.5-4,17.3-6.1c6.8-2.5,13.6-5,20.4-7.4c1-0.4,1.2-1.1,1.2-2
				C1505.7,720.8,1505.2,720.4,1504.3,720.1z"/>
			<path id="XMLID_1589_" fill="#8493ED" d="M1394.8,731.2c-0.3,1.4,0.9,2.4,2.5,1.9c2.2-0.7,4.3-1.5,6.5-2.3
				c6.2-2.2,12.4-4.4,18.6-6.7c8.3-3,16.7-6.1,25-9.1c4.6-1.7,9.2-3.3,13.7-5c8.3-3,16.5-6,24.8-8.9c2.9-1.1,5.8-2.1,8.7-3.2
				c1.9-0.7,2.3-2,1.2-3.1c-0.6-0.7-1.4-0.6-2.1-0.3c-3,1.1-6.1,2.3-9.1,3.4c-6.4,2.3-12.8,4.5-19.2,6.9c-5.2,1.9-10.3,3.8-15.5,5.7
				c-3.7,1.4-7.5,2.7-11.2,4c-5.7,2.1-11.3,4.1-17,6.2c-6.9,2.5-13.9,5.1-20.8,7.6c-1.6,0.6-3.2,1.1-4.9,1.6
				C1395.4,730,1395,730.5,1394.8,731.2z"/>
			<path id="XMLID_1588_" fill="#8493ED" d="M1399.5,744.1c-0.3,1.5,1,2.5,2.7,1.9c2.7-0.9,5.4-1.9,8-2.9c6.4-2.3,12.8-4.6,19.2-6.9
				c6.6-2.4,13.2-4.8,19.8-7.2c6.2-2.2,12.5-4.5,18.7-6.7c8.9-3.2,17.8-6.4,26.7-9.6c1.6-0.6,3.2-1.2,4.8-1.8c1.4-0.5,2-1.4,1.7-2.4
				c-0.4-1.2-1.5-1.6-3.1-1c-4.4,1.6-8.8,3.2-13.2,4.8c-9.9,3.6-19.9,7.1-29.8,10.7c-9.2,3.3-18.3,6.7-27.4,10
				c-6.5,2.4-13.1,4.6-19.6,7c-2.5,0.9-4.9,1.8-7.3,2.8C1400.1,743.1,1399.5,743.4,1399.5,744.1z"/>
			<path id="XMLID_1587_" fill="#8493ED" d="M1498.6,742.3c0.2-1.2-1.2-2.2-2.8-1.6c-3.5,1.2-7,2.5-10.4,3.7
				c-5.9,2.1-11.8,4.1-17.6,6.2c-5.4,1.9-10.9,3.8-16.3,5.8c-5.3,2-10.8,3.7-16.3,5.5c-0.5,0.2-1,0.3-1.4,0.6
				c-0.8,0.5-1.1,1.3-0.6,2.2c0.5,0.9,1.1,1.2,2.1,0.9c7.8-2.7,15.6-5.4,23.3-8.2c4.5-1.6,9-3.1,13.4-4.6c3.7-1.3,7.4-2.7,11.1-3.9
				c3.2-1.1,6.5-2.2,9.7-3.3c1.4-0.5,2.9-1,4.3-1.6C1497.8,743.6,1498.4,743.3,1498.6,742.3z"/>
			<path id="XMLID_1586_" fill="#8493ED" d="M1438.7,778.5c0.9,0.2,1.4,0,1.9-0.2c5.1-1.8,10.3-3.6,15.4-5.4
				c6.8-2.4,13.6-4.6,20.4-7.1c5.5-2,11.1-3.7,16.5-5.9c2.7-1.1,5.5-1.9,8.3-2.8c1.5-0.5,2.1-1.5,1.7-2.6c-0.4-0.9-1.5-1.3-2.8-0.8
				c-7.4,2.6-14.8,5.2-22.2,7.8c-10.7,3.8-21.4,7.5-32.1,11.3c-2.3,0.8-4.7,1.6-7,2.4c-0.9,0.3-1.2,1-1.2,1.9
				C1437.8,778,1438.3,778.4,1438.7,778.5z"/>
			<path id="XMLID_1585_" fill="#8493ED" d="M1443.7,791.7c0.8,0.1,1.6-0.2,2.3-0.4c6-2.3,12.1-4.3,18.1-6.4
				c10.8-3.7,21.5-7.6,32.2-11.4c3.2-1.1,6.4-2.3,9.6-3.4c1.5-0.5,2-1.4,1.7-2.4c-0.4-1-1.4-1.4-2.9-0.9c-5.1,1.8-10.2,3.6-15.3,5.4
				c-4.8,1.7-9.6,3.3-14.4,5c-5.3,1.8-10.5,3.7-15.8,5.6c-4.9,1.7-9.9,3.5-14.8,5.2c-0.4,0.1-0.9,0.3-1.2,0.5
				c-0.7,0.4-1,1.1-0.9,1.8C1442.3,791.1,1443,791.5,1443.7,791.7z"/>
			<path id="XMLID_1584_" fill="#8493ED" d="M1422.5,766.7c-0.3,1.7,0.8,3.6,2.3,3.9c2.2,0.4,3.8-0.8,4.2-2.8c0.4-2-0.6-3.4-2.7-3.7
				C1424.3,763.7,1422.8,764.7,1422.5,766.7z"/>
			<path id="XMLID_1583_" fill="#8493ED" d="M1433.3,780.6c0.3-1.9-0.8-3.4-2.7-3.8c-1.7-0.3-3.4,0.9-3.7,2.8
				c-0.3,1.9,0.8,3.4,2.7,3.7C1431.5,783.6,1433,782.5,1433.3,780.6z"/>
			<path id="XMLID_1582_" fill="#8493ED" d="M1434.2,796c1.9,0.3,3.4-0.7,3.7-2.5c0.3-2-0.8-3.6-2.8-3.9c-1.8-0.3-3.3,0.9-3.6,2.8
				C1431.1,794.2,1432.2,795.7,1434.2,796z"/>
			<path id="XMLID_1581_" fill="#8493ED" d="M1459.6,841.5c0.7,0.6,1.6,0.6,2.4,0.8c1.2,0.2,2.4,0.4,3.5,0.9c3.7-1.4,7.3-2.7,11-4.1
				c5.1-1.9,10.3-3.7,15.4-5.5c7.6-2.7,15-5.5,22.6-8.1c6.7-2.3,13.3-4.9,19.9-7.4c1.4-0.5,3-0.8,4.3-1.5c0.9-0.5,0.9-1.2,0.6-2.1
				c-0.3-0.9-1-1.3-1.9-1.1c-1.2,0.3-2.4,0.8-3.6,1.2c-4.3,1.5-8.6,2.9-12.9,4.6c-5.2,2.1-10.5,3.8-15.7,5.8
				c-5.9,2.2-11.8,4.1-17.7,6.4c-4.2,1.6-8.5,2.9-12.7,4.6c-4.7,1.9-9.5,3.4-14.3,5C1460.3,841.1,1459.9,841.2,1459.6,841.5z"/>
		</g>
		<path id="XMLID_64_" fill="#679188" d="M1969.7,956.9c57.3,38.7,24.8,93.1,1.2,112.6c-6.7-1.9-13.1-4.6-19.6-6.9
			c-19.1-6.9-319.2-123.7-338.3-130.6c-2.1-0.8-3.1-1.8-2.9-4c0.1-1.5,0-2.9-0.1-4.4c-0.3-14,2.6-27.3,7.8-40.2
			c2.4-5.8,5.3-11.3,8.4-16.8c2-3.3,2.1-3.4,5.9-2.2c21.8,6.7,43.9,12.6,65.8,18.8c20.8,5.8,248.7,66.6,269.5,72.4
			c0.7,0.2,1.4,0.3,1.9,0.7C1969.6,956.5,1969.7,956.7,1969.7,956.9z"/>
	</g>
	<g id="XMLID_31_">
		<g id="XMLID_429_">
			<path id="XMLID_431_" fill="#C5D5EF" d="M971.5,760.1c-0.2-1-0.5-2.1-0.7-3.1c-4.7-23.8-9.4-47.5-14.2-71.3
				c-0.3-1.4-0.2-3-1.7-3.8c-0.4,0.1-0.7,0.3-0.9,0.4l-0.3-1.3l-1.5,0.3c0,0,0,0,0,0c-3.1,0.5-6.2,0.5-9.2,1.7l0.1,0.1l0,0
				c0,0-0.1-0.1-0.1-0.1c-0.9,0.2-1.9,0.3-2.8,0.5c-26.5,5.3-52.9,10.5-79.4,15.8c-5.4,1.1-5.9,1.8-4.8,7.2
				c4.9,24.5,9.7,48.9,14.6,73.4c0.2,1,8.2,41.3,8.1,41.6c1.3,6.6,2.7,13.3,4,19.9l0,0l7.6,38.1l0.1,0c0.5,2.6,1.2,5.2,2,7.8
				c0.8,2.8,2.8,2.4,4.9,2c30.5-6.1,61-12.1,91.5-18.2c3.7-0.7,4.4-1.9,3.7-5.7c-1.7-8.5-3.4-17-5-25.5L971.5,760.1z"/>
			<path id="XMLID_458_" fill="#1F3252" d="M894.4,738.1c3.4,0.1,5.5,3.5,4.1,6.3c-0.4,0.9-0.5,1.3,0.3,2.1c1.5,1.3,1.8,3.2,1.3,5.1
				c-0.5,1.8-1.9,2.6-3.7,2.9c-3.9,0.8-3.9,0.8-4.6-3c-0.7-3.8-1.2-7.5-1.9-11.3c-0.2-1.1,0.1-1.5,1.2-1.7
				C892.4,738.4,893.5,738.2,894.4,738.1z M895.3,746.9c-0.2,0-0.7-0.1-1,0.1c-1.4,1.3-0.1,2.7-0.1,4.1c0,0.6-0.1,1.5,1,1.5
				c1.4,0,2.6-1,2.7-2.5C898.1,748.4,897,747,895.3,746.9z M894.3,740.1c-1.2,0-2.2,0.1-1.7,1.8c0.2,0.8,0.2,1.6,0.4,2.5
				c0.1,0.5,0.2,0.9,0.8,1c1.3,0.2,2.6-0.9,2.7-2.2C896.7,741.4,895.7,740.1,894.3,740.1z"/>
			<path id="XMLID_457_" fill="#1F3252" d="M875,750.7c-1.6,1.9-0.4,3.8-0.4,5.6c0,0.8,0.7,1.7-0.7,2c-1.3,0.3-1.4-0.5-1.6-1.5
				c-0.7-4.4-1.5-8.8-2.2-13.3c-0.1-0.7-0.4-1.4,0.8-1.6c0.9-0.1,1.3,0,1.5,1c0.3,1.7,0.3,3.4,1.1,5.3c1.1-1.8,1.4-3.5,2-5.2
				c0.2-0.5,0.3-1.1,0.6-1.5c0.5-0.7,1.4-0.9,2.1-0.7c0.9,0.3,0.1,1,0,1.5c-0.2,0.8-0.3,1.5-0.7,2.2c-1.5,2.6-1,4.9,0.9,7.1
				c0.9,1.1,1.7,2.3,2.4,3.6c0.3,0.5,1.3,1.1,0.3,1.7c-0.7,0.4-1.7,0.5-2.3-0.6c-0.9-1.6-2-3.1-3-4.7
				C875.6,751.4,875.4,751.1,875,750.7z"/>
			<path id="XMLID_456_" fill="#1F3252" d="M909.5,739.1c0.1-2.6,1.5-4.1,3.9-4.4c2-0.3,3.8,0.8,4.4,2.6c0.2,0.7,0.5,1.4-0.5,1.8
				c-0.9,0.3-1.4,0.2-1.7-0.9c-0.3-1.1-1.1-1.7-2.3-1.4c-1.1,0.3-1.6,1.1-1.4,2.2c0.4,2.8,0.9,5.6,1.4,8.5c0.2,1.2,0.8,2.1,2.1,1.9
				c1.3-0.2,1.9-1,1.7-2.3c-0.1-0.9,0.4-1.1,1.2-1.1c0.9-0.1,1.1,0.4,1.2,1.1c0.1,1.8-1.1,3.6-2.8,4.1c-2.2,0.7-4.1,0-5.1-1.8
				c-0.6-1.1-0.7-2.3-0.9-3.4C910.3,743.6,909.9,741.2,909.5,739.1z"/>
			<path id="XMLID_453_" fill="#1F3252" d="M941.8,734.6c1.8,0.1,3,1.1,3.4,3.1c0.8,4,1,3.4-2.7,3.8c-2.1,0.3-2.7,1-1.8,2.4
				c0.7,1.1,2,1.2,2.8,0.1c0.1-0.1,0.1-0.3,0.2-0.5c0.4-0.7,1.3-1,1.8-0.7c0.9,0.4,0.4,1.3,0.2,1.9c-0.6,1.5-2.5,2.4-4.4,2.1
				c-1.7-0.2-2.9-1.2-3.2-2.9c-0.3-1.5-0.5-2.9-0.8-4.4C936.9,736.5,938.6,734.5,941.8,734.6z M941.1,739.8c0.5-0.3,2,0.4,1.9-1.2
				c0-1-0.4-1.9-1.7-1.9c-1.2,0-1.6,0.8-1.7,1.9C939.7,739.3,939.8,740,941.1,739.8z"/>
			<path id="XMLID_450_" fill="#1F3252" d="M928.8,745.5c-0.1,2.7-1.5,4.1-3.8,4.3c-2.1,0.2-3.8-0.9-4.2-3c-0.3-1.6-0.6-3.3-0.8-4.9
				c-0.3-2.4,0.9-3.9,3.4-4.4c2.2-0.4,4,0.8,4.4,3.1C928.2,742.4,928.5,744.2,928.8,745.5z M926.5,746c-0.3-1.7-0.6-3.5-1-5.2
				c-0.2-0.8-0.9-1.3-1.8-1.1c-0.9,0.1-1.4,0.7-1.3,1.6c0,1.9,0.4,3.7,0.9,5.4c0.3,0.9,1,1.2,1.8,1
				C926.1,747.5,926.3,746.8,926.5,746z"/>
			<path id="XMLID_447_" fill="#1F3252" d="M905.2,740.7c1.6,0,2.7,0.8,3.2,2.3c0.7,2,0.9,4.2,1.2,6.3c0.2,1.7-1.3,3.2-3.1,3.6
				c-2.3,0.4-4-0.3-4.6-2.3c-0.6-2.1-1.1-4.3-1-6.5C900.8,742,902.6,740.7,905.2,740.7z M907.2,749.1c-0.3-1.6-0.6-3.3-0.9-4.9
				c-0.2-1.1-1-1.4-2-1.3c-1,0.2-1.4,0.9-1.3,1.8c0.2,1.7,0.5,3.3,0.9,4.9c0.2,1,0.9,1.4,1.9,1.3
				C906.8,750.8,907.2,750.1,907.2,749.1z"/>
			<path id="XMLID_444_" fill="#1F3252" d="M890,752.5c0,2.1-1.2,3.3-3.5,3.7c-2.1,0.3-3.9-0.6-4.3-2.6c-0.5-1.8-0.8-3.7-1-5.6
				c-0.2-2.1,1.1-3.7,3.3-4c2.5-0.4,4.1,0.5,4.6,2.8C889.5,748.8,889.9,750.7,890,752.5z M887.7,752.3c-0.3-1.5-0.6-3.1-0.8-4.7
				c-0.1-1.1-0.7-1.6-1.8-1.6c-1.1,0-1.6,0.8-1.5,1.8c0,1.7,0.5,3.4,0.9,5.1c0.2,0.9,0.9,1.5,1.9,1.3
				C887.3,754,887.7,753.3,887.7,752.3z"/>
			<path id="XMLID_443_" fill="#1F3252" d="M946.5,737.4c0-2.6,1-3.7,3.2-4.3c1.6-0.4,3.5,0.2,4.2,1.6c0.3,0.5,0.8,1.3,0.1,1.7
				c-0.6,0.4-1.4,0.6-2-0.3c-0.5-0.8-1.2-1.3-2.2-0.8c-1,0.5-1.1,1.3-0.9,2.3c0.2,1.3,0.5,2.6,0.7,3.9c0.2,1,0.5,1.8,1.6,1.9
				c1.1,0.1,1.7-0.5,1.8-1.5c0.2-1.1,1-1.1,1.8-1c0.8,0.1,0.6,0.9,0.6,1.5c-0.1,1.6-1.7,2.9-3.6,3.1c-2,0.2-3.7-0.7-4.1-2.4
				C947.1,741,946.8,738.9,946.5,737.4z"/>
			<g id="XMLID_57_">
				<path id="XMLID_33_" fill="#F3C94A" d="M958,782l-62.7,11.8c-2.3,0.4-4.4-1.1-4.9-3.3l-1.4-7.3c-0.4-2.3,1.1-4.4,3.3-4.9
					l62.7-11.8c2.3-0.4,4.4,1.1,4.9,3.3l1.4,7.3C961.7,779.4,960.2,781.6,958,782z"/>
				<path id="XMLID_79_" fill="#22B573" d="M964.3,810.1l-62.7,11.8c-2.3,0.4-4.4-1.1-4.9-3.3l-1.4-7.3c-0.4-2.3,1.1-4.4,3.3-4.9
					l62.7-11.8c2.3-0.4,4.4,1.1,4.9,3.3l1.4,7.3C968,807.5,966.6,809.6,964.3,810.1z"/>
				<path id="XMLID_100_" fill="#F3C94A" d="M970.8,838.5l-62.7,11.8c-2.3,0.4-4.4-1.1-4.9-3.3l-1.4-7.3c-0.4-2.3,1.1-4.4,3.3-4.9
					l62.7-11.8c2.3-0.4,4.4,1.1,4.9,3.3l1.4,7.3C974.5,835.9,973,838,970.8,838.5z"/>
			</g>
			<path id="XMLID_442_" fill="#1F3252" d="M959.8,743.7c-1.7,0.1-2.3-0.8-2.5-2c-0.4-2.1-0.8-4.2-1.2-6.3c0-0.1,0-0.2,0-0.4
				c0.3-1.3-2.1-0.6-1.5-1.9c0.4-0.8,1.2-1.4,0.7-2.5c-0.3-0.7-0.1-1.2,0.8-1.4c1-0.2,1.4,0.2,1.5,1c0.1,1,0.2,1.9,1.7,1.5
				c0.4-0.1,0.6,0.3,0.7,0.7c0.1,0.5-0.1,0.9-0.6,1c-1.6,0.2-1.1,1.2-0.9,2.1c0.2,1.2,0.4,2.5,0.7,3.7c0.2,1.1,0.1,2.3,1.8,2.5
				c0.6,0,0.7,0.8,0.6,1.3C961.3,744.2,960.2,743.4,959.8,743.7z"/>
			<path id="XMLID_441_" fill="#1F3252" d="M937,746.9c0.2,0.8-0.6,0.8-1.2,1c-0.7,0.2-1-0.1-1.1-0.7c-0.8-4.8-1.7-9.6-2.5-14.4
				c-0.2-0.9,0.5-1.1,1.1-1.3c0.7-0.2,1,0.1,1.1,0.8C935.4,737,936.2,741.8,937,746.9z"/>
			<path id="XMLID_439_" fill="#1F3252" d="M932.9,746.8c0.1,1.2,0,1.7-0.9,1.7c-0.7,0-1.2-0.1-1.3-0.9c-0.8-4.7-1.5-9.4-2.3-14.1
				c-0.1-0.8,0-1.4,1-1.4c0.9-0.1,1.1,0.3,1.2,1.1c0.7,4.2,1.4,8.3,2.1,12.5C932.9,746.3,932.9,746.8,932.9,746.8z"/>
			<path id="XMLID_435_" fill="#404040" d="M999.9,881.7c-2.5-12.7-19.1-95.1-25-124.2c0.1-0.2,0.1-0.3,0.2-0.5
				c-1.5-7.5-3-15.1-4.5-22.6c0.2-0.9,0.4-1.9,0.2-2.8c-0.8-4.2-1.6-8.4-2.5-12.6c-0.2-0.9-0.6-1.6-1.2-2.2
				c-2.1-10.7-4.5-21.3-6.3-32c-1-6-5.4-10.1-12.6-8.6c-29.2,6.1-58.5,11.9-87.9,17.5c-6.8,1.3-9.8,6.4-8.5,12.8
				c3.5,16.7,6.7,33.4,10,50.2c2.3,11.3,4.6,22.7,6.8,34c0,0,0-0.1,0.1-0.1c6.3,31.7,18,91.8,22,111.9c1.4,7.2,5.7,10,13,8.6
				c21.3-4.2,42.7-8.5,64-12.7c8.1-1.6,16.2-3.3,24.3-4.9C998.2,892.1,1001.1,887.8,999.9,881.7z M985.9,870.7
				c-28.7,5.7-57.4,11.4-86.2,17.1c-1,0.2-2.1,0.4-3.1,0.6c-1.5,0.2-2.7-0.2-3.4-1.5c-0.9-1.2-1.1-2.7-1.3-4.1
				c-3.7-19-18.2-92.8-22-111.8c-0.2-1.1-0.2-2.2-0.8-3.2c-3.9-19.6-7.8-39.2-11.7-58.8c-0.3-1.5-0.6-3-0.7-4.6
				c-0.1-1.9,0.8-3.1,2.7-3.5c1.1-0.2,2.3-0.5,3.4-0.7c25-5,50-10,75-14.9c1.7-0.3,3.4-0.6,5-1.2c2.8-1.7,6.1-1.2,9.2-1.7
				c1.2-0.3,2.1,0,3,0.9c0.7,1.7,1,3.5,1.4,5.3c4.2,20.9,8.3,41.9,12.5,62.8c-0.2,1.3,0.2,2.5,0.4,3.7c1.2,6.1,20.6,102,21.8,108.1
				C992.3,869.1,992.1,869.4,985.9,870.7z"/>
			<path id="XMLID_425_" fill="#494B50" d="M952.6,890.2c0.7,4.1-1.9,7.9-6.1,8.7c-3.9,0.7-8.1-2.3-8.7-6.1
				c-0.6-3.5,2.7-8.1,6.1-8.7C948,883.4,951.9,886.1,952.6,890.2z"/>
			<g id="XMLID_28_" opacity="0.4">
				<path id="XMLID_423_" fill="#EFF1F4" d="M952.3,681.4c-0.2,0.8-0.2,1.7-0.5,2.5c-4.9,14.5-9.8,29-14.8,43.5
					c-1.8,5.1-3.1,10.5-5.5,15.3c-1,0.5-0.5,0.9-0.1,1.2c-1.6,1-1.4,2.8-2.2,4.2c-0.7,1.2-0.9,2.4-0.8,3.7c0,0.3,0.1,0.5,0.2,0.8
					c0,0,0,0,0,0c-0.8,2.3-1.7,4.7-2.5,7c-1.4-0.3-2.2,0.5-2.6,1.6c-0.5,1.2,0.8,1.3,1.4,1.7c0.4-0.8,0.3-1.8,1.1-2.4
					c0.2,0.6,0.6,1.1,1.2,1.3c0.7-1.7,1.3-3.4,2-5.1c0.8-1.1,2.1-2.1,1.1-3.6c0.1-0.1,0.3-0.2,0.3-0.3c0.4-1.2,0.8-2.4,1.2-3.7
					c0.4-0.9,1.9-1.4,1.2-2.8c0.2-0.7,0.5-1.3,0.7-2c0-0.1-0.1-0.3-0.1-0.4l0,0l0,0c0.6-1.7,1.2-3.4,1.8-5.1
					c4.5-13.3,8.9-26.7,13.6-40c2-5.7,3.4-11.6,6.1-17C954.3,681,953.4,680.9,952.3,681.4z"/>
				<path id="XMLID_422_" fill="#EFF1F4" d="M903.3,815.5c0.3-0.8,0.5-1.6,0.3-2.5l0,0l0,0c0.2,0,0.3,0,0.5-0.1
					c1.4-1.3,2.1-2.9,1.7-4.9c-0.2-0.3-0.5-0.6-0.7-0.9c-0.4-0.4-1.1-0.7-0.8-1.4c0.2-0.8,1-0.8,1.7-0.7c0.4,0,0.8,0,1.1-0.2
					c1.9-3.1,3.3-6.4,3.1-10.1c-0.7-0.7-2,0.6-2.5-0.7c-0.1-0.3-0.1-0.6,0.1-0.8c1.1-0.9,1.6,0.5,2.5,0.7c0.1,0,0.2,0,0.3,0.1
					c1.7-1.3,1.9-3.2,2.2-5.1c0-0.3-0.1-0.5-0.2-0.8c-1.1-1.5,0-2.2,1.1-2.8c1.1-1.2,1.3-2.9,2.3-4.1c0.3-0.6,0.5-1.2,0.5-1.9
					c-0.2-1.2,1.1-2.1,0.5-3.4c-0.5-0.4-1.7-0.4-1.4-1.4c0.3-1.1,1.5-0.4,2.1-0.8c1.2-1.3,1.4-3.1,2.1-4.6c-0.8-1.4,0.6-1.8,1.2-2.6
					c0.1-0.9,0.1-1.8-0.4-2.6c-0.6-0.5-1.9-0.8-1.4-1.9c0.7-1.3,1.4,0.3,2.2,0.2c1.8-1.2,1.5-3.2,2.2-4.9c0-0.3,0-0.5-0.1-0.8
					c-0.3-0.9,0.1-1.6,0.7-2.2c0.2-0.2,0.3-0.4,0.5-0.6c0.8-1.3,0.9-2.9,1.6-4.3c0.4-1.5,1.3-2.9,1.2-4.5c-1.3-1.6-0.7-2.5,1-3
					c0.9-0.7,1-1.8,1.2-2.8c0-0.2-0.1-0.4-0.1-0.6l0,0l0,0c0-0.2-0.1-0.4,0-0.6c5.8-16.9,11.5-33.9,17.3-50.8
					c0.5-1.6,0.8-3.3,1.2-4.9c-1.7-0.4-3.2,0.4-4.7,0.7c-0.3,0.5-0.6,1-0.8,1.5c-5.2,15.2-10.4,30.5-15.4,45.8
					c-0.9,2.7-2.5,5.2-2.3,8.2c-0.2,0-0.4,0-0.5,0.1c-1.4,1.1-1.7,2.7-1.9,4.3c0,0.3,0.1,0.5,0.2,0.8c0.8,1.5-0.4,2.1-1.2,2.9
					c-1.3,1.8-1.6,3.9-1.9,6c0.1,1.3-0.9,1.9-1.7,2.8c1.7,1,1.4,2-0.1,2.9c-0.7,1.5-0.6,3.4-2.1,4.6c-0.6,0.7-0.8,1.6-0.7,2.5
					c0,0.6-0.1,1.2-0.1,1.8c0.3,0.8,1.4,1.3,1,2.2c-0.5,1.1-1.5-0.1-2.2,0.4c0,1.8-0.8,3.4-1.4,5c-0.2,1.1-0.9,2.1-1.1,3.2
					c-0.1,0.6-0.2,1.2-0.3,1.8c0.2,0.2,0.5,0.3,0.7,0.5c0.6,0.3,1.4,0.5,1.1,1.4c-0.4,0.9-1.1,0.4-1.7,0.2c-0.3-0.1-0.6-0.2-0.8-0.1
					c-1.2,1.4-0.4,3.9-2.6,4.8c0.3,1.1,1.9,2.5-0.6,3c0.1,2.1-0.7,3.9-1.8,5.6c-0.8,0.2-0.8,0.6-0.3,1.2c0.4,1.2-0.8,1.8-1.2,2.7
					c0.4,0.5,1.3,0.6,1.2,1.4c-0.1,1.1-1.3,0.5-1.9,1c-0.5,2-0.2,4.5-2.5,5.8c0.1,1.2-0.6,2.5,0.7,3.5c-0.9,0.2-1.2,0.8-1.5,1.6
					c-2.3,7-4.7,14-7.1,20.9c-2.2,6.3-4.4,12.6-6.6,18.9c0.6,3,1.2,6,1.9,9.5c0.5-1.2,0.9-1.9,1.2-2.7
					C893.6,844.5,898.4,830,903.3,815.5z"/>
				<path id="XMLID_421_" fill="#EFF1F4" d="M926.1,765.5L926.1,765.5c0.3-1,0.5-2,0.8-2.9c-1-0.5-1.4,0.4-2,0.9
					c-0.6,1.5-1.3,3-1.9,4.5c-0.2,1.7-0.8,3.2-1.9,4.5c-0.8,0.9-1.1,1.8-0.3,2.8c-1.3,0.9-1.3,2.5-1.9,3.7c-0.2,1.1-0.6,2.3-0.6,3.5
					c-1,2.9-2,5.8-3,8.8c-0.7,1-1.8,1.9-1.1,3.3c-2.2,6.7-4.4,13.3-6.6,20c0.1,0.2,0.1,0.4,0.2,0.6h0c-0.6,0.4-0.8,1-1,1.7
					c-4.9,14.4-10,28.8-14.7,43.3c-1.3,4.1-4,8-2.2,12.7c0.2-0.2,0.4-0.5,0.4-0.7c5.1-14.9,10.2-29.7,15.1-44.6
					c1.3-4,3.2-7.8,3.6-12l0,0c0,0,0,0,0,0c0.1-0.2,0.3-0.5,0.4-0.7c1.3-0.6,1.1-2,1.8-3c0.8-1.4,1.1-3,1.5-4.5
					c0.4-1.7,1.2-3.1,2-4.6c0.3-1,0.3-2.1,0.6-3.1c2.1-6.2,4.1-12.4,6.4-18.5c0.8-1.3,1.1-2.8,1.3-4.3c0-0.4-0.1-0.8-0.3-1.1
					c0.9-0.8,1.4-1.9,1.4-3.1c0.1-1.5,0.3-3,1.6-4.1c1.2,0.1,2.1-0.6,2.3-1.6C927.9,766.1,926.7,765.9,926.1,765.5z"/>
			</g>
		</g>
		<path id="XMLID_1822_" fill="#8E5B49" d="M954.1,936.2c-2,9.7-3.5,19-6.6,28.4c-5,15.1-15.9,21.7-17.7,22.5
			c-0.7,0.3-1.1,0.8-0.9,1.7c0.3,1,3.1,26.4,2.3,26.5c-2.6,0.2-68.1,9.1-68,6.9c2.3-57.9-24.9-104.9-15.9-111.7
			c-0.5-3.4,5.2-8.8,7.8-9.8c2-0.7,4-1.6,6.2-1.5c2,0.1,2.5-0.4,2.5-2.6c0-0.4-0.1-0.7-0.1-1.1c-0.3-1.6,0-3,1-4.2
			c2.5-3.1,6.2-4.7,10-5.1c3.1-0.3,5.2,2.1,6.1-2.6c0.4-2,1-3.9,3.1-4.6c2.5-0.9,5-1.7,7.6-2c2.8-0.4,5.2,0.4,7.5,1.9
			c1.1,0.7,2.8,2.2,3.6,3.3c0.3,0.9,0.5,1.7,0.8,2.7c1.2-2.1,0.7-8.1,0.8-10.7c0.4-6.1,0.5-12.3,1-18.4c1-11.3,1.8-22.8,4.2-33.9
			c0.8-3.6,1.8-7.1,4.5-9.7c0.7-0.7,3.7-2.2,3-1.5c1.2,0.4,2.3,0.5,3.2,1c0.7,1,1.2,0.9,2,1.5c0.2,1.3,1.3,6.2,1.9,7
			c0.1,3.4,3.3,62.9,5.3,86.1c0,0.5-0.2,1.2,0.5,1.2c0.6,0.1,0.9-0.5,1.1-1c0.9-2.1,9-17.6,10.6-19.4c2.4-2.8,5-5.2,8-7.1
			c4.9-3,9.9-3.2,14.8-0.1c2.3,1.4,2.3,1.4,0.3,3.4c-1.2,1.2-2.6,2.3-3.1,4.1c0.2-0.1,0.1,0-0.4,0.3c-1.1,0.6-3,4-3.2,5.2
			c-0.9,2.9-1.5,5.7-2.2,8.6L954.1,936.2z M874.4,1005.1"/>
		<g id="XMLID_438_">
			<path id="XMLID_437_" fill="#8E5B49" d="M870.7,780.3c-1.5-0.5-2.9-1-4.4-1.5c-4.8,0.4-8.5,2.3-9.4,7.6c-0.8,4.4,1,7.9,5.2,9.8
				c2.8,1.3,5.6,2.5,8.5,3.7c1.3,1.4,3,2,4.6,2.8c4.8,1.8,10.1,0.2,12.8-3.8c2.3-3.4,1.9-7.7-1.7-11
				C882,783.9,876.5,781.7,870.7,780.3z"/>
			<path id="XMLID_436_" fill="#8E5B49" d="M871.6,805c-4.1,0.3-7.4,1.8-8.9,6.1c-1.6,4.5-0.4,8.5,3.8,10.9c3.2,1.8,6.4,3.5,9.6,5.3
				c1.2,1.7,3.1,2.3,4.8,3.2c4.5,0.9,10-2.1,11.6-6.5c1.5-4-1-9.7-5.5-12.2c-3.5-1.9-7-3.7-10.4-5.6
				C874.9,805.5,873.4,804.4,871.6,805z"/>
			<path id="XMLID_427_" fill="#8E5B49" d="M882.8,860.8c1.4-0.1,2.7-0.2,4.1-0.3c5-0.5,7.8-5.3,6.2-10.5c-1.6-5.2-5.6-8.2-9.9-10.9
				c-1.6-0.8-3.1-2-5-1.1c-4.4-0.1-7.4,1.9-9,6.1c-1.4,3.8-0.6,7,2.8,9.7C875.3,856.5,878.6,859.4,882.8,860.8z"/>
			<path id="XMLID_426_" fill="#8E5B49" d="M861.7,756.2c-1.2-5.9-2.4-11.8-3.5-17.7c-5.3,2.3-5.4,6-3.3,11.1
				C856.1,752.6,858.6,754.9,861.7,756.2z"/>
			<path id="XMLID_424_" fill="#8E5B49" d="M927.5,906.9c21.8,12.8,44.5,22.4,70.4,21.9c1.4,0,2.5,0.2,3,1.6
				c3.1,8.5,6.3,17,9.5,25.5c5.7-5.6,11.5-11.1,18-15.8c11.5-8.3,15.2-13.3,28.6-17.6c2.8-0.9,5.7-1.9,8.5-2.8
				c-6.9-10.9-18.2-30.3-26.3-40.4c-1.5-1.9-1.9-3.6-1.6-6.1c1.3-9.4-7.5-32.1-11.1-40.8c-11.9-28.4-15.5-33.8-34.1-50.3
				c-5-4.2-10.6-7.8-14.5-13.2c-1.4-2.6-3.8-4.3-5.4-6.7c-1.4-1.8-2.7-3.5-4.1-5.3c-1.1-1.4-2.4-1.7-4.1-1.1
				c-6.4,2.3-8.9,6.6-7.2,13.1c2.3,8.3,6.5,15.4,12.2,21.8c3.3,3.7,6.7,7.2,10.2,10.7c0.3,0.4,0.7,0.7,1.2,1c3.1,2.6,4.5,6,5.3,10
				c4.2,21.8,8.7,43.6,13,65.4c0.1,0.3,0.1,0.6,0.2,0.9c1.9,9.7-0.2,12.9-9.8,14.8c-19.1,3.8-38.3,7.7-57.4,11.5
				C930.4,905.3,928.6,905.3,927.5,906.9z"/>
		</g>
		<path id="XMLID_67_" fill="#DDD99E" d="M1155.3,1217.4c47.3,20.1,107-11.4,124.2-27.2c0.1-0.2-204.5-267.3-213.6-281.6
			c-2.7-4.2-2.7-4.2-7.5-3c-0.6,0.2-1.2,0.3-1.8,0.5c-5,2-10,3.7-14.9,6c-14.3,6.7-26.7,15.9-37,28c-2.3,2.2-2.3,4.5-0.9,7.3
			C1010.8,962.1,1147.6,1203,1155.3,1217.4z"/>
		<path id="XMLID_66_" fill="#DDD99E" d="M861.3,1433.7c27.2,78,100.1,57,129.8,35.7c-0.2-8.3-1.3-16.5-2-24.7
			c-2.2-24.1-45.7-406.6-47.9-430.8c-0.2-2.6-1.2-4.1-3.8-4.6c-1.7-0.3-3.4-0.9-5.1-1.5c-16.1-4.6-32.4-5.3-48.9-3.2
			c-7.4,1-14.7,2.7-22,4.5c-4.5,1.3-4.6,1.4-4.4,6.2c1.1,27.3,1.3,54.5,1.7,81.8c0.4,25.8,1.2,307.7,1.6,333.5c0,0.8,0,1.7,0.3,2.5
			C860.8,1433.4,861,1433.6,861.3,1433.7z"/>
	</g>
	<g id="Paper">
	</g>
	<g id="XMLID_311_">
		
			<rect id="XMLID_384_" x="1744.8" y="482.6" transform="matrix(-0.8524 -0.5229 0.5229 -0.8524 3072.1213 2032.0068)" fill="#F3C94A" width="156.2" height="199.6"/>
		
			<rect id="XMLID_383_" x="1743.5" y="482.1" transform="matrix(-0.9013 -0.4331 0.4331 -0.9013 3209.6914 1903.1152)" fill="#F5F8FC" width="156.2" height="207.7"/>
		<g id="XMLID_357_">
			<path id="XMLID_397_" fill="#8493ED" d="M1896.5,557c0.6,0.5,0.8,1.3,0.5,2c-0.4,0.8-1.4,1.2-2.2,0.8l-100.5-48.3
				c-0.8-0.4-1.2-1.4-0.8-2.2c0.4-0.8,1.4-1.2,2.2-0.8l100.5,48.3C1896.3,556.9,1896.4,556.9,1896.5,557z"/>
		</g>
		<g id="XMLID_324_">
			<path id="XMLID_396_" fill="#8493ED" d="M1888.1,574.5c0.6,0.5,0.8,1.3,0.5,2c-0.4,0.8-1.4,1.2-2.2,0.8L1785.8,529
				c-0.8-0.4-1.2-1.4-0.8-2.2c0.4-0.8,1.4-1.2,2.2-0.8l100.5,48.3C1887.9,574.4,1888,574.5,1888.1,574.5z"/>
		</g>
		<g id="XMLID_321_">
			<path id="XMLID_394_" fill="#8493ED" d="M1879.6,592.1c0.6,0.5,0.8,1.3,0.5,2c-0.4,0.8-1.4,1.2-2.2,0.8l-100.5-48.3
				c-0.8-0.4-1.2-1.4-0.8-2.2c0.4-0.8,1.4-1.2,2.2-0.8l100.5,48.3C1879.4,592,1879.5,592,1879.6,592.1z"/>
		</g>
		<g id="XMLID_320_">
			<path id="XMLID_393_" fill="#8493ED" d="M1871.7,608.7c0.6,0.5,0.8,1.3,0.5,2c-0.4,0.8-1.4,1.2-2.2,0.8l-100.5-48.3
				c-0.8-0.4-1.2-1.4-0.8-2.2c0.4-0.8,1.4-1.2,2.2-0.8l100.5,48.3C1871.5,608.5,1871.6,608.6,1871.7,608.7z"/>
		</g>
		<g id="XMLID_318_">
			<path id="XMLID_391_" fill="#8493ED" d="M1863.7,625.2c0.6,0.5,0.8,1.3,0.5,2c-0.4,0.8-1.4,1.2-2.2,0.8l-100.5-48.3
				c-0.8-0.4-1.2-1.4-0.8-2.2c0.4-0.8,1.4-1.2,2.2-0.8l100.5,48.3C1863.5,625.1,1863.6,625.2,1863.7,625.2z"/>
		</g>
		<g id="XMLID_315_">
			<path id="XMLID_390_" fill="#8493ED" d="M1855.7,641.8c0.6,0.5,0.8,1.3,0.5,2c-0.4,0.8-1.4,1.2-2.2,0.8l-100.5-48.3
				c-0.8-0.4-1.2-1.4-0.8-2.2c0.4-0.8,1.4-1.2,2.2-0.8l100.5,48.3C1855.5,641.7,1855.6,641.7,1855.7,641.8z"/>
		</g>
		<g id="XMLID_314_">
			<path id="XMLID_388_" fill="#8493ED" d="M1847.8,658.4c0.6,0.5,0.8,1.3,0.5,2c-0.4,0.8-1.4,1.2-2.2,0.8l-100.5-48.3
				c-0.8-0.4-1.2-1.4-0.8-2.2c0.4-0.8,1.4-1.2,2.2-0.8l100.5,48.3C1847.6,658.3,1847.7,658.3,1847.8,658.4z"/>
		</g>
		<g id="XMLID_312_">
			<path id="XMLID_387_" fill="#8493ED" d="M1839.8,674.9c0.6,0.5,0.8,1.3,0.5,2c-0.4,0.8-1.4,1.2-2.2,0.8l-100.5-48.3
				c-0.8-0.4-1.2-1.4-0.8-2.2c0.4-0.8,1.4-1.2,2.2-0.8l100.5,48.3C1839.6,674.8,1839.7,674.9,1839.8,674.9z"/>
		</g>
		
			<use xlink:href="#Pencil"  width="25" height="137.4" id="XMLID_866_" x="-12.5" y="-68.6" transform="matrix(-1.0921 -0.3243 -0.3243 1.0921 1882.7513 662.7251)" overflow="visible"/>
	</g>
	<path id="XMLID_29_" fill="#FFFFFF" fill-opacity="0.9" d="M1761.6,730.1l-34.3,6.8c-2.2,0.4-4.3-1-4.7-3.1l-3.2-16.1
		c-0.4-2.2,1-4.3,3.1-4.7l34.3-6.8c2.2-0.4,4.3,1,4.7,3.1l3.2,16.1C1765.1,727.6,1763.7,729.7,1761.6,730.1z"/>
	
		<image overflow="visible" width="850" height="566" id="XMLID_350_" xlink:href="6D187B15.jpg"  transform="matrix(1 0 0 1 -751.6136 -820.9823)">
	</image>
	<g id="XMLID_348_">
		<g id="XMLID_404_" transform="matrix(6.12323e-17,1,-1,6.12323e-17,1569.79,-228.47)">
			<g id="XMLID_405_" transform="matrix(1,0,0,1,-56,-5.08887)">
				<path id="XMLID_406_" fill="#7E8589" d="M-76.7,495.4c46.2,44.7,45,225.7-0.6,272.9c-46.1,47.6-199.2,51.3-247.7,4.4
					c-75.1-72.7-77.1-192.6-4.4-267.7C-283.4,457.4-125.2,448.5-76.7,495.4z"/>
			</g>
		</g>
		<g id="XMLID_369_" transform="matrix(6.12323e-17,1,-1,6.12323e-17,1569.79,-228.47)">
			<g id="XMLID_371_" transform="matrix(1,0,0,1,-56,-5.08887)">
				<path id="XMLID_372_" fill="#6F7577" d="M-72.3,593.1c40.5-2.3,39,90-2.5,84.9c-44.6-5.5-92.6,113.9-219.9,66.4
					c-89.7-33.5-84.9-170-3.4-212.9C-185.3,472.3-106.7,595.1-72.3,593.1z"/>
			</g>
		</g>
		<g id="XMLID_351_">
			<g id="XMLID_354_">
				<g id="XMLID_362_">
					<path id="XMLID_365_" fill="#404040" d="M975.7-351.9L943.4-329c-6.7,4.8-16.1,3.2-20.9-3.6l-22.9-32.3
						c-4.8-6.7-3.2-16.1,3.6-20.9l32.3-22.9c6.7-4.8,16.1-3.2,20.9,3.6l22.9,32.3C984-366.1,982.4-356.7,975.7-351.9z"/>
					<path id="XMLID_363_" fill="#404040" d="M977.1-382.5l-6.7,39c-1.4,8.1-9.2,13.7-17.3,12.3l-39-6.7
						c-8.1-1.4-13.7-9.2-12.3-17.3l6.7-39c1.4-8.1,9.2-13.7,17.3-12.3l39,6.7C972.9-398.4,978.4-390.7,977.1-382.5z"/>
				</g>
				<g id="XMLID_356_">
					<path id="XMLID_360_" fill="#404040" d="M966.5-339.3l-38.6,8.8c-8,1.8-16.1-3.3-18-11.3l-8.8-38.6c-1.8-8,3.3-16.1,11.3-18
						l38.6-8.8c8-1.8,16.1,3.3,18,11.3l8.8,38.6C979.6-349.3,974.5-341.2,966.5-339.3z"/>
					<path id="XMLID_359_" fill="#404040" d="M979.4-367.1l-21.1,33.5c-4.4,7-13.7,9.1-20.7,4.7L904.2-350c-7-4.4-9.1-13.7-4.7-20.7
						l21.1-33.5c4.4-7,13.7-9.1,20.7-4.7l33.5,21.1C981.7-383.4,983.8-374.1,979.4-367.1z"/>
				</g>
			</g>
			<path id="XMLID_353_" fill="#4D4D4D" d="M949.1-332l-2.5,0.6c-19.7,4.5-39.6-8-44.1-27.7l-0.6-2.5c-4.5-19.7,8-39.6,27.7-44.1
				l2.5-0.6c19.7-4.5,39.6,8,44.1,27.7l0.6,2.5C981.4-356.3,968.9-336.5,949.1-332z"/>
		</g>
	</g>
	<path id="XMLID_366_" fill="#4D4D4D" d="M939.7-422.6L939.7-422.6c-5.8,0-10.6-4.8-10.6-10.6v-179.5c0-5.8,4.8-10.6,10.6-10.6l0,0
		c5.8,0,10.6,4.8,10.6,10.6v179.5C950.3-427.4,945.5-422.6,939.7-422.6z"/>
	<text id="XMLID_380_" transform="matrix(1 0 0 1 774.6797 424.3779)"><tspan x="0" y="0" fill="#365996" font-family="'AcuminProCond-Semibold'" font-size="81.6197px" letter-spacing="-1">H</tspan><tspan x="40.5" y="0" fill="#365996" font-family="'AcuminProCond-Semibold'" font-size="81.6197px" letter-spacing="-2">o</tspan><tspan x="74.3" y="0" fill="#365996" font-family="'AcuminProCond-Semibold'" font-size="81.6197px">w </tspan><tspan x="141" y="0" fill="#365996" font-family="'AcuminProCond-Semibold'" font-size="81.6197px">i</tspan><tspan x="157.7" y="0" fill="#365996" font-family="'AcuminProCond-Semibold'" font-size="81.6197px">t </tspan><tspan x="194.5" y="0" fill="#365996" font-family="'AcuminProCond-Semibold'" font-size="81.6197px" letter-spacing="-3">W</tspan><tspan x="248.5" y="0" fill="#365996" font-family="'AcuminProCond-Semibold'" font-size="81.6197px" letter-spacing="-1">o</tspan><tspan x="282.6" y="0" fill="#365996" font-family="'AcuminProCond-Semibold'" font-size="81.6197px" letter-spacing="-1">r</tspan><tspan x="305.8" y="0" fill="#365996" font-family="'AcuminProCond-Semibold'" font-size="81.6197px">k</tspan><tspan x="338.6" y="0" fill="#365996" font-family="'AcuminProCond-Semibold'" font-size="81.6197px">s</tspan></text>
</g>
<g id="Layer_3">
</g>
</svg>
