<?xml version="1.0" encoding="utf-8"?>
<!-- Generator: Adobe Illustrator 19.0.0, SVG Export Plug-In . SVG Version: 6.00 Build 0)  -->
<svg version="1.1" id="Layer_1" xmlns="http://www.w3.org/2000/svg" xmlns:xlink="http://www.w3.org/1999/xlink" x="0px" y="0px"
	 viewBox="224 -284 480 600" enable-background="new 224 -284 480 600" xml:space="preserve">
<rect x="224" y="-284" fill="#BEC4CE" width="480" height="600"/>
<g>
	<path fill="#698CC8" d="M500.7,49c7.8,4.3,15.2,2.5,22.1-2.2c3.2-2.2,5.7-2.7,8.9-0.3c1.7,1.3,4,1.9,6,2.8c0.8,0.4,1.3,0.8,1.5,1.8
		c2.1,8.6,4.2,17.1,6.3,25.7c2.4,10,4.8,20.1,7.2,30.1c1.3,5.5,2.8,10.9,4.2,16.3c0.7,2.6,1.3,5.3,2,8c-0.1,4.7-2.6,7.2-7,8.5
		c-12.8,3.9-25.5,8-38.3,12c-1.1-0.2-1.5-1-1.8-1.9c-0.5-1.4-1.1-2.9-1.3-4.4c-0.3-2.2-1-4.3-1.7-6.4c-8.9-26.8-16.4-54.1-25.1-80.9
		c-0.3-0.9-0.6-1.7-0.5-2.7c0-0.3,0.1-0.6,0.3-0.8c0.5-0.5,1.1-0.8,1.8-1c4.6-1.5,9.3-3,13.9-4.4C499.6,49,500.2,49.1,500.7,49z"/>
	<path fill="#BBCEEA" d="M531.8,21.7c-6.1-1.6-11,1.3-15.9,4.3c-5.5,3.4-10.8,7.1-15.5,11.5c-0.4,0.4-0.8,0.9-1.5,0.9
		c-0.5,0.6-1.1,1-1.9,1.2c-4.9,1.6-9.8,3.1-14.7,4.6c-0.6,0.2-1.2,0.3-1.8,0.1c-1.1-0.7-1.4-2-1.7-3.1c-2.4-7.4-4.7-14.9-7.1-22.3
		c-0.9-2.9-1.1-3-4.1-2.1c-3.4,1-6.8,2.2-10.2,3.2c-5.1,1.8-10.3,3.3-15.5,5c-0.9,0.3-1.7,0.6-2.6,0c0.6-0.7,1.5-0.8,2.2-1
		c26.1-8.3,52.3-16.6,78.4-24.8c4.5-1.4,6-0.5,7.1,4.1C528.6,9.5,530.2,15.6,531.8,21.7z"/>
	<path fill="#5D3400" d="M467.9,116.5c-6.9,1-9.8-3.2-10.8-8.9c-0.3-2,0.4-3.9,2.5-5.6c-4.2,0.4-7.4-0.7-9.2-4
		c-3.4-6.1-2.2-11.2,4.4-12.8c1.6-0.4,3.3-0.4,4.9-1.1c4.5-1.7,9.1-3.1,13.9-1.8c3.5,0.9,5.4,3.4,6.2,6.9c0.4,1.1,0.7,2.3,0.6,3.5
		c-0.1,3.6-1.5,6.6-6.5,6.8c-0.9,0-1.9,0.1-2.8,0.4c-0.9-0.1-1.8,0.2-2.7,0.4c0.7-0.2,1.5-0.4,2.3-0.3c0.9-0.1,1.8-0.4,2.7-0.4
		c1.7-0.2,3.4-0.1,5.2,0.5c7.6,2.5,8.3,11.6,2.7,15.6c2.8,1,5.3,2.4,6.5,5.3c0.9,2.1,0.8,4.2,0.1,6.2c-1.2,3.8-4.3,5.6-8.6,4.9
		c-1.8,0.2-3.6,0.4-5.4,0.7c-4,0.7-7.6-1.6-9.2-5.8c-1.6-4.3-0.7-7.4,2.7-9.5c0.8-0.8,2-0.7,2.9-1.1c0.6-0.1,1.1,0,1.4,0
		c-0.2,0.1-0.7-0.2-1.2-0.1C469.6,116.6,468.7,116.9,467.9,116.5z"/>
	<path fill="#BBCEEA" d="M439.4,25.2c6-1.9,12-3.7,18-5.6c1,0.6,1.3,1.7,1.6,2.7c2.5,7.8,5,15.7,7.4,23.5c0.3,0.9,0.6,1.9,0.4,2.9
		c-0.3,0.6-0.8,0.9-1.4,1.1c-5.6,1.8-11.1,3.7-16.8,5.2c-0.5,0-0.9-0.1-1.1-0.6c-2.1-5.1-4.2-10.3-6.3-15.4
		c-1.2-2.8-2.3-5.7-3.5-8.5C436.6,27.6,437,26.5,439.4,25.2z"/>
	<path fill="#698CC8" d="M479.1,132c0.5-0.1,1-0.3,1.5-0.4c4.3-0.6,6.3-2.4,6.9-6.3c0.6-3.8-1.1-6.8-4.7-8.5c-1-0.4-2-0.8-3.2-1.2
		c3.4-1.8,4.9-4.6,4.5-8.3c-0.4-3.9-3.3-6.6-7.8-7.4c-1-0.2-2.1-0.2-3.2-0.2c-0.2-0.4-0.2-0.6,0.4-0.6c5.7-1.6,6.4-2.8,5.9-10
		c0.1-0.2,0.2-0.3,0.4-0.1c6.7,19.1,12.6,38.4,18.8,57.7c0.7,2.2,1.9,4.1,2.5,6.3c0.2,0.8,0.6,1.6,0.3,2.4c-2.2,0.7-4.3,1.8-6.8,1.8
		c-3.3,0.1-5.6-1.5-6.9-4.3c-2.4-5.3-4.5-10.8-6.7-16.2C480.4,135.2,479.8,133.6,479.1,132z"/>
	<path fill="#5D3400" d="M458.4,81.6c-2.7-0.1-5.3-0.5-7.7-1.9c-3-1.7-4.9-4.2-4.8-7.7c0.1-3.7,1.7-6.6,5.3-8.1
		c1.3-1.4,3-0.7,4.6-0.7c2,0.3,4.1,0.2,6.1,0.4c6.7,0.7,11.1,8.5,8.2,14.6c-1.3,2.8-3.7,4.5-6.9,4.3
		C461.7,82.4,459.9,82.7,458.4,81.6z"/>
	<path fill="#698CC8" d="M455.9,63.7c-1.5,0.4-3.1-0.3-4.6,0.3c-1.3-3.2-2.6-6.4-3.9-9.6c0.1,0.1,0.3,0.2,0.4,0.3
		c2.4-0.2,4.5-1.2,6.7-1.9c3.6-1.1,7.1-2.2,10.6-3.4c1.3-0.4,2-0.1,2.6,1c0.9,1.5,1.4,3.2,2,4.8c0.8,2.3,1,2.4,3.3,1.7
		c2.3-0.7,4.6-1.5,6.9-2.2c0.9-0.3,1.9-0.7,2.9-0.5c0.3,0.1,0.5,0.3,0.4,0.6l0,0c-4.4,1.4-8.7,2.8-13.1,4.2c-0.3,0.5-0.7,0.9-1.2,1
		C464.8,61.5,460.6,63.4,455.9,63.7z"/>
	<path fill="#698CC8" d="M455.9,63.7c4.8-1.5,9.6-3.1,14.4-4.6c3.2,10,6.4,20,9.5,30c-0.1,0-0.2,0.1-0.4,0.1
		c-1.1-5.1-6.6-7.9-12.2-6.7c-2.6,0.6-5.2,1-7.8,1.5c-0.4-0.8-0.7-1.6-1.1-2.4c1.2,0.1,2.4,0.1,3.6,0.2c5.8,0.3,9.3-3.6,8.2-9.4
		c-1-5.4-3.9-7.9-9.4-8.4C459.2,64,457.5,64.1,455.9,63.7z"/>
	<path fill="#A55421" d="M470.8,116.4c-1.2,0.4-2.3,0.7-3.5,1.1c0.2-0.3,0.4-0.7,0.6-1c0.9-0.1,1.8-0.3,2.8-0.4
		c0.2,0,0.2,0.1,0.2,0.2C470.8,116.4,470.8,116.4,470.8,116.4z"/>
	<path fill="#698CC8" d="M483.4,54.9c0-0.1-0.1-0.3-0.1-0.4c-2.2-2.5-2.6-5.5-2.9-8.6c-0.1-0.7,0.3-1.3,1.1-1.5
		c5.8-1.7,11.5-3.9,17.4-5.3c-0.9,1.6-2.4,2.9-3.2,4.6c-0.5,1.1-0.5,1.8,0.6,2.4c1.5,0.9,3,2,4.5,3c-0.5,0.8-1.4,0.8-2.2,1.1
		C493.5,51.7,488.4,53.3,483.4,54.9z"/>
	<path fill="#698CC8" d="M498.8,39c-5.2,1.7-10.4,3.5-15.7,4.9c-2.4,0.7-2.5,2-2,3.8c0.6,2.3,1.4,4.5,2.1,6.8
		c-3.7,1.2-7.4,2.3-11,3.5c-1.6,0.6-2.3,0.1-2.7-1.5c-0.6-1.9-1.1-3.9-2.1-5.7c-0.7-1.3-1.3-1.5-2.6-1.1c-4.8,1.6-9.7,3.1-14.5,4.6
		c-0.8,0.2-1.5,0.8-2.4,0.3c6.2-2,12.5-4,18.7-5.9c0.1-0.2,0.2-0.4,0.4-0.5c4.1-1.9,8.4-3.3,12.9-4.1c0.2,0,0.4,0.1,0.6,0.2
		c6.1-1.9,12.3-3.9,18.4-5.8C498.9,38.7,498.9,38.8,498.8,39z"/>
	<path fill="#6780AC" d="M473.6,99.2c-0.1,0.2-0.2,0.4-0.4,0.6c-0.9,0.1-1.8,0.2-2.7,0.4c-0.1-0.1-0.3-0.3-0.1-0.5
		c0.1-0.1,0.2-0.1,0.3,0C471.7,99.4,472.6,98.9,473.6,99.2z"/>
	<path fill="#625B57" d="M470.7,99.6c-0.1,0.2-0.2,0.3-0.2,0.5c-0.8,0.1-1.6,0.1-2.4,0.2C468.9,99.8,469.7,99.2,470.7,99.6z"/>
	<path fill="#8A4815" d="M470.8,116.4c0-0.1-0.1-0.3-0.2-0.4c0.5,0,1,0.1,1.6,0.1C471.8,116.8,471.3,116.8,470.8,116.4z"/>
	<polyline fill="#698CC8" points="500.4,37.6 494.9,48.4 448.4,56.8 441.1,39 	"/>
	<path fill="#5D3400" d="M531.8,21.7c4.1,0.9,8.1,1.9,12.2,2.7c8.4,1.7,16.4,4.4,24.3,7.5c10.6,4.1,20.6,9.4,29.5,16.6
		c6.1,4.9,11.4,10.5,14.9,17.6c1.2,2.4,2.4,4.8,3,7.4c0.3,1.4,1,2,2.1,2.6c9.8,5,24.5-9.1,32.8-12.1c-5.3,4.6,10.2,33.4,5.5,38.7
		c-8.4,9.5-10,22.8-12.3,20.6c-2.8-2.6-49.1-0.1-50.2,0.5c-6.7,3.5-13.9,5.3-21.3,6.5c-4.5,0.7-9,1.2-13.6,1.1
		c-1.4-1.1-1.5-2.8-1.9-4.3c-2-8.4-4.2-16.8-6.2-25.3c-1.9-7.9-3.9-15.8-5.8-23.7c-2.1-8.7-4.2-17.5-6.5-26.1c-0.3-1.2-1-1.9-2-2.3
		c-2.6-1-5-2.3-7.4-3.6c-1.4-0.7-2.6-0.6-3.9,0.2c-2.2,1.4-4.4,2.7-6.8,3.8c-5.9,2.7-11.7,3-17.5-0.4c-1.7-0.9-3.4-1.9-5-3.1
		c-1.2-0.9-1.4-2-0.8-3.3c0.8-1.7,2.2-3,3.3-4.6c0.1-0.2,0.3-0.4,0.4-0.6c6.8-6.2,14.3-11.5,22.6-15.7
		C524.8,20.5,528.3,20.2,531.8,21.7z"/>
	<path fill="#DDD99E" d="M943.6-45.2c67.9,0.8,70.7,63.1,61.9,91.9c-6.5,2.1-13.2,3.3-19.8,4.9c-19.4,4.6-329.1,71.1-348.5,75.7
		c-2.1,0.5-3.5,0.2-4.6-1.7c-0.7-1.3-1.6-2.4-2.5-3.6c-7.8-11.3-12.7-23.8-15.3-37.3c-1.2-6.1-1.8-12.2-2.2-18.3
		c-0.1-3.8-0.1-3.9,3.7-5c21.6-6.3,42.9-13.3,64.2-20.2c20.2-6.5,240.3-79.9,260.5-86.3c0.7-0.2,1.3-0.5,2-0.4
		C943.3-45.5,943.5-45.4,943.6-45.2z"/>
	<path fill="#CEDEEA" d="M463.5,38.7c-2-6.4-4.1-12.7-6.1-19.1c4-1.3,8-2.5,12-3.9c1.5-0.5,2.1-0.2,2.6,1.4
		c2.2,7.2,4.4,13.9,6.7,21.1L463.5,38.7z"/>
	<path fill="#86A3D2" d="M478.6,38.7c3.4,10.7,11.8,37.6,14.9,48.4c5.3,18.6,11.4,36.9,17.1,55.4c0.7,2.3,0.9,4.8,1.8,7
		c0.3,0.8,0.5,1.6,1.2,2.2c-4.1,1.3-8.1,2.6-12.2,3.9c-1.5-3.5-2.9-7-4.1-10.6c-3.8-11.8-7.6-23.6-11.2-35.4
		c-2.1-6.8-5.1-13.3-6.8-20.3c-2.9-8.8-13-41.7-15.8-50.6C463.1,37.5,477.9,38.3,478.6,38.7z"/>
</g>
<path fill="#698CC8" d="M426.4-219.3c37.3,26.3,46.1,78.3,19.7,115.9c-26.4,37.5-78.6,46.7-115.9,20.5
	c-39.2-27.7-45.8-80-20.5-116.2C335.8-236.7,388.1-246.3,426.4-219.3z"/>
<g id="XMLID_8_">
	<g id="XMLID_101_">
		<path id="XMLID_189_" fill="#D2D954" d="M419.5-186.4c-0.2-0.2-0.5,0-0.7,0.1c-0.9,1.4-1.4,3.2-1.5,4.9c-0.4,0.1-0.8,0.2-1.2,0.5
			c-0.7,0.4-1.4,0.9-2.1,1.7c-0.5-0.5-1-1.1-1.4-1.8c-0.3-0.6-0.5-1.1-0.5-1.7c0-0.3-0.2-0.5-0.4-0.5c-0.3,0-0.5,0.2-0.5,0.4
			c0,0.7,0.2,1.5,0.6,2.2c0.4,0.8,1,1.4,1.6,2c-1.1,1.1-2.1,2.3-3.1,3.7c-1-0.7-2.1-1.6-2.6-2.7c-0.1-0.2-0.4-0.4-0.6-0.2
			c-0.2,0.1-0.4,0.4-0.2,0.6c0.6,1.3,1.7,2.3,2.9,3.2c-0.9,1.3-1.7,2.5-2.4,3.8c-1.4,0-2.7-0.4-4-1.1c-0.2-0.2-0.5,0-0.7,0.1
			c-0.2,0.2,0,0.5,0.1,0.7c1.2,0.7,2.5,1.1,4,1.2c-0.7,1.4-1.3,2.7-1.5,3.7c-0.1,0.6-0.1,1.2-0.1,1.8c-1.3,0.7-2.5,0.9-4.4,0.7
			c-0.3,0-0.5,0.1-0.5,0.4s0.1,0.5,0.4,0.5c2,0.2,3.3,0.1,4.7-0.7c0.5,1.2,1.5,2,2.8,2.1c-0.4,1.4-1.2,2.5-2.4,3.5
			c-0.2,0.2-0.2,0.4-0.1,0.7c0.2,0.2,0.4,0.2,0.7,0.1c1.5-1.1,2.3-2.5,2.8-4.2c0.8,0,1.6-0.2,2.4-0.6c0.2,1.7,1.3,3.4,2.6,4.4
			c0.2,0.1,0.5,0.1,0.6-0.1c0.1-0.2,0.1-0.5-0.1-0.6c-1.2-0.9-2.3-2.5-2.3-4.1c1-0.6,2-1.4,3-2.5c0.4,0.4,1,0.7,1.6,0.9
			c1.3,0.7,2.9,1.2,3.8,1.3c0.3,0,0.5-0.1,0.5-0.4c0-0.3-0.1-0.5-0.4-0.5c-0.9-0.2-2.4-0.6-3.6-1.2c-0.5-0.3-1-0.5-1.4-0.9
			c1.1-1.4,2.2-2.9,3.1-4.6c1,0.9,1.9,1.9,2.5,3c0.2,0.2,0.4,0.3,0.6,0.1c0.2-0.2,0.3-0.4,0.1-0.6c-0.7-1.3-1.8-2.5-2.9-3.5
			c0.5-1.1,1-2.2,1.4-3.3c1.7,0.2,3.4-0.1,5-0.6c0.2-0.1,0.4-0.4,0.3-0.6c-0.1-0.2-0.4-0.4-0.6-0.3c-1.3,0.5-2.9,0.6-4.4,0.6
			c0.2-0.8,0.4-1.6,0.5-2.3c0.1-0.9,0-1.7-0.3-2.3c0.7-1.1,1.4-2.2,2.2-3.3c0.2-0.2,0.1-0.5-0.1-0.7s-0.5-0.1-0.7,0.1
			c-0.7,1-1.3,2-1.9,3c-0.6-0.8-1.6-1.2-2.7-1.3c0.2-1.5,0.6-3,1.4-4.3C419.8-186,419.7-186.3,419.5-186.4z M408.4-166.5
			c0.3,0.2,0.4,0.6,0.1,0.9c-0.2,0.3-0.6,0.4-0.9,0.1c-0.3-0.2-0.4-0.6-0.1-0.9C407.8-166.6,408.1-166.7,408.4-166.5z M412.3-167.1
			c0.6,0.4,0.8,1.3,0.4,1.9c-0.4,0.6-1.3,0.8-1.9,0.4c-0.6-0.4-0.8-1.3-0.4-1.9C410.8-167.4,411.7-167.5,412.3-167.1z M411.9-171.8
			c0.5,0.3,0.6,0.9,0.3,1.3c-0.3,0.4-0.9,0.5-1.4,0.2s-0.6-0.9-0.3-1.3S411.4-172.1,411.9-171.8z M416.7-172.6
			c0.6,0.4,0.7,1.2,0.3,1.7c-0.4,0.6-1.2,0.7-1.7,0.3c-0.6-0.4-0.7-1.2-0.3-1.7C415.4-172.8,416.2-173,416.7-172.6z M415.4-176.2
			c0.3,0.2,0.4,0.7,0.2,1c-0.2,0.3-0.7,0.4-1,0.2c-0.3-0.2-0.4-0.7-0.2-1C414.7-176.3,415.1-176.4,415.4-176.2z M418.9-177.5
			c0.5,0.3,0.6,1.1,0.3,1.5c-0.3,0.5-1.1,0.6-1.5,0.3c-0.5-0.3-0.6-1.1-0.3-1.5C417.7-177.7,418.4-177.8,418.9-177.5z"/>
		<path id="XMLID_173_" fill="#F4B07F" d="M368.9-171.6c0.2-0.6-0.2-1.3-0.8-1.5c-0.5-0.1-1.1,0.1-1.4,0.5c-0.1-0.1-0.2,0-0.3-0.1
			c-0.3,0-0.4,0-0.7-0.1c-0.4,0-0.7-0.1-1.2-0.1c0.1-1.7-0.1-3.4-0.5-5.3c0.6-0.2,1.2-0.4,1.6-0.6c0.1,0.5,0.6,0.9,1.1,1.1
			c0.9,0.2,1.8-0.2,2.1-1.1c0.2-0.9-0.2-1.8-1.1-2.1c-0.9-0.2-1.8,0.2-2.1,1.1c0,0.1-0.1,0.2-0.1,0.2c-0.3,0-0.6,0.1-0.7,0.2
			c-0.4,0.1-0.8,0.2-1.2,0.3c-0.4-1.8-1.2-3.7-2-5.3c0.5-0.3,0.8-0.8,1.2-1.2c0.1-0.1,0.2-0.2,0.4-0.5c0.1,0.1,0.2,0.2,0.4,0.2
			c0.8,0.3,1.5-0.2,1.7-0.9c0.3-0.8-0.2-1.5-0.9-1.7c-0.8-0.3-1.5,0.2-1.7,0.9c-0.1,0.2,0,0.3-0.1,0.4s-0.3,0.2-0.4,0.3
			c-0.4,0.3-0.8,0.6-1.1,0.9c-0.1,0.1-0.1,0.1-0.2,0.2c-0.8-1.3-1.7-2.4-2.6-3.4c0.1-0.1,0.1-0.1,0.1-0.2c0.5-0.7,1-1.5,1.3-2.3
			c0.7,0.1,1.3-0.3,1.5-1s-0.2-1.5-0.9-1.8c-0.7-0.2-1.5,0.2-1.8,0.9c-0.1,0.4,0,0.8,0.1,1.1c-0.2,0.2-0.3,0.4-0.4,0.5
			c-0.2,0.4-0.5,0.8-0.7,1.1c-0.1,0.2-0.2,0.4-0.4,0.5c-1.4-1-2.8-1.7-4.4-1.8c0.2-0.8,0.2-1.8,0-2.5c0.3-0.2,0.5-0.4,0.6-0.8
			c0.3-0.8-0.2-1.6-1-1.9c-0.8-0.3-1.6,0.2-1.9,1c-0.3,0.8,0.2,1.6,1,1.9c0.1,0,0.1,0,0.2,0.1c0,0.2,0,0.4,0,0.4c0,0.4,0,0.9,0,1.4
			c0,0.1,0,0.4,0,0.5c-1.1,0.2-1.9,0.8-2.4,1.7c-0.3-0.3-0.7-0.7-1.1-0.9c-0.2-0.2-0.4-0.3-0.5-0.5l0,0c0.3-0.8-0.2-1.6-1-1.9
			c-0.8-0.3-1.6,0.2-1.9,1c-0.3,0.8,0.2,1.6,1,1.9c0.4,0.1,0.7,0.1,1.1-0.1c0.2,0.3,0.5,0.5,0.7,0.8c0.3,0.3,0.6,0.7,0.9,1
			c0.1,0.1,0.2,0.1,0.2,0.3c-0.3,1.3-0.4,2.6-0.3,4c-0.2,0-0.4,0-0.5,0c-0.4,0-0.7,0-1,0s-0.5,0-0.8,0c-0.1-0.5-0.5-0.9-1-1
			c-0.8-0.3-1.6,0.2-1.9,1c-0.3,0.8,0.2,1.6,1,1.9c0.7,0.2,1.4-0.1,1.7-0.7c0.9,0,2.1-0.2,2.5-0.3c0.1,0.8,0.2,1.6,0.4,2.2
			c0.2,1.1,0.5,2,0.9,3c-0.1,0-0.3,0.1-0.6,0.1c-0.3,0.1-0.7,0.2-1.1,0.4c-0.2,0.1-0.3,0.1-0.5,0.2c-0.2-0.1-0.3-0.2-0.5-0.3
			c-0.7-0.2-1.4,0.2-1.6,0.9s0.2,1.4,0.9,1.6c0.7,0.2,1.4-0.2,1.6-0.9c0.1-0.2,0-0.2,0-0.4c0.8-0.3,1.8-0.9,2-1
			c0.4,1.2,1,2.5,1.5,3.6c0,0,0,0,0,0.1c0,0,0,0-0.1,0c-0.3,0.2-0.7,0.5-1.1,0.6c-0.3,0.2-0.6,0.4-0.9,0.5c-0.1-0.1-0.2-0.1-0.2-0.1
			c-0.6-0.2-1.2,0.2-1.4,0.8c-0.2,0.6,0.2,1.2,0.8,1.4s1.2-0.2,1.4-0.8c0.1-0.2,0-0.3,0-0.5l0,0c0.6-0.4,1.3-0.7,1.8-1.2
			c0.4,0.8,0.9,1.6,1.4,2.4c-0.2,0.2-0.4,0.3-0.6,0.5c-0.4,0.3-0.8,0.7-1.2,1c-0.2,0.2-0.4,0.4-0.6,0.6c-0.1,0-0.1-0.1-0.2-0.1
			c-0.7-0.2-1.4,0.2-1.6,0.9c-0.2,0.7,0.2,1.4,0.9,1.6c0.7,0.2,1.4-0.2,1.6-0.9c0.1-0.2,0.1-0.5,0-0.8c0.8-0.6,1.6-1.3,2.2-2
			c0.5,0.7,1,1.4,1.7,1.9c-0.1,0.1-0.1,0.2-0.2,0.2c-0.2,0.3-0.3,0.6-0.5,0.9c-0.1,0.2-0.3,0.5-0.4,0.8c-0.6-0.1-1,0.3-1.3,0.8
			c-0.2,0.6,0.2,1.3,0.8,1.5s1.3-0.2,1.5-0.8c0.1-0.4,0.1-0.7-0.1-1l0,0c0.3-0.6,0.6-1.2,0.8-1.8c0.2,0.1,0.2,0.2,0.4,0.3
			c0.6,0.4,1.2,0.7,2,1v0.1c0,0.2-0.1,0.4-0.1,0.5c-0.1,0.4-0.2,0.9-0.3,1.3c0,0.2-0.1,0.4-0.1,0.7c-0.4,0.1-0.9,0.4-1,0.8
			c-0.2,0.7,0.2,1.4,0.9,1.6c0.7,0.2,1.4-0.2,1.6-0.9c0.2-0.5,0-1-0.3-1.3c0-0.1,0-0.1,0-0.2c0.1-0.8,0.3-1.7,0.2-2.5
			c0.2,0.1,0.3,0.1,0.4,0.1c0.9-0.3,1.6-0.6,2.2-1.2c0,0.1,0.1,0.2,0.1,0.2c0.2,0.3,0.4,0.7,0.6,1.1c0.2,0.2,0.3,0.5,0.4,0.7
			c-0.1,0.1-0.1,0.2-0.2,0.4c-0.3,0.8,0.2,1.6,0.9,1.7c0.8,0.3,1.6-0.2,1.7-0.9c0.2-0.7-0.2-1.6-0.9-1.7c-0.2,0-0.4-0.1-0.7-0.1
			c-0.4-0.7-1-1.3-1.5-2c0,0,0,0,0-0.1c0.8-1,1.3-2.4,1.5-4c0.9,0,1.7-0.1,2-0.1c0,0,0,0,0.1,0c0.1,0.4,0.3,0.8,0.8,1
			C368.1-170.6,368.7-171,368.9-171.6z M356.3-184c-0.1,0.4-0.5,0.6-0.9,0.5s-0.6-0.5-0.5-0.9c0.1-0.4,0.5-0.6,0.9-0.5
			C356.2-184.7,356.4-184.3,356.3-184z M355.2-179.9c-0.2,0.5-0.6,0.6-1,0.5c-0.5-0.2-0.6-0.6-0.5-1c0.2-0.5,0.6-0.6,1-0.5
			C355.1-180.7,355.3-180.2,355.2-179.9z M357.2-171.6c0.1-0.4,0.5-0.6,0.9-0.5c0.4,0.1,0.6,0.5,0.5,0.9s-0.5,0.6-0.9,0.5
			C357.3-170.9,357.1-171.3,357.2-171.6z M356.6-177.7c0.7,0.2,1,0.9,0.8,1.5c-0.2,0.7-0.9,1-1.5,0.8c-0.7-0.2-1-0.9-0.8-1.5
			C355.2-177.5,355.9-177.9,356.6-177.7z M359.9-179.5c-0.3,0.8-1.1,1.3-2,1c-0.8-0.3-1.3-1.1-1-2c0.3-0.8,1.1-1.3,2-1
			C359.7-181.1,360.2-180.3,359.9-179.5z M360.5-174.7c-0.2,0.5-0.6,0.7-1.1,0.6c-0.5-0.2-0.7-0.6-0.6-1.1c0.2-0.5,0.6-0.7,1.1-0.6
			C360.3-175.6,360.6-175.2,360.5-174.7z"/>
		<path id="XMLID_157_" fill="#F4B07F" d="M342.6-121c-0.3,0.2-0.4,0.6-0.2,0.9c0.2,0.2,0.5,0.3,0.8,0.2c0.1,0,0,0.1,0.1,0.1
			c0.1,0.1,0.2,0.1,0.2,0.2c0.2,0.1,0.3,0.3,0.5,0.4c-0.6,0.7-1.1,1.5-1.6,2.5c-0.4-0.1-0.7-0.3-1-0.3c0.1-0.3,0.1-0.6-0.1-0.8
			c-0.3-0.4-0.9-0.5-1.3-0.2s-0.5,0.9-0.2,1.3c0.3,0.4,0.9,0.5,1.3,0.2c0,0,0-0.1,0.1,0c0.1,0.1,0.3,0.2,0.3,0.2
			c0.2,0.1,0.4,0.2,0.6,0.2c-0.4,1-0.7,2-0.9,3.1c-0.3,0-0.6,0-0.9,0.1c-0.1,0-0.2,0-0.3,0.1c0-0.1,0-0.2-0.1-0.2
			c-0.3-0.3-0.7-0.4-1.1-0.2c-0.3,0.3-0.4,0.7-0.2,1.1c0.3,0.3,0.7,0.4,1.1,0.2c0.1,0,0.1-0.1,0.1-0.2c0.1,0,0.2,0,0.3,0
			c0.2,0,0.6,0,0.8,0c0.1,0,0.1,0,0.2,0c-0.1,0.9-0.1,1.7,0,2.4H341c-0.5,0.2-1,0.3-1.3,0.6c-0.2-0.2-0.7-0.3-1-0.1
			c-0.3,0.3-0.4,0.7-0.2,1.1c0.3,0.3,0.7,0.4,1.1,0.2c0.2-0.1,0.3-0.3,0.3-0.5c0.2,0,0.3-0.1,0.4-0.1c0.3-0.1,0.5-0.2,0.7-0.2
			c0.1,0,0.2-0.1,0.4-0.1c0.2,0.9,0.7,1.8,1.3,2.3c-0.3,0.3-0.7,0.7-0.9,1.1c-0.2,0-0.3,0-0.5,0.1c-0.4,0.3-0.5,0.8-0.2,1.2
			c0.3,0.4,0.8,0.5,1.2,0.2s0.5-0.8,0.2-1.2c0,0-0.1,0,0-0.1c0.1,0,0.1-0.2,0.1-0.2c0.1-0.2,0.3-0.4,0.5-0.6c0-0.1,0.1-0.1,0.2-0.3
			c0.5,0.3,1.1,0.2,1.7,0c0.1,0.3,0.1,0.5,0.1,0.8c0,0.2,0.1,0.3,0.1,0.4l0,0c-0.3,0.3-0.5,0.8-0.2,1.2s0.8,0.5,1.2,0.2
			c0.4-0.3,0.5-0.8,0.2-1.2c-0.1-0.2-0.3-0.3-0.5-0.3c0-0.2,0-0.4,0-0.6c0-0.2-0.1-0.5-0.1-0.7c0,0,0-0.1,0-0.2
			c0.6-0.4,1.1-1.1,1.5-1.7c0,0.1,0.2,0.1,0.2,0.1c0.1,0.1,0.3,0.3,0.4,0.3c0.1,0.1,0.3,0.2,0.4,0.3c-0.1,0.3-0.1,0.5,0.1,0.8
			c0.3,0.3,0.8,0.5,1.2,0.2c0.3-0.3,0.5-0.8,0.2-1.2c-0.2-0.3-0.6-0.5-1-0.3c-0.4-0.3-1-0.6-1.2-0.7c0.2-0.4,0.5-0.8,0.6-1.1
			c0.3-0.5,0.5-1.1,0.7-1.6c0.1,0,0.2,0.1,0.3,0.1c0.2,0.1,0.4,0.2,0.6,0.2c0.1,0,0.2,0.1,0.3,0.1c0,0.1,0.1,0.2,0.1,0.3
			c0.2,0.3,0.7,0.4,1,0.2c0.3-0.2,0.4-0.7,0.2-1c-0.2-0.3-0.7-0.4-1-0.2c-0.1,0-0.1,0-0.1,0.1c-0.5-0.1-1.1-0.2-1.2-0.2
			c0.3-0.7,0.4-1.4,0.5-2.2l0,0l0,0c0.2,0,0.5,0.1,0.7,0.1s0.4,0.1,0.6,0v0.1c0.2,0.3,0.6,0.4,0.8,0.1c0.2-0.2,0.4-0.6,0.1-0.8
			c-0.2-0.2-0.6-0.4-0.8-0.1c-0.1,0-0.1,0.1-0.1,0.2l0,0c-0.4-0.1-0.8-0.1-1.2-0.1c0.1-0.5,0.2-1,0.2-1.5c0.2,0,0.3,0,0.4,0
			c0.2,0,0.6,0,0.8,0c0.2,0,0.3,0,0.5-0.1v0.1c0.2,0.3,0.7,0.4,1,0.2c0.3-0.2,0.4-0.7,0.2-1s-0.7-0.4-1-0.2
			c-0.1,0.1-0.2,0.2-0.3,0.3c-0.6,0-1.1,0-1.7,0.1c0-0.5,0-1,0-1.5c0.1,0,0.1,0,0.2,0c0.2-0.1,0.4-0.1,0.5-0.2
			c0.2-0.1,0.3-0.1,0.5-0.2c0.2,0.2,0.6,0.2,0.9,0.1c0.3-0.2,0.4-0.7,0.2-0.9c-0.2-0.3-0.7-0.4-0.9-0.2c-0.2,0.1-0.3,0.3-0.3,0.5
			l0,0c-0.3,0.1-0.7,0.3-1,0.5c0-0.1,0-0.2-0.1-0.3c-0.1-0.4-0.3-0.8-0.6-1.1l0,0c0.1,0,0.1-0.1,0.2-0.2c0.2-0.2,0.4-0.4,0.6-0.5
			c0.1-0.1,0.2-0.2,0.3-0.3c0.2,0.1,0.5,0.1,0.7-0.1c0.3-0.2,0.4-0.7,0.2-1c-0.2-0.3-0.7-0.4-1-0.2c-0.2,0.2-0.3,0.4-0.3,0.7
			c0,0,0,0.1-0.1,0c-0.4,0.4-0.7,0.6-0.9,1c0-0.1-0.1-0.1-0.2-0.2c-0.5-0.2-1-0.3-1.4-0.2c0-0.1,0-0.1,0.1-0.1
			c0.1-0.2,0.1-0.5,0.1-0.7s0-0.3,0-0.5c0.1,0,0.2,0,0.2-0.1c0.3-0.3,0.4-0.7,0.2-1.1c-0.3-0.3-0.7-0.4-1.1-0.2
			c-0.3,0.3-0.4,0.7-0.2,1.1c0,0.1,0.2,0.2,0.3,0.3c0,0.5,0,1,0,1.4l0,0c-0.7,0.2-1.4,0.6-2.1,1.3c-0.4-0.3-0.8-0.5-1-0.7l0,0
			c0.1-0.2,0.1-0.5,0-0.7C343.3-121.1,343-121.2,342.6-121z M344-111.1c0.2-0.1,0.4-0.1,0.5,0.1s0.1,0.4-0.1,0.5
			c-0.2,0.1-0.4,0.1-0.5-0.1C343.8-110.8,343.8-111,344-111.1z M345.9-112.6c0.2-0.2,0.5-0.1,0.6,0.1c0.2,0.2,0.1,0.5-0.1,0.6
			c-0.2,0.2-0.5,0.1-0.6-0.1C345.6-112.2,345.7-112.5,345.9-112.6z M347.8-116.9c-0.2,0.1-0.4,0.1-0.5-0.1c-0.1-0.2-0.1-0.4,0.1-0.5
			c0.2-0.1,0.4-0.1,0.5,0.1C348-117.4,348-117,347.8-116.9z M346-114c-0.2-0.3-0.1-0.8,0.2-1c0.3-0.2,0.8-0.1,1,0.2
			c0.2,0.3,0.1,0.8-0.2,1S346.3-113.7,346-114z M344-114.4c0.4-0.3,0.9-0.1,1.2,0.2c0.3,0.3,0.1,0.9-0.2,1.2
			c-0.4,0.3-0.9,0.1-1.2-0.2C343.5-113.6,343.6-114.1,344-114.4z M345.3-116.7c0.2-0.2,0.5-0.1,0.7,0.1c0.2,0.2,0.1,0.5-0.1,0.7
			c-0.2,0.2-0.5,0.1-0.7-0.1C345.1-116.2,345.1-116.6,345.3-116.7z"/>
		<path id="XMLID_147_" fill="#E69C0E" d="M392.7-120c-0.4-0.4-1-0.4-1.7,0l-2.6-4.7c0.7-0.6,1.3-1.2,1.8-1.9
			c0.3-0.4,0.5-0.7,0.8-1.1l2.2,1.5c-0.3,1-0.2,1.8,0.3,2c0.6,0.3,1.5-0.4,2.1-1.5c0.6-1.2,0.5-2.3-0.1-2.6c-0.4-0.2-1,0.1-1.5,0.7
			l-2-2c0.5-1.4,0.8-2.8,0.8-4.3l3.3,0.1c0.3,0.8,0.8,1.3,1.4,1.2c0.7-0.1,1.2-1.2,1-2.4c-0.2-1.2-0.9-2.1-1.6-2
			c-0.5,0.1-0.8,0.5-0.9,1.1l-3.5-0.9c-0.2-1.1-0.7-2.1-1.2-3.1l3.3-2.7c0.6,0.5,1.2,0.7,1.6,0.5c0.6-0.4,0.5-1.5-0.1-2.5
			c-0.6-1-1.6-1.6-2.2-1.2c-0.4,0.2-0.5,0.9-0.3,1.5l-4.1,2c-0.5-0.6-1-1-1.6-1.5c-0.1,0-0.1,0-0.1-0.1l2.2-5.2
			c0.9,0.3,1.9,0.3,2.3-0.3c0.5-0.8,0-2.1-1.2-2.9c-1.2-0.8-2.6-0.9-3.1-0.1c-0.4,0.6-0.1,1.5,0.5,2.2l-3.2,4.8
			c-1.3-0.5-2.6-0.9-4.1-0.9v-3.5c0.8-0.1,1.4-0.6,1.5-1c0.1-0.7-0.8-1.4-2.2-1.6c-1.2-0.1-2.4,0.4-2.4,1.1
			c-0.1,0.7,0.7,1.3,1.6,1.6l-0.8,3.6c-1.2,0.2-2.4,0.5-3.4,1l-2.8-4.8c0.6-0.7,0.8-1.5,0.4-2c-0.5-0.7-1.9-0.7-3.1,0.2
			c-1.2,0.8-1.8,2.1-1.3,2.8c0.4,0.7,1.6,0.7,2.7,0.1l1.9,5c-0.9,0.7-1.7,1.4-2.4,2.4c-0.3,0.4-0.6,0.8-0.8,1.2l-3.6-0.6
			c0-0.8-0.3-1.6-0.9-1.7c-0.8-0.2-1.6,0.5-2,1.7c-0.3,1.2,0,2.3,0.8,2.5c0.7,0.2,1.4-0.3,1.8-1.2l3,1.1c-0.4,1-0.7,2-0.8,3.1
			l-6.6,2.5c-0.5-0.8-1.3-1.3-1.9-1.1c-0.8,0.3-1,1.6-0.4,2.9c0.5,1.3,1.5,2.1,2.3,1.8c0.6-0.3,0.9-1.3,0.6-2.4l6.1-1.3
			c0.1,1.2,0.4,2.3,0.8,3.3l-4,3.2c-0.6-0.4-1.2-0.6-1.6-0.3c-0.5,0.4-0.5,1.4,0.2,2.3c0.6,0.8,1.6,1.2,2.1,0.8
			c0.4-0.4,0.5-1.1,0.1-1.8l4.1-2.3c0.8,1.3,1.8,2.5,3.1,3.5l0,0l-2,5.6c-1.1-0.3-2.1-0.1-2.4,0.6c-0.4,0.8,0.5,1.9,1.8,2.5
			c1.3,0.5,2.7,0.4,3-0.4c0.3-0.6-0.1-1.3-0.8-1.9l2.8-5c1.7,0.8,3.5,1.1,5.3,1.1l1.1,3.3c-0.8,0.2-1.4,0.8-1.4,1.3
			c0,0.8,1.1,1.4,2.4,1.4c1.3,0,2.4-0.7,2.4-1.5c0-0.7-0.8-1.3-1.9-1.4l-0.6-3.3c1.4-0.3,2.7-0.8,3.9-1.5l3.2,4.3
			c-0.9,1-1.2,2.1-0.7,2.6c0.6,0.6,1.8,0.3,2.8-0.7C392.9-118.2,393.3-119.4,392.7-120z M374.1-136.9c-0.3,0.5-1,0.5-1.4,0.2
			c-0.5-0.3-0.5-1-0.2-1.4c0.3-0.5,1-0.5,1.4-0.2C374.4-138,374.5-137.4,374.1-136.9z M380.6-137.8c-0.7,0.8-1.9,1-2.7,0.4
			c-0.8-0.7-1-1.9-0.4-2.7c0.7-0.8,1.9-1,2.7-0.4C381.1-139.8,381.3-138.6,380.6-137.8z M375.2-130.3c-0.7,1-2.1,1.1-3,0.4
			c-1-0.7-1.1-2.1-0.4-3c0.7-1,2.1-1.1,3-0.4C375.7-132.6,375.9-131.2,375.2-130.3z M384.9-139.6c-0.3,0.5-1,0.5-1.4,0.2
			c-0.5-0.3-0.5-1-0.2-1.4c0.3-0.5,1-0.5,1.4-0.2C385.3-140.7,385.3-140,384.9-139.6z M383.3-132.1c-0.4,0.6-1.3,0.7-2,0.3
			c-0.6-0.4-0.7-1.3-0.3-2c0.4-0.6,1.3-0.7,2-0.3C383.6-133.7,383.8-132.8,383.3-132.1z M380-127.8c-0.3,0.5-1,0.5-1.4,0.2
			c-0.5-0.3-0.5-1-0.2-1.4c0.3-0.5,1-0.5,1.4-0.2C380.3-128.9,380.4-128.2,380-127.8z M388.2-134c-0.3,0.4-0.9,0.5-1.4,0.2
			c-0.4-0.3-0.5-0.9-0.2-1.4c0.3-0.4,0.9-0.5,1.4-0.2C388.4-135.1,388.5-134.4,388.2-134z M386.7-127.5c-0.6,0.8-1.7,0.9-2.5,0.3
			c-0.8-0.6-0.9-1.7-0.3-2.5s1.7-0.9,2.5-0.3C387.1-129.3,387.2-128.3,386.7-127.5z"/>
		<circle id="XMLID_146_" fill="#FFFF06" cx="387.8" cy="-192.8" r="4.6"/>
		<circle id="XMLID_144_" fill="#FFFF06" cx="427.7" cy="-151.5" r="2.7"/>
		<circle id="XMLID_138_" fill="#FFFF06" cx="386.8" cy="-102.5" r="2.7"/>
		<circle id="XMLID_132_" fill="#E69C0E" cx="413.3" cy="-131.4" r="3.7"/>
		<circle id="XMLID_130_" fill="#FFFF06" cx="329.8" cy="-165.9" r="3.7"/>
		<circle id="XMLID_115_" fill="#FFFF06" cx="387.6" cy="-166.4" r="2"/>
		<circle id="XMLID_110_" fill="#FFFF06" cx="327.9" cy="-136.9" r="2"/>
		<circle id="XMLID_109_" fill="#F4B07F" cx="342.6" cy="-146.6" r="1.6"/>
		<circle id="XMLID_108_" fill="#FFFF06" cx="407" cy="-211.6" r="2"/>
		<circle id="XMLID_106_" fill="#F4B07F" cx="407" cy="-211.6" r="1.6"/>
	</g>
</g>
<path fill="#365996" d="M426.7-219.7c-14.3-10.1-31.1-15.5-48.6-15.5c-27.5,0-53.2,13.4-68.8,35.8c-12.6,18-17.5,39.9-14,61.7
	c3.6,22.4,15.9,42,34.7,55.2c13.9,9.8,30.3,15,47.6,15c27.4,0,53.2-13.4,69-35.7C473.1-141,464.2-193.3,426.7-219.7z M378.1-232.7
	c16.9,0,33.2,5.2,47.1,15c36.4,25.7,45,76.5,19.3,113.1C429.3-82.9,404.3-70,377.6-70c-16.6,0-32.5-5-46.1-14.5
	c-18.3-12.9-30.2-31.9-33.7-53.7c-3.4-21.3,1.4-42.5,13.6-59.8c15-21.6,39.7-34.6,66.2-34.8v0.1
	C377.6-232.7,378.1-232.7,378.1-232.7z"/>
<g>
	<path fill="#3A6184" d="M36.2,509.8c0.3-0.7,0.7-1.2,1.1-1.8C50,490.9,191.1,306.8,203.9,289.9c13.4-17.9,27.1-35.8,40.1-54.1
		c2.2-3.3,2.4-3.3,5.9-1.8c5.7,2.4,11.3,5,16.6,8.1c11.8,6.9,22.1,15.6,30.3,26.7c0.8,1.1,1.6,2.4,2.6,3.5c1.5,1.7,1.3,3.2,0.2,4.9
		C289,294,125,565.1,114.3,581.9c-3.7,5.7-7,11.7-11.1,17.1c-30-1.2-88.1-24-66.6-88.6C36.5,510.2,36.5,510,36.2,509.8z"/>
	<path fill="#BA8356" d="M349.4,130.9c9.2,1.7,17.9,4.7,26.2,8.6c0.1,0.1,0.4,0.3,0.5,0.4c1.5,1.3,3.1,2.1,4.5,3.5
		c1.1,1.1,1.1,2.2,0.2,3.4c-1.3,1.6-2.5,3.1-3.9,4.5c-4.6,4.9-10.2,6.3-16.7,5.4c-2.5-0.3-5.1-0.9-7.5-1.6c-1.4-0.4-2.6-0.2-3.7,0.9
		c-1.9,1.9-3.9,3.8-6.1,5.5c-0.8,0.7-1.3,1.5-1.3,2.7c0.1,8.9,0.8,18,1.2,26.9c0.4,8.2,0.8,16.3,1.3,24.4c0.5,8.6,0.8,17.3,1.4,25.9
		c0.1,1.5,0.4,3.2-0.6,4.7c-4.4,1.6-8.8,2.3-13.3,2.9c-7.4,1-14.8,1.3-22.2-0.1c-1.2-0.2-1.8,0.1-2.4,1.2c-1.7,3.5-3.4,6.9-5.4,10.3
		c-1.7,2.7-2.7,6-5.1,8.3c-7.7-10.1-17-18.4-27.7-25c-6.1-3.7-12.5-6.6-18.9-9.5c7-8.4,14.7-16.2,22.6-23.8c1-0.9,1.4-1.8,1.3-3.1
		c-0.1-2.7,0.4-5.3,0.8-7.9c1.4-7.8,4.9-14.6,9.3-21.1c6.5-9.4,14.5-17.3,23.4-24.3c6.7-5.2,13.6-10.2,21.2-14.2
		c3.7-2,7.3-4.1,10.9-6.1C342.3,131.4,345.7,130.7,349.4,130.9z"/>
	<path fill="#698CC8" d="M378.5,150.9c4.9,0.1,9.7,0.2,14.7,0.2c0.7,0,1.4,0,1.9,0.4c0.3,0.1,0.4,0.4,0.5,0.7c0.3,1,0.2,1.8,0.2,2.7
		c-0.7,28.2-0.2,56.5-0.9,84.7c-0.2,2.2-0.1,4.4,0.2,6.6c0.3,1.5,0.2,3,0.1,4.5c0,1-0.2,1.9-1.1,2.3c-13.3-0.2-26.7-0.4-40-0.5
		c-4.5-0.1-7.7-1.8-9.1-6.2c-0.2-2.7-0.3-5.5-0.4-8.2c-0.2-5.6-0.4-11.3-0.7-16.9c-0.5-10.3-1.2-20.6-1.7-30.9
		c-0.5-8.8-0.8-17.6-1.4-26.4c0-1,0.3-1.6,1-2.2c1.7-1.5,3.6-2.7,4.9-4.4c2.4-3.1,5-3.3,8.7-2.2c7.9,2.5,15.5,2,21.7-4.3
		C377.5,151,378.1,150.7,378.5,150.9z"/>
	<path fill="#B3C5E2" d="M338.4,115c-0.2-4.7,1.1-6,5.7-5.9c27.4,0.4,54.8,0.9,82.3,1.3c0.8,0,1.6-0.2,2.5,0.3
		c-0.7,0.7-1.5,0.7-2.5,0.6c-5.5-0.1-10.8,0-16.3-0.3c-3.6-0.1-7.1-0.1-10.7-0.2c-3.2-0.1-3.3,0.1-3.3,3.1
		c-0.1,7.8-0.2,15.6-0.4,23.4c0,1.1,0.1,2.3-0.7,3.4c-0.6,0.3-1.2,0.4-1.8,0.4c-5.1-0.1-10.3-0.2-15.4-0.2c-0.8,0-1.5-0.2-2.2-0.6
		c-0.6,0.3-1.1-0.2-1.6-0.4c-5.8-3-11.9-4.9-18.1-6.6c-5.5-1.5-11.1-2.8-16.5,0.4C339.1,127.5,338.9,121.2,338.4,115z"/>
	<path fill="#86A3D2" d="M397.4,151c3.3,0.1,6.4,0.1,9.7,0.2c0.7,0,1.5,0,2,0.6c0.7,1.1,0.5,2.5,0.5,3.7c-0.1,9.3-0.3,18.5-0.6,27.8
		c0.3,7.1-0.6,14.3-0.8,21.4c-0.1,12.3-0.3,24.8-0.6,37.2c-0.1,3.8-0.4,7.7-0.9,11.4c-4.2-0.1-8.5-0.1-12.7-0.2
		c0.4-0.8,0.4-1.6,0.5-2.5c0.2-2.5-0.3-4.8-0.3-7.3c0.2-19.2,0.8-38.5,0.5-57.9c-0.2-11.2,0.2-22.5,0.4-33.7
		C395.7,151.2,396.6,151.2,397.4,151z"/>
	<path fill="#BA8356" d="M424.9,206.9c-0.6,0.1-0.8,0.5-1.1,0.5c0.3,0,0.8-0.4,1.4-0.4c1.1,0,2.2-0.4,3.2,0.2c4,1,5.7,3.8,5.4,8.3
		c-0.3,4.4-3.1,7.6-7.1,8.1c-1.8,0.2-3.6,0.6-5.4,0.9c-3.9,1.9-7.3,1.1-9.6-2.2c-1.2-1.8-2-3.9-1.7-6.1c0.3-3,2.4-5.2,4.8-6.9
		c-6.5-2.3-8.5-11.2-1.9-15.8c1.5-1.1,3-1.6,4.8-2c1-0.3,1.8-0.2,2.7-0.4c0.7-0.3,1.4-0.4,2.2-0.4c-1,0.1-1.9,0.1-2.8,0.5
		c-1,0-1.8,0.2-2.8,0.5c-4.8,1.3-7-1.2-8.2-4.7c-0.3-1.1-0.4-2.3-0.4-3.6c-0.2-3.6,0.9-6.6,4-8.4c4.3-2.7,9.1-2.6,13.9-2.2
		c1.6,0.3,3.3-0.2,4.9-0.3c6.7-0.4,9.4,4.1,7.8,11c-0.7,3.7-3.5,5.7-7.6,6.5c2.5,1,3.8,2.5,4,4.6c0.7,5.8-0.9,10.7-7.7,11.7
		C427.1,206.9,426.1,206.9,424.9,206.9z"/>
	<path fill="#B3C5E2" d="M432.1,115.4c-0.7,8.6-1.6,17.1-2.5,25.7c-0.1,0.4-0.6,0.7-1,0.8c-5.9,0.3-11.7,0-17.6-0.1
		c-0.5,0-1.2-0.2-1.6-0.7c-0.5-0.8-0.5-1.9-0.5-2.9c0.1-8.2,0.3-16.5,0.4-24.7c0-1.1-0.1-2.2,0.7-3c6.2,0,12.5,0.1,18.8,0.2
		C431.5,111.3,432.3,112.1,432.1,115.4z"/>
	<path fill="#698CC8" d="M420.9,229.9c-0.6,5.7-1,11.6-1.8,17.4c-0.3,3-2.1,5.2-5.3,6.1c-2.3,0.6-4.7,0.2-7,0.2
		c-0.4-0.8-0.4-1.7-0.4-2.5c-0.1-2.3,0.5-4.7,0.5-6.8c0.3-20.3,0.5-40.4,1.2-60.6c0.1-0.3,0.3-0.1,0.4,0c1.5,7,2.6,8,8.5,7.8
		c0.6-0.3,0.5,0,0.5,0.4c-1.1,0.4-2.1,0.7-3,1.2c-4.1,2.1-6.1,5.5-5.4,9.4c0.8,3.6,2.9,5.8,6.8,6.6c-1,0.8-1.8,1.5-2.6,2.2
		c-2.9,2.6-3.7,6-2.1,9.4c1.7,3.5,4.2,4.6,8.4,4c0.6-0.1,1.1-0.1,1.6-0.1C421.3,226.2,421.1,227.8,420.9,229.9z"/>
	<path fill="#BA8356" d="M422.4,172.4c-3.2,1-5.9,0-7.9-2.2c-4.4-4.9-2.5-13.6,3.7-16.3c1.9-0.8,3.9-1.3,5.8-2.1
		c1.4-0.4,2.9-1.6,4.5-0.6c4,0.3,6.3,2.7,7.4,6.2c1.2,3.3,0,6.2-2.3,8.7c-2,2-4.3,3.1-6.8,4C425.7,171.6,423.9,171.9,422.4,172.4z"
		/>
	<path fill="#8EA8D6" d="M410.4,152.8c-0.5,0-1-0.3-1.4-0.7c-4.5-0.1-9.2-0.1-13.7-0.2l0,0c-0.1-0.3,0-0.5,0.3-0.7
		c1-0.5,1.9-0.4,2.9-0.4c2.5,0,4.8,0.1,7.3,0.1c2.3,0,2.6-0.2,2.6-2.6c0-1.8,0.1-3.4,0.5-5.2c0.3-1.2,0.9-1.8,2.2-1.7
		c3.7,0.1,7.4,0.1,11.1,0.2c2.3-0.1,4.7,0.3,7-0.2c0-0.1,0.1-0.3,0.3-0.4c-0.3,3.4-0.7,6.8-1,10.3c-1.5-0.2-2.9,1.1-4.4,1
		C419.6,153.3,414.9,152.7,410.4,152.8z"/>
	<path fill="#698CC8" d="M419.4,154.1c-5.1,2-7.2,5.2-6.6,10.7c0.6,5.8,4.9,8.6,10.5,6.6c1.1-0.4,2.3-0.8,3.4-1.2
		c0,0.8-0.2,1.8-0.3,2.6c-2.6,0.2-5.2,0.6-7.8,0.8c-5.6,0.3-10.2,4.6-9.8,9.9c-0.1,0-0.3,0-0.4,0c0.2-10.6,0.3-21,0.5-31.5
		c5.1,0.1,10.1,0.2,15.2,0.2C422.7,153.2,421.1,153.5,419.4,154.1z"/>
	<path fill="#A65525" d="M425,206.9c0-0.1,0-0.1,0.1-0.3c1-0.1,1.8-0.2,2.7-0.4c0.3,0.3,0.5,0.6,0.8,0.8c-1.2,0-2.5,0-3.7-0.1
		C424.9,207,424.9,207,425,206.9z"/>
	<path fill="#8DA7D6" d="M379,151.6c-0.7,0-1.6,0.2-2.3-0.4c1.3-1.4,2.2-2.8,3.5-4.2c0.8-0.9,0.7-1.6-0.1-2.5
		c-1.2-1.4-3-2.2-4.3-3.5c6-0.5,12.2,0.1,18.2,0c0.8,0,1.4,0.4,1.5,1.1c0.6,3.2,1.1,6.2-0.3,9.2c0,0.1,0,0.3,0,0.4
		C390,151.6,384.6,151.5,379,151.6z"/>
	<path fill="#A4B9DD" d="M375.7,140.7c6.4,0.1,12.9,0.2,19.3,0.3c0.1-0.1,0.3-0.4,0.6-0.4c4.4-0.5,8.9-0.4,13.4,0.2
		c0.3,0.1,0.4,0.3,0.5,0.4c6.6,0.1,13,0.2,19.6,0.3c-0.7,0.7-1.5,0.4-2.3,0.4c-5.1-0.1-10.1-0.2-15.2-0.2c-1.4,0-1.9,0.2-2.2,1.7
		c-0.4,1.9-0.3,4-0.4,6c0,1.6-0.4,2.2-2.2,2.2c-4-0.2-7.8-0.1-11.7-0.2c0-2.5,0.2-4.8,0.1-7.1c0-1.9-0.5-3.2-3-3.1
		c-5.5,0-11-0.2-16.5-0.3C375.7,140.8,375.7,140.7,375.7,140.7z"/>
	<path fill="#C3D0E7" d="M395.4,112.2c0-1.5,0.4-2,2.1-2c4.2,0.1,8.4,0.1,12.6,0.2c-0.2,10.1-0.3,20.4-0.5,30.6
		c-4.9-0.1-9.7-0.2-14.7-0.2C395.1,131.3,395.2,121.7,395.4,112.2z"/>
	<path fill="#6780AC" d="M420.2,191c0,0,0.1,0,0.3,0c0.1,0.1,0.1,0.3,0,0.4c-0.8,0.1-1.8,0.2-2.6,0.4c-0.1-0.1-0.4-0.3-0.5-0.4
		C418.3,190.7,419.2,191,420.2,191z"/>
	<path fill="#635C57" d="M422.9,190.8c-0.8,0.3-1.5,0.4-2.3,0.5c-0.1-0.1-0.3-0.3-0.4-0.4C421,190.2,422,190.7,422.9,190.8z"/>
	<path fill="#8B4A20" d="M423.5,207.1c0.6-0.1,1-0.4,1.5-0.5c0,0.1,0,0.3,0,0.4C424.6,207.6,424,207.7,423.5,207.1z"/>
</g>
<g>
	<circle fill="#365996" cx="479.1" cy="55.9" r="4"/>
	<path fill="none" stroke="#365996" stroke-width="1.5" stroke-miterlimit="10" d="M430.4-84c0,0,49,53.7,49.2,134.2"/>
</g>
</svg>
