<?xml version="1.0" encoding="utf-8"?>
<!-- Generator: Adobe Illustrator 19.0.0, SVG Export Plug-In . SVG Version: 6.00 Build 0)  -->
<svg version="1.1" id="Layer_1" xmlns="http://www.w3.org/2000/svg" xmlns:xlink="http://www.w3.org/1999/xlink" x="0px" y="0px"
	 viewBox="85 -75 480 600" enable-background="new 85 -75 480 600" xml:space="preserve">
<rect x="85" y="-75" fill="#BEC4CE" width="480" height="600"/>
<g>
	<path fill="#698CC8" d="M361.7,258c7.8,4.3,15.2,2.5,22.1-2.2c3.2-2.2,5.7-2.7,8.9-0.3c1.7,1.3,4,1.9,6,2.8
		c0.8,0.4,1.3,0.8,1.5,1.8c2.1,8.6,4.2,17.1,6.3,25.7c2.4,10,4.8,20.1,7.2,30.1c1.3,5.5,2.8,10.9,4.2,16.3c0.7,2.6,1.3,5.3,2,8
		c-0.1,4.7-2.6,7.2-7,8.5c-12.8,3.9-25.5,8-38.3,12c-1.1-0.2-1.5-1-1.8-1.9c-0.5-1.4-1.1-2.9-1.3-4.4c-0.3-2.2-1-4.3-1.7-6.4
		c-8.9-26.8-16.4-54.1-25.1-80.9c-0.3-0.9-0.6-1.7-0.5-2.7c0-0.3,0.1-0.6,0.3-0.8c0.5-0.5,1.1-0.8,1.8-1c4.6-1.5,9.3-3,13.9-4.4
		C360.6,258,361.2,258.1,361.7,258z"/>
	<path fill="#BBCEEA" d="M392.8,230.7c-6.1-1.6-11,1.3-15.9,4.3c-5.5,3.4-10.8,7.1-15.5,11.5c-0.4,0.4-0.8,0.9-1.5,0.9
		c-0.5,0.6-1.1,1-1.9,1.2c-4.9,1.6-9.8,3.1-14.7,4.6c-0.6,0.2-1.2,0.3-1.8,0.1c-1.1-0.7-1.4-2-1.7-3.1c-2.4-7.4-4.7-14.9-7.1-22.3
		c-0.9-2.9-1.1-3-4.1-2.1c-3.4,1-6.8,2.2-10.2,3.2c-5.1,1.8-10.3,3.3-15.5,5c-0.9,0.3-1.7,0.6-2.6,0c0.6-0.7,1.5-0.8,2.2-1
		c26.1-8.3,52.3-16.6,78.4-24.8c4.5-1.4,6-0.5,7.1,4.1C389.6,218.5,391.2,224.6,392.8,230.7z"/>
	<path fill="#698CC8" d="M344.4,263.9c3.4,10.7,7,21.4,10.1,32.2c5.3,18.6,11.4,36.9,17.1,55.4c0.7,2.3,0.9,4.8,1.8,7
		c0.3,0.8,0.5,1.6,1.2,2.2c-4.1,1.3-8.1,2.6-12.2,3.9c-1.5-3.5-2.9-7-4.1-10.6c-3.8-11.8-7.6-23.6-11.2-35.4
		c-2.1-6.8-5.1-13.3-6.8-20.3c-2.9-8.8-5.7-17.6-8.5-26.5c-0.4-1.2-1-2.4-0.6-3.8c0.4-0.7,1.1-1,1.9-1.2c3.1-1,6.1-2,9.2-2.9
		C343,263.7,343.7,263.5,344.4,263.9z"/>
	<path fill="#5D3400" d="M328.9,325.5c-6.9,1-9.8-3.2-10.8-8.9c-0.3-2,0.4-3.9,2.5-5.6c-4.2,0.4-7.4-0.7-9.2-4
		c-3.4-6.1-2.2-11.2,4.4-12.8c1.6-0.4,3.3-0.4,4.9-1.1c4.5-1.7,9.1-3.1,13.9-1.8c3.5,0.9,5.4,3.4,6.2,6.9c0.4,1.1,0.7,2.3,0.6,3.5
		c-0.1,3.6-1.5,6.6-6.5,6.8c-0.9,0-1.9,0.1-2.8,0.4c-0.9-0.1-1.8,0.2-2.7,0.4c0.7-0.2,1.5-0.4,2.3-0.3c0.9-0.1,1.8-0.4,2.7-0.4
		c1.7-0.2,3.4-0.1,5.2,0.5c7.6,2.5,8.3,11.6,2.7,15.6c2.8,1,5.3,2.4,6.5,5.3c0.9,2.1,0.8,4.2,0.1,6.2c-1.2,3.8-4.3,5.6-8.6,4.9
		c-1.8,0.2-3.6,0.4-5.4,0.7c-4,0.7-7.6-1.6-9.2-5.8c-1.6-4.3-0.7-7.4,2.7-9.5c0.8-0.8,2-0.7,2.9-1.1c0.6-0.1,1.1,0,1.4,0
		c-0.2,0.1-0.7-0.2-1.2-0.1C330.6,325.6,329.7,325.9,328.9,325.5z"/>
	<path fill="#BBCEEA" d="M300.4,234.2c6-1.9,12-3.7,18-5.6c1,0.6,1.3,1.7,1.6,2.7c2.5,7.8,5,15.7,7.4,23.5c0.3,0.9,0.6,1.9,0.4,2.9
		c-0.3,0.6-0.8,0.9-1.4,1.1c-5.6,1.8-11.1,3.7-16.8,5.2c-0.5,0-0.9-0.1-1.1-0.6c-2.1-5.1-4.2-10.3-6.3-15.4
		c-1.2-2.8-2.3-5.7-3.5-8.5C297.6,236.6,298,235.5,300.4,234.2z"/>
	<path fill="#698CC8" d="M340.1,341c0.5-0.1,1-0.3,1.5-0.4c4.3-0.6,6.3-2.4,6.9-6.3c0.6-3.8-1.1-6.8-4.7-8.5c-1-0.4-2-0.8-3.2-1.2
		c3.4-1.8,4.9-4.6,4.5-8.3c-0.4-3.9-3.3-6.6-7.8-7.4c-1-0.2-2.1-0.2-3.2-0.2c-0.2-0.4-0.2-0.6,0.4-0.6c5.7-1.6,6.4-2.8,5.9-10
		c0.1-0.2,0.2-0.3,0.4-0.1c6.7,19.1,12.6,38.4,18.8,57.7c0.7,2.2,1.9,4.1,2.5,6.3c0.2,0.8,0.6,1.6,0.3,2.4c-2.2,0.7-4.3,1.8-6.8,1.8
		c-3.3,0.1-5.6-1.5-6.9-4.3c-2.4-5.3-4.5-10.8-6.7-16.2C341.4,344.2,340.8,342.6,340.1,341z"/>
	<path fill="#5D3400" d="M319.4,290.6c-2.7-0.1-5.3-0.5-7.7-1.9c-3-1.7-4.9-4.2-4.8-7.7c0.1-3.7,1.7-6.6,5.3-8.1
		c1.3-1.4,3-0.7,4.6-0.7c2,0.3,4.1,0.2,6.1,0.4c6.7,0.7,11.1,8.5,8.2,14.6c-1.3,2.8-3.7,4.5-6.9,4.3
		C322.7,291.4,320.9,291.7,319.4,290.6z"/>
	<path fill="#698CC8" d="M316.9,272.7c-1.5,0.4-3.1-0.3-4.6,0.3c-1.3-3.2-2.6-6.4-3.9-9.6c0.1,0.1,0.3,0.2,0.4,0.3
		c2.4-0.2,4.5-1.2,6.7-1.9c3.6-1.1,7.1-2.2,10.6-3.4c1.3-0.4,2-0.1,2.6,1c0.9,1.5,1.4,3.2,2,4.8c0.8,2.3,1,2.4,3.3,1.7
		c2.3-0.7,4.6-1.5,6.9-2.2c0.9-0.3,1.9-0.7,2.9-0.5c0.3,0.1,0.5,0.3,0.4,0.6l0,0c-4.4,1.4-8.7,2.8-13.1,4.2c-0.3,0.5-0.7,0.9-1.2,1
		C325.8,270.5,321.6,272.4,316.9,272.7z"/>
	<path fill="#698CC8" d="M316.9,272.7c4.8-1.5,9.6-3.1,14.4-4.6c3.2,10,6.4,20,9.5,30c-0.1,0-0.2,0.1-0.4,0.1
		c-1.1-5.1-6.6-7.9-12.2-6.7c-2.6,0.6-5.2,1-7.8,1.5c-0.4-0.8-0.7-1.6-1.1-2.4c1.2,0.1,2.4,0.1,3.6,0.2c5.8,0.3,9.3-3.6,8.2-9.4
		c-1-5.4-3.9-7.9-9.4-8.4C320.2,273,318.5,273.1,316.9,272.7z"/>
	<path fill="#A55421" d="M331.8,325.4c-1.2,0.4-2.3,0.7-3.5,1.1c0.2-0.3,0.4-0.7,0.6-1c0.9-0.1,1.8-0.3,2.8-0.4
		c0.2,0,0.2,0.1,0.2,0.2C331.8,325.4,331.8,325.4,331.8,325.4z"/>
	<path fill="#698CC8" d="M344.4,263.9c0-0.1-0.1-0.3-0.1-0.4c-2.2-2.5-2.6-5.5-2.9-8.6c-0.1-0.7,0.3-1.3,1.1-1.5
		c5.8-1.7,11.5-3.9,17.4-5.3c-0.9,1.6-2.4,2.9-3.2,4.6c-0.5,1.1-0.5,1.8,0.6,2.4c1.5,0.9,3,2,4.5,3c-0.5,0.8-1.4,0.8-2.2,1.1
		C354.5,260.7,349.4,262.3,344.4,263.9z"/>
	<path fill="#698CC8" d="M359.8,248c-5.2,1.7-10.4,3.5-15.7,4.9c-2.4,0.7-2.5,2-2,3.8c0.6,2.3,1.4,4.5,2.1,6.8
		c-3.7,1.2-7.4,2.3-11,3.5c-1.6,0.6-2.3,0.1-2.7-1.5c-0.6-1.9-1.1-3.9-2.1-5.7c-0.7-1.3-1.3-1.5-2.6-1.1c-4.8,1.6-9.7,3.1-14.5,4.6
		c-0.8,0.2-1.5,0.8-2.4,0.3c6.2-2,12.5-4,18.7-5.9c0.1-0.2,0.2-0.4,0.4-0.5c4.1-1.9,8.4-3.3,12.9-4.1c0.2,0,0.4,0.1,0.6,0.2
		c6.1-1.9,12.3-3.9,18.4-5.8C359.9,247.7,359.9,247.8,359.8,248z"/>
	<path fill="#6780AC" d="M334.6,308.2c-0.1,0.2-0.2,0.4-0.4,0.6c-0.9,0.1-1.8,0.2-2.7,0.4c-0.1-0.1-0.3-0.3-0.1-0.5
		c0.1-0.1,0.2-0.1,0.3,0C332.7,308.4,333.6,307.9,334.6,308.2z"/>
	<path fill="#625B57" d="M331.7,308.6c-0.1,0.2-0.2,0.3-0.2,0.5c-0.8,0.1-1.6,0.1-2.4,0.2C329.9,308.8,330.7,308.2,331.7,308.6z"/>
	<path fill="#8A4815" d="M331.8,325.4c0-0.1-0.1-0.3-0.2-0.4c0.5,0,1,0.1,1.6,0.1C332.8,325.8,332.3,325.8,331.8,325.4z"/>
	<polyline fill="#698CC8" points="361.4,246.6 355.9,257.4 309.4,265.8 302.1,248 	"/>
	<path fill="#5D3400" d="M392.8,230.7c4.1,0.9,8.1,1.9,12.2,2.7c8.4,1.7,16.4,4.4,24.3,7.5c10.6,4.1,20.6,9.4,29.5,16.6
		c6.1,4.9,11.4,10.5,14.9,17.6c1.2,2.4,2.4,4.8,3,7.4c0.3,1.4,1,2,2.1,2.6c9.8,5,24.5-9.1,32.8-12.1c-5.3,4.6,10.2,33.4,5.5,38.7
		c-8.4,9.5-10,22.8-12.3,20.6c-2.8-2.6-49.1-0.1-50.2,0.5c-6.7,3.5-13.9,5.3-21.3,6.5c-4.5,0.7-9,1.2-13.6,1.1
		c-1.4-1.1-1.5-2.8-1.9-4.3c-2-8.4-4.2-16.8-6.2-25.3c-1.9-7.9-3.9-15.8-5.8-23.7c-2.1-8.7-4.2-17.5-6.5-26.1c-0.3-1.2-1-1.9-2-2.3
		c-2.6-1-5-2.3-7.4-3.6c-1.4-0.7-2.6-0.6-3.9,0.2c-2.2,1.4-4.4,2.7-6.8,3.8c-5.9,2.7-11.7,3-17.5-0.4c-1.7-0.9-3.4-1.9-5-3.1
		c-1.2-0.9-1.4-2-0.8-3.3c0.8-1.7,2.2-3,3.3-4.6c0.1-0.2,0.3-0.4,0.4-0.6c6.8-6.2,14.3-11.5,22.6-15.7
		C385.8,229.5,389.3,229.2,392.8,230.7z"/>
	<path fill="#DDD99E" d="M804.6,163.8c67.9,0.8,70.7,63.1,61.9,91.9c-6.5,2.1-13.2,3.3-19.8,4.9c-19.4,4.6-329.1,71.1-348.5,75.7
		c-2.1,0.5-3.5,0.2-4.6-1.7c-0.7-1.3-1.6-2.4-2.5-3.6c-7.8-11.3-12.7-23.8-15.3-37.3c-1.2-6.1-1.8-12.2-2.2-18.3
		c-0.1-3.8-0.1-3.9,3.7-5c21.6-6.3,42.9-13.3,64.2-20.2c20.2-6.5,240.3-79.9,260.5-86.3c0.7-0.2,1.3-0.5,2-0.4
		C804.3,163.5,804.5,163.6,804.6,163.8z"/>
	<path fill="#CEDEEA" d="M324.5,247.7c-2-6.4-4.1-12.7-6.1-19.1c4-1.3,8-2.5,12-3.9c1.5-0.5,2.1-0.2,2.6,1.4
		c2.2,7.2,4.4,13.9,6.7,21.1L324.5,247.7z"/>
</g>
<path fill="#698CC8" d="M287.4-10.3C324.7,16,333.5,68,307.1,105.6c-26.4,37.5-78.6,46.7-115.9,20.5C152,98.4,145.4,46.1,170.7,9.9
	C196.8-27.7,249.1-37.3,287.4-10.3z"/>
<g id="XMLID_8_">
	<g id="XMLID_101_">
		<path id="XMLID_189_" fill="#D2D954" d="M280.5,22.6c-0.2-0.2-0.5,0-0.7,0.1c-0.9,1.4-1.4,3.2-1.5,4.9c-0.4,0.1-0.8,0.2-1.2,0.5
			c-0.7,0.4-1.4,0.9-2.1,1.7c-0.5-0.5-1-1.1-1.4-1.8c-0.3-0.6-0.5-1.1-0.5-1.7c0-0.3-0.2-0.5-0.4-0.5c-0.3,0-0.5,0.2-0.5,0.4
			c0,0.7,0.2,1.5,0.6,2.2c0.4,0.8,1,1.4,1.6,2c-1.1,1.1-2.1,2.3-3.1,3.7c-1-0.7-2.1-1.6-2.6-2.7c-0.1-0.2-0.4-0.4-0.6-0.2
			c-0.2,0.1-0.4,0.4-0.2,0.6c0.6,1.3,1.7,2.3,2.9,3.2c-0.9,1.3-1.7,2.5-2.4,3.8c-1.4,0-2.7-0.4-4-1.1c-0.2-0.2-0.5,0-0.7,0.1
			c-0.2,0.2,0,0.5,0.1,0.7c1.2,0.7,2.5,1.1,4,1.2c-0.7,1.4-1.3,2.7-1.5,3.7c-0.1,0.6-0.1,1.2-0.1,1.8c-1.3,0.7-2.5,0.9-4.4,0.7
			c-0.3,0-0.5,0.1-0.5,0.4c0,0.3,0.1,0.5,0.4,0.5c2,0.2,3.3,0.1,4.7-0.7c0.5,1.2,1.5,2,2.8,2.1c-0.4,1.4-1.2,2.5-2.4,3.5
			c-0.2,0.2-0.2,0.4-0.1,0.7c0.2,0.2,0.4,0.2,0.7,0.1c1.5-1.1,2.3-2.5,2.8-4.2c0.8,0,1.6-0.2,2.4-0.6c0.2,1.7,1.3,3.4,2.6,4.4
			c0.2,0.1,0.5,0.1,0.6-0.1c0.1-0.2,0.1-0.5-0.1-0.6c-1.2-0.9-2.3-2.5-2.3-4.1c1-0.6,2-1.4,3-2.5c0.4,0.4,1,0.7,1.6,0.9
			c1.3,0.7,2.9,1.2,3.8,1.3c0.3,0,0.5-0.1,0.5-0.4c0-0.3-0.1-0.5-0.4-0.5c-0.9-0.2-2.4-0.6-3.6-1.2c-0.5-0.3-1-0.5-1.4-0.9
			c1.1-1.4,2.2-2.9,3.1-4.6c1,0.9,1.9,1.9,2.5,3c0.2,0.2,0.4,0.3,0.6,0.1c0.2-0.2,0.3-0.4,0.1-0.6c-0.7-1.3-1.8-2.5-2.9-3.5
			c0.5-1.1,1-2.2,1.4-3.3c1.7,0.2,3.4-0.1,5-0.6c0.2-0.1,0.4-0.4,0.3-0.6c-0.1-0.2-0.4-0.4-0.6-0.3c-1.3,0.5-2.9,0.6-4.4,0.6
			c0.2-0.8,0.4-1.6,0.5-2.3c0.1-0.9,0-1.7-0.3-2.3c0.7-1.1,1.4-2.2,2.2-3.3c0.2-0.2,0.1-0.5-0.1-0.7c-0.2-0.2-0.5-0.1-0.7,0.1
			c-0.7,1-1.3,2-1.9,3c-0.6-0.8-1.6-1.2-2.7-1.3c0.2-1.5,0.6-3,1.4-4.3C280.8,23,280.7,22.7,280.5,22.6z M269.4,42.5
			c0.3,0.2,0.4,0.6,0.1,0.9c-0.2,0.3-0.6,0.4-0.9,0.1c-0.3-0.2-0.4-0.6-0.1-0.9C268.8,42.4,269.1,42.3,269.4,42.5z M273.3,41.9
			c0.6,0.4,0.8,1.3,0.4,1.9c-0.4,0.6-1.3,0.8-1.9,0.4c-0.6-0.4-0.8-1.3-0.4-1.9C271.8,41.6,272.7,41.5,273.3,41.9z M272.9,37.2
			c0.5,0.3,0.6,0.9,0.3,1.3c-0.3,0.4-0.9,0.5-1.4,0.2c-0.5-0.3-0.6-0.9-0.3-1.3C271.8,37,272.4,36.9,272.9,37.2z M277.7,36.4
			c0.6,0.4,0.7,1.2,0.3,1.7c-0.4,0.6-1.2,0.7-1.7,0.3c-0.6-0.4-0.7-1.2-0.3-1.7C276.4,36.2,277.2,36,277.7,36.4z M276.4,32.8
			c0.3,0.2,0.4,0.7,0.2,1c-0.2,0.3-0.7,0.4-1,0.2c-0.3-0.2-0.4-0.7-0.2-1C275.7,32.7,276.1,32.6,276.4,32.8z M279.9,31.5
			c0.5,0.3,0.6,1.1,0.3,1.5c-0.3,0.5-1.1,0.6-1.5,0.3c-0.5-0.3-0.6-1.1-0.3-1.5C278.7,31.3,279.4,31.2,279.9,31.5z"/>
		<path id="XMLID_173_" fill="#F4B07F" d="M229.9,37.4c0.2-0.6-0.2-1.3-0.8-1.5c-0.5-0.1-1.1,0.1-1.4,0.5c-0.1-0.1-0.2,0-0.3-0.1
			c-0.3,0-0.4,0-0.7-0.1c-0.4,0-0.7-0.1-1.2-0.1c0.1-1.7-0.1-3.4-0.5-5.3c0.6-0.2,1.2-0.4,1.6-0.6c0.1,0.5,0.6,0.9,1.1,1.1
			c0.9,0.2,1.8-0.2,2.1-1.1c0.2-0.9-0.2-1.8-1.1-2.1c-0.9-0.2-1.8,0.2-2.1,1.1c0,0.1-0.1,0.2-0.1,0.2c-0.3,0-0.6,0.1-0.7,0.2
			c-0.4,0.1-0.8,0.2-1.2,0.3c-0.4-1.8-1.2-3.7-2-5.3c0.5-0.3,0.8-0.8,1.2-1.2c0.1-0.1,0.2-0.2,0.4-0.5c0.1,0.1,0.2,0.2,0.4,0.2
			c0.8,0.3,1.5-0.2,1.7-0.9c0.3-0.8-0.2-1.5-0.9-1.7c-0.8-0.3-1.5,0.2-1.7,0.9c-0.1,0.2,0,0.3-0.1,0.4c-0.1,0.1-0.3,0.2-0.4,0.3
			c-0.4,0.3-0.8,0.6-1.1,0.9c-0.1,0.1-0.1,0.1-0.2,0.2c-0.8-1.3-1.7-2.4-2.6-3.4c0.1-0.1,0.1-0.1,0.1-0.2c0.5-0.7,1-1.5,1.3-2.3
			c0.7,0.1,1.3-0.3,1.5-1c0.2-0.7-0.2-1.5-0.9-1.8c-0.7-0.2-1.5,0.2-1.8,0.9c-0.1,0.4,0,0.8,0.1,1.1c-0.2,0.2-0.3,0.4-0.4,0.5
			c-0.2,0.4-0.5,0.8-0.7,1.1c-0.1,0.2-0.2,0.4-0.4,0.5c-1.4-1-2.8-1.7-4.4-1.8c0.2-0.8,0.2-1.8,0-2.5c0.3-0.2,0.5-0.4,0.6-0.8
			c0.3-0.8-0.2-1.6-1-1.9c-0.8-0.3-1.6,0.2-1.9,1c-0.3,0.8,0.2,1.6,1,1.9c0.1,0,0.1,0,0.2,0.1c0,0.2,0,0.4,0,0.4c0,0.4,0,0.9,0,1.4
			c0,0.1,0,0.4,0,0.5c-1.1,0.2-1.9,0.8-2.4,1.7c-0.3-0.3-0.7-0.7-1.1-0.9c-0.2-0.2-0.4-0.3-0.5-0.5l0,0c0.3-0.8-0.2-1.6-1-1.9
			s-1.6,0.2-1.9,1c-0.3,0.8,0.2,1.6,1,1.9c0.4,0.1,0.7,0.1,1.1-0.1c0.2,0.3,0.5,0.5,0.7,0.8c0.3,0.3,0.6,0.7,0.9,1
			c0.1,0.1,0.2,0.1,0.2,0.3c-0.3,1.3-0.4,2.6-0.3,4c-0.2,0-0.4,0-0.5,0c-0.4,0-0.7,0-1,0c-0.3,0-0.5,0-0.8,0c-0.1-0.5-0.5-0.9-1-1
			c-0.8-0.3-1.6,0.2-1.9,1c-0.3,0.8,0.2,1.6,1,1.9c0.7,0.2,1.4-0.1,1.7-0.7c0.9,0,2.1-0.2,2.5-0.3c0.1,0.8,0.2,1.6,0.4,2.2
			c0.2,1.1,0.5,2,0.9,3c-0.1,0-0.3,0.1-0.6,0.1c-0.3,0.1-0.7,0.2-1.1,0.4c-0.2,0.1-0.3,0.1-0.5,0.2c-0.2-0.1-0.3-0.2-0.5-0.3
			c-0.7-0.2-1.4,0.2-1.6,0.9s0.2,1.4,0.9,1.6s1.4-0.2,1.6-0.9c0.1-0.2,0-0.2,0-0.4c0.8-0.3,1.8-0.9,2-1c0.4,1.2,1,2.5,1.5,3.6
			c0,0,0,0,0,0.1c0,0,0,0-0.1,0c-0.3,0.2-0.7,0.5-1.1,0.6c-0.3,0.2-0.6,0.4-0.9,0.5c-0.1-0.1-0.2-0.1-0.2-0.1
			c-0.6-0.2-1.2,0.2-1.4,0.8c-0.2,0.6,0.2,1.2,0.8,1.4s1.2-0.2,1.4-0.8c0.1-0.2,0-0.3,0-0.5l0,0c0.6-0.4,1.3-0.7,1.8-1.2
			c0.4,0.8,0.9,1.6,1.4,2.4c-0.2,0.2-0.4,0.3-0.6,0.5c-0.4,0.3-0.8,0.7-1.2,1c-0.2,0.2-0.4,0.4-0.6,0.6c-0.1,0-0.1-0.1-0.2-0.1
			c-0.7-0.2-1.4,0.2-1.6,0.9c-0.2,0.7,0.2,1.4,0.9,1.6s1.4-0.2,1.6-0.9c0.1-0.2,0.1-0.5,0-0.8c0.8-0.6,1.6-1.3,2.2-2
			c0.5,0.7,1,1.4,1.7,1.9c-0.1,0.1-0.1,0.2-0.2,0.2c-0.2,0.3-0.3,0.6-0.5,0.9c-0.1,0.2-0.3,0.5-0.4,0.8c-0.6-0.1-1,0.3-1.3,0.8
			c-0.2,0.6,0.2,1.3,0.8,1.5c0.6,0.2,1.3-0.2,1.5-0.8c0.1-0.4,0.1-0.7-0.1-1l0,0c0.3-0.6,0.6-1.2,0.8-1.8c0.2,0.1,0.2,0.2,0.4,0.3
			c0.6,0.4,1.2,0.7,2,1l0,0.1c0,0.2-0.1,0.4-0.1,0.5c-0.1,0.4-0.2,0.9-0.3,1.3c0,0.2-0.1,0.4-0.1,0.7c-0.4,0.1-0.9,0.4-1,0.8
			c-0.2,0.7,0.2,1.4,0.9,1.6c0.7,0.2,1.4-0.2,1.6-0.9c0.2-0.5,0-1-0.3-1.3c0-0.1,0-0.1,0-0.2c0.1-0.8,0.3-1.7,0.2-2.5
			c0.2,0.1,0.3,0.1,0.4,0.1c0.9-0.3,1.6-0.6,2.2-1.2c0,0.1,0.1,0.2,0.1,0.2c0.2,0.3,0.4,0.7,0.6,1.1c0.2,0.2,0.3,0.5,0.4,0.7
			c-0.1,0.1-0.1,0.2-0.2,0.4c-0.3,0.8,0.2,1.6,0.9,1.7c0.8,0.3,1.6-0.2,1.7-0.9c0.2-0.7-0.2-1.6-0.9-1.7c-0.2,0-0.4-0.1-0.7-0.1
			c-0.4-0.7-1-1.3-1.5-2c0,0,0,0,0-0.1c0.8-1,1.3-2.4,1.5-4c0.9,0,1.7-0.1,2-0.1c0,0,0,0,0.1,0c0.1,0.4,0.3,0.8,0.8,1
			C229.1,38.4,229.7,38,229.9,37.4z M217.3,25c-0.1,0.4-0.5,0.6-0.9,0.5c-0.4-0.1-0.6-0.5-0.5-0.9s0.5-0.6,0.9-0.5
			C217.2,24.3,217.4,24.7,217.3,25z M216.2,29.1c-0.2,0.5-0.6,0.6-1,0.5c-0.5-0.2-0.6-0.6-0.5-1c0.2-0.5,0.6-0.6,1-0.5
			C216.1,28.3,216.3,28.8,216.2,29.1z M218.2,37.4c0.1-0.4,0.5-0.6,0.9-0.5c0.4,0.1,0.6,0.5,0.5,0.9c-0.1,0.4-0.5,0.6-0.9,0.5
			C218.3,38.1,218.1,37.7,218.2,37.4z M217.6,31.3c0.7,0.2,1,0.9,0.8,1.5c-0.2,0.7-0.9,1-1.5,0.8c-0.7-0.2-1-0.9-0.8-1.5
			C216.2,31.5,216.9,31.1,217.6,31.3z M220.9,29.5c-0.3,0.8-1.1,1.3-2,1c-0.8-0.3-1.3-1.1-1-2c0.3-0.8,1.1-1.3,2-1
			C220.7,27.9,221.2,28.7,220.9,29.5z M221.5,34.3c-0.2,0.5-0.6,0.7-1.1,0.6c-0.5-0.2-0.7-0.6-0.6-1.1c0.2-0.5,0.6-0.7,1.1-0.6
			C221.3,33.4,221.6,33.8,221.5,34.3z"/>
		<path id="XMLID_157_" fill="#F4B07F" d="M203.6,88c-0.3,0.2-0.4,0.6-0.2,0.9c0.2,0.2,0.5,0.3,0.8,0.2c0.1,0,0,0.1,0.1,0.1
			c0.1,0.1,0.2,0.1,0.2,0.2c0.2,0.1,0.3,0.3,0.5,0.4c-0.6,0.7-1.1,1.5-1.6,2.5c-0.4-0.1-0.7-0.3-1-0.3c0.1-0.3,0.1-0.6-0.1-0.8
			c-0.3-0.4-0.9-0.5-1.3-0.2c-0.4,0.3-0.5,0.9-0.2,1.3s0.9,0.5,1.3,0.2c0,0,0-0.1,0.1,0c0.1,0.1,0.3,0.2,0.3,0.2
			c0.2,0.1,0.4,0.2,0.6,0.2c-0.4,1-0.7,2-0.9,3.1c-0.3,0-0.6,0-0.9,0.1c-0.1,0-0.2,0-0.3,0.1c0-0.1,0-0.2-0.1-0.2
			c-0.3-0.3-0.7-0.4-1.1-0.2c-0.3,0.3-0.4,0.7-0.2,1.1c0.3,0.3,0.7,0.4,1.1,0.2c0.1,0,0.1-0.1,0.1-0.2c0.1,0,0.2,0,0.3,0
			c0.2,0,0.6,0,0.8,0c0.1,0,0.1,0,0.2,0c-0.1,0.9-0.1,1.7,0,2.4l-0.1,0c-0.5,0.2-1,0.3-1.3,0.6c-0.2-0.2-0.7-0.3-1-0.1
			c-0.3,0.3-0.4,0.7-0.2,1.1c0.3,0.3,0.7,0.4,1.1,0.2c0.2-0.1,0.3-0.3,0.3-0.5c0.2,0,0.3-0.1,0.4-0.1c0.3-0.1,0.5-0.2,0.7-0.2
			c0.1,0,0.2-0.1,0.4-0.1c0.2,0.9,0.7,1.8,1.3,2.3c-0.3,0.3-0.7,0.7-0.9,1.1c-0.2,0-0.3,0-0.5,0.1c-0.4,0.3-0.5,0.8-0.2,1.2
			c0.3,0.4,0.8,0.5,1.2,0.2c0.4-0.3,0.5-0.8,0.2-1.2c0,0-0.1,0,0-0.1c0.1,0,0.1-0.2,0.1-0.2c0.1-0.2,0.3-0.4,0.5-0.6
			c0-0.1,0.1-0.1,0.2-0.3c0.5,0.3,1.1,0.2,1.7,0c0.1,0.3,0.1,0.5,0.1,0.8c0,0.2,0.1,0.3,0.1,0.4l0,0c-0.3,0.3-0.5,0.8-0.2,1.2
			s0.8,0.5,1.2,0.2s0.5-0.8,0.2-1.2c-0.1-0.2-0.3-0.3-0.5-0.3c0-0.2,0-0.4,0-0.6c0-0.2-0.1-0.5-0.1-0.7c0,0,0-0.1,0-0.2
			c0.6-0.4,1.1-1.1,1.5-1.7c0,0.1,0.2,0.1,0.2,0.1c0.1,0.1,0.3,0.3,0.4,0.3c0.1,0.1,0.3,0.2,0.4,0.3c-0.1,0.3-0.1,0.5,0.1,0.8
			c0.3,0.3,0.8,0.5,1.2,0.2c0.3-0.3,0.5-0.8,0.2-1.2c-0.2-0.3-0.6-0.5-1-0.3c-0.4-0.3-1-0.6-1.2-0.7c0.2-0.4,0.5-0.8,0.6-1.1
			c0.3-0.5,0.5-1.1,0.7-1.6c0.1,0,0.2,0.1,0.3,0.1c0.2,0.1,0.4,0.2,0.6,0.2c0.1,0,0.2,0.1,0.3,0.1c0,0.1,0.1,0.2,0.1,0.3
			c0.2,0.3,0.7,0.4,1,0.2c0.3-0.2,0.4-0.7,0.2-1s-0.7-0.4-1-0.2c-0.1,0-0.1,0-0.1,0.1c-0.5-0.1-1.1-0.2-1.2-0.2
			c0.3-0.7,0.4-1.4,0.5-2.2l0,0l0,0c0.2,0,0.5,0.1,0.7,0.1c0.2,0,0.4,0.1,0.6,0l0,0.1c0.2,0.3,0.6,0.4,0.8,0.1
			c0.2-0.2,0.4-0.6,0.1-0.8c-0.2-0.2-0.6-0.4-0.8-0.1c-0.1,0-0.1,0.1-0.1,0.2l0,0c-0.4-0.1-0.8-0.1-1.2-0.1c0.1-0.5,0.2-1,0.2-1.5
			c0.2,0,0.3,0,0.4,0c0.2,0,0.6,0,0.8,0c0.2,0,0.3,0,0.5-0.1l0,0.1c0.2,0.3,0.7,0.4,1,0.2c0.3-0.2,0.4-0.7,0.2-1
			c-0.2-0.3-0.7-0.4-1-0.2c-0.1,0.1-0.2,0.2-0.3,0.3c-0.6,0-1.1,0-1.7,0.1c0-0.5,0-1,0-1.5c0.1,0,0.1,0,0.2,0
			c0.2-0.1,0.4-0.1,0.5-0.2c0.2-0.1,0.3-0.1,0.5-0.2c0.2,0.2,0.6,0.2,0.9,0.1c0.3-0.2,0.4-0.7,0.2-0.9c-0.2-0.3-0.7-0.4-0.9-0.2
			c-0.2,0.1-0.3,0.3-0.3,0.5l0,0c-0.3,0.1-0.7,0.3-1,0.5c0-0.1,0-0.2-0.1-0.3c-0.1-0.4-0.3-0.8-0.6-1.1l0,0c0.1,0,0.1-0.1,0.2-0.2
			c0.2-0.2,0.4-0.4,0.6-0.5c0.1-0.1,0.2-0.2,0.3-0.3c0.2,0.1,0.5,0.1,0.7-0.1c0.3-0.2,0.4-0.7,0.2-1c-0.2-0.3-0.7-0.4-1-0.2
			c-0.2,0.2-0.3,0.4-0.3,0.7c0,0,0,0.1-0.1,0c-0.4,0.4-0.7,0.6-0.9,1c0-0.1-0.1-0.1-0.2-0.2c-0.5-0.2-1-0.3-1.4-0.2
			c0-0.1,0-0.1,0.1-0.1c0.1-0.2,0.1-0.5,0.1-0.7c0-0.2,0-0.3,0-0.5c0.1,0,0.2,0,0.2-0.1c0.3-0.3,0.4-0.7,0.2-1.1
			c-0.3-0.3-0.7-0.4-1.1-0.2c-0.3,0.3-0.4,0.7-0.2,1.1c0,0.1,0.2,0.2,0.3,0.3c0,0.5,0,1,0,1.4l0,0c-0.7,0.2-1.4,0.6-2.1,1.3
			c-0.4-0.3-0.8-0.5-1-0.7l0,0c0.1-0.2,0.1-0.5,0-0.7C204.3,87.9,204,87.8,203.6,88z M205,97.9c0.2-0.1,0.4-0.1,0.5,0.1
			c0.1,0.2,0.1,0.4-0.1,0.5c-0.2,0.1-0.4,0.1-0.5-0.1C204.8,98.2,204.8,98,205,97.9z M206.9,96.4c0.2-0.2,0.5-0.1,0.6,0.1
			c0.2,0.2,0.1,0.5-0.1,0.6c-0.2,0.2-0.5,0.1-0.6-0.1C206.6,96.8,206.7,96.5,206.9,96.4z M208.8,92.1c-0.2,0.1-0.4,0.1-0.5-0.1
			c-0.1-0.2-0.1-0.4,0.1-0.5s0.4-0.1,0.5,0.1C209,91.6,209,92,208.8,92.1z M207,95c-0.2-0.3-0.1-0.8,0.2-1c0.3-0.2,0.8-0.1,1,0.2
			c0.2,0.3,0.1,0.8-0.2,1C207.7,95.4,207.3,95.3,207,95z M205,94.6c0.4-0.3,0.9-0.1,1.2,0.2c0.3,0.3,0.1,0.9-0.2,1.2
			c-0.4,0.3-0.9,0.1-1.2-0.2C204.5,95.4,204.6,94.9,205,94.6z M206.3,92.3c0.2-0.2,0.5-0.1,0.7,0.1c0.2,0.2,0.1,0.5-0.1,0.7
			c-0.2,0.2-0.5,0.1-0.7-0.1C206.1,92.8,206.1,92.4,206.3,92.3z"/>
		<path id="XMLID_147_" fill="#E69C0E" d="M253.7,89c-0.4-0.4-1-0.4-1.7,0l-2.6-4.7c0.7-0.6,1.3-1.2,1.8-1.9
			c0.3-0.4,0.5-0.7,0.8-1.1l2.2,1.5c-0.3,1-0.2,1.8,0.3,2c0.6,0.3,1.5-0.4,2.1-1.5c0.6-1.2,0.5-2.3-0.1-2.6c-0.4-0.2-1,0.1-1.5,0.7
			l-2-2c0.5-1.4,0.8-2.8,0.8-4.3l3.3,0.1c0.3,0.8,0.8,1.3,1.4,1.2c0.7-0.1,1.2-1.2,1-2.4s-0.9-2.1-1.6-2c-0.5,0.1-0.8,0.5-0.9,1.1
			l-3.5-0.9c-0.2-1.1-0.7-2.1-1.2-3.1l3.3-2.7c0.6,0.5,1.2,0.7,1.6,0.5c0.6-0.4,0.5-1.5-0.1-2.5s-1.6-1.6-2.2-1.2
			c-0.4,0.2-0.5,0.9-0.3,1.5l-4.1,2c-0.5-0.6-1-1-1.6-1.5c-0.1,0-0.1,0-0.1-0.1l2.2-5.2c0.9,0.3,1.9,0.3,2.3-0.3
			c0.5-0.8,0-2.1-1.2-2.9s-2.6-0.9-3.1-0.1c-0.4,0.6-0.1,1.5,0.5,2.2l-3.2,4.8c-1.3-0.5-2.6-0.9-4.1-0.9l0-3.5
			c0.8-0.1,1.4-0.6,1.5-1c0.1-0.7-0.8-1.4-2.2-1.6c-1.2-0.1-2.4,0.4-2.4,1.1c-0.1,0.7,0.7,1.3,1.6,1.6l-0.8,3.6
			c-1.2,0.2-2.4,0.5-3.4,1l-2.8-4.8c0.6-0.7,0.8-1.5,0.4-2c-0.5-0.7-1.9-0.7-3.1,0.2c-1.2,0.8-1.8,2.1-1.3,2.8
			c0.4,0.7,1.6,0.7,2.7,0.1l1.9,5c-0.9,0.7-1.7,1.4-2.4,2.4c-0.3,0.4-0.6,0.8-0.8,1.2l-3.6-0.6c0-0.8-0.3-1.6-0.9-1.7
			c-0.8-0.2-1.6,0.5-2,1.7c-0.3,1.2,0,2.3,0.8,2.5c0.7,0.2,1.4-0.3,1.8-1.2l3,1.1c-0.4,1-0.7,2-0.8,3.1l-6.6,2.5
			c-0.5-0.8-1.3-1.3-1.9-1.1c-0.8,0.3-1,1.6-0.4,2.9c0.5,1.3,1.5,2.1,2.3,1.8c0.6-0.3,0.9-1.3,0.6-2.4l6.1-1.3
			c0.1,1.2,0.4,2.3,0.8,3.3l-4,3.2c-0.6-0.4-1.2-0.6-1.6-0.3c-0.5,0.4-0.5,1.4,0.2,2.3c0.6,0.8,1.6,1.2,2.1,0.8
			c0.4-0.4,0.5-1.1,0.1-1.8l4.1-2.3c0.8,1.3,1.8,2.5,3.1,3.5l0,0l-2,5.6c-1.1-0.3-2.1-0.1-2.4,0.6c-0.4,0.8,0.5,1.9,1.8,2.5
			c1.3,0.5,2.7,0.4,3-0.4c0.3-0.6-0.1-1.3-0.8-1.9l2.8-5c1.7,0.8,3.5,1.1,5.3,1.1l1.1,3.3c-0.8,0.2-1.4,0.8-1.4,1.3
			c0,0.8,1.1,1.4,2.4,1.4c1.3,0,2.4-0.7,2.4-1.5c0-0.7-0.8-1.3-1.9-1.4l-0.6-3.3c1.4-0.3,2.7-0.8,3.9-1.5l3.2,4.3
			c-0.9,1-1.2,2.1-0.7,2.6c0.6,0.6,1.8,0.3,2.8-0.7C253.9,90.8,254.3,89.6,253.7,89z M235.1,72.1c-0.3,0.5-1,0.5-1.4,0.2
			c-0.5-0.3-0.5-1-0.2-1.4c0.3-0.5,1-0.5,1.4-0.2C235.4,71,235.5,71.6,235.1,72.1z M241.6,71.2c-0.7,0.8-1.9,1-2.7,0.4
			c-0.8-0.7-1-1.9-0.4-2.7c0.7-0.8,1.9-1,2.7-0.4C242.1,69.2,242.3,70.4,241.6,71.2z M236.2,78.7c-0.7,1-2.1,1.1-3,0.4
			c-1-0.7-1.1-2.1-0.4-3c0.7-1,2.1-1.1,3-0.4C236.7,76.4,236.9,77.8,236.2,78.7z M245.9,69.4c-0.3,0.5-1,0.5-1.4,0.2
			c-0.5-0.3-0.5-1-0.2-1.4c0.3-0.5,1-0.5,1.4-0.2C246.3,68.3,246.3,69,245.9,69.4z M244.3,76.9c-0.4,0.6-1.3,0.7-2,0.3
			c-0.6-0.4-0.7-1.3-0.3-2c0.4-0.6,1.3-0.7,2-0.3C244.6,75.3,244.8,76.2,244.3,76.9z M241,81.2c-0.3,0.5-1,0.5-1.4,0.2
			c-0.5-0.3-0.5-1-0.2-1.4c0.3-0.5,1-0.5,1.4-0.2C241.3,80.1,241.4,80.8,241,81.2z M249.2,75c-0.3,0.4-0.9,0.5-1.4,0.2
			c-0.4-0.3-0.5-0.9-0.2-1.4c0.3-0.4,0.9-0.5,1.4-0.2C249.4,73.9,249.5,74.6,249.2,75z M247.7,81.5c-0.6,0.8-1.7,0.9-2.5,0.3
			c-0.8-0.6-0.9-1.7-0.3-2.5c0.6-0.8,1.7-0.9,2.5-0.3C248.1,79.7,248.2,80.7,247.7,81.5z"/>
		<circle id="XMLID_146_" fill="#FFFF06" cx="248.8" cy="16.2" r="4.6"/>
		<circle id="XMLID_144_" fill="#FFFF06" cx="288.7" cy="57.5" r="2.7"/>
		<circle id="XMLID_138_" fill="#FFFF06" cx="247.8" cy="106.5" r="2.7"/>
		<circle id="XMLID_132_" fill="#E69C0E" cx="274.3" cy="77.6" r="3.7"/>
		<circle id="XMLID_130_" fill="#FFFF06" cx="190.8" cy="43.1" r="3.7"/>
		<circle id="XMLID_115_" fill="#FFFF06" cx="248.6" cy="42.6" r="2"/>
		<circle id="XMLID_110_" fill="#FFFF06" cx="188.9" cy="72.1" r="2"/>
		<circle id="XMLID_109_" fill="#F4B07F" cx="203.6" cy="62.4" r="1.6"/>
		<circle id="XMLID_108_" fill="#FFFF06" cx="268" cy="-2.6" r="2"/>
		<circle id="XMLID_106_" fill="#F4B07F" cx="268" cy="-2.6" r="1.6"/>
	</g>
</g>
<g>
	<path fill="#365996" d="M239.1-25.7v1.5c17,0,33.4,5.2,47.4,15.1c36.6,25.9,45.3,76.9,19.4,113.8c-15.3,21.8-40.5,34.8-67.3,34.8
		c-16.8,0-32.8-5.1-46.4-14.6c-18.3-12.9-30.4-32.1-33.9-54c-3.4-21.3,1.4-42.7,13.7-60.2c15.2-21.9,40.4-35,67.2-35L239.1-25.7
		 M239.1-25.7c-26.5,0-52.4,12.6-68.4,35.6c-25.3,36.2-18.7,88.5,20.6,116.2c14.3,10.1,30.9,14.9,47.3,14.9
		c26.3,0,52.3-12.4,68.6-35.5C333.5,68,324.7,16,287.4-10.3C272.6-20.8,255.7-25.7,239.1-25.7L239.1-25.7z"/>
</g>
<g>
	<path fill="#E9C1AC" d="M-102.8,718.8c0.3-0.7,0.7-1.2,1.1-1.8C-89,699.9,52.1,515.8,64.9,498.9C78.3,481,92,463.1,105,444.8
		c2.2-3.3,2.4-3.3,5.9-1.8c5.7,2.4,11.3,5,16.6,8.1c11.8,6.9,22.1,15.6,30.3,26.7c0.8,1.1,1.6,2.4,2.6,3.5c1.5,1.7,1.3,3.2,0.2,4.9
		C150,503-14,774.1-24.7,790.9c-3.7,5.7-7,11.7-11.1,17.1c-30-1.2-88.1-24-66.6-88.6C-102.5,719.2-102.5,719-102.8,718.8z"/>
	<path fill="#5C3713" d="M210.4,339.9c9.2,1.7,17.9,4.7,26.2,8.6c0.1,0.1,0.4,0.3,0.5,0.4c1.5,1.3,3.1,2.1,4.5,3.5
		c1.1,1.1,1.1,2.2,0.2,3.4c-1.3,1.6-2.5,3.1-3.9,4.5c-4.6,4.9-10.2,6.3-16.7,5.4c-2.5-0.3-5.1-0.9-7.5-1.6c-1.4-0.4-2.6-0.2-3.7,0.9
		c-1.9,1.9-3.9,3.8-6.1,5.5c-0.8,0.7-1.3,1.5-1.3,2.7c0.1,8.9,0.8,18,1.2,26.9c0.4,8.2,0.8,16.3,1.3,24.4c0.5,8.6,0.8,17.3,1.4,25.9
		c0.1,1.5,0.4,3.2-0.6,4.7c-4.4,1.6-8.8,2.3-13.3,2.9c-7.4,1-14.8,1.3-22.2-0.1c-1.2-0.2-1.8,0.1-2.4,1.2c-1.7,3.5-3.4,6.9-5.4,10.3
		c-1.7,2.7-2.7,6-5.1,8.3c-7.7-10.1-17-18.4-27.7-25c-6.1-3.7-12.5-6.6-18.9-9.5c7-8.4,14.7-16.2,22.6-23.8c1-0.9,1.4-1.8,1.3-3.1
		c-0.1-2.7,0.4-5.3,0.8-7.9c1.4-7.8,4.9-14.6,9.3-21.1c6.5-9.4,14.5-17.3,23.4-24.3c6.7-5.2,13.6-10.2,21.2-14.2
		c3.7-2,7.3-4.1,10.9-6.1C203.3,340.4,206.7,339.7,210.4,339.9z"/>
	<path fill="#698CC8" d="M239.5,359.9c4.9,0.1,9.7,0.2,14.7,0.2c0.7,0,1.4,0,1.9,0.4c0.3,0.1,0.4,0.4,0.5,0.7c0.3,1,0.2,1.8,0.2,2.7
		c-0.7,28.2-0.2,56.5-0.9,84.7c-0.2,2.2-0.1,4.4,0.2,6.6c0.3,1.5,0.2,3,0.1,4.5c0,1-0.2,1.9-1.1,2.3c-13.3-0.2-26.7-0.4-40-0.5
		c-4.5-0.1-7.7-1.8-9.1-6.2c-0.2-2.7-0.3-5.5-0.4-8.2c-0.2-5.6-0.4-11.3-0.7-16.9c-0.5-10.3-1.2-20.6-1.7-30.9
		c-0.5-8.8-0.8-17.6-1.4-26.4c0-1,0.3-1.6,1-2.2c1.7-1.5,3.6-2.7,4.9-4.4c2.4-3.1,5-3.3,8.7-2.2c7.9,2.5,15.5,2,21.7-4.3
		C238.5,360,239.1,359.7,239.5,359.9z"/>
	<path fill="#B3C5E2" d="M199.4,324c-0.2-4.7,1.1-6,5.7-5.9c27.4,0.4,54.8,0.9,82.3,1.3c0.8,0,1.6-0.2,2.5,0.3
		c-0.7,0.7-1.5,0.7-2.5,0.6c-5.5-0.1-10.8,0-16.3-0.3c-3.6-0.1-7.1-0.1-10.7-0.2c-3.2-0.1-3.3,0.1-3.3,3.1
		c-0.1,7.8-0.2,15.6-0.4,23.4c0,1.1,0.1,2.3-0.7,3.4c-0.6,0.3-1.2,0.4-1.8,0.4c-5.1-0.1-10.3-0.2-15.4-0.2c-0.8,0-1.5-0.2-2.2-0.6
		c-0.6,0.3-1.1-0.2-1.6-0.4c-5.8-3-11.9-4.9-18.1-6.6c-5.5-1.5-11.1-2.8-16.5,0.4C200.1,336.5,199.9,330.2,199.4,324z"/>
	<path fill="#86A3D2" d="M258.4,360c3.3,0.1,6.4,0.1,9.7,0.2c0.7,0,1.5,0,2,0.6c0.7,1.1,0.5,2.5,0.5,3.7c-0.1,9.3-0.3,18.5-0.6,27.8
		c0.3,7.1-0.6,14.3-0.8,21.4c-0.1,12.3-0.3,24.8-0.6,37.2c-0.1,3.8-0.4,7.7-0.9,11.4c-4.2-0.1-8.5-0.1-12.7-0.2
		c0.4-0.8,0.4-1.6,0.5-2.5c0.2-2.5-0.3-4.8-0.3-7.3c0.2-19.2,0.8-38.5,0.5-57.9c-0.2-11.2,0.2-22.5,0.4-33.7
		C256.7,360.2,257.6,360.2,258.4,360z"/>
	<path fill="#5C3713" d="M285.9,415.9c-0.6,0.1-0.8,0.5-1.1,0.5c0.3,0,0.8-0.4,1.4-0.4c1.1,0,2.2-0.4,3.2,0.2c4,1,5.7,3.8,5.4,8.3
		c-0.3,4.4-3.1,7.6-7.1,8.1c-1.8,0.2-3.6,0.6-5.4,0.9c-3.9,1.9-7.3,1.1-9.6-2.2c-1.2-1.8-2-3.9-1.7-6.1c0.3-3,2.4-5.2,4.8-6.9
		c-6.5-2.3-8.5-11.2-1.9-15.8c1.5-1.1,3-1.6,4.8-2c1-0.3,1.8-0.2,2.7-0.4c0.7-0.3,1.4-0.4,2.2-0.4c-1,0.1-1.9,0.1-2.8,0.5
		c-1,0-1.8,0.2-2.8,0.5c-4.8,1.3-7-1.2-8.2-4.7c-0.3-1.1-0.4-2.3-0.4-3.6c-0.2-3.6,0.9-6.6,4-8.4c4.3-2.7,9.1-2.6,13.9-2.2
		c1.6,0.3,3.3-0.2,4.9-0.3c6.7-0.4,9.4,4.1,7.8,11c-0.7,3.7-3.5,5.7-7.6,6.5c2.5,1,3.8,2.5,4,4.6c0.7,5.8-0.9,10.7-7.7,11.7
		C288.1,415.9,287.1,415.9,285.9,415.9z"/>
	<path fill="#B3C5E2" d="M293.1,324.4c-0.7,8.6-1.6,17.1-2.5,25.7c-0.1,0.4-0.6,0.7-1,0.8c-5.9,0.3-11.7,0-17.6-0.1
		c-0.5,0-1.2-0.2-1.6-0.7c-0.5-0.8-0.5-1.9-0.5-2.9c0.1-8.2,0.3-16.5,0.4-24.7c0-1.1-0.1-2.2,0.7-3c6.2,0,12.5,0.1,18.8,0.2
		C292.5,320.3,293.3,321.1,293.1,324.4z"/>
	<path fill="#698CC8" d="M281.9,438.9c-0.6,5.7-1,11.6-1.8,17.4c-0.3,3-2.1,5.2-5.3,6.1c-2.3,0.6-4.7,0.2-7,0.2
		c-0.4-0.8-0.4-1.7-0.4-2.5c-0.1-2.3,0.5-4.7,0.5-6.8c0.3-20.3,0.5-40.4,1.2-60.6c0.1-0.3,0.3-0.1,0.4,0c1.5,7,2.6,8,8.5,7.8
		c0.6-0.3,0.5,0,0.5,0.4c-1.1,0.4-2.1,0.7-3,1.2c-4.1,2.1-6.1,5.5-5.4,9.4c0.8,3.6,2.9,5.8,6.8,6.6c-1,0.8-1.8,1.5-2.6,2.2
		c-2.9,2.6-3.7,6-2.1,9.4c1.7,3.5,4.2,4.6,8.4,4c0.6-0.1,1.1-0.1,1.6-0.1C282.3,435.2,282.1,436.8,281.9,438.9z"/>
	<path fill="#5C3713" d="M283.4,381.4c-3.2,1-5.9,0-7.9-2.2c-4.4-4.9-2.5-13.6,3.7-16.3c1.9-0.8,3.9-1.3,5.8-2.1
		c1.4-0.4,2.9-1.6,4.5-0.6c4,0.3,6.3,2.7,7.4,6.2c1.2,3.3,0,6.2-2.3,8.7c-2,2-4.3,3.1-6.8,4C286.7,380.6,284.9,380.9,283.4,381.4z"
		/>
	<path fill="#8EA8D6" d="M271.4,361.8c-0.5,0-1-0.3-1.4-0.7c-4.5-0.1-9.2-0.1-13.7-0.2l0,0c-0.1-0.3,0-0.5,0.3-0.7
		c1-0.5,1.9-0.4,2.9-0.4c2.5,0,4.8,0.1,7.3,0.1c2.3,0,2.6-0.2,2.6-2.6c0-1.8,0.1-3.4,0.5-5.2c0.3-1.2,0.9-1.8,2.2-1.7
		c3.7,0.1,7.4,0.1,11.1,0.2c2.3-0.1,4.7,0.3,7-0.2c0-0.1,0.1-0.3,0.3-0.4c-0.3,3.4-0.7,6.8-1,10.3c-1.5-0.2-2.9,1.1-4.4,1
		C280.6,362.3,275.9,361.7,271.4,361.8z"/>
	<path fill="#698CC8" d="M280.4,363.1c-5.1,2-7.2,5.2-6.6,10.7c0.6,5.8,4.9,8.6,10.5,6.6c1.1-0.4,2.3-0.8,3.4-1.2
		c0,0.8-0.2,1.8-0.3,2.6c-2.6,0.2-5.2,0.6-7.8,0.8c-5.6,0.3-10.2,4.6-9.8,9.9c-0.1,0-0.3,0-0.4,0c0.2-10.6,0.3-21,0.5-31.5
		c5.1,0.1,10.1,0.2,15.2,0.2C283.7,362.2,282.1,362.5,280.4,363.1z"/>
	<path fill="#A65525" d="M286,415.9c0-0.1,0-0.1,0.1-0.3c1-0.1,1.8-0.2,2.7-0.4c0.3,0.3,0.5,0.6,0.8,0.8c-1.2,0-2.5,0-3.7-0.1
		C285.9,416,285.9,416,286,415.9z"/>
	<path fill="#8DA7D6" d="M240,360.6c-0.7,0-1.6,0.2-2.3-0.4c1.3-1.4,2.2-2.8,3.5-4.2c0.8-0.9,0.7-1.6-0.1-2.5
		c-1.2-1.4-3-2.2-4.3-3.5c6-0.5,12.2,0.1,18.2,0c0.8,0,1.4,0.4,1.5,1.1c0.6,3.2,1.1,6.2-0.3,9.2c0,0.1,0,0.3,0,0.4
		C251,360.6,245.6,360.5,240,360.6z"/>
	<path fill="#A4B9DD" d="M236.7,349.7c6.4,0.1,12.9,0.2,19.3,0.3c0.1-0.1,0.3-0.4,0.6-0.4c4.4-0.5,8.9-0.4,13.4,0.2
		c0.3,0.1,0.4,0.3,0.5,0.4c6.6,0.1,13,0.2,19.6,0.3c-0.7,0.7-1.5,0.4-2.3,0.4c-5.1-0.1-10.1-0.2-15.2-0.2c-1.4,0-1.9,0.2-2.2,1.7
		c-0.4,1.9-0.3,4-0.4,6c0,1.6-0.4,2.2-2.2,2.2c-4-0.2-7.8-0.1-11.7-0.2c0-2.5,0.2-4.8,0.1-7.1c0-1.9-0.5-3.2-3-3.1
		c-5.5,0-11-0.2-16.5-0.3C236.7,349.8,236.7,349.7,236.7,349.7z"/>
	<path fill="#C3D0E7" d="M256.4,321.2c0-1.5,0.4-2,2.1-2c4.2,0.1,8.4,0.1,12.6,0.2c-0.2,10.1-0.3,20.4-0.5,30.6
		c-4.9-0.1-9.7-0.2-14.7-0.2C256.1,340.3,256.2,330.7,256.4,321.2z"/>
	<path fill="#6780AC" d="M281.2,400c0,0,0.1,0,0.3,0c0.1,0.1,0.1,0.3,0,0.4c-0.8,0.1-1.8,0.2-2.6,0.4c-0.1-0.1-0.4-0.3-0.5-0.4
		C279.3,399.7,280.2,400,281.2,400z"/>
	<path fill="#635C57" d="M283.9,399.8c-0.8,0.3-1.5,0.4-2.3,0.5c-0.1-0.1-0.3-0.3-0.4-0.4C282,399.2,283,399.7,283.9,399.8z"/>
	<path fill="#8B4A20" d="M284.5,416.1c0.6-0.1,1-0.4,1.5-0.5c0,0.1,0,0.3,0,0.4C285.6,416.6,285,416.7,284.5,416.1z"/>
</g>
<g>
	<circle fill="#365996" cx="340.1" cy="264.9" r="4"/>
	<path fill="none" stroke="#365996" stroke-width="1.5" stroke-miterlimit="10" d="M291.4,125c0,0,49,53.7,49.2,134.2"/>
</g>
</svg>
