<?xml version="1.0" encoding="utf-8"?>
<!-- Generator: Adobe Illustrator 19.0.0, SVG Export Plug-In . SVG Version: 6.00 Build 0)  -->
<svg version="1.1" id="Layer_1" xmlns="http://www.w3.org/2000/svg" xmlns:xlink="http://www.w3.org/1999/xlink" x="0px" y="0px"
	 viewBox="0 0 480 460" enable-background="new 0 0 480 460" xml:space="preserve">
<rect id="XMLID_10_" x="190" y="446.5" fill="#603813" width="242.9" height="13.5"/>
<g id="XMLID_13_">
	<path id="XMLID_2_" fill="#C9D4F3" d="M231.7,446.5h156.6c11.6,0,21.1-9,21.9-20.5l22.7-350.1c0.3-4.2-3.1-7.8-7.3-7.8h-231
		c-4.2,0-7.6,3.6-7.3,7.8L209.8,426C210.5,437.5,220.1,446.5,231.7,446.5z"/>
	<path id="XMLID_1_" fill="#819FCF" d="M231.7,446.5h156.6c11.6,0,21.1-9,21.9-20.5L430,119.7H190L209.8,426
		C210.5,437.5,220.1,446.5,231.7,446.5z"/>
</g>
<polygon id="XMLID_5_" opacity="0.15" fill="#FFFFFF" points="411.2,81.3 385.3,80.9 377.9,441.3 389.5,441.7 "/>
<g id="XMLID_8_">
	<g id="XMLID_60_">
		<g id="XMLID_101_">
			<path id="XMLID_189_" fill-rule="evenodd" clip-rule="evenodd" fill="#D2D954" d="M338.1,160.7c-0.4-0.1-0.7,0.2-0.8,0.5
				c-0.5,2.3-0.4,4.9,0.3,7.2c-0.5,0.3-1,0.7-1.4,1.2c-0.7,0.8-1.4,1.9-2,3.2c-0.9-0.4-1.9-1-2.7-1.7c-0.7-0.6-1.2-1.2-1.4-2
				c-0.1-0.4-0.5-0.6-0.8-0.5c-0.4,0.1-0.6,0.5-0.5,0.8c0.3,1,1,1.9,1.9,2.6c0.9,0.8,2,1.4,3,1.9c-0.9,1.9-1.7,4.1-2.4,6.3
				c-1.7-0.5-3.5-1.1-4.7-2.4c-0.2-0.3-0.7-0.3-0.9,0c-0.3,0.2-0.3,0.7,0,0.9c1.4,1.5,3.3,2.2,5.3,2.8c-0.6,2.1-1.1,4.1-1.4,6.1
				c-1.8,0.7-3.7,0.8-5.8,0.4c-0.4-0.1-0.7,0.2-0.8,0.5c-0.1,0.4,0.2,0.7,0.5,0.8c2,0.4,3.9,0.3,5.8-0.3c-0.3,2.2-0.4,4.1-0.2,5.6
				c0.1,0.9,0.4,1.7,0.7,2.4c-1.4,1.6-2.9,2.4-5.5,3c-0.4,0.1-0.6,0.4-0.5,0.8c0.1,0.4,0.4,0.6,0.8,0.5c2.7-0.6,4.4-1.5,5.9-3.1
				c1.2,1.4,2.9,1.9,4.7,1.5c0.1,2-0.4,3.9-1.5,5.8c-0.2,0.3-0.1,0.7,0.2,0.9c0.3,0.2,0.7,0.1,0.9-0.2c1.4-2.2,1.9-4.4,1.7-6.8
				c1-0.4,2-1,2.9-1.9c1.1,2.2,3.3,3.9,5.5,4.6c0.3,0.1,0.7-0.1,0.8-0.4c0.1-0.3-0.1-0.7-0.4-0.8c-2-0.6-4.2-2.2-4.9-4.3
				c1-1.2,2-2.8,2.8-4.8c0.7,0.3,1.6,0.4,2.5,0.5c2.1,0.3,4.4,0.2,5.7-0.1c0.4-0.1,0.6-0.4,0.5-0.8c-0.1-0.4-0.4-0.6-0.8-0.5
				c-1.2,0.2-3.4,0.3-5.3,0.1c-0.8-0.1-1.5-0.2-2.2-0.5c0.8-2.3,1.5-4.9,1.9-7.5c1.7,0.7,3.4,1.6,4.8,2.8c0.3,0.2,0.7,0.2,0.9-0.1
				c0.2-0.3,0.2-0.7-0.1-0.9c-1.6-1.4-3.5-2.4-5.5-3.2c0.2-1.7,0.3-3.4,0.3-5c2.3-0.6,4.5-1.7,6.3-3.2c0.3-0.2,0.3-0.7,0.1-0.9
				c-0.2-0.3-0.7-0.3-0.9-0.1c-1.5,1.3-3.5,2.2-5.5,2.8c-0.1-1.2-0.2-2.3-0.4-3.3c-0.3-1.2-0.8-2.2-1.5-2.9c0.4-1.8,0.8-3.6,1.3-5.4
				c0.1-0.4-0.1-0.7-0.5-0.8c-0.4-0.1-0.7,0.1-0.8,0.5c-0.4,1.6-0.8,3.2-1.1,4.8c-1.2-0.7-2.7-0.8-4.1-0.4c-0.5-2.1-0.6-4.3-0.2-6.3
				C338.7,161.1,338.5,160.7,338.1,160.7z M332.9,192.2c0.5,0.1,0.8,0.6,0.6,1.1c-0.1,0.5-0.6,0.8-1.1,0.6c-0.5-0.1-0.8-0.6-0.6-1.1
				C332,192.3,332.5,192.1,332.9,192.2z M337.8,189.6c1,0.3,1.6,1.3,1.4,2.3c-0.3,1-1.3,1.6-2.3,1.4c-1-0.3-1.6-1.3-1.4-2.3
				C335.7,189.9,336.8,189.3,337.8,189.6z M335,183.6c0.8,0.2,1.2,0.9,1,1.6c-0.2,0.7-0.9,1.1-1.7,0.9c-0.8-0.2-1.2-0.9-1-1.6
				C333.5,183.8,334.3,183.4,335,183.6z M341,180.2c0.9,0.2,1.5,1.2,1.2,2.1c-0.2,0.9-1.2,1.5-2.1,1.2c-0.9-0.2-1.5-1.2-1.2-2.1
				C339.2,180.5,340.1,179.9,341,180.2z M337.6,176.1c0.5,0.1,0.9,0.7,0.7,1.2c-0.1,0.5-0.7,0.9-1.2,0.7c-0.5-0.1-0.9-0.7-0.7-1.2
				C336.6,176.3,337.1,175.9,337.6,176.1z M341.6,172.7c0.8,0.2,1.3,1.1,1.1,1.9c-0.2,0.8-1.1,1.3-1.9,1.1c-0.8-0.2-1.3-1.1-1.1-1.9
				C339.9,173,340.7,172.5,341.6,172.7z"/>
			<path id="XMLID_181_" fill-rule="evenodd" clip-rule="evenodd" fill="#D2D954" d="M379.1,288c-0.1-0.3-0.5-0.5-0.9-0.4
				c-2.2,0.9-4.3,2.4-5.9,4.2c-0.5-0.2-1.1-0.4-1.8-0.5c-1.1-0.1-2.4-0.1-3.8,0.1c-0.1-1-0.2-2.1,0-3.2c0.1-0.9,0.4-1.7,0.9-2.3
				c0.2-0.3,0.2-0.7-0.1-0.9c-0.3-0.2-0.7-0.2-0.9,0.1c-0.7,0.8-1,1.8-1.2,3c-0.2,1.2-0.1,2.4,0,3.5c-2,0.3-4.3,0.8-6.6,1.5
				c-0.6-1.7-1-3.5-0.5-5.2c0.1-0.4-0.1-0.7-0.5-0.8c-0.4-0.1-0.7,0.1-0.8,0.5c-0.5,1.9,0,4,0.6,5.9c-2,0.6-4,1.4-5.9,2.2
				c-1.6-1.2-2.7-2.7-3.5-4.6c-0.1-0.3-0.5-0.5-0.9-0.3c-0.3,0.1-0.5,0.5-0.3,0.9c0.8,1.9,1.9,3.4,3.4,4.7c-2,0.9-3.6,1.9-4.8,2.9
				c-0.7,0.6-1.2,1.2-1.6,1.9c-2.1-0.3-3.6-1.1-5.5-2.9c-0.3-0.3-0.7-0.3-0.9,0c-0.3,0.3-0.3,0.7,0,0.9c2,2,3.7,2.9,5.8,3.2
				c-0.6,1.8,0,3.4,1.3,4.8c-1.7,1.2-3.5,1.8-5.7,1.9c-0.4,0-0.7,0.3-0.6,0.7c0,0.4,0.3,0.7,0.7,0.6c2.6-0.1,4.7-0.8,6.7-2.3
				c0.9,0.6,2,1.1,3.1,1.4c-1.3,2.1-1.4,4.9-0.8,7.1c0.1,0.4,0.5,0.6,0.8,0.5c0.4-0.1,0.6-0.5,0.5-0.8c-0.6-2-0.4-4.7,0.9-6.5
				c1.6,0.2,3.5,0.1,5.5-0.3c0.2,0.8,0.5,1.6,0.9,2.4c0.9,1.9,2.2,3.8,3.2,4.7c0.3,0.3,0.7,0.3,0.9,0c0.3-0.3,0.3-0.7,0-0.9
				c-0.9-0.9-2.1-2.7-2.9-4.4c-0.3-0.7-0.6-1.4-0.8-2.1c2.4-0.6,4.9-1.4,7.3-2.5c0.4,1.8,0.5,3.7,0.3,5.6c0,0.4,0.2,0.7,0.6,0.7
				c0.4,0,0.7-0.2,0.7-0.6c0.3-2.1,0.1-4.2-0.4-6.3c1.5-0.7,3-1.6,4.3-2.5c1.8,1.6,3.8,2.9,6.1,3.5c0.4,0.1,0.7-0.1,0.8-0.5
				c0.1-0.4-0.1-0.7-0.5-0.8c-2-0.6-3.8-1.7-5.3-3c0.9-0.7,1.8-1.4,2.6-2.2c0.9-0.9,1.4-1.8,1.6-2.8c1.7-0.7,3.5-1.3,5.2-1.9
				c0.3-0.1,0.5-0.5,0.4-0.8c-0.1-0.3-0.5-0.5-0.8-0.4c-1.5,0.6-3.1,1.1-4.6,1.7c-0.1-1.4-0.8-2.7-1.9-3.6c1.4-1.6,3.3-2.9,5.2-3.6
				C379,288.7,379.2,288.4,379.1,288z M349.8,300.9c0.2,0.5-0.1,1-0.6,1.1c-0.5,0.2-1-0.1-1.1-0.6c-0.2-0.5,0.1-1,0.6-1.1
				C349.2,300.2,349.7,300.4,349.8,300.9z M354.7,303.5c0.3,1-0.2,2.1-1.2,2.4c-1,0.3-2.1-0.2-2.4-1.2c-0.3-1,0.2-2.1,1.2-2.4
				C353.3,302,354.3,302.5,354.7,303.5z M358.2,297.9c0.3,0.7-0.1,1.5-0.8,1.8c-0.7,0.2-1.4-0.2-1.7-0.9c-0.3-0.7,0.1-1.5,0.8-1.8
				C357.2,296.8,357.9,297.2,358.2,297.9z M364.3,301.1c0.3,0.9-0.2,1.9-1.1,2.2c-0.9,0.3-1.9-0.2-2.2-1.1c-0.3-0.9,0.2-1.9,1.1-2.2
				C363,299.7,364,300.2,364.3,301.1z M365.9,296c0.2,0.5-0.1,1.1-0.6,1.3s-1.1-0.1-1.3-0.6c-0.2-0.5,0.1-1.1,0.6-1.3
				C365.1,295.2,365.7,295.5,365.9,296z M370.9,297.5c0.3,0.8-0.2,1.7-1,2c-0.8,0.3-1.7-0.2-2-1c-0.3-0.8,0.2-1.7,1-2
				C369.7,296.2,370.6,296.6,370.9,297.5z"/>
			<path id="XMLID_173_" fill-rule="evenodd" clip-rule="evenodd" fill="#F4B07F" d="M274.6,213.3c-0.8-0.4-1.8,0-2.2,0.8
				c-0.3,0.7-0.1,1.6,0.5,2c-0.1,0.1-0.1,0.3-0.2,0.4c-0.1,0.4-0.1,0.5-0.2,0.9c-0.1,0.5-0.2,1-0.3,1.6c-2.3-0.4-4.8-0.5-7.4-0.3
				c-0.2-0.9-0.4-1.8-0.6-2.4c0.7-0.1,1.4-0.6,1.7-1.3c0.5-1.2,0-2.5-1.1-3.1c-1.2-0.5-2.5,0-3.1,1.1c-0.5,1.2,0,2.5,1.1,3.1
				c0.1,0,0.2,0.1,0.2,0.1c0,0.4,0,0.8,0.1,1c0.1,0.6,0.1,1.1,0.2,1.7c-2.6,0.3-5.3,1-7.8,1.9c-0.4-0.7-0.9-1.3-1.4-1.9
				c-0.1-0.1-0.3-0.3-0.6-0.6c0.1-0.1,0.3-0.3,0.3-0.5c0.5-1,0-2.1-1-2.6c-1-0.5-2.1,0-2.6,1c-0.5,1,0,2.1,1,2.6
				c0.2,0.1,0.4,0.1,0.6,0.2c0.1,0.2,0.2,0.4,0.3,0.6c0.3,0.6,0.7,1.2,1,1.7c0.1,0.1,0.1,0.2,0.2,0.3c-1.9,0.9-3.7,1.9-5.2,3
				c-0.1-0.1-0.1-0.1-0.2-0.2c-0.9-0.8-1.9-1.7-3-2.2c0.2-0.9-0.2-1.8-1.1-2.2c-1-0.4-2.1,0-2.6,0.9c-0.4,1,0,2.1,0.9,2.6
				c0.5,0.2,1.1,0.2,1.6,0c0.3,0.3,0.5,0.5,0.7,0.6c0.5,0.4,1,0.8,1.4,1.2c0.2,0.2,0.5,0.4,0.7,0.6c-1.7,1.7-2.9,3.6-3.3,5.8
				c-1.1-0.4-2.4-0.6-3.5-0.5c-0.2-0.4-0.5-0.8-1-1c-1.1-0.5-2.3,0-2.8,1c-0.5,1.1,0,2.3,1,2.8c1.1,0.5,2.3,0,2.8-1
				c0-0.1,0-0.1,0.1-0.2c0.3,0.1,0.5,0.1,0.6,0.1c0.6,0.1,1.3,0.2,1.9,0.3c0.2,0,0.5,0.1,0.7,0.1c0.1,1.6,0.8,2.8,2,3.7
				c-0.5,0.4-1.1,0.9-1.5,1.3c-0.3,0.2-0.5,0.5-0.8,0.6c0,0,0,0,0,0c-1-0.5-2.3,0-2.8,1s0,2.3,1,2.8c1,0.5,2.3,0,2.8-1
				c0.2-0.5,0.2-1,0.1-1.5c0.4-0.3,0.8-0.6,1.2-0.8c0.5-0.3,1.1-0.7,1.6-1.1c0.1-0.1,0.2-0.2,0.4-0.3c1.7,0.6,3.6,1,5.5,1.1
				c-0.1,0.3-0.1,0.6-0.1,0.7c-0.1,0.5-0.1,1-0.2,1.4c0,0.4-0.1,0.7-0.2,1.1c-0.7,0.1-1.3,0.5-1.6,1.2c-0.5,1,0,2.3,1,2.8
				c1,0.5,2.3,0,2.8-1c0.4-0.9,0.1-1.9-0.6-2.5c0.2-1.2,0.1-3,0-3.6c1.2,0,2.3,0,3.1-0.1c1.5-0.1,2.9-0.4,4.4-0.7
				c0,0.2,0.1,0.5,0.1,0.8c0.1,0.5,0.2,1,0.4,1.6c0.1,0.3,0.1,0.5,0.2,0.8c-0.2,0.2-0.4,0.4-0.5,0.6c-0.4,0.9,0,2,0.9,2.4
				c0.9,0.4,2,0,2.4-0.9c0.4-0.9,0-2-0.9-2.4c-0.2-0.1-0.3-0.1-0.5-0.1c-0.3-1.2-0.9-2.6-1.1-3c1.8-0.4,3.6-0.9,5.3-1.5
				c0,0,0,0,0.1,0c0,0,0,0,0,0.1c0.2,0.5,0.5,1.1,0.7,1.6c0.2,0.4,0.4,0.9,0.6,1.3c-0.1,0.1-0.1,0.2-0.2,0.3c-0.4,0.8,0,1.7,0.8,2.1
				c0.8,0.4,1.7,0,2.1-0.8c0.4-0.8,0-1.7-0.8-2.1c-0.2-0.1-0.4-0.1-0.7-0.1c0,0,0,0,0,0c-0.4-0.9-0.8-1.9-1.3-2.7
				c1.2-0.4,2.4-0.9,3.6-1.5c0.2,0.3,0.4,0.6,0.6,0.9c0.4,0.6,0.8,1.2,1.2,1.8c0.2,0.3,0.5,0.7,0.7,1c0,0.1-0.1,0.1-0.1,0.2
				c-0.4,0.9,0,2,0.9,2.4c0.9,0.4,2,0,2.4-0.9c0.4-0.9,0-2-0.9-2.4c-0.3-0.2-0.7-0.2-1.1-0.1c-0.7-1.2-1.5-2.4-2.4-3.4
				c1.1-0.6,2.1-1.2,3-2c0.1,0.1,0.2,0.2,0.3,0.3c0.4,0.3,0.8,0.5,1.1,0.8c0.3,0.2,0.7,0.5,1,0.7c-0.2,0.8,0.2,1.5,0.9,1.9
				c0.8,0.4,1.8,0,2.2-0.8c0.4-0.8,0-1.8-0.8-2.2c-0.5-0.2-1-0.2-1.4,0c0,0,0,0,0,0c-0.8-0.5-1.5-1-2.4-1.5c0.2-0.2,0.3-0.3,0.5-0.5
				c0.7-0.8,1.2-1.6,1.7-2.6c0,0,0.1,0,0.1,0c0.3,0.1,0.5,0.2,0.7,0.3c0.6,0.2,1.2,0.4,1.8,0.6c0.3,0.1,0.6,0.2,0.9,0.3
				c0,0.6,0.4,1.3,1,1.5c0.9,0.4,2,0,2.4-0.9c0.4-0.9,0-2-0.9-2.4c-0.6-0.3-1.4-0.2-1.9,0.2c-0.1,0-0.2,0-0.3-0.1
				c-1.1-0.3-2.3-0.7-3.5-0.8c0.1-0.2,0.2-0.4,0.2-0.6c-0.2-1.3-0.6-2.3-1.3-3.3c0.1,0,0.3-0.1,0.3-0.1c0.5-0.2,1.1-0.4,1.6-0.7
				c0.3-0.2,0.7-0.3,1-0.5c0.1,0.1,0.3,0.2,0.5,0.3c1,0.5,2.2,0,2.6-1c0.5-1,0-2.2-1-2.6s-2.2,0-2.6,1c-0.1,0.3-0.2,0.6-0.2,0.9
				c-1,0.5-2,1.1-3,1.7c0,0,0,0-0.1,0c-1.3-1.3-3.1-2.2-5.3-2.8c0.2-1.2,0.2-2.4,0.2-2.8c0,0,0,0,0-0.1c0.6,0,1.2-0.3,1.5-1
				C275.8,214.6,275.4,213.7,274.6,213.3z M255.1,228.6c0.5,0.2,0.7,0.8,0.5,1.3c-0.2,0.5-0.8,0.7-1.3,0.5c-0.5-0.2-0.7-0.8-0.5-1.3
				C254,228.6,254.6,228.4,255.1,228.6z M260.6,230.9c0.6,0.3,0.8,0.9,0.5,1.5c-0.3,0.6-0.9,0.8-1.5,0.5c-0.6-0.3-0.8-0.9-0.5-1.5
				C259.4,230.9,260.1,230.7,260.6,230.9z M272.4,229.6c-0.5-0.2-0.7-0.8-0.5-1.3c0.2-0.5,0.8-0.7,1.3-0.5c0.5,0.2,0.7,0.8,0.5,1.3
				C273.5,229.6,272.9,229.8,272.4,229.6z M263.9,229.4c0.4-0.9,1.4-1.3,2.3-0.9c0.9,0.4,1.3,1.4,0.9,2.3c-0.4,0.9-1.4,1.3-2.3,0.9
				C263.9,231.3,263.5,230.3,263.9,229.4z M262,224.4c1.1,0.5,1.6,1.8,1.1,2.9c-0.5,1.1-1.8,1.6-2.9,1.1c-1.1-0.5-1.6-1.8-1.1-2.9
				C259.7,224.4,260.9,223.9,262,224.4z M268.7,224.5c0.6,0.3,0.9,1,0.6,1.6c-0.3,0.6-1,0.9-1.6,0.6c-0.6-0.3-0.9-1-0.6-1.6
				C267.4,224.5,268.1,224.2,268.7,224.5z"/>
			<path id="XMLID_165_" fill-rule="evenodd" clip-rule="evenodd" fill="#F4B07F" d="M362.4,211.2c-0.3,0.4-0.2,0.9,0.2,1.2
				c0.3,0.2,0.8,0.2,1.1-0.1c0.1,0,0.1,0.1,0.2,0.1c0.2,0.1,0.3,0.1,0.4,0.2c0.3,0.1,0.5,0.2,0.8,0.3c-0.4,1.1-0.7,2.4-0.9,3.8
				c-0.5,0-1,0-1.3,0.1c0-0.4-0.2-0.8-0.5-1c-0.5-0.4-1.3-0.3-1.7,0.3c-0.4,0.5-0.3,1.3,0.3,1.7c0.5,0.4,1.3,0.3,1.7-0.3
				c0,0,0-0.1,0.1-0.1c0.2,0,0.4,0.1,0.5,0.1c0.3,0,0.6,0,0.9,0c-0.1,1.4,0,2.8,0.2,4.2c-0.4,0.2-0.8,0.3-1.1,0.5
				c-0.1,0-0.2,0.1-0.3,0.3c-0.1-0.1-0.1-0.2-0.2-0.2c-0.5-0.3-1.1-0.2-1.4,0.2c-0.3,0.5-0.2,1.1,0.2,1.4c0.5,0.3,1.1,0.2,1.4-0.2
				c0.1-0.1,0.1-0.2,0.1-0.3c0.1,0,0.2-0.1,0.4-0.1c0.3-0.1,0.7-0.2,1-0.4c0.1,0,0.1,0,0.2-0.1c0.3,1.1,0.6,2.1,1.1,3
				c0,0-0.1,0.1-0.1,0.1c-0.5,0.4-1.1,0.8-1.4,1.3c-0.4-0.2-1-0.1-1.3,0.3c-0.3,0.5-0.2,1.1,0.2,1.4c0.5,0.3,1.1,0.2,1.4-0.2
				c0.2-0.2,0.2-0.5,0.2-0.8c0.2-0.1,0.3-0.2,0.4-0.3c0.3-0.2,0.5-0.4,0.8-0.6c0.1-0.1,0.2-0.2,0.4-0.3c0.7,1,1.6,1.9,2.7,2.3
				c-0.3,0.5-0.5,1.2-0.6,1.8c-0.2,0.1-0.4,0.2-0.6,0.4c-0.4,0.5-0.2,1.2,0.3,1.5c0.5,0.4,1.2,0.2,1.5-0.3c0.4-0.5,0.2-1.2-0.3-1.5
				c0,0-0.1,0-0.1-0.1c0.1-0.1,0.1-0.3,0.1-0.3c0.1-0.3,0.2-0.6,0.3-1c0-0.1,0.1-0.2,0.1-0.4c0.8,0.1,1.5-0.2,2.1-0.7
				c0.2,0.3,0.4,0.6,0.5,0.9c0.1,0.2,0.2,0.3,0.3,0.5c0,0,0,0,0,0c-0.3,0.5-0.2,1.2,0.3,1.5c0.5,0.3,1.2,0.2,1.5-0.3
				c0.3-0.5,0.2-1.2-0.3-1.5c-0.2-0.2-0.5-0.2-0.8-0.2c-0.1-0.2-0.2-0.5-0.3-0.7c-0.1-0.3-0.3-0.6-0.4-0.9c0,0-0.1-0.1-0.1-0.2
				c0.5-0.8,0.9-1.8,1.1-2.7c0.1,0.1,0.3,0.1,0.3,0.1c0.2,0.1,0.5,0.2,0.7,0.2c0.2,0.1,0.4,0.1,0.6,0.2c0,0.4,0.1,0.7,0.5,0.9
				c0.5,0.3,1.2,0.2,1.5-0.3s0.2-1.2-0.3-1.5c-0.4-0.3-1-0.3-1.4,0.1c-0.6-0.2-1.5-0.3-1.8-0.4c0.1-0.6,0.2-1.2,0.3-1.6
				c0.1-0.8,0.1-1.6,0.1-2.3c0.1,0,0.3,0,0.4,0c0.3,0,0.6,0,0.8,0c0.1,0,0.3,0,0.4,0c0.1,0.1,0.2,0.2,0.3,0.3c0.4,0.3,1,0.2,1.3-0.2
				c0.3-0.4,0.2-1-0.2-1.3c-0.4-0.3-1-0.2-1.3,0.2c-0.1,0.1-0.1,0.1-0.1,0.2c-0.6,0.1-1.4,0.2-1.6,0.3c0-1-0.1-1.9-0.3-2.9
				c0,0,0,0,0,0c0,0,0,0,0,0c0.3-0.1,0.6-0.1,0.9-0.2c0.2-0.1,0.5-0.1,0.7-0.2c0,0,0.1,0.1,0.1,0.1c0.4,0.3,0.9,0.2,1.1-0.2
				c0.3-0.4,0.2-0.9-0.2-1.1s-0.9-0.2-1.1,0.2c-0.1,0.1-0.1,0.2-0.1,0.3c0,0,0,0,0,0c-0.5,0.1-1,0.2-1.5,0.4c-0.1-0.7-0.2-1.3-0.4-2
				c0.2-0.1,0.4-0.2,0.5-0.2c0.3-0.1,0.7-0.3,1-0.4c0.2-0.1,0.4-0.2,0.6-0.3c0,0,0.1,0.1,0.1,0.1c0.4,0.3,1,0.2,1.3-0.2
				c0.3-0.4,0.2-1-0.2-1.3c-0.4-0.3-1-0.2-1.3,0.2c-0.1,0.2-0.2,0.3-0.2,0.5c-0.7,0.3-1.4,0.5-2,0.9c-0.2-0.6-0.4-1.2-0.7-1.8
				c0.1,0,0.1-0.1,0.2-0.1c0.2-0.2,0.4-0.3,0.5-0.5c0.2-0.2,0.3-0.3,0.5-0.5c0.4,0.2,0.8,0,1.1-0.3c0.3-0.4,0.2-1-0.2-1.2
				c-0.4-0.3-1-0.2-1.2,0.2c-0.2,0.2-0.2,0.5-0.1,0.8c0,0,0,0,0,0c-0.3,0.3-0.7,0.7-1,1.1c-0.1-0.1-0.1-0.2-0.2-0.3
				c-0.3-0.4-0.7-0.8-1.2-1.1c0,0,0,0,0,0c0.1-0.1,0.1-0.2,0.2-0.4c0.2-0.3,0.3-0.6,0.5-0.9c0.1-0.2,0.2-0.3,0.2-0.5
				c0.3,0,0.7-0.1,0.9-0.4c0.3-0.4,0.2-1-0.2-1.3c-0.4-0.3-1-0.2-1.3,0.2c-0.2,0.3-0.2,0.7-0.1,1c0,0,0,0.1-0.1,0.1
				c-0.3,0.6-0.6,1.1-0.7,1.7c-0.1-0.1-0.2-0.1-0.3-0.2c-0.7,0-1.3,0.1-1.8,0.3c0-0.1,0-0.1,0-0.2c0-0.3-0.1-0.6-0.2-0.9
				c-0.1-0.2-0.1-0.4-0.2-0.6c0.1-0.1,0.2-0.1,0.2-0.2c0.3-0.5,0.2-1.1-0.2-1.5c-0.5-0.3-1.1-0.2-1.5,0.2s-0.2,1.1,0.2,1.5
				c0.1,0.1,0.3,0.2,0.5,0.2c0.2,0.6,0.4,1.2,0.6,1.7c0,0,0,0,0,0c-0.8,0.5-1.5,1.4-2,2.5c-0.6-0.2-1.2-0.3-1.5-0.4c0,0,0,0,0,0
				c0.1-0.3-0.1-0.7-0.3-0.9C363.2,210.8,362.6,210.9,362.4,211.2z M368.4,222.8c0.2-0.2,0.5-0.3,0.7-0.1c0.2,0.2,0.3,0.5,0.1,0.7
				c-0.2,0.2-0.5,0.3-0.7,0.1C368.3,223.4,368.2,223.1,368.4,222.8z M370.1,220.2c0.2-0.3,0.6-0.3,0.8-0.1s0.3,0.6,0.1,0.8
				c-0.2,0.3-0.6,0.3-0.8,0.1C370,220.8,369.9,220.5,370.1,220.2z M370.6,214c-0.2,0.2-0.5,0.3-0.7,0.1c-0.2-0.2-0.3-0.5-0.1-0.7
				c0.2-0.2,0.5-0.3,0.7-0.1C370.7,213.4,370.8,213.7,370.6,214z M369.7,218.3c-0.4-0.3-0.5-0.9-0.2-1.3c0.3-0.4,0.9-0.5,1.3-0.2
				c0.4,0.3,0.5,0.9,0.2,1.3C370.7,218.5,370.1,218.6,369.7,218.3z M366.9,218.8c0.4-0.5,1.1-0.6,1.6-0.3s0.6,1.1,0.3,1.6
				c-0.4,0.5-1.1,0.6-1.6,0.3C366.7,220.1,366.5,219.4,366.9,218.8z M367.6,215.4c0.2-0.3,0.6-0.4,0.9-0.2c0.3,0.2,0.4,0.6,0.2,0.9
				c-0.2,0.3-0.6,0.4-0.9,0.2C367.5,216.1,367.4,215.7,367.6,215.4z"/>
			<path id="XMLID_157_" fill-rule="evenodd" clip-rule="evenodd" fill="#F4B07F" d="M266.3,303.7c-0.3,0.4-0.2,0.9,0.2,1.2
				c0.3,0.2,0.8,0.2,1.1-0.1c0.1,0,0.1,0.1,0.2,0.1c0.2,0.1,0.3,0.1,0.4,0.2c0.3,0.1,0.5,0.2,0.8,0.3c-0.4,1.1-0.7,2.4-0.9,3.8
				c-0.5,0-1,0-1.3,0.1c0-0.4-0.2-0.8-0.5-1c-0.5-0.4-1.3-0.3-1.7,0.3c-0.4,0.5-0.3,1.3,0.3,1.7s1.3,0.3,1.7-0.3c0,0,0-0.1,0.1-0.1
				c0.2,0,0.4,0.1,0.5,0.1c0.3,0,0.6,0,0.9,0c-0.1,1.4,0,2.8,0.2,4.2c-0.4,0.2-0.8,0.3-1.1,0.5c-0.1,0-0.2,0.1-0.3,0.3
				c-0.1-0.1-0.1-0.2-0.2-0.2c-0.5-0.3-1.1-0.2-1.4,0.2c-0.3,0.5-0.2,1.1,0.2,1.4c0.5,0.3,1.1,0.2,1.4-0.2c0.1-0.1,0.1-0.2,0.1-0.3
				c0.1,0,0.2-0.1,0.4-0.1c0.3-0.1,0.7-0.2,1-0.4c0.1,0,0.1,0,0.2-0.1c0.3,1.1,0.6,2.1,1.1,3c0,0-0.1,0.1-0.1,0.1
				c-0.5,0.4-1.1,0.8-1.4,1.3c-0.4-0.2-1-0.1-1.3,0.3c-0.3,0.5-0.2,1.1,0.2,1.4c0.5,0.3,1.1,0.2,1.4-0.2c0.2-0.2,0.2-0.5,0.2-0.8
				c0.2-0.1,0.3-0.2,0.4-0.3c0.3-0.2,0.5-0.4,0.8-0.6c0.1-0.1,0.2-0.2,0.4-0.3c0.7,1,1.6,1.9,2.7,2.3c-0.3,0.5-0.5,1.2-0.6,1.8
				c-0.2,0.1-0.4,0.2-0.6,0.4c-0.4,0.5-0.2,1.2,0.3,1.5c0.5,0.4,1.2,0.2,1.5-0.3c0.4-0.5,0.2-1.2-0.3-1.5c0,0-0.1,0-0.1-0.1
				c0.1-0.1,0.1-0.3,0.1-0.3c0.1-0.3,0.2-0.6,0.3-1c0-0.1,0.1-0.2,0.1-0.4c0.8,0.1,1.5-0.2,2.1-0.7c0.2,0.3,0.4,0.6,0.5,0.9
				c0.1,0.2,0.2,0.3,0.3,0.5c0,0,0,0,0,0c-0.3,0.5-0.2,1.2,0.3,1.5c0.5,0.3,1.2,0.2,1.5-0.3c0.3-0.5,0.2-1.2-0.3-1.5
				c-0.2-0.2-0.5-0.2-0.8-0.2c-0.1-0.2-0.2-0.5-0.3-0.7c-0.1-0.3-0.3-0.6-0.4-0.9c0,0-0.1-0.1-0.1-0.2c0.5-0.8,0.9-1.8,1.1-2.7
				c0.1,0.1,0.3,0.1,0.3,0.1c0.2,0.1,0.5,0.2,0.7,0.2c0.2,0.1,0.4,0.1,0.6,0.2c0,0.4,0.1,0.7,0.5,0.9c0.5,0.3,1.2,0.2,1.5-0.3
				s0.2-1.2-0.3-1.5c-0.4-0.3-1-0.3-1.4,0.1c-0.6-0.2-1.5-0.3-1.8-0.4c0.1-0.6,0.2-1.2,0.3-1.6c0.1-0.8,0.1-1.6,0.1-2.3
				c0.1,0,0.3,0,0.4,0c0.3,0,0.6,0,0.8,0c0.1,0,0.3,0,0.4,0c0.1,0.1,0.2,0.2,0.3,0.3c0.4,0.3,1,0.2,1.3-0.2c0.3-0.4,0.2-1-0.2-1.3
				c-0.4-0.3-1-0.2-1.3,0.2c-0.1,0.1-0.1,0.1-0.1,0.2c-0.6,0.1-1.4,0.2-1.6,0.3c0-1-0.1-1.9-0.3-2.9c0,0,0,0,0,0c0,0,0,0,0,0
				c0.3-0.1,0.6-0.1,0.9-0.2c0.2-0.1,0.5-0.1,0.7-0.2c0,0,0.1,0.1,0.1,0.1c0.4,0.3,0.9,0.2,1.1-0.2s0.2-0.9-0.2-1.1
				s-0.9-0.2-1.1,0.2c-0.1,0.1-0.1,0.2-0.1,0.3c0,0,0,0,0,0c-0.5,0.1-1,0.2-1.5,0.4c-0.1-0.7-0.2-1.3-0.4-2c0.2-0.1,0.4-0.2,0.5-0.2
				c0.3-0.1,0.7-0.3,1-0.4c0.2-0.1,0.4-0.2,0.6-0.3c0,0,0.1,0.1,0.1,0.1c0.4,0.3,1,0.2,1.3-0.2c0.3-0.4,0.2-1-0.2-1.3
				c-0.4-0.3-1-0.2-1.3,0.2c-0.1,0.2-0.2,0.3-0.2,0.5c-0.7,0.3-1.4,0.5-2,0.9c-0.2-0.6-0.4-1.2-0.7-1.8c0.1,0,0.1-0.1,0.2-0.1
				c0.2-0.2,0.4-0.3,0.5-0.5c0.2-0.2,0.3-0.3,0.5-0.5c0.4,0.2,0.8,0,1.1-0.3c0.3-0.4,0.2-1-0.2-1.2c-0.4-0.3-1-0.2-1.2,0.2
				c-0.2,0.2-0.2,0.5-0.1,0.8c0,0,0,0,0,0c-0.3,0.3-0.7,0.7-1,1.1c-0.1-0.1-0.1-0.2-0.2-0.3c-0.3-0.4-0.7-0.8-1.2-1.1c0,0,0,0,0,0
				c0.1-0.1,0.1-0.2,0.2-0.4c0.2-0.3,0.3-0.6,0.5-0.9c0.1-0.2,0.2-0.3,0.2-0.5c0.3,0,0.7-0.1,0.9-0.4c0.3-0.4,0.2-1-0.2-1.3
				s-1-0.2-1.3,0.2c-0.2,0.3-0.2,0.7-0.1,1c0,0,0,0.1-0.1,0.1c-0.3,0.6-0.6,1.1-0.7,1.7c-0.1-0.1-0.2-0.1-0.3-0.2
				c-0.7,0-1.3,0.1-1.8,0.3c0-0.1,0-0.1,0-0.2c0-0.3-0.1-0.6-0.2-0.9c-0.1-0.2-0.1-0.4-0.2-0.6c0.1-0.1,0.2-0.1,0.2-0.2
				c0.3-0.5,0.2-1.1-0.2-1.5c-0.5-0.3-1.1-0.2-1.5,0.2c-0.3,0.5-0.2,1.1,0.2,1.5c0.1,0.1,0.3,0.2,0.5,0.2c0.2,0.6,0.4,1.2,0.6,1.7
				c0,0,0,0,0,0c-0.8,0.5-1.5,1.4-2,2.5c-0.6-0.2-1.2-0.3-1.5-0.4c0,0,0,0,0,0c0.1-0.3-0.1-0.7-0.3-0.9
				C267.1,303.2,266.6,303.3,266.3,303.7z M272.3,315.3c0.2-0.2,0.5-0.3,0.7-0.1c0.2,0.2,0.3,0.5,0.1,0.7c-0.2,0.2-0.5,0.3-0.7,0.1
				C272.2,315.8,272.2,315.5,272.3,315.3z M274.1,312.6c0.2-0.3,0.6-0.3,0.8-0.1c0.3,0.2,0.3,0.6,0.1,0.8c-0.2,0.3-0.6,0.3-0.8,0.1
				C273.9,313.2,273.9,312.9,274.1,312.6z M274.5,306.4c-0.2,0.2-0.5,0.3-0.7,0.1c-0.2-0.2-0.3-0.5-0.1-0.7s0.5-0.3,0.7-0.1
				C274.6,305.8,274.7,306.2,274.5,306.4z M273.6,310.8c-0.4-0.3-0.5-0.9-0.2-1.3c0.3-0.4,0.9-0.5,1.3-0.2c0.4,0.3,0.5,0.9,0.2,1.3
				C274.6,311,274,311.1,273.6,310.8z M270.9,311.3c0.4-0.5,1.1-0.6,1.6-0.3s0.6,1.1,0.3,1.6c-0.4,0.5-1.1,0.6-1.6,0.3
				C270.6,312.5,270.5,311.8,270.9,311.3z M271.5,307.8c0.2-0.3,0.6-0.4,0.9-0.2s0.4,0.6,0.2,0.9s-0.6,0.4-0.9,0.2
				C271.4,308.5,271.3,308.1,271.5,307.8z"/>
			<path id="XMLID_147_" fill="#E69C0E" d="M337.5,269.8c-0.7-0.3-1.5,0-2.3,0.8l-5.7-4.9c0.6-1.1,1.1-2.2,1.5-3.4
				c0.2-0.6,0.3-1.2,0.5-1.8l3.6,0.9c0.1,1.4,0.6,2.4,1.3,2.5c0.9,0.1,1.8-1.3,2-3c0.2-1.8-0.4-3.3-1.3-3.4
				c-0.6-0.1-1.3,0.6-1.7,1.6l-3.6-1.7c0-2.1-0.3-4.1-1-6l4.4-1.5c0.8,0.9,1.7,1.3,2.4,0.9c0.9-0.5,1-2.1,0.2-3.6
				c-0.8-1.5-2.2-2.3-3.1-1.8c-0.6,0.3-0.8,1.1-0.7,1.9l-5,0.4c-0.8-1.3-1.9-2.5-3-3.5l3.1-5.2c1,0.4,2,0.4,2.4-0.1
				c0.6-0.8,0-2.2-1.3-3.2c-1.3-1-2.9-1.3-3.4-0.5c-0.4,0.5-0.2,1.4,0.3,2.2l-4.5,4.6c-0.9-0.5-1.8-0.8-2.8-1.2
				c-0.1,0-0.2,0-0.2-0.1l0.4-7.9c1.4,0,2.6-0.5,2.9-1.5c0.3-1.3-1-2.7-3-3.2c-2-0.5-3.9,0-4.2,1.3c-0.3,1,0.5,2,1.7,2.7l-1.9,7.9
				c-2-0.1-3.9,0.1-5.8,0.7l-1.6-4.6c1-0.5,1.6-1.4,1.5-2.1c-0.2-1-1.8-1.5-3.6-1.1c-1.7,0.4-3,1.6-2.7,2.6c0.2,0.9,1.5,1.4,2.9,1.3
				l0.6,5.2c-1.5,0.8-2.9,1.8-4.1,2.9l-5.9-5c0.4-1.2,0.3-2.3-0.4-2.8c-1-0.7-2.8,0-4,1.7c-1.2,1.6-1.4,3.6-0.4,4.3
				c0.9,0.7,2.4,0.2,3.6-1.1l4.8,5.7c-0.9,1.3-1.6,2.7-2.1,4.3c-0.2,0.7-0.4,1.3-0.5,2l-5,0.9c-0.4-1.1-1.2-1.9-2-1.8
				c-1.1,0.1-1.9,1.5-1.8,3.2c0.1,1.7,1.1,3,2.3,2.9c1-0.1,1.7-1.1,1.8-2.5l4.5,0c0,1.5,0.1,3,0.4,4.5l-7.6,6.4
				c-1.1-0.8-2.3-1.1-3-0.5c-0.9,0.8-0.5,2.6,0.8,4c1.3,1.5,3,2,3.9,1.3c0.7-0.7,0.6-2.1-0.3-3.4l7.4-4.6c0.7,1.5,1.6,2.8,2.6,4
				l-3.8,6.1c-1-0.3-1.9-0.2-2.3,0.4c-0.5,0.8,0,2.1,1.3,2.9c1.2,0.8,2.7,0.8,3.2,0.1c0.4-0.7,0.1-1.7-0.7-2.4l4.3-5
				c1.6,1.3,3.5,2.4,5.7,3.1c0,0,0,0,0,0l0,8.4c-1.6,0.1-2.8,0.9-2.9,2c-0.1,1.2,1.5,2.3,3.6,2.5c2,0.1,3.8-0.8,3.8-2
				c0.1-0.9-0.8-1.7-2-2.1l1.4-7.9c2.6,0.2,5.1-0.2,7.5-1.1l3,3.8c-1,0.7-1.5,1.7-1.2,2.4c0.4,1,2.1,1.4,3.8,0.7
				c1.7-0.6,2.8-2,2.4-3.1c-0.3-0.9-1.7-1.3-3.2-0.9l-2.4-4.1c1.7-1,3.2-2.3,4.5-3.8l6.3,4.1c-0.7,1.7-0.6,3.3,0.3,3.8
				c1,0.5,2.5-0.5,3.3-2.3C338.6,272,338.5,270.2,337.5,269.8z M304.9,256.2c-0.2,0.8-1.1,1.2-1.8,1c-0.8-0.2-1.2-1.1-1-1.8
				c0.2-0.8,1.1-1.2,1.8-1C304.8,254.6,305.2,255.4,304.9,256.2z M313.1,252c-0.5,1.4-2,2.2-3.4,1.8c-1.4-0.5-2.2-2-1.8-3.4
				c0.5-1.4,2-2.2,3.4-1.8C312.8,249.1,313.6,250.6,313.1,252z M309.4,264.5c-0.5,1.6-2.2,2.5-3.8,2c-1.6-0.5-2.5-2.2-2-3.8
				c0.5-1.6,2.2-2.5,3.8-2C309.1,261.2,310,262.9,309.4,264.5z M317.9,247.5c-0.2,0.8-1.1,1.2-1.8,1c-0.8-0.2-1.2-1.1-1-1.8
				c0.2-0.8,1.1-1.2,1.8-1C317.8,245.9,318.2,246.8,317.9,247.5z M319.3,258.2c-0.3,1-1.4,1.6-2.5,1.3c-1-0.3-1.6-1.4-1.3-2.5
				c0.3-1,1.4-1.6,2.5-1.3C319,256,319.6,257.1,319.3,258.2z M317,265.5c-0.2,0.8-1.1,1.2-1.8,0.9c-0.8-0.2-1.2-1.1-0.9-1.8
				c0.2-0.8,1.1-1.2,1.8-0.9C316.9,263.9,317.3,264.7,317,265.5z M324.8,253.4c-0.2,0.7-1,1.1-1.7,0.9c-0.7-0.2-1.1-1-0.9-1.7
				c0.2-0.7,1-1.1,1.7-0.9C324.6,251.9,325,252.7,324.8,253.4z M325.9,262.7c-0.4,1.3-1.8,2-3.1,1.6c-1.3-0.4-2-1.8-1.6-3.1
				c0.4-1.3,1.8-2,3.1-1.6C325.6,260.1,326.3,261.4,325.9,262.7z"/>
			<circle id="XMLID_146_" fill-rule="evenodd" clip-rule="evenodd" fill="#FFFF06" cx="286.7" cy="185.7" r="6.4"/>
			<circle id="XMLID_145_" fill-rule="evenodd" clip-rule="evenodd" fill="#D2D954" cx="286.7" cy="185.7" r="4.9"/>
			<circle id="XMLID_144_" fill-rule="evenodd" clip-rule="evenodd" fill="#FFFF06" cx="363.6" cy="255.5" r="3.8"/>
			<circle id="XMLID_143_" fill-rule="evenodd" clip-rule="evenodd" fill="#D2D954" cx="363.6" cy="255.5" r="2.9"/>
			<circle id="XMLID_138_" fill-rule="evenodd" clip-rule="evenodd" fill="#FFFF06" cx="312.9" cy="306.6" r="3.8"/>
			<circle id="XMLID_133_" fill-rule="evenodd" clip-rule="evenodd" fill="#D2D954" cx="312.9" cy="306.6" r="2.9"/>
			<circle id="XMLID_132_" fill-rule="evenodd" clip-rule="evenodd" fill="#E69C0E" cx="343" cy="221" r="5.2"/>
			<circle id="XMLID_131_" fill-rule="evenodd" clip-rule="evenodd" fill="#F4B07F" cx="343" cy="221" r="4"/>
			<circle id="XMLID_130_" fill-rule="evenodd" clip-rule="evenodd" fill="#FFFF06" cx="270" cy="258.4" r="5.2"/>
			<circle id="XMLID_129_" fill-rule="evenodd" clip-rule="evenodd" fill="#F4B07F" cx="270" cy="258.4" r="4"/>
			<circle id="XMLID_127_" fill-rule="evenodd" clip-rule="evenodd" fill="#FFFF06" cx="312.4" cy="172.8" r="5.2"/>
			<circle id="XMLID_126_" fill-rule="evenodd" clip-rule="evenodd" fill="#F4B07F" cx="312.4" cy="172.8" r="4"/>
			<circle id="XMLID_121_" fill-rule="evenodd" clip-rule="evenodd" fill="#FFFF06" cx="375.2" cy="187" r="5.2"/>
			<circle id="XMLID_116_" fill-rule="evenodd" clip-rule="evenodd" fill="#F4B07F" cx="375.2" cy="187" r="4"/>
			<circle id="XMLID_115_" fill-rule="evenodd" clip-rule="evenodd" fill="#FFFF06" cx="307" cy="205.7" r="2.8"/>
			<circle id="XMLID_114_" fill-rule="evenodd" clip-rule="evenodd" fill="#F4B07F" cx="307" cy="205.7" r="2.2"/>
			<circle id="XMLID_110_" fill-rule="evenodd" clip-rule="evenodd" fill="#FFFF06" cx="245.8" cy="286.1" r="2.8"/>
			<circle id="XMLID_109_" fill-rule="evenodd" clip-rule="evenodd" fill="#F4B07F" cx="245.8" cy="286.1" r="2.2"/>
			<circle id="XMLID_108_" fill-rule="evenodd" clip-rule="evenodd" fill="#FFFF06" cx="309.5" cy="140.5" r="2.8"/>
			<circle id="XMLID_106_" fill-rule="evenodd" clip-rule="evenodd" fill="#F4B07F" cx="309.5" cy="140.5" r="2.2"/>
			<circle id="XMLID_105_" fill-rule="evenodd" clip-rule="evenodd" fill="#FFFF06" cx="224.8" cy="248" r="2.8"/>
			<circle id="XMLID_104_" fill-rule="evenodd" clip-rule="evenodd" fill="#F4B07F" cx="224.8" cy="248" r="2.2"/>
			<circle id="XMLID_103_" fill-rule="evenodd" clip-rule="evenodd" fill="#FFFF06" cx="298" cy="226.3" r="2.8"/>
			<circle id="XMLID_102_" fill-rule="evenodd" clip-rule="evenodd" fill="#F4B07F" cx="298" cy="226.3" r="2.2"/>
			<circle id="XMLID_119_" fill-rule="evenodd" clip-rule="evenodd" fill="#FFFF06" cx="244.7" cy="183.6" r="2.8"/>
			<circle id="XMLID_118_" fill-rule="evenodd" clip-rule="evenodd" fill="#F4B07F" cx="244.7" cy="183.6" r="2.2"/>
		</g>
		<g id="XMLID_61_">
			<path id="XMLID_73_" fill="#383637" d="M212.8,304.5l-17.2,12.2c0,0-62.2,44.7-88.1,63.6c-9.4,6.8-19.2,11.1-31.2,9
				c-13.7-2.4-25.6-12.7-29.2-26.1c0-0.1,0-0.1,0-0.2c-3.5-13.7,1.1-28.3,11.9-37.4c2.7-2.3,5.6-4.2,9-5.7
				c34.6-15.3,103.8-46.1,103.8-46.1s12.5-5.5,18.7-8.3L212.8,304.5z"/>
			<path id="XMLID_71_" fill="#2D2C2D" d="M171.7,273.9c0,0,12.5-5.5,18.7-8.3l22.4,39l-17.2,12.2L171.7,273.9z"/>
			<path id="XMLID_62_" fill="#383637" d="M331.7,115.6C268,98,203.3,135.7,186.4,197.9c-16.3,60.1,17.3,126.4,82.6,144.4
				c61.8,17.1,126.7-20,144-82.3C430.3,197.7,393.7,132.8,331.7,115.6z M327.7,130c54.1,15,86,71.6,71,126.1
				c-15,54.4-71.7,86.8-125.7,71.9c-57-15.8-86.4-73.7-72.1-126.1C215.6,147.5,272.1,114.6,327.7,130z"/>
		</g>
	</g>
	<g id="XMLID_4_">
		<path id="XMLID_7_" opacity="0.15" fill="#FFFFFF" d="M255.9,322.2c-53.6-25.7-72.4-88.1-49-137.4c24.2-51.1,85.8-73.7,138.1-48.6
			"/>
		<g id="XMLID_6_" opacity="0.5">
			<path id="XMLID_11_" fill="#FFFFFF" d="M236.2,203l-15-2.7c1.9-10.4,6.6-20.5,13.5-28.4c8.6-9.9,20.2-16.4,33.7-18.7l2.5,15
				C249.3,171.9,238.8,188.6,236.2,203z"/>
		</g>
	</g>
</g>
</svg>
