<svg xmlns="http://www.w3.org/2000/svg" xml:space="preserve" width="720" height="433" viewBox="0 0 720 433">
  <g fill="#ffffff">
    <path
      d="M604,25.9c0.6,0.2,1.2,0.5,1.8,0.7c2.1,1.1,4.7,1.1,7.3,3.6c-7.7-0.8-14.4-1.5-21.2-2.1	c-1.3-0.2-2.6-0.3-3.8-0.5c-2.3-0.7-4.7-0.7-7.2-0.6c-0.9-0.2-1.9-0.3-2.8-0.5c-13.3-1.4-26.7-2.7-40.2-2.4c-10.3-0.6-20.7-0.7-31,0	c-4.3-0.2-8.7-0.3-13,0.7c-1,0.1-2,0.2-3,0.3c-5.5-0.2-10.8,0.7-16.1,1.5c-0.6,0.1-1.2,0.3-1.8,0.4c-6.9,0.5-13.7,1.3-20.2,3.8	c0,0,0.1-0.1,0.1-0.1c-2.8,0.2-5.5,0.8-8.1,2.1c0,0,0-0.1,0-0.1c-6.4,1.6-12.7,3.6-18.4,7.1c-0.9,0.1-1.9,0.2-2.4,1.1	c-3.9,1.3-7.3,3.4-10.6,5.8c0,0-0.4,0.2-0.4,0.2c-0.4,0.3-0.9,0.5-1.3,0.8c0,0,0.1-0.1,0.1-0.1c-20.1,11.4-37.3,26.4-53,43.1	c0,0,0.1-0.1,0.1-0.1c-0.4,0.4-0.7,0.7-1.1,1.1c0,0,0,0,0,0c-0.9,0.4-1.7,1-2,2c0,0,0,0,0,0c-2.3,1.7-4.4,3.6-6,6.1c0,0,0,0,0,0	c-6.2,5.5-11.8,11.6-17.3,17.7l0.2,0.2c0,0-0.2-0.1-0.2-0.1c-4.6,4.3-9.2,8.6-14,12.8c-19.3,17.1-41.2,27.7-67.8,26.7	c-19-0.7-34.8-12.3-39.5-29.5c-2.4-8.6-1-17.1,0.7-25.6c0.3-0.2,0.4-0.4,0.2-0.7c2-4.4,4-8.8,6.1-13.2c0,0,0,0.1,0,0c2-3,4-6,6.1-9	c0,0,0,0,0,0c4-4.4,8-8.7,12-13.1C277,31.3,325.7,14.9,377.3,5c4.5-0.9,9.1-1.5,13.7-2.3c1.7,0.2,3.4-0.1,5-0.8c0.7,0,1.4-0.1,2-0.1	c3.7-0.1,7.6,0.3,11-1.8c19.3,0,38.7,0,58,0c6.7,1.5,13.4,2.1,20.2,1.7c1.1-0.2,1.7-0.6,0.8-1.7c0.3,0,0.7,0,1,0	c-2.3,2.7,0.4,2.5,1.7,2.7c4.4,0.5,8.9,0.8,13.3,1.2c11.4,1.8,22.9,3.6,34.3,5.4c0.8,0.8,1.7,0.8,2.7,0.6c0.6,0.1,1.3,0.3,1.9,0.4	c7.6,1.7,15.2,3.4,22.7,5.1c0,0,0.1,0,0.1,0c0.6,0.7,1.5,0.7,2.3,0.5c0.6,0.2,1.2,0.4,1.8,0.6c8.6,2.3,17.2,4.6,25.8,6.9	c0,0,0.1,0,0.1,0c0.4,0.1,0.9,0.3,1.3,0.4c0.6,0.2,1.2,0.4,1.9,0.6c1,0.3,2,0.6,3,0.8c0,0,0,0,0,0C602.3,26,603.1,26,604,25.9z" />
    <path
      d="M238,433c-0.9-1.8-2.8-1.6-4.2-2.2c-14.9-6.2-24.7-20.6-24.7-36.7c0-8.6,0-17.2,0-26.7	c-7.9,6.8-16,11.6-25.4,13.5c-24.9,5-48.8-7.9-59.5-32.2c-13.5-30.6,1.1-67,31.4-78.4c6-2.3,12.2-3.2,18.6-3.2	c16.2,0,32.3,0.1,48.5-0.1c4-0.1,4.5,1.4,4.5,4.9c-0.1,40-0.1,79.9-0.1,119.9c0,8.4,2,16.1,6.9,23c2.5,3.5,5.4,6.7,9.5,7.8	c4.3,1.2,5.5,3.5,4.8,7.4c-0.2,1-0.1,2-0.2,3C244.7,433,241.3,433,238,433z M206.7,306.3c0-9.2-0.1-16.9,0.1-24.5	c0.1-2.9-0.9-3.7-3.7-3.7c-9.7,0.1-19.3,0.1-29,0c-7.2-0.1-13.4,2.2-18.7,6.9c-20.8,18.1-21.6,59.1-1.6,78.1	c11.8,11.2,27.2,11,38.7-0.5c6.6-6.5,10.3-14.6,12.4-23.5C207.7,327.7,206.4,316.2,206.7,306.3z" />
    <path
      d="M556,433c0-1,0.1-2,0-3c-0.6-3.9,0.8-5.6,4.8-7.4c11-5,15.3-15,16.1-26.3	c0.7-8.6,0.1-17.3,0.1-25.8c-0.8-0.6-1.3-0.2-1.9,0.2c-32.3,24.5-77.5,5.1-84.3-36.8c-1.8-11.3-0.7-22.6-0.9-33.9	c-0.2-9.5,0.1-19-0.1-28.5c-0.1-3.4,1-4.4,4.2-4.2c3.5,0.2,7,0.3,10.5,0c4.3-0.4,5.7,0.8,5.6,5.4c-0.3,17-0.2,34-0.1,51	c0,11,2.4,21.5,8.3,30.9c13.6,21.8,38.5,21.4,51.4-0.9c4.8-8.3,7.4-17.4,7.4-27.1c-0.1-18,0.2-36-0.2-54c-0.1-4.6,1.3-5.8,5.6-5.3	c3.5,0.4,7,0.3,10.5,0c4-0.4,4.6,1.2,4.6,4.8c-0.2,22.2-0.1,44.3-0.1,66.5c0,17.3,0,34.7,0,52c0,20.1-9.8,34-28.7,41	c-0.9,0.3-2.5,0-2.8,1.5C562.7,433,559.3,433,556,433z" />
    <path
      d="M0,314c1.6-1.4,1.5-3.5,2-5.3c6.7-25.1,27.9-41.4,53.9-41.5c15.8,0,31.7,0.1,47.5-0.1	c3.5,0,4.5,0.8,4.5,4.4c-0.1,35.5-0.1,71,0,106.5c0,3-0.4,4.6-4,4.3c-4.4-0.4-10.2,1.4-13.1-0.8c-3-2.3-0.3-8.4-1.1-12.8	c-1.2-0.8-1.8,0.3-2.5,0.9C58,394.7,13.3,380.7,2,340.8c-0.5-1.7-0.1-3.7-2-4.8C0,328.7,0,321.3,0,314z M87.3,308.7	c0-10.2-0.2-18.2,0.1-26.1c0.1-3.4-0.8-4.6-4.4-4.5c-9.1,0.3-18.3,0.3-27.4,0c-7.9-0.2-14.6,2.5-20.4,7.7	c-19.8,18.1-20.3,58.5-0.8,77c12,11.4,27.2,11.2,39.1-0.5c5.8-5.8,9.3-12.9,11.6-20.6C88.5,330.2,86.9,318.3,87.3,308.7z" />
    <path
      d="M720,382c-4.7,0-9.3-0.2-14,0.2c-3.5,0.3-4.2-1.1-4-4.2c0.2-3.1,0.1-6.3,0.1-9.2	c-1-0.7-1.5-0.1-1.9,0.3c-29.4,25.9-74.8,12-85.8-28.5c-8.3-30.5,8.4-62.3,36.9-71c5.3-1.6,10.7-2.3,16.2-2.3	c17.5-0.1,35-0.1,52.5-0.2C720,305.3,720,343.7,720,382z M699.8,306.2c0-8.5-0.2-15.8,0.1-23.1c0.1-3.8-0.7-5.2-4.9-5.1	c-9,0.4-18,0.3-27,0c-8.7-0.3-15.9,2.9-21.8,9.1c-10.3,10.7-14,24.1-13.8,38.4c0.1,13.7,3.9,26.3,13.6,36.5	c11.3,11.8,26.5,12.3,38.7,1.3c6.1-5.5,9.8-12.5,12.3-20.2C701.1,330.7,699.4,317.8,699.8,306.2z" />
    <path
      d="M232.1,161.9c0-0.3,0-0.6-0.1-0.9c1.6,0.4,3.3,0.6,4.8,1.2c16.9,6.6,33.8,5.6,50.7,0.5	c17-5.1,31.4-14.9,45.5-25.3c15.6-11.6,30.6-24,46.8-34.7c3.2-2.1,7-3.3,9.3-6.5c1.1,0,2.2,0,2.8-1.1c3.2-0.9,6.1-2.3,8.3-4.8	c0.6-0.1,1.1-0.2,1.7-0.3c1.3,0.1,2-0.6,2.4-1.7c1.7,0.1,3.3-0.2,4.6-1.2c9-2.5,18.2-3.8,27.5-3c7,0.6,13.8,5.9,15.6,12.7	c2.3,8.7,1.3,17.1-3.2,25c-2,3.5-3.9,6.9-5.9,10.4c-0.7,0.3-1.1,0.9-1.2,1.7c-3.8,3-7.4,6-9.9,10.2c0,0,0,0,0,0	c-4.6,3-9.2,6.1-13.1,10c-0.3,0-0.6,0.1-0.9,0.2c-0.3,0.3-0.7,0.6-1,0.9c0,0,0,0,0,0c-8.2,4.1-16.3,8.5-24.7,12.3	c-7,3.2-14.3,5.8-21.5,8.6c-0.6,0-1.2,0.1-1.8,0.1c-9.7,2.4-19.3,4.7-29,7.1c-1.3,0.3-2.7,0.6-4,0.8c-16,1.4-32,1.8-48,0.2	c-1.3-0.1-2.7-0.2-4-0.2c-1.1-1.2-2.6-0.9-4-0.9c-0.9-0.1-1.8-0.1-2.7-0.2c-6.8-2.2-13.5-4.5-20.3-6.7c-0.3-0.1-0.6-0.2-0.9-0.2	c-0.3-0.3-0.7-0.5-1-0.8c-0.6-0.1-1.2-0.2-1.8-0.3c-0.4-0.3-0.8-0.6-1.2-0.8c-0.4-0.8-1.2-1-2-1C244,169.4,238,165.6,232.1,161.9z" />
    <path
      d="M453.6,367.1c-10.1,9.1-20.4,14.2-32.4,14.9c-26.3,1.5-48.5-15.2-55.6-41.4	c-8.2-30.2,8-61.8,36.4-70.8c5.4-1.7,11-2.4,16.7-2.5c16,0,32,0.1,48-0.1c3.3,0,4.6,0.6,4.5,4.3c-0.1,35.5-0.1,70.9,0,106.4	c0,3.5-0.8,4.8-4.4,4.3c-4.4-0.5-10.3,1.9-12.8-1.1C452,378.5,453.6,372.8,453.6,367.1z M451,307.3c0-9.3-0.1-17.3,0.1-25.3	c0.1-3-0.7-4-3.8-3.9c-9.1,0.2-18.3,0.3-27.5,0c-9.5-0.3-17.2,3.3-23.4,10.2c-8.9,10.1-12.5,22.2-12.7,35.4	c-0.2,15,3.6,28.7,14.7,39.5c11.1,10.8,26.3,10.8,37.6,0.2c5.8-5.5,9.5-12.3,12-19.8C452.3,331.3,450.6,318.5,451,307.3z" />
    <path
      d="M331.6,300.7c0-9.7,0.1-19.3-0.1-29c-0.1-3.4,0.6-4.8,4.3-4.5c5,0.4,11.5-1.6,14.5,0.9	c3.2,2.6,1,9.4,1,14.3c0,16.5,0.9,33-0.5,49.4c-2.9,34.4-36.7,57.2-68.6,47.2c-21.1-6.6-37-27.1-38-50.8c-0.8-19.3-0.2-38.6-0.4-58	c0-2.4,0.8-3.2,3.2-3.1c4.3,0.2,8.7,0.3,13,0c3.5-0.2,4.1,1.1,4.1,4.3c-0.1,18-0.1,36,0.1,54c0.1,11.6,3.2,22.4,10.1,31.8	c12.9,17.7,33.8,17.8,46.9,0.2c7.3-9.9,10.1-21.2,10.3-33.3C331.6,316.4,331.5,308.6,331.6,300.7	C331.5,300.7,331.6,300.7,331.6,300.7z" />
  </g>
</svg>