<svg xmlns="http://www.w3.org/2000/svg" xml:space="preserve" width="297" height="103" x="0" y="0" version="1.1"
	viewBox="0 0 297 103">
	<g fill="#ffffff">
		<path
			d="M16.7,4.2c1.8,0.7,3.6,1.3,5.4,2c8.2,3.1,12.6,9.4,12.8,18.1c0.1,4,0.1,7.9,0.2,11.9c-0.1,1.5-0.1,3-0.2,4.6	c0.1,0,0.3,0,0.4,0c0.4-1.5,0.7-3.1,1.1-4.6c6.1-18.6,15.9-25.8,36.2-26.4c8.1-0.2,16.3,0.1,24.5-0.1c3.3-0.1,3.9,1.2,3.5,4.1	C98.9,25.5,91.3,32.5,79.4,33c-4.1,0.2-8.3,0-12.6,0.6c1.4,0.5,2.8,1,4.2,1.4c14.5,4.5,22.9,14.8,23.8,29.8	c0.7,11.3,0.6,22.6,0,33.9c-1.1-0.1-2.2-0.6-3.1,0.5c-0.3,0-0.7,0-1,0c-0.7-1.7-2.5-1.4-3.8-1.9c-10.1-3.3-14.5-9.4-14.6-20	c0-5.1,0-10.2,0-15.7c-0.6,1.6-1.2,3-1.5,4.3C66.1,83.7,54.3,92.9,35.7,93c-10,0-20,0.1-30,0.2c0-1.3,0-2.7,0-4	c1.7-0.7,1.3-2.5,1.7-3.8C10.9,74.7,17,70.1,28.3,70c3.1,0,6.3-0.1,9.4-0.2c1.8,0,3.6,0,5.7,0c-2.1-0.5-3.9-0.9-5.7-1.4	C19.8,62.1,12,51.4,11.9,33.1c-0.1-9.7-0.1-19.3-0.2-29C13.4,4.2,15.1,4.2,16.7,4.2z M53.3,33c-10.1,0.1-18.6,8.6-18.4,18.5	C35.1,61.4,43.7,70,53.6,70c10.2,0,18.6-8.6,18.4-19C71.8,40.8,63.7,32.9,53.3,33z" />
		<path
			d="M290.7,63.2c-1.4,0.4-1.4,1.7-1.8,2.8c-4.2,10.1-13,15.3-23.9,14c-12-1.5-19.9-8.9-21.2-20.3	c-0.4-3.8-0.5-7.7,0-11.4c2.4-18.6,24.2-27.5,39.4-16.4c4,2.9,5.5,7.3,7.5,11.4c0,0.7,0,1.3,0,2c-2.8,0.1-5.7,0.1-8.5,0.2	c-1.8,0.1-3-0.2-3.7-2.3c-1.6-4.7-5.4-6.6-10.1-6.8c-5-0.1-9.2,1.9-11.5,6.5c-3.3,7-3.5,14.2-0.3,21.2c2.1,4.6,5.9,7.2,11.2,7	c4.8-0.2,8.7-2.4,10-6.9c1.2-4.1,3.4-4.7,6.9-4.3c2,0.2,4,0.3,6,0.4C290.7,61.2,290.7,62.2,290.7,63.2z" />
		<path d="M91.7,99.2c0.9-1,2-0.5,3.1-0.5c0,0-0.1,0.5-0.1,0.5C93.7,99.2,92.7,99.2,91.7,99.2z" />
		<path
			d="M126.3,33.9c6.1-5.1,12-7.6,19-6.3c14.2,2.6,21.5,15.6,18.5,32.9c-2.6,14.8-13.3,21.9-27.9,18.7	c-3.8-0.9-6.8-3-9.6-5.6c-1.5,1.4,0.7,4.3-1.9,4.6c-2.9,0.3-6,0.8-8.9-0.3c-1.1-0.4-0.6-2.1-0.6-3.2c0-20.3,0.1-40.6-0.1-61	c0-3.9,1.6-4.2,4.5-3c5,2,6.8,6,6.9,11.1C126.3,25.4,126.3,29.2,126.3,33.9z M125.9,53.1c-0.1,3.4,0.4,6.5,1.7,9.4	c2.4,5.6,6.8,8.6,12.3,8.5c5.8-0.1,10.1-3.4,12.1-9.5c1.9-5.7,1.7-11.5-0.6-17.1c-2.3-5.4-7.1-8.5-12.5-8.3	c-5.7,0.3-10.2,3.8-11.9,9.7C126.3,48.3,125.6,50.7,125.9,53.1z" />
		<path
			d="M245.6,78.7c-6.4,1.3-11.6,2.7-15.3-3.2c-1-1.6-2.3,0.3-3.4,0.9c-6.3,3.3-12.8,4.5-19.8,2.8	c-7-1.8-11.3-7.1-11.4-13.9c0-7.3,3.6-12.2,11-14c5.6-1.3,11.5-2,17.2-2.9c3-0.5,5.5-1.6,5.7-5.2c0.2-3.7-2.1-5.3-5.2-6.3	c-6.6-2-12-0.1-15.3,5.5c-0.8,1.4-8.8,2.9-10.4,1.6c-2.2-1.8-0.2-3.9,0.2-5.8c0.2-1.1,0.9-2.1,1.6-3.1c6.7-9.7,29.3-10.7,37-1.6	c2.3,2.7,2.9,5.9,2.9,9.3c0,8.5,0,17,0.2,25.5C240.5,72.2,241.3,76,245.6,78.7z M229.3,58.5c-0.7-1.1,1.1-4.5-1.5-3.8	c-5.3,1.3-10.9,1.1-16.1,3.1c-3,1.2-4.5,3.4-4.7,6.4c-0.2,2.3,1.2,4,3.2,5.1C219.1,74.4,229.2,68.8,229.3,58.5z" />
		<path
			d="M178.8,35.4c3.7-4.2,7.5-7.7,13.3-8.1c3-0.2,5.6,0,4.7,4c-0.6,2.7,2.7,7.4-4.2,6.8c-6.7-0.6-11.4,3.6-13,10.6	c-1.9,8.2-1,16.6-0.8,24.8c0.1,4.8-2,4.9-5.6,4.8c-3.3-0.1-5.9,0.4-5.7-4.6c0.4-13.3,0.1-26.6,0.2-39.9c0-2.4-1.1-5.6,3.5-5.2	c3.4,0.3,7.9-1.3,6.9,5C178.2,34.1,178.5,34.5,178.8,35.4z" />
		<path
			d="M36.4,36.2c-0.4,1.5-0.7,3.1-1.1,4.6c-0.1,0-0.3,0-0.4,0c0.1-1.5,0.1-3,0.2-4.6C35.5,36.2,36,36.2,36.4,36.2z" />
		<path d="M37.7,69.8c0-0.5,0-0.9,0-1.4c1.8,0.4,3.6,0.9,5.7,1.4C41.3,69.8,39.5,69.8,37.7,69.8z" />
	</g>
</svg>