<svg xmlns="http://www.w3.org/2000/svg" xml:space="preserve" width="1600" height="466.1" x="0" y="0" version="1.1"
	viewBox="160 407.9 1600 466.1">
	<path
		d="M544.3,663.5c-2-2,0.5-2,2.5-3c8-3,55.7-18.1,97.3-29.1s101.3-23.6,110.4-25.1c3.5-1,5,0,7,3 c2,3.5,7,15.6,8.5,25.1c2,12,0,24.6-1,27.6c-1,2.5-4.5,2.5-12.5,5c-5,1.5-25.6,6.5-34.1,9c-9.5,3-35.6,10.5-45.2,13.5 c-11.5,4-27.1,9-27.1,9l-82.3,1.5c0,0-1-5.5-2-6c-0.5-0.5-2-3-2.5-4c-0.5-0.5-1.5-3.5-1.5-3.5s-0.5-3-1-3.5s-2.5-4.5-3-5 s-2.5-2.5-3-3.5s-1-2-2.5-3c-1-1-2.5-3-3.5-3.5C547.3,667,546.3,665.5,544.3,663.5"
		class="st0" />
	<path
		d="M328.1,811c4.5-2.5,14.6-8,16.1-9c2-1,3-1,3-0.5c0,2.5,0,7,3,8c1,0.5,3-1,3.5,0c1,1.5,1,1.5,1.5,2s2,0,2,0.5 c1,0.5,0,1.5,0.5,2c1,1,2-0.5,3-0.5c1.5,0.5,1.5,1.5,1.5,2.5c-0.5,1.5,0.5,3,3,0.5c1.5-1,1.5-0.5,2.5-1c0.5-0.5,2-0.5,2.5,0 s1.5,1.5,2,1.5c1,0.5,2,0,3,0.5s1,2,2,2s1.5-1.5,2.5-1c1.5,1.5-1.5,4,0.5,4.5c1,0.5,1.5-0.5,2.5-0.5s1.5-1,2-1s1.5,1,2,0.5 c1-0.5,1.5-0.5,2-1c1-0.5,2-0.5,2.5-1s0-2,2.5-2c2,0.5-0.5,2.5,0.5,3c0.5,0.5,2.5,0,3,0c1-0.5,2.5-2,2.5-3c0.5-1,2.5-5,3-6.5 c0.5-1,2.5-5.5,3.5-7s5-7.5,5-8.5c0.5-1,2-2.5,2-3c0.5-0.5,1-3,2-5s3.5-6,4-6.5c0-0.5,2.5-5.5,3-7s3.5-5,4-6.5s2.5-5,2.5-5l2-3 c0,0,0.5-1.5,1.5-3c1-2,3.5-5.5,4-7s3-4,3-4l1.5-3.5l1-2.5c0,0,1-3,1.5-4s2-3,2.5-4s2-6,2.5-7.5s4.5-8,4.5-9l4.5-9 c0.5-1.5,0.5-3,1-4s2-3,2-3.5s2.5-6.5,3-7.5s0.5-2.5,1.5-2.5s1.5,1,2.5,2c0.5,1,2,1,3,1.5c1,1,3.5,4,4,4.5c0,0.5,1.5,0.5,2,1 s0.5,1.5,1,2c0.5,0,3,2,3.5,2.5s1,2,1.5,2.5s3.5,2,4,3c0.5,0.5,4.5,5.5,5,6.5s1,2.5,1,3c0.5,0.5,2,1.5,2,2s0,3,0.5,3.5 s2,1.5,2.5,2c0,0.5,1,3,1.5,3.5l1.5,1.5c0.5,0.5,0.5,3,1,3.5s1.5,2.5,2,3.5s1.5,2.5,2,3c0,0.5,0.5,3,0.5,4c0.5,1,1.5,2.5,1.5,3 s0.5,2,0.5,2l1,2.5c0,0,1,2.5,1,3c0,1,0,2,0.5,2.5c0,0.5,1,2,1,2.5s1.5,3.5,1.5,3.5s-0.5,2.5,0,3c0,0.5,1.5,2.5,1.5,3 s-0.5,2-0.5,2l0.5,1c0,0-0.5,1.5,0,2v2c0.5,0.5,1.5,3,1.5,3c-0.5,1-51.7,24.6-73.3,34.6c-31.6,14.6-96.8,47.7-103.9,51.7 c-7,4-11.5,6.5-13,5.5c-4-2-10-7.5-14.6-19.6c-3.5-10-3.5-18.6-3.5-22.6c0-3,0-5.5,5-8.5C314.5,819.2,323.6,814.1,328.1,811 M237.8,631c0,0.5,1.5,0.5,2,0.5s1,1,1.5,1h1.5c1,0.5,0.5,1.5,1,2s0.5,2,1.5,2s1.5,0,2,1c0,0.5-0.5,2,0,3c1.5,2.5,0,9,1.5,9.5 c1,0.5,5-0.5,6-2c1.5-1,3-3,4-3.5c2-1,5.5-3,7.5-3c2-0.5,2.5-3,4.5-3.5c1.5,0,1-1.5,2.5-2c1-0.5,3.5-1.5,4-1s1,1.5,2,1.5 c1.5,0.5,3,0,3,1.5c0.5,2,3.5,0,3.5,0s4-2.5,5.5-3.5c1.5-0.5,6-3,6-3s3.5-2,5-2.5c55.2-26.6,98.3-41.1,138-56.2 c63.2-24.1,170.6-51.7,191.2-56.7c2-0.5,7-1.5,7.5-1.5c0.5-0.5,1.5-0.5,2-2.5s-1-4.5-1-5.5s2-5,2.5-6.5c0-1.5-1.5-2-1.5-2v-3.5 c-0.5-1.5-3-3-3.5-4s0-5-0.5-6s-2-2-2-2s0.5-0.5,0-1.5s-1.5-1-1.5-1s0.5-2.5,0-3c0-1-1.5-1.5-1.5-1.5s-1.5-1-1.5-2s0-1.5-1-2 c-0.5-0.5-3-0.5-3.5-0.5s-2.5-0.5-3.5-0.5s-1.5,1-5,2c-3.5,0.5-5,0-6.5,0s-3,1-5,1.5c-16.6,4.5-92.8,26.6-149,47.7 c-52.2,18.6-114.4,47.2-152.5,66.7c-28.6,15.1-44.2,23.6-50.2,27.6c-3.5,2-7,4.5-7.5,5.5c-1,1.5-2,3.5-3.5,4c-2.5,0.5-2,1.5-2.5,2 c-1,0-2,1-2.5,2C237.3,629.5,237.3,630.5,237.8,631 M474.6,596.8c-2.5-1.5-1.5-3,1.5-4c18.1-7.5,64.2-24.1,90.3-32.6 c22.6-7,84.3-27.1,101.9-32.1c4-1,6-1,7.5,1c4.5,5,9,11.5,13.5,20.1c4,7.5,7.5,18.6,8.5,25.6c1,5-1.5,6-4,7 c-19.1,8.5-66.7,29.1-86.3,38.6c-19.1,9-54.2,26.1-66.2,32.1c-5,2.5-4,3.5-7.5-0.5c-1-1-2.5-4-3-4.5s-7-6.5-8-7.5 c-0.5-0.5-4.5-5-5.5-6c-1-0.5-4-5-5-5.5s-2.5-1.5-3.5-2c-0.5-0.5-2-2.5-2.5-2.5c-0.5-0.5-2.5-2-2.5-2l-2.5-2.5l-2-2 c0,0-1.5-2-3-2.5c-1-0.5-3-2.5-3.5-3s-4.5-5.5-6.5-7c-2-1-6.5-4.5-7.5-5C478.1,598.8,476.6,597.8,474.6,596.8 M445,505 c-2.5,0-4.5,0-5-0.5s0-1-0.5-1.5s-1.5-0.5-2,0s-0.5,0.5-1,0.5c-1,0.5-4-1-5-0.5s-3.5,0.5-4,0c-1-0.5-1-2.5-2.5-3 c-0.5-0.5-3-1.5-3.5-3s-2.5-3-3-4s-1-2.5-1.5-3s-1-2.5-1.5-3l-1.5-1.5c-0.5-0.5-1-2.5-1.5-3c0-0.5-1-1-1-1.5c-0.5-0.5-0.5-1-0.5-2 c-0.5-0.5-1-1.5-1.5-2.5c0-0.5-0.5-5-0.5-8c0-3.5,0-6,0.5-7.5s1-2.5,1.5-4s2-6,2.5-8s1.5-6,2-7.5s2-5,2.5-6s3.5-5.5,4.5-6.5 c1-1.5,6-6.5,7.5-7.5c1-1,4-3,5-3.5c0.5-0.5,4-3,5-3.5s2-0.5,2-0.5l1-1c0,0,0.5-0.5,1.5-1c0.5-0.5,2-0.5,2-0.5s2-1.5,3.5-1 c1,0,1.5-1.5,2-1.5c1-1,4-1,4-1c0.5,0.5,1,1,2.5,1c1.5,0.5,2.5,0,3.5,0s1.5,1,2,1.5c0.5,0,7,6.5,8,8c0.5,0.5,0.5,1.5,0.5,2 c0.5,0.5,1.5,1,2,3c0,1,1.5,1.5,1.5,3.5c0,1,2,2,3,4.5c0,0.5,0.5,3,0.5,3c0,0.5,0.5,0.5,1,1.5s0.5,2,0.5,3s1.5,4.5,1.5,7 s-0.5,4.5-1,6.5c-0.5,1.5,0,5-0.5,6.5s-1.5,4.5-1.5,5.5s-3,8-3.5,8.5s-2,4-3,5c-0.5,1-6.5,8.5-7.5,10c-1,1-3.5,3-4,3.5 c-0.5,1-1,2-2,3.5c-1,2-2.5,0.5-3.5,1.5c-1,1.5-3,2-3.5,3c-0.5,1.5-2,3-2.5,3.5C449.5,504,446.5,505,445,505 M280.4,746.3 c0,0-24.1,8-33.6,11.5c-9,3-19.1,6.5-25.6,9.5c-8,3.5-22.6,9-26.1,10.5c-5.5,2-7.5,1-9-2.5c-1.5-3-5-10-7-17.6 c-2-8-2.5-14-2.5-16.6s2-6.5,5-8.5c3-1.5,10-6,15.6-9c10.5-6,47.7-26.1,69.7-37.1c23.1-12,60.2-30.1,79.8-39.6 s52.2-25.1,56.2-27.1c4-1.5,8-3.5,10-3.5s1,1,1,1.5s-0.5,1-1,2.5c0,1.5,0,3-0.5,4.5s-2,3-2,4s-0.5,4.5-1.5,5.5s-4.5,8-5,11 s-2.5,8.5-3,9.5l-3.5,7c0,1.5-2,5-2.5,6.5s-3.5,7-4,8s-2.5,7.5-3,8.5s-2.5,4-2.5,4l-1,4c0,0-2.5,4-2.5,4.5s-2,7.5-3,9 s-5.5,12-6.5,15.6c-1,3.5-2.5,9-3,10s-3,5.5-3.5,7s-2.5,9-3.5,10c-0.5,1.5-2.5,5.5-2.5,7s-1.5,4.5-2.5,7.5c-1,2.5-2.5,7.5-3.5,9 c-0.5,1.5-1.5,3-2,4c0,1-0.5,3.5-0.5,4.5c0,0.5-0.5,2-0.5,2c-1,0.5-66.7,28.6-76.3,33.1c-9.5,4.5-75.8,36.1-80.3,38.1 c-4,2-9.5,6-13.5,3.5c-5.5-3.5-10.5-11-14-18.1c-3-5.5-6-15.1-6.5-21.6c-0.5-8.5,3-10,15.1-17.1c6-3.5,54.2-28.6,69.2-36.6 C249.3,763,280.4,746.4,280.4,746.3"
		class="st0" />
	<path
		d="M1168.5,714.3l-10,40.6h-0.5l-9.5-40.6h-19.6l-15.6,62.7h14l10.5-40.1l10,40.1h19.1l16.1-62.7 M1080.7,745.8 l11-18.1l1,18.1H1080.7z M1085.2,714.3c-13.5,21.1-27.1,42.1-41.1,62.2h18.1l11-17.6h19.1l1,18.1h17.6c-2-20.6-4.5-42.1-6-62.2 h-19.6L1085.2,714.3z M1203.6,731.3c1-3.5,5.5-4.5,8-4.5c5,0,7.5,1,11,3c0,0,3-12.5,3-13c-5-3-10.5-3.5-15.1-3.5 c-14.5,0-22.1,8.5-23.6,16.1c-3,14.5,14.5,22.6,12.5,29.1c-1.5,5-6,5-9,5c-4.5,0-9-1.5-13-3.5l-3.5,14.6c4.5,1.5,11.5,3,16.6,3 c17.1,0,22.6-7.5,24.1-16.1C1218.6,747.3,1201.6,739.3,1203.6,731.3 M1037,731.3c1-3.5,5.5-4.5,8-4.5c5,0,7.5,1,11,3 c0,0,4-12,4-12.5c-5.5-3.5-11.5-4-15.6-4c-14.5,0-22.1,8.5-23.6,16.1c-3,14.5,14.5,22.6,12.5,29.1c-1.5,5-6,5-9,5 c-4.5,0-9-1.5-13-3.5l-3.5,14.6c4.5,1.5,11.5,3,16.6,3c17.1,0,22.6-7.5,24.1-16.1C1052.1,747.3,1034.5,739.3,1037,731.3 M1462,754.8l-9.5-40.6h-19.6l-16.1,62.2h14.5l10-39.6h0.5l10,39.6h19.1l16.1-62.2h-14.6 M1278.8,727.8h24.1l3-13.5h-40.1 l-15.6,62.2h16.1l6.5-24.6h20.1l3-13h-19.6 M1539.2,714.3h-46.7l-3.5,13.5h15.1l-12.5,48.7h16.6l12.5-48.7h15.1 M1544.8,714.3 l-16.1,62.2h16.6l16.1-62.2 M1598.4,751.8l3.5-13h-20.6l2.5-11h26.1l3.5-13.5h-42.6l-15.6,62.2h42.1l3.5-13h-26.1l3-11.5 M1703.8,751.8l3-13h-21.1l3-11h26.1l3.5-13.5h-42.6l-16.1,62.2h42.6l3.5-13h-26.1l3-11.5 M1402.3,745.3c-2.5,10-10,18.6-19.6,18.6 c-10,0-12.5-9-10-18.6s9.5-18.6,19.6-18.6C1401.8,726.8,1404.8,735.3,1402.3,745.3 M1395.7,713.3c-18.6,0-34.1,11.5-39.6,32.1 s4.5,32.1,23.1,32.1c17.6,0,33.1-10,39.1-30.6C1424.3,725.3,1414.3,713.3,1395.7,713.3 M1737.9,731.3c1-3,5.5-4.5,8-4.5 c5,0,7.5,1,11,3c0,0,3-12.5,3-13c-5-3-10.5-3.5-15.1-3.5c-14.5,0-22.1,8.5-23.6,16.1c-2.5,14.5,14.6,22.6,12.5,29.1c-1.5,5-6,5-9,5 c-4.5,0-9-1.5-13-3.5l-3.5,14.6c4.5,1.5,11.5,3,16.6,3c17.1,0,22.6-7.5,24.1-16.1C1753,746.8,1735.4,738.8,1737.9,731.3 M1338.6,749.3c8.5-1.5,14.5-9,16.6-16.1c3-12.5-0.5-19.1-14-19.1H1313l-16.1,62.2h15.6l12.5-49.2h8c2.5,0,7.5,0,5.5,6.5 c-1,5-5,8-12,8h-6l5.5,34.6h17.6C1344.6,776.4,1339.1,750.3,1338.6,749.3 M1647.1,749.3c8.5-1.5,14.5-9,16.6-16.1 c3-12.5-0.5-19.1-14-19.1h-28.1l-16.1,62.2h15.6l12.5-49.2h8c2.5,0,7.5,0,5.5,6.5c-1.5,5-5,8-12,8h-5.5l5.5,34.6h17.6 C1653.1,776.4,1647.6,750.3,1647.1,749.3 M785.7,776.4l3-13h-25.6l2.5-11.5h21.6l3-13h-21.1l3-11h26.1l3-13.5h-42.1l-16.1,62 M675.8,776.4l3-13h-25.6l2.5-11.5h21.1l3.5-13h-21.1l3-11h25.6l3.5-13.5h-42.1l-16.1,62.2 M820.8,777.4c3,0,11-1,16.1-2l4-14.5 c-5,1.5-10,2.5-16.6,2.5c-10,0-12.5-9-10-18.6c2-8.5,9.5-18.6,22.6-18.6c4,0,8,1,12,2.5l3.5-14c-4-1.5-10-2-14.5-2 c-18.6,0-34.6,11.5-39.6,32.1C792.7,765.9,802.2,777.4,820.8,777.4 M861.4,776.4l16.1-62.2h-16.6l-16.1,62.2 M585,732.3h0.5 l-1,44.2h14l22.1-44.7l-11,44.7h13.5l16.1-62.2h-22.1l-19.1,39l1-39.1h-23.1l-16.1,62.2h14 M885.5,776.5l10.5-39.6l10,39.6h19.1 l16.1-62.2h-14.5l-10,40.6h-0.5l-9.5-40.6H887l-15.6,62.2 M728.5,745.4c-2.5,9-9,18.1-18.1,18.1h-7l9-35.6h8 C729.5,727.8,731.5,733.9,728.5,745.4 M745,745.4c6.5-26.1-7.5-31.1-15.1-31.1h-29.6l-16.1,62.2h26.1 C728.5,776.5,740,763.5,745,745.4 M961.8,731.4c1-3.5,5.5-4.5,8-4.5c5,0,7.5,1,11,3c0,0,3-12.5,3-13c-5-3-10.5-3.5-14.5-3.5 c-14.5,0-22.1,8.5-23.6,16.1c-2.5,14.5,14.5,22.6,12.5,29.1c-1.5,5-6,5-9,5c-4.5,0-9-1.5-13-3.5l-3.5,14.6c4.5,1.5,11.5,3,16.6,3 c17.1,0,22.6-7.5,24.1-16.1C976.8,747.4,959.2,739.4,961.8,731.4"
		class="st0" />
	<path fill="#fff" stroke="#fff" stroke-width="4" d="M552.3,794h1200.1" />
	<path
		d="M909.1,827.2c1-3.5,5.5-4.5,8-4.5c5,0,7.5,1,11,3c0,0,3-12.5,3-13c-5-3-10.5-3.5-14.5-3.5 c-14.5,0-22.1,8.5-23.6,16.1c-3,14.5,14.5,22.6,12.5,29.1c-1.5,5-6,5-9,5c-4.5,0-9-1.5-13-3.5l-3.5,14.6c4.5,1.5,11.5,3,16.6,3 c17.1,0,22.6-7.5,24.1-16.1C924.1,843.1,907.1,835.1,909.1,827.2 M772.1,810.5h-46.2l-3.5,13h15.1L725,872.8h16.6l12.5-49.2h15.1 M867.4,845.3c8.5-1.5,14.5-9,16.6-16.1c3-12.5-0.5-19.1-14-19.1h-27.6l-16.1,62.2h15.6l12.5-49.2h8c2.5,0,7.5,0,5.5,6.5 c-1.5,5-5,8-12,8h-6l5.5,34.6H873C873,872.8,867.4,846.8,867.4,845.3 M688.8,873.8c3,0,11-0.5,15.6-1.5l4-14.6c-5,1.5-9.5,2-16.1,2 c-10,0-12.5-9-10-18.6c2-8.5,9.5-18.6,22.6-18.6c4,0,8,1,12,2.5l3.5-14c-4-1.5-10-2-14.5-2c-18.6,0-34.6,11.5-39.6,32.1 C660.2,862.3,670.3,873.8,688.8,873.8 M578.4,841.6c-2.5,9-9,18.1-18.1,18.1h-6l9-35.6h7C579.4,823.6,581.4,830.1,578.4,841.6 M594.5,841.6c6.5-26.1-7.5-31.1-15.1-31.1h-28.1l-16.1,62.2h24.6C577.9,872.8,590,859.8,594.5,841.6 M638.1,809.1 c-18.1,0-33.6,11.5-38.6,32.1s4.5,32.1,22.6,32.1c17.1,0,32.6-10,38.1-30.6C666.2,821.7,656.2,809.1,638.1,809.1z M645.2,842.2 c-3,10-11,18.1-20.6,17.6c-10-0.5-12-9.5-9-19.1s10.5-18.1,20.6-17.6C645.7,823.7,648.2,832.2,645.2,842.2z M805.2,809.1 c-18.1,0-33.6,11.5-38.6,32.1s4.5,32.1,22.6,32.1c17.1,0,32.6-10,38.1-30.6C833.3,821.7,823.3,809.1,805.2,809.1z M812.7,842.2 c-3,10-11,18.1-20.6,17.6c-10-0.5-12-9.5-9-19.1c3-9.5,10.5-18.1,20.6-17.6C812.7,823.7,815.3,832.2,812.7,842.2z M1045.5,810.6 l-16.1,62.2h16.6l15.6-62.2 M1349.6,810.5h-46.2l-3.5,13h15.1l-12.5,49.2h16.6l12-49.2h15.1 M1113.8,810.5h-46.2l-3.5,13h15.1 l-12.5,49.2h16.6l12.5-49.2h14.5 M1261.3,810.5l-9,35.6c-2.5,9-1.5,14.6,6,14.6s11-5.5,13.5-14.6l9-35.6h17.1l-11,42.1 c-4,15.1-16.6,21.1-32.1,21.1s-25.1-6-21.1-21.1l11-42.1L1261.3,810.5L1261.3,810.5z M1039.5,810.5l-27.1,62.2h-18.1l3-38.6h-0.5 l-14.5,38.6h-17.1l1.5-62.2h14l-2,43.7l16.1-43.7h16.1l-3.5,43.7h0.5l18.1-43.7 M1119.8,810.5h15.6l-6,23.1h20.1l6-23.1h15.6 l-16.1,62.2h-15.6l6.5-26.1h-20.1l-6.5,26.1h-15.6 M1207.6,809c-18.1,0-33.6,11.5-38.6,32.1s4.5,32.1,22.6,32.1 c17.1,0,32.6-10,38.1-30.6C1235.7,821.7,1225.7,809.1,1207.6,809L1207.6,809z M1214.6,842.1c-3,10-11,18.1-20.6,17.6 c-10-0.5-12-9.5-9-19.1c3-9.5,10.5-18.1,20.6-17.6C1215.1,823.6,1217.6,832.1,1214.6,842.1z M1585.4,841.6c-2.5,9-9,18.1-18.1,18.1 h-6l9-35.6h7C1586.4,823.6,1588.4,830.1,1585.4,841.6 M1602,841.6c6.5-26.1-7.5-31.1-15.1-31.1h-28.1l-16.1,62.2h24.6 C1585.4,872.8,1596.9,859.8,1602,841.6 M1728.9,827.2c1-3.5,5.5-4.5,8-4.5c5,0,7.5,1,11,3c0,0,3-12.5,3-13c-5-3-10.5-3.5-14.5-3.5 c-14.6,0-22.1,8.5-23.6,16.1c-3,14.5,14.5,22.6,12.5,29.1c-1.5,5-6,5-9,5c-4.5,0-9-1.5-13-3.5l-3.5,14.6c4.5,1.5,11.5,3,16.6,3 c17.1,0,22.6-7.5,24.1-16.1C1744.4,843.1,1726.9,835.1,1728.9,827.2 M1691.3,845.2c8.5-1.5,14.5-9,16.6-16.1 c3-12.5-0.5-19.1-14-19.1h-27.6l-16.1,62.2h15.6l12.5-49.2h8c2.5,0,7.5,0,5.5,6.5c-1.5,5-5,8-12,8h-6l5.5,34.6h17.6 C1697.3,872.8,1691.3,846.8,1691.3,845.2 M1529.7,845.3c8.5-1.5,14.5-9,16.6-16.1c3-12.5-0.5-19.1-14-19.1h-27.6l-16.1,62.2h15.6 l12.5-49.2h8c2.5,0,7.5,0,5.5,6.5c-1.5,5-5,8-12,8h-6l5.5,34.6h17.6C1535.7,872.8,1530.2,846.8,1529.7,845.3 M1641.6,872.8l3-13.5 H1619l2.5-11h21.6l3-13.5H1625l3-11h26.1l3-13H1615l-16.1,62.2 M1397.3,835.1h3c4.5,0,10,0.5,12-7.5c1.5-5-3.5-5-7.5-5h-4.5 L1397.3,835.1z M1390.7,860.2h5.5c5,0,9.5,0,11-7c1.5-6.5-3-6.5-7-6.5h-6L1390.7,860.2z M1388.2,810.5h31.6c4.5,0,11,4,8,15.1 c-2,7.5-6,13-13.5,15.1c6.5,1,9.5,6.5,7.5,15.1c-3.5,13.5-12,16.6-23.6,16.6h-26.1L1388.2,810.5L1388.2,810.5z M1467.5,809 c-18.1,0-33.6,11.5-38.6,32.1s4.5,32.1,22.6,32.1c17.1,0,32.6-10,38.1-30.6C1495.6,821.6,1486.1,809,1467.5,809z M1475,842.1 c-3,10-11,18.1-20.6,17.6c-10-0.5-12-9.5-9-19.1s10.5-18.1,20.6-17.6C1475.5,823.6,1477.5,832.1,1475,842.1z"
		class="st0" />
</svg>