<svg xmlns="http://www.w3.org/2000/svg" xml:space="preserve" width="893.9" height="226.4" x="0" y="0" version="1.1"
	viewBox="-142 477.1 893.9 226.4">
	<g fill="#ffffff">
		<path
			d="M-142,477.1v226.4H84.4V477.1H-142z M-59.2,653.2l-16.6,0l-25.4-47l0.4,47h-16.6v-78.7h16.6l25.4,47l-0.4-47 h16.6V653.2z M-9.5,653.2l-15.9-29.5h-8.2l0,29.5h-16.8v-78.8h26.8c21.2,0,28.5,9.7,28.1,24.7c-0.4,13.5-5.4,17.2-13.7,21.2 l19.3,32.9H-9.5z M59.8,591.8c-4.6-2.1-9.6-3.1-14.7-3c-12.8,0-18.7,5.1-18.7,25.1S32.3,639,45.2,639c5.1,0.1,10.1-0.9,14.7-3v15.8 c-3.1,1.3-7.3,2.9-16.4,2.9c-23,0-33.9-11.2-34-40.8c0.1-29.6,11-40.8,34-40.8c9.1,0,13.2,1.7,16.4,3V591.8z"
			class="st0" />
		<path d="M-22.1,589.8h-11.4v18.7h11.4c7.5,0,8.4-5,8.4-9.3C-13.7,594.8-14.7,589.8-22.1,589.8z" class="st0" />
		<path d="M165.5,575v44.8h-5.4l-24.6-36.4l0.5,36.4h-5.6V575h5.6l24.3,35.9l-0.3-35.9L165.5,575z" class="st0" />
		<path
			d="M198.8,620.9c-13.6,0-22.4-9.6-22.4-23.6c0-16.6,11.5-23.5,22.6-23.5c12.6,0,22.5,8.5,22.5,23.1	C221.5,610.4,213.6,620.9,198.8,620.9z M199,578.6c-11.3,0-16.1,8.7-16.1,18.8c0,9.4,4.6,18.8,16.2,18.8c12.1,0,16.1-10,16-19.2	C215,586.1,209.3,578.6,199,578.6L199,578.6z"
			class="st0" />
		<path
			d="M238.2,600.7v19h-5.8V575H249c6.2,0.1,9.9,0.1,13.4,2.7c3.3,2.5,4.7,6.2,4.7,10.3c0,10.5-8.4,11.9-10.6,12.3	l12.6,19.4H262l-12.2-19L238.2,600.7z M238.2,595.8h11.9c1.8,0.1,3.7-0.1,5.5-0.4c4.1-1,5.6-4,5.6-7.2c0.1-2.4-0.9-4.7-2.7-6.3	c-2.4-2-5.3-1.9-8.7-1.9h-11.5V595.8z"
			class="st0" />
		<path
			d="M329.6,575h6.2L322,619.8h-5.8l-11.8-37.1l-11.4,37.1h-6L273.1,575h6.3l10.6,37.1l11.4-37.1h5.8l11.8,37.1	L329.6,575z"
			class="st0" />
		<path d="M350.2,599.3v15.2h25.9v5.2h-31.7V575h30.9v5.3h-25.1v13.8h21.8v5.3H350.2z" class="st0" />
		<path
			d="M426,596.1v23.7h-5.1v-6.3c-3.8,5.5-10.3,7.4-16.4,7.4c-13.8,0-22.3-9.7-22.3-23c0-11.4,6.9-24.1,23.2-24.1	c5.7-0.1,11.3,1.9,15.6,5.7c2.1,2.1,3.9,4.5,5.1,7.2l-6.2,1.6c-0.6-2-1.7-3.8-3.1-5.3c-1.8-1.9-5.3-4.4-11.2-4.4	c-12.6,0-16.8,10.4-16.8,18.5c0,8.4,4.4,18.4,16.6,18.4c5.5,0,15.8-2.7,15.6-14.6h-15.7v-5H426z"
			class="st0" />
		<path d="M444.2,575v44.8h-6V575H444.2z" class="st0" />
		<path
			d="M480.6,606.1h-17.1l-5,13.7h-6.4l17.1-44.8h6.2l16.3,44.8h-6.3L480.6,606.1z M478.8,601.1l-6.5-18.7l-6.9,18.7	H478.8z"
			class="st0" />
		<path d="M535.3,575v44.8h-5.4l-24.6-36.4l0.5,36.4h-5.6V575h5.6l24.3,35.9l-0.3-35.9L535.3,575z" class="st0" />
		<path
			d="M136.3,673.9v19h-5.8v-44.8h16.6c6.2,0.1,9.9,0.1,13.4,2.7c3.3,2.5,4.7,6.2,4.7,10.4c0,10.5-8.4,11.9-10.6,12.3	l12.6,19.4H160l-12.2-19L136.3,673.9z M136.3,669h11.9c1.8,0.1,3.7-0.1,5.5-0.5c4.1-1,5.6-4,5.6-7.2c0.1-2.4-0.9-4.7-2.7-6.3	c-2.4-2-5.3-1.9-8.7-1.9h-11.5V669z"
			class="st0" />
		<path d="M181.7,672.5v15.2h25.9v5.2h-31.7v-44.8h30.9v5.3h-25.1v13.8h21.8v5.3H181.7z" class="st0" />
		<path d="M222.5,671.9V693h-6v-44.9h28.8v5.3h-22.8v13.3h21.2v5.2H222.5z" class="st0" />
		<path
			d="M287.6,648.1v28.6c0,2-0.2,3.9-0.6,5.8c-1.3,5.4-6.3,11.5-16.8,11.5c-3.3,0-9.5-0.5-13.8-6	c-3-3.8-2.9-7.2-2.9-12.2v-27.8h6v27c-0.1,4.1-0.1,7.6,2.3,10.5c2.7,3.3,6.6,3.5,8.4,3.5c5.3,0,9.4-2.5,10.7-7.4	c0.5-2.2,0.6-4.4,0.6-6.7v-26.8H287.6z"
			class="st0" />
		<path
			d="M342.1,669.3V693H337v-6.3c-3.8,5.5-10.3,7.4-16.4,7.4c-13.8,0-22.3-9.7-22.3-23c0-11.4,6.9-24.1,23.2-24.1	c5.7-0.1,11.3,1.9,15.6,5.7c2.1,2.1,3.9,4.5,5.1,7.2l-6.2,1.7c-0.6-2-1.7-3.8-3.1-5.3c-1.8-1.9-5.3-4.4-11.2-4.4	c-12.6,0-16.8,10.4-16.8,18.5c0,8.4,4.4,18.4,16.6,18.4c5.5,0,15.8-2.7,15.6-14.6h-15.7v-5L342.1,669.3z"
			class="st0" />
		<path d="M360.3,672.5v15.2h25.9v5.2h-31.7v-44.8h30.9v5.3h-25.1v13.8h21.8v5.3H360.3z" class="st0" />
		<path d="M400.9,672.5v15.2h25.9v5.2h-31.7v-44.8h30.9v5.3h-25.1v13.8h21.8v5.3H400.9z" class="st0" />
		<path
			d="M497.9,676.7c-1.9,8.5-9.1,17.4-22.1,17.4c-14.8,0-21.9-11.1-21.9-23.6c0-12.7,7.3-23.5,22.7-23.5	s19.3,10.7,20.4,13.7l-6,1.3c-0.5-1.8-1.4-3.5-2.7-5c-2.9-3.4-7.2-5.3-11.7-5.2c-4.8-0.1-9.3,2-12.3,5.6c-2.9,3.6-3.8,8.3-3.8,12.8	c0,11.1,5.7,18.9,16,18.9c6.7,0,13.5-3.8,14.9-13.2L497.9,676.7z"
			class="st0" />
		<path
			d="M527.6,694.1c-13.6,0-22.4-9.6-22.4-23.6c0-16.6,11.5-23.5,22.6-23.5c12.6,0,22.5,8.5,22.5,23.1	C550.4,683.6,542.5,694.1,527.6,694.1z M527.8,651.8c-11.3,0-16.1,8.7-16.1,18.8c0,9.4,4.6,18.8,16.2,18.8c12.1,0,16.1-10,16-19.2	C543.8,659.3,538.2,651.9,527.8,651.8L527.8,651.8z"
			class="st0" />
		<path
			d="M595,648.1v28.6c0,2-0.2,3.9-0.6,5.8c-1.3,5.4-6.3,11.5-16.8,11.5c-3.3,0-9.5-0.5-13.8-6	c-3-3.8-2.9-7.2-2.9-12.2v-27.8h6v27c-0.1,4.1-0.1,7.6,2.3,10.5c2.7,3.3,6.6,3.5,8.4,3.5c5.3,0,9.4-2.5,10.7-7.4	c0.5-2.2,0.6-4.4,0.6-6.7v-26.8H595z"
			class="st0" />
		<path d="M642.8,648.2V693h-5.4l-24.6-36.4l0.5,36.4h-5.5v-44.8h5.6l24.3,35.9l-0.3-35.9H642.8z" class="st0" />
		<path
			d="M697.6,676.7c-1.9,8.5-9.1,17.4-22.1,17.4c-14.8,0-21.9-11.1-21.9-23.6c0-12.7,7.3-23.5,22.7-23.5	s19.3,10.7,20.4,13.7l-6,1.3c-0.5-1.8-1.4-3.6-2.7-5c-2.9-3.4-7.2-5.3-11.7-5.2c-4.8-0.1-9.3,2-12.3,5.6c-2.9,3.6-3.8,8.3-3.8,12.8	c0,11.1,5.7,18.9,16,18.9c6.7,0,13.5-3.8,14.8-13.2L697.6,676.7z"
			class="st0" />
		<path d="M712.1,648.2V693h-6v-44.8H712.1z" class="st0" />
		<path d="M730.2,687.6h21.7v5.3h-27.7v-44.9h6L730.2,687.6z" class="st0" />
	</g>
</svg>