<svg xmlns="http://www.w3.org/2000/svg" xml:space="preserve" width="368.5" height="412.9" x="0" y="0" version="1.1"
	viewBox="-455 434.1 368.5 412.9">
	<g fill="#ffffff">
		<path
			d="M-143.2,561.7c0,70.5-57.1,127.6-127.6,127.6s-127.6-57.1-127.6-127.6c0.1-70.5,57.2-127.6,127.7-127.6	C-200.3,434.1-143.2,491.2-143.2,561.7z M-321.5,533.1h23.3c0.7,0,1.2-0.6,1.3-1.3c1.9-12.8,12.9-22.6,26.2-22.6	c13.3,0,24.3,9.8,26.2,22.6c0.1,0.7,0.7,1.3,1.4,1.3h23.2c0.7,0,1.3-0.6,1.3-1.3c-2-27-24.6-48.3-52.1-48.3s-50.1,21.3-52.1,48.3	C-322.8,532.5-322.3,533.1-321.5,533.1L-321.5,533.1z M-245.7,581.5c15.1-8.3,25.7-23.8,27-41.9c0-0.7-0.6-1.3-1.3-1.3h-23.3	c-0.7,0-1.2,0.6-1.3,1.3c-1.9,12.8-12.9,22.6-26.2,22.6c-13.3,0-24.3-9.8-26.2-22.6c-0.1-0.8-0.6-1.3-1.3-1.3h-23.3	c-0.7,0-1.3,0.6-1.3,1.3c1.3,18.1,11.9,33.6,27,41.9c-15.8,8.7-26.7,25.3-27.2,44.5c0,0.7,0.6,1.3,1.3,1.3h23.1	c0.7,0,1.3-0.6,1.3-1.3c0.7-14,12.3-25.2,26.5-25.2s25.8,11.2,26.5,25.2c0,0.7,0.6,1.3,1.3,1.3h23.2c0.7,0,1.3-0.6,1.3-1.3	C-219,606.8-229.9,590.2-245.7,581.5z" />
		<path
			d="M-409.9,816.5c0,7.7-7.9,10.3-12.5,10.3s-12.5-2.6-12.5-10.3v-41.8c0-7.7,7.9-10.3,12.5-10.3 s12.5,2.6,12.5,10.3V816.5z M-422.3,744.1c-22.3,0.1-32.7,15.7-32.7,29V818c0,13.3,10.4,28.9,32.7,29c22.3-0.1,32.7-15.7,32.7-29 v-44.9C-389.7,759.8-400,744.2-422.3,744.1z M-279.2,845.2V806h30.1v-20h-30v-19.9h34.9v-20.2h-55.2v99.3L-279.2,845.2z M-210,776.9l8,31.2h-16.3L-210,776.9z M-192.4,845.2h20.1l-26.3-99.2h-23.5l-25.9,99.2h20.2l4.6-17.6h26.3L-192.4,845.2 L-192.4,845.2z M-335.3,795.5l25.6-49.6H-333l-14,28.9l-14.1-28.9h-23.3l25.7,49.6l-25.8,49.7h23.6l13.9-28.9l13.9,28.9h23.6 L-335.3,795.5z M-107.4,745.9l-17.8,38.2l-18-38.2h-20.6v99.3h19.7v-56.5l12.7,26.4h12.6l12.6-26.3v56.4h19.7v-99.3H-107.4z" />
	</g>
</svg>