<svg xmlns="http://www.w3.org/2000/svg" xml:space="preserve" width="358.7" height="321.9" viewBox="0 0 358.7 321.9">
	<path fill="none" d="M0 0H358.7V321.9H0z" />
	<g fill="#ffffff">
		<path
			d="M283.3,97.2c-0.2,5.3-0.9,10.6-1.4,15.9c-0.3,3.1-0.6,6.2-1.2,9.2c-0.8,4.1-2,8-4,11.7c-1.3,2.4-2.1,5.1-3,7.7 c-1,2.7-2.2,5.2-3.7,7.6c-1.2,1.9-2.3,3.8-3.3,5.7c-2.5,4.6-6.3,8.2-9.7,12c-3.1,3.4-6.4,6.6-9.6,9.9c-3.6,3.8-7.4,7.2-11.5,10.4 c-2.6,2-5,4.2-7.9,5.8c-1,0.5-1.9,0.9-2.9,1.4c-2.5,1.2-5,2.2-7.4,3.5c-7,3.9-15,5.1-22.5,7.4c-3.2,1-6.5,0.8-9.8,0 c-1-0.2-2-0.6-2.8-1.3c-1.5-1.2-1.4-2.9,0.3-3.9c1-0.5,2.1-0.8,3.2-1c7.7-1.5,14.9-4.3,22-7.6c1.2-0.5,2.3-1.2,3.1-2.2 c0.4-0.5,0.7-1.1,0.2-1.6c-0.5-0.5-1-0.7-1.8-0.4c-6.5,2.2-12.9,4.9-19.4,7.2c-3.6,1.3-7.4,1.6-11,3c-3.6,1.3-7.1,2.7-10.7,3.9 c-4.1,1.4-8.5,1.6-12.8,0.4c-0.5-0.1-1.1-0.4-1.5-0.7c-2.2-1.5-2.2-3.6,0.1-5c1-0.6,2-1,3.1-1.2c4.7-0.9,9.1-2.8,13.7-4.3 c7.3-2.4,14.6-4.7,21.5-8.4c2.1-1.2,4.5-1.8,6.7-3c0.9-0.5,1.8-1,2.4-1.9c0.6-0.8,0.5-1.4-0.6-1.8c-1-0.4-2,0-2.8,0.4 c-7.6,4.1-15.8,6.7-23.7,9.9c-7.3,2.9-14.8,5.2-22.4,7.3c-3.3,0.9-6.6,2.2-10.1,2.3c-3.3,0.1-5.9-1.3-8.2-3.4 c-0.7-0.6-0.8-1.4-0.5-2.3c0.6-2.2,2.3-3.4,4.3-4.2c4.8-1.9,9.5-3.7,14.5-4.9c6.2-1.6,12.2-3.9,18.2-6.3c6.7-2.7,13.4-5.5,20-8.2 c0.6-0.3,1.2-0.6,1.7-1c0.5-0.5,1-1.1,0.7-1.8c-0.4-0.8-1.1-1.2-2-1.1c-0.5,0-1.1,0.2-1.6,0.4c-6,2.4-12,4.7-17.9,7.4 c-5.1,2.3-10.1,5-15.5,6.6c-7.1,2.1-14,4.5-21.2,6c-3.3,0.7-6.6,1.5-10,1.3c-2.5-0.2-4.8-0.8-6.5-2.8c-1.7-2.1-1.3-4.4,1.2-5.7 c1.4-0.7,3-1.1,4.6-1.4c4.2-0.7,8.2-2.3,12.4-3.2c7.4-1.5,14.6-3.7,21.4-6.8c7.3-3.2,14.4-7.1,21-11.6c3.8-2.5,7.8-4.7,11.6-7.3 c6.1-4.1,11.5-9.1,16.6-14.3c4.3-4.5,7.7-9.7,11-14.9c1.5-2.4,2.3-5,2.8-7.8c0.4-2.7,1-5.4,0.8-8.2c-0.5-5.2-3.5-8.8-8.6-10.2 c-4.7-1.2-9.4-2-14-0.7c-6.8,1.9-13.5,4-19.9,7.1c-7.5,3.6-14.6,8.2-22.5,11c-2,0.7-4.1,1.3-6.3,1.3c-3.1-0.1-4.9-1.9-4.6-4.9 c0.4-4.3,1.9-8.3,4.5-11.6c3.5-4.4,7.2-8.6,11.7-12c1.9-1.5,3.6-3.3,5.6-4.6c10.1-6.3,20-13,30.6-18.5c12.8-6.7,25.7-13.2,39.4-18 c3.1-1.1,6-2.6,9-3.9c2.4-1,4.9-1.5,7.5-1.5c1.1,0,2,0.3,2.9,0.9c1.7,1.3,3,2.9,4.2,4.6c3.8,5.4,7.8,10.7,11.1,16.4 c2.8,5,5,10.3,6.6,15.8c2.1,7.2,3.8,14.5,4.8,22C283.2,94.3,283.2,95.7,283.3,97.2z" />
		<path
			d="M75.3,105.9c0-13.1,2.3-24.4,5.8-35.4c4.6-14.8,12.3-27.6,23.3-38.5c3.7-3.7,7.5-7.3,11.1-11 c1.6-1.7,3.6-3.3,5.6-4.4c5.7-3.2,11.6-6,17.3-9.1c5.8-3,12-4.5,18.3-5.9c4.2-0.9,8.4-1.9,12.8-1.6c1.8,0.1,3.6,0.2,5.3,0.8 c1.7,0.6,2,1.4,1.3,3c-0.7,1.5-2,2.4-3.5,2.9c-4.1,1.5-8.2,2.8-12.5,4c-3.9,1.1-7.8,2.3-11.4,4.4c-0.9,0.6-1.8,1.2-2.4,2.1 c-0.8,1.2-0.6,1.8,0.9,1.9c1.7,0.2,3.3-0.2,4.8-0.9c7.1-3,14.6-5.2,21.7-8.3c1.5-0.7,3.1-1,4.7-1.4c4.7-1.1,9.2-2.8,13.9-4.2 c3.2-1,6.5-1.4,9.9-0.8c1.4,0.2,2.6,0.7,3.6,1.7c1.2,1.3,1.1,2.5-0.2,3.6c-1.1,1-2.5,1.6-3.9,1.9c-9.3,2.3-18.1,6.1-27.2,9.2 c-4.4,1.5-8.7,3.5-12.8,5.8c-0.8,0.5-1.6,1-2.3,1.6c-0.5,0.4-1,0.9-0.7,1.7c0.4,0.8,1.1,0.9,1.8,0.8c1.5-0.1,2.9-0.6,4.3-1.2 c6.1-2.6,12.3-5.1,18.4-7.7c3-1.2,6.1-2.3,9.1-3.7c6.5-2.9,13.4-4.7,20.3-6.6c3.9-1.1,7.9-1,11.9-0.2c1.2,0.2,2.4,0.6,3.2,1.7 c1.6,2.2,1.1,4.1-1.4,5.3c-3.5,1.7-7.3,2.6-11.1,3.7c-11.9,3.5-23.6,7.5-34.6,13.3c-3.1,1.6-5.9,3.6-8.9,5.5 c-0.3,0.2-0.5,0.4-0.8,0.6c-0.5,0.4-0.9,1-0.6,1.6c0.2,0.7,0.9,0.5,1.5,0.5c1.8,0.1,3.4-0.6,4.9-1.4c3.9-2.1,7.7-4.5,11.8-6.3 c8.8-3.9,18-6.8,27.3-9.3c4-1.1,7.6-3.1,11.7-4.1c3.6-0.9,7.2-1.8,11-1.2c2.8,0.4,4.4,2,4.1,4.2c-0.2,1.9-1.3,3.1-3.1,3.6 c-8.7,2.6-17.2,6-25.6,9.4c-8.8,3.5-17.4,7.8-26,11.7c-0.6,0.3-1.2,0.6-1.7,1c-4,3.1-8.5,5.3-12.8,7.9c-3.8,2.3-7.4,4.7-10.9,7.5 c-4.7,3.7-9.5,7.3-14.4,10.7c-1.2,0.9-2.4,1.9-3.2,3.1c-1.2,1.7-2.7,3.1-4,4.7c-5.4,6.5-8.8,13.7-9.3,22.3 c-0.4,5.7,2.5,9.2,6.7,12.1c2.9,2,6.2,2.4,9.7,2.1c5.8-0.4,11.3-1.6,16.7-3.7c1.7-0.7,3.2-1.6,4.7-2.5c4.8-2.9,9.5-6.1,14.4-8.8 c5.1-2.8,10.6-5.1,16.4-6.1c1.9-0.3,3.7-0.4,5.6,0.1c3.8,1.1,5.7,4.5,4.2,8.2c-2,5.1-5.1,9.5-9.1,13.1 c-10.8,9.8-22.3,18.7-34.6,26.5c-7.2,4.6-15.1,7.5-23,10.6c-5.4,2.1-10.8,4.3-16.3,6.2c-3,1-6,2-9,2.7c-3.3,0.7-6.4,2.1-9.7,2.9 c-2.4,0.6-4.4,0.1-6.2-1.5c-3.6-3.1-7-6.5-10-10.1c-1.2-1.4-2.1-3.1-2.8-4.7c-3.9-8.8-8-17.5-10.7-26.8 C76.5,119.7,75.2,112.2,75.3,105.9z" />
		<path
			d="M204.3,273.1c0-3.4,0-6.8,0-10.3c0-2.5,0.1-5,0.1-7.5c0-7.7,0-15.5,0-23.2c0-0.3,0-0.6-0.1-0.8 c-0.3-3.3,1.1-5,4.4-4.9c5.2,0.2,10.4-0.2,15.6-0.2c2,0,3.9,0.2,5.9,0.7c5.7,1.4,9,5.3,10.4,10.7c1.3,5.3,1.6,10.7,0.2,16 c-0.9,3.6-2.6,6.8-5.6,9.2c-1.1,0.9-1.1,1.8-0.5,2.9c2.2,4.3,4.3,8.7,6.5,13.1c1.7,3.2,0.8,4.6-2.7,4.3c-2.9-0.3-5.9-0.1-8.9,0.1 c-1.9,0.1-2.6-0.3-3.2-2c-1.5-3.8-3.5-7.2-5.1-10.9c-0.3-0.7-0.6-1.9-1.8-1.6c-1.1,0.3-0.8,1.5-0.8,2.3c0.2,3.4-0.1,6.8,0.2,10.1 c0.1,1.5-0.8,2.4-2.3,2.2c-3-0.4-6-0.1-9,0.1c-2.9,0.2-3.8-0.9-3.6-3.8c0.1-1.1,0.2-2.2,0.2-3.4c0-1.1,0-2.2,0-3.2 C204.5,273.1,204.4,273.1,204.3,273.1z M218.9,246.2c0,1.3-0.4,2.5-0.1,3.8c0.4,2,1.7,3.1,3.5,3.1c2-0.1,3.4-1.3,3.6-3.4 c0.1-1.1,0.2-2.1,0.2-3.2c0.1-1.9-0.1-3.7-1.3-5.2c-0.9-1.3-2.4-1.8-3.9-1.4c-1.3,0.3-2.1,1.4-2.2,3.1 C218.9,244,218.9,245.1,218.9,246.2z" />
		<path
			d="M137.4,226.7c3.6-0.1,7.2-0.4,10.7,0.2c6,1.1,9.7,5.1,12.5,10.1c1.9,3.4,2.5,7.2,3,10.9 c0.9,7.1,0.7,14.1-1.8,21c-1.4,3.8-3.4,7.3-6.5,10.1c-3.3,3-7.3,4.3-11.6,4.3c-4.2,0-8.4,0-12.7,0.2c-3.7,0.2-4.8-1.1-4.5-4.8 c0.4-5.6,0.1-11.3,0-16.9c-0.1-3.5,0.2-7,0-10.6c-0.3-6.7,0.2-13.4-0.2-20.1c-0.2-3.3,1-4.4,4.3-4.4 C132.8,226.6,135.2,226.9,137.4,226.7z M140.8,263.6c-0.1,1.5-0.2,2.9,0,4.2c0.4,2.5,2.6,3.3,4.6,1.8c1.1-0.9,1.6-2.1,1.8-3.4 c0.8-4.8,1.6-9.5,1.1-14.4c-0.3-3-0.4-6-1.7-8.8c-0.9-2-2.6-3-4.2-2.6c-1.5,0.4-2.1,1.4-2,3.9C140.8,250.8,140.4,257.4,140.8,263.6 z" />
		<path
			d="M34.1,254.4c-0.1-5.1-0.2-10.6,0.9-16.1c1.2-6.3,7.3-12.2,14.4-12.3c2.3,0,4.6-0.2,6.9,0.1 c6.2,0.9,13.2,5.8,14.3,14.1c0.7,4.9,0.9,9.7,0.7,14.6c-0.1,3.8,0.1,7.5-0.5,11.2c-0.4,2.3-0.7,4.6-1.3,6.9 c-1.8,7.2-6.8,10.7-14,11.4c-3,0.3-5.9,0-8.8-0.7c-6.6-1.6-10.3-5.8-11.7-12.2c-0.7-3.1-0.9-6.2-0.9-9.4 C34.1,259.6,34.1,257.2,34.1,254.4z M48.8,254.8C48.7,254.8,48.7,254.8,48.8,254.8c-0.1,3.2-0.1,6.4-0.1,9.6c0,1.5,0.1,2.9,0.7,4.3 c0.6,1.4,1.8,2.1,3.2,2.1c1.5-0.1,2.6-0.7,3.1-2.2c0.3-0.8,0.4-1.6,0.5-2.5c0.1-5.8,0.2-11.5,0.3-17.3c0-2.2,0-4.3-0.6-6.4 c-0.4-1.7-1.5-2.6-3-2.6c-1.8-0.1-2.9,0.7-3.6,2.4c-0.4,1.1-0.5,2.3-0.5,3.5C48.8,248.7,48.8,251.7,48.8,254.8z" />
		<path
			d="M181.7,226.7c2.4,0.3,5.5-0.1,8.6-0.1c3.1,0,3.7,0.6,4.5,3.5c1.3,5.3,1.7,10.8,2.7,16.2 c0.9,4.9,2.2,9.8,2.7,14.8c0.5,5.6,1.5,11.1,2.7,16.5c0.3,1.3,0.5,2.6,0,3.9c-0.5,1.3-1.2,2.1-2.7,2c-3-0.2-6.1-0.2-9.1,0 c-1.9,0.1-2.7-0.7-2.8-2.7c0-1.7-0.3-3.4-0.5-5c-0.2-1.3-0.8-1.9-2.2-1.8c-1.6,0.1-3.2,0-4.8,0c-1.4,0-2.1,0.6-2.2,2 c-0.1,1.7-0.3,3.5-0.5,5.2c-0.2,1.8-1,2.5-2.8,2.4c-3.1-0.2-6.2-0.1-9.3-0.1c-2.2,0-2.9-0.9-2.6-3.1c1.5-9.3,3.2-18.5,4.6-27.8 c1-6.5,2.6-12.9,3.3-19.4c0.1-1.1,0.5-2.1,0.8-3.1c0.9-2.9,1.9-3.6,4.9-3.5C178.3,226.4,179.7,226.6,181.7,226.7z M185.8,255.7 c-0.1-3.8-1.1-7.5-1.5-11.3c-0.1-0.6-0.2-1.2-0.9-1.3c-0.7,0-0.7,0.7-0.8,1.1c-0.5,2.2-1.1,4.5-1.4,6.7c-0.3,2.2-0.9,4.3-0.9,6.5 c0,1.1,0.2,2.3,1.6,2.5c1.9,0.3,4.1,0,3.9-3C185.8,256.6,185.8,256.1,185.8,255.7z" />
		<path
			d="M310.3,283.6c-5.2-0.3-9.3,0-13.3-0.1c-2.1,0-3.4-1.4-3.3-3.5c0.4-10.7,0.4-21.3,0.2-32 c-0.1-5.5,0-11.1,0-16.6c0-0.4,0-0.8,0-1.3c0.2-2.8,1.4-4,4.1-3.8c7.5,0.4,14.9,0.4,22.4,0.2c2.4-0.1,3.2,0.7,3.1,3.1 c-0.1,2.2-0.3,4.3-0.2,6.5c0.1,2.4-1.1,3.4-3.6,3.4c-2.7,0-5.4-0.1-8.2,0c-2.4,0.1-3.1,0.9-3.1,3.4c0,0.5,0,0.9,0,1.4 c0.1,2.4,1.2,3.4,3.5,3.3c2.6-0.1,5.2-0.1,7.7-0.1c2.1,0.1,2.9,0.9,2.9,3c0,2.4,0,4.8,0,7.2c0,2.1-1.3,3.3-3.5,3.2 c-1.9-0.1-3.7-0.2-5.6-0.3c-0.8,0-1.6,0-2.4,0.1c-1.5,0.2-2.4,1.1-2.5,2.6c-0.1,1.4-0.1,2.8,0,4.2c0.1,1.5,0.9,2.4,2.6,2.4 c3.1,0.1,6.1,0.8,9.3,0.4c2.7-0.4,3.9,0.9,3.7,3.6c-0.2,2.2,0,4.4-0.1,6.6c0,2.2-1.1,3.1-3.3,3.1C317,283.5,313,283.6,310.3,283.6z" />
		<path
			d="M0.3,275.5c-0.1-1.3-0.2-2.6-0.2-3.9c0-1.4-0.1-3,1.5-3.6c1.6-0.6,3.4-0.5,4.7,0.8c2,2,4.6,2.1,7.1,1.7 c2.8-0.5,3.7-3,1.8-5.1c-2.9-3-5.9-5.9-8.9-8.8c-2.8-2.6-5-5.6-5.5-9.4c-0.5-3.6-0.5-7.3,0.5-10.9c1.5-5.7,5.4-8.9,11.1-9.8 c4.4-0.8,8.9-0.7,13.3-0.1c2.7,0.4,3.4,1.4,3.3,4.1c-0.1,2.3-0.2,4.7-0.1,7c0.1,2.8-1.6,4-4.3,3.4c-1.9-0.5-3.8-1.2-5.8-1 c-2.5,0.2-3.7,1.9-2.8,4.2c0.5,1.2,1.4,2.1,2.3,3c2.2,2,4.3,4.1,6.5,6c5.3,4.6,7.4,10.3,6.6,17.2c-0.8,7.9-5.1,12.5-13.1,13.7 c-4.8,0.7-9.5,0.7-14.3-0.4c-0.8-0.2-1.6-0.4-2.4-0.8c-1.1-0.6-1.8-1.5-1.7-2.8c0.1-1.4,0-2.9,0-4.4C0.1,275.5,0.2,275.5,0.3,275.5 z" />
		<path
			d="M346.1,225.8c2.4,0.2,4.6,0,6.7,0.4c2.6,0.5,3.3,1.4,3.3,4c0,2.4,0,4.8,0,7.2c0,2.7-1.6,4-4.2,3.3 c-1.9-0.5-3.7-1.2-5.8-1.1c-2.7,0.1-4,2.1-2.8,4.6c0.6,1.2,1.5,2,2.4,2.9c2.3,2.1,4.5,4.4,6.9,6.4c5.5,4.7,6.8,10.8,5.9,17.6 c-0.9,7.1-5.6,11.7-12.7,12.6c-4.9,0.7-9.7,0.8-14.6-0.3c-0.7-0.2-1.5-0.4-2.1-0.7c-1.6-0.7-2.2-1.7-2-3.5c0.2-2.5,0.2-5.1,0.1-7.6 c-0.1-1.5-0.2-3.1,1.4-3.8c1.6-0.7,3.4-0.6,4.7,0.7c2.2,2.2,4.9,2.2,7.6,1.6c2.3-0.5,3-2.7,1.6-4.6c-1.1-1.6-2.6-2.8-4-4.2 c-1.9-1.8-3.8-3.7-5.7-5.5c-4.1-3.8-5.7-8.5-5.3-13.9c0.2-2.4,0.3-4.8,1.1-7.1c1.9-5.2,5.7-7.8,10.9-8.8 C341.9,225.9,344.2,225.9,346.1,225.8z" />
		<path
			d="M284.6,261.2c0.4,6.3-0.3,12.6,0.3,18.9c0.2,2.4-0.8,3.4-3.2,3.3c-3.1-0.1-6.1-0.1-9.2-0.1 c-2,0-2.8-0.8-2.8-2.8c0.1-3.9,0.5-7.9,0.2-11.8c-0.2-3.1,0.2-6.2,0.3-9.3c0.1-3.8-0.5-7.5-0.2-11.3c0.1-1.4,0.1-2.7,0-4.1 c-0.2-2.1-1.2-3-3.3-3c-0.8,0-1.5,0-2.3,0c-1.6-0.1-2.4-0.9-2.5-2.5c0-3.1,0-6.2,0-9.3c0-1.8,0.7-2.5,2.6-2.5c2.7,0,5.4,0.2,8,0 c5.3-0.4,10.6,0.2,15.9-0.1c2.4-0.2,3.4,0.8,3.5,3.2c0.1,2.9-0.1,5.7,0,8.6c0,1.8-1,2.6-2.8,2.5c-0.5,0-0.9,0-1.4,0 c-2.6,0-3.3,0.7-3.4,3.3c-0.2,3.6,0.4,7.2,0.2,10.8C284.5,257,284.6,259.1,284.6,261.2z" />
		<path
			d="M90.3,283.5c-3.6-0.3-7.2,0-10.8,0c-2.3,0-3.3-1.1-3.2-3.4c0.3-5.4,0.3-10.9,0-16.3c-0.1-1.2,0.1-2.4,0.2-3.7 c0.4-5.7,0-11.3,0.1-17c0.1-4.4,0.2-8.8,0.1-13.2c-0.1-2.7,0.8-3.5,3.5-3.3c2.9,0.2,5.7,0,8.6,0c2.1,0,2.9,0.8,2.7,2.9 c-0.8,6-0.3,12-0.4,18c0,5.9-0.1,11.8,0.1,17.7c0.1,2.8,1.5,4.2,4.3,4.3c2,0,3.9,0,5.9,0c1.7,0,2.6,0.7,2.8,2.4 c0.4,3.3,0.1,6.6,0,9.9c-0.1,1.3-1,2-2.5,1.9C97.8,283.4,94.1,283.3,90.3,283.5z" />
		<path
			d="M246,254.9c-0.3-7.8,0.3-15.6,0-23.4c0-0.8-0.1-1.6-0.1-2.4c0-1.6,0.9-2.5,2.5-2.6c3.4-0.1,6.9,0.2,10.3-0.1 c1.2-0.1,1.7,0.6,2,1.6c0.3,1,0.1,2,0.1,2.9c-0.5,7,0,14-0.2,21c-0.2,6.5,0.5,13,0.1,19.4c-0.2,3,0,6,0.2,9c0.1,2-0.6,3-2.5,2.8 c-3.1-0.2-6.1,0.1-9.1,0.1c-2.5,0-3.3-0.7-3.2-3.3c0-6.6,0.3-13.2,0.1-19.7C245.9,258.6,246,256.8,246,254.9z" />
		<path
			d="M106.5,255.1c-0.3-6.3,0-12.7,0-19c0-2.2-0.1-4.4-0.2-6.6c0-2,0.8-2.8,2.8-2.9c3.1-0.1,6.2,0.2,9.3,0 c2.1-0.2,2.8,0.6,2.8,2.7c0,1.4-0.2,2.8-0.2,4.2c0,6.3,0.1,12.7-0.1,19c-0.2,5.1,0.2,10.2,0.2,15.3c0,4.4-0.2,8.8,0.1,13.2 c0.1,1.5-0.7,2.4-2.2,2.3c-3.4-0.2-6.8,0.2-10.1,0.1c-1.8,0-2.6-0.9-2.6-2.8c0-3.9,0.1-7.9,0.2-11.8 C106.5,264.3,106.5,259.7,106.5,255.1z" />
		<path
			d="M49.4,312.6c0-5.8,0-11.7,0-17.5c0-1.4,0.5-1.9,1.8-1.9c4.2,0,3.4,0,3.5,3.4c0,7.3,0,14.6,0,21.9 c0,2.4-0.5,2.7-2.9,3c-3,0.3-4.7-1-6-3.6c-2.8-5.8-6.1-11.3-8.9-17.2c-0.4,0.7-0.1,1.3-0.1,1.9c0,5.8,0,11.7,0,17.5 c0,0.9-0.4,1.3-1.2,1.4c-0.1,0-0.3,0.1-0.4,0.1c-3.1,0.4-3.6,0-3.6-3.1c0-7.5,0-14.9,0-22.4c0-2.1,0.5-2.6,2.5-2.6 c5.3,0,4.9-0.4,7.5,4.4C44.1,302.8,46.8,307.6,49.4,312.6z" />
		<path
			d="M143.2,300.4c0,2,0,3.9,0,5.8c0,4.5,0,9,0,13.5c0,1.2-0.5,1.7-1.6,1.8c-0.1,0-0.2,0-0.3,0 c-3.1,0.2-3.4,0-3.4-3.1c0-7.5,0-15,0-22.6c0-1.9,0.6-2.5,2.5-2.5c5.4,0,5-0.4,7.6,4.5c2.6,5,5.4,9.9,7.9,15.2c0-1.8,0-3.4,0-4.9 c0-4.4,0-8.8,0-13.3c0-1.1,0.4-1.5,1.4-1.6c3.7-0.3,3.8-0.2,3.8,3.4c0,7.3,0,14.7,0,22c0,2.1-0.6,2.7-2.7,2.7c-0.5,0-1,0-1.6,0 c-1.8,0.2-3.1-0.6-3.9-2.2c-3.2-6.1-6.7-12.1-9.5-18.3C143.4,300.8,143.3,300.6,143.2,300.4z" />
		<path
			d="M283.2,313.1c0-2.4,0-4.4,0-6.4c0-3.9,0.1-7.8,0-11.7c0-1.3,0.5-1.7,1.7-1.7c4.2,0,3.4-0.1,3.4,3.4 c0,7.4,0,14.8,0,22.1c0,2.1-0.5,2.6-2.6,2.6c-0.6,0-1.1,0-1.7,0c-1.8,0.1-3-0.7-3.9-2.3c-3.1-6-6.5-11.8-9.4-17.9 c-0.1-0.3-0.2-0.6-0.6-0.8c0.3,6.4,0.1,12.7,0.2,19c0,1.8-0.2,2-2,2.1c-0.2,0-0.4,0-0.6,0c-2.6,0-2.7-0.1-2.7-2.6 c0-7.6,0-15.1,0-22.7c0-2.3,0.5-2.6,2.8-2.9c3.6-0.4,5.7,0.9,7.2,4.3c2.3,5,5.2,9.7,7.5,14.6C282.8,312.4,282.9,312.6,283.2,313.1z" />
		<path
			d="M231.8,307.8c0.1-3.5,0.5-6.6,2.3-9.4c3.1-4.8,7.9-6,13.2-5.5c6.9,0.7,10.3,4.4,11,11.3c0.3,3,0.2,6-0.7,8.9 c-1.5,5.2-5.7,8.5-11.2,8.7c-1.6,0.1-3.2,0.1-4.8-0.2c-5.2-0.9-8.3-3.9-9.3-9.2C231.9,310.9,231.8,309.2,231.8,307.8z M252.2,307.2 c0-1.3-0.1-2.6-0.3-3.9c-0.7-3.5-2.8-5.5-6.1-5.7c-3.8-0.2-6.4,1.6-7.4,5.1c-0.8,3-0.8,6.1-0.1,9.2c0.8,3.5,2.8,5.1,6.2,5.2 c3.7,0.1,6.1-1.5,7.1-4.9C252.2,310.6,252.3,308.9,252.2,307.2z" />
		<path
			d="M125.1,308.4c1.3,0.8,2.3,1.8,2.8,3.2c1.2,2.6,2.4,5.3,3.5,8c0.6,1.4,0.2,1.8-1.3,2c-0.1,0-0.2,0-0.3,0 c-3.9,0.2-3.9,0.2-5.3-3.4c-0.8-1.8-1.5-3.6-2.3-5.4c-0.9-2.1-2.5-2.9-4.7-2.8c-0.8,0-0.9,0.3-0.9,1c0,3,0,5.9,0,8.9 c0,1.1-0.4,1.6-1.4,1.6c-0.1,0-0.2,0-0.3,0c-3.5,0.5-4.1,0-4.1-3.5c0-7.5,0-14.9,0-22.4c0-1.9,0.4-2.3,2.2-2.2 c3.6,0.1,7.2-0.4,10.7,0.3c6.1,1.1,7.3,5.9,6,10.2C129.2,305.8,128.2,306.7,125.1,308.4z M119,297.7c-0.3,0-0.7,0-1,0 c-1.3-0.2-1.6,0.4-1.5,1.6c0.1,1.8,0.1,3.6,0,5.4c0,0.7,0.1,1.1,0.9,1c1.2-0.1,2.4,0,3.5-0.2c2.2-0.4,3.3-1.9,3.2-4.2 c-0.1-2-1.4-3.2-3.6-3.4C120.1,297.8,119.6,297.8,119,297.7z" />
		<path
			d="M179.7,293.2c3.6,0,3.6,0,4.7,3.3c2.6,7.4,5.2,14.8,7.7,22.3c0.9,2.5,0.7,2.7-1.9,2.7c-3.3,0-3.3,0-4.4-3.1 c-0.4-1.1-0.4-2.7-1.3-3.3c-0.9-0.5-2.3-0.2-3.4-0.2c-1.9,0-3.9,0-5.8,0c-0.8,0-1.2,0.2-1.4,1c-0.4,1.4-0.9,2.8-1.3,4.2 c-0.3,0.9-0.9,1.3-1.7,1.3c-0.7,0-1.5,0-2.3,0c-1.8,0-2.1-0.4-1.6-2.1c1.4-4.1,2.8-8.1,4.2-12.2c1.4-3.9,2.7-7.9,4.1-11.8 c0.7-2.1,0.8-2.1,3-2.2C178.8,293.2,179.3,293.2,179.7,293.2z M179.6,299.3c-0.1,0-0.2,0-0.3,0c-1.2,3.5-2.3,6.9-3.5,10.4 c-0.2,0.7-0.1,0.9,0.7,0.9c2,0,4,0,6.1,0c0.5,0,0.8-0.1,0.6-0.7C181.9,306.4,180.8,302.8,179.6,299.3z" />
		<path
			d="M307,293.2c3.6,0,3.6,0,4.8,3.4c2.6,7.4,5.1,14.8,7.7,22.1c0.2,0.4,0.3,0.9,0.4,1.3c0.2,0.8-0.1,1.3-0.9,1.3 c-1.3,0-2.6,0-3.9,0c-0.7,0-1.1-0.5-1.3-1.1c-0.5-1.4-1-2.8-1.4-4.3c-0.2-0.7-0.5-1.1-1.3-1c-2.8,0.1-5.6,0.1-8.5,0 c-0.8,0-1.1,0.3-1.4,1c-0.4,1.4-0.9,2.7-1.3,4c-0.3,1-0.9,1.4-1.8,1.4c-0.7,0-1.5,0-2.3,0c-1.7,0-2-0.5-1.5-2.1 c0.9-2.7,1.8-5.4,2.8-8.1c1.8-5.2,3.6-10.3,5.4-15.5c0.9-2.6,0.9-2.6,3.7-2.6C306.5,293.2,306.7,293.2,307,293.2z M306.7,298.9 c-1.3,3.8-2.5,7.4-3.7,11c-0.2,0.6,0.1,0.7,0.6,0.7c2.3,0,4.6,0,7,0C309.3,306.7,308.1,302.9,306.7,298.9z" />
		<path
			d="M87,307.4c0-3.9,0-7.8,0-11.7c0-1.9,0.5-2.3,2.3-2.3c4.2,0,8.5,0,12.7,0c1.1,0,1.5,0.5,1.6,1.5 c0,0.5,0,1,0,1.5c0,1.1-0.4,1.6-1.6,1.6c-2.7-0.1-5.4,0-8-0.1c-1,0-1.3,0.3-1.2,1.3c0.1,1.4,0.1,2.7,0,4.1 c-0.1,1.1,0.2,1.6,1.4,1.5c2.1-0.1,4.2,0,6.3-0.1c1.1-0.1,1.5,0.4,1.6,1.4c0,0.1,0,0.3,0,0.4c0.1,2.4,0,2.5-2.4,2.5 c-2,0-3.9,0-5.9,0c-0.7,0-1,0.2-1,0.9c0,2,0.1,3.9,0,5.9c0,0.9,0.4,1,1.1,1c2.7,0,5.4,0,8.2,0c1.2,0,1.7,0.5,1.7,1.7 c0.1,2.9,0.1,2.9-2.8,2.9c-3.9,0-7.7,0-11.6,0c-2,0-2.3-0.4-2.3-2.4C86.9,315.1,87,311.2,87,307.4z" />
		<path
			d="M68,309.6c0-3.2-0.1-6.5,0-9.7c0.1-1.5-0.5-1.9-1.9-1.8c-1.5,0.1-3,0-4.5,0c-1,0-1.5-0.4-1.5-1.4 c0-0.1,0-0.2,0-0.3c-0.2-2.9-0.1-3.1,2.8-3.1c5.6,0,11.3,0,16.9,0c1.3,0,1.7,0.5,1.7,1.6c0,0.5,0,0.9,0,1.4c0,1.3-0.5,1.9-1.9,1.8 c-1.6-0.1-3.3,0-4.9,0c-0.9,0-1.1,0.3-1.1,1.1c0,6.8,0,13.6,0.1,20.4c0,1.3-0.5,1.8-1.6,1.9c-0.1,0-0.2,0-0.3,0 c-3.6,0.3-3.8,0.1-3.8-3.5C68,315.2,68,312.4,68,309.6z" />
		<path
			d="M200,309.5c0-3.4,0-6.8,0-10.1c0-0.9-0.2-1.3-1.2-1.3c-1.7,0.1-3.5,0-5.2,0c-0.9,0-1.3-0.4-1.4-1.2 c0-0.3-0.1-0.7-0.1-1c-0.1-2.4,0.1-2.6,2.5-2.6c5.7,0,11.4,0.1,17.1,0c1.5,0,1.9,0.5,1.9,1.9c0,0.3,0,0.6,0,0.8 c0,1.9-0.2,2.1-2.1,2.1c-1.4,0-2.8,0.1-4.2,0c-1.4-0.1-1.6,0.4-1.6,1.6c0.1,6.6,0,13.3,0.1,19.9c0,1.4-0.5,1.9-1.7,1.9 c-0.1,0-0.2,0-0.3,0c-3.5,0.2-3.7,0.1-3.7-3.4C200,315.2,200,312.4,200,309.5z" />
		<path
			d="M325.7,307.1c0-4,0-8,0-12c0-1.2,0.3-1.7,1.5-1.8c3.9-0.4,4.3-0.2,4.3,3.7c0,6.1,0,12.3,0,18.4 c0,1,0.3,1.3,1.2,1.2c2.3-0.1,4.6,0,6.9,0c1,0,1.4,0.4,1.5,1.4c0.3,3.1,0.1,3.4-3,3.4c-3.3,0-6.7,0-10,0c-2.1,0-2.4-0.3-2.4-2.5 C325.7,314.9,325.7,311,325.7,307.1z" />
		<path
			d="M224.8,307.5c0,4.1,0,8.3,0,12.4c0,1-0.4,1.5-1.3,1.6c-0.2,0-0.4,0.1-0.6,0.1c-3.6,0.3-3.9,0-3.9-3.5 c0-7.6,0-15.1,0-22.7c0-1.5,0.5-2,1.9-2.1c3.7-0.3,3.9-0.1,3.9,3.5C224.8,300.3,224.8,303.9,224.8,307.5z" />
		<path
			d="M23.2,307.5c0,4.1,0,8.3,0,12.4c0,1-0.3,1.5-1.3,1.6c-0.1,0-0.3,0.1-0.4,0.1c-3.6,0.4-4,0-4-3.5 c0-7.6,0-15.2,0-22.8c0-1.4,0.5-1.9,1.7-1.9c0,0,0.1,0,0.1,0c3.7-0.3,3.9-0.1,3.9,3.5C23.2,300.3,23.2,303.9,23.2,307.5z" />
		<path
			d="M306.5,223.7c-1.1,0-2.1,0-3.1,0c-1.1,0-1.5-0.7-1.2-1.7c0.8-2.1,1.6-4.2,2.4-6.3c0.4-1.1,1.3-1.5,2.5-1.4 c2.8,0.3,5.6,0.4,8.4,0.1c0.7-0.1,1.6-0.2,2,0.6c0.4,0.9-0.2,1.5-0.8,2.1c-2,2-4.1,3.9-6,6.1c-0.4,0.5-1,0.6-1.7,0.6 C308.3,223.7,307.4,223.5,306.5,223.7z" />
	</g>
</svg>