<svg xmlns="http://www.w3.org/2000/svg" xml:space="preserve" width="225.9" height="54.3" x="0" y="0" version="1.1"
	viewBox="-526 613.7 225.9 54.3">
	<g fill="#ffffff">
		<path
			d="M-493,650.4c0.6,0,0.6-0.4,0.6-1v-3.3c0-0.7-0.1-0.9,0.3-0.9c1.4,0,1.7-0.1,1.7-1.3v-12.3c0-3.3-2.4-2.8-3-4	c-0.9-1.7,1.8-1.7,0.8-5.2c-0.3-0.9-1.2-1.5-2.1-1.3c-0.9-0.1-1.8,0.4-2.1,1.3c-1,3.6,1.7,3.6,0.8,5.2c-0.7,1.2-3,0.7-3,4v12.3	c0,1.2,0.4,1.3,1.7,1.3c0.4,0,0.3,0.2,0.3,0.9v3.3c0,0.7-0.1,1,0.6,1L-493,650.4" />
		<path
			d="M-503.7,623.8c-1.2,1.3-3.1,4.3-1.9,6.8c2.5,1,2.3-8,5.5-7.9c1.6,1.4-0.5,5.7-1.1,7.6c-0.8,2.3-1.4,7.1-2.9,9.5	c-1.2,2-0.3,8.1-0.7,10.2c-1,1-3.9,0.3-5.1,0.1c0-2.4-0.3-4.3-0.7-8.2c0-0.8-0.9-12.7-0.2-14.1c1.4-3,8.8-8.7,9.8-9.8	c1-1.1,4.1-4.2,5.3-4.2c0.9,0.6,0.4,2,0.2,2.5C-496.7,619.2-502,622.2-503.7,623.8" />
		<path
			d="M-485.6,623.8c1.2,1.3,3.1,4.3,1.9,6.8c-2.6,1-2.4-8-5.5-7.9c-1.5,1.4,0.5,5.7,1.1,7.6c0.8,2.3,1.4,7.1,2.9,9.5	c1.2,2,0.3,8.1,0.7,10.2c1.1,1,3.9,0.3,5.1,0.1c0.1-2.7,0.3-5.5,0.7-8.2c0.1-0.8,0.9-12.7,0.2-14.1c-1.4-3-8.8-8.7-9.8-9.8	c-1-1.1-4.1-4.2-5.3-4.2c-0.9,0.6-0.4,2-0.1,2.5C-492.5,619.2-487.3,622.2-485.6,623.8" />
		<path
			d="M-514.5,619.8c-0.7,0.6-2.1,1-3.2,2.4c-0.4-0.7,0.6-2.5,1.8-3.6c1-0.8,2-1.5,3.1-2.1	C-512.3,617.5-513.7,618.8-514.5,619.8" />
		<path
			d="M-516.6,624.7c-1.1,1-2.3,1.5-3.9,3.4c-0.5-1.9-0.6-3.8-0.2-5.7c0.5-1.8,1.4-3.8,3-4.4	c-0.5,1.4-0.8,2.9-0.9,4.3c-0.7,2.6-1,2.7-0.9,3c0.2,0,1-1.4,2.1-2.4c1.2-1.2,2.8-1.5,3.8-2.3C-514.4,622.2-515.4,623.5-516.6,624.7" />
		<path
			d="M-522.1,635.5c-1.2-2.1-1.8-4.6-1.8-7c0.1-1.6,0.9-5.3,2-5.9c-0.3,3.4,0.5,3.7,0.2,6.4c0,0.2-0.4,3-0.4,3.2	c0.5-0.1,0-2.6,5.4-6.4c-1.2,2-0.6,2.7-2.7,5.3C-520.7,632.4-521.6,633.9-522.1,635.5" />
		<path
			d="M-519.9,638.1c-0.6,1-1.1,2.1-1.2,3.2c-2.7-1.6-5.7-7.8-4.6-10.8c0.7,2.3,1.7,2.8,2.4,4.8	c1.2,2.9,1,3.8,1.8,4.5c-0.1-1.6,0.2-3.2,0.9-4.6c0.6-1.1,1.2-2.1,1.9-3.1C-518.3,634.1-518.7,635.9-519.9,638.1" />
		<path
			d="M-517.5,643.4c-0.1,1.7-0.3,3.5-0.6,5.2c-4.6-1.5-7.1-6.8-7.1-9.4c1.4,3.2,3.5,3.2,6.2,7.7	c0.2-1.7-0.5-0.4-0.5-3.7c0.1-3.4,0.8-3.5,0.9-5.6C-517.8,638.4-517.5,642.2-517.5,643.4" />
		<path
			d="M-513.7,650.1c0.3,1.8,0.5,3.8,0.8,5.3c-2.6-1-3.3-0.2-6.5-2.2c-1.5-0.8-4-4-3.9-6.4c3.1,3.5,3.7,3.1,5.2,4.4	c1.4,1.1,2.5,2.8,3.5,2.6c0.1-0.9-2.3-3-2-8.8C-515.2,646.5-514.3,648.2-513.7,650.1" />
		<path
			d="M-508.4,654.5c0.8,1.2,0.6,1.7,2.7,4.1c-1.8,0.6-3.6,1-5.5,1.1c-1.3,0-6-1.3-7.6-4.5c2.7,1.5,2.7,1.1,6.3,1.9	c2.6,0.6,4.4,1.4,5.1,1.3c-0.2-0.4-2.1-1.2-3.5-2.9c-1.4-1.7-1-3.9-2.3-5.4C-512.3,649.9-509.1,653.6-508.4,654.5" />
		<path
			d="M-475,619.8c0.6,0.6,2.1,1,3.1,2.4c0.4-0.7-0.6-2.5-1.8-3.6c-0.9-0.8-2-1.5-3.2-2.1	C-477.3,617.5-475.9,618.8-475,619.8" />
		<path
			d="M-472.9,624.7c1.1,1,2.3,1.5,3.9,3.4c0.5-1.9,0.6-3.8,0.2-5.7c-0.5-1.8-1.4-3.8-3-4.4c0.5,1.4,0.8,2.8,0.9,4.3	c0.7,2.6,1.1,2.7,0.9,3c-0.1,0-1-1.4-2.1-2.4c-1.2-1.2-2.8-1.5-3.8-2.3C-475.1,622.2-474.1,623.5-472.9,624.7" />
		<path
			d="M-467.5,635.5c1.2-2.1,1.8-4.5,1.8-7c-0.1-1.6-0.9-5.3-2-5.9c0.3,3.4-0.6,3.7-0.2,6.4c0,0.2,0.3,3,0.3,3.2	c-0.4-0.1,0-2.6-5.3-6.4c1.1,2,0.6,2.7,2.7,5.3C-468.9,632.4-468,633.8-467.5,635.5" />
		<path
			d="M-469.6,638.1c0.6,1,1,2.1,1.2,3.2c2.7-1.6,5.8-7.8,4.6-10.8c-0.7,2.3-1.7,2.8-2.3,4.8	c-1.3,2.9-1.1,3.8-1.8,4.5c0-1.6-0.3-3.2-0.9-4.6c-0.5-1.1-1.2-2.1-1.9-3.1C-471.2,634.1-470.8,636.3-469.6,638.1" />
		<path
			d="M-472,643.4c0.1,1.7,0.3,3.5,0.7,5.2c4.6-1.5,7.1-6.8,7.1-9.4c-1.5,3.2-3.5,3.2-6.2,7.7	c-0.2-1.7,0.5-0.4,0.5-3.7c-0.1-3.4-0.8-3.5-0.9-5.6C-471.7,638.4-472,642.2-472,643.4" />
		<path
			d="M-475.9,650.1c-0.4,1.8-0.5,3.8-0.7,5.3c2.6-1,3.3-0.2,6.4-2.2c1.4-0.8,4.1-4,3.9-6.4c-3.1,3.5-3.7,3.1-5.2,4.4	c-1.4,1.1-2.6,2.8-3.6,2.6c-0.1-0.9,2.3-3,2-8.8C-474.3,646.5-475.3,648.2-475.9,650.1" />
		<path
			d="M-481.1,654.5c-0.7,1.5-1.6,2.9-2.7,4.1c1.8,0.6,3.7,1,5.5,1.1c1.3,0,6-1.3,7.5-4.5c-2.7,1.4-2.7,1.1-6.3,1.9	c-2.6,0.6-4.4,1.4-5.1,1.3c0.2-0.3,2.2-1.2,3.5-2.9c1.3-1.7,1-3.9,2.3-5.4C-477.3,649.9-480.5,653.6-481.1,654.5" />
		<path
			d="M-501.4,665.5l-0.8-0.4c3.4-3.8,8.4-5.8,13.5-5.6c8.5,0.5,7.9,2.5,12.5,2.1c0.5,0-0.4,0.6-0.4,0.6	c-3.2,1-6.7,1-10-0.2C-492.1,660.2-495.6,659.1-501.4,665.5" />
		<path
			d="M-488,665.5l0.8-0.4c-3.4-3.8-8.3-5.8-13.4-5.6c-8.5,0.5-8,2.5-12.5,2.1c-0.5,0,0.4,0.6,0.4,0.6	c3.2,1,6.7,1,9.9-0.2C-497.3,660.2-493.8,659.1-488,665.5" />
		<path
			d="M-427.7,639.2c0,8.1-4.4,12.1-13.4,12.1s-13.4-3.9-13.4-12.1v-18h9.1v16c0,3,0,6.8,4.4,6.8s4.3-3.8,4.3-6.8v-16	h9L-427.7,639.2" />
		<path
			d="M-422.3 621.1-413 621.1-404.4 636.9-404.4 636.9-404.4 621.1-395.8 621.1-395.8 650.5-404.6 650.5-413.6 634.5-413.7 634.5-413.7 650.5-422.3 650.5z" />
		<path
			d="M-390.3 621.1-381.2 621.1-381.2 631.4-372.7 631.4-372.7 621.1-363.7 621.1-363.7 650.5-372.7 650.5-372.7 638.9-381.2 638.9-381.2 650.5-390.3 650.5z" />
		<path
			d="M-340.5,632.1c-0.2-2.5-2.3-4.3-4.7-4.3c-4.2,0-5.6,4.1-5.6,8.1s1.4,8.1,5.6,8.1c3,0,4.2-2.1,4.8-4.9h8.9	c0,5.9-4.8,12.2-13.4,12.2c-9.5,0-14.9-6.7-14.9-15.4c0-9.3,5.8-15.4,14.9-15.4c8.1,0,12.5,4.3,13.3,11.7H-340.5" />
		<path
			d="M-318.7,628.1h4.2c3.5,0,4.5,1.1,4.5,2.9c0,2.6-2.3,2.9-4,2.9h-4.7V628.1z M-327.8,650.5h9.1v-10.2h4.8	c3.6,0,3.8,2.9,4.1,5.7c0.1,1.5,0.3,3,0.7,4.5h9.1c-0.8-1.4-0.9-4.8-1-6.3c-0.3-3.7-1.9-6.4-4.3-7.3c3-1.1,4.4-4.3,4.4-7.4	c0-5.6-4.4-8.4-9.6-8.4h-17.3L-327.8,650.5" />
		<path d="M-451.5 657.3-454.5 657.3-454.5 655.5-446.4 655.5-446.4 657.3-449.4 657.3-449.4 665.3-451.5 665.3z" />
		<path
			d="M-445.8,655.5h2v3.7l0,0c0.4-0.7,1.2-1.2,2.1-1.2c2.1,0,2.6,1.2,2.6,2.9v4.4h-1.9v-4c0-1.2-0.3-1.8-1.3-1.8	c-1.1,0-1.5,0.6-1.5,2v3.7h-2L-445.8,655.5" />
		<path
			d="M-436.3,662.2c0.1,1.2,0.7,1.8,1.8,1.8c0.6,0,1.2-0.3,1.5-0.9h1.7c-0.4,1.5-1.8,2.5-3.3,2.4	c-1.9,0.1-3.5-1.4-3.6-3.3c0-0.1,0-0.3,0-0.4c-0.1-2,1.4-3.7,3.4-3.8c0.1,0,0.2,0,0.2,0c2.4,0,3.6,2,3.5,4.2L-436.3,662.2z M-433.1,661c-0.2-1-0.6-1.5-1.6-1.5c-0.8,0-1.6,0.6-1.6,1.4c0,0,0,0,0,0.1H-433.1" />
		<path
			d="M-418.4,661.6c0,2.7-1.6,4-4.2,4c-2.6,0-4.2-1.3-4.2-4v-6.1h2.2v6.1c0,1.1,0.3,2.1,2,2.1c1.5,0,2-0.7,2-2.1	v-6.1h2.2L-418.4,661.6" />
		<path
			d="M-417 655.5-414.8 655.5-410.7 662.1-410.7 662.1-410.7 655.5-408.6 655.5-408.6 665.3-410.8 665.3-414.9 658.7-414.9 658.7-414.9 665.3-417 665.3z" />
		<path
			d="M-401.8,657.1h2.4c1,0,1.5,0.4,1.5,1.4c0,1-0.5,1.4-1.5,1.4h-2.4V657.1z M-403.9,665.3h2.2v-3.9h2.2	c1.1,0,1.5,0.5,1.6,1.5c0,0.8,0.1,1.6,0.3,2.4h2.2c-0.3-0.7-0.4-1.5-0.4-2.3c-0.1-1-0.4-2-1.4-2.3l0,0c1-0.4,1.7-1.4,1.6-2.5	c0-1.5-1.2-2.7-2.7-2.7c-0.1,0-0.1,0-0.2,0h-5.3L-403.9,665.3" />
		<path
			d="M-392.8,661c0-0.9,0.7-1.5,1.6-1.5c0,0,0,0,0.1,0c1,0,1.4,0.5,1.6,1.5H-392.8z M-387.7,662.2	c0.1-2.2-1-4.2-3.5-4.2c-2,0-3.6,1.5-3.6,3.5c0,0.1,0,0.2,0,0.2c-0.2,1.9,1.3,3.6,3.2,3.7c0.1,0,0.3,0,0.4,0c1.5,0.1,3-0.9,3.3-2.4	h-1.7c-0.3,0.6-0.9,1-1.5,0.9c-1.1,0-1.7-0.6-1.8-1.8L-387.7,662.2" />
		<path
			d="M-386.4,659.5h-1.2v-1.3h1.2v-0.6c-0.1-1.2,0.8-2.1,2-2.2c0.1,0,0.3,0,0.4,0c0.3,0,0.7,0,1,0.1v1.5	c-0.2,0-0.5,0-0.7,0c-0.5,0-0.7,0.2-0.7,0.8v0.4h1.4v1.3h-1.4v5.8h-2L-386.4,659.5" />
		<path
			d="M-375.8,665.3h-1.9v-1l0,0c-0.5,0.7-1.3,1.2-2.2,1.2c-2.1,0-2.6-1.2-2.6-2.9v-4.4h2v4c0,1.2,0.3,1.8,1.3,1.8	c1.1,0,1.5-0.6,1.5-2v-3.8h2v7.1" />
		<path
			d="M-371.3,663.6c-1.2,0-1.6-1.1-1.6-2.1c0-1,0.5-2,1.6-2c1.3,0,1.7,1,1.7,2.2c0.1,1-0.5,1.8-1.5,2	C-371.1,663.7-371.2,663.7-371.3,663.6 M-367.7,658.2h-1.9v1l0,0c-0.4-0.8-1.3-1.2-2.1-1.1c-2,0-3.1,1.7-3.1,3.5	c0,1.8,0.9,3.6,3,3.6c0.9,0,1.7-0.4,2.1-1.1l0,0v0.9c0,1-0.5,1.8-1.6,1.8c-0.7,0.1-1.3-0.3-1.5-1h-1.9c0.1,1.6,1.7,2.3,3.1,2.3	c3.3,0,3.7-2,3.7-3.2L-367.7,658.2" />
		<path
			d="M-364.8,661c0-0.9,0.7-1.5,1.6-1.5c0,0,0,0,0.1,0c1,0,1.4,0.5,1.6,1.5H-364.8z M-359.7,662.2	c0.1-2.2-1-4.2-3.5-4.2c-2,0-3.6,1.5-3.6,3.5c0,0.1,0,0.2,0,0.2c-0.2,1.9,1.3,3.6,3.2,3.7c0.1,0,0.3,0,0.4,0c1.5,0.1,3-0.9,3.3-2.4	h-1.7c-0.3,0.6-0.9,1-1.5,0.9c-1.1,0-1.7-0.6-1.8-1.8L-359.7,662.2" />
		<path
			d="M-357.1,661c0-0.9,0.7-1.5,1.6-1.5c0,0,0,0,0.1,0c1,0,1.4,0.5,1.6,1.5H-357.1z M-352,662.2	c0.1-2.2-1-4.2-3.5-4.2c-2,0-3.6,1.5-3.6,3.5c0,0.1,0,0.2,0,0.2c-0.2,1.9,1.3,3.6,3.2,3.7c0.1,0,0.3,0,0.4,0c1.5,0.1,3-0.9,3.3-2.4	h-1.7c-0.3,0.6-0.9,1-1.5,0.9c-1.1,0-1.7-0.6-1.8-1.8L-352,662.2" />
		<path
			d="M-343,657.9L-343,657.9l1.2,3.6h-2.5L-343,657.9z M-347.8,665.3h2.2l0.8-2.2h3.7l0.7,2.2h2.3l-3.7-9.8h-2.2	L-347.8,665.3z" />
		<path
			d="M-334.5,663.6c-1.2,0-1.6-1.1-1.6-2.1c0-1,0.5-2,1.6-2c1.3,0,1.7,1,1.7,2.2c0.1,1-0.5,1.9-1.5,2	C-334.4,663.7-334.5,663.7-334.5,663.6 M-331,658.2h-1.9v1l0,0c-0.4-0.8-1.3-1.3-2.1-1.2c-2,0-3.1,1.7-3.1,3.5c0,1.9,0.9,3.6,3,3.6	c0.9,0,1.7-0.4,2.1-1.1l0,0v0.9c0,1-0.5,1.8-1.6,1.8c-0.7,0.1-1.3-0.3-1.5-1h-1.9c0.1,1.6,1.7,2.3,3.1,2.3c3.3,0,3.7-2,3.7-3.2	L-331,658.2" />
		<path
			d="M-328.1,661c0-0.9,0.7-1.5,1.6-1.5c0,0,0,0,0.1,0c1,0,1.4,0.5,1.6,1.5H-328.1z M-322.9,662.2	c0.1-2.2-1-4.2-3.5-4.2c-2,0-3.6,1.6-3.6,3.5c0,0.1,0,0.1,0,0.2c-0.2,1.9,1.3,3.6,3.2,3.7c0.1,0,0.3,0,0.4,0	c1.5,0.1,2.9-0.9,3.3-2.4h-1.7c-0.3,0.6-0.9,1-1.5,0.9c-1.1,0-1.7-0.6-1.8-1.8L-322.9,662.2" />
		<path
			d="M-322.1,658.2h1.9v1l0,0c0.5-0.8,1.3-1.2,2.2-1.2c2.1,0,2.6,1.2,2.6,2.9v4.4h-2v-4c0-1.2-0.3-1.8-1.3-1.8	c-1.1,0-1.5,0.6-1.5,2v3.7h-2L-322.1,658.2" />
		<path
			d="M-309.4,660.7c-0.1-0.7-0.7-1.3-1.4-1.2c0,0,0,0,0,0c-1.3,0-1.7,1.3-1.7,2.3c0,1,0.4,2.3,1.6,2.3	c0.8,0,1.5-0.6,1.6-1.5h1.9c-0.1,1.8-1.7,3.1-3.4,2.9c-1.9,0.1-3.5-1.4-3.6-3.3c0-0.1,0-0.2,0-0.3c-0.2-1.9,1.2-3.7,3.2-3.8	c0.2,0,0.3,0,0.5,0c1.7,0,3.2,0.9,3.4,2.7L-309.4,660.7" />
		<path
			d="M-303,666.2c-0.3,1.1-1.3,1.8-2.5,1.6c-0.4,0-0.8,0-1.2-0.1v-1.6c0.4,0,0.8,0.1,1.1,0.1	c0.5-0.1,0.8-0.5,0.8-1.1c0-0.1,0-0.2-0.1-0.3l-2.5-6.7h2.1l1.6,4.9l0,0l1.6-4.9h2L-303,666.2" />
	</g>
</svg>