<?xml version="1.0" encoding="utf-8"?>
<!-- Generator: Adobe Illustrator 19.0.0, SVG Export Plug-In . SVG Version: 6.00 Build 0)  -->
<svg version="1.1" id="Layer_1" xmlns="http://www.w3.org/2000/svg" xmlns:xlink="http://www.w3.org/1999/xlink" x="0px" y="0px"
	 viewBox="-238 -17 482.7 594" enable-background="new -238 -17 482.7 594" xml:space="preserve">
<rect x="-326.8" y="-81.4" fill="#E9F0F9" width="662.2" height="745"/>
<path fill="#679188" d="M-224,691.4c-33.7,25.4-87.5,12.1-104.3,3c-0.1-0.1,109.9-253.4,114.2-266.7c1.3-3.9,1.3-3.9,5.4-3.9
	c0.5,0,1.1,0,1.5,0c4.4,0.6,8.8,0.9,13,1.8c12.8,2.5,24.5,7.3,35,15c2.2,1.3,2.7,3.1,2.1,5.7C-159.5,459.4-220.6,678.5-224,691.4z"
	/>
<path fill="#313337" d="M-110.8,397.2c-14.8,0-29.7,0-44.5,0c-5.1,0-7.6-2.5-7.6-7.5c0-16.3,0-32.6-0.1-49.1c0-2.7,1.1-4.7,2.8-6.6
	c0.8,0.9,0.5,2,0.5,3c0,13.2,0,26.5,0,39.6c0,0.9-0.1,2,0.4,2.8c0.4,1.1,1.1,1.4,2.1,1.5c0.7,0,1.4,0,2.1,0c20,0,40,0,59.8,0
	c4.3,0,4.5-0.1,4.5-4.4s0-8.5,0-12.8c0-0.9-0.1-2,0.4-3c0.8-0.9,1.9-1.3,3.1-0.6c0,9.9,0,20,0,29.9c0,4.3-2.5,6.7-6.7,6.7
	C-99.4,397.2-105.1,397.2-110.8,397.2z"/>
<path fill="#313337" d="M-159.7,307.3c-0.9,1.7-1.7,3.3-3,4.7c0-7.9,0-15.7,0-23.7c0-11.6,0.1-23.3,0-34.9c0-4.4,2.7-7.5,7.3-7.5
	c20.3,0.1,40.7,0.1,61.1,0c5.1,0,7.5,3.3,7.3,7.5c-0.2,7.5,0,14.9,0,22.2c0.4,0.5,0.5,1.1,0.6,1.7c0.1,3,0,5.9,0,8.8
	c0,0.7-0.4,1.3-0.6,1.9c0,5.2,0,10.5,0,15.7c-1.1,1.7-1.9,1.9-3.2,1.1c-0.4-1.1-0.2-2.2-0.2-3.3c0-15.4,0-30.7,0-46.1
	c0-1.3,0-2.5-0.2-3.7c-0.5-0.7-1.1-1.1-1.9-0.9c-2.1-0.1-4.3-0.8-6.4-0.1c-1.2,0.2-2.4,0.1-3.5,0.1c-17.4,0-34.8,0-52.2,0
	c-0.8,0-1.5,0-2.4,0c-1.3,0-2,0.7-2.2,2c-0.2,1.1-0.1,2.1-0.1,3.2c0,14.4,0,28.7,0,43.2C-159.4,301.9-159.3,304.6-159.7,307.3z"/>
<path fill="#5C3713" d="M-89.9,305.3c0.9-0.5,1.8-1.1,2.7-1.5c3.3-0.4,5.9,0.4,7.2,3.8c1.1,2.8,0.4,5.3-2.1,7.2
	c-1.7,1.2-3.4,2.4-5.1,3.5c-0.6,1.1-1.8,1.8-2.7,2.5c-3,1.9-6.7,1.5-9.1-0.8c-2-2-2.2-4.8-0.4-7.6
	C-96.8,309.2-93.5,307.1-89.9,305.3z"/>
<path fill="#5C3713" d="M-87.1,321.8c2.8-0.4,5.2,0.2,6.7,2.8c1.7,2.8,1.4,5.7-1.1,7.8c-1.9,1.7-3.8,3.2-5.7,4.8
	c-0.6,1.3-1.8,1.9-2.7,2.7c-3,1.2-6.9-0.1-8.5-2.8c-1.5-2.5-0.6-6.6,2-8.9c2-1.8,4.1-3.4,6.3-5.1C-89.3,322.7-88.4,321.7-87.1,321.8
	z"/>
<path fill="#5C3713" d="M-87.1,360.5c-0.9,0.1-1.8,0.2-2.7,0.4c-3.4,0.4-5.9-2.5-5.6-6.1c0.4-3.7,2.6-6.1,5.1-8.6
	c0.9-0.7,1.8-1.8,3.2-1.4c3-0.7,5.2,0.2,6.9,2.8c1.4,2.4,1.3,4.6-0.6,6.9C-82.6,356.7-84.5,359-87.1,360.5z"/>
<path fill="#5C3713" d="M-87,288c0-4.1,0-8.2,0-12.3c3.9,0.8,4.4,3.2,3.7,7C-83.8,285-85.1,286.7-87,288z"/>
<path fill="#323437" d="M-87,344.7c-0.9,0.6-1.9,1.1-2.8,1.7c-1.2-2.2-0.9-4.5-0.1-6.6c0.9-0.8,1.9-1.5,2.7-2.4
	C-87.1,339.7-87.1,342.2-87,344.7z"/>
<path fill="#333437" d="M-87.1,321.8c-0.9,0.6-1.8,1.1-2.7,1.7c-0.9-0.9-0.6-2-0.1-3.1c0.9-0.7,1.9-1.3,2.8-2
	C-87.1,319.5-87.1,320.7-87.1,321.8z"/>
<path fill="#4A4C51" d="M-119.9,389.8c0,2.8-2.4,5.1-5.2,5c-2.7,0-5.1-2.6-5.1-5.2c0.1-2.4,2.8-5.1,5.2-5
	C-122,384.6-119.8,387-119.9,389.8z"/>
<path fill="#E9C1AC" d="M322,631.4c17.6,55.9-32.8,74.9-58.7,75.4c-3.4-4.7-6.3-9.9-9.3-14.9c-9-14.7-146.6-250.7-155.5-265.4
	c-0.9-1.5-1.1-2.8,0.2-4.3c0.8-0.9,1.5-2,2.2-3c7.2-9.5,16.2-16.8,26.5-22.6c4.6-2.6,9.5-4.7,14.4-6.7c3.1-1.2,3.2-1.2,5.1,1.7
	c10.9,16,22.5,31.6,33.8,47.2c10.8,14.8,130,175.5,140.6,190.4c0.4,0.5,0.7,0.9,0.9,1.5C322.1,631.1,322.1,631.2,322,631.4z"/>
<path fill="#5C3713" d="M66.1,302.5c3.1,1.8,6.1,3.7,9.3,5.4c6.5,3.5,12.4,7.9,18.1,12.5c7.6,6.1,14.4,13.1,19.9,21.3
	c3.7,5.7,6.6,11.6,7.7,18.3c0.4,2.2,0.7,4.5,0.6,6.9c-0.1,1.2,0.2,1.9,1.1,2.7c6.7,6.6,13.2,13.5,19.2,20.8
	c-5.6,2.4-11.1,4.8-16.4,7.9c-9.3,5.6-17.5,12.5-24.2,21.2c-2-2-2.8-4.8-4.3-7.2c-1.7-3-3.1-5.9-4.5-9c-0.5-0.9-0.9-1.2-2-1.1
	c-6.4,1.1-12.8,0.7-19.2-0.2c-3.9-0.6-7.7-1.3-11.5-2.7c-0.8-1.3-0.6-2.7-0.5-4c0.6-7.5,0.9-14.9,1.5-22.4c0.5-7,0.9-14,1.4-21
	c0.5-7.7,1.2-15.5,1.4-23.2c0-1.1-0.4-1.8-1.1-2.4c-1.9-1.5-3.5-3.2-5.2-4.8c-0.9-0.9-2-1.2-3.2-0.8c-2.1,0.6-4.4,1.1-6.5,1.3
	c-5.6,0.7-10.4-0.6-14.3-4.8c-1.2-1.2-2.2-2.5-3.3-3.9c-0.7-1.1-0.7-2,0.2-3c1.2-1.2,2.6-1.9,3.9-3c0.1-0.1,0.4-0.2,0.5-0.4
	c7.2-3.3,14.8-5.8,22.7-7.1C60.7,299.7,63.6,300.3,66.1,302.5z"/>
<path fill="#698CC8" d="M33.5,316.8c5.3,5.6,11.8,6,18.7,4c3.2-0.9,5.4-0.7,7.5,2c1.1,1.5,2.7,2.6,4.1,3.9c0.6,0.5,0.8,1.1,0.8,1.9
	c-0.6,7.6-0.9,15.1-1.5,22.7c-0.6,8.9-1.3,17.7-1.9,26.6c-0.4,4.8-0.6,9.7-0.8,14.5c-0.1,2.4-0.2,4.7-0.5,7.1
	c-1.3,3.8-4,5.2-7.9,5.2c-11.5-0.1-23.1-0.1-34.5-0.1c-0.8-0.4-0.9-1.2-0.9-2c-0.1-1.3-0.1-2.6,0.1-3.9c0.2-1.9,0.4-3.8,0.2-5.7
	c-0.2-24.4,0.6-48.7,0.4-73.1c0-0.8,0-1.5,0.2-2.4c0.1-0.2,0.2-0.5,0.5-0.6c0.5-0.4,1.1-0.4,1.7-0.4c4.3,0,8.4,0,12.7,0
	C32.5,316.5,33,316.8,33.5,316.8z"/>
<path fill="#B3C5E2" d="M66.1,302.5c-4.6-2.8-9.5-1.8-14.2-0.6c-5.4,1.4-10.6,3-15.7,5.4c-0.5,0.2-0.9,0.6-1.4,0.4
	c-0.6,0.4-1.2,0.5-1.9,0.5c-4.4,0-8.9,0-13.2,0c-0.5,0-1.1-0.1-1.5-0.4c-0.7-0.9-0.6-2-0.6-3c0-6.7,0-13.5,0-20.2
	c0-2.6-0.1-2.7-2.8-2.7c-3.1,0-6.1,0-9.2,0c-4.7,0.1-9.3,0-14.1,0c-0.8,0-1.5,0-2.1-0.6c0.7-0.5,1.4-0.2,2.1-0.2c23.7,0,47.3,0,71,0
	c4,0,5.1,1.2,4.8,5.2C66.7,291.6,66.5,297,66.1,302.5z"/>
<path fill="#86A3D2" d="M17.8,317.1c0,9.7,0.2,19.4-0.1,29.1c-0.5,16.7-0.2,33.3-0.4,49.9c0,2.1-0.5,4.1-0.4,6.3
	c0,0.7,0,1.4,0.4,2.1c-3.7,0-7.3,0-11,0c-0.4-3.2-0.6-6.5-0.6-9.8c-0.1-10.6-0.1-21.4,0-32c0-6.1-0.7-12.3-0.4-18.4
	c-0.1-8-0.1-16-0.1-24c0-1.1-0.1-2.2,0.5-3.2c0.5-0.5,1.2-0.5,1.8-0.5c2.8,0,5.6,0,8.4,0C16.6,316.6,17.3,316.6,17.8,317.1z"/>
<path fill="#5C3713" d="M-11.1,363.7c-5.9-0.9-7.2-5.2-6.5-10.2c0.2-1.8,1.4-3.1,3.5-3.9c-3.5-0.7-5.9-2.5-6.5-5.7
	c-1.3-5.9,1.1-9.8,6.9-9.3c1.4,0.1,2.8,0.6,4.3,0.4c4.1-0.2,8.3-0.2,11.9,2.1c2.6,1.7,3.5,4.3,3.3,7.3c0,1.1-0.1,2.1-0.4,3.1
	c-1.1,3-3,5.1-7.1,3.9c-0.8-0.2-1.5-0.5-2.4-0.5c-0.7-0.4-1.5-0.4-2.4-0.5c0.7,0,1.3,0.1,1.9,0.4c0.8,0.1,1.5,0.1,2.4,0.4
	c1.5,0.4,2.8,0.8,4.1,1.8c5.6,4,3.8,11.7-1.9,13.6c2,1.5,3.8,3.4,4,6c0.2,1.9-0.5,3.7-1.5,5.2c-2,2.8-5,3.4-8.3,1.8
	c-1.5-0.2-3.1-0.6-4.6-0.8c-3.4-0.5-5.8-3.3-6-7.1c-0.2-3.9,1.3-6.3,4.7-7.1c0.8-0.5,1.8-0.1,2.7-0.1c0.5,0,0.9,0.4,1.2,0.4
	c-0.2,0-0.5-0.4-0.9-0.5C-9.7,364.3-10.5,364.3-11.1,363.7z"/>
<path fill="#B3C5E2" d="M-10.7,281.3c5.4,0,10.9,0,16.2,0.1c0.7,0.7,0.6,1.7,0.6,2.6c0,7.1,0,14.2,0,21.3c0,0.8,0,1.8-0.5,2.5
	c-0.4,0.5-0.9,0.6-1.4,0.6c-5.1,0-10.1,0.2-15.1-0.1c-0.4-0.1-0.7-0.4-0.8-0.7c-0.6-7.5-1.3-14.8-1.8-22.2
	C-13.7,282.5-13,281.8-10.7,281.3z"/>
<path fill="#698CC8" d="M-5.9,379.4c0.5,0,0.9,0,1.4,0.1c3.7,0.6,5.8-0.4,7.3-3.3c1.4-3,0.8-5.9-1.7-8.2c-0.7-0.6-1.4-1.2-2.2-1.9
	c3.3-0.6,5.2-2.5,5.9-5.6c0.7-3.3-0.9-6.3-4.5-8.2c-0.8-0.5-1.7-0.7-2.6-1.1c0-0.4,0-0.6,0.5-0.4c5.1,0.2,6-0.6,7.5-6.6
	c0.1-0.1,0.2-0.2,0.4,0c0.4,17.4,0.2,34.8,0.2,52.3c0,1.9,0.5,3.9,0.4,5.9c0,0.7,0,1.4-0.4,2.1c-2,0-4,0.4-6-0.2
	c-2.7-0.8-4.3-2.7-4.5-5.3c-0.6-5-0.8-10.1-1.3-15C-5.7,382.4-5.8,381-5.9,379.4z"/>
<path fill="#5C3713" d="M-9.8,332.6c-2.1-0.8-4.1-1.8-5.8-3.5c-2-2.2-3-4.7-1.9-7.6c1.1-3,3.1-5,6.5-5.2c1.4-0.8,2.7,0.2,3.9,0.6
	c1.7,0.7,3.3,1.2,5,1.9c5.3,2.4,6.9,9.9,3,14.1c-1.8,1.9-4.1,2.7-6.9,1.8C-7.3,334.1-8.9,333.9-9.8,332.6z"/>
<path fill="#8EA8D6" d="M-7.2,317.2c-1.3,0-2.5-1.1-3.8-0.9c-0.2-3-0.5-5.9-0.7-8.9c0.1,0.1,0.2,0.2,0.2,0.4c2,0.5,4,0.1,6,0.2
	c3.2,0,6.4,0,9.6,0c1.2,0,1.7,0.5,1.9,1.5c0.4,1.5,0.4,3,0.4,4.5c0,2,0.2,2.2,2.2,2.2c2.1,0,4.1,0,6.3,0c0.8,0,1.7-0.1,2.5,0.4
	c0.2,0.1,0.4,0.4,0.2,0.6l0,0c-3.9,0-7.9,0-11.8,0c-0.4,0.4-0.7,0.6-1.2,0.6C0.7,317.7-3.3,318.2-7.2,317.2z"/>
<path fill="#698CC8" d="M-7.2,317.2c4.4,0,8.8,0,13.1,0c0,9.1,0,18.1,0,27.2c-0.1,0-0.2,0-0.4,0c0.5-4.5-3.4-8.3-8.3-8.6
	c-2.2-0.2-4.5-0.6-6.7-0.8c-0.1-0.7-0.2-1.5-0.2-2.2c0.9,0.4,2,0.7,3,1.1c4.7,1.8,8.5-0.6,9.1-5.6c0.6-4.7-1.2-7.6-5.6-9.3
	C-4.6,318.3-6,318.1-7.2,317.2z"/>
<path fill="#A65525" d="M-8.7,364.4c-1.1,0-2.1,0-3.2,0c0.2-0.2,0.5-0.5,0.7-0.7c0.8,0.1,1.5,0.2,2.4,0.4
	C-8.7,364.2-8.7,364.2-8.7,364.4C-8.6,364.4-8.6,364.4-8.7,364.4z"/>
<path fill="#8DA7D6" d="M17.8,317.1c0-0.1,0-0.2,0-0.4c-1.2-2.6-0.7-5.2-0.1-7.9c0.1-0.6,0.6-0.9,1.3-0.9c5.2,0.1,10.5-0.2,15.7,0.2
	c-1.2,1.1-2.7,1.8-3.8,3c-0.7,0.7-0.8,1.3-0.1,2.1c1.1,1.2,1.9,2.5,3,3.7c-0.6,0.6-1.4,0.4-2,0.4C26.9,317.1,22.2,317.1,17.8,317.1z
	"/>
<path fill="#A4B9DD" d="M34.5,308.1c-4.7,0-9.5,0.1-14.2,0c-2.1-0.1-2.6,0.9-2.6,2.6c-0.1,2,0,4,0,6.1c-3.3,0-6.6-0.1-10.1,0
	c-1.5,0-1.9-0.5-1.9-1.9c0-1.8,0.1-3.5-0.2-5.2c-0.2-1.3-0.7-1.5-1.9-1.5c-4.4,0-8.8,0-13.1,0c-0.7,0-1.4,0.2-2-0.4
	c5.7,0,11.2,0,16.9,0c0.1-0.1,0.2-0.2,0.5-0.4c3.9-0.5,7.8-0.5,11.6,0c0.2,0,0.4,0.2,0.5,0.4c5.6,0,11.1,0,16.7,0
	C34.7,307.9,34.7,308,34.5,308.1z"/>
<path fill="#C3D0E7" d="M18.1,307.7c-4.3,0-8.4,0-12.7,0c0-8.8,0-17.6,0-26.4c3.7,0,7.2,0,10.9,0c1.4,0,1.8,0.5,1.8,1.8
	C18.1,291.2,18.1,299.5,18.1,307.7z"/>
<path fill="#6780AC" d="M-1.9,351.1c-0.1,0.1-0.4,0.2-0.5,0.4c-0.7-0.1-1.5-0.2-2.2-0.4c-0.1-0.1-0.1-0.2,0-0.4c0.1,0,0.2,0,0.2,0
	C-3.5,350.7-2.7,350.5-1.9,351.1z"/>
<path fill="#635C57" d="M-4.4,350.6c-0.1,0.1-0.2,0.2-0.4,0.4c-0.7-0.1-1.3-0.2-2-0.5C-5.9,350.3-5.1,350-4.4,350.6z"/>
<path fill="#8B4A20" d="M-8.7,364.4c0-0.1,0-0.2,0-0.4c0.5,0.1,0.8,0.4,1.3,0.5C-7.9,365-8.4,364.9-8.7,364.4z"/>
<path fill="#D9E1F1" d="M-92.2,348.9c0.8-0.8,1.5-1.8,2.4-2.6c0-2.2,0-4.5-0.1-6.6c-3,1.1-6.4,0-8-2.6c-1.4-2-0.8-5.3,1.2-7.6
	c0.5-0.5,0.9-0.9,1.4-1.3c1.9-1.5,3.7-3.1,5.6-4.7c0-1.1-0.1-2.1-0.1-3.1c-0.5,0.2-0.9,0.6-1.5,0.8c-2.4,0.9-5.6,0.2-7.3-1.8
	c-1.7-1.8-1.7-4-0.1-6.5c0.8-1.4,2-2.5,3.3-3.3c2-1.4,3.9-2.8,5.9-4.3c0-0.7,0-1.4,0-2.1c0-16.6,0-33,0-49.5c0-0.9,0.2-2-0.6-2.7
	c-0.2,0-0.5,0.1-0.7,0.2v-1.1h-1.1l0,0c-2.1-0.1-4.3-0.5-6.4,0v0.1l0,0c0,0,0,0,0-0.1c-0.7,0-1.3,0-2,0c-18.3,0-36.8,0-55.1,0
	c-3.8,0-4.1,0.5-4.1,4.1c0,17,0,34.1,0,51c0,0.7-0.2,1.4,0.2,2.1c0.8-1.5,1.5-3,2.4-4.5c0.2-0.5,0.5-1.1,1.3-0.9
	c4.5,0.8,7.3,2.2,6.7,7.8c-0.6,6.6-3.2,12.5-6.6,18.1c-1.2,2-2.8,3.8-3.8,5.9c-0.1,0.1-0.2,0.2-0.4,0.5c0,4.6,0,9.2,0,13.8l0,0v26.5
	l0,0c0,1.8,0.1,3.7,0.2,5.4c0.1,1.9,1.5,2,3,2c21.2,0,42.5,0,63.6,0c2.6,0,3.2-0.7,3.2-3.3c0-5.9,0-11.8,0-17.7
	c-4.4-1.4-5.4-2.8-4.8-6.7C-94.5,352.1-93.6,350.3-92.2,348.9z"/>
<g>
	<path fill="#4A4C51" d="M-148,276.2h-3v6.9h-2.1v-16.9h4.7c1.7,0,3,0.5,3.8,1.3c0.8,0.8,1.3,2.1,1.3,3.8c0,1.1-0.2,1.9-0.7,2.7
		c-0.5,0.8-1.1,1.4-1.9,1.8l3.3,7.2v0.1h-2.2L-148,276.2z M-151,274.3h2.6c0.9,0,1.5-0.2,2.1-0.8c0.5-0.6,0.8-1.3,0.8-2.2
		c0-2.1-0.9-3.2-3-3.2h-2.5V274.3z"/>
	<path fill="#4A4C51" d="M-137.2,283.2c-1.5,0-2.7-0.5-3.5-1.4s-1.3-2.2-1.3-4.1v-1.4c0-1.9,0.4-3.3,1.2-4.4s1.9-1.5,3.4-1.5
		c1.4,0,2.6,0.5,3.3,1.4s1.1,2.4,1.1,4.4v1.3h-7v0.2c0,1.3,0.2,2.4,0.7,3s1.2,0.9,2.1,0.9c0.6,0,1.2-0.1,1.5-0.4
		c0.5-0.2,0.9-0.6,1.3-1.1l1.1,1.3C-134,282.6-135.3,283.2-137.2,283.2z M-137.4,271.9c-0.8,0-1.5,0.2-1.9,0.8s-0.6,1.5-0.7,2.7h5
		v-0.2c0-1.2-0.2-2-0.6-2.6C-136,272.2-136.6,271.9-137.4,271.9z"/>
	<path fill="#4A4C51" d="M-122.1,277.3c0,2-0.4,3.4-1.1,4.5c-0.7,0.9-1.8,1.4-3.1,1.4s-2.2-0.5-3-1.4v6h-2v-17.4h1.9l0.1,1.4
		c0.7-1.1,1.7-1.7,3-1.7c1.4,0,2.4,0.5,3.1,1.4c0.7,0.9,1.1,2.4,1.1,4.3V277.3z M-124.2,276.2c0-1.4-0.2-2.5-0.6-3.1
		c-0.5-0.7-1.2-0.9-2.1-0.9c-0.9,0-1.8,0.5-2.2,1.4v6.5c0.5,0.9,1.3,1.4,2.2,1.4s1.7-0.4,2-0.9c0.4-0.6,0.7-1.7,0.7-3.1
		C-124.2,277.5-124.2,276.2-124.2,276.2z"/>
	<path fill="#4A4C51" d="M-120.6,276.1c0-1.8,0.5-3.3,1.3-4.4c0.8-1.1,2-1.5,3.5-1.5s2.6,0.5,3.5,1.5c0.9,1.1,1.3,2.5,1.4,4.3v1.3
		c0,1.8-0.5,3.2-1.3,4.3s-2,1.5-3.5,1.5c-1.4,0-2.6-0.5-3.5-1.5c-0.8-1.1-1.3-2.4-1.4-4.1V276.1z M-118.5,277.3
		c0,1.3,0.2,2.2,0.7,3.1c0.5,0.7,1.2,1.1,2,1.1c1.8,0,2.7-1.3,2.8-3.9v-1.4c0-1.3-0.2-2.2-0.7-3.1s-1.2-1.1-2-1.1s-1.5,0.4-2,1.1
		c-0.5,0.7-0.7,1.8-0.7,3.1v1.2h-0.1V277.3z"/>
	<path fill="#4A4C51" d="M-103.8,272.4c-0.2,0-0.6-0.1-0.9-0.1c-1.1,0-1.8,0.6-2.2,1.8v9h-2v-12.5h2v1.3c0.6-0.9,1.3-1.5,2.4-1.5
		c0.4,0,0.6,0,0.8,0.1L-103.8,272.4z"/>
	<path fill="#4A4C51" d="M-99.2,267.5v3.1h1.9v1.7h-1.9v7.8c0,0.5,0.1,0.8,0.2,1.2c0.1,0.2,0.5,0.4,0.8,0.4c0.2,0,0.6,0,0.8-0.1v1.8
		c-0.5,0.1-0.9,0.2-1.4,0.2c-0.8,0-1.4-0.2-1.9-0.8c-0.5-0.6-0.6-1.4-0.6-2.5v-7.8h-1.9v-1.7h1.9v-3.1h2L-99.2,267.5L-99.2,267.5z"
		/>
</g>
<rect x="-153.6" y="290.4" fill="#4A4C51" width="55.9" height="2.6"/>
<g>
	<g>
		<rect x="-152.2" y="314.2" fill="#4A4C51" width="5.2" height="45.5"/>
		<rect x="-142.6" y="333.2" fill="#4A4C51" width="5.2" height="26.6"/>
		<rect x="-133.4" y="327.3" fill="#4A4C51" width="5.2" height="32.4"/>
	</g>
	<g>
		<rect x="-123.2" y="335.3" fill="#4A4C51" width="5.2" height="24.4"/>
		<rect x="-113.6" y="342.9" fill="#4A4C51" width="5.2" height="16.8"/>
		<rect x="-104.4" y="339.2" fill="#4A4C51" width="5.2" height="20.5"/>
	</g>
</g>
<path fill="#5C3713" d="M-110.8,397.2c-12.8,11.4-26.6,20.8-44,24c-0.9,0.1-1.7,0.5-1.8,1.5c-0.9,6-1.9,12.2-3,18.2
	c-4.5-3-9.1-5.9-14.1-8.2c-8.8-4-18-6.5-27.4-7.6c-2-0.2-4-0.5-6-0.7c3.2-8.2,7-16.1,11-23.9c0.7-1.4,0.8-2.7,0.2-4.3
	c-2.1-6-2.5-12.3-1.2-18.6c4.1-20.5,13.1-38.7,26.3-54.9c2.8-3.4,6-6.6,7.9-10.8c0.6-1.9,1.9-3.3,2.7-5.2c0.7-1.3,1.3-2.7,2-4
	c0.6-1.1,1.4-1.4,2.6-1.3c4.5,0.6,6.9,3.2,6.5,7.8c-0.4,5.8-2.2,11.1-5.2,16.2c-1.7,2.8-3.5,5.7-5.3,8.5c-0.2,0.2-0.4,0.6-0.6,0.8
	c-1.8,2.1-2.2,4.6-2.1,7.3c0.1,15.1,0,30.2,0,45.3c0,0.2,0,0.4,0,0.6c0,6.7,1.9,8.6,8.5,8.6c13.2,0,26.5,0,39.7,0
	C-112.9,396.6-111.7,396.3-110.8,397.2z"/>
<g opacity="0.7">
	<path fill="#F0F1F3" d="M-92.2,250.2c-0.2,0.6-0.4,1.1-0.7,1.7c-5.2,9-10.4,18.1-15.7,27.1c-1.9,3.2-3.4,6.6-5.8,9.6
		c-0.7,0.2-0.5,0.5-0.2,0.8c-1.2,0.5-1.3,1.7-2,2.5c-0.6,0.7-0.9,1.5-1.1,2.4c0,0.2,0,0.4,0,0.5l0,0c-0.8,1.4-1.8,3-2.6,4.4
		c-0.8-0.4-1.5,0-1.9,0.7c-0.5,0.7,0.4,0.9,0.7,1.3c0.4-0.5,0.5-1.2,1.1-1.5c0,0.5,0.2,0.8,0.6,1.1c0.7-1.1,1.3-2.1,2-3.1
		c0.7-0.6,1.7-1.1,1.2-2.2c0.1,0,0.2-0.1,0.2-0.1c0.5-0.7,0.8-1.5,1.3-2.2c0.4-0.6,1.4-0.7,1.2-1.7c0.2-0.5,0.5-0.8,0.7-1.3
		c0-0.1,0-0.2,0-0.4l0,0l0,0c0.6-1.1,1.3-2.1,1.9-3.2c4.8-8.3,9.6-16.7,14.4-25c2.1-3.5,3.8-7.3,6.4-10.5
		C-90.9,250.2-91.5,249.9-92.2,250.2z"/>
	<path fill="#F0F1F3" d="M-142.8,333.3c0.4-0.5,0.6-1.1,0.6-1.7l0,0l0,0c0.1,0,0.2,0,0.4,0c1.2-0.7,1.8-1.7,1.8-3.1
		c-0.1-0.2-0.2-0.5-0.4-0.7c-0.2-0.4-0.6-0.6-0.4-1.1s0.7-0.4,1.2-0.2c0.2,0.1,0.5,0.1,0.7,0c1.7-1.8,3.1-3.8,3.4-6.4
		c-0.4-0.6-1.4,0.1-1.7-0.8c0-0.2,0-0.5,0.2-0.5c0.8-0.5,1.1,0.6,1.5,0.8c0.1,0,0.1,0,0.1,0.1c1.3-0.6,1.7-1.9,2.1-3.1
		c0-0.2,0-0.4,0-0.6c-0.6-1.2,0.4-1.4,1.1-1.8c0.9-0.6,1.2-1.8,2-2.5c0.2-0.4,0.5-0.8,0.6-1.2c0-0.8,1.1-1.3,0.7-2.2
		c-0.2-0.4-1.1-0.5-0.7-1.2c0.4-0.7,1.1-0.1,1.5-0.2c0.9-0.7,1.4-1.9,2-2.8c-0.4-1.1,0.6-1.2,1.1-1.5c0.2-0.6,0.4-1.2,0-1.8
		c-0.4-0.5-1.2-0.8-0.7-1.4c0.6-0.7,0.9,0.4,1.4,0.5c1.3-0.6,1.4-2,2.1-3c0-0.1,0.1-0.4,0-0.5c-0.1-0.7,0.2-1.1,0.7-1.3
		c0.1-0.1,0.2-0.2,0.4-0.4c0.7-0.8,0.9-1.9,1.7-2.7c0.5-0.9,1.3-1.8,1.4-2.8c-0.7-1.2-0.1-1.8,1.1-1.9c0.7-0.4,0.8-1.1,1.2-1.8
		c0-0.1,0-0.2,0-0.4l0,0l0,0c0-0.1,0-0.2,0.1-0.4c6.1-10.5,12.2-21,18.3-31.7c0.6-0.9,0.9-2,1.5-3.1c-1.1-0.5-2.1-0.1-3.3-0.2
		c-0.2,0.4-0.6,0.6-0.7,0.9c-5.4,9.5-11,19-16.4,28.5c-0.9,1.7-2.4,3.2-2.6,5.2c-0.1,0-0.2,0-0.4,0c-1.1,0.6-1.5,1.5-1.9,2.6
		c0,0.2,0,0.4,0,0.6c0.4,1.1-0.6,1.3-1.2,1.8c-1.1,1.1-1.7,2.4-2.1,3.8c-0.1,0.8-0.8,1.2-1.4,1.7c0.9,0.9,0.7,1.5-0.5,1.9
		c-0.7,0.9-0.8,2.2-2,2.8c-0.5,0.5-0.7,0.9-0.8,1.5c-0.1,0.4-0.2,0.8-0.4,1.2c0.1,0.6,0.7,1.1,0.4,1.5c-0.5,0.7-1.1-0.2-1.5,0
		c-0.2,1.2-0.9,2.1-1.7,3.1c-0.2,0.7-0.9,1.3-1.2,2c-0.1,0.4-0.2,0.8-0.5,1.2c0.1,0.1,0.2,0.2,0.5,0.4c0.4,0.2,0.9,0.6,0.6,1.1
		c-0.4,0.6-0.8,0.1-1.2-0.1c-0.1-0.1-0.4-0.1-0.6-0.2c-0.9,0.8-0.8,2.5-2.4,2.8c0.1,0.8,0.9,1.9-0.8,1.9c-0.2,1.4-0.9,2.6-2,3.5
		c-0.6,0-0.6,0.4-0.4,0.7c0.1,0.8-0.7,1.1-1.2,1.7c0.2,0.4,0.8,0.6,0.6,1.2c-0.2,0.7-0.9,0.2-1.4,0.5c-0.6,1.3-0.7,3-2.4,3.5
		c-0.1,0.8-0.7,1.7,0,2.4c-0.6,0-0.9,0.4-1.2,0.8c-2.5,4.4-5,8.8-7.6,13c-2.2,3.9-4.6,7.8-7,11.8c0,2.1,0,4.1,0,6.6
		c0.5-0.7,0.8-1.2,1.2-1.7C-153.2,351.4-148,342.3-142.8,333.3z"/>
	<path fill="#F0F1F3" d="M-121,302.9L-121,302.9c0.4-0.6,0.6-1.2,0.9-1.9c-0.6-0.5-0.9,0-1.4,0.4c-0.6,0.9-1.3,1.9-1.9,2.8
		c-0.4,1.1-0.9,2-1.9,2.7c-0.6,0.5-0.9,1.1-0.6,1.8c-0.9,0.5-1.2,1.5-1.8,2.2c-0.4,0.7-0.7,1.4-0.8,2.2c-1.1,1.8-2.1,3.7-3.2,5.4
		c-0.6,0.6-1.4,0.9-1.2,2.1c-2.4,4.1-4.7,8.3-7.1,12.5c0,0.1,0,0.4,0,0.5l0,0c-0.5,0.2-0.7,0.6-0.9,0.9c-5.2,9-10.5,18-15.6,27
		c-1.4,2.5-3.8,4.8-3.2,8.2c0.1-0.1,0.4-0.2,0.4-0.5c5.3-9.2,10.8-18.4,16.1-27.8c1.4-2.5,3.2-4.7,4-7.6l0,0l0,0
		c0.1-0.1,0.2-0.2,0.4-0.5c0.9-0.2,1.1-1.2,1.5-1.8c0.7-0.8,1.1-1.8,1.7-2.8c0.5-1.1,1.2-1.9,2-2.8c0.4-0.7,0.5-1.4,0.8-2
		c2.2-3.9,4.4-7.7,6.7-11.5c0.7-0.8,1.1-1.8,1.4-2.7c0-0.2,0-0.5-0.1-0.8c0.7-0.5,1.2-1.1,1.4-1.9c0.2-1.1,0.6-2,1.5-2.5
		c0.8,0.2,1.5-0.1,1.8-0.8C-119.9,303.5-120.6,303.3-121,302.9z"/>
</g>
<g id="Layer_2">
</g>
<g id="Layer_1_1_">
</g>
<path fill="#698CC8" d="M108.6,166c6.8,3.7,13.2,2.2,19.2-1.9c2.8-1.9,4.9-2.3,7.7-0.3c1.5,1.1,3.5,1.6,5.2,2.4
	c0.7,0.3,1.1,0.7,1.3,1.6c1.8,7.5,3.6,14.8,5.5,22.3c2.1,8.7,4.2,17.5,6.3,26.1c1.1,4.8,2.4,9.5,3.6,14.2c0.6,2.3,1.1,4.6,1.7,6.9
	c-0.1,4.1-2.3,6.3-6.1,7.4c-11.1,3.4-22.1,6.9-33.3,10.4c-1-0.2-1.3-0.9-1.6-1.6c-0.4-1.2-1-2.5-1.1-3.8c-0.3-1.9-0.9-3.7-1.5-5.6
	c-7.7-23.3-14.2-47-21.8-70.2c-0.3-0.8-0.5-1.5-0.4-2.3c0-0.3,0.1-0.5,0.3-0.7c0.4-0.4,1-0.7,1.6-0.9c4-1.3,8.1-2.6,12.1-3.8
	C107.7,166,108.2,166.1,108.6,166z"/>
<path fill="#BBCEEA" d="M135.6,142.3c-5.3-1.4-9.6,1.1-13.8,3.7c-4.8,3-9.4,6.2-13.5,10c-0.3,0.3-0.7,0.8-1.3,0.8
	c-0.4,0.5-1,0.9-1.6,1c-4.3,1.4-8.5,2.7-12.8,4c-0.5,0.2-1,0.3-1.6,0.1c-1-0.6-1.2-1.7-1.5-2.7c-2.1-6.4-4.1-12.9-6.2-19.4
	c-0.8-2.5-1-2.6-3.6-1.8c-3,0.9-5.9,1.9-8.9,2.8c-4.4,1.6-8.9,2.9-13.5,4.3c-0.8,0.3-1.5,0.5-2.3,0c0.5-0.6,1.3-0.7,1.9-0.9
	c22.7-7.2,45.4-14.4,68.1-21.5c3.9-1.2,5.2-0.4,6.2,3.6C132.8,131.7,134.2,137,135.6,142.3z"/>
<path fill="#CF9C6D" d="M80.1,224.6c-6,0.9-8.5-2.8-9.4-7.7c-0.3-1.7,0.3-3.4,2.2-4.9c-3.6,0.3-6.4-0.6-8-3.5
	c-3-5.3-1.9-9.7,3.8-11.1c1.4-0.3,2.9-0.3,4.3-1c3.9-1.5,7.9-2.7,12.1-1.6c3,0.8,4.7,3,5.4,6c0.3,1,0.6,2,0.5,3
	c-0.1,3.1-1.3,5.7-5.6,5.9c-0.8,0-1.6,0.1-2.4,0.3c-0.8-0.1-1.6,0.2-2.3,0.3c0.6-0.2,1.3-0.3,2-0.3c0.8-0.1,1.6-0.3,2.3-0.3
	c1.5-0.2,3-0.1,4.5,0.4c6.6,2.2,7.2,10.1,2.3,13.5c2.4,0.9,4.6,2.1,5.6,4.6c0.8,1.8,0.7,3.6,0.1,5.4c-1,3.3-3.7,4.9-7.5,4.3
	c-1.6,0.2-3.1,0.3-4.7,0.6c-3.5,0.6-6.6-1.4-8-5c-1.4-3.7-0.6-6.4,2.3-8.2c0.7-0.7,1.7-0.6,2.5-1c0.5-0.1,1,0,1.2,0
	c-0.2,0.1-0.6-0.2-1-0.1C81.6,224.7,80.8,225,80.1,224.6z"/>
<path fill="#BBCEEA" d="M55.4,145.3c5.2-1.6,10.4-3.2,15.6-4.9c0.9,0.5,1.1,1.5,1.4,2.3c2.2,6.8,4.3,13.6,6.4,20.4
	c0.3,0.8,0.5,1.6,0.3,2.5c-0.3,0.5-0.7,0.8-1.2,1c-4.9,1.6-9.6,3.2-14.6,4.5c-0.4,0-0.8-0.1-1-0.5c-1.8-4.4-3.6-8.9-5.5-13.4
	c-1-2.4-2-4.9-3-7.4C53,147.4,53.3,146.5,55.4,145.3z"/>
<path fill="#698CC8" d="M89.9,238.1c0.4-0.1,0.9-0.3,1.3-0.3c3.7-0.5,5.5-2.1,6-5.5c0.5-3.3-1-5.9-4.1-7.4c-0.9-0.3-1.7-0.7-2.8-1
	c3-1.6,4.3-4,3.9-7.2c-0.3-3.4-2.9-5.7-6.8-6.4c-0.9-0.2-1.8-0.2-2.8-0.2c-0.2-0.3-0.2-0.5,0.3-0.5c4.9-1.4,5.6-2.4,5.1-8.7
	c0.1-0.2,0.2-0.3,0.3-0.1c5.8,16.6,10.9,33.3,16.3,50.1c0.6,1.9,1.6,3.6,2.2,5.5c0.2,0.7,0.5,1.4,0.3,2.1c-1.9,0.6-3.7,1.6-5.9,1.6
	c-2.9,0.1-4.9-1.3-6-3.7c-2.1-4.6-3.9-9.4-5.8-14.1C91,240.9,90.5,239.5,89.9,238.1z"/>
<path fill="#CF9C6D" d="M71.9,194.3c-2.3-0.1-4.6-0.4-6.7-1.6c-2.6-1.5-4.3-3.6-4.2-6.7c0.1-3.2,1.5-5.7,4.6-7
	c1.1-1.2,2.6-0.6,4-0.6c1.7,0.3,3.6,0.2,5.3,0.3c5.8,0.6,9.6,7.4,7.1,12.7c-1.1,2.4-3.2,3.9-6,3.7C74.8,195,73.2,195.3,71.9,194.3z"
	/>
<path fill="#698CC8" d="M69.7,178.8c-1.3,0.3-2.7-0.3-4,0.3c-1.1-2.8-2.3-5.6-3.4-8.3c0.1,0.1,0.3,0.2,0.3,0.3
	c2.1-0.2,3.9-1,5.8-1.6c3.1-1,6.2-1.9,9.2-3c1.1-0.3,1.7-0.1,2.3,0.9c0.8,1.3,1.2,2.8,1.7,4.2c0.7,2,0.9,2.1,2.9,1.5
	c2-0.6,4-1.3,6-1.9c0.8-0.3,1.6-0.6,2.5-0.4c0.3,0.1,0.4,0.3,0.3,0.5l0,0c-3.8,1.2-7.6,2.4-11.4,3.6c-0.3,0.4-0.6,0.8-1,0.9
	C77.4,176.9,73.8,178.5,69.7,178.8z"/>
<path fill="#698CC8" d="M69.7,178.8c4.2-1.3,8.3-2.7,12.5-4c2.8,8.7,5.6,17.4,8.2,26c-0.1,0-0.2,0.1-0.3,0.1
	c-1-4.4-5.7-6.9-10.6-5.8c-2.3,0.5-4.5,0.9-6.8,1.3c-0.3-0.7-0.6-1.4-1-2.1c1,0.1,2.1,0.1,3.1,0.2c5,0.3,8.1-3.1,7.1-8.2
	c-0.9-4.7-3.4-6.9-8.2-7.3C72.6,179,71.1,179.1,69.7,178.8z"/>
<path fill="#A55421" d="M82.7,224.5c-1,0.3-2,0.6-3,1c0.2-0.3,0.3-0.6,0.5-0.9c0.8-0.1,1.6-0.3,2.4-0.3
	C82.7,224.3,82.7,224.4,82.7,224.5C82.7,224.5,82.7,224.5,82.7,224.5z"/>
<path fill="#698CC8" d="M93.6,171.1c0-0.1-0.1-0.3-0.1-0.3c-1.9-2.2-2.3-4.8-2.5-7.5c-0.1-0.6,0.3-1.1,1-1.3c5-1.5,10-3.4,15.1-4.6
	c-0.8,1.4-2.1,2.5-2.8,4c-0.4,1-0.4,1.6,0.5,2.1c1.3,0.8,2.6,1.7,3.9,2.6c-0.4,0.7-1.2,0.7-1.9,1C102.4,168.4,97.9,169.7,93.6,171.1
	z"/>
<path fill="#698CC8" d="M107,157.3c-4.5,1.5-9,3-13.6,4.3c-2.1,0.6-2.2,1.7-1.7,3.3c0.5,2,1.2,3.9,1.8,5.9c-3.2,1-6.4,2-9.6,3
	c-1.4,0.5-2,0.1-2.3-1.3c-0.5-1.6-1-3.4-1.8-4.9c-0.6-1.1-1.1-1.3-2.3-1c-4.2,1.4-8.4,2.7-12.6,4c-0.7,0.2-1.3,0.7-2.1,0.3
	c5.4-1.7,10.9-3.5,16.2-5.1c0.1-0.2,0.2-0.3,0.3-0.4c3.6-1.6,7.3-2.9,11.2-3.6c0.2,0,0.3,0.1,0.5,0.2c5.3-1.6,10.7-3.4,16-5
	C107.1,157.1,107.1,157.2,107,157.3z"/>
<path fill="#6780AC" d="M85.1,209.6c-0.1,0.2-0.2,0.3-0.3,0.5c-0.8,0.1-1.6,0.2-2.3,0.3c-0.1-0.1-0.3-0.3-0.1-0.4
	c0.1-0.1,0.2-0.1,0.3,0C83.4,209.8,84.2,209.3,85.1,209.6z"/>
<path fill="#625B57" d="M82.6,209.9c-0.1,0.2-0.2,0.3-0.2,0.4c-0.7,0.1-1.4,0.1-2.1,0.2C81,210.1,81.7,209.6,82.6,209.9z"/>
<path fill="#8A4815" d="M82.7,224.5c0-0.1-0.1-0.3-0.2-0.3c0.4,0,0.9,0.1,1.4,0.1C83.5,224.9,83.1,224.9,82.7,224.5z"/>
<polyline fill="#698CC8" points="108.4,156.1 103.6,165.5 63.2,172.8 56.9,157.3 "/>
<path fill="#CF9C6D" d="M135.6,142.3c3.6,0.8,7,1.6,10.6,2.3c7.3,1.5,14.2,3.8,21.1,6.5c9.2,3.6,17.9,8.2,25.6,14.4
	c5.3,4.3,9.9,9.1,12.9,15.3c1,2.1,2.1,4.2,2.6,6.4c0.3,1.2,0.9,1.7,1.8,2.3c8.5,4.3,21.3-7.9,28.5-10.5c-4.6,4,8.9,29,4.8,33.6
	c-7.3,8.2-8.7,19.8-10.7,17.9c-2.4-2.3-42.6-0.1-43.6,0.4c-5.8,3-12.1,4.6-18.5,5.6c-3.9,0.6-7.8,1-11.8,1c-1.2-1-1.3-2.4-1.6-3.7
	c-1.7-7.3-3.6-14.6-5.4-22c-1.6-6.9-3.4-13.7-5-20.6c-1.8-7.6-3.6-15.2-5.6-22.7c-0.3-1-0.9-1.6-1.7-2c-2.3-0.9-4.3-2-6.4-3.1
	c-1.2-0.6-2.3-0.5-3.4,0.2c-1.9,1.2-3.8,2.3-5.9,3.3c-5.1,2.3-10.2,2.6-15.2-0.3c-1.5-0.8-3-1.6-4.3-2.7c-1-0.8-1.2-1.7-0.7-2.9
	c0.7-1.5,1.9-2.6,2.9-4c0.1-0.2,0.3-0.3,0.3-0.5c5.9-5.4,12.4-10,19.6-13.6C129.5,141.3,132.6,141,135.6,142.3z"/>
<path fill="#DDD99E" d="M493.2,84.2c59,0.7,61.4,54.8,53.7,79.8c-5.6,1.8-11.5,2.9-17.2,4.3c-16.8,4-285.7,61.7-302.6,65.7
	c-1.8,0.4-3,0.2-4-1.5c-0.6-1.1-1.4-2.1-2.2-3.1c-6.8-9.8-11-20.7-13.3-32.4c-1-5.3-1.6-10.6-1.9-15.9c-0.1-3.3-0.1-3.4,3.2-4.3
	c18.8-5.5,37.2-11.5,55.7-17.5c17.5-5.6,208.6-69.4,226.2-74.9c0.6-0.2,1.1-0.4,1.7-0.3C492.9,84,493.1,84,493.2,84.2z"/>
<path fill="#CEDEEA" d="M76.3,157.1c-1.7-5.6-3.6-11-5.3-16.6c3.5-1.1,6.9-2.2,10.4-3.4c1.3-0.4,1.8-0.2,2.3,1.2
	c1.9,6.3,3.8,12.1,5.8,18.3L76.3,157.1z"/>
<path fill="#86A3D2" d="M89.5,157.1c3,9.3,10.2,32.6,12.9,42c4.6,16.1,9.9,32,14.8,48.1c0.6,2,0.8,4.2,1.6,6.1
	c0.3,0.7,0.4,1.4,1,1.9c-3.6,1.1-7,2.3-10.6,3.4c-1.3-3-2.5-6.1-3.6-9.2c-3.3-10.2-6.6-20.5-9.7-30.7c-1.8-5.9-4.4-11.5-5.9-17.6
	c-2.5-7.6-11.3-36.2-13.7-43.9C76,156,88.8,156.7,89.5,157.1z"/>
</svg>
