<?xml version="1.0" encoding="utf-8"?>
<!-- Generator: Adobe Illustrator 19.0.0, SVG Export Plug-In . SVG Version: 6.00 Build 0)  -->
<svg version="1.1" id="Layer_1" xmlns="http://www.w3.org/2000/svg" xmlns:xlink="http://www.w3.org/1999/xlink" x="0px" y="0px"
	 viewBox="85 -75 480 460" enable-background="new 85 -75 480 460" xml:space="preserve">
<image overflow="visible" enable-background="new    " width="121" height="358" xlink:href="C:\Users\bheku\Downloads\male staff.png"  transform="matrix(1 0 0 1 334 -206.6809)">
</image>
<image overflow="visible" enable-background="new    " width="103" height="347" xlink:href="C:\Users\bheku\Downloads\female staff.png"  transform="matrix(1 0 0 1 659 -198.9)">
</image>
<g>
	<path fill="none" d="M611.2-168.2c-6.7,3.3-13.6,4.5-21,3.3c-7.2-1.2-13.4-4.4-18.5-9.5c-5.4-5.4-8.7-12-9.6-19.7
		c-1.1-9.4,1.2-17.9,7-25.3c4.3-5.5,10-9.5,16.7-11.4c9.2-2.7,18.1-1.8,26.5,2.9c0.4,0.2,0.8,0.5,1.2,0.7c3.6,2.3,6.7,5.1,9.3,8.5
		c1.1,1.4,2,2.9,2.8,4.4l0,0c1.9,3.6,3.2,7.5,3.6,11.5c0.2,1.7,0.5,3.4,0.3,5.2c-0.2,3.4-0.7,6.8-1.9,10.1c-1.1,3.1-2.6,6.1-4.5,8.8
		C620.1-174.1,616-170.7,611.2-168.2z"/>
	<path fill="#182F4C" d="M599-207.3c1.8-0.3,3.3-0.5,4.8-0.7c1.4-0.2,2.7-0.4,4.1-0.7c0.5-0.1,1-0.1,1.4,0.4c0.3,0.5,0.1,1-0.2,1.4
		c-6.4,9.1-12.9,18.2-19.3,27.3c-0.4,0.5-0.7,1-1.1,1.5c-0.4,0.5-0.8,1-1.5,0.6c-0.7-0.3-0.6-1-0.4-1.6c0.6-2.2,1.3-4.5,1.9-6.7
		c1.1-3.8,2.2-7.7,3.3-11.5c0.2-0.6,0.1-0.8-0.6-0.7c-1.8,0.4-3.6,0.7-5.4,1c-1.2,0.2-1.6-0.4-1.3-1.5c2-6.4,4.1-12.8,6.1-19.2
		c0.3-0.8,0.8-1.2,1.6-1.2c3.7-0.3,7.4-0.6,11-1c0.3,0,0.6-0.1,0.9,0c0.9,0.1,1.2,0.8,0.7,1.7c-1.1,2-2.3,4-3.4,6
		C600.9-210.5,600-209,599-207.3z"/>
</g>
<g>
	<path fill="none" d="M501.9-232.3c18.8,0,33.9,15.2,33.9,34c0,18.7-15.3,33.9-34.1,33.8c-18.7-0.1-33.8-15.1-33.7-33.8
		C468-217.6,483.5-232.4,501.9-232.3z"/>
	<path fill="#B3C3EB" d="M497.5-206.9c0-5.1,0-8.5,0-12c0-2.4,1.8-4.1,4.2-4.2c2-0.1,4.2,1.8,4.3,4.2c0.2,10.5,0.1,20.9,0.1,31.4
		c0,0.7,0.2,1.2,0.7,1.7c2.9,2.4,3.3,7,1.3,10c-1.7,2.6-5.4,3.9-8.4,3.2c-4.2-1.1-6.6-5.3-5.6-9.4c0.4-1.6,1.2-2.9,2.5-3.9
		c0.4-0.3,0.6-0.7,0.6-1.2c0-1,0-2,0-3C497.3-196.3,497.6-202.4,497.5-206.9z"/>
	<path fill="#FE5A00" d="M499.1-191.3c0-1.9,0-3.8,0-5.7c0-0.7,0.3-1,1-0.9c1.2,0,2.4,0,3.6,0c0.8,0,1.1,0.3,1.1,1.1
		c0,3.5,0,7,0,10.5c0,0.8,0.2,1.4,0.8,1.9c1.8,1.6,2.4,4,1.5,6.1c-0.8,2-3,3.5-5.1,3.5s-4.2-1.4-5-3.3c-0.9-2.2-0.6-4.2,1.1-5.9
		c0.8-0.8,1.1-1.6,1.1-2.8C499-188.2,499.1-189.7,499.1-191.3L499.1-191.3z"/>
	<path fill="#F4F8FD" d="M500.4-204.4c-0.4-0.2-1.3,0.4-1.3-0.6c0-0.9,0.8-0.5,1.3-0.5s1.3-0.4,1.3,0.5
		C501.8-204,500.9-204.6,500.4-204.4z"/>
	<path fill="#F1F6FC" d="M500.4-201.5c-0.4-0.2-1.2,0.3-1.3-0.5c0-1,0.8-0.5,1.3-0.5s1.3-0.3,1.3,0.5
		C501.8-201.2,500.9-201.7,500.4-201.5z"/>
	<path fill="#F0F7FC" d="M500.3-215.6c-0.4-0.1-1.2,0.3-1.2-0.5c0-0.9,0.8-0.4,1.2-0.5c0.3-0.1,0.5,0,0.8,0s0.6,0.1,0.6,0.5
		s-0.3,0.5-0.6,0.6C500.9-215.6,500.7-215.6,500.3-215.6z"/>
	<path fill="#F3F8FD" d="M500.4-211.1c0.5,0.2,1.4-0.3,1.4,0.6c0,0.9-0.9,0.5-1.3,0.5c-0.5,0-1.2,0.3-1.3-0.5
		C499.1-211.4,500-210.9,500.4-211.1z"/>
	<path fill="#F2F7FC" d="M500.4-199.9c0.5,0.2,1.3-0.3,1.4,0.5c0,0.9-0.8,0.5-1.3,0.5s-1.3,0.3-1.3-0.6
		C499.2-200.3,500-199.6,500.4-199.9z"/>
	<path fill="#F5FBFE" d="M500.4-213.8c0.5,0.2,1.3-0.3,1.3,0.5s-0.8,0.5-1.3,0.5s-1.3,0.4-1.3-0.4
		C499.1-214.2,500.1-213.5,500.4-213.8z"/>
	<path fill="#F6FAFD" d="M500.6-208.2c0.3,0.2,1.2-0.4,1.2,0.4c0,0.8-0.8,0.5-1.3,0.5c-0.4,0-1.3,0.4-1.3-0.5c0-0.7,0.8-0.3,1.2-0.4
		C500.4-208.2,500.5-208.2,500.6-208.2z"/>
</g>
<g>
	<path fill="none" d="M530.1-154.9c10.1-5.7,20.5-6.2,31.2-1.6c3.6,1.6,6.9,3.8,9.7,6.6c2.3,2.2,4.2,4.8,5.8,7.6
		c1.7,3,2.9,6.2,3.6,9.6c0.8,3.7,0.8,7.4,0.5,11.1c-0.2,2.1-0.7,4.2-1.4,6.3c-0.9,3.1-2.4,6-4.2,8.7c-2.4,3.6-5.4,6.5-8.9,9
		c-0.9,0.7-1.9,1.2-2.9,1.8l0,0c-4,2.2-8.2,3.5-12.7,4c-6.4,0.7-12.5-0.3-18.3-3.1c-5.5-2.6-9.9-6.5-13.3-11.4
		c-2.6-3.7-4.2-7.8-5.2-12.1c-0.8-3.4-0.9-6.9-0.6-10.4c0.9-8,4.2-15,9.9-20.7C525.5-151.8,527.7-153.5,530.1-154.9z"/>
	<path fill="#192F4C" d="M559.5-125.6c0,2.8,0,5.6,0,8.4c0,1,0.1,2,0.5,2.9c0.5,1.2,1.3,1.6,2.6,1.6c1.2,0,1.8-0.6,2.2-1.8
		c0.4-1.1,0.3-2.3,0.3-3.5c0-0.7,0.2-0.9,0.9-0.9c2.6,0,2.6,0,2.4,2.5c0,0.7-0.1,1.4-0.3,2.1c-1,4.3-6.4,6.3-9.9,3.5
		c-1.6-1.2-2-3-2.1-4.9c-0.1-1.2-0.1-2.3-0.1-3.5c0-4.5,0-9.1,0-13.6c0-1.4,0-2.8,0.4-4.1c1-3.2,3.8-4.8,7.2-4.1
		c2.8,0.5,4.2,2.1,4.6,5.1c0.1,1,0.1,2,0.1,3c0,0.5-0.1,0.7-0.7,0.7c-2.6,0.1-2.6,0.1-2.7-2.4c0-0.5-0.1-1-0.2-1.5
		c-0.4-1.4-1.3-2-2.6-2c-1.3,0-2.2,0.8-2.5,2.1c-0.2,0.9-0.3,1.9-0.3,2.9C559.4-130.6,559.4-128.1,559.5-125.6
		C559.4-125.6,559.4-125.6,559.5-125.6z"/>
	<path fill="#192F4C" d="M527.3-125.4c0-4.8,0-9.6,0-14.4c0-0.7,0.1-0.9,0.9-0.9c3,0,5.9,0,8.9,0c0.8,0,1,0.3,0.9,1
		c0,2.1,0,2.1-2.1,2.1c-1.5,0-3.1,0-4.6,0c-0.6,0-0.8,0.2-0.8,0.8c0,2.8,0,5.6,0,8.4c0,0.6,0.2,0.8,0.8,0.8c1.8,0,3.6,0,5.4,0
		c0.6,0,0.8,0.2,0.8,0.8c0,2.2,0,2.2-2.3,2.2c-1.1,0-2.3,0-3.4,0c-1.5,0-1.3-0.1-1.3,1.3c0,4.1,0,8.2,0,12.3c0,0.8-0.2,1-1,1
		c-2.3,0-2.3,0-2.3-2.4C527.3-116.7,527.3-121,527.3-125.4z"/>
	<path fill="#192F4B" d="M552.6-120.5c-0.1-2.1-0.4-4.2-2.7-5.3c1.5-0.8,2.3-2,2.6-3.5c0.5-2,0.5-4.1,0.2-6.1
		c-0.5-3.6-2.2-5.1-5.9-5.3c-1.7-0.1-3.4,0-5.1-0.1c-0.9,0-1.1,0.2-1.1,1.1c0,9,0,18.1,0,27.1c0,2.5,0,2.5,2.5,2.5
		c0.7,0,0.9-0.2,0.9-0.9c0-3.8,0-7.5,0-11.3c0-2.2,0-2.2,2.3-2.2c1.9,0.1,2.6,0.7,3,2.6c0.1,0.5,0.1,1.1,0.1,1.6
		c0,2.6,0,5.2,0.1,7.7c0.1,2.4,0.1,2.4,2.5,2.4c0.2,0,0.3,0,0.4,0c0.4,0,0.5-0.2,0.5-0.5C552.5-113.9,552.8-117.2,552.6-120.5z
		 M549.3-129.5c-0.4,1.5-1.3,2.2-2.9,2.4c-2.4,0.2-2.4,0.2-2.4-2.2c0-2.6,0-5.1,0-7.7c0-0.8,0.3-0.9,1-0.9c3.8-0.2,4.6,1.3,4.7,4.6
		c0,0.2,0,0.4,0,0.7C549.6-131.6,549.6-130.5,549.3-129.5z"/>
</g>
<g>
	<path fill="#192F4C" d="M584.5-29.5c0-20.6-16.7-37.3-37.3-37.3h-0.5v3.1h0.5c18.8,0,34.2,15.3,34.2,34.2
		c0,12.6-7.2,24.4-18.4,30.3L562.5-2l-17,8.6l18.9,1.2l-0.8-3.7C576.3-2.2,584.5-15.4,584.5-29.5z"/>
	
		<circle fill="#E8F0F9" stroke="#192F4C" stroke-width="3" stroke-linecap="round" stroke-miterlimit="10" cx="547.5" cy="-29.9" r="24.9"/>
	
		<line fill="none" stroke="#192F4C" stroke-width="1.5" stroke-linecap="round" stroke-miterlimit="10" x1="534.6" y1="-8.5" x2="537.5" y2="-13.3"/>
	
		<line fill="none" stroke="#192F4C" stroke-width="1.5" stroke-linecap="round" stroke-miterlimit="10" x1="568.9" y1="-17.1" x2="564.1" y2="-19.9"/>
	
		<line fill="none" stroke="#192F4C" stroke-width="1.5" stroke-linecap="round" stroke-miterlimit="10" x1="560.3" y1="-51.3" x2="557.5" y2="-46.5"/>
	
		<line fill="none" stroke="#192F4C" stroke-width="1.5" stroke-linecap="round" stroke-miterlimit="10" x1="526.1" y1="-42.8" x2="530.9" y2="-39.9"/>
	
		<line fill="none" stroke="#192F4C" stroke-width="1.5" stroke-linecap="round" stroke-miterlimit="10" x1="525.9" y1="-17.4" x2="530.7" y2="-20.2"/>
	
		<line fill="none" stroke="#192F4C" stroke-width="1.5" stroke-linecap="round" stroke-miterlimit="10" x1="560" y1="-8.3" x2="557.2" y2="-13.1"/>
	
		<line fill="none" stroke="#192F4C" stroke-width="1.5" stroke-linecap="round" stroke-miterlimit="10" x1="569.1" y1="-42.4" x2="564.3" y2="-39.6"/>
	
		<line fill="none" stroke="#192F4C" stroke-width="1.5" stroke-linecap="round" stroke-miterlimit="10" x1="535" y1="-51.5" x2="537.8" y2="-46.7"/>
	
		<line fill="none" stroke="#192F4C" stroke-width="1.5" stroke-linecap="round" stroke-miterlimit="10" x1="522.5" y1="-29.9" x2="528.1" y2="-29.9"/>
	
		<line fill="none" stroke="#192F4C" stroke-width="1.5" stroke-linecap="round" stroke-miterlimit="10" x1="547.5" y1="-5" x2="547.5" y2="-10.5"/>
	
		<line fill="none" stroke="#192F4C" stroke-width="1.5" stroke-linecap="round" stroke-miterlimit="10" x1="572.4" y1="-29.9" x2="566.9" y2="-29.9"/>
	<circle fill="#192F4C" cx="547.5" cy="-29.9" r="2.7"/>
	
		<line fill="none" stroke="#192F4C" stroke-width="3" stroke-linecap="round" stroke-miterlimit="10" x1="547.5" y1="-29.9" x2="547.5" y2="-42.9"/>
	
		<line fill="none" stroke="#192F4C" stroke-width="3" stroke-linecap="round" stroke-miterlimit="10" x1="547.5" y1="-29.9" x2="555.5" y2="-21.9"/>
	
		<line fill="none" stroke="#192F4C" stroke-width="1.5" stroke-linecap="round" stroke-miterlimit="10" x1="547.5" y1="-54.9" x2="547.5" y2="-49.3"/>
</g>
</svg>
