<?xml version="1.0" encoding="utf-8"?>
<!-- Generator: Adobe Illustrator 19.0.0, SVG Export Plug-In . SVG Version: 6.00 Build 0)  -->
<svg version="1.1" id="Layer_1" xmlns="http://www.w3.org/2000/svg" xmlns:xlink="http://www.w3.org/1999/xlink" x="0px" y="0px"
	 viewBox="-238 6 482.7 550" enable-background="new -238 6 482.7 550" xml:space="preserve">
<g id="Layer_2">
	<rect x="-238" y="6" fill="#3C80C9" width="482.7" height="550"/>
</g>
<g id="Layer_3">
	<g>
		<path fill="#182F4B" d="M118.1,141h-229.6c-21,0-38,17-38,38v23h305.6v-23C156.1,158.1,139.1,141,118.1,141z"/>
		<rect x="-149.5" y="208.3" fill="#182F4B" width="305.6" height="212.7"/>
		<g>
			<g>
				<path fill="#EDF2F9" d="M-119.1,185.7v-26.4h7.9c2.3,0,4.1,0.7,5.5,2c1.4,1.4,2.1,3.3,2.1,5.8s-0.7,4.4-2.1,5.8
					c-1.4,1.3-3.4,2-5.9,2h-2.8v10.7L-119.1,185.7L-119.1,185.7z M-114.4,163.2v8.1h2.3c1.3,0,2.3-0.3,2.9-1s0.9-1.7,0.9-3.1
					c0-1.3-0.3-2.3-0.9-3c-0.6-0.7-1.5-1-2.6-1H-114.4z"/>
				<path fill="#EDF2F9" d="M-102.4,185.7v-26.4h4.7v22.4h9l-0.5,4H-102.4z"/>
				<path fill="#EDF2F9" d="M-76.9,179.1H-83l-1.3,6.6H-89l6.1-26.4h6.1l6.2,26.4h-4.9L-76.9,179.1z M-82.2,175h4.4
					c-0.3-1.3-0.6-2.8-0.9-4.4c-0.3-1.7-0.6-3-0.8-4.1s-0.4-2-0.5-2.7l0,0C-80.1,164.8-80.9,168.5-82.2,175z"/>
				<path fill="#EDF2F9" d="M-65.5,185.7h-4.2v-26.4h5.3c4.3,11.6,6.6,17.8,6.8,18.7l0,0c-0.2-2.5-0.2-6.3-0.2-11.4v-7.3h4.2v26.4
					h-5.1c-4.3-11.8-6.6-18.3-7-19.6l0,0c0.1,2.2,0.2,6.1,0.2,11.9V185.7z"/>
				<path fill="#EDF2F9" d="M-46.7,185.7H-51v-26.4h5.3c4.3,11.6,6.6,17.8,6.8,18.7l0,0c-0.2-2.5-0.2-6.3-0.2-11.4v-7.3h4.2v26.4
					H-40c-4.3-11.8-6.6-18.3-7-19.6l0,0c0.1,2.2,0.2,6.1,0.2,11.9v7.7H-46.7z"/>
				<path fill="#EDF2F9" d="M-32.2,159.3h4.7v26.4h-4.7V159.3z"/>
				<path fill="#EDF2F9" d="M-20.7,185.7h-4.2v-26.4h5.3c4.3,11.6,6.6,17.8,6.8,18.7l0,0c-0.2-2.5-0.2-6.3-0.2-11.4v-7.3h4.2v26.4
					h-5.1c-4.3-11.8-6.6-18.3-7-19.6l0,0c0.1,2.2,0.2,6.1,0.2,11.9V185.7z"/>
				<path fill="#EDF2F9" d="M9.7,170.9v14.8H6.1c-0.1-0.9-0.2-1.7-0.2-2.3c-1,1.8-2.8,2.7-5.2,2.7c-2.7,0-4.6-1.1-5.8-3.4
					c-1.2-2.3-1.8-5.6-1.8-10.1c0-9.2,3-13.8,8.9-13.8c1.4,0,2.5,0.2,3.5,0.7s1.7,1,2.2,1.5c0.5,0.6,0.9,1.3,1.2,2.1
					s0.5,1.5,0.5,1.9c0.1,0.4,0.1,0.9,0.1,1.4H5c-0.2-2.5-1.2-3.7-3.1-3.7c-1.4,0-2.4,0.9-3,2.6c-0.6,1.7-0.9,4.1-0.9,7.2
					c0,3.3,0.3,5.7,0.8,7.2s1.5,2.3,2.9,2.3c1.2,0,2.1-0.5,2.6-1.4s0.7-2.4,0.7-4.4v-1.5H1.5v-4h8.2V170.9z"/>
			</g>
		</g>
		<g>
			<rect x="-119.1" y="227.2" fill="#EDF2F9" width="61.2" height="34.6"/>
			<rect x="-57.9" y="227.2" fill="#819FCF" width="61.2" height="34.6"/>
			<rect x="3.3" y="227.2" fill="#EDF2F9" width="61.2" height="34.6"/>
			<rect x="64.6" y="227.2" fill="#F9CA45" width="61.2" height="34.6"/>
			<rect x="-119.1" y="273" fill="#819FCF" width="61.2" height="34.6"/>
			<rect x="-57.9" y="273" fill="#EDF2F9" width="61.2" height="34.6"/>
			<rect x="3.3" y="273" fill="#F9CA45" width="61.2" height="34.6"/>
			<rect x="64.6" y="273" fill="#819FCF" width="61.2" height="34.6"/>
			<rect x="-119.1" y="318.8" fill="#EDF2F9" width="61.2" height="34.6"/>
			<rect x="-57.9" y="318.8" fill="#F9CA45" width="61.2" height="34.6"/>
			<rect x="3.3" y="318.8" fill="#819FCF" width="61.2" height="34.6"/>
			<rect x="64.6" y="318.8" fill="#F9CA45" width="61.2" height="34.6"/>
			<rect x="-119.1" y="364.5" fill="#F9CA45" width="61.2" height="34.6"/>
			<rect x="-57.9" y="364.5" fill="#819FCF" width="61.2" height="34.6"/>
			<rect x="3.3" y="364.5" fill="#F9CA45" width="61.2" height="34.6"/>
			<rect x="64.6" y="364.5" fill="#EDF2F9" width="61.2" height="34.6"/>
		</g>
	</g>
</g>
</svg>
