<?xml version="1.0" encoding="utf-8"?>
<!-- Generator: Adobe Illustrator 19.0.0, SVG Export Plug-In . SVG Version: 6.00 Build 0)  -->
<svg version="1.1" id="Layer_1" xmlns="http://www.w3.org/2000/svg" xmlns:xlink="http://www.w3.org/1999/xlink" x="0px" y="0px"
	 viewBox="480 -260 1920 1080" enable-background="new 480 -260 1920 1080" xml:space="preserve">
<symbol  id="Pencil" viewBox="-12.5 -68.7 25 137.3">
	<path id="XMLID_5_" fill="#F27F94" d="M-5,57.2l-4.6-0.6c-0.9-0.1-1.6,0.5-1.8,1.3l-1.1,8.3c-0.1,0.9,0.5,1.6,1.3,1.8l4.6,0.6
		c0.9,0.1,1.6-0.5,1.8-1.3l1.1-8.3C-3.5,58.1-4.1,57.4-5,57.2z"/>
	<polygon id="XMLID_4_" fill="#FDDCAC" points="10.3,-67.6 9.3,-67.7 4.7,-59.4 4.5,-57.9 12.3,-56.8 12.5,-58.4 	"/>
	<path id="XMLID_3_" fill="#F9A734" d="M12.3-56.6l-7.7-1l-15.4,112c-0.1,0.9,0.5,1.6,1.3,1.8l4.6,0.6c0.9,0.1,1.6-0.5,1.8-1.3
		L12.3-56.6z"/>
	<polygon id="XMLID_2_" fill="#2F2F2F" points="10.1,-68.7 9.8,-68.7 8.6,-66.5 8.5,-66.1 10.6,-65.8 10.6,-66.2 	"/>
</symbol>
<g id="Layer_2">
	<rect id="XMLID_1_" x="480" y="-260" fill="#DBDFE4" width="1920" height="1080"/>
</g>
<g id="Layer_1_1_">
	<path id="XMLID_377_" fill="#4D4D4D" d="M1935.3,136l32.6-30.2c1.4-1.5,0.8-4.2-1.2-6l-12.1-10.9c-2-1.8-4.8-2-6.1-0.5L1922,124
		c-1.4,1.5-0.8,4.2,1.2,6l6,5.4C1931.2,137.3,1933.9,137.5,1935.3,136z"/>
	<path id="XMLID_375_" fill="#404040" d="M1968.1,131.4l17.1-19.1c1.5-1.6,1.3-4.2-0.3-5.6l-39.1-35.1c-1.6-1.5-4.2-1.3-5.6,0.3
		L1923.1,91c-1.5,1.6-1.3,4.2,0.3,5.6l39.1,35.1C1964.1,133.1,1966.6,133,1968.1,131.4z"/>
	<circle id="XMLID_378_" fill="#404040" cx="1923.8" cy="136.4" r="16.2"/>
	
		<use xlink:href="#Pencil"  width="25" height="137.3" id="XMLID_34_" x="-12.5" y="-68.7" transform="matrix(0.9637 0.6066 0.6066 -0.9637 1217.1499 415.903)" overflow="visible"/>
	
		<use xlink:href="#Pencil"  width="25" height="137.3" id="XMLID_601_" x="-12.5" y="-68.7" transform="matrix(-1.0637 -0.4063 -0.4063 1.0637 1171.7047 450.494)" overflow="visible"/>
	<g id="XMLID_469_">
		<g id="XMLID_401_" transform="matrix(6.12323e-17,1,-1,6.12323e-17,1569.79,-228.47)">
			<g id="XMLID_402_" transform="matrix(1,0,0,1,-56,-5.08887)">
				<path id="XMLID_403_" fill="#BCC9D8" d="M170.9-296.4C37.3-313-56.4-444.1-39.8-577.7s138.4-228.5,272-211.8
					s228.5,138.4,211.8,272C427.5-383.9,304.5-279.8,170.9-296.4z"/>
			</g>
		</g>
		<g id="XMLID_30_" transform="matrix(6.12323e-17,1,-1,6.12323e-17,1569.79,-228.47)">
			<g id="XMLID_32_" transform="matrix(1,0,0,1,-56,-5.08887)">
				<path id="XMLID_80_" fill="#698CC8" d="M171.1-298.7C38.6-315.2-54.3-445.1-37.8-577.6S99.5-804.1,232-787.6
					s226.5,137.3,210,269.8S303.6-282.2,171.1-298.7z"/>
			</g>
		</g>
		<g id="XMLID_82_" transform="matrix(6.12323e-17,1,-1,6.12323e-17,1569.79,-228.47)">
			<g id="XMLID_83_" transform="matrix(1,0,0,1,-56,-5.08887)">
				<path id="XMLID_86_" fill="#6285B7" d="M174.4-325.3C56.3-340-26.5-455.8-11.8-573.9s122.3-201.9,240.4-187.2
					c118.1,14.7,201.9,122.3,187.2,240.4S292.5-310.6,174.4-325.3z"/>
			</g>
		</g>
		<g id="XMLID_87_" transform="matrix(6.12323e-17,1,-1,6.12323e-17,1569.79,-228.47)">
			<g id="XMLID_108_" transform="matrix(1,0,0,1,-56,-5.08887)">
				<path id="XMLID_109_" fill="#587CA0" d="M176.2-340.4C66.2-354.1-10.9-461.9,2.8-571.9s113.9-188,223.9-174.3
					c110,13.7,188,113.9,174.3,223.9C387.4-412.4,286.2-326.7,176.2-340.4z"/>
			</g>
		</g>
		<g id="XMLID_84_" transform="matrix(6.12323e-17,1,-1,6.12323e-17,1569.79,-228.47)">
			<g id="XMLID_85_" transform="matrix(1,0,0,1,-56,-5.08887)">
				<path id="XMLID_400_" fill="#4F6F8C" d="M178.3-357.1C77.3-369.7,6.4-468.7,19-569.7s104.6-172.7,205.6-160.1
					c101,12.6,172.7,104.6,160.1,205.6S279.3-344.5,178.3-357.1z"/>
			</g>
		</g>
		<polygon id="XMLID_368_" opacity="0.2" fill="#698CC8" enable-background="new    " points="2119.1,-84.6 2342.7,-9.5 
			2356.7,-105 2312.7,-211.2 2264.7,-261.9 2200.4,-301.7 2107.8,-309.7 2025,-289.1 1940.3,-231.4 1885.2,-117.1 1886.6,-55.4 		
			"/>
		<polygon id="XMLID_342_" opacity="0.6" fill="#698CC8" enable-background="new    " points="2126.6,-90.8 2197.8,125.4 
			2136.5,136.6 2111.3,-88 		"/>
		<polygon id="XMLID_178_" opacity="0.6" fill="#698CC8" enable-background="new    " points="2122.9,-83.7 1962.1,65 1925,38.7 
			1912.7,-6.8 2115.4,-96.6 		"/>
		<g id="XMLID_232_">
			<g id="XMLID_502_">
				<g id="XMLID_493_">
					<path id="XMLID_501_" fill="#404040" d="M2062.6-65.9l20.8-65.1c2.5-7.9,11-12.2,18.9-9.7l65.1,20.8c7.9,2.5,12.2,11,9.7,18.9
						l-20.8,65.1c-2.5,7.9-11,12.2-18.9,9.7L2072.3-47C2064.5-49.6,2060.1-58,2062.6-65.9z"/>
					<path id="XMLID_500_" fill="#404040" d="M2091.8-30.6l-31.3-60.7c-3.8-7.3-0.9-16.4,6.5-20.2l60.7-31.3
						c7.3-3.8,16.4-0.9,20.2,6.5l31.3,60.7c3.8,7.3,0.9,16.4-6.5,20.2L2112-24.1C2104.7-20.4,2095.6-23.3,2091.8-30.6z"/>
				</g>
				<g id="XMLID_491_">
					<path id="XMLID_107_" fill="#404040" d="M2060.2-89.1l44.1-52.2c5.3-6.3,14.8-7.1,21.1-1.8l52.2,44.1
						c6.3,5.3,7.1,14.8,1.8,21.1l-44.1,52.2c-5.3,6.3-14.8,7.1-21.1,1.8L2062-68C2055.7-73.3,2054.9-82.8,2060.2-89.1z"/>
					<path id="XMLID_106_" fill="#404040" d="M2073.7-45.4l-5.7-68.1c-0.7-8.2,5.5-15.5,13.7-16.2l68.1-5.7
						c8.2-0.7,15.5,5.5,16.2,13.7l5.7,68.1c0.7,8.2-5.5,15.5-13.7,16.2l-68.1,5.7C2081.7-31,2074.4-37.1,2073.7-45.4z"/>
				</g>
			</g>
			<path id="XMLID_490_" fill="#4D4D4D" d="M2080.4-116.8L2080.4-116.8c18.3-21.7,51.1-24.4,72.8-6.1l0,0
				c21.7,18.3,24.4,51.1,6.1,72.8l0,0c-18.3,21.7-51.1,24.4-72.8,6.1l0,0C2064.8-62.4,2062.1-95.1,2080.4-116.8z"/>
		</g>
	</g>
	<g id="XMLID_201_">
		<path id="XMLID_41_" fill="#3C80C8" d="M1647.7,573.7c-10.9-3.2-17.2-14.5-14.2-25.5c0,0,0.8-9.1,15.2-58.9
			c14.5-49.8,19.6-64,19.6-64c1.7-5.9,7.8-9.2,13.7-7.5l48.3,14c5.9,1.7,9.2,7.8,7.5,13.7c0,0-6.2,23.4-18.1,64.4s-19,57.8-19,57.8
			c-3.3,10.9-14.7,17.1-25.6,13.9L1647.7,573.7z"/>
		<path id="XMLID_40_" fill="#DCE3F8" d="M1655.5,561.9c-9.7-2.8-15.3-12.9-12.6-22.6l29-109.3c1.5-5.2,6.9-8.2,12.1-6.7l41.6,12.1
			c5.2,1.5,8.2,6.9,6.7,12.1l-34,107.9c-2.9,9.6-13,15.1-22.7,12.3L1655.5,561.9z"/>
		<path id="XMLID_39_" fill="#182F4C" d="M1702.7,515.2c4.3,1.2,8.8-1.2,10-5.5l19.5-62.1c1.5-5.2-1.5-10.6-6.7-12.1l-41.6-12.1
			c-5.2-1.5-10.6,1.5-12.1,6.7L1655,493c-1.2,4.3,1.2,8.8,5.5,10c3.3,1,7.5,5.7,6.9,10.4l-0.7,5.2c-0.3,2.7,1.3,5.2,3.9,6l11.7,3.4
			c2.6,0.8,5.4-0.5,6.5-3l2.2-4.8C1693.7,515.3,1699.4,514.2,1702.7,515.2z"/>
		<circle id="XMLID_38_" fill="#3C80C8" cx="1702.4" cy="439.2" r="23.2"/>
		<circle id="XMLID_17_" fill="#FFFFFF" cx="1702.4" cy="439.2" r="15.7"/>
		<path id="XMLID_13_" fill="#DCE3F8" d="M1694.3,511.2l-22.9-6.6c-1.3-0.4-2.1-1.8-1.7-3.1l0.3-1.2c0.4-1.3,1.8-2.1,3.1-1.7
			l22.9,6.6c1.3,0.4,2.1,1.8,1.7,3.1l-0.3,1.2C1697,510.8,1695.6,511.5,1694.3,511.2z"/>
		<path id="XMLID_12_" fill="#1B2F4F" d="M1671.3,563.1l-8.7-2.5c-1.4-0.4-2.3-1.9-2.1-3.3l1.1-6.4c0.2-1,1.2-1.7,2.2-1.4
			c0,0,3.9,0.5,6.4,1.2s6.1,2.4,6.1,2.4c1,0.3,1.5,1.4,1.1,2.4l-2.5,6C1674.2,562.8,1672.7,563.6,1671.3,563.1z"/>
		<path id="XMLID_11_" fill="#DCE3F8" d="M1683,524l-9.4-2.7c-1.6-0.5-2.5-2-2.3-3.6l1.2-7c0.2-1.1,1.3-1.8,2.4-1.5l13.5,3.9
			c1.1,0.3,1.7,1.5,1.2,2.6l-2.7,6.5C1686.2,523.7,1684.6,524.5,1683,524z"/>
		<g id="XMLID_10_">
			
				<rect id="XMLID_53_" x="1674.8" y="518.4" transform="matrix(-0.9604 -0.2786 0.2786 -0.9604 3147.7844 1485.2324)" fill="#182F4C" width="9.2" height="1.1"/>
		</g>
		<g id="XMLID_9_">
			
				<rect id="XMLID_35_" x="1675.4" y="516.4" transform="matrix(-0.9604 -0.2786 0.2786 -0.9604 3149.5007 1481.4805)" fill="#182F4C" width="9.2" height="1.1"/>
		</g>
		<g id="XMLID_8_">
			
				<rect id="XMLID_27_" x="1675.9" y="514.4" transform="matrix(-0.9604 -0.2786 0.2786 -0.9604 3151.0366 1477.6471)" fill="#182F4C" width="9.2" height="1.1"/>
		</g>
		<path id="XMLID_7_" fill="#1B2F4F" d="M1695.1,528l3,0.5c2.3,0.4,4.6-0.8,5.4-3l1.6-4c0.3-0.9-0.2-1.8-1.1-2l-5.4-1
			c-1.1-0.2-2.3,0.4-2.7,1.5l-2.2,5.5C1693.3,526.6,1694,527.8,1695.1,528z"/>
		<path id="XMLID_6_" fill="#1B2F4F" d="M1660.8,518.1l-2.8-1.1c-2.2-0.9-3.4-3.2-3-5.4l0.8-4.2c0.2-0.9,1.1-1.4,2-1.1l5.1,2.1
			c1.1,0.4,1.7,1.6,1.5,2.7l-1.1,5.8C1663.1,517.8,1661.9,518.5,1660.8,518.1z"/>
		<g id="XMLID_14_">
			<path id="XMLID_26_" fill="#DCE3F8" d="M1667.5,559.8c-0.9-0.3-1.7-0.9-2.2-1.8c-1-1.8-0.3-4.1,1.5-5.1l0.5,1
				c-1.3,0.7-1.7,2.3-1,3.5c0.7,1.3,2.3,1.7,3.5,1c1.3-0.7,1.7-2.3,1-3.5l1-0.5c1,1.8,0.3,4.1-1.5,5.1
				C1669.4,560,1668.4,560.1,1667.5,559.8z"/>
		</g>
		<g id="XMLID_15_">
			
				<rect id="XMLID_24_" x="1668.6" y="552.7" transform="matrix(-0.9604 -0.2786 0.2786 -0.9604 3117.9285 1550.9227)" fill="#DCE3F8" width="1.1" height="2.5"/>
		</g>
		<path id="XMLID_16_" fill="#FFFFFF" d="M1704.8,501l-37.9-11c-2.2-0.6-3.4-2.9-2.8-5l4.4-17.7c0.4-1.5,1.9-2.4,3.4-1.9l41.9,12.1
			c1.5,0.4,2.3,2,1.8,3.4l-5.7,17.3C1709.2,500.4,1706.9,501.6,1704.8,501z"/>
	</g>
	<g id="XMLID_49_" transform="matrix(0.203479,0,0,0.203479,1069.49,361.343)">
		<g id="XMLID_197_" transform="matrix(1,0,0,0.968614,0,16.0376)">
			<path id="XMLID_198_" fill="#404040" d="M-1988.5-432c18.4-11.4,24.5-36.1,13.4-55.1l-205.4-355.2
				c-11.1-19.1-34.9-25.2-53.4-13.9l-753.8,464.6c-18.4,11.4-24.5,36.1-13.4,55.1l205.4,355.2c11.1,19.1,34.9,25.2,53.4,13.9
				L-1988.5-432z"/>
		</g>
		<g id="XMLID_195_" transform="matrix(0.926172,0,0,0.846214,62.1365,47.9694)">
			<path id="XMLID_196_" fill="#C5D5EF" d="M-2224.4-549.8c7.5-4.8,9.8-15.4,5.5-23.6l-229.2-420.2c-4.4-8.1-14.1-10.8-21.6-5.9
				L-3217-511.4c-7.5,4.8-9.8,15.4-5.4,23.5l229.2,420.2c4.4,8.1,14.1,10.8,21.6,5.9L-2224.4-549.8z"/>
		</g>
		<g id="XMLID_59_" transform="matrix(1.0026,0,0,1.0026,794.054,262.892)">
			<g id="XMLID_193_">
				<path id="XMLID_194_" fill="#355996" d="M-3023.9-780.8c1.2-0.7,1.5-1.9,1.7-2.9c0.7-2.9,1.3-5.8,2-8.7l1.1-4.6
					c0.1-0.1,0-0.1,0.1-0.2l0.6-1l-1.6-2.6l-4.7-1.2c-3.4-0.8-6.9-1.7-10.3-2.5c-0.4-0.1-1.7-0.5-2.9,0.3c-1.2,0.7-1.5,2-1.6,2.4
					c-0.7,2.7-1.4,5.5-2.1,8.3c-0.4,1.5-0.8,3-1.1,4.6c-0.7,3,0.1,4.4,3.2,5.2c4,0.9,8.1,2,12.2,3.1
					C-3026.2-780.3-3025-780.2-3023.9-780.8z"/>
			</g>
			<g id="XMLID_175_">
				<path id="XMLID_192_" fill="#355996" d="M-3123-808.4c0.2-0.6,0.1-1.2,0.2-1.7c0-0.3,0-0.4,0-0.6l0-1.2l-1-0.5
					c-0.1,0-0.3-0.1-0.4-0.3c-0.4-0.3-1-0.6-1.5-0.7c-4.4-1.1-8.7-2-13-3.1c-2.5-0.6-4,0.3-4.7,2.9c-1.2,4.5-2.3,8.8-3.3,12.9
					c-0.3,1.3-0.3,2.4,0.2,3.2c0.5,0.8,1.4,1.4,2.7,1.7l3,0.7c3.2,0.8,6.3,1.7,9.5,2.5c1,0.2,2.4,0.6,3.5-0.1c1.2-0.7,1.5-2,1.6-2.9
					C-3124.8-800.7-3123.9-804.7-3123-808.4z"/>
			</g>
			<g id="XMLID_173_">
				<path id="XMLID_174_" fill="#355996" d="M-3111.9-787.8c-0.3,0-0.3,0.1-0.5,0.1l-0.9,0.1l-0.4,0.8c-0.1,0.1-0.2,0.2-0.2,0.4
					l-0.1,0.1c-0.3,0.4-0.8,1-0.9,1.8c-1,3.8-2,7.9-3.1,12.5c-0.6,2.3,0.7,4.3,3,5c1.6,0.5,3.1,0.9,4.6,1.3l1.9,0.5
					c1.9,0.4,3.8,1,5.6,1.5c1.5,0.4,2.7,0.2,3.7-0.2c0.9-0.6,1.6-1.5,1.9-3c0.5-2.1,1-4.2,1.4-6.2c0.3-1.2,0.5-2.4,0.8-3.7
					c0.2-0.7,0.3-1.4,0.6-2.2l0.2-1c0.5-1.9-0.4-3.5-2.2-4c-4-1.2-8.8-2.4-13.7-3.6C-3110.8-788-3111.4-787.9-3111.9-787.8z"/>
			</g>
			<g id="XMLID_171_">
				<path id="XMLID_172_" fill="#355996" d="M-3182.2-784c4.8,1.2,8.6,2.1,12.2,3.1c3,0.8,4.6-0.2,5.4-3.3c1-3.9,2-7.9,3.1-12.3
					c0.2-0.6,0.2-1.1,0.1-1.6c0-0.3,0-0.4,0-0.6l0-1.2l-1-0.5c-0.2-0.1-0.4-0.2-0.4-0.3c-0.4-0.3-0.9-0.5-1.5-0.7
					c-5.1-1.4-8.8-2.4-12.5-3.4c-3-0.8-4.5,0.1-5.3,3.2c-0.9,3.6-1.9,7.5-3.2,12.5C-3186-786.3-3185.1-784.6-3182.2-784z"/>
			</g>
			<g id="XMLID_169_">
				<path id="XMLID_170_" fill="#355996" d="M-3243.2-796.1l0.3,0.1c1.9,0.5,3.8,1,5.8,1.5c2.6,0.7,4.2-0.2,4.8-2.9
					c1-4,2.1-8.3,3.2-12.6c0.1-0.6,0.1-1.1,0.2-1.6c0-0.3,0-0.4,0-0.6l0.1-1.2l-1.1-0.6c-0.1,0-0.3-0.1-0.4-0.3
					c-0.4-0.3-1-0.6-1.5-0.7c-2.7-0.7-5.3-1.4-8-2.1l-5.1-1.3c-1.4-0.4-2.3-0.1-2.9,0.3c-0.5,0.3-1.3,1-1.7,2.4l-1,3.8
					c-0.8,3.4-1.7,6.8-2.6,10.1c-0.3,0.9-0.2,1.7,0.2,2.3c0.6,1,1.6,1.3,2,1.4C-3248.3-797.4-3245.8-796.8-3243.2-796.1z"/>
			</g>
			<g id="XMLID_167_">
				<path id="XMLID_168_" fill="#355996" d="M-3064.7-772.4c0.6,0.2,1.3,0.1,1.8,0c0.1,0,0.3-0.1,0.5-0.1l1-0.1l0.5-0.9
					c0.1-0.1,0.2-0.2,0.2-0.4c0.3-0.4,0.5-0.9,0.7-1.5c0.7-2.6,1.4-5.2,2-7.9l1.2-4.9c0.3-1.1,0.1-2.1-0.3-3
					c-0.5-0.8-1.3-1.4-2.4-1.7c-3.8-1-7.6-2-11.2-2.9l-2-0.6c-1.2-0.3-2.1,0.1-2.5,0.3c-0.5,0.2-1.1,0.9-1.4,2.1
					c-1,3.9-2.3,9-3.6,14.1c-0.2,0.9-0.1,1.8,0.3,2.5c0.5,0.8,1.2,1.3,2.2,1.5C-3074.4-774.7-3069.5-773.5-3064.7-772.4z"/>
			</g>
			<g id="XMLID_165_">
				<path id="XMLID_166_" fill="#355996" d="M-3036.8-743.6c1.2,0.3,2.7-0.5,3.2-1.7c1.7-4.6,3.4-9.2,5.1-13.9
					c0.4-0.9,0.6-2-0.1-3.1c-0.6-1.2-2-1.6-2.8-1.8c-4.6-1.3-8.5-2.3-12.3-3.2c-0.7-0.1-1.4-0.1-2-0.2c-0.2-0.1-0.4,0-0.7,0
					l-1.1-0.1l-0.5,1c-0.1,0.2-0.2,0.4-0.3,0.5c-0.3,0.4-0.6,1-0.7,1.6c-1.3,4.8-2.3,8.7-3.3,12.4c-0.6,2.3,0.6,4.4,2.9,5
					C-3045.8-745.9-3041.9-744.9-3036.8-743.6z"/>
			</g>
			<g id="XMLID_60_">
				<g id="XMLID_61_">
					<path id="XMLID_62_" fill="#355996" d="M-3378.8-722.4c-9.4,24.6-12.2,50.2-8.6,75.7c2.4,16.9,7.8,33.4,16.1,49.2
						c6,11.5,13.7,22.3,23,32.2c3.4,3.7,7.1,7,10.8,10.4l0.3,0.3c1.1,0.9,2.1,1.8,3.1,2.8c0.2,0.2,0.5,0.5,0.8,0.6l16.3,11.5
						c0.5,0.5,1.1,0.8,1.9,1.4l0.8,0.4c13.7,8,28.5,13.9,44.2,17.4c0.3,0.1,0.6,0.1,0.9,0.1l18.8,2.8c0.2,0.1,0.5,0,0.7,0.1
						c11.6,0.9,23.1,0.5,34.4-1.2c9.9-1.4,19.9-4,29.4-7.5c10.5-3.8,20.9-9,31-15.5c1.4-0.9,1.9-2,1.6-3.4c0-0.1,0-0.3,0-0.4
						l0.1-0.4c0.3-1.4,0.7-2.8,1.1-4.3c0.6-2.4,1.2-4.8,1.8-7.2c0.1-0.2,0.2-0.4,0.3-0.5c0.2-0.1,0.4-0.2,0.6-0.1
						c1.5,0.4,3.2,0.8,4.7,1.2c1.6,0.3,3.2,0.8,4.7,1.2c0.7,0.2,2.6,0.7,4.3-1.1c1.8-1.9,3.7-3.8,5.5-5.7l0.9-0.9
						c2.3-2.3,4.6-4.8,6.8-7l1.7-1.8c2.1-2,4.4-4.5,6.4-7c5.2-6.2,9.5-13,14.5-21.2l1.2-2l-3.6-1.2c-0.4-0.1-0.6-0.5-0.5-1
						c0.9-3.6,1.8-7.2,2.8-10.9l0.2-0.6c0.1-0.2,0.2-0.4,0.3-0.5c0.2-0.1,0.4-0.2,0.6-0.1c1.7,0.5,3.2,0.8,4.9,1.2
						c0.9,0.2,2.8-0.1,3.4-1.4c2.3-4.3,4.5-8.6,6.7-12.8l0.9-1.8c0.2-0.4,0.2-0.7,0.2-1c0-0.1,0-0.3,0.1-0.4l0.3-1.7l-2.8-0.6
						c-0.3,0-0.6,0-0.8,0c-1-0.2-2-0.6-3-0.8l-0.6-0.2c-0.4-0.1-0.6-0.5-0.6-0.9c0.9-4.1,1.9-7.8,2.8-11.4c0.1-0.4,0.5-0.6,0.9-0.6
						l2.2,0.6c1.9,0.5,2.4,0.6,3.1,0.9c0.4,0.1,1.1,0.3,2.2,0.6c3.1,0.9,4.2-1.1,4.5-2.3c0.8-2.5,1.4-5,2.3-7.7l0.3-1.2
						c0.4-1.2,0.8-2.6,1.2-3.8c0.1-0.3,0.3-0.4,0.5-0.5c1.8-0.3,2.4-1.8,2.7-2.4l0.4-0.7c1.8-4.2,3.8-8.6,5.8-13
						c0.3-0.4,0.7-1.6,0.2-2.8c-0.6-1.2-1.9-1.5-2.3-1.6c-0.4-0.1-0.7-0.2-1.1-0.3c-0.4-0.1-0.6-0.5-0.6-0.9l0.2-1.1
						c0.2-1.1,0.6-2.3,0.8-3.4c0.5-1.9,0.9-4,1.4-5.8c0.1-0.4,0.2-0.7,0.3-0.9c0.1-0.3,0.5-0.5,0.8-0.5c0.1,0,0.5,0,0.9,0.2
						c0.4,0,0.7,0.1,1.1,0.3c0.9,0.2,1.7,0.5,2.7,0.6c1.2,0.1,2.7-0.5,3.3-1.8c1.3-3.2,2.7-6.4,4-9.6l0.1-0.3
						c0.7-1.7,1.4-3.4,2.1-5.1c0.4-1.1,0.3-1.9,0.1-2.3c-0.3-0.7-1-1.1-1.9-1.4l-2.3-0.6c-1.7-0.4-3.2-0.8-4.9-1.2
						c-0.2-0.1-0.4-0.3-0.5-0.5c-0.1-0.2-0.1-0.5,0-0.6c0.3-0.8,0.5-1.4,0.8-2c1.1-3.3,1.9-6.7,2.7-10c0.5-1.7-0.2-3.9-3.1-4.6
						l-3.9-1c-1.9-0.5-3.8-1-5.8-1.5c-0.6-0.2-1.7-0.5-2.3-0.7c-0.3-0.1-0.5-0.5-0.5-0.8c0.1-0.7,0.4-1.8,0.5-2.4
						c0.5-2.1,1-4.2,1.5-6.1c0.3-1.2,0.6-2.5,1-3.8c0.7-2.7-0.1-4.1-2.8-4.8c-4.2-1.1-8.5-2.3-12.8-3.3c-0.7-0.2-1.9-0.5-3.1,0.2
						c-1.1,0.6-1.4,1.9-1.6,2.6c-0.6,2.2-1.1,4.3-1.6,6.4c-0.5,2.1-1,4.2-1.6,6.3c-0.1,0.4-0.5,0.7-0.9,0.6
						c-1.7-0.5-3.5-0.8-5.3-1.3l-0.2-0.1c-1.9-0.5-3.9-1-5.8-1.5c-3.7-0.9-5.2,0-6.1,3.8c-0.6,2.4-1.2,4.9-1.9,7.3l-0.9,3.5
						c-0.1,0.4-0.5,0.7-0.9,0.6l-0.8-0.2c-3.3-0.8-6.7-1.6-10.1-2.5l-0.4-0.1c-0.2-0.1-0.4-0.2-0.5-0.3c-0.1-0.1-0.2-0.4-0.1-0.6
						l2.8-11.9c0.7-3.1-0.1-4.3-3.1-5.1l-12.1-3c-0.4-0.2-0.7-0.6-0.6-0.9l1.1-4.5c0.7-2.8,1.4-5.7,2.2-8.6c0.1-0.4,0.4-1.5-0.2-2.5
						c-0.6-0.9-1.4-1.3-2.2-1.4c-3-0.7-5.9-1.5-8.7-2.2l-4.3-1.1c-0.9-0.2-2.4-0.6-3.7,0.1c-1.2,0.7-1.6,1.9-1.9,3.2l-1,3.8
						c-0.6,2.5-1.4,5.2-1.9,7.8c-0.1,0.2-0.2,0.4-0.3,0.5c-0.2,0.1-0.4,0.2-0.6,0.1c-2-0.6-4.1-1.1-6.1-1.6
						c-2.2-0.6-4.3-1.1-6.4-1.6c-0.5-0.2-1.7-0.5-2.8,0.2s-1.4,1.9-1.5,2.3c-0.7,2.7-1.3,5.5-2,8.2l-1.1,4.3
						c-0.1,0.2-0.2,0.4-0.4,0.5c-0.2,0.1-0.4,0.2-0.6,0.1c-2.6-0.7-5.3-1.4-7.9-2l-3.8-1c-0.2-0.1-0.4-0.2-0.5-0.4
						c-0.1-0.2-0.2-0.4-0.1-0.6c0.2-0.9,0.5-1.8,0.7-2.7c0.8-2.9,1.5-5.8,2.3-8.8c0.7-2.8-0.3-4.5-3.1-5.3l-1.4-0.3
						c-3.4-0.8-6.8-1.7-10.2-2.6c-0.2-0.1-0.4-0.2-0.5-0.3c-0.1-0.2-0.2-0.4-0.1-0.6c0.6-2.2,1.1-4.5,1.7-6.6l1.2-4.8
						c0.3-1.3,0.7-2.7,0-3.9c-0.8-1.2-2.2-1.6-3.5-2c-3.8-1-7.5-1.9-11.4-2.8c-3.5-0.8-4.8-0.1-5.7,3.5l-0.6,2.4
						c-0.8,3-1.6,6.1-2.3,9.2c-0.1,0.2-0.2,0.4-0.4,0.5c-0.2,0.1-0.4,0.2-0.6,0.1c-1.6-0.5-3.2-0.8-4.8-1.2l-1-0.2
						c-2.3-0.6-4.6-1.1-6.8-1.7c-0.4-0.1-1.5-0.4-2.5,0.2c-1,0.6-1.3,1.8-1.3,2.1c-0.9,3.6-1.8,7.3-2.8,10.9l-0.4,1.7
						c-0.1,0.2-0.2,0.4-0.4,0.5c-0.2,0.1-0.4,0.2-0.6,0.1c-3-0.8-6.1-1.5-9.3-2.3l-2.2-0.6c-0.2-0.1-0.3-0.1-0.5-0.4
						c-0.1-0.2-0.2-0.4-0.1-0.6c1.1-4,2.1-7.5,3-11.2c0.3-1.1,0.5-2.4-0.2-3.7c-0.7-1.2-2.1-1.7-3.2-2l-2.7-0.7
						c-3-0.7-5.9-1.5-8.9-2.2c-0.2-0.1-0.4-0.2-0.5-0.3c-0.2-0.1-0.2-0.4-0.1-0.6c1-3.8,1.9-7.5,2.8-11.1c1-3.8,0-5.3-3.7-6.3
						c-2.2-0.6-4.5-1.2-6.8-1.8l-0.4-0.1c-1.5-0.4-3-0.8-4.5-1.2c-1.2-0.3-2.1-0.3-3,0.3c-0.5,0.3-1.3,1-1.7,2.4l-3.2,12.6
						c-0.1,0.2-0.2,0.4-0.4,0.5c-0.2,0.1-0.4,0.2-0.6,0.1c-3.5-1-7.4-2-12.1-3.2c-1.2-0.3-2.3-0.4-3.2,0.2c-1,0.6-1.4,1.6-1.7,2.8
						l-0.7,2.8c-0.8,3-1.7,6.1-2.4,9.2c-0.1,0.2-0.2,0.4-0.4,0.5c-0.2,0.1-0.4,0.2-0.6,0.1c-2.4-0.6-4.8-1.2-7.1-1.8l-0.2-0.1
						c-1.4-0.3-2.9-0.7-4.3-1.1l-0.6-0.2l-4.1,2.1l-1.6,6.6c-0.6,2.2-1.1,4.5-1.6,6.7c-0.1,0.2-0.2,0.4-0.4,0.5
						c-0.2,0.1-0.4,0.2-0.6,0.1c-3.5-1-7.7-2-11.7-3c-1.1-0.2-2.4,0.3-3.1,0.8c-2.3,1.7-3,4.3-3.2,6c-0.2,1.6-0.6,3.3-1,5
						c-0.3,1.1-0.5,2.2-0.7,3.4c-0.1,0.2-0.2,0.4-0.3,0.5c-0.2,0.1-0.5,0.1-0.7,0c-0.3-0.1-0.6-0.2-0.9-0.3c-3.6-1-4.6-1-6.7,2.4
						c-1.9,3-3.9,6.1-5.6,9l-1.8,2.8c-0.2,0.4-0.4,0.7-0.6,1.1c0,0-0.1,0.2-0.1,0.2l-1.1,2.3l6.6,2c0.2,0.1,0.4,0.2,0.5,0.4l0,0
						c0.1,0.2,0.2,0.4,0,0.6c-0.2,0.6-0.4,1.2-0.5,1.8c-0.9,3.1-1.6,6.3-2.4,9.6c-0.1,0.2-0.2,0.4-0.4,0.5c-0.2,0.1-0.4,0.2-0.6,0.1
						c-1.3-0.3-1.8-0.5-2.2-0.7c-0.5-0.2-0.7-0.2-2.7-0.7c-0.4-0.1-0.7-0.2-1-0.2c-2.5-0.8-3.6-0.5-4.7,2.4L-3378.8-722.4z
						 M-3244.1-747.7l-0.7-0.2c0.2-0.5,0.3-1.1,0.5-1.6l0.7-2.7c0.6-2.2,1.1-4.5,1.8-6.7c0.1-0.2,0.2-0.4,0.4-0.5
						c0.2-0.1,0.4-0.2,0.6-0.1c3.7,1,7.5,1.9,11.5,2.9c0.4,0.1,0.7,0.5,0.6,0.9c-0.3,1.4-0.7,2.9-1,4.3c-0.6,2.3-1,4.5-1.5,6.8
						c-0.1,0.4-0.5,0.7-1,0.6l-0.9-0.2l-0.2-0.1c-3.5-0.7-7.1-1.4-10.6-2.4c-0.2-0.1-0.4-0.2-0.5-0.3c-0.1-0.2-0.2-0.4-0.1-0.6
						L-3244.1-747.7z M-3274.8-718.8c-3.3-0.8-7-1.7-11.4-2.8c-0.2-0.1-0.4-0.2-0.5-0.4c-0.1-0.2-0.2-0.4,0-0.6
						c0.8-3.4,1.7-6.8,2.5-10.2l0.3-1.2c0.1-0.4,0.5-0.7,1-0.6c2,0.4,4.1,0.9,6.1,1.4l0.2,0.1c1.7,0.4,3.4,0.8,5.1,1.2
						c0.2,0.1,0.5,0.2,0.6,0.4c0.1,0.2,0.2,0.4,0.1,0.6l-1,3.8c-0.6,2.5-1.3,5.1-1.9,7.6C-3274.1-718.9-3274.5-718.7-3274.8-718.8z
						 M-3296-706.1c-3.7-1-7.1-1.8-10.4-2.6l-0.9-0.2c-0.2-0.1-0.4-0.2-0.5-0.3c-0.1-0.2-0.2-0.4-0.1-0.6l0.2-0.7
						c0.8-3.2,1.7-6.3,2.6-9.5l0.4-1.4c0.1-0.4,0.5-0.6,0.9-0.6l3.6,0.9l0.4,0.1c2.3,0.6,4.7,1.2,6.9,1.8c0.2,0.1,0.3,0.1,0.7,0.3
						c0.2,0.2,0.4,0.5,0.3,0.7c-0.1,0.7-0.2,1.4-0.3,2c-0.5,1.7-1,3.5-1.6,5.2c-0.4,1.4-0.9,2.8-1.2,4.1
						C-3295.2-706.2-3295.7-705.9-3296-706.1z M-3358.8-668.3c-2.4-0.6-4.6-1.3-6.9-1.8l-4.8-1.2c-0.2-0.1-0.4-0.2-0.5-0.4
						c-0.1-0.2-0.2-0.4,0-0.6c1-3.7,1.9-7.5,2.9-11.4c0.1-0.4,0.5-0.6,0.9-0.6c3.7,0.9,7.6,1.8,11.7,2.9c0.4,0.1,0.7,0.5,0.6,0.9
						c-0.8,3.2-1.8,7.3-2.9,11.5C-3358-668.5-3358.4-668.2-3358.8-668.3z M-3295.4-688.2c-0.1-0.2-0.2-0.4-0.1-0.6
						c0.8-3.5,1.8-7.1,2.7-10.7l0.2-0.6c0.1-0.4,0.5-0.7,0.9-0.6l4.9,1.2l6.6,1.6c0.2,0.1,0.4,0.2,0.5,0.4c0.1,0.2,0.2,0.4,0.1,0.6
						l-2.9,11.3c-0.1,0.4-0.5,0.7-0.9,0.6c-4.2-1-7.9-2-11.5-2.9C-3295.1-687.9-3295.3-688-3295.4-688.2z M-3271.7-712.8
						c0.1-0.2,0.2-0.4,0.4-0.5c0.2-0.1,0.4-0.2,0.6-0.1l5.8,1.5c1.9,0.5,3.8,1,5.8,1.5c0.4,0.1,0.6,0.5,0.6,0.9
						c-0.4,1.7-0.8,3.4-1.3,5l-0.1,0.4c-0.5,1.9-1.1,4-1.5,6c-0.1,0.2-0.2,0.4-0.4,0.5c-0.2,0.1-0.4,0.2-0.6,0.1
						c-3.5-0.8-7.1-1.8-10.5-2.7l-1-0.2c-0.2-0.1-0.4-0.2-0.5-0.4c-0.1-0.2-0.2-0.4-0.1-0.6l0.8-3
						C-3273.1-707.3-3272.4-710.1-3271.7-712.8z M-3291.9-651.4l-4.8-1.2c-2.3-0.6-4.5-1.1-6.7-1.8c-0.2-0.1-0.4-0.2-0.5-0.4
						c-0.1-0.2-0.2-0.4-0.1-0.6c0.8-3.4,1.8-7.1,3-11.5c0.1-0.4,0.5-0.6,0.9-0.6c3.8,1,7.6,1.9,11.4,2.9c0.4,0.1,0.7,0.5,0.6,0.9
						l-2.9,11.5c-0.1,0.2-0.2,0.4-0.4,0.5C-3291.5-651.4-3291.7-651.4-3291.9-651.4z M-3300.3-618c-3.8-1-7.6-1.9-11.4-2.8
						c-0.2-0.1-0.4-0.2-0.5-0.4c-0.1-0.2-0.2-0.4,0-0.6c0.9-3.7,1.8-7.3,2.7-11.1l0.2-0.5c0.1-0.2,0.2-0.4,0.4-0.5
						c0.2-0.1,0.4-0.2,0.6-0.1l11.6,3c0.4,0.1,0.7,0.5,0.6,0.9c-0.4,1.7-0.8,3.3-1.3,5c-0.6,2.2-1.1,4.3-1.7,6.5
						C-3299.5-618.2-3299.9-618-3300.3-618z M-3228-673.9c0.8-3,1.6-6.3,2.4-9.4c0.1-0.1,0.1-0.2,0.1-0.3c0.1-0.3,0.5-0.5,0.8-0.3
						l0.8,0.2c3.5,0.9,7.1,1.8,10.7,2.7c0.2,0.1,0.4,0.2,0.5,0.4c0.1,0.2,0.2,0.4,0.1,0.6c-0.6,2.4-1.2,4.8-1.8,7.1l-1.1,4.3
						c-0.1,0.4-0.5,0.7-0.9,0.6l-11.5-2.9c-0.2-0.1-0.4-0.2-0.5-0.4c-0.1-0.2-0.2-0.4-0.1-0.6L-3228-673.9z M-3225-634.6
						c-3.6-0.9-7.3-1.9-11.4-2.9c-0.2-0.1-0.4-0.2-0.5-0.4c-0.1-0.2-0.2-0.4,0-0.6c1-3.8,1.9-7.6,2.9-11.5c0.1-0.4,0.5-0.7,0.9-0.6
						c3.6,0.9,7.4,1.9,11.3,2.9c0.2,0.1,0.4,0.2,0.5,0.3c0.2,0.1,0.2,0.4,0.1,0.6c-0.8,3.7-1.8,7.5-2.8,11.4
						C-3224.1-634.7-3224.5-634.5-3225-634.6z M-3099.1-709.9c-2.5-0.7-5-1.3-7.4-1.9l-0.3-0.1c-1.2-0.3-2.4-0.6-3.7-1
						c-0.2-0.1-0.4-0.2-0.5-0.4c-0.1-0.2-0.2-0.4-0.1-0.6l0.7-2.6c0.8-3,1.5-6,2.4-8.9c0.1-0.4,0.5-0.7,1-0.6l11.5,2.9
						c0.2,0.1,0.4,0.3,0.5,0.4c0.1,0.2,0.2,0.4,0.1,0.6c-1.1,3.5-2.1,7.3-3.2,11.5c-0.1,0.2-0.2,0.4-0.4,0.5
						C-3098.7-710-3098.9-709.9-3099.1-709.9z M-3119.4-697.4c-0.2,0.1-0.4,0.2-0.6,0.1c-4.1-1.1-7.9-2.1-11.3-3
						c-0.2-0.1-0.4-0.2-0.5-0.4c-0.1-0.2-0.2-0.4,0-0.6c0.5-2.4,1.2-4.8,1.8-7.2l0.9-4c0.1-0.4,0.5-0.7,0.9-0.6
						c3.7,0.9,7.5,1.9,11.4,2.9c0.4,0.1,0.6,0.5,0.6,0.9c-0.8,3.5-1.8,7.1-2.7,10.5l-0.2,0.6
						C-3119.1-697.7-3119.2-697.6-3119.4-697.4z M-3149.2-700.8c3.8,1,7.5,1.9,11.4,2.9c0.4,0.1,0.7,0.5,0.6,0.9l-0.7,2.8
						c-0.7,2.8-1.5,5.8-2.1,8.6c-0.1,0.4-0.5,0.7-0.9,0.6c-4-1-7.7-2-11.1-2.8c-0.2-0.1-0.4-0.2-0.5-0.4c-0.1-0.2-0.1-0.3,0-0.6
						l2.5-11.5c0.1-0.2,0.2-0.4,0.3-0.5C-3149.6-700.8-3149.4-700.8-3149.2-700.8z M-3161.4-672.4c-0.2,0.1-0.4,0.2-0.6,0.1
						c-3.5-1-7.3-1.9-11.3-2.9c-0.2-0.1-0.4-0.2-0.5-0.4c-0.1-0.2-0.2-0.4-0.1-0.6c0.7-2.6,1.4-5.3,2-7.9l0.9-3.5
						c0.1-0.4,0.5-0.7,0.9-0.6c3.8,1,7.6,1.8,11.4,2.8c0.2,0.1,0.4,0.2,0.5,0.3c0.1,0.2,0.2,0.4,0.1,0.6l0,0
						c-0.5,1.7-0.9,3.5-1.4,5.2l-0.1,0.4c-0.5,1.9-1,3.8-1.5,5.8C-3161-672.6-3161.2-672.4-3161.4-672.4z M-3275.2-576
						c-3.9-0.9-7.7-1.8-11.7-2.8c-0.2-0.1-0.4-0.3-0.5-0.3c-0.1-0.2-0.2-0.4-0.1-0.6c0.7-2.7,1.4-5.4,2-8.1l1-3.7
						c0.1-0.2,0.2-0.4,0.4-0.5c0.2-0.1,0.4-0.2,0.6-0.1l0.3,0.1c3.7,1,7.5,1.9,11.2,2.9c0.4,0.1,0.7,0.5,0.6,0.9
						c-0.6,2.3-1,4.5-1.6,6.8l-1.1,4.7C-3274.3-576.2-3274.7-575.9-3275.2-576z M-3230.2-613.9c0.4,0.1,0.6,0.5,0.6,0.9
						c-0.8,3.7-1.8,7.3-2.8,11.4c-0.1,0.4-0.5,0.7-0.9,0.6c-4.2-0.9-8-1.8-11.5-2.6c-0.2-0.1-0.4-0.2-0.5-0.3
						c-0.1-0.2-0.2-0.4,0-0.6c0.4-1.5,0.7-3,1.1-4.5l0.2-0.9c0.5-2.1,1.1-4.3,1.6-6.3c0.1-0.2,0.2-0.4,0.4-0.5
						c0.2-0.1,0.4-0.2,0.6-0.1c1.9,0.5,3.8,1,5.8,1.5l0.6,0.2C-3233.4-614.8-3231.8-614.4-3230.2-613.9z M-3161.4-655.1
						c0.4-1.9,0.9-3.7,1.3-5.6l0.1-0.4c0.5-1.7,0.8-3.4,1.3-5.1c0.1-0.2,0.2-0.4,0.4-0.5c0.2-0.1,0.4-0.2,0.6-0.1
						c3.9,1,7.7,2,11.4,2.9c0.2,0.1,0.4,0.2,0.5,0.4c0.1,0.2,0.2,0.4,0.1,0.6c-0.9,3.5-1.9,7.4-2.9,11.3c-0.1,0.2-0.2,0.4-0.4,0.5
						c-0.2,0.1-0.4,0.2-0.6,0.1l-5-1.3c-2.2-0.6-4.3-1.1-6.3-1.6c-0.2-0.1-0.4-0.2-0.5-0.4c-0.1-0.1-0.1-0.3-0.1-0.5
						C-3161.5-654.9-3161.5-655.2-3161.4-655.1z M-3158.1-617.4c-1.6-0.3-3.2-0.8-4.7-1.2l-0.3-0.1c-2.1-0.5-4.2-1-6.3-1.5
						c-0.2-0.1-0.4-0.2-0.5-0.3c-0.1-0.1-0.1-0.3-0.1-0.5s0-0.4,0.1-0.4c0.9-3.6,1.8-7.6,2.9-11.5c0.1-0.4,0.5-0.7,0.9-0.6
						c3.5,0.9,6.9,1.7,10.4,2.6l1,0.2c0.2,0.1,0.4,0.2,0.5,0.4c0.1,0.2,0.2,0.4,0.1,0.6c-1,3.9-2,7.8-3,11.6
						C-3157.3-617.6-3157.7-617.3-3158.1-617.4z M-3208.4-559c-2.5-0.6-5.2-1.2-7.8-1.9l-3.6-0.9c-0.2-0.1-0.4-0.2-0.5-0.4
						c-0.1-0.2-0.2-0.4-0.1-0.6c0.5-1.9,1.1-4,1.5-6c0.5-1.9,1-3.8,1.5-5.8c0.1-0.4,0.5-0.7,0.9-0.6c4.2,1,7.9,2,11.3,2.9
						c0.4,0.1,0.7,0.5,0.6,0.9c-1,3.8-2,7.7-2.9,11.5C-3207.7-559.1-3208-558.9-3208.4-559z M-3136.8-608.3c4,0.9,7.9,1.9,11.7,2.8
						c0.4,0.1,0.7,0.6,0.6,0.9c-1,3.9-2,7.7-2.9,11.7c-0.1,0.2-0.2,0.4-0.4,0.5c-0.2,0.1-0.4,0.2-0.6,0.1c-4-1.1-7.8-2.2-11.7-3.2
						c-0.2-0.1-0.4-0.2-0.5-0.4c-0.1-0.2-0.2-0.4-0.1-0.6l1.2-4.9c0.6-2.2,1.1-4.3,1.6-6.4C-3137.7-608.1-3137.3-608.4-3136.8-608.3
						z M-3163.2-597.2c0.4,0.1,0.7,0.5,0.6,1c-0.3,1.4-0.6,2.7-1,3.9l-0.2,0.6c-0.6,2.3-1.1,4.6-1.7,6.9c-0.1,0.2-0.2,0.4-0.3,0.5
						c-0.2,0.1-0.4,0.2-0.6,0.1c-3.7-0.9-7.4-1.7-11.5-2.6c-0.2-0.1-0.4-0.2-0.5-0.3c-0.1-0.2-0.2-0.4-0.1-0.6l0.1-0.4
						c0.9-3.7,1.9-7.6,2.9-11.4c0.1-0.4,0.5-0.6,0.9-0.6C-3170.2-599-3166.6-598.1-3163.2-597.2z M-3116.2-638.6
						c0.1,0.2,0.2,0.4,0.1,0.6c-1,3.9-2,7.9-3,11.8c-0.1,0.4-0.5,0.7-0.9,0.6c-2-0.6-4-1-6.1-1.5l-5.5-1.3c-0.2-0.1-0.4-0.2-0.5-0.4
						c-0.1-0.2-0.1-0.3,0-0.6c0.8-3.5,1.7-7.3,2.8-11.7c0.1-0.4,0.5-0.7,0.9-0.6c4.1,0.9,8.1,1.9,11.7,2.9
						C-3116.5-638.8-3116.3-638.7-3116.2-638.6z M-3095-655.4c-3.5-0.8-7.3-1.7-11.4-2.8c-0.2-0.1-0.4-0.2-0.5-0.4
						c0-0.1-0.2-0.4-0.1-0.6c1.2-4.5,2.1-8.1,3-11.5c0.1-0.2,0.2-0.4,0.4-0.5c0.1-0.1,0.3-0.1,0.5-0.1l5,1c2.1,0.5,4.2,0.9,6.4,1.4
						c0.2,0.1,0.4,0.2,0.5,0.3c0.1,0.2,0.2,0.4,0.1,0.6c-0.6,2.4-1.2,4.8-1.8,7.2l-1.1,4.6C-3094.2-655.5-3094.6-655.3-3095-655.4z
						 M-3082.4-683.6l11.5,2.9c0.4,0.1,0.7,0.5,0.6,0.9l-0.2,0.8c-0.8,3.5-1.7,6.8-2.6,10.2c-0.1,0.4-0.5,0.6-0.9,0.6
						c-2.7-0.7-5.3-1.4-8.1-2l-3.4-0.8c-0.2-0.1-0.4-0.2-0.5-0.4c-0.1-0.2-0.2-0.4-0.1-0.6c1-3.8,1.9-7.6,2.8-11
						c0.1-0.2,0.2-0.4,0.4-0.5C-3082.8-683.7-3082.6-683.7-3082.4-683.6z M-3192.4-622.4c0.4,0.1,0.7,0.5,0.6,0.9
						c-0.9,3.7-2,7.6-3,11.6c-0.1,0.4-0.5,0.6-0.9,0.6c-1.7-0.5-3.5-0.9-5.1-1.3l-0.7-0.2c-1.8-0.5-3.6-0.9-5.4-1.3
						c-0.2-0.1-0.4-0.2-0.5-0.3c-0.1-0.2-0.2-0.4-0.1-0.6c1.1-4.3,2.1-8.1,3.1-11.7c0.1-0.2,0.2-0.4,0.4-0.5
						c0.2-0.1,0.4-0.2,0.6-0.1l1.2,0.3C-3199.3-624.2-3195.8-623.3-3192.4-622.4z M-3073.7-717.3c0.2,0.1,0.4,0.1,0.6,0.2
						c3.2,0.8,6.5,1.5,9.8,2.2l0,0l1.6,0.3c0.2,0.1,0.4,0,0.5,0.3c0.1,0.2,0.2,0.4,0,0.6c-1,3.1-2.2,6.5-3.2,9.7
						c-0.2,0.5-0.2,1.1-0.3,1.9c-0.1,0.2-0.1,0.4-0.2,0.6c-0.1,0.2-0.4,0.2-0.6,0.1c-3.7-0.9-7.6-1.8-11.4-2.7
						c-0.2-0.1-0.4-0.2-0.5-0.4c-0.1-0.1-0.1-0.3-0.1-0.5l0.2-1c0.9-3.6,1.8-7.2,2.6-10.7c0.1-0.2,0.3-0.4,0.4-0.6
						C-3074.2-717.6-3073.9-717.5-3073.7-717.3z M-3085.8-688.8c-0.2,0.1-0.4,0.2-0.6,0.1c-0.2-0.1-0.4-0.1-0.6-0.2l-2.2-0.6
						c-2.9-0.8-5.8-1.5-8.7-2.3c-0.2-0.1-0.4-0.2-0.5-0.4c-0.1-0.2-0.2-0.4-0.1-0.6c1-3.7,1.9-7.5,2.9-11.3c0.1-0.4,0.5-0.7,0.9-0.6
						l0.9,0.2c3.6,0.9,7.2,1.8,10.7,2.8c0.4,0.1,0.6,0.5,0.6,0.9l-2.9,11.4C-3085.5-689.1-3085.6-688.9-3085.8-688.8z
						 M-3115.8-692.3c4.3,1.1,7.9,2.2,11.3,3.2c0.4,0.1,0.6,0.5,0.6,0.9c-1.1,4.4-2,8.1-2.9,11.4c-0.1,0.4-0.5,0.6-0.9,0.6l-5.2-1.4
						c-2.1-0.5-4.1-1.1-6.2-1.6c-0.2-0.1-0.4-0.2-0.5-0.4c-0.1-0.2-0.2-0.4-0.1-0.6l2.9-11.5c0.1-0.2,0.2-0.4,0.4-0.5
						C-3116.1-692.3-3116-692.3-3115.8-692.3z M-3136.8-679.7c2.6,0.7,5.3,1.4,8,2.1l3.7,1c0.4,0.1,0.7,0.6,0.6,0.9
						c-1,3.9-2,7.8-3,11.7c-0.1,0.2-0.2,0.4-0.4,0.5c-0.2,0.1-0.4,0.2-0.6,0.1l-4.3-1.3l-6.9-2c-0.2-0.1-0.4-0.2-0.5-0.4
						c-0.1-0.2-0.1-0.3,0-0.6l0-0.4c0.9-3.7,1.7-7.6,2.6-11.2c0.1-0.2,0.2-0.4,0.3-0.5C-3137.2-679.6-3137-679.7-3136.8-679.7z
						 M-3183.4-655l-2.9,11.7c-0.1,0.4-0.5,0.7-0.9,0.6c-3.3-0.8-7.3-1.8-11.4-2.7c-0.2-0.1-0.4-0.2-0.5-0.3
						c-0.1-0.2-0.2-0.4-0.1-0.6c1-3.5,1.9-7.3,3-11.7c0.1-0.2,0.2-0.4,0.4-0.5c0.2-0.1,0.4-0.2,0.6-0.1c1.7,0.5,3.5,0.9,5.1,1.3
						c2.1,0.5,4.2,1,6.2,1.6C-3183.6-655.8-3183.3-655.4-3183.4-655z M-3086.2-738.5c2.8,0.7,5.6,1.3,8.4,2.1l3,0.8
						c0.4,0.1,0.7,0.5,0.6,1l-0.1,0.2l-0.6,2.7c-0.7,2.7-1.3,5.5-2,8.4c-0.1,0.2-0.1,0.4-0.1,0.7c-0.1,0.2-0.1,0.4-0.4,0.6
						c-0.2,0.1-0.4,0.2-0.6,0.1c-3.7-1-7.6-2-11.5-3c-0.2-0.1-0.4-0.2-0.5-0.3c-0.1-0.2-0.1-0.3-0.1-0.5c0.3-1.3,0.6-2.5,0.9-3.7
						l0.3-1.2c0.6-2.3,1.1-4.6,1.7-6.8C-3087-738.3-3086.6-738.6-3086.2-738.5z M-3258.8-638.4c-0.9,3.6-1.8,7.2-2.6,10.7l-0.2,0.9
						c-0.1,0.4-0.5,0.7-0.9,0.6c-3.8-1-7.6-1.9-11.5-2.9c-0.2-0.1-0.4-0.2-0.5-0.4c-0.1-0.2-0.2-0.4-0.1-0.6l0.6-2.4
						c0.8-3,1.6-6.2,2.4-9.3c0.1-0.4,0.5-0.6,0.9-0.6c3.2,0.8,7.2,1.8,11.3,2.9C-3258.9-639.1-3258.7-638.8-3258.8-638.4z
						 M-3194.9-680.6c-0.2,0.1-0.4,0.2-0.6,0.1c-2.2-0.6-4.3-1.1-6.4-1.8l-0.4,0c-1.5-0.4-3.1-0.9-4.8-1.2c-0.2-0.1-0.4-0.2-0.5-0.4
						c-0.1-0.2-0.2-0.4-0.1-0.6l2.9-11.2c0.1-0.4,0.5-0.7,0.9-0.6l3.7,1c2.6,0.7,5.2,1.4,7.7,2c0.4,0.1,0.7,0.5,0.6,0.9l-0.9,4
						c-0.6,2.5-1.2,5-1.8,7.5C-3194.6-680.9-3194.7-680.8-3194.9-680.6z M-3174.6-693.1c-0.1-0.1-0.2-0.1-0.3,0
						c-1.3-0.3-2.6-0.7-3.8-1.1l-0.7-0.2c-2.1-0.6-4.3-1.3-6.5-1.8c-0.2-0.1-0.4-0.2-0.5-0.4c-0.1-0.1-0.2-0.3-0.1-0.5
						c0.2-3.1,1.2-5.9,2.2-8.9c0.3-0.8,0.5-1.5,0.8-2.4c0.2-0.4,0.5-0.6,0.9-0.6c3.8,0.8,7.7,1.7,11.3,2.6c0.2,0.1,0.4,0.2,0.5,0.3
						c0.1,0.2,0.2,0.4,0,0.6c-1.1,4.3-2,8.1-3,11.7C-3173.8-693.3-3174.2-693-3174.6-693.1z M-3153.5-705.8c-1.6-0.3-3-0.7-4.4-1.1
						l-0.2-0.1c-2.2-0.6-4.4-1.1-6.6-1.7c-0.2-0.1-0.4-0.2-0.5-0.3c-0.1-0.2-0.2-0.4-0.1-0.6c0.8-3.4,2-7.4,2.9-11.5
						c0.1-0.2,0.2-0.4,0.3-0.5c0.2-0.1,0.4-0.2,0.6-0.1c2.9,0.8,5.8,1.5,8.7,2.3l2.6,0.7c0.2,0.1,0.4,0.3,0.5,0.4
						c0.1,0.2,0.2,0.4,0.1,0.6c-0.3,1.2-0.7,2.3-1,3.4c-0.3,1.1-0.5,2.1-0.8,3.2l0,0.3c-0.4,1.5-0.7,3-1.1,4.4
						C-3152.7-706.1-3153.2-705.7-3153.5-705.8z M-3140.5-734.4c3.7,0.9,7.7,1.8,11.7,2.8c0.2,0.1,0.4,0,0.5,0.4
						c0.1,0.2,0.2,0.4,0.1,0.6l-3.4,11.6c-0.1,0.4-0.5,0.6-1,0.5l-0.6-0.2c-0.6-0.1-1.2-0.3-1.7-0.5l-2.2-0.6
						c-2.3-0.6-4.5-1.1-6.7-1.6c-0.2-0.1-0.4-0.2-0.5-0.3c-0.1-0.2-0.2-0.4-0.1-0.6l1-3.8c0.7-2.6,1.3-5.1,2-7.7
						C-3141.4-734.2-3141-734.5-3140.5-734.4z M-3250.8-672.8c0.2,0.1,0.4,0.2,0.5,0.4c0.1,0.2,0.2,0.4,0.1,0.6l-3,11.8
						c-0.1,0.4-0.5,0.7-0.9,0.6l-11.4-2.9c-0.2-0.1-0.4-0.2-0.5-0.4c-0.1-0.2-0.2-0.4,0-0.6l0.7-2.6c0.8-3,1.6-6.1,2.3-9
						c0.1-0.4,0.5-0.6,0.9-0.6c3.6,0.9,7.2,1.8,10.8,2.7L-3250.8-672.8z M-3228.5-689c-0.2,0.1-0.4,0.2-0.6,0.1
						c-2.8-0.7-5.6-1.5-8.4-2.3l-3.2-0.8c-0.2-0.1-0.4-0.2-0.5-0.4c-0.1-0.2-0.2-0.4,0-0.6c0.3-1.4,0.7-2.9,1-4.3l0.2-0.9
						c0.5-2.1,1-4.2,1.6-6.3c0.1-0.2,0.2-0.4,0.4-0.5c0.2-0.1,0.4-0.2,0.6-0.1l0.2,0.1l1.6,0.5c3.2,0.8,6.6,1.8,9.9,2.7
						c0.2,0.1,0.4,0.2,0.5,0.4c0.1,0.2,0.2,0.4,0.1,0.6c-0.8,3.2-1.7,6.5-2.5,9.7l-0.5,1.8C-3228.1-689.3-3228.2-689.1-3228.5-689z
						 M-3196.2-730.2c0.2-0.1,0.4-0.2,0.6-0.1c3,0.7,5.9,1.5,8.8,2.3l3.2,0.8c0.2,0.1,0.4,0.2,0.5,0.4c0.1,0.2,0.2,0.4,0.1,0.6
						l-0.3,1.2c-0.7,2.8-1.4,5.7-2.3,8.5c-0.1,0.6-0.3,1.1-0.5,1.5c-0.2,0.4-0.5,0.5-0.9,0.4c-3.6-0.8-7.2-1.7-10.7-2.5l-0.6-0.2
						c-0.2-0.1-0.4-0.2-0.5-0.3c-0.1-0.2-0.1-0.3,0-0.6l2.4-11.5C-3196.5-729.9-3196.4-730-3196.2-730.2z M-3208.2-701.5
						c-3.7-1-7.4-2.1-11.1-3.2c-0.2-0.1-0.4-0.2-0.5-0.4c-0.1-0.2-0.2-0.4,0-0.6c0.6-2.3,1.1-4.6,1.7-6.8l1.1-4.4
						c0.1-0.4,0.5-0.7,0.9-0.6l3.9,0.7c2.4,0.5,5,1,7.3,1.5c0.2,0.1,0.4,0.2,0.5,0.3c0.2,0.3,0.2,0.4,0.1,0.6
						c-0.9,4.1-1.9,8.1-3,12.1c-0.1,0.2-0.2,0.4-0.4,0.5C-3207.9-701.4-3208.1-701.5-3208.2-701.5z M-3153.2-755.3l4.3,1.1
						c2.4,0.6,4.8,1.2,7.1,1.9c0.4,0.1,0.6,0.5,0.6,0.9l-1.4,5.2c-0.5,2.1-1.1,4.1-1.6,6.2c-0.1,0.2-0.2,0.4-0.4,0.5
						c-0.2,0.1-0.4,0.2-0.6,0.1c-2.6-0.7-5.2-1.4-7.7-2l-3.7-0.9c-0.2-0.1-0.4-0.2-0.5-0.4c-0.1-0.2-0.2-0.4-0.1-0.6l2.9-11.5
						c0.1-0.2,0.2-0.4,0.4-0.5C-3153.5-755.4-3153.4-755.4-3153.2-755.3z M-3174.2-743.1c3.4,1,6.9,2.1,11.1,3.2
						c0.4,0.1,0.6,0.5,0.5,1c-0.9,3.7-1.9,7.5-2.8,11.2c-0.1,0.2-0.2,0.4-0.4,0.5s-0.4,0.2-0.6,0.1l-4.2-1.1
						c-2.4-0.6-4.8-1.3-7.2-1.9c-0.2-0.1-0.4-0.2-0.5-0.4c-0.1-0.1-0.1-0.3-0.1-0.5c0-0.3,0-0.5,0.1-0.7c0.5-2.1,1.1-4.2,1.7-6.2
						l0.1-0.2c0.4-1.5,0.9-3,1.2-4.4c0.1-0.2,0.2-0.4,0.4-0.5C-3174.7-743.1-3174.4-743.1-3174.2-743.1z M-3326.2-656.2
						c0.2,0.1,0.4,0.2,0.5,0.4c0.1,0.2,0.2,0.4,0.1,0.6c-0.9,3.6-1.9,7.5-3.2,11.8c-0.1,0.4-0.5,0.6-0.9,0.6l-5-1.3
						c-2.1-0.5-4.1-1.1-6.2-1.6c-0.2-0.1-0.4-0.2-0.5-0.4c-0.1-0.2-0.2-0.4-0.1-0.6c0.5-1.9,1-4,1.6-6.1l0-0.4
						c0.5-1.8,0.9-3.6,1.4-5.4c0.1-0.4,0.5-0.7,0.9-0.6C-3333.7-658.2-3329.8-657.3-3326.2-656.2z M-3220.1-722.8
						c-0.2,0.1-0.4,0.2-0.6,0.1c-4-1.1-8-2.1-11.3-2.9c-0.2-0.1-0.4-0.3-0.5-0.4c-0.1-0.2-0.2-0.4,0-0.6c0.5-1.9,0.9-4,1.5-5.9
						l0.3-1.2c0.4-1.5,0.7-3,1.1-4.5c0.1-0.4,0.5-0.7,1-0.6c0.7,0.1,1.4,0.3,2.2,0.4l0.2,0.1c1.1,0.1,2.1,0.4,3,0.7
						c2,0.6,4,1.1,6.1,1.7c0.4,0.1,0.6,0.5,0.5,1c-1,3.8-2,7.7-2.9,11.5C-3219.8-723-3219.9-722.9-3220.1-722.8z M-3207.7-751.2
						c0.2,0.1,0.5,0.2,0.8,0.2l10.5,2.7c0.4,0.1,0.7,0.5,0.6,0.9c-0.9,3.7-1.8,7.6-2.8,11.4c-0.1,0.4-0.5,0.7-0.9,0.6
						c-4.3-1.1-7.9-2-11.4-2.9l-0.3-0.1c-0.2-0.1-0.4-0.2-0.5-0.4c-0.1-0.2-0.2-0.4,0-0.6l0.1-0.4c1.2-4,2.1-7.4,3-10.8
						c0.1-0.2,0.2-0.4,0.4-0.5C-3208.1-751.2-3207.9-751.2-3207.7-751.2z M-3249.5-726.3c0.2,0.1,0.4,0.1,0.6,0.2
						c1.7,0.5,3.5,1,5.3,1.4l0.4,0c1.9,0.6,3.8,1,5.6,1.6c0.4,0.1,0.6,0.5,0.5,1c-1.1,4-2,7.6-3,11.3c-0.1,0.4-0.5,0.7-0.9,0.6
						c-3.4-0.7-7-1.5-11.4-2.6c-0.2-0.1-0.4-0.1-0.6-0.2c-0.2-0.1-0.3-0.1-0.4-0.3c-0.1-0.2-0.2-0.4-0.1-0.6c0.9-3.7,2-7.7,3-11.5
						l0.1-0.4C-3250.2-726.2-3249.8-726.5-3249.5-726.3z M-3317.4-688.8c-0.8,3.4-1.7,6.8-2.6,10.2l-0.3,1.4
						c-0.1,0.4-0.5,0.7-0.9,0.6l-5.2-1.4c-2-0.6-4-1-6.1-1.6c-0.2-0.1-0.4-0.2-0.5-0.4c-0.1-0.2-0.2-0.4-0.1-0.6
						c1.1-4.1,2.1-8.1,2.9-11.6c0.1-0.2,0.2-0.4,0.4-0.5c0.2-0.1,0.4-0.2,0.6-0.1l1.5,0.4c3.3,0.8,6.6,1.7,9.9,2.5
						C-3317.5-689.7-3317.3-689.2-3317.4-688.8z M-3253.9-731.2c-3.7-0.9-7.5-1.9-11.2-2.8c-0.2-0.1-0.4-0.2-0.5-0.4l0,0
						c-0.1-0.2-0.2-0.4-0.1-0.6c0.1-0.2,0.1-0.4,0.2-0.6l0.6-2.2c0.7-2.9,1.5-5.8,2.1-8.8c0.1-0.4,0.5-0.7,1-0.6
						c1.2,0.3,2.4,0.5,3.6,0.9c0.8,0.2,1.6,0.5,2.5,0.7l0.2,0.1c1.4,0.5,3,0.9,4.5,1.2l0.4,0.1c0.2,0.1,0.4,0.2,0.5,0.3
						c0.2,0.3,0.2,0.4,0.1,0.6c-0.8,3.4-1.7,6.9-2.6,10.2l-0.3,1.3C-3253.1-731.3-3253.5-731-3253.9-731.2z M-3220.2-772.3l3.2,0.8
						c2.8,0.7,5.6,1.5,8.5,2.1c0.2,0.1,0.4,0.2,0.5,0.4c0.1,0.2,0.2,0.4,0.1,0.6c-0.6,2.2-1.1,4.3-1.6,6.4l-1.2,4.8
						c-0.1,0.2-0.2,0.4-0.4,0.5c-0.2,0.1-0.4,0.2-0.6,0.1l-2.2-0.6c-3.1-0.9-6.2-1.6-9.4-2.4c-0.2-0.1-0.4-0.2-0.5-0.4
						c-0.1-0.2-0.2-0.4,0-0.6c0.9-3.6,1.8-7.2,2.6-10.7l0.2-0.5c0.1-0.2,0.2-0.4,0.4-0.5C-3220.7-772.3-3220.5-772.3-3220.2-772.3z
						 M-3338.9-730c0.2-0.2,0.4-0.3,0.7-0.3c0.5,0,0.9,0.1,1.1,0.1c3.2,0.7,6.6,1.6,9.7,2.4l1,0.2c0.4,0,0.6,0.4,0.6,0.8l0,0.8
						c0,0.1,0,0.3,0,0.4c-1,3.5-1.9,7-2.9,10.5c-0.1,0.2-0.2,0.4-0.4,0.5c-0.2,0.1-0.4,0.2-0.6,0c-0.7-0.2-1.4-0.5-2.2-0.6
						c-1.1-0.2-2.3-0.6-3.5-0.8l-0.6-0.1c-1.7-0.5-3.5-0.8-5.3-1.3c-0.2-0.1-0.4-0.2-0.5-0.4c-0.1-0.2-0.1-0.3,0-0.6
						c0.9-3.7,1.7-7.6,2.6-11.5C-3338.9-729.7-3338.9-730-3338.9-730z M-3350.4-701.9c-4.5-1.1-8.2-2-11.7-2.9
						c-0.2-0.1-0.4-0.2-0.5-0.4c-0.1-0.2-0.2-0.4-0.1-0.6c0.9-3.3,1.8-6.7,2.7-10l0.3-1.2c0.1-0.4,0.5-0.6,0.9-0.6l3.8,1
						c2.5,0.6,5.1,1.3,7.7,1.8c0.2,0.1,0.4,0.2,0.5,0.3c0.1,0.2,0.2,0.4,0.1,0.6c-0.7,2.6-1.4,5.2-2,7.9l-0.8,3.5
						C-3349.6-702.1-3350-701.8-3350.4-701.9z M-3308.5-726.9l-0.9-0.2c-3.5-0.9-6.9-2-10.4-2.9c-0.2-0.1-0.4-0.3-0.5-0.5
						c-0.1-0.2-0.1-0.3-0.1-0.5c0.6-2.3,1.1-4.7,1.7-7c0.4-1.5,0.8-3,1.1-4.5c0.1-0.2,0.2-0.4,0.4-0.5c0.2-0.1,0.4-0.2,0.6-0.1
						c4,1.1,7.9,2.2,11.3,3.2c0.1,0.1,0.2,0.1,0.3,0.1c0.2,0.2,0.4,0.5,0.3,0.8c-0.6,2.2-1.1,4.3-1.6,6.4l-1.3,5
						c-0.1,0.2-0.3,0.4-0.4,0.6C-3308-727-3308.2-726.8-3308.5-726.9z M-3287.5-739.7l-2.4-0.5c-3.1-0.7-6.1-1.5-9.2-2.2
						c-0.2-0.1-0.4-0.2-0.5-0.4c-0.1-0.2-0.2-0.4-0.1-0.6l0.5-1.8c0.8-3,1.6-6.1,2.5-9c0.1-0.2,0.2-0.5,0.4-0.9
						c0.1-0.3,0.5-0.4,0.8-0.4c0.6,0,1,0.1,1.3,0.2c1.8,0.5,3.7,1.1,5.4,1.6c1.5,0.4,3,0.9,4.6,1.4c0.4,0.1,0.6,0.5,0.5,1
						c-0.6,2.2-1.2,4.7-1.8,6.9l-1.1,4.5C-3286.7-739.8-3287.1-739.6-3287.5-739.7z M-3274.6-768.5l11.8,3c0.4,0.1,0.7,0.5,0.6,0.9
						c-0.1,0.2-0.1,0.4-0.2,0.6c-0.6,2-1.2,4-1.7,6l-1.4,5c-0.1,0.4-0.5,0.6-1,0.5c-3.8-1-7.5-1.9-11.3-2.9
						c-0.2-0.1-0.4-0.2-0.5-0.4c-0.1-0.2-0.2-0.4,0-0.6l1.1-4.4c0.5-2.1,1-4.2,1.5-6.3c0-0.4,0.1-0.7,0.2-1c0.1-0.2,0.2-0.4,0.3-0.5
						C-3275.1-768.5-3274.9-768.5-3274.6-768.5z M-3287-789.3l4.1,1.1c2.3,0.6,4.7,1.2,7,1.7c0.2,0.1,0.4,0.2,0.5,0.4
						c0.1,0.2,0.2,0.4,0.1,0.6c-0.9,3.3-1.7,6.6-2.5,9.8l-0.5,1.9c-0.1,0.2-0.2,0.4-0.3,0.5c-0.2,0.1-0.4,0.2-0.7,0
						c-3.5-1-6.9-2-10.3-2.9l-1-0.4c-0.2-0.1-0.4-0.2-0.5-0.4c-0.1-0.2-0.2-0.4-0.1-0.6c0.6-2,1.1-4.1,1.7-6.2l1.4-5.1
						C-3287.9-789-3287.4-789.4-3287-789.3z M-3299.5-760.9c-0.2,0.1-0.4,0.2-0.6,0.1l-3.9-1c-2.5-0.8-5.1-1.4-7.6-2.1
						c-0.2-0.1-0.4-0.2-0.5-0.4c-0.1-0.2-0.2-0.4-0.1-0.6c0.2-0.7,0.4-1.4,0.7-2c0.3-0.9,0.7-1.8,0.9-2.8c0.5-1.9,1.1-4,1.6-6.2
						c0.1-0.2,0.2-0.4,0.4-0.5c0.2-0.1,0.4-0.2,0.6-0.1c3.4,0.8,7,1.7,11.2,2.9c0.4,0.1,0.7,0.6,0.6,0.9c-1,4-2.1,8-2.9,11.3
						C-3299.2-761.3-3299.4-761-3299.5-760.9z M-3329.1-764.3c2.4,0.8,4.8,1.5,7.3,2.1l4,1.2c0.4,0,0.5,0.5,0.5,0.8
						c-0.8,3.5-1.7,6.9-2.5,10l-0.4,1.5c-0.1,0.4-0.5,0.6-0.9,0.6l-3.2-0.8c-2.7-0.7-5.5-1.4-8.3-2.1c-0.2-0.1-0.4-0.2-0.5-0.4
						c-0.1-0.2-0.2-0.4-0.1-0.6c1-4,2.1-8,3-11.7c0.1-0.2,0.2-0.4,0.4-0.5C-3329.6-764.4-3329.3-764.4-3329.1-764.3z M-3352.9-738.3
						c-0.3-0.1-0.5-0.2-0.7-0.2c-0.2-0.1-0.4-0.2-0.4-0.3s-0.1-0.3-0.1-0.5c0-0.1,0-0.4,0.2-0.6c0.3-1.1,0.5-2.2,0.8-3.3l0.2-0.6
						c0.5-2.2,1.1-4.5,1.5-6.8c0.1-0.2,0.2-0.5,0.4-0.6c0.2-0.1,0.4-0.2,0.6-0.1c0.2,0.1,0.5,0.2,0.8,0.2l3.9,1
						c2.3,0.6,4.7,1.2,7.1,1.7c0.2,0.1,0.4,0.2,0.5,0.3c0.1,0.2,0.2,0.4,0.1,0.6c-0.6,2.4-1.2,4.9-1.9,7.3l-1.1,4.3
						c-0.1,0.4-0.5,0.7-0.9,0.6C-3345.6-736.4-3349.3-737.4-3352.9-738.3z"/>
				</g>
			</g>
		</g>
		<path id="XMLID_55_" fill="#FFFFFF" fill-opacity="0.65" d="M-2823.4-439.2l0-1.5l33.4-19.9l776.4-11.3l12.4,20.7L-2823.4-439.2z"
			/>
		<path id="XMLID_52_" fill="#FFFFFF" fill-opacity="0.9" d="M-1992.4-436.2l-859.8,12.5l-15.7,9.4l876.7-12.7
			C-1990.6-430-1991-433.3-1992.4-436.2z"/>
		<g id="XMLID_50_" transform="matrix(1,0,0,1,0.055047,-3.13662)">
			<circle id="XMLID_51_" fill="#666666" cx="-2858.3" cy="-158.7" r="32.5"/>
		</g>
	</g>
	<g id="XMLID_199_">
		
			<rect id="XMLID_395_" x="642.8" y="28.9" transform="matrix(-0.868 -0.4966 0.4966 -0.868 1290.8788 493.6535)" fill="#3A81C9" width="136.5" height="92.7"/>
		
			<rect id="XMLID_392_" x="670.7" y="18.1" transform="matrix(-0.868 -0.4966 0.4966 -0.868 1367.3064 416.2522)" fill="#1B2D49" width="136.5" height="16.6"/>
		<g id="XMLID_385_">
			<line id="XMLID_389_" fill="none" stroke="#3A81C9" stroke-miterlimit="10" x1="683.6" y1="-2.4" x2="791.9" y2="59.6"/>
			<line id="XMLID_386_" fill="none" stroke="#3A81C9" stroke-miterlimit="10" x1="686.1" y1="-6.8" x2="794.4" y2="55.2"/>
		</g>
		
			<rect id="XMLID_382_" x="669" y="22" transform="matrix(-0.868 -0.4966 0.4966 -0.868 1255.2334 384.9261)" fill="#F5E5EE" width="19.5" height="7.2"/>
		
			<rect id="XMLID_379_" x="663.8" y="31.1" transform="matrix(-0.868 -0.4966 0.4966 -0.868 1240.9639 399.2926)" fill="#F5E5EE" width="19.5" height="7.2"/>
		
			<rect id="XMLID_376_" x="658.6" y="40.1" transform="matrix(-0.868 -0.4966 0.4966 -0.868 1226.8301 413.5214)" fill="#F5E5EE" width="19.5" height="7.2"/>
		
			<rect id="XMLID_373_" x="653.5" y="49.1" transform="matrix(-0.868 -0.4966 0.4966 -0.868 1212.8339 427.8861)" fill="#F5E5EE" width="19.5" height="7.2"/>
		
			<rect id="XMLID_370_" x="648.3" y="58.2" transform="matrix(-0.868 -0.4966 0.4966 -0.868 1198.5643 442.2526)" fill="#F5E5EE" width="19.5" height="7.2"/>
		
			<rect id="XMLID_367_" x="643.1" y="67.2" transform="matrix(-0.868 -0.4966 0.4966 -0.868 1184.4307 456.4814)" fill="#F5E5EE" width="19.5" height="7.2"/>
		
			<rect id="XMLID_364_" x="637.9" y="76.3" transform="matrix(-0.868 -0.4966 0.4966 -0.868 1170.161 470.8476)" fill="#F5E5EE" width="19.5" height="7.2"/>
		
			<rect id="XMLID_361_" x="689.3" y="35.9" transform="matrix(-0.868 -0.4966 0.4966 -0.868 1293.3264 422.764)" fill="#F1496E" width="27.1" height="7.2"/>
		
			<rect id="XMLID_358_" x="684.2" y="44.9" transform="matrix(-0.868 -0.4966 0.4966 -0.868 1279.3302 437.1288)" fill="#F3696F" width="27.1" height="7.2"/>
		
			<rect id="XMLID_355_" x="679" y="53.9" transform="matrix(-0.868 -0.4966 0.4966 -0.868 1265.1965 451.3577)" fill="#F5806D" width="27.1" height="7.2"/>
		
			<rect id="XMLID_352_" x="673.8" y="63" transform="matrix(-0.868 -0.4966 0.4966 -0.868 1250.927 465.7242)" fill="#F69971" width="27.1" height="7.2"/>
		
			<rect id="XMLID_349_" x="668.7" y="72" transform="matrix(-0.868 -0.4966 0.4966 -0.868 1236.9307 480.0888)" fill="#F8B86E" width="27.1" height="7.2"/>
		
			<rect id="XMLID_346_" x="663.5" y="81.1" transform="matrix(-0.868 -0.4966 0.4966 -0.868 1222.6611 494.4551)" fill="#F9C66E" width="27.1" height="7.2"/>
		
			<rect id="XMLID_343_" x="658.3" y="90.1" transform="matrix(-0.868 -0.4966 0.4966 -0.868 1208.5275 508.6842)" fill="#F9D114" width="27.1" height="7.2"/>
		
			<rect id="XMLID_340_" x="733.2" y="60.9" transform="matrix(-0.868 -0.4966 0.4966 -0.868 1362.9448 491.3698)" fill="#F34970" width="27.1" height="7.2"/>
		
			<rect id="XMLID_337_" x="728" y="70" transform="matrix(-0.868 -0.4966 0.4966 -0.868 1348.6753 505.7363)" fill="#EE6085" width="27.1" height="7.2"/>
		
			<rect id="XMLID_334_" x="722.8" y="79" transform="matrix(-0.868 -0.4966 0.4966 -0.868 1334.5416 519.9651)" fill="#EC799C" width="27.1" height="7.2"/>
		
			<rect id="XMLID_331_" x="717.6" y="88.1" transform="matrix(-0.868 -0.4966 0.4966 -0.868 1320.2721 534.3315)" fill="#EC9AB3" width="27.1" height="7.2"/>
		
			<rect id="XMLID_328_" x="712.5" y="97.1" transform="matrix(-0.868 -0.4966 0.4966 -0.868 1306.2758 548.6963)" fill="#E9AFC1" width="27.1" height="7.2"/>
		
			<rect id="XMLID_325_" x="707.3" y="106.1" transform="matrix(-0.868 -0.4966 0.4966 -0.868 1292.1421 562.9252)" fill="#E4C6D1" width="27.1" height="7.2"/>
		
			<rect id="XMLID_322_" x="702.1" y="115.2" transform="matrix(-0.868 -0.4966 0.4966 -0.868 1277.8726 577.2914)" fill="#F4E5EB" width="27.1" height="7.2"/>
		
			<rect id="XMLID_319_" x="760.5" y="74.4" transform="matrix(-0.868 -0.4966 0.4966 -0.868 1400.0703 528.246)" fill="#F8E5EE" width="19.5" height="7.2"/>
		
			<rect id="XMLID_316_" x="755.3" y="83.4" transform="matrix(-0.868 -0.4966 0.4966 -0.868 1385.9366 542.475)" fill="#F8E5EE" width="19.5" height="7.2"/>
		
			<rect id="XMLID_313_" x="750.1" y="92.4" transform="matrix(-0.868 -0.4966 0.4966 -0.868 1371.8029 556.7038)" fill="#F8E5EE" width="19.5" height="7.2"/>
		
			<rect id="XMLID_310_" x="744.9" y="101.5" transform="matrix(-0.868 -0.4966 0.4966 -0.868 1357.5333 571.0701)" fill="#F8E5EE" width="19.5" height="7.2"/>
		
			<rect id="XMLID_307_" x="739.8" y="110.5" transform="matrix(-0.868 -0.4966 0.4966 -0.868 1343.5371 585.435)" fill="#F8E5EE" width="19.5" height="7.2"/>
		
			<rect id="XMLID_304_" x="734.6" y="119.6" transform="matrix(-0.868 -0.4966 0.4966 -0.868 1329.2676 599.8013)" fill="#F8E5EE" width="19.5" height="7.2"/>
		
			<rect id="XMLID_301_" x="729.4" y="128.6" transform="matrix(-0.868 -0.4966 0.4966 -0.868 1315.1337 614.0301)" fill="#F8E5EE" width="19.5" height="7.2"/>
		<g id="XMLID_288_">
			<g id="XMLID_594_">
				<path id="XMLID_598_" fill="#F5E5EE" d="M675,14.1l2-3.5l0.5,0.3l-0.1,0.3c0.1-0.1,0.3-0.1,0.5-0.1c0.2,0,0.3,0.1,0.4,0.2
					c0.1,0.1,0.2,0.2,0.3,0.3c0.1,0.1,0.1,0.2,0.2,0.3c0.1,0.2,0.1,0.4,0.1,0.7c0,0.2-0.1,0.5-0.3,0.7c-0.1,0.3-0.3,0.5-0.5,0.6
					c-0.2,0.1-0.4,0.2-0.6,0.3c-0.1,0-0.2,0-0.4,0c-0.1,0-0.2-0.1-0.4-0.1c-0.2-0.1-0.3-0.2-0.4-0.3c-0.1-0.1-0.1-0.2-0.2-0.3
					l-0.7,1.2L675,14.1z M677,12c-0.1,0.1-0.1,0.2-0.2,0.3c-0.1,0.1-0.1,0.2-0.1,0.3c0,0.1-0.1,0.2-0.1,0.3c0,0.1,0,0.2,0.1,0.3
					c0,0.1,0.1,0.2,0.2,0.2c0.1,0.1,0.2,0.1,0.3,0.1c0.1,0,0.2,0,0.3,0s0.2-0.1,0.3-0.2c0.1-0.1,0.2-0.2,0.2-0.3
					c0.1-0.1,0.1-0.2,0.2-0.4c0-0.1,0.1-0.2,0-0.4c0-0.1,0-0.2-0.1-0.2c0-0.1-0.1-0.1-0.2-0.2c-0.1-0.1-0.2-0.1-0.3-0.1
					c-0.1,0-0.2,0-0.3,0.1C677.2,11.8,677.1,11.9,677,12z"/>
				<path id="XMLID_595_" fill="#F5E5EE" d="M678.5,14.9l2-3.5l0.6,0.4l-0.8,1.4l1.4,0.8l0.8-1.4l0.6,0.4l-2,3.5l-0.6-0.4l0.9-1.5
					l-1.4-0.8l-0.9,1.5L678.5,14.9z"/>
			</g>
		</g>
		<g id="XMLID_255_">
			<g id="XMLID_755_">
				<path id="XMLID_784_" fill="#F5E5EE" d="M696.1,25l2-3.5l1.4,0.8c0.2,0.1,0.4,0.2,0.5,0.4c0.1,0.1,0.2,0.3,0.3,0.4
					c0,0.2,0.1,0.3,0,0.5c0,0.2-0.1,0.3-0.2,0.5c-0.1,0.2-0.2,0.3-0.3,0.4c-0.1,0.1-0.3,0.2-0.4,0.2c-0.2,0-0.3,0-0.5,0
					c-0.2,0-0.4-0.1-0.6-0.2l-0.7-0.4l-0.7,1.2L696.1,25z M697.8,23.5l0.7,0.4c0.2,0.1,0.4,0.2,0.5,0.1c0.2,0,0.3-0.2,0.4-0.3
					c0.1-0.2,0.1-0.3,0.1-0.5s-0.2-0.3-0.4-0.4l-0.7-0.4L697.8,23.5z"/>
				<path id="XMLID_782_" fill="#F5E5EE" d="M699.1,26.7l2-3.5l0.6,0.3l-0.7,1.3c0.1-0.1,0.3-0.1,0.4-0.1c0.2,0,0.3,0.1,0.4,0.1
					c0.1,0.1,0.2,0.2,0.3,0.3c0.1,0.1,0.1,0.2,0.2,0.3c0,0.1,0,0.3,0,0.4s-0.1,0.3-0.1,0.4l-1,1.7l-0.6-0.3l0.9-1.6
					c0.1-0.1,0.1-0.3,0.1-0.4s-0.1-0.2-0.3-0.3c-0.1-0.1-0.2-0.1-0.3-0.1c-0.1,0-0.2,0-0.3,0.1c-0.1,0-0.2,0.1-0.2,0.2
					c-0.1,0.1-0.1,0.1-0.2,0.2l-0.8,1.3L699.1,26.7z"/>
				<path id="XMLID_763_" fill="#F5E5EE" d="M702.5,27c0.1-0.2,0.3-0.4,0.4-0.5c0.2-0.1,0.3-0.2,0.5-0.3c0.1,0,0.3-0.1,0.5,0
					c0.2,0,0.3,0.1,0.5,0.2c0.2,0.1,0.3,0.2,0.5,0.4c0.1,0.2,0.2,0.4,0.2,0.6s0,0.4-0.1,0.5c-0.1,0.2-0.1,0.3-0.2,0.5c0,0,0,0,0,0.1
					l-0.1,0.1l-1.7-1c-0.1,0.1-0.1,0.2-0.1,0.3c0,0.1,0,0.2,0,0.3c0,0.1,0.1,0.1,0.1,0.2s0.1,0.1,0.2,0.2c0.1,0.1,0.2,0.1,0.2,0.1
					c0.1,0,0.1,0,0.2,0s0.2-0.1,0.2-0.2l0.6,0.3c0,0.1-0.1,0.1-0.2,0.2c-0.1,0.1-0.2,0.1-0.3,0.1c-0.2,0.1-0.4,0.1-0.5,0.1
					c-0.2,0-0.4-0.1-0.5-0.2c-0.2-0.1-0.3-0.2-0.4-0.3c-0.1-0.1-0.2-0.3-0.2-0.4c-0.1-0.2-0.1-0.4,0-0.6
					C702.4,27.4,702.4,27.2,702.5,27z M703.3,27.1l1.1,0.6c0.1-0.2,0.1-0.4,0.1-0.6c0-0.1,0-0.1-0.1-0.2c-0.1-0.1-0.1-0.1-0.2-0.2
					c-0.1-0.1-0.2-0.1-0.3-0.1c-0.1,0-0.2,0-0.3,0c-0.1,0-0.1,0.1-0.2,0.1C703.4,26.9,703.3,27,703.3,27.1z"/>
				<path id="XMLID_761_" fill="#F5E5EE" d="M704.7,29.9l1.4-2.5l0.5,0.3l-0.1,0.4c0.2-0.1,0.3-0.1,0.5-0.1c0.2,0,0.3,0.1,0.5,0.1
					c0.1,0.1,0.2,0.2,0.3,0.3c0.1,0.1,0.1,0.2,0.2,0.3c0,0.1,0,0.2,0,0.4c0,0.1-0.1,0.3-0.1,0.4l-1,1.7l-0.6-0.3l0.9-1.5
					c0.1-0.1,0.1-0.3,0.1-0.4s-0.1-0.2-0.3-0.3c-0.1-0.1-0.2-0.1-0.3-0.1c-0.1,0-0.2,0.1-0.3,0.1c-0.1,0.1-0.2,0.2-0.3,0.3
					c-0.1,0.1-0.1,0.2-0.2,0.3l-0.6,1L704.7,29.9z"/>
				<path id="XMLID_758_" fill="#F5E5EE" d="M707.9,30.7c0-0.2,0.1-0.4,0.2-0.6c0.1-0.2,0.2-0.4,0.4-0.5c0.1-0.1,0.3-0.2,0.4-0.3
					c0.1-0.1,0.3-0.1,0.5-0.1s0.4,0.1,0.6,0.2c0.2,0.1,0.3,0.3,0.5,0.4c0.1,0.2,0.2,0.3,0.2,0.5s0,0.3,0,0.5s-0.1,0.4-0.2,0.6
					c-0.1,0.2-0.2,0.4-0.4,0.5c-0.1,0.1-0.3,0.2-0.4,0.3c-0.1,0.1-0.3,0.1-0.5,0.1s-0.4-0.1-0.6-0.2c-0.2-0.1-0.3-0.3-0.5-0.4
					c-0.1-0.2-0.2-0.3-0.2-0.5C707.9,31.1,707.9,30.9,707.9,30.7z M709,30.2c-0.1,0.1-0.2,0.2-0.2,0.3c-0.1,0.1-0.1,0.2-0.2,0.4
					c0,0.1,0,0.2,0,0.4c0,0.1,0,0.1,0.1,0.2c0,0.1,0.1,0.1,0.2,0.2c0.1,0,0.2,0.1,0.3,0.1s0.2,0,0.2,0c0.1,0,0.2-0.1,0.3-0.2
					s0.2-0.2,0.2-0.3c0.1-0.1,0.1-0.2,0.2-0.4c0-0.1,0-0.2,0-0.4c0-0.1,0-0.1-0.1-0.2c0-0.1-0.1-0.1-0.2-0.2c-0.1,0-0.2-0.1-0.2-0.1
					c-0.1,0-0.2,0-0.2,0C709.2,30,709.1,30.1,709,30.2z"/>
				<path id="XMLID_756_" fill="#F5E5EE" d="M710.7,32.5l1.6-2.9l0.6,0.3l-1.6,2.8c0,0.1-0.1,0.1-0.1,0.2s0.1,0.1,0.2,0.2
					c0,0,0,0,0.1,0l0,0l-0.3,0.5c-0.1,0-0.1,0-0.1-0.1c0,0-0.1,0-0.1-0.1c-0.2-0.1-0.3-0.3-0.4-0.4
					C710.6,32.9,710.6,32.7,710.7,32.5z"/>
			</g>
		</g>
		<g id="XMLID_244_">
			<g id="XMLID_562_">
				<path id="XMLID_565_" fill="#F5E5EE" d="M740.7,48.2c0.1-0.1,0.2-0.3,0.2-0.4c0.1-0.1,0.2-0.2,0.3-0.3s0.2-0.2,0.3-0.3
					c0.1-0.1,0.2-0.1,0.4-0.2c0.2-0.1,0.4-0.1,0.6,0c0.2,0,0.4,0.1,0.6,0.2c0.2,0.1,0.3,0.2,0.5,0.4c0.1,0.2,0.2,0.3,0.3,0.6
					c0,0.2,0,0.3,0,0.5s-0.1,0.3-0.1,0.5l-0.6-0.4c0-0.1,0.1-0.2,0.1-0.2c0-0.1,0-0.1,0-0.2s-0.1-0.2-0.1-0.3
					c-0.1-0.1-0.2-0.2-0.3-0.2c-0.1-0.1-0.2-0.1-0.3-0.1s-0.2,0-0.3,0c-0.1,0-0.2,0.1-0.3,0.1c-0.1,0.1-0.2,0.1-0.2,0.2
					c-0.1,0.1-0.1,0.2-0.2,0.3c-0.1,0.1-0.1,0.2-0.1,0.2c0,0.1-0.1,0.2-0.1,0.3c0,0.1-0.1,0.2-0.1,0.3c0,0.1-0.1,0.2-0.1,0.3
					s0,0.2,0,0.3c0,0.1,0.1,0.2,0.1,0.3c0.1,0.1,0.2,0.2,0.3,0.2c0.1,0.1,0.2,0.1,0.3,0.1c0.1,0,0.2,0,0.3,0
					c0.2-0.1,0.3-0.2,0.4-0.3l0.6,0.4c-0.1,0.1-0.2,0.2-0.3,0.3c-0.1,0.1-0.3,0.2-0.4,0.2c-0.2,0.1-0.4,0.1-0.6,0
					c-0.2,0-0.4-0.1-0.6-0.2c-0.2-0.1-0.3-0.2-0.5-0.4c-0.1-0.2-0.2-0.3-0.3-0.5c0-0.1-0.1-0.3-0.1-0.4s0-0.3,0.1-0.4
					c0-0.1,0.1-0.3,0.2-0.4C740.6,48.5,740.6,48.3,740.7,48.2z"/>
				<path id="XMLID_563_" fill="#F5E5EE" d="M743,51.8l2-3.5l0.6,0.4l-2,3.5L743,51.8z"/>
			</g>
		</g>
		<g id="XMLID_223_">
			<g id="XMLID_647_">
				<path id="XMLID_674_" fill="#F5E5EE" d="M753.8,58l2-3.5l1.3,0.8c0.2,0.1,0.4,0.2,0.5,0.4c0.1,0.2,0.2,0.3,0.3,0.5
					c0,0.1,0,0.3,0,0.4s0,0.3-0.1,0.4c0,0.1-0.1,0.3-0.1,0.4c-0.1,0.1-0.1,0.2-0.2,0.4c-0.1,0.1-0.1,0.2-0.2,0.4
					c-0.1,0.1-0.2,0.2-0.3,0.3c-0.1,0.1-0.2,0.2-0.3,0.3c-0.1,0.1-0.2,0.1-0.4,0.2c-0.2,0.1-0.4,0.1-0.6,0c-0.2,0-0.4-0.1-0.6-0.2
					L753.8,58z M754.7,57.7l0.7,0.4c0.1,0.1,0.2,0.1,0.3,0.1c0.1,0,0.2,0,0.3,0s0.2-0.1,0.3-0.1c0.1-0.1,0.1-0.1,0.2-0.2
					s0.1-0.2,0.2-0.2c0.1-0.1,0.1-0.2,0.1-0.2c0-0.1,0.1-0.2,0.1-0.2s0.1-0.2,0.1-0.3c0-0.1,0.1-0.2,0.1-0.3c0-0.1,0-0.2,0-0.3
					c0-0.1-0.1-0.2-0.1-0.3c-0.1-0.1-0.1-0.2-0.2-0.2l-0.7-0.4L754.7,57.7z"/>
				<path id="XMLID_664_" fill="#F5E5EE" d="M757.1,59.9l2-3.5l1.4,0.8c0.2,0.1,0.4,0.2,0.5,0.4s0.2,0.3,0.3,0.4
					c0,0.2,0.1,0.3,0,0.5c0,0.2-0.1,0.3-0.2,0.5s-0.2,0.3-0.3,0.4c-0.1,0.1-0.3,0.2-0.4,0.2c-0.2,0-0.3,0-0.5,0
					c-0.2,0-0.4-0.1-0.6-0.2l-0.7-0.4l-0.7,1.2L757.1,59.9z M758.8,58.4l0.7,0.4c0.2,0.1,0.4,0.2,0.5,0.1c0.2,0,0.3-0.2,0.4-0.3
					c0.1-0.2,0.1-0.3,0.1-0.5s-0.2-0.3-0.4-0.4l-0.7-0.4L758.8,58.4z"/>
				<path id="XMLID_649_" fill="#F5E5EE" d="M760.1,61.6l2-3.5l1.3,0.8c0.2,0.1,0.4,0.2,0.5,0.4c0.1,0.2,0.2,0.3,0.3,0.5
					c0,0.1,0,0.3,0,0.4s0,0.3-0.1,0.4c0,0.1-0.1,0.3-0.1,0.4c-0.1,0.1-0.1,0.2-0.2,0.4c-0.1,0.1-0.1,0.2-0.2,0.4
					c-0.1,0.1-0.2,0.2-0.3,0.3c-0.1,0.1-0.2,0.2-0.3,0.3c-0.1,0.1-0.2,0.1-0.4,0.2c-0.2,0.1-0.4,0.1-0.6,0c-0.2,0-0.4-0.1-0.6-0.2
					L760.1,61.6z M761.1,61.4l0.7,0.4c0.1,0.1,0.2,0.1,0.3,0.1c0.1,0,0.2,0,0.3,0s0.2-0.1,0.3-0.1c0.1-0.1,0.1-0.1,0.2-0.2
					c0.1-0.1,0.1-0.2,0.2-0.2c0.1-0.1,0.1-0.2,0.1-0.2c0-0.1,0.1-0.2,0.1-0.3s0.1-0.2,0.1-0.3c0-0.1,0.1-0.2,0.1-0.3
					c0-0.1,0-0.2,0-0.3c0-0.1-0.1-0.2-0.1-0.3c-0.1-0.1-0.1-0.2-0.2-0.2l-0.7-0.4L761.1,61.4z"/>
			</g>
		</g>
		<g id="XMLID_200_">
			<g id="XMLID_681_">
				<path id="XMLID_694_" fill="#F5E5EE" d="M771.9,68.3l1.4-2.5l0.5,0.3l-0.1,0.4c0.1-0.1,0.3-0.1,0.5-0.1c0.2,0,0.3,0,0.5,0.1
					c0.2,0.1,0.3,0.2,0.4,0.4c0.1,0.1,0.1,0.3,0.1,0.5c0.2-0.1,0.3-0.1,0.5-0.1c0.2,0,0.3,0.1,0.5,0.2c0.3,0.2,0.4,0.4,0.5,0.6
					c0,0.2,0,0.5-0.2,0.8l-1,1.7l-0.6-0.3l0.9-1.6c0.1-0.2,0.1-0.3,0.1-0.4s-0.1-0.2-0.2-0.3c-0.1,0-0.2-0.1-0.3-0.1
					c-0.1,0-0.2,0-0.2,0.1c-0.1,0-0.2,0.1-0.2,0.2c-0.1,0.1-0.1,0.1-0.2,0.2l-0.8,1.4l-0.6-0.3l0.9-1.6c0.1-0.2,0.1-0.3,0.1-0.4
					s-0.1-0.2-0.2-0.3c-0.1,0-0.2-0.1-0.3-0.1s-0.2,0-0.2,0.1c-0.1,0-0.2,0.1-0.2,0.2c-0.1,0.1-0.1,0.1-0.2,0.2l-0.8,1.4L771.9,68.3
					z"/>
				<path id="XMLID_689_" fill="#F5E5EE" d="M775.8,71.1c0.1-0.1,0.1-0.2,0.3-0.3c0.1-0.1,0.2-0.1,0.3-0.1c-0.1-0.1-0.1-0.2-0.1-0.3
					c0-0.1,0-0.2,0.1-0.3c0.1-0.2,0.3-0.3,0.6-0.3c0-0.1,0-0.2,0-0.4s0.1-0.3,0.1-0.4c0.1-0.2,0.2-0.3,0.3-0.4
					c0.1-0.1,0.3-0.1,0.4-0.2c0.1,0,0.3,0,0.4,0c0.2,0,0.3,0.1,0.4,0.2c0.1,0.1,0.2,0.1,0.3,0.2c0.1,0.1,0.1,0.2,0.2,0.3
					c0.1-0.1,0.2-0.1,0.4-0.1c0.1,0,0.2,0,0.4,0.1h0.1c0,0,0.1,0,0.1,0.1l-0.3,0.5l0,0c-0.1,0-0.1-0.1-0.2-0.1c-0.1,0-0.1,0-0.2,0.1
					c0,0.2,0,0.4-0.1,0.5s-0.2,0.3-0.3,0.3c-0.1,0.1-0.3,0.1-0.4,0.2c-0.1,0-0.3,0-0.4,0c-0.2,0-0.3-0.1-0.4-0.2
					c-0.1-0.1-0.3-0.2-0.4-0.3h-0.1c0,0-0.1,0-0.1,0.1s0,0.1,0,0.2s0.1,0.1,0.1,0.1l0.4,0.2c0.1,0,0.1,0.1,0.2,0.1s0.1,0.1,0.2,0.1
					c0.1,0.1,0.1,0.1,0.2,0.2s0.1,0.1,0.1,0.2c0.1,0.1,0.1,0.3,0.1,0.4s-0.1,0.3-0.1,0.4c-0.1,0.2-0.2,0.3-0.3,0.3
					c-0.1,0.1-0.3,0.1-0.4,0.1c-0.2,0-0.3,0-0.5-0.1s-0.3-0.1-0.5-0.2s-0.3-0.2-0.5-0.3c-0.1-0.1-0.3-0.3-0.3-0.4
					c-0.1-0.1-0.1-0.2-0.1-0.4C775.7,71.4,775.7,71.2,775.8,71.1z M776.6,71.2c-0.1,0-0.1,0.1-0.2,0.2c0,0.1-0.1,0.2,0,0.2
					c0,0.1,0.1,0.1,0.1,0.2s0.1,0.1,0.2,0.2s0.1,0.1,0.2,0.1s0.1,0.1,0.2,0.1s0.2,0.1,0.2,0.1c0.1,0,0.2,0,0.2,0
					c0.1,0,0.1-0.1,0.2-0.2c0-0.1,0.1-0.2,0-0.2c0-0.1-0.1-0.1-0.1-0.2s-0.1-0.1-0.2-0.1c-0.1,0-0.1-0.1-0.2-0.1l-0.5-0.3
					C776.7,71.2,776.7,71.2,776.6,71.2z M778,69.2c-0.1,0-0.2,0.1-0.3,0.3s-0.1,0.3-0.1,0.4s0.1,0.2,0.3,0.3
					c0.1,0.1,0.3,0.1,0.4,0.1s0.2-0.1,0.3-0.3s0.1-0.3,0.1-0.4s-0.1-0.2-0.3-0.3C778.3,69.2,778.1,69.1,778,69.2z"/>
				<path id="XMLID_687_" fill="#F5E5EE" d="M778.6,72.3l3.5-2.7l0.4,0.3l-3.5,2.7L778.6,72.3z"/>
				<path id="XMLID_682_" fill="#F5E5EE" d="M781,73.5l2-3.5l0.6,0.4l-1.6,2.9l1.6,0.9l-0.3,0.6L781,73.5z"/>
			</g>
		</g>
	</g>
	<g id="XMLID_19_">
		<g id="XMLID_42_" transform="matrix(1,0,0,1,0,85.6918)">
			<g id="XMLID_345_">
				<path id="XMLID_347_" fill="#404040" d="M800.6,88c-5.3-3.5-12.4-1.9-15.9,3.4L611,359c-3.5,5.3-1.9,12.4,3.4,15.9L959,598.6
					c5.3,3.5,12.4,1.9,15.9-3.4l173.7-267.7c3.5-5.3,1.9-12.4-3.4-15.9L800.6,88z"/>
			</g>
		</g>
		<g id="XMLID_47_">
			<g id="XMLID_475_">
				<g id="XMLID_477_" transform="matrix(0.569106,0,0,0.902439,272.358,130.277)">
					<path id="XMLID_478_" fill="#4D4D4D" d="M939.5,74.8c-7.2-3-16.9-1.7-21.6,2.9L748.7,242.1c-4.7,4.6-2.6,10.7,4.6,13.6
						l551,225.5c7.2,3,16.9,1.7,21.6-2.9l169.2-164.4c4.7-4.6,2.6-10.7-4.6-13.6L939.5,74.8z"/>
				</g>
				
					<rect id="XMLID_476_" x="782.5" y="469.3" transform="matrix(-0.5444 0.8388 -0.8388 -0.5444 1709.9346 118.191)" fill="#666666" width="80.8" height="108.3"/>
			</g>
		</g>
		<path id="XMLID_18_" fill="#8E5B49" d="M834.9,599.4l0.3-41.7l-4.6-33.8l-0.2-0.2c-2.4-2.7-6.6-3.4-9.8-1.5l0,0
			c-2.4,1.4-4,3.7-4.3,6.3l-4.2,57.1c-0.7,6.4-1.8,12.7-3.4,18.9l-6.5,25.1c0,0-18.8-55.1-40.6-38.8c0,0,15.4,24.9,13.4,45.5
			c-2.1,20.6-3,60.1,21.5,80.6L772,770.2l62.7,11.4c0,0,16.5-51.3,23.2-58.3c0,0,13.1-6.2,21.6-33.3s12.3-50.8,12.3-50.8l11-24.3
			c3.8-8.4,6.6-17.2,8.4-26.2l1.7-12.3l-2.4-1.3c-3.6-1.9-8.2-0.5-9.7,3.1l-4.2,6.6c-0.7,1.8-1.4,3.7-1.9,5.6l0,0
			c-0.9,3.2-2,6.3-3.5,9.3l-14,27.7l2.4-12.9c4.1-22.3,3.1-33.7,3-56.3l-0.1-21.5l0,0c-1.6-1.3-3.9-1.6-5.9-0.9l-1,0.4
			c-3.2,1.1-5.5,3.7-6.1,6.8l-1.7,11.4l-2.2,20.4l-7.8,34.2l2.1-11c4.4-23.6,5.1-47.8,1.9-71.6l-0.8-6.3l0,0c-2.4-0.8-5.1-0.4-7.2,1
			l-3.3,2.3c-1.4,1-2.3,2.5-2.5,4.1l-1.6,35.8c-0.3,2.8-0.9,5.6-1.8,8.3l-9.6,27.2"/>
		<path id="XMLID_418_" fill="#404040" d="M753.1,64.6c-3.8-2.5-9-0.5-10,3.9c-0.2,0.8-0.1,1.5,0.2,1.9l46.6,92.9c2,4,5,7.4,8.8,9.8
			l346.8,225.1c3.7,2.4,8,3.8,12.4,4l104.8,5.3c0.5,0.1,1.1-0.3,1.7-1.2c2.6-3.8,1.3-9-2.5-11.6L753.1,64.6z"/>
		<g id="XMLID_45_" transform="matrix(9.24649e-17,-1.51007,0.578947,3.54503e-17,530.579,1341.13)">
			<g id="XMLID_420_">
				<path id="XMLID_428_" fill="#C5D5EF" d="M625.8,1220l2.6-147.6l150.3-604.2l50.3-64.9c0.8-1,1.5,1.3,1.1,3.1l-202.8,814.9
					C626.8,1223.1,625.7,1222.2,625.8,1220z"/>
			</g>
		</g>
		<path id="XMLID_344_" fill="#EAC1AC" d="M681,1065.7c21.2,54.8,94.6,78.5,121.2,79.9c0.3-0.1,55.8-380.3,60.2-399.1
			c1.3-5.5,1.3-5.6-3.6-8.6c-0.6-0.4-1.2-0.8-1.9-1.1c-5.6-2.5-11-5.3-16.7-7.5c-16.9-6.4-34.3-9.2-52.4-7.9
			c-3.6-0.1-5.5,1.7-6.7,5.1C774.8,744.1,686.7,1048,681,1065.7z"/>
		<path id="XMLID_23_" fill="#8E5B49" d="M828.5,368.8l23.3-16.9c2.3-1.7,4.8-3,7.4-4.1l33.8-11.7c1.5-0.6,2.7-1.9,3.2-3.5l1.3-3.8
			c0.8-2.4,0.4-5.1-1.1-7.2l0,0l-6.3,1c-23.7,3.7-46.7,11.2-68.1,22.2l-9.9,5.1l30.5-17.1l19-7.9l10.5-4.8c2.8-1.5,4.6-4.4,4.8-7.8
			l0.1-1.1c0.1-2.1-0.9-4.2-2.6-5.4l0,0l-20.6,6c-21.7,6.3-32.9,8.6-53.1,18.9l-11.7,6l19.2-18.9l12.1-2.4c3-0.6,5.6-2.4,7.3-4.9
			l0,0c1.9-2.8,1.3-6.6-1.3-8.7l0,0l-28.9,5.3l-24,18.9c0,0-21.7,10.4-45.2,26.3c-23.5,15.8-25.8,30.1-25.8,30.1
			c-4.8,8.4-49.3,38.8-49.3,38.8l28.7,56.9l44.2-38.7c26.6,17.7,64.2,5.5,83.4-2.3c19.2-7.8,47.4-0.1,47.4-0.1
			c5.5-14.8-11.6-21.8-27.1-25.1c-11.3-2.4-21.7-2.8-21.7-2.8l22.2-13.4c5.5-3.3,11.2-6.2,17.1-8.7l53.5-20.3c2.4-1,4.2-3.2,4.9-5.9
			l0,0c0.8-3.6-1-7.4-4.3-8.9l-0.3-0.1l-33.7,5.2l-39.9,12.2"/>
		<path id="XMLID_48_" fill="#EAC1AC" d="M353.9,609.6c-47.2,60,5.3,106.3,36.7,118.9c6.4-4.2,12.2-9.2,18.2-13.9
			c17.7-13.7,294-237.7,311.6-251.4c1.9-1.5,2.6-2.9,1.7-5.2c-0.6-1.5-0.9-3.1-1.4-4.7c-4.4-14.8-11.9-27.9-21.8-39.7
			c-4.5-5.3-9.4-10.1-14.5-14.8c-3.3-2.8-3.4-2.8-7-0.3c-20.7,14.4-41.8,28.1-62.9,42c-19.9,13.1-239.1,153.8-258.9,167
			c-0.6,0.4-1.3,0.8-1.8,1.4C353.9,609.1,353.9,609.4,353.9,609.6z"/>
	</g>
	<g id="XMLID_65_">
		<g id="XMLID_22_">
			<path id="XMLID_1821_" fill="#664C3E" d="M2140.1,616.8c0,0-49-13.3-50.1-19.9c-1.1-6.6-3.3-12.8-6.3-18.7
				c-3.3-6.5-7.5-12.4-12.5-17.7c-4.9-5.3-10.2-10.2-16.3-14.1c-2.8-1.8-5.5-3.6-8.4-5.2c-2-1.1-3.9-2.3-6-3.1
				c-0.1-0.1-0.2-0.3-0.3-0.4c-3.6-1.8-7.2-3.5-10.7-5.4c-4.9-2.7-9.2-6.2-13.4-9.9c-0.2,0-0.3-0.1-0.3-0.3
				c-0.6-0.6-1.2-1.1-1.9-1.7c-0.2,0-0.3-0.1-0.3-0.3c-0.4-0.4-0.7-0.7-1.1-1.1c-0.2,0-0.3-0.1-0.3-0.3c-0.2-0.2-0.4-0.4-0.7-0.7
				c-0.2,0-0.3,0-0.3-0.3c-0.4-0.4-0.7-0.7-1.1-1.1c-0.2,0.1-0.4,0-0.3-0.3c-0.1-0.1-0.3-0.2-0.4-0.4c-0.2,0-0.3-0.1-0.3-0.3
				c-0.2-0.2-0.4-0.5-0.6-0.7c-0.2,0-0.3-0.1-0.3-0.3c-0.2-0.2-0.4-0.4-0.6-0.7c-0.2,0-0.3-0.1-0.3-0.3c-0.4-0.3-0.6-0.8-1.2-0.9
				c-0.1,0.1-0.2,0.2-0.3,0.1c-0.2,0.1-0.4,0.1-0.5,0.2c0,0.2-0.2,0.3-0.4,0.2c-2.2,0.8-3.9,2.1-5.2,4.1c0.1,0.2,0,0.3-0.2,0.4
				c-0.6,1.2-0.8,2.6-0.9,3.9c0.2,0.7,0.3,1.5,0.2,2.3c0.3,1,0.6,2,1,3.1c0.2,0.1,0.3,0.2,0.2,0.4c0.1,0.3,0.3,0.6,0.4,0.8
				c0.3,0,0.3,0.2,0.2,0.4c0.1,0.2,0.2,0.3,0.3,0.5c0.7,1.6,1.7,3,2.8,4.4c0.1,0.1,0.1,0.2,0.2,0.3c0.4,0.1,0.5,0.3,0.5,0.6
				c0.2,0.2,0.4,0.5,0.6,0.7c0.2,0,0.3,0.1,0.3,0.4c0.4,0.5,0.9,1.1,1.3,1.6c0.2,0,0.3,0.1,0.3,0.3c0.2,0.2,0.4,0.5,0.6,0.7
				c0.3,0,0.5,0.2,0.5,0.6c0.5,0.6,1.1,1.1,1.6,1.7c0.2,0,0.3,0.1,0.3,0.3c0.1,0.1,0.1,0.2,0.2,0.2c1,1,2,2.1,3,3.1
				c0.2,0.1,0.3,0.1,0.5,0.3c3.4,3.3,7,6.3,10.7,9.3c1.7,1.4,3.2,2.8,4.2,4.8c3.1,6.1,6.1,12.2,8.9,18.4c3.9,8.3,7.5,16.8,11.2,25.2
				c0.4,0.9,0.1,1.2-0.7,1.5c-2.1,0.7-4.1,1.6-6.2,2.3c-7.8,2.9-15.6,5.7-23.4,8.5c-8.4,3.1-16.8,6.1-25.1,9.2
				c-5.2,1.9-10.4,3.8-15.6,5.7c0.2,0.9,1,1.1,1.7,1.4c5.7,3,13.7,9.2,19.6,11.7c7.4,3.1,14.6,6.7,22.4,8.9c5.3,1.5,18.2,3,23.7,3.4
				c2.4,0.1,73.5,20.8,73.5,20.8L2140.1,616.8z"/>
			<path id="XMLID_1799_" fill="#F5F8FC" d="M2007.4,513.8c-0.4-0.3-0.6-0.8-1.2-0.9c-0.2-0.2-0.3-0.1-0.3,0.1
				c-0.2,0.1-0.4,0.1-0.5,0.2c-0.2-0.1-0.3,0-0.4,0.2c-2.1,0.8-3.9,2.1-5.2,4.1c-0.2,0.1-0.3,0.2-0.2,0.4c-0.6,1.2-0.8,2.6-0.9,3.9
				c-0.3,0.8-0.1,1.5,0.2,2.3c0.3,1,0.6,2,1,3.1c-0.1,0.2-0.1,0.4,0.2,0.4c0.1,0.3,0.3,0.6,0.4,0.8c-0.1,0.2,0,0.3,0.2,0.4
				c0.1,0.2,0.2,0.3,0.3,0.5c-0.1,0.7-0.7,1-1.3,1.2c-4.8,1.8-9.6,3.5-14.5,5.3c-9.6,3.5-19.2,6.9-28.7,10.4
				c-8.3,3-16.6,6.1-24.9,9.1c-7.1,2.6-14.2,5.2-21.4,7.7c-0.6,0.2-1.2,0.4-1.5,1s-0.4,1.3,0.1,1.9c0.6,0.7,1.3,0.8,2.1,0.5
				c5.3-1.9,10.7-3.8,16-5.8c6.8-2.5,13.7-4.9,20.5-7.4c7.2-2.6,14.5-5.3,21.7-7.9c8.2-3,16.4-5.9,24.7-8.9c2.7-1,5.4-1.9,8-2.9
				c0.8-0.3,1.4-0.3,2,0.1c0.1,0.1,0.1,0.2,0.2,0.3c0,0.4,0.1,0.6,0.5,0.6c0.2,0.2,0.4,0.5,0.6,0.7c-0.1,0.2,0,0.4,0.3,0.4
				c0.4,0.5,0.9,1,1.3,1.6c-0.1,0.2,0,0.4,0.3,0.3c0.2,0.2,0.4,0.5,0.6,0.7c0,0.4,0.1,0.6,0.5,0.6c0.5,0.6,1.1,1.1,1.6,1.7
				c-0.1,0.2,0.1,0.3,0.3,0.3c0.1,0.1,0.1,0.2,0.2,0.2c-0.6,0.8-1.7,0.9-2.5,1.2c-10.9,4-21.7,8-32.6,12c-8.6,3.1-17.2,6.2-25.8,9.3
				c-6.5,2.3-13,4.6-19.4,7c-4.9,1.8-9.9,3.7-14.8,5.5c-2.5,0.3-4.9-0.8-7.3-1.2c-3.9-0.8-7.7-1.9-11.5-2.7
				c-2.6-0.6-5.2-1.2-7.7-1.9c-1-0.3-2.1-0.7-3.2-0.3c-0.8-0.2-1.2-0.7-1.4-1.5c-1.8-5.9-4.2-11.6-6.2-17.4
				c-2.7-7.9-5.7-15.7-8.5-23.5c-2.4-6.7-4.8-13.4-7.3-20.1c-3.4-9.2-6.6-18.4-10-27.6c-3.6-9.8-7.1-19.7-10.7-29.5
				c-1.2-3.3-1.4-2.8,1.8-3.9c4.6-1.7,9.1-3.4,13.7-5c4.1-1.5,8.2-2.8,12.2-4.3c6.7-2.4,13.3-5,19.9-7.3c8.2-2.8,16.3-6,24.5-8.8
				c8.3-2.8,16.4-6.1,24.6-9c6.8-2.4,13.6-4.9,20.3-7.4c4.8-1.8,9.6-3.5,14.5-5.3c4.8-1.7,9.7-3.4,14.5-5.2c0.8-0.3,1.2-0.2,1.5,0.7
				c1.4,3.8,2.8,7.6,4.2,11.4c2.9,7.9,5.6,15.9,8.6,23.8c2.3,6.1,4.4,12.3,6.6,18.4c1.5,4.1,3,8.2,4.5,12.3c1.7,4.5,3.2,9.2,5,13.7
				c1.5,3.7,2.6,7.7,4,11.5c2.1,5.8,4.2,11.6,6.3,17.4c2.1,5.8,4.3,11.7,6.4,17.5c1.9,5.3,3.8,10.7,5.7,16c0.1,0.4,0.2,0.8,0,1.2
				c-3.6-1.8-7.2-3.5-10.7-5.4c-4.9-2.7-9.2-6.2-13.4-9.9c0-0.2-0.1-0.3-0.3-0.3c-0.6-0.6-1.2-1.1-1.9-1.7c0-0.2-0.1-0.3-0.3-0.3
				c-0.4-0.3-0.7-0.7-1.1-1.1c0-0.2-0.1-0.3-0.3-0.3c-0.2-0.2-0.4-0.4-0.7-0.7c0-0.2-0.1-0.3-0.3-0.3c-0.4-0.4-0.7-0.7-1.1-1.1
				c0-0.2-0.1-0.3-0.3-0.3c-0.1-0.1-0.3-0.2-0.4-0.4c0.1-0.2-0.1-0.3-0.3-0.3c-0.2-0.2-0.4-0.4-0.6-0.7c0.1-0.3,0-0.4-0.3-0.3
				c-0.2-0.2-0.4-0.4-0.6-0.7C2007.7,513.9,2007.6,513.7,2007.4,513.8z M1983.1,460.4c-5.5,2-11.1,4.1-16.6,6.1
				c-6.6,2.4-13.3,4.7-19.9,7.1c-6.9,2.5-13.9,5.1-20.8,7.6c-4.3,1.6-8.6,3-12.9,4.6c-3.4,1.2-6.8,2.6-10.2,3.9
				c-3.6,1.3-7.3,2.5-11,3.8c-2,0.7-4,1.4-6,2.2c-1.3,0.5-1.9,1.6-1.5,2.6c0.4,0.9,1.5,1.2,2.8,0.7c5.7-2.1,11.3-4.3,17-6.2
				c5.6-1.8,10.9-4.1,16.5-6c8.8-3.1,17.5-6.4,26.3-9.6c5.8-2.1,11.5-4,17.3-6.1c6.8-2.5,13.6-5,20.4-7.4c1-0.4,1.2-1.1,1.2-2
				c0-0.8-0.5-1.3-1.5-1.5C1984,460,1983.6,460.3,1983.1,460.4z M1877.3,473.1c2.2-0.7,4.3-1.5,6.5-2.3c6.2-2.2,12.4-4.4,18.6-6.7
				c8.3-3,16.7-6.1,25-9.1c4.6-1.7,9.2-3.3,13.7-5c8.3-3,16.5-6,24.8-8.9c2.9-1.1,5.8-2.1,8.7-3.2c1.9-0.7,2.3-2,1.2-3.1
				c-0.6-0.7-1.4-0.6-2.1-0.3c-3,1.1-6.1,2.3-9.1,3.4c-6.4,2.3-12.8,4.5-19.2,6.9c-5.2,1.9-10.3,3.8-15.5,5.7
				c-3.7,1.4-7.5,2.7-11.2,4c-5.7,2.1-11.3,4.1-17,6.2c-6.9,2.5-13.9,5.1-20.8,7.6c-1.6,0.6-3.2,1.1-4.9,1.6
				c-0.7,0.2-1.2,0.7-1.3,1.4C1874.5,472.6,1875.7,473.6,1877.3,473.1z M1882.1,486c2.7-0.9,5.4-1.9,8-2.9
				c6.4-2.3,12.8-4.6,19.2-6.9c6.6-2.4,13.2-4.8,19.8-7.2c6.2-2.2,12.5-4.5,18.7-6.7c8.9-3.2,17.8-6.4,26.7-9.6
				c1.6-0.6,3.2-1.2,4.8-1.8c1.4-0.5,2-1.4,1.7-2.4c-0.4-1.2-1.5-1.6-3.1-1c-4.4,1.6-8.8,3.2-13.2,4.8c-9.9,3.6-19.9,7.1-29.8,10.7
				c-9.2,3.3-18.3,6.7-27.4,10c-6.5,2.4-13.1,4.6-19.6,7c-2.5,0.9-4.9,1.8-7.3,2.8c-0.6,0.2-1.1,0.5-1.2,1.2
				C1879.2,485.6,1880.5,486.6,1882.1,486z M1914.4,535.9c3.5-1.3,6.9-2.5,10.4-3.8c5.8-2.1,11.7-4.2,17.5-6.3
				c5.4-2,10.8-3.9,16.2-6c5.3-2.1,10.8-3.8,16.2-5.7c0.5-0.2,0.9-0.3,1.3-0.6c0.8-0.5,1.1-1.3,0.6-2.2s-1.2-1.2-2.1-0.9
				c-7.7,2.8-15.5,5.6-23.2,8.4c-4.5,1.6-8.9,3.2-13.4,4.8c-3.7,1.3-7.3,2.7-11,4.1c-3.2,1.2-6.4,2.3-9.7,3.4
				c-1.4,0.5-2.9,1-4.3,1.6c-0.6,0.3-1.2,0.6-1.3,1.6C1911.4,535.6,1912.8,536.5,1914.4,535.9z M1969.1,497.7
				c-5.1,1.9-10.2,3.7-15.4,5.6c-6.8,2.4-13.6,4.8-20.3,7.3c-5.5,2.1-11,3.9-16.5,6.1c-2.7,1.1-5.5,2-8.3,2.9
				c-1.5,0.5-2.1,1.5-1.6,2.6c0.4,0.9,1.5,1.2,2.8,0.8c7.4-2.7,14.7-5.4,22.1-8.1c10.7-3.9,21.3-7.8,32-11.6c2.3-0.8,4.7-1.7,7-2.5
				c0.9-0.3,1.2-1.1,1.1-1.9c-0.1-0.8-0.7-1.2-1.1-1.4C1970.1,497.2,1969.6,497.5,1969.1,497.7z M1963.7,484.9
				c-5.9,2.4-12,4.4-18,6.6c-10.7,3.8-21.4,7.8-32.1,11.7c-3.2,1.2-6.4,2.3-9.5,3.5c-1.5,0.5-2,1.4-1.6,2.4s1.4,1.4,2.9,0.8
				c5.1-1.8,10.2-3.7,15.2-5.6c4.8-1.7,9.6-3.4,14.4-5.2c5.3-1.9,10.5-3.8,15.7-5.7c4.9-1.8,9.8-3.6,14.7-5.4
				c0.4-0.2,0.9-0.3,1.2-0.5c0.7-0.4,1-1.1,0.9-1.8c-0.1-0.8-0.8-1.1-1.5-1.3C1965.1,484.3,1964.4,484.6,1963.7,484.9z
				 M1985.1,505.3c-2.2-0.3-3.8,0.8-4.2,2.8c-0.3,2.1,0.6,3.4,2.7,3.7c2,0.3,3.5-0.7,3.8-2.7
				C1987.7,507.4,1986.5,505.5,1985.1,505.3z M1979.2,499.1c1.7,0.3,3.3-1,3.6-2.8c0.3-1.9-0.8-3.4-2.7-3.7
				c-1.9-0.3-3.4,0.8-3.7,2.7C1976.1,497.2,1977.2,498.8,1979.2,499.1z M1971.8,482.5c-0.3,2,0.8,3.6,2.8,3.9
				c1.8,0.3,3.3-0.9,3.6-2.8c0.3-1.8-0.8-3.3-2.8-3.6C1973.6,479.6,1972.1,480.6,1971.8,482.5z"/>
			<path id="XMLID_1798_" fill="#FDFDFD" d="M1977.7,629.2c5.2-1.9,10.4-3.8,15.6-5.7c8.4-3.1,16.8-6.1,25.1-9.2
				c7.8-2.8,15.6-5.7,23.4-8.5c2.1-0.8,4.1-1.6,6.2-2.3c0.8-0.3,1-0.6,0.7-1.5c-3.7-8.4-7.4-16.9-11.2-25.2
				c-2.9-6.2-5.9-12.3-8.9-18.4c-1-2-2.5-3.5-4.2-4.8c-3.7-3-7.3-6-10.7-9.3c-0.1-0.1-0.3-0.2-0.5-0.3c-0.4,0.1-0.8,0.2-1.2,0.3
				c-5.1,1.9-10.1,3.7-15.2,5.6c-8.6,3.1-17.1,6.2-25.7,9.3c-6.5,2.4-13.1,4.7-19.6,7.1c-6.5,2.4-12.9,4.7-19.4,7.1
				c-3.8,1.4-7.6,2.7-11.3,4c0.2,0.1,0.3,0.2,0.5,0.3c4.8,1.2,9.5,2.4,14.3,3.6c1.3,0.3,2.7,0.7,4.1,0.3c0.3-0.3,0.7-0.4,1.1-0.5
				c4.8-1.7,9.6-3.1,14.3-5c4.2-1.7,8.5-3,12.7-4.6c5.8-2.2,11.8-4.2,17.7-6.4c5.2-2,10.5-3.7,15.7-5.8c4.2-1.7,8.6-3.1,12.9-4.6
				c1.2-0.4,2.4-0.9,3.6-1.2c0.9-0.2,1.6,0.1,1.9,1.1c0.3,0.9,0.3,1.5-0.6,2.1c-1.3,0.8-2.9,1-4.3,1.5c-6.6,2.5-13.2,5.1-19.9,7.4
				c-7.6,2.6-15.1,5.5-22.6,8.1c-5.1,1.8-10.3,3.7-15.4,5.5c-3.7,1.3-7.4,2.7-11,4.1c0.3,0.6,0.9,0.8,1.4,0.9c1.4,0.4,2.9,0.7,4.3,1
				c5.9,1.2,11.6,2.9,17.5,4.2c1.1,0.2,1.3,0.9,1,1.8c-1.5,5.5-2.5,11.2-3.6,16.8c-1.7,8.2-3.8,16.2-5.2,24.5
				c-0.2,1.1-0.5,2.1-1.1,3c0.4,0.3,0.9,0.2,1.3,0c3.7-1.6,7.5-2.7,11.3-4.1C1974.1,630.5,1975.9,629.8,1977.7,629.2z"/>
			<path id="XMLID_1797_" fill="#F3C94A" d="M1959.8,635.3c0.7-0.9,0.9-1.9,1.1-3c1.4-8.2,3.5-16.3,5.2-24.5
				c1.2-5.6,2.1-11.3,3.6-16.8c0.2-0.9,0-1.5-1-1.8c-5.9-1.3-11.6-3-17.5-4.2c-1.5-0.3-2.9-0.7-4.3-1c-0.6-0.1-1.2-0.3-1.4-0.9
				c-1.1-0.5-2.3-0.7-3.5-0.9c-0.8-0.1-1.7-0.2-2.4-0.8c-1.4,0.4-2.8,0-4.1-0.3c-4.8-1.2-9.6-2.4-14.3-3.6c-0.2,0-0.3-0.2-0.5-0.3
				c-1.5-0.3-3.1-0.6-4.6-0.8c-0.5-0.1-1-0.2-1.2-0.7c-2.5,0.3-4.9-0.8-7.3-1.2c-3.9-0.8-7.7-1.9-11.5-2.7c-2.6-0.6-5.2-1.2-7.7-1.9
				c-1-0.3-2.1-0.7-3.2-0.3c0.3,1.2,1.3,1.7,2.1,2.4c5.6,4.9,11.1,9.9,16.7,14.7c2.4,2.1,4.7,4.5,7.3,6.3c3.3,2.3,5.9,5.4,9,8
				c7.3,6.3,14.5,12.7,21.7,19.1c5.1,4.5,10.2,8.9,15.2,13.4C1958,634.3,1958.7,635.1,1959.8,635.3z"/>
			<path id="XMLID_1626_" fill="#8493ED" d="M1914.9,575.8c0.2,0.5,0.7,0.6,1.2,0.7c1.5,0.3,3.1,0.6,4.6,0.8c3.8-1.3,7.6-2.7,11.3-4
				c6.5-2.3,12.9-4.7,19.4-7.1c6.5-2.4,13.1-4.7,19.6-7.1c8.6-3.1,17.1-6.2,25.7-9.3c5.1-1.8,10.1-3.7,15.2-5.6
				c0.4-0.1,0.8-0.2,1.2-0.3c-1-1-2-2.1-3-3.1c-0.6,0.8-1.7,0.9-2.5,1.2c-10.9,4-21.7,8-32.6,12c-8.6,3.1-17.2,6.2-25.8,9.3
				c-6.5,2.3-13,4.6-19.4,7C1924.7,572,1919.8,573.9,1914.9,575.8z"/>
			<path id="XMLID_1625_" fill="#8493ED" d="M2000.9,529.1c-0.1,0.7-0.7,1-1.3,1.2c-4.8,1.8-9.6,3.5-14.5,5.3
				c-9.6,3.5-19.2,6.9-28.7,10.4c-8.3,3-16.6,6.1-24.9,9.1c-7.1,2.6-14.2,5.2-21.4,7.7c-0.6,0.2-1.2,0.4-1.5,1s-0.4,1.3,0.1,1.9
				c0.6,0.7,1.3,0.8,2.1,0.5c5.3-1.9,10.7-3.8,16-5.8c6.8-2.5,13.7-4.9,20.5-7.4c7.2-2.6,14.5-5.3,21.7-7.9c8.2-3,16.4-5.9,24.7-8.9
				c2.7-1,5.4-1.9,8-2.9c0.8-0.3,1.4-0.3,2,0.1C2002.6,532.1,2001.6,530.7,2000.9,529.1z"/>
			<path id="XMLID_1624_" fill="#8493ED" d="M1998.7,521.6c-0.3,0.8-0.1,1.5,0.2,2.3C1999,523.1,1998.9,522.4,1998.7,521.6z"/>
			<path id="XMLID_1623_" fill="#8493ED" d="M2007.5,538c0,0.4,0.1,0.6,0.5,0.6C2008,538.3,2007.9,538.1,2007.5,538z"/>
			<path id="XMLID_1622_" fill="#8493ED" d="M2003.9,533.7c0,0.4,0.1,0.6,0.5,0.6C2004.4,534,2004.2,533.8,2003.9,533.7z"/>
			<path id="XMLID_1621_" fill="#8493ED" d="M2012.6,519.1c0-0.2-0.1-0.3-0.3-0.3C2012.2,519,2012.3,519.1,2012.6,519.1z"/>
			<path id="XMLID_1620_" fill="#8493ED" d="M2011.6,518.1c0-0.2-0.1-0.3-0.3-0.3C2011.3,518,2011.4,518.1,2011.6,518.1z"/>
			<path id="XMLID_1619_" fill="#8493ED" d="M2010.2,516.7c0-0.2-0.1-0.3-0.3-0.3C2009.9,516.7,2010,516.7,2010.2,516.7z"/>
			<path id="XMLID_1618_" fill="#8493ED" d="M2009.5,516.1c0.1-0.2-0.1-0.3-0.3-0.3C2009.2,516,2009.3,516.1,2009.5,516.1z"/>
			<path id="XMLID_1617_" fill="#8493ED" d="M2008.6,515.1c0.1-0.3,0-0.4-0.3-0.3C2008.2,515,2008.3,515.1,2008.6,515.1z"/>
			<path id="XMLID_1616_" fill="#8493ED" d="M2007.6,514.1c0.1-0.2,0-0.3-0.3-0.3C2007.3,514,2007.4,514.1,2007.6,514.1z"/>
			<path id="XMLID_1615_" fill="#8493ED" d="M2005.3,513.1c-0.2-0.1-0.3,0-0.4,0.2C2005.2,513.4,2005.3,513.4,2005.3,513.1z"/>
			<path id="XMLID_1614_" fill="#8493ED" d="M2006.2,512.8c-0.2-0.2-0.3-0.1-0.3,0.1C2006,513.1,2006.1,513,2006.2,512.8z"/>
			<path id="XMLID_1613_" fill="#8493ED" d="M2009.6,540.3c-0.1,0.2,0.1,0.3,0.3,0.3C2009.9,540.4,2009.8,540.3,2009.6,540.3z"/>
			<path id="XMLID_1612_" fill="#8493ED" d="M1999.8,517.3c-0.2,0.1-0.3,0.2-0.2,0.4C1999.8,517.7,1999.9,517.5,1999.8,517.3z"/>
			<path id="XMLID_1611_" fill="#8493ED" d="M2006.6,537c-0.1,0.2,0,0.4,0.3,0.3C2006.9,537.1,2006.8,537,2006.6,537z"/>
			<path id="XMLID_1610_" fill="#8493ED" d="M2005,535.1c-0.1,0.2,0,0.4,0.3,0.4C2005.3,535.2,2005.2,535.1,2005,535.1z"/>
			<path id="XMLID_1609_" fill="#8493ED" d="M2000.4,528.2c-0.1,0.2,0,0.3,0.2,0.4C2000.8,528.4,2000.7,528.2,2000.4,528.2z"/>
			<path id="XMLID_1608_" fill="#8493ED" d="M1999.9,527c-0.1,0.2-0.1,0.4,0.2,0.4C2000.2,527.2,2000.1,527,1999.9,527z"/>
			<path id="XMLID_1607_" fill="#8493ED" d="M2014,520.4c0-0.2-0.1-0.3-0.3-0.3C2013.6,520.3,2013.7,520.4,2014,520.4z"/>
			<path id="XMLID_1606_" fill="#8493ED" d="M2016.1,522.4c0-0.2-0.1-0.3-0.3-0.3C2015.8,522.3,2015.9,522.4,2016.1,522.4z"/>
			<path id="XMLID_1590_" fill="#8493ED" d="M1984.3,460.1c-0.3-0.1-0.7,0.1-1.2,0.3c-5.5,2-11.1,4.1-16.6,6.1
				c-6.6,2.4-13.3,4.7-19.9,7.1c-6.9,2.5-13.9,5.1-20.8,7.6c-4.3,1.6-8.6,3-12.9,4.6c-3.4,1.2-6.8,2.6-10.2,3.9
				c-3.6,1.3-7.3,2.5-11,3.8c-2,0.7-4,1.4-6,2.2c-1.3,0.5-1.9,1.6-1.5,2.6c0.4,0.9,1.5,1.2,2.8,0.7c5.7-2.1,11.3-4.3,17-6.2
				c5.6-1.8,10.9-4.1,16.5-6c8.8-3.1,17.5-6.4,26.3-9.6c5.8-2.1,11.5-4,17.3-6.1c6.8-2.5,13.6-5,20.4-7.4c1-0.4,1.2-1.1,1.2-2
				C1985.7,460.8,1985.2,460.4,1984.3,460.1z"/>
			<path id="XMLID_1589_" fill="#8493ED" d="M1874.8,471.2c-0.3,1.4,0.9,2.4,2.5,1.9c2.2-0.7,4.3-1.5,6.5-2.3
				c6.2-2.2,12.4-4.4,18.6-6.7c8.3-3,16.7-6.1,25-9.1c4.6-1.7,9.2-3.3,13.7-5c8.3-3,16.5-6,24.8-8.9c2.9-1.1,5.8-2.1,8.7-3.2
				c1.9-0.7,2.3-2,1.2-3.1c-0.6-0.7-1.4-0.6-2.1-0.3c-3,1.1-6.1,2.3-9.1,3.4c-6.4,2.3-12.8,4.5-19.2,6.9c-5.2,1.9-10.3,3.8-15.5,5.7
				c-3.7,1.4-7.5,2.7-11.2,4c-5.7,2.1-11.3,4.1-17,6.2c-6.9,2.5-13.9,5.1-20.8,7.6c-1.6,0.6-3.2,1.1-4.9,1.6
				C1875.4,470,1875,470.5,1874.8,471.2z"/>
			<path id="XMLID_1588_" fill="#8493ED" d="M1879.5,484.1c-0.3,1.5,1,2.5,2.7,1.9c2.7-0.9,5.4-1.9,8-2.9c6.4-2.3,12.8-4.6,19.2-6.9
				c6.6-2.4,13.2-4.8,19.8-7.2c6.2-2.2,12.5-4.5,18.7-6.7c8.9-3.2,17.8-6.4,26.7-9.6c1.6-0.6,3.2-1.2,4.8-1.8c1.4-0.5,2-1.4,1.7-2.4
				c-0.4-1.2-1.5-1.6-3.1-1c-4.4,1.6-8.8,3.2-13.2,4.8c-9.9,3.6-19.9,7.1-29.8,10.7c-9.2,3.3-18.3,6.7-27.4,10
				c-6.5,2.4-13.1,4.6-19.6,7c-2.5,0.9-4.9,1.8-7.3,2.8C1880.1,483.1,1879.5,483.4,1879.5,484.1z"/>
			<path id="XMLID_1587_" fill="#8493ED" d="M1978.6,482.3c0.2-1.2-1.2-2.2-2.8-1.6c-3.5,1.2-7,2.5-10.4,3.7
				c-5.9,2.1-11.8,4.1-17.6,6.2c-5.4,1.9-10.9,3.8-16.3,5.8c-5.3,2-10.8,3.7-16.3,5.5c-0.5,0.2-1,0.3-1.4,0.6
				c-0.8,0.5-1.1,1.3-0.6,2.2s1.1,1.2,2.1,0.9c7.8-2.7,15.6-5.4,23.3-8.2c4.5-1.6,9-3.1,13.4-4.6c3.7-1.3,7.4-2.7,11.1-3.9
				c3.2-1.1,6.5-2.2,9.7-3.3c1.4-0.5,2.9-1,4.3-1.6C1977.8,483.6,1978.4,483.3,1978.6,482.3z"/>
			<path id="XMLID_1586_" fill="#8493ED" d="M1918.7,518.5c0.9,0.2,1.4,0,1.9-0.2c5.1-1.8,10.3-3.6,15.4-5.4
				c6.8-2.4,13.6-4.6,20.4-7.1c5.5-2,11.1-3.7,16.5-5.9c2.7-1.1,5.5-1.9,8.3-2.8c1.5-0.5,2.1-1.5,1.7-2.6c-0.4-0.9-1.5-1.3-2.8-0.8
				c-7.4,2.6-14.8,5.2-22.2,7.8c-10.7,3.8-21.4,7.5-32.1,11.3c-2.3,0.8-4.7,1.6-7,2.4c-0.9,0.3-1.2,1-1.2,1.9
				C1917.8,518,1918.3,518.4,1918.7,518.5z"/>
			<path id="XMLID_1585_" fill="#8493ED" d="M1923.7,531.7c0.8,0.1,1.6-0.2,2.3-0.4c6-2.3,12.1-4.3,18.1-6.4
				c10.8-3.7,21.5-7.6,32.2-11.4c3.2-1.1,6.4-2.3,9.6-3.4c1.5-0.5,2-1.4,1.7-2.4c-0.4-1-1.4-1.4-2.9-0.9c-5.1,1.8-10.2,3.6-15.3,5.4
				c-4.8,1.7-9.6,3.3-14.4,5c-5.3,1.8-10.5,3.7-15.8,5.6c-4.9,1.7-9.9,3.5-14.8,5.2c-0.4,0.1-0.9,0.3-1.2,0.5
				c-0.7,0.4-1,1.1-0.9,1.8C1922.3,531.1,1923,531.5,1923.7,531.7z"/>
			<path id="XMLID_1584_" fill="#8493ED" d="M1902.5,506.7c-0.3,1.7,0.8,3.6,2.3,3.9c2.2,0.4,3.8-0.8,4.2-2.8c0.4-2-0.6-3.4-2.7-3.7
				C1904.3,503.7,1902.8,504.7,1902.5,506.7z"/>
			<path id="XMLID_1583_" fill="#8493ED" d="M1913.3,520.6c0.3-1.9-0.8-3.4-2.7-3.8c-1.7-0.3-3.4,0.9-3.7,2.8
				c-0.3,1.9,0.8,3.4,2.7,3.7S1913,522.5,1913.3,520.6z"/>
			<path id="XMLID_1582_" fill="#8493ED" d="M1914.2,536c1.9,0.3,3.4-0.7,3.7-2.5c0.3-2-0.8-3.6-2.8-3.9c-1.8-0.3-3.3,0.9-3.6,2.8
				C1911.1,534.2,1912.2,535.7,1914.2,536z"/>
			<path id="XMLID_1581_" fill="#8493ED" d="M1939.6,581.5c0.7,0.6,1.6,0.6,2.4,0.8c1.2,0.2,2.4,0.4,3.5,0.9c3.7-1.4,7.3-2.7,11-4.1
				c5.1-1.9,10.3-3.7,15.4-5.5c7.6-2.7,15-5.5,22.6-8.1c6.7-2.3,13.3-4.9,19.9-7.4c1.4-0.5,3-0.8,4.3-1.5c0.9-0.5,0.9-1.2,0.6-2.1
				c-0.3-0.9-1-1.3-1.9-1.1c-1.2,0.3-2.4,0.8-3.6,1.2c-4.3,1.5-8.6,2.9-12.9,4.6c-5.2,2.1-10.5,3.8-15.7,5.8
				c-5.9,2.2-11.8,4.1-17.7,6.4c-4.2,1.6-8.5,2.9-12.7,4.6c-4.7,1.9-9.5,3.4-14.3,5C1940.3,581.1,1939.9,581.2,1939.6,581.5z"/>
		</g>
		<path id="XMLID_64_" fill="#679188" d="M2449.7,696.9c57.3,38.7,24.8,93.1,1.2,112.6c-6.7-1.9-13.1-4.6-19.6-6.9
			c-19.1-6.9-319.2-123.7-338.3-130.6c-2.1-0.8-3.1-1.8-2.9-4c0.1-1.5,0-2.9-0.1-4.4c-0.3-14,2.6-27.3,7.8-40.2
			c2.4-5.8,5.3-11.3,8.4-16.8c2-3.3,2.1-3.4,5.9-2.2c21.8,6.7,43.9,12.6,65.8,18.8c20.8,5.8,248.7,66.6,269.5,72.4
			c0.7,0.2,1.4,0.3,1.9,0.7C2449.6,696.5,2449.7,696.7,2449.7,696.9z"/>
	</g>
	<g id="XMLID_31_">
		<g id="XMLID_429_">
			<path id="XMLID_431_" fill="#C5D5EF" d="M1451.5,500.1c-0.2-1-0.5-2.1-0.7-3.1c-4.7-23.8-9.4-47.5-14.2-71.3
				c-0.3-1.4-0.2-3-1.7-3.8c-0.4,0.1-0.7,0.3-0.9,0.4l-0.3-1.3l-1.5,0.3l0,0c-3.1,0.5-6.2,0.5-9.2,1.7l0.1,0.1l0,0l-0.1-0.1
				c-0.9,0.2-1.9,0.3-2.8,0.5c-26.5,5.3-52.9,10.5-79.4,15.8c-5.4,1.1-5.9,1.8-4.8,7.2c4.9,24.5,9.7,48.9,14.6,73.4
				c0.2,1,8.2,41.3,8.1,41.6c1.3,6.6,2.7,13.3,4,19.9l0,0l7.6,38.1h0.1c0.5,2.6,1.2,5.2,2,7.8c0.8,2.8,2.8,2.4,4.9,2
				c30.5-6.1,61-12.1,91.5-18.2c3.7-0.7,4.4-1.9,3.7-5.7c-1.7-8.5-3.4-17-5-25.5L1451.5,500.1z"/>
			<g id="XMLID_57_">
				<path id="XMLID_33_" fill="#F3C94A" d="M1438,522l-62.7,11.8c-2.3,0.4-4.4-1.1-4.9-3.3l-1.4-7.3c-0.4-2.3,1.1-4.4,3.3-4.9
					l62.7-11.8c2.3-0.4,4.4,1.1,4.9,3.3l1.4,7.3C1441.7,519.4,1440.2,521.6,1438,522z"/>
				<path id="XMLID_79_" fill="#CC6633" d="M1444.3,550.1l-62.7,11.8c-2.3,0.4-4.4-1.1-4.9-3.3l-1.4-7.3c-0.4-2.3,1.1-4.4,3.3-4.9
					l62.7-11.8c2.3-0.4,4.4,1.1,4.9,3.3l1.4,7.3C1448,547.5,1446.6,549.6,1444.3,550.1z"/>
				<path id="XMLID_100_" fill="#F3C94A" d="M1450.8,578.5l-62.7,11.8c-2.3,0.4-4.4-1.1-4.9-3.3l-1.4-7.3c-0.4-2.3,1.1-4.4,3.3-4.9
					l62.7-11.8c2.3-0.4,4.4,1.1,4.9,3.3l1.4,7.3C1454.5,575.9,1453,578,1450.8,578.5z"/>
			</g>
			<path id="XMLID_435_" fill="#404040" d="M1479.9,621.7c-2.5-12.7-19.1-95.1-25-124.2c0.1-0.2,0.1-0.3,0.2-0.5
				c-1.5-7.5-3-15.1-4.5-22.6c0.2-0.9,0.4-1.9,0.2-2.8c-0.8-4.2-1.6-8.4-2.5-12.6c-0.2-0.9-0.6-1.6-1.2-2.2
				c-2.1-10.7-4.5-21.3-6.3-32c-1-6-5.4-10.1-12.6-8.6c-29.2,6.1-58.5,11.9-87.9,17.5c-6.8,1.3-9.8,6.4-8.5,12.8
				c3.5,16.7,6.7,33.4,10,50.2c2.3,11.3,4.6,22.7,6.8,34c0,0,0-0.1,0.1-0.1c6.3,31.7,18,91.8,22,111.9c1.4,7.2,5.7,10,13,8.6
				c21.3-4.2,42.7-8.5,64-12.7c8.1-1.6,16.2-3.3,24.3-4.9C1478.2,632.1,1481.1,627.8,1479.9,621.7z M1465.9,610.7
				c-28.7,5.7-57.4,11.4-86.2,17.1c-1,0.2-2.1,0.4-3.1,0.6c-1.5,0.2-2.7-0.2-3.4-1.5c-0.9-1.2-1.1-2.7-1.3-4.1
				c-3.7-19-18.2-92.8-22-111.8c-0.2-1.1-0.2-2.2-0.8-3.2c-3.9-19.6-7.8-39.2-11.7-58.8c-0.3-1.5-0.6-3-0.7-4.6
				c-0.1-1.9,0.8-3.1,2.7-3.5c1.1-0.2,2.3-0.5,3.4-0.7c25-5,50-10,75-14.9c1.7-0.3,3.4-0.6,5-1.2c2.8-1.7,6.1-1.2,9.2-1.7
				c1.2-0.3,2.1,0,3,0.9c0.7,1.7,1,3.5,1.4,5.3c4.2,20.9,8.3,41.9,12.5,62.8c-0.2,1.3,0.2,2.5,0.4,3.7c1.2,6.1,20.6,102,21.8,108.1
				C1472.3,609.1,1472.1,609.4,1465.9,610.7z"/>
			<path id="XMLID_425_" fill="#494B50" d="M1432.6,630.2c0.7,4.1-1.9,7.9-6.1,8.7c-3.9,0.7-8.1-2.3-8.7-6.1
				c-0.6-3.5,2.7-8.1,6.1-8.7C1428,623.4,1431.9,626.1,1432.6,630.2z"/>
			<g>
				<path fill="#1F3252" d="M1356.1,484.6l-2-10l2.5-0.5c1.2-0.2,2.2,0,2.9,0.7c0.7,0.7,1.2,1.8,1.5,3.4c0.3,1.7,0.3,3.1-0.1,4.1
					c-0.4,1-1.2,1.6-2.5,1.8L1356.1,484.6z M1356,475.7l1.5,7.4l0.7-0.1c0.8-0.2,1.2-0.6,1.4-1.2c0.2-0.7,0.1-1.7-0.1-3.1
					c-0.2-1.2-0.6-2.1-1-2.6c-0.4-0.5-1-0.7-1.7-0.5L1356,475.7z"/>
				<path fill="#1F3252" d="M1367,476.7l0.8,4c0,0.2,0.2,0.7,0.4,1.5l-1.4,0.3c-0.1-0.3-0.2-0.5-0.2-0.7c-0.2,0.7-0.7,1.1-1.6,1.2
					c-0.7,0.1-1.2,0-1.6-0.4s-0.7-0.9-0.8-1.5c-0.2-0.8,0-1.4,0.4-2c0.4-0.5,1.1-0.9,2.1-1.1c0.3-0.1,0.6-0.1,0.7-0.1l-0.2-0.9
					c-0.1-0.7-0.5-1-1.1-0.9c-0.3,0.1-0.5,0.2-0.6,0.3c-0.1,0.2-0.2,0.3-0.2,0.4c0,0.1,0,0.3,0,0.5l-1.4,0.3c-0.1-0.7,0-1.2,0.3-1.7
					c0.3-0.5,0.9-0.8,1.8-1C1365.8,474.7,1366.7,475.3,1367,476.7z M1366,479.4l-0.1-0.3c-0.1,0-0.3,0-0.6,0.1
					c-0.5,0.1-0.9,0.3-1.1,0.6c-0.2,0.3-0.3,0.6-0.2,1c0.1,0.3,0.2,0.5,0.4,0.7c0.2,0.2,0.5,0.2,0.8,0.2c0.5-0.1,0.7-0.3,0.8-0.7
					C1366.2,480.7,1366.2,480.1,1366,479.4z"/>
				<path fill="#1F3252" d="M1367.7,475.8l-0.3-1.3l1-0.2l-0.4-1.9l1.5-0.3l0.4,1.9l1.2-0.2l0.3,1.3l-1.2,0.2l0.9,4.4
					c0.1,0.3,0.1,0.4,0.2,0.5c0.1,0.1,0.3,0.1,0.6,0.1c0.2,0,0.4-0.1,0.5-0.1l0.2,1.1c-0.2,0.1-0.5,0.3-1,0.3
					c-0.6,0.1-1,0.1-1.3-0.1c-0.3-0.2-0.5-0.6-0.6-1.3l-0.9-4.7L1367.7,475.8z"/>
				<path fill="#1F3252" d="M1377.4,474.7l0.8,4c0,0.2,0.2,0.7,0.4,1.5l-1.4,0.3c-0.1-0.3-0.2-0.5-0.2-0.7c-0.2,0.7-0.7,1.1-1.6,1.2
					c-0.7,0.1-1.2,0-1.6-0.4s-0.7-0.9-0.8-1.5c-0.2-0.8,0-1.4,0.4-2s1.1-0.9,2.1-1.1c0.3-0.1,0.6-0.1,0.7-0.1l-0.2-0.9
					c-0.1-0.7-0.5-1-1.1-0.9c-0.3,0.1-0.5,0.2-0.6,0.3c-0.1,0.2-0.2,0.3-0.2,0.4s0,0.3,0,0.5l-1.4,0.3c-0.1-0.7,0-1.2,0.3-1.7
					c0.3-0.5,0.9-0.8,1.8-1C1376.1,472.7,1377.1,473.2,1377.4,474.7z M1376.4,477.4l-0.1-0.3c-0.1,0-0.3,0-0.6,0.1
					c-0.5,0.1-0.9,0.3-1.1,0.6c-0.2,0.3-0.3,0.6-0.2,1c0.1,0.3,0.2,0.5,0.4,0.7c0.2,0.2,0.5,0.2,0.8,0.2c0.5-0.1,0.7-0.3,0.8-0.7
					C1376.5,478.6,1376.5,478.1,1376.4,477.4z"/>
				<path fill="#1F3252" d="M1386.5,475.7l1.5-0.3c0,0.2,0,0.4,0,0.5c0,0.2,0,0.4-0.1,0.8c-0.1,0.4-0.2,0.7-0.3,0.9
					c-0.1,0.3-0.4,0.5-0.7,0.8c-0.3,0.3-0.8,0.4-1.2,0.5c-0.5,0.1-1,0.1-1.4,0s-0.8-0.3-1-0.6c-0.3-0.3-0.5-0.6-0.7-1.1
					c-0.2-0.5-0.4-0.9-0.5-1.3c-0.1-0.4-0.2-0.9-0.4-1.5c-0.7-3.4,0-5.3,2.2-5.7c0.5-0.1,0.9-0.1,1.3,0c0.4,0.1,0.7,0.2,0.9,0.4
					c0.2,0.2,0.4,0.4,0.6,0.7c0.2,0.3,0.3,0.5,0.4,0.7c0.1,0.2,0.1,0.4,0.2,0.6l-1.5,0.3c-0.3-1.1-0.8-1.6-1.6-1.4
					c-0.6,0.1-0.9,0.5-1,1.2s0,1.7,0.2,2.9c0.1,0.5,0.2,1,0.3,1.4c0.1,0.4,0.3,0.8,0.4,1.2c0.2,0.4,0.4,0.6,0.6,0.8
					c0.2,0.2,0.5,0.2,0.8,0.2C1386.2,477.5,1386.6,476.8,1386.5,475.7z"/>
				<path fill="#1F3252" d="M1388.9,471.1c0.4-0.7,1-1.2,1.9-1.4s1.6,0,2.2,0.6c0.6,0.6,1,1.5,1.3,2.7c0.5,2.7-0.1,4.2-2,4.6
					c-1.8,0.4-3-0.8-3.5-3.4C1388.5,472.9,1388.5,471.9,1388.9,471.1z M1391,471.1c-0.8,0.2-1.1,1.1-0.7,2.8c0.2,0.9,0.4,1.6,0.7,2
					s0.6,0.6,1.1,0.5c0.8-0.2,1-1.1,0.7-2.9c-0.2-0.9-0.4-1.5-0.7-1.9C1391.8,471.1,1391.4,471,1391,471.1z"/>
				<path fill="#1F3252" d="M1397.8,476.4l-1.5,0.3l-2.1-10.5l1.5-0.3L1397.8,476.4z"/>
				<path fill="#1F3252" d="M1400.8,475.8l-1.5,0.3l-2.1-10.5l1.5-0.3L1400.8,475.8z"/>
				<path fill="#1F3252" d="M1406.7,471.1l-3.8,0.8c0.1,0.7,0.3,1.2,0.6,1.6c0.2,0.4,0.6,0.5,1.1,0.4c0.7-0.1,1-0.6,0.9-1.3l1.5-0.3
					c0,0.2,0,0.3,0,0.4c0,0.1,0,0.3-0.1,0.6c-0.1,0.3-0.2,0.6-0.3,0.8s-0.4,0.4-0.7,0.7c-0.3,0.2-0.7,0.4-1.1,0.5
					c-0.5,0.1-0.9,0.1-1.2,0c-0.4-0.1-0.7-0.2-0.9-0.4s-0.5-0.5-0.6-0.8c-0.2-0.3-0.3-0.7-0.4-1c-0.1-0.3-0.2-0.7-0.3-1.1
					c-0.2-1.2-0.2-2.2,0.1-3s0.9-1.3,1.9-1.4c0.5-0.1,1-0.1,1.4,0c0.4,0.1,0.7,0.3,1,0.6c0.3,0.3,0.5,0.7,0.6,1
					c0.2,0.4,0.3,0.8,0.4,1.4C1406.7,470.6,1406.7,470.9,1406.7,471.1z M1402.7,470.7l2.3-0.5c-0.1-0.6-0.3-1-0.5-1.3
					c-0.2-0.3-0.6-0.4-1-0.3C1402.7,468.7,1402.4,469.4,1402.7,470.7z"/>
				<path fill="#1F3252" d="M1411.6,471.1l1.5-0.3c0,0.1,0,0.3,0,0.4c0,0.1,0,0.3,0,0.5c0,0.2-0.1,0.5-0.1,0.7s-0.2,0.4-0.3,0.6
					c-0.1,0.2-0.4,0.4-0.6,0.6c-0.3,0.2-0.6,0.3-1,0.3c-0.5,0.1-1,0.1-1.4,0c-0.4-0.1-0.7-0.4-1-0.7c-0.3-0.3-0.5-0.7-0.7-1.2
					c-0.2-0.4-0.3-1-0.4-1.5c-0.1-0.5-0.2-1-0.2-1.5c0-0.5,0.1-0.9,0.2-1.3c0.1-0.4,0.4-0.8,0.7-1c0.3-0.3,0.7-0.5,1.2-0.6
					c0.5-0.1,0.9-0.1,1.2,0c0.4,0.1,0.6,0.2,0.8,0.4c0.2,0.2,0.4,0.4,0.5,0.6c0.1,0.3,0.2,0.5,0.3,0.6s0.1,0.3,0.1,0.4l-1.5,0.3
					c-0.2-0.8-0.6-1.2-1.2-1.1c-0.8,0.2-1,1.1-0.7,2.8c0.4,1.8,0.9,2.6,1.7,2.5c0.2,0,0.4-0.1,0.5-0.2c0.1-0.1,0.2-0.3,0.2-0.5
					c0-0.2,0.1-0.3,0.1-0.4C1411.6,471.4,1411.6,471.2,1411.6,471.1z"/>
				<path fill="#1F3252" d="M1412.8,466.9l-0.3-1.3l1-0.2l-0.4-1.9l1.5-0.3l0.4,1.9l1.2-0.2l0.3,1.3l-1.2,0.2l0.9,4.4
					c0.1,0.3,0.1,0.4,0.2,0.5c0.1,0.1,0.3,0.1,0.6,0.1c0.2,0,0.4-0.1,0.5-0.1l0.2,1.1c-0.2,0.1-0.5,0.3-1,0.3
					c-0.6,0.1-1,0.1-1.3-0.1c-0.3-0.2-0.5-0.6-0.6-1.3l-0.9-4.7L1412.8,466.9z"/>
				<path fill="#1F3252" d="M1418.5,463.1l-1.5,0.3l-0.3-1.7l1.5-0.3L1418.5,463.1z M1418.7,472.2l-1.5-7.6l1.5-0.3l1.5,7.6
					L1418.7,472.2z"/>
				<path fill="#1F3252" d="M1420.9,464.8c0.4-0.7,1-1.2,1.9-1.4s1.6,0,2.2,0.6c0.6,0.6,1,1.5,1.3,2.7c0.5,2.7-0.1,4.2-2,4.6
					c-1.8,0.4-3-0.8-3.5-3.4C1420.4,466.6,1420.5,465.6,1420.9,464.8z M1423,464.7c-0.8,0.2-1.1,1.1-0.7,2.8c0.2,0.9,0.4,1.6,0.7,2
					s0.6,0.6,1.1,0.5c0.8-0.2,1-1.1,0.7-2.9c-0.2-0.9-0.4-1.5-0.7-1.9C1423.7,464.8,1423.4,464.6,1423,464.7z"/>
				<path fill="#1F3252" d="M1428.2,470.3l-1-5.2c-0.3-1.3-0.4-2.1-0.5-2.4l1.5-0.3c0.1,0.2,0.1,0.5,0.2,0.8
					c0.2-0.7,0.7-1.2,1.5-1.3c0.6-0.1,1.1,0,1.5,0.3c0.4,0.3,0.7,0.9,0.9,1.6l1.1,5.4l-1.5,0.3l-1-5.1c-0.1-0.4-0.2-0.7-0.4-0.9
					s-0.5-0.3-0.8-0.2c-0.4,0.1-0.7,0.3-0.8,0.6c-0.1,0.3-0.1,0.8,0,1.4l0.9,4.6L1428.2,470.3z"/>
				<path fill="#1F3252" d="M1391.7,491l-2.4,0.5l0,2.8l-1.5,0.3l0.4-10.4l2-0.4l4.4,9.5l-1.6,0.3L1391.7,491z M1389.3,490.1
					l1.8-0.4c-1.1-2.5-1.7-3.9-1.8-4.3l0,0C1389.3,486,1389.3,487.5,1389.3,490.1z"/>
				<path fill="#1F3252" d="M1397.5,495.6l-1.5,0.3l-1.6-8.1c-0.2-1.1-0.4-1.9-0.4-2.2l1.5-0.3c0.1,0.2,0.1,0.4,0.2,0.9
					c0.2-0.7,0.7-1.2,1.5-1.4c1.5-0.3,2.5,0.8,3,3.4c0.3,1.4,0.3,2.4,0,3.2c-0.3,0.7-0.8,1.2-1.6,1.3c-0.7,0.1-1.3,0-1.6-0.5
					L1397.5,495.6z M1398.5,488.6c-0.2-0.9-0.4-1.5-0.7-1.9c-0.3-0.4-0.6-0.5-1-0.4c-0.5,0.1-0.7,0.4-0.8,0.8
					c-0.1,0.4,0,1.1,0.1,1.9c0.2,1,0.4,1.7,0.6,2c0.2,0.4,0.6,0.5,1.1,0.4C1398.6,491.3,1398.9,490.3,1398.5,488.6z"/>
				<path fill="#1F3252" d="M1404.1,494.3l-1.5,0.3l-1.6-8.1c-0.2-1.1-0.4-1.9-0.5-2.2l1.5-0.3c0.1,0.2,0.1,0.4,0.2,0.9
					c0.2-0.7,0.7-1.2,1.5-1.4c1.5-0.3,2.5,0.8,3,3.4c0.3,1.4,0.3,2.4,0,3.2c-0.3,0.7-0.8,1.2-1.6,1.3c-0.7,0.1-1.3,0-1.6-0.5
					L1404.1,494.3z M1405.2,487.2c-0.2-0.9-0.4-1.5-0.7-1.9c-0.3-0.4-0.6-0.5-1-0.4c-0.5,0.1-0.7,0.4-0.8,0.8s0,1.1,0.1,1.9
					c0.2,1,0.4,1.7,0.6,2c0.2,0.4,0.6,0.5,1.1,0.4C1405.3,490,1405.5,489,1405.2,487.2z"/>
			</g>
			<g id="XMLID_28_" opacity="0.4">
				<path id="XMLID_423_" fill="#EFF1F4" d="M1432.3,421.4c-0.2,0.8-0.2,1.7-0.5,2.5c-4.9,14.5-9.8,29-14.8,43.5
					c-1.8,5.1-3.1,10.5-5.5,15.3c-1,0.5-0.5,0.9-0.1,1.2c-1.6,1-1.4,2.8-2.2,4.2c-0.7,1.2-0.9,2.4-0.8,3.7c0,0.3,0.1,0.5,0.2,0.8
					l0,0c-0.8,2.3-1.7,4.7-2.5,7c-1.4-0.3-2.2,0.5-2.6,1.6c-0.5,1.2,0.8,1.3,1.4,1.7c0.4-0.8,0.3-1.8,1.1-2.4
					c0.2,0.6,0.6,1.1,1.2,1.3c0.7-1.7,1.3-3.4,2-5.1c0.8-1.1,2.1-2.1,1.1-3.6c0.1-0.1,0.3-0.2,0.3-0.3c0.4-1.2,0.8-2.4,1.2-3.7
					c0.4-0.9,1.9-1.4,1.2-2.8c0.2-0.7,0.5-1.3,0.7-2c0-0.1-0.1-0.3-0.1-0.4l0,0l0,0c0.6-1.7,1.2-3.4,1.8-5.1
					c4.5-13.3,8.9-26.7,13.6-40c2-5.7,3.4-11.6,6.1-17C1434.3,421,1433.4,420.9,1432.3,421.4z"/>
				<path id="XMLID_422_" fill="#EFF1F4" d="M1383.3,555.5c0.3-0.8,0.5-1.6,0.3-2.5l0,0l0,0c0.2,0,0.3,0,0.5-0.1
					c1.4-1.3,2.1-2.9,1.7-4.9c-0.2-0.3-0.5-0.6-0.7-0.9c-0.4-0.4-1.1-0.7-0.8-1.4c0.2-0.8,1-0.8,1.7-0.7c0.4,0,0.8,0,1.1-0.2
					c1.9-3.1,3.3-6.4,3.1-10.1c-0.7-0.7-2,0.6-2.5-0.7c-0.1-0.3-0.1-0.6,0.1-0.8c1.1-0.9,1.6,0.5,2.5,0.7c0.1,0,0.2,0,0.3,0.1
					c1.7-1.3,1.9-3.2,2.2-5.1c0-0.3-0.1-0.5-0.2-0.8c-1.1-1.5,0-2.2,1.1-2.8c1.1-1.2,1.3-2.9,2.3-4.1c0.3-0.6,0.5-1.2,0.5-1.9
					c-0.2-1.2,1.1-2.1,0.5-3.4c-0.5-0.4-1.7-0.4-1.4-1.4c0.3-1.1,1.5-0.4,2.1-0.8c1.2-1.3,1.4-3.1,2.1-4.6c-0.8-1.4,0.6-1.8,1.2-2.6
					c0.1-0.9,0.1-1.8-0.4-2.6c-0.6-0.5-1.9-0.8-1.4-1.9c0.7-1.3,1.4,0.3,2.2,0.2c1.8-1.2,1.5-3.2,2.2-4.9c0-0.3,0-0.5-0.1-0.8
					c-0.3-0.9,0.1-1.6,0.7-2.2c0.2-0.2,0.3-0.4,0.5-0.6c0.8-1.3,0.9-2.9,1.6-4.3c0.4-1.5,1.3-2.9,1.2-4.5c-1.3-1.6-0.7-2.5,1-3
					c0.9-0.7,1-1.8,1.2-2.8c0-0.2-0.1-0.4-0.1-0.6l0,0l0,0c0-0.2-0.1-0.4,0-0.6c5.8-16.9,11.5-33.9,17.3-50.8
					c0.5-1.6,0.8-3.3,1.2-4.9c-1.7-0.4-3.2,0.4-4.7,0.7c-0.3,0.5-0.6,1-0.8,1.5c-5.2,15.2-10.4,30.5-15.4,45.8
					c-0.9,2.7-2.5,5.2-2.3,8.2c-0.2,0-0.4,0-0.5,0.1c-1.4,1.1-1.7,2.7-1.9,4.3c0,0.3,0.1,0.5,0.2,0.8c0.8,1.5-0.4,2.1-1.2,2.9
					c-1.3,1.8-1.6,3.9-1.9,6c0.1,1.3-0.9,1.9-1.7,2.8c1.7,1,1.4,2-0.1,2.9c-0.7,1.5-0.6,3.4-2.1,4.6c-0.6,0.7-0.8,1.6-0.7,2.5
					c0,0.6-0.1,1.2-0.1,1.8c0.3,0.8,1.4,1.3,1,2.2c-0.5,1.1-1.5-0.1-2.2,0.4c0,1.8-0.8,3.4-1.4,5c-0.2,1.1-0.9,2.1-1.1,3.2
					c-0.1,0.6-0.2,1.2-0.3,1.8c0.2,0.2,0.5,0.3,0.7,0.5c0.6,0.3,1.4,0.5,1.1,1.4c-0.4,0.9-1.1,0.4-1.7,0.2c-0.3-0.1-0.6-0.2-0.8-0.1
					c-1.2,1.4-0.4,3.9-2.6,4.8c0.3,1.1,1.9,2.5-0.6,3c0.1,2.1-0.7,3.9-1.8,5.6c-0.8,0.2-0.8,0.6-0.3,1.2c0.4,1.2-0.8,1.8-1.2,2.7
					c0.4,0.5,1.3,0.6,1.2,1.4c-0.1,1.1-1.3,0.5-1.9,1c-0.5,2-0.2,4.5-2.5,5.8c0.1,1.2-0.6,2.5,0.7,3.5c-0.9,0.2-1.2,0.8-1.5,1.6
					c-2.3,7-4.7,14-7.1,20.9c-2.2,6.3-4.4,12.6-6.6,18.9c0.6,3,1.2,6,1.9,9.5c0.5-1.2,0.9-1.9,1.2-2.7
					C1373.6,584.5,1378.4,570,1383.3,555.5z"/>
				<path id="XMLID_421_" fill="#EFF1F4" d="M1406.1,505.5L1406.1,505.5c0.3-1,0.5-2,0.8-2.9c-1-0.5-1.4,0.4-2,0.9
					c-0.6,1.5-1.3,3-1.9,4.5c-0.2,1.7-0.8,3.2-1.9,4.5c-0.8,0.9-1.1,1.8-0.3,2.8c-1.3,0.9-1.3,2.5-1.9,3.7c-0.2,1.1-0.6,2.3-0.6,3.5
					c-1,2.9-2,5.8-3,8.8c-0.7,1-1.8,1.9-1.1,3.3c-2.2,6.7-4.4,13.3-6.6,20c0.1,0.2,0.1,0.4,0.2,0.6l0,0c-0.6,0.4-0.8,1-1,1.7
					c-4.9,14.4-10,28.8-14.7,43.3c-1.3,4.1-4,8-2.2,12.7c0.2-0.2,0.4-0.5,0.4-0.7c5.1-14.9,10.2-29.7,15.1-44.6
					c1.3-4,3.2-7.8,3.6-12l0,0l0,0c0.1-0.2,0.3-0.5,0.4-0.7c1.3-0.6,1.1-2,1.8-3c0.8-1.4,1.1-3,1.5-4.5c0.4-1.7,1.2-3.1,2-4.6
					c0.3-1,0.3-2.1,0.6-3.1c2.1-6.2,4.1-12.4,6.4-18.5c0.8-1.3,1.1-2.8,1.3-4.3c0-0.4-0.1-0.8-0.3-1.1c0.9-0.8,1.4-1.9,1.4-3.1
					c0.1-1.5,0.3-3,1.6-4.1c1.2,0.1,2.1-0.6,2.3-1.6C1407.9,506.1,1406.7,505.9,1406.1,505.5z"/>
			</g>
		</g>
		<path id="XMLID_1822_" fill="#E7BB98" d="M1434.1,676.2c-2,9.7-3.5,19-6.6,28.4c-5,15.1-15.9,21.7-17.7,22.5
			c-0.7,0.3-1.1,0.8-0.9,1.7c0.3,1,3.1,26.4,2.3,26.5c-2.6,0.2-68.1,9.1-68,6.9c2.3-57.9-24.9-104.9-15.9-111.7
			c-0.5-3.4,5.2-8.8,7.8-9.8c2-0.7,4-1.6,6.2-1.5c2,0.1,2.5-0.4,2.5-2.6c0-0.4-0.1-0.7-0.1-1.1c-0.3-1.6,0-3,1-4.2
			c2.5-3.1,6.2-4.7,10-5.1c3.1-0.3,5.2,2.1,6.1-2.6c0.4-2,1-3.9,3.1-4.6c2.5-0.9,5-1.7,7.6-2c2.8-0.4,5.2,0.4,7.5,1.9
			c1.1,0.7,2.8,2.2,3.6,3.3c0.3,0.9,0.5,1.7,0.8,2.7c1.2-2.1,0.7-8.1,0.8-10.7c0.4-6.1,0.5-12.3,1-18.4c1-11.3,1.8-22.8,4.2-33.9
			c0.8-3.6,1.8-7.1,4.5-9.7c0.7-0.7,3.7-2.2,3-1.5c1.2,0.4,2.3,0.5,3.2,1c0.7,1,1.2,0.9,2,1.5c0.2,1.3,1.3,6.2,1.9,7
			c0.1,3.4,3.3,62.9,5.3,86.1c0,0.5-0.2,1.2,0.5,1.2c0.6,0.1,0.9-0.5,1.1-1c0.9-2.1,9-17.6,10.6-19.4c2.4-2.8,5-5.2,8-7.1
			c4.9-3,9.9-3.2,14.8-0.1c2.3,1.4,2.3,1.4,0.3,3.4c-1.2,1.2-2.6,2.3-3.1,4.1c0.2-0.1,0.1,0-0.4,0.3c-1.1,0.6-3,4-3.2,5.2
			c-0.9,2.9-1.5,5.7-2.2,8.6L1434.1,676.2z"/>
		<g id="XMLID_438_">
			<g>
				<path id="XMLID_113_" fill="#E7BB98" d="M1350.7,520.3c-1.5-0.5-2.9-1-4.4-1.5c-4.8,0.4-8.5,2.3-9.4,7.6c-0.8,4.4,1,7.9,5.2,9.8
					c2.8,1.3,5.6,2.5,8.5,3.7c1.3,1.4,3,2,4.6,2.8c4.8,1.8,10.1,0.2,12.8-3.8c2.3-3.4,1.9-7.7-1.7-11
					C1362,523.9,1356.5,521.7,1350.7,520.3z"/>
				<path id="XMLID_112_" fill="#E7BB98" d="M1351.6,545c-4.1,0.3-7.4,1.8-8.9,6.1c-1.6,4.5-0.4,8.5,3.8,10.9
					c3.2,1.8,6.4,3.5,9.6,5.3c1.2,1.7,3.1,2.3,4.8,3.2c4.5,0.9,10-2.1,11.6-6.5c1.5-4-1-9.7-5.5-12.2c-3.5-1.9-7-3.7-10.4-5.6
					C1354.9,545.5,1353.4,544.4,1351.6,545z"/>
				<path id="XMLID_111_" fill="#E7BB98" d="M1362.8,600.8c1.4-0.1,2.7-0.2,4.1-0.3c5-0.5,7.8-5.3,6.2-10.5s-5.6-8.2-9.9-10.9
					c-1.6-0.8-3.1-2-5-1.1c-4.4-0.1-7.4,1.9-9,6.1c-1.4,3.8-0.6,7,2.8,9.7C1355.3,596.5,1358.6,599.4,1362.8,600.8z"/>
				<path id="XMLID_110_" fill="#E7BB98" d="M1341.7,496.2c-1.2-5.9-2.4-11.8-3.5-17.7c-5.3,2.3-5.4,6-3.3,11.1
					C1336.1,492.6,1338.6,494.9,1341.7,496.2z"/>
				<g id="XMLID_105_">
					<path fill="#E7BB98" d="M1407.5,646.9c21.8,12.8,44.5,22.4,70.4,21.9c1.4,0,2.5,0.2,3,1.6c3.1,8.5,6.3,17,9.5,25.5
						c5.7-5.6,11.5-11.1,18-15.8c11.5-8.3,15.2-13.3,28.6-17.6c2.8-0.9,5.7-1.9,8.5-2.8c-6.9-10.9-18.2-30.3-26.3-40.4
						c-1.5-1.9-1.9-3.6-1.6-6.1c1.3-9.4-7.5-32.1-11.1-40.8c-11.9-28.4-15.5-33.8-34.1-50.3c-5-4.2-10.6-7.8-14.5-13.2
						c-1.4-2.6-3.8-4.3-5.4-6.7c-1.4-1.8-2.7-3.5-4.1-5.3c-1.1-1.4-2.4-1.7-4.1-1.1c-6.4,2.3-8.9,6.6-7.2,13.1
						c2.3,8.3,6.5,15.4,12.2,21.8c3.3,3.7,6.7,7.2,10.2,10.7c0.3,0.4,0.7,0.7,1.2,1c3.1,2.6,4.5,6,5.3,10c4.2,21.8,8.7,43.6,13,65.4
						c0.1,0.3,0.1,0.6,0.2,0.9c1.9,9.7-0.2,12.9-9.8,14.8c-19.1,3.8-38.3,7.7-57.4,11.5C1410.4,645.3,1408.6,645.3,1407.5,646.9z"/>
				</g>
			</g>
		</g>
		<path id="XMLID_67_" fill="#3A6184" d="M1635.3,957.4c47.3,20.1,107-11.4,124.2-27.2c0.1-0.2-204.5-267.3-213.6-281.6
			c-2.7-4.2-2.7-4.2-7.5-3c-0.6,0.2-1.2,0.3-1.8,0.5c-5,2-10,3.7-14.9,6c-14.3,6.7-26.7,15.9-37,28c-2.3,2.2-2.3,4.5-0.9,7.3
			C1490.8,702.1,1627.6,943,1635.3,957.4z"/>
		<path id="XMLID_66_" fill="#3A6184" d="M1341.3,1173.7c27.2,78,100.1,57,129.8,35.7c-0.2-8.3-1.3-16.5-2-24.7
			c-2.2-24.1-45.7-406.6-47.9-430.8c-0.2-2.6-1.2-4.1-3.8-4.6c-1.7-0.3-3.4-0.9-5.1-1.5c-16.1-4.6-32.4-5.3-48.9-3.2
			c-7.4,1-14.7,2.7-22,4.5c-4.5,1.3-4.6,1.4-4.4,6.2c1.1,27.3,1.3,54.5,1.7,81.8c0.4,25.8,1.2,307.7,1.6,333.5c0,0.8,0,1.7,0.3,2.5
			C1340.8,1173.4,1341,1173.6,1341.3,1173.7z"/>
	</g>
	<g id="Paper">
	</g>
	<g id="XMLID_311_">
		
			<rect id="XMLID_384_" x="2224.7" y="222.6" transform="matrix(0.8524 0.5229 -0.5229 0.8524 508.4748 -1156.5536)" fill="#F3C94A" width="156.2" height="199.6"/>
		
			<rect id="XMLID_383_" x="2223.6" y="222.2" transform="matrix(0.9013 0.4331 -0.4331 0.9013 368.3118 -964.7191)" fill="#F5F8FC" width="156.2" height="207.7"/>
		<g id="XMLID_357_">
			<path id="XMLID_397_" fill="#8493ED" d="M2376.5,297c0.6,0.5,0.8,1.3,0.5,2c-0.4,0.8-1.4,1.2-2.2,0.8l-100.5-48.3
				c-0.8-0.4-1.2-1.4-0.8-2.2c0.4-0.8,1.4-1.2,2.2-0.8l100.5,48.3C2376.3,296.9,2376.4,296.9,2376.5,297z"/>
		</g>
		<g id="XMLID_324_">
			<path id="XMLID_396_" fill="#8493ED" d="M2368.1,314.5c0.6,0.5,0.8,1.3,0.5,2c-0.4,0.8-1.4,1.2-2.2,0.8L2265.8,269
				c-0.8-0.4-1.2-1.4-0.8-2.2s1.4-1.2,2.2-0.8l100.5,48.3C2367.9,314.4,2368,314.5,2368.1,314.5z"/>
		</g>
		<g id="XMLID_321_">
			<path id="XMLID_394_" fill="#8493ED" d="M2359.6,332.1c0.6,0.5,0.8,1.3,0.5,2c-0.4,0.8-1.4,1.2-2.2,0.8l-100.5-48.3
				c-0.8-0.4-1.2-1.4-0.8-2.2s1.4-1.2,2.2-0.8l100.5,48.3C2359.4,332,2359.5,332,2359.6,332.1z"/>
		</g>
		<g id="XMLID_320_">
			<path id="XMLID_393_" fill="#8493ED" d="M2351.7,348.7c0.6,0.5,0.8,1.3,0.5,2c-0.4,0.8-1.4,1.2-2.2,0.8l-100.5-48.3
				c-0.8-0.4-1.2-1.4-0.8-2.2c0.4-0.8,1.4-1.2,2.2-0.8l100.5,48.3C2351.5,348.5,2351.6,348.6,2351.7,348.7z"/>
		</g>
		<g id="XMLID_318_">
			<path id="XMLID_391_" fill="#8493ED" d="M2343.7,365.2c0.6,0.5,0.8,1.3,0.5,2c-0.4,0.8-1.4,1.2-2.2,0.8l-100.5-48.3
				c-0.8-0.4-1.2-1.4-0.8-2.2c0.4-0.8,1.4-1.2,2.2-0.8l100.5,48.3C2343.5,365.1,2343.6,365.2,2343.7,365.2z"/>
		</g>
		<g id="XMLID_315_">
			<path id="XMLID_390_" fill="#8493ED" d="M2335.7,381.8c0.6,0.5,0.8,1.3,0.5,2c-0.4,0.8-1.4,1.2-2.2,0.8l-100.5-48.3
				c-0.8-0.4-1.2-1.4-0.8-2.2c0.4-0.8,1.4-1.2,2.2-0.8l100.5,48.3C2335.5,381.7,2335.6,381.7,2335.7,381.8z"/>
		</g>
		<g id="XMLID_314_">
			<path id="XMLID_388_" fill="#8493ED" d="M2327.8,398.4c0.6,0.5,0.8,1.3,0.5,2c-0.4,0.8-1.4,1.2-2.2,0.8l-100.5-48.3
				c-0.8-0.4-1.2-1.4-0.8-2.2c0.4-0.8,1.4-1.2,2.2-0.8l100.5,48.3C2327.6,398.3,2327.7,398.3,2327.8,398.4z"/>
		</g>
		<g id="XMLID_312_">
			<path id="XMLID_387_" fill="#8493ED" d="M2319.8,414.9c0.6,0.5,0.8,1.3,0.5,2c-0.4,0.8-1.4,1.2-2.2,0.8l-100.5-48.3
				c-0.8-0.4-1.2-1.4-0.8-2.2c0.4-0.8,1.4-1.2,2.2-0.8l100.5,48.3C2319.6,414.8,2319.7,414.9,2319.8,414.9z"/>
		</g>
		
			<use xlink:href="#Pencil"  width="25" height="137.3" id="XMLID_866_" x="-12.5" y="-68.7" transform="matrix(-1.0916 -0.3242 -0.3242 1.0916 2362.719 402.834)" overflow="visible"/>
	</g>
	<g id="XMLID_348_">
		<g id="XMLID_404_" transform="matrix(6.12323e-17,1,-1,6.12323e-17,1569.79,-228.47)">
			<g id="XMLID_405_" transform="matrix(1,0,0,1,-56,-5.08887)">
				<path id="XMLID_406_" fill="#7E8589" d="M170.9,380.8c76.3,35.6,152.2,260.4,115.9,338.4C250.1,797.8,62,867.9-18.2,830.5
					c-124.1-58-177.9-205.6-119.9-329.8C-101.4,422.1,90.7,343.4,170.9,380.8z"/>
			</g>
		</g>
		<g id="XMLID_369_" transform="matrix(6.12323e-17,1,-1,6.12323e-17,1569.79,-228.47)">
			<g id="XMLID_371_" transform="matrix(1,0,0,1,-56,-5.08887)">
				<path id="XMLID_372_" fill="#6F7577" d="M218.1,500c61.7-2.4,85.8,72.9,33.2,106.3c-57.6,12.3-66,180.7-244,176.3
					c-125.5-3.2-177.9-174.3-95.2-262.3C26.5,398.6,176.3,517.2,218.1,500z"/>
			</g>
		</g>
		<g id="XMLID_351_">
			<g id="XMLID_354_">
				<g id="XMLID_362_">
					<path id="XMLID_365_" fill="#404040" d="M1069.5-57.7l-30.2,42.2c-6.2,8.8-18.6,10.8-27.4,4.5l-42.2-30.2
						c-8.8-6.2-10.8-18.6-4.5-27.4l30.2-42.2c6.2-8.8,18.6-10.8,27.4-4.5l42.2,30.2C1073.7-78.9,1075.7-66.5,1069.5-57.7z"/>
					<path id="XMLID_363_" fill="#404040" d="M1058.1-96.2l8.4,51.2c1.7,10.6-5.5,20.9-16.2,22.6l-51.2,8.4
						c-10.6,1.7-20.9-5.5-22.6-16.2l-8.4-51.2c-1.7-10.6,5.5-20.9,16.2-22.6l51.2-8.4C1046.1-114.1,1056.2-107,1058.1-96.2z"/>
				</g>
				<g id="XMLID_356_">
					<path id="XMLID_360_" fill="#404040" d="M1063.5-38.2l-44.1,27.4c-9.1,5.7-21.4,2.8-27.1-6.3l-27.4-44.1
						c-5.7-9.1-2.8-21.4,6.3-27.1l44.1-27.4c9.1-5.7,21.4-2.8,27.1,6.3l27.4,44.1C1075.4-56.2,1072.5-44,1063.5-38.2z"/>
					<path id="XMLID_359_" fill="#404040" d="M1067.5-78.1l-11.8,50.5c-2.5,10.6-13.1,17.1-23.6,14.7l-50.4-11.9
						c-10.6-2.5-17.1-13.1-14.7-23.6L978.8-99c2.5-10.6,13.1-17.1,23.6-14.7l50.5,11.8C1063.4-99.3,1070-88.7,1067.5-78.1z"/>
				</g>
			</g>
			<path id="XMLID_353_" fill="#4D4D4D" d="M1045-21.7l-2.8,1.8c-22.5,14-52.5,7-66.5-15.5l-1.8-2.8c-14-22.5-7-52.5,15.5-66.5
				l2.8-1.8c22.5-14,52.5-7,66.5,15.5l1.8,2.8C1074.6-65.6,1067.6-35.7,1045-21.7z"/>
		</g>
	</g>
	<path id="XMLID_366_" fill="#4D4D4D" d="M991-140.3L991-140.3c-11.4,3.9-22.8,1.6-25.1-5.2l-72.3-209.4
		c-2.3-6.8,5.2-15.6,16.6-19.6l0,0c11.4-3.9,22.8-1.6,25.1,5.2l72.3,209.4C1010-153.1,1002.5-144.3,991-140.3z"/>
	
		<text transform="matrix(1 0 0 1 1254.6797 164.3779)" fill="#365996" font-family="'AcuminProCond-Semibold'" font-size="81.6197px">H</text>
	
		<text transform="matrix(1 0 0 1 1295.1797 164.3779)" fill="#365996" font-family="'AcuminProCond-Semibold'" font-size="81.6197px" letter-spacing="-1">o</text>
	
		<text transform="matrix(1 0 0 1 1328.9797 164.3779)" fill="#365996" font-family="'AcuminProCond-Semibold'" font-size="81.6197px">w </text>
	
		<text transform="matrix(1 0 0 1 1395.6797 164.3779)" fill="#365996" font-family="'AcuminProCond-Semibold'" font-size="81.6197px">i</text>
	
		<text transform="matrix(1 0 0 1 1412.3796 164.3779)" fill="#365996" font-family="'AcuminProCond-Semibold'" font-size="81.6197px">t </text>
	
		<text transform="matrix(1 0 0 1 1449.1797 164.3779)" fill="#365996" font-family="'AcuminProCond-Semibold'" font-size="81.6197px" letter-spacing="-2">W</text>
	
		<text transform="matrix(1 0 0 1 1503.1797 164.3779)" fill="#365996" font-family="'AcuminProCond-Semibold'" font-size="81.6197px">o</text>
	
		<text transform="matrix(1 0 0 1 1537.2797 164.3779)" fill="#365996" font-family="'AcuminProCond-Semibold'" font-size="81.6197px">r</text>
	
		<text transform="matrix(1 0 0 1 1560.4797 164.3779)" fill="#365996" font-family="'AcuminProCond-Semibold'" font-size="81.6197px">k</text>
	
		<text transform="matrix(1 0 0 1 1593.2797 164.3779)" fill="#365996" font-family="'AcuminProCond-Semibold'" font-size="81.6197px">s</text>
</g>
<g id="Layer_3">
</g>
</svg>
