<?xml version="1.0" encoding="utf-8"?>
<!-- Generator: Adobe Illustrator 19.0.0, SVG Export Plug-In . SVG Version: 6.00 Build 0)  -->
<svg version="1.1" id="Layer_1" xmlns="http://www.w3.org/2000/svg" xmlns:xlink="http://www.w3.org/1999/xlink" x="0px" y="0px"
	 viewBox="-239 -20 480 600" enable-background="new -239 -20 480 600" xml:space="preserve">
<rect x="-238" y="-20" fill="#BEC4CE" width="480" height="600"/>
<g>
	<path fill="#698CC8" d="M38.7,313c7.8,4.3,15.2,2.5,22.1-2.2c3.2-2.2,5.7-2.7,8.9-0.3c1.7,1.3,4,1.9,6,2.8c0.8,0.4,1.3,0.8,1.5,1.8
		c2.1,8.6,4.2,17.1,6.3,25.7c2.4,10,4.8,20.1,7.2,30.1c1.3,5.5,2.8,10.9,4.2,16.3c0.7,2.6,1.3,5.3,2,8c-0.1,4.7-2.6,7.2-7,8.5
		c-12.8,3.9-25.5,8-38.3,12c-1.1-0.2-1.5-1-1.8-1.9c-0.5-1.4-1.1-2.9-1.3-4.4c-0.3-2.2-1-4.3-1.7-6.4c-8.9-26.8-16.4-54.1-25.1-80.9
		c-0.3-0.9-0.6-1.7-0.5-2.7c0-0.3,0.1-0.6,0.3-0.8c0.5-0.5,1.1-0.8,1.8-1c4.6-1.5,9.3-3,13.9-4.4C37.6,313,38.2,313.1,38.7,313z"/>
	<path fill="#BBCEEA" d="M69.8,285.7c-6.1-1.6-11,1.3-15.9,4.3c-5.5,3.4-10.8,7.1-15.5,11.5c-0.4,0.4-0.8,0.9-1.5,0.9
		c-0.5,0.6-1.1,1-1.9,1.2c-4.9,1.6-9.8,3.1-14.7,4.6c-0.6,0.2-1.2,0.3-1.8,0.1c-1.1-0.7-1.4-2-1.7-3.1c-2.4-7.4-4.7-14.9-7.1-22.3
		c-0.9-2.9-1.1-3-4.1-2.1c-3.4,1-6.8,2.2-10.2,3.2c-5.1,1.8-10.3,3.3-15.5,5c-0.9,0.3-1.7,0.6-2.6,0c0.6-0.7,1.5-0.8,2.2-1
		c26.1-8.3,52.3-16.6,78.4-24.8c4.5-1.4,6-0.5,7.1,4.1C66.6,273.5,68.2,279.6,69.8,285.7z"/>
	<path fill="#5D3400" d="M5.9,380.5c-6.9,1-9.8-3.2-10.8-8.9c-0.3-2,0.4-3.9,2.5-5.6c-4.2,0.4-7.4-0.7-9.2-4
		c-3.4-6.1-2.2-11.2,4.4-12.8c1.6-0.4,3.3-0.4,4.9-1.1c4.5-1.7,9.1-3.1,13.9-1.8c3.5,0.9,5.4,3.4,6.2,6.9c0.4,1.1,0.7,2.3,0.6,3.5
		c-0.1,3.6-1.5,6.6-6.5,6.8c-0.9,0-1.9,0.1-2.8,0.4c-0.9-0.1-1.8,0.2-2.7,0.4c0.7-0.2,1.5-0.4,2.3-0.3c0.9-0.1,1.8-0.4,2.7-0.4
		c1.7-0.2,3.4-0.1,5.2,0.5c7.6,2.5,8.3,11.6,2.7,15.6c2.8,1,5.3,2.4,6.5,5.3c0.9,2.1,0.8,4.2,0.1,6.2c-1.2,3.8-4.3,5.6-8.6,4.9
		c-1.8,0.2-3.6,0.4-5.4,0.7c-4,0.7-7.6-1.6-9.2-5.8c-1.6-4.3-0.7-7.4,2.7-9.5c0.8-0.8,2-0.7,2.9-1.1c0.6-0.1,1.1,0,1.4,0
		c-0.2,0.1-0.7-0.2-1.2-0.1C7.6,380.6,6.7,380.9,5.9,380.5z"/>
	<path fill="#BBCEEA" d="M-22.6,289.2c6-1.9,12-3.7,18-5.6c1,0.6,1.3,1.7,1.6,2.7c2.5,7.8,5,15.7,7.4,23.5c0.3,0.9,0.6,1.9,0.4,2.9
		c-0.3,0.6-0.8,0.9-1.4,1.1c-5.6,1.8-11.1,3.7-16.8,5.2c-0.5,0-0.9-0.1-1.1-0.6c-2.1-5.1-4.2-10.3-6.3-15.4
		c-1.2-2.8-2.3-5.7-3.5-8.5C-25.4,291.6-25,290.5-22.6,289.2z"/>
	<path fill="#698CC8" d="M17.1,396c0.5-0.1,1-0.3,1.5-0.4c4.3-0.6,6.3-2.4,6.9-6.3c0.6-3.8-1.1-6.8-4.7-8.5c-1-0.4-2-0.8-3.2-1.2
		c3.4-1.8,4.9-4.6,4.5-8.3c-0.4-3.9-3.3-6.6-7.8-7.4c-1-0.2-2.1-0.2-3.2-0.2c-0.2-0.4-0.2-0.6,0.4-0.6c5.7-1.6,6.4-2.8,5.9-10
		c0.1-0.2,0.2-0.3,0.4-0.1c6.7,19.1,12.6,38.4,18.8,57.7c0.7,2.2,1.9,4.1,2.5,6.3c0.2,0.8,0.6,1.6,0.3,2.4c-2.2,0.7-4.3,1.8-6.8,1.8
		c-3.3,0.1-5.6-1.5-6.9-4.3c-2.4-5.3-4.5-10.8-6.7-16.2C18.4,399.2,17.8,397.6,17.1,396z"/>
	<path fill="#5D3400" d="M-3.6,345.6c-2.7-0.1-5.3-0.5-7.7-1.9c-3-1.7-4.9-4.2-4.8-7.7c0.1-3.7,1.7-6.6,5.3-8.1
		c1.3-1.4,3-0.7,4.6-0.7c2,0.3,4.1,0.2,6.1,0.4c6.7,0.7,11.1,8.5,8.2,14.6c-1.3,2.8-3.7,4.5-6.9,4.3C-0.3,346.4-2.1,346.7-3.6,345.6
		z"/>
	<path fill="#698CC8" d="M-6.1,327.7c-1.5,0.4-3.1-0.3-4.6,0.3c-1.3-3.2-2.6-6.4-3.9-9.6c0.1,0.1,0.3,0.2,0.4,0.3
		c2.4-0.2,4.5-1.2,6.7-1.9c3.6-1.1,7.1-2.2,10.6-3.4c1.3-0.4,2-0.1,2.6,1c0.9,1.5,1.4,3.2,2,4.8c0.8,2.3,1,2.4,3.3,1.7
		c2.3-0.7,4.6-1.5,6.9-2.2c0.9-0.3,1.9-0.7,2.9-0.5c0.3,0.1,0.5,0.3,0.4,0.6l0,0c-4.4,1.4-8.7,2.8-13.1,4.2c-0.3,0.5-0.7,0.9-1.2,1
		C2.8,325.5-1.4,327.4-6.1,327.7z"/>
	<path fill="#698CC8" d="M-6.1,327.7c4.8-1.5,9.6-3.1,14.4-4.6c3.2,10,6.4,20,9.5,30c-0.1,0-0.2,0.1-0.4,0.1
		c-1.1-5.1-6.6-7.9-12.2-6.7c-2.6,0.6-5.2,1-7.8,1.5c-0.4-0.8-0.7-1.6-1.1-2.4c1.2,0.1,2.4,0.1,3.6,0.2c5.8,0.3,9.3-3.6,8.2-9.4
		c-1-5.4-3.9-7.9-9.4-8.4C-2.8,328-4.5,328.1-6.1,327.7z"/>
	<path fill="#A55421" d="M8.8,380.4c-1.2,0.4-2.3,0.7-3.5,1.1c0.2-0.3,0.4-0.7,0.6-1c0.9-0.1,1.8-0.3,2.8-0.4c0.2,0,0.2,0.1,0.2,0.2
		C8.8,380.4,8.8,380.4,8.8,380.4z"/>
	<path fill="#698CC8" d="M21.4,318.9c0-0.1-0.1-0.3-0.1-0.4c-2.2-2.5-2.6-5.5-2.9-8.6c-0.1-0.7,0.3-1.3,1.1-1.5
		c5.8-1.7,11.5-3.9,17.4-5.3c-0.9,1.6-2.4,2.9-3.2,4.6c-0.5,1.1-0.5,1.8,0.6,2.4c1.5,0.9,3,2,4.5,3c-0.5,0.8-1.4,0.8-2.2,1.1
		C31.5,315.7,26.4,317.3,21.4,318.9z"/>
	<path fill="#698CC8" d="M36.8,303c-5.2,1.7-10.4,3.5-15.7,4.9c-2.4,0.7-2.5,2-2,3.8c0.6,2.3,1.4,4.5,2.1,6.8
		c-3.7,1.2-7.4,2.3-11,3.5c-1.6,0.6-2.3,0.1-2.7-1.5c-0.6-1.9-1.1-3.9-2.1-5.7c-0.7-1.3-1.3-1.5-2.6-1.1c-4.8,1.6-9.7,3.1-14.5,4.6
		c-0.8,0.2-1.5,0.8-2.4,0.3c6.2-2,12.5-4,18.7-5.9c0.1-0.2,0.2-0.4,0.4-0.5c4.1-1.9,8.4-3.3,12.9-4.1c0.2,0,0.4,0.1,0.6,0.2
		c6.1-1.9,12.3-3.9,18.4-5.8C36.9,302.7,36.9,302.8,36.8,303z"/>
	<path fill="#6780AC" d="M11.6,363.2c-0.1,0.2-0.2,0.4-0.4,0.6c-0.9,0.1-1.8,0.2-2.7,0.4c-0.1-0.1-0.3-0.3-0.1-0.5
		c0.1-0.1,0.2-0.1,0.3,0C9.7,363.4,10.6,362.9,11.6,363.2z"/>
	<path fill="#625B57" d="M8.7,363.6c-0.1,0.2-0.2,0.3-0.2,0.5c-0.8,0.1-1.6,0.1-2.4,0.2C6.9,363.8,7.7,363.2,8.7,363.6z"/>
	<path fill="#8A4815" d="M8.8,380.4c0-0.1-0.1-0.3-0.2-0.4c0.5,0,1,0.1,1.6,0.1C9.8,380.8,9.3,380.8,8.8,380.4z"/>
	<polyline fill="#698CC8" points="38.4,301.6 32.9,312.4 -13.6,320.8 -20.9,303 	"/>
	<path fill="#5D3400" d="M69.8,285.7c4.1,0.9,8.1,1.9,12.2,2.7c8.4,1.7,16.4,4.4,24.3,7.5c10.6,4.1,20.6,9.4,29.5,16.6
		c6.1,4.9,11.4,10.5,14.9,17.6c1.2,2.4,2.4,4.8,3,7.4c0.3,1.4,1,2,2.1,2.6c9.8,5,24.5-9.1,32.8-12.1c-5.3,4.6,10.2,33.4,5.5,38.7
		c-8.4,9.5-10,22.8-12.3,20.6c-2.8-2.6-49.1-0.1-50.2,0.5c-6.7,3.5-13.9,5.3-21.3,6.5c-4.5,0.7-9,1.2-13.6,1.1
		c-1.4-1.1-1.5-2.8-1.9-4.3c-2-8.4-4.2-16.8-6.2-25.3c-1.9-7.9-3.9-15.8-5.8-23.7c-2.1-8.7-4.2-17.5-6.5-26.1c-0.3-1.2-1-1.9-2-2.3
		c-2.6-1-5-2.3-7.4-3.6c-1.4-0.7-2.6-0.6-3.9,0.2c-2.2,1.4-4.4,2.7-6.8,3.8c-5.9,2.7-11.7,3-17.5-0.4c-1.7-0.9-3.4-1.9-5-3.1
		c-1.2-0.9-1.4-2-0.8-3.3c0.8-1.7,2.2-3,3.3-4.6c0.1-0.2,0.3-0.4,0.4-0.6c6.8-6.2,14.3-11.5,22.6-15.7
		C62.8,284.5,66.3,284.2,69.8,285.7z"/>
	<path fill="#DDD99E" d="M481.6,218.8c67.9,0.8,70.7,63.1,61.9,91.9c-6.5,2.1-13.2,3.3-19.8,4.9c-19.4,4.6-329.1,71.1-348.5,75.7
		c-2.1,0.5-3.5,0.2-4.6-1.7c-0.7-1.3-1.6-2.4-2.5-3.6c-7.8-11.3-12.7-23.8-15.3-37.3c-1.2-6.1-1.8-12.2-2.2-18.3
		c-0.1-3.8-0.1-3.9,3.7-5c21.6-6.3,42.9-13.3,64.2-20.2c20.2-6.5,240.3-79.9,260.5-86.3c0.7-0.2,1.3-0.5,2-0.4
		C481.3,218.5,481.5,218.6,481.6,218.8z"/>
	<path fill="#CEDEEA" d="M1.5,302.7c-2-6.4-4.1-12.7-6.1-19.1c4-1.3,8-2.5,12-3.9c1.5-0.5,2.1-0.2,2.6,1.4
		c2.2,7.2,4.4,13.9,6.7,21.1L1.5,302.7z"/>
	<path fill="#86A3D2" d="M16.6,302.7c3.4,10.7,11.8,37.6,14.9,48.4c5.3,18.6,11.4,36.9,17.1,55.4c0.7,2.3,0.9,4.8,1.8,7
		c0.3,0.8,0.5,1.6,1.2,2.2c-4.1,1.3-8.1,2.6-12.2,3.9c-1.5-3.5-2.9-7-4.1-10.6c-3.8-11.8-7.6-23.6-11.2-35.4
		c-2.1-6.8-5.1-13.3-6.8-20.3c-2.9-8.8-13-41.7-15.8-50.6C1.1,301.5,15.9,302.3,16.6,302.7z"/>
</g>
<path fill="#698CC8" d="M-35.6,44.7C1.7,71,10.5,123-15.9,160.6c-26.4,37.5-78.6,46.7-115.9,20.5c-39.2-27.7-45.8-80-20.5-116.2
	C-126.2,27.3-73.9,17.7-35.6,44.7z"/>
<g id="XMLID_8_">
	<g id="XMLID_101_">
		<path id="XMLID_189_" fill="#D2D954" d="M-42.5,77.6c-0.2-0.2-0.5,0-0.7,0.1c-0.9,1.4-1.4,3.2-1.5,4.9c-0.4,0.1-0.8,0.2-1.2,0.5
			c-0.7,0.4-1.4,0.9-2.1,1.7c-0.5-0.5-1-1.1-1.4-1.8c-0.3-0.6-0.5-1.1-0.5-1.7c0-0.3-0.2-0.5-0.4-0.5c-0.3,0-0.5,0.2-0.5,0.4
			c0,0.7,0.2,1.5,0.6,2.2c0.4,0.8,1,1.4,1.6,2c-1.1,1.1-2.1,2.3-3.1,3.7c-1-0.7-2.1-1.6-2.6-2.7c-0.1-0.2-0.4-0.4-0.6-0.2
			c-0.2,0.1-0.4,0.4-0.2,0.6c0.6,1.3,1.7,2.3,2.9,3.2c-0.9,1.3-1.7,2.5-2.4,3.8c-1.4,0-2.7-0.4-4-1.1c-0.2-0.2-0.5,0-0.7,0.1
			c-0.2,0.2,0,0.5,0.1,0.7c1.2,0.7,2.5,1.1,4,1.2c-0.7,1.4-1.3,2.7-1.5,3.7c-0.1,0.6-0.1,1.2-0.1,1.8c-1.3,0.7-2.5,0.9-4.4,0.7
			c-0.3,0-0.5,0.1-0.5,0.4s0.1,0.5,0.4,0.5c2,0.2,3.3,0.1,4.7-0.7c0.5,1.2,1.5,2,2.8,2.1c-0.4,1.4-1.2,2.5-2.4,3.5
			c-0.2,0.2-0.2,0.4-0.1,0.7c0.2,0.2,0.4,0.2,0.7,0.1c1.5-1.1,2.3-2.5,2.8-4.2c0.8,0,1.6-0.2,2.4-0.6c0.2,1.7,1.3,3.4,2.6,4.4
			c0.2,0.1,0.5,0.1,0.6-0.1s0.1-0.5-0.1-0.6c-1.2-0.9-2.3-2.5-2.3-4.1c1-0.6,2-1.4,3-2.5c0.4,0.4,1,0.7,1.6,0.9
			c1.3,0.7,2.9,1.2,3.8,1.3c0.3,0,0.5-0.1,0.5-0.4s-0.1-0.5-0.4-0.5c-0.9-0.2-2.4-0.6-3.6-1.2c-0.5-0.3-1-0.5-1.4-0.9
			c1.1-1.4,2.2-2.9,3.1-4.6c1,0.9,1.9,1.9,2.5,3c0.2,0.2,0.4,0.3,0.6,0.1c0.2-0.2,0.3-0.4,0.1-0.6c-0.7-1.3-1.8-2.5-2.9-3.5
			c0.5-1.1,1-2.2,1.4-3.3c1.7,0.2,3.4-0.1,5-0.6c0.2-0.1,0.4-0.4,0.3-0.6s-0.4-0.4-0.6-0.3c-1.3,0.5-2.9,0.6-4.4,0.6
			c0.2-0.8,0.4-1.6,0.5-2.3c0.1-0.9,0-1.7-0.3-2.3c0.7-1.1,1.4-2.2,2.2-3.3c0.2-0.2,0.1-0.5-0.1-0.7c-0.2-0.2-0.5-0.1-0.7,0.1
			c-0.7,1-1.3,2-1.9,3c-0.6-0.8-1.6-1.2-2.7-1.3c0.2-1.5,0.6-3,1.4-4.3C-42.2,78-42.3,77.7-42.5,77.6z M-53.6,97.5
			c0.3,0.2,0.4,0.6,0.1,0.9c-0.2,0.3-0.6,0.4-0.9,0.1c-0.3-0.2-0.4-0.6-0.1-0.9C-54.2,97.4-53.9,97.3-53.6,97.5z M-49.7,96.9
			c0.6,0.4,0.8,1.3,0.4,1.9c-0.4,0.6-1.3,0.8-1.9,0.4s-0.8-1.3-0.4-1.9C-51.2,96.6-50.3,96.5-49.7,96.9z M-50.1,92.2
			c0.5,0.3,0.6,0.9,0.3,1.3c-0.3,0.4-0.9,0.5-1.4,0.2c-0.5-0.3-0.6-0.9-0.3-1.3C-51.2,92-50.6,91.9-50.1,92.2z M-45.3,91.4
			c0.6,0.4,0.7,1.2,0.3,1.7c-0.4,0.6-1.2,0.7-1.7,0.3c-0.6-0.4-0.7-1.2-0.3-1.7C-46.6,91.2-45.8,91-45.3,91.4z M-46.6,87.8
			c0.3,0.2,0.4,0.7,0.2,1c-0.2,0.3-0.7,0.4-1,0.2s-0.4-0.7-0.2-1C-47.3,87.7-46.9,87.6-46.6,87.8z M-43.1,86.5
			c0.5,0.3,0.6,1.1,0.3,1.5c-0.3,0.5-1.1,0.6-1.5,0.3c-0.5-0.3-0.6-1.1-0.3-1.5C-44.3,86.3-43.6,86.2-43.1,86.5z"/>
		<path id="XMLID_173_" fill="#F4B07F" d="M-93.1,92.4c0.2-0.6-0.2-1.3-0.8-1.5c-0.5-0.1-1.1,0.1-1.4,0.5c-0.1-0.1-0.2,0-0.3-0.1
			c-0.3,0-0.4,0-0.7-0.1c-0.4,0-0.7-0.1-1.2-0.1c0.1-1.7-0.1-3.4-0.5-5.3c0.6-0.2,1.2-0.4,1.6-0.6c0.1,0.5,0.6,0.9,1.1,1.1
			c0.9,0.2,1.8-0.2,2.1-1.1c0.2-0.9-0.2-1.8-1.1-2.1c-0.9-0.2-1.8,0.2-2.1,1.1c0,0.1-0.1,0.2-0.1,0.2c-0.3,0-0.6,0.1-0.7,0.2
			c-0.4,0.1-0.8,0.2-1.2,0.3c-0.4-1.8-1.2-3.7-2-5.3c0.5-0.3,0.8-0.8,1.2-1.2c0.1-0.1,0.2-0.2,0.4-0.5c0.1,0.1,0.2,0.2,0.4,0.2
			c0.8,0.3,1.5-0.2,1.7-0.9c0.3-0.8-0.2-1.5-0.9-1.7c-0.8-0.3-1.5,0.2-1.7,0.9c-0.1,0.2,0,0.3-0.1,0.4c-0.1,0.1-0.3,0.2-0.4,0.3
			c-0.4,0.3-0.8,0.6-1.1,0.9c-0.1,0.1-0.1,0.1-0.2,0.2c-0.8-1.3-1.7-2.4-2.6-3.4c0.1-0.1,0.1-0.1,0.1-0.2c0.5-0.7,1-1.5,1.3-2.3
			c0.7,0.1,1.3-0.3,1.5-1c0.2-0.7-0.2-1.5-0.9-1.8c-0.7-0.2-1.5,0.2-1.8,0.9c-0.1,0.4,0,0.8,0.1,1.1c-0.2,0.2-0.3,0.4-0.4,0.5
			c-0.2,0.4-0.5,0.8-0.7,1.1c-0.1,0.2-0.2,0.4-0.4,0.5c-1.4-1-2.8-1.7-4.4-1.8c0.2-0.8,0.2-1.8,0-2.5c0.3-0.2,0.5-0.4,0.6-0.8
			c0.3-0.8-0.2-1.6-1-1.9c-0.8-0.3-1.6,0.2-1.9,1c-0.3,0.8,0.2,1.6,1,1.9c0.1,0,0.1,0,0.2,0.1c0,0.2,0,0.4,0,0.4c0,0.4,0,0.9,0,1.4
			c0,0.1,0,0.4,0,0.5c-1.1,0.2-1.9,0.8-2.4,1.7c-0.3-0.3-0.7-0.7-1.1-0.9c-0.2-0.2-0.4-0.3-0.5-0.5l0,0c0.3-0.8-0.2-1.6-1-1.9
			c-0.8-0.3-1.6,0.2-1.9,1c-0.3,0.8,0.2,1.6,1,1.9c0.4,0.1,0.7,0.1,1.1-0.1c0.2,0.3,0.5,0.5,0.7,0.8c0.3,0.3,0.6,0.7,0.9,1
			c0.1,0.1,0.2,0.1,0.2,0.3c-0.3,1.3-0.4,2.6-0.3,4c-0.2,0-0.4,0-0.5,0c-0.4,0-0.7,0-1,0s-0.5,0-0.8,0c-0.1-0.5-0.5-0.9-1-1
			c-0.8-0.3-1.6,0.2-1.9,1c-0.3,0.8,0.2,1.6,1,1.9c0.7,0.2,1.4-0.1,1.7-0.7c0.9,0,2.1-0.2,2.5-0.3c0.1,0.8,0.2,1.6,0.4,2.2
			c0.2,1.1,0.5,2,0.9,3c-0.1,0-0.3,0.1-0.6,0.1c-0.3,0.1-0.7,0.2-1.1,0.4c-0.2,0.1-0.3,0.1-0.5,0.2c-0.2-0.1-0.3-0.2-0.5-0.3
			c-0.7-0.2-1.4,0.2-1.6,0.9s0.2,1.4,0.9,1.6s1.4-0.2,1.6-0.9c0.1-0.2,0-0.2,0-0.4c0.8-0.3,1.8-0.9,2-1c0.4,1.2,1,2.5,1.5,3.6
			c0,0,0,0,0,0.1c0,0,0,0-0.1,0c-0.3,0.2-0.7,0.5-1.1,0.6c-0.3,0.2-0.6,0.4-0.9,0.5c-0.1-0.1-0.2-0.1-0.2-0.1
			c-0.6-0.2-1.2,0.2-1.4,0.8s0.2,1.2,0.8,1.4s1.2-0.2,1.4-0.8c0.1-0.2,0-0.3,0-0.5l0,0c0.6-0.4,1.3-0.7,1.8-1.2
			c0.4,0.8,0.9,1.6,1.4,2.4c-0.2,0.2-0.4,0.3-0.6,0.5c-0.4,0.3-0.8,0.7-1.2,1c-0.2,0.2-0.4,0.4-0.6,0.6c-0.1,0-0.1-0.1-0.2-0.1
			c-0.7-0.2-1.4,0.2-1.6,0.9c-0.2,0.7,0.2,1.4,0.9,1.6s1.4-0.2,1.6-0.9c0.1-0.2,0.1-0.5,0-0.8c0.8-0.6,1.6-1.3,2.2-2
			c0.5,0.7,1,1.4,1.7,1.9c-0.1,0.1-0.1,0.2-0.2,0.2c-0.2,0.3-0.3,0.6-0.5,0.9c-0.1,0.2-0.3,0.5-0.4,0.8c-0.6-0.1-1,0.3-1.3,0.8
			c-0.2,0.6,0.2,1.3,0.8,1.5s1.3-0.2,1.5-0.8c0.1-0.4,0.1-0.7-0.1-1l0,0c0.3-0.6,0.6-1.2,0.8-1.8c0.2,0.1,0.2,0.2,0.4,0.3
			c0.6,0.4,1.2,0.7,2,1v0.1c0,0.2-0.1,0.4-0.1,0.5c-0.1,0.4-0.2,0.9-0.3,1.3c0,0.2-0.1,0.4-0.1,0.7c-0.4,0.1-0.9,0.4-1,0.8
			c-0.2,0.7,0.2,1.4,0.9,1.6s1.4-0.2,1.6-0.9c0.2-0.5,0-1-0.3-1.3c0-0.1,0-0.1,0-0.2c0.1-0.8,0.3-1.7,0.2-2.5
			c0.2,0.1,0.3,0.1,0.4,0.1c0.9-0.3,1.6-0.6,2.2-1.2c0,0.1,0.1,0.2,0.1,0.2c0.2,0.3,0.4,0.7,0.6,1.1c0.2,0.2,0.3,0.5,0.4,0.7
			c-0.1,0.1-0.1,0.2-0.2,0.4c-0.3,0.8,0.2,1.6,0.9,1.7c0.8,0.3,1.6-0.2,1.7-0.9c0.2-0.7-0.2-1.6-0.9-1.7c-0.2,0-0.4-0.1-0.7-0.1
			c-0.4-0.7-1-1.3-1.5-2c0,0,0,0,0-0.1c0.8-1,1.3-2.4,1.5-4c0.9,0,1.7-0.1,2-0.1c0,0,0,0,0.1,0c0.1,0.4,0.3,0.8,0.8,1
			C-93.9,93.4-93.3,93-93.1,92.4z M-105.7,80c-0.1,0.4-0.5,0.6-0.9,0.5s-0.6-0.5-0.5-0.9s0.5-0.6,0.9-0.5
			C-105.8,79.3-105.6,79.7-105.7,80z M-106.8,84.1c-0.2,0.5-0.6,0.6-1,0.5c-0.5-0.2-0.6-0.6-0.5-1c0.2-0.5,0.6-0.6,1-0.5
			C-106.9,83.3-106.7,83.8-106.8,84.1z M-104.8,92.4c0.1-0.4,0.5-0.6,0.9-0.5s0.6,0.5,0.5,0.9s-0.5,0.6-0.9,0.5
			C-104.7,93.1-104.9,92.7-104.8,92.4z M-105.4,86.3c0.7,0.2,1,0.9,0.8,1.5c-0.2,0.7-0.9,1-1.5,0.8c-0.7-0.2-1-0.9-0.8-1.5
			C-106.8,86.5-106.1,86.1-105.4,86.3z M-102.1,84.5c-0.3,0.8-1.1,1.3-2,1c-0.8-0.3-1.3-1.1-1-2c0.3-0.8,1.1-1.3,2-1
			C-102.3,82.9-101.8,83.7-102.1,84.5z M-101.5,89.3c-0.2,0.5-0.6,0.7-1.1,0.6c-0.5-0.2-0.7-0.6-0.6-1.1c0.2-0.5,0.6-0.7,1.1-0.6
			C-101.7,88.4-101.4,88.8-101.5,89.3z"/>
		<path id="XMLID_157_" fill="#F4B07F" d="M-119.4,143c-0.3,0.2-0.4,0.6-0.2,0.9c0.2,0.2,0.5,0.3,0.8,0.2c0.1,0,0,0.1,0.1,0.1
			c0.1,0.1,0.2,0.1,0.2,0.2c0.2,0.1,0.3,0.3,0.5,0.4c-0.6,0.7-1.1,1.5-1.6,2.5c-0.4-0.1-0.7-0.3-1-0.3c0.1-0.3,0.1-0.6-0.1-0.8
			c-0.3-0.4-0.9-0.5-1.3-0.2c-0.4,0.3-0.5,0.9-0.2,1.3c0.3,0.4,0.9,0.5,1.3,0.2c0,0,0-0.1,0.1,0c0.1,0.1,0.3,0.2,0.3,0.2
			c0.2,0.1,0.4,0.2,0.6,0.2c-0.4,1-0.7,2-0.9,3.1c-0.3,0-0.6,0-0.9,0.1c-0.1,0-0.2,0-0.3,0.1c0-0.1,0-0.2-0.1-0.2
			c-0.3-0.3-0.7-0.4-1.1-0.2c-0.3,0.3-0.4,0.7-0.2,1.1c0.3,0.3,0.7,0.4,1.1,0.2c0.1,0,0.1-0.1,0.1-0.2c0.1,0,0.2,0,0.3,0
			c0.2,0,0.6,0,0.8,0c0.1,0,0.1,0,0.2,0c-0.1,0.9-0.1,1.7,0,2.4h-0.1c-0.5,0.2-1,0.3-1.3,0.6c-0.2-0.2-0.7-0.3-1-0.1
			c-0.3,0.3-0.4,0.7-0.2,1.1c0.3,0.3,0.7,0.4,1.1,0.2c0.2-0.1,0.3-0.3,0.3-0.5c0.2,0,0.3-0.1,0.4-0.1c0.3-0.1,0.5-0.2,0.7-0.2
			c0.1,0,0.2-0.1,0.4-0.1c0.2,0.9,0.7,1.8,1.3,2.3c-0.3,0.3-0.7,0.7-0.9,1.1c-0.2,0-0.3,0-0.5,0.1c-0.4,0.3-0.5,0.8-0.2,1.2
			s0.8,0.5,1.2,0.2c0.4-0.3,0.5-0.8,0.2-1.2c0,0-0.1,0,0-0.1c0.1,0,0.1-0.2,0.1-0.2c0.1-0.2,0.3-0.4,0.5-0.6c0-0.1,0.1-0.1,0.2-0.3
			c0.5,0.3,1.1,0.2,1.7,0c0.1,0.3,0.1,0.5,0.1,0.8c0,0.2,0.1,0.3,0.1,0.4l0,0c-0.3,0.3-0.5,0.8-0.2,1.2s0.8,0.5,1.2,0.2
			s0.5-0.8,0.2-1.2c-0.1-0.2-0.3-0.3-0.5-0.3c0-0.2,0-0.4,0-0.6c0-0.2-0.1-0.5-0.1-0.7c0,0,0-0.1,0-0.2c0.6-0.4,1.1-1.1,1.5-1.7
			c0,0.1,0.2,0.1,0.2,0.1c0.1,0.1,0.3,0.3,0.4,0.3c0.1,0.1,0.3,0.2,0.4,0.3c-0.1,0.3-0.1,0.5,0.1,0.8c0.3,0.3,0.8,0.5,1.2,0.2
			c0.3-0.3,0.5-0.8,0.2-1.2c-0.2-0.3-0.6-0.5-1-0.3c-0.4-0.3-1-0.6-1.2-0.7c0.2-0.4,0.5-0.8,0.6-1.1c0.3-0.5,0.5-1.1,0.7-1.6
			c0.1,0,0.2,0.1,0.3,0.1c0.2,0.1,0.4,0.2,0.6,0.2c0.1,0,0.2,0.1,0.3,0.1c0,0.1,0.1,0.2,0.1,0.3c0.2,0.3,0.7,0.4,1,0.2
			s0.4-0.7,0.2-1s-0.7-0.4-1-0.2c-0.1,0-0.1,0-0.1,0.1c-0.5-0.1-1.1-0.2-1.2-0.2c0.3-0.7,0.4-1.4,0.5-2.2l0,0l0,0
			c0.2,0,0.5,0.1,0.7,0.1s0.4,0.1,0.6,0v0.1c0.2,0.3,0.6,0.4,0.8,0.1c0.2-0.2,0.4-0.6,0.1-0.8c-0.2-0.2-0.6-0.4-0.8-0.1
			c-0.1,0-0.1,0.1-0.1,0.2l0,0c-0.4-0.1-0.8-0.1-1.2-0.1c0.1-0.5,0.2-1,0.2-1.5c0.2,0,0.3,0,0.4,0c0.2,0,0.6,0,0.8,0s0.3,0,0.5-0.1
			v0.1c0.2,0.3,0.7,0.4,1,0.2c0.3-0.2,0.4-0.7,0.2-1s-0.7-0.4-1-0.2c-0.1,0.1-0.2,0.2-0.3,0.3c-0.6,0-1.1,0-1.7,0.1c0-0.5,0-1,0-1.5
			c0.1,0,0.1,0,0.2,0c0.2-0.1,0.4-0.1,0.5-0.2c0.2-0.1,0.3-0.1,0.5-0.2c0.2,0.2,0.6,0.2,0.9,0.1c0.3-0.2,0.4-0.7,0.2-0.9
			c-0.2-0.3-0.7-0.4-0.9-0.2c-0.2,0.1-0.3,0.3-0.3,0.5l0,0c-0.3,0.1-0.7,0.3-1,0.5c0-0.1,0-0.2-0.1-0.3c-0.1-0.4-0.3-0.8-0.6-1.1
			l0,0c0.1,0,0.1-0.1,0.2-0.2c0.2-0.2,0.4-0.4,0.6-0.5c0.1-0.1,0.2-0.2,0.3-0.3c0.2,0.1,0.5,0.1,0.7-0.1c0.3-0.2,0.4-0.7,0.2-1
			c-0.2-0.3-0.7-0.4-1-0.2c-0.2,0.2-0.3,0.4-0.3,0.7c0,0,0,0.1-0.1,0c-0.4,0.4-0.7,0.6-0.9,1c0-0.1-0.1-0.1-0.2-0.2
			c-0.5-0.2-1-0.3-1.4-0.2c0-0.1,0-0.1,0.1-0.1c0.1-0.2,0.1-0.5,0.1-0.7s0-0.3,0-0.5c0.1,0,0.2,0,0.2-0.1c0.3-0.3,0.4-0.7,0.2-1.1
			c-0.3-0.3-0.7-0.4-1.1-0.2c-0.3,0.3-0.4,0.7-0.2,1.1c0,0.1,0.2,0.2,0.3,0.3c0,0.5,0,1,0,1.4l0,0c-0.7,0.2-1.4,0.6-2.1,1.3
			c-0.4-0.3-0.8-0.5-1-0.7l0,0c0.1-0.2,0.1-0.5,0-0.7C-118.7,142.9-119,142.8-119.4,143z M-118,152.9c0.2-0.1,0.4-0.1,0.5,0.1
			s0.1,0.4-0.1,0.5c-0.2,0.1-0.4,0.1-0.5-0.1C-118.2,153.2-118.2,153-118,152.9z M-116.1,151.4c0.2-0.2,0.5-0.1,0.6,0.1
			c0.2,0.2,0.1,0.5-0.1,0.6c-0.2,0.2-0.5,0.1-0.6-0.1C-116.4,151.8-116.3,151.5-116.1,151.4z M-114.2,147.1
			c-0.2,0.1-0.4,0.1-0.5-0.1s-0.1-0.4,0.1-0.5s0.4-0.1,0.5,0.1C-114,146.6-114,147-114.2,147.1z M-116,150c-0.2-0.3-0.1-0.8,0.2-1
			s0.8-0.1,1,0.2s0.1,0.8-0.2,1S-115.7,150.3-116,150z M-118,149.6c0.4-0.3,0.9-0.1,1.2,0.2c0.3,0.3,0.1,0.9-0.2,1.2
			c-0.4,0.3-0.9,0.1-1.2-0.2C-118.5,150.4-118.4,149.9-118,149.6z M-116.7,147.3c0.2-0.2,0.5-0.1,0.7,0.1c0.2,0.2,0.1,0.5-0.1,0.7
			c-0.2,0.2-0.5,0.1-0.7-0.1C-116.9,147.8-116.9,147.4-116.7,147.3z"/>
		<path id="XMLID_147_" fill="#E69C0E" d="M-69.3,144c-0.4-0.4-1-0.4-1.7,0l-2.6-4.7c0.7-0.6,1.3-1.2,1.8-1.9
			c0.3-0.4,0.5-0.7,0.8-1.1l2.2,1.5c-0.3,1-0.2,1.8,0.3,2c0.6,0.3,1.5-0.4,2.1-1.5c0.6-1.2,0.5-2.3-0.1-2.6c-0.4-0.2-1,0.1-1.5,0.7
			l-2-2c0.5-1.4,0.8-2.8,0.8-4.3l3.3,0.1c0.3,0.8,0.8,1.3,1.4,1.2c0.7-0.1,1.2-1.2,1-2.4c-0.2-1.2-0.9-2.1-1.6-2
			c-0.5,0.1-0.8,0.5-0.9,1.1l-3.5-0.9c-0.2-1.1-0.7-2.1-1.2-3.1l3.3-2.7c0.6,0.5,1.2,0.7,1.6,0.5c0.6-0.4,0.5-1.5-0.1-2.5
			s-1.6-1.6-2.2-1.2c-0.4,0.2-0.5,0.9-0.3,1.5l-4.1,2c-0.5-0.6-1-1-1.6-1.5c-0.1,0-0.1,0-0.1-0.1l2.2-5.2c0.9,0.3,1.9,0.3,2.3-0.3
			c0.5-0.8,0-2.1-1.2-2.9s-2.6-0.9-3.1-0.1c-0.4,0.6-0.1,1.5,0.5,2.2l-3.2,4.8c-1.3-0.5-2.6-0.9-4.1-0.9v-3.5c0.8-0.1,1.4-0.6,1.5-1
			c0.1-0.7-0.8-1.4-2.2-1.6c-1.2-0.1-2.4,0.4-2.4,1.1c-0.1,0.7,0.7,1.3,1.6,1.6l-0.8,3.6c-1.2,0.2-2.4,0.5-3.4,1l-2.8-4.8
			c0.6-0.7,0.8-1.5,0.4-2c-0.5-0.7-1.9-0.7-3.1,0.2c-1.2,0.8-1.8,2.1-1.3,2.8c0.4,0.7,1.6,0.7,2.7,0.1l1.9,5
			c-0.9,0.7-1.7,1.4-2.4,2.4c-0.3,0.4-0.6,0.8-0.8,1.2l-3.6-0.6c0-0.8-0.3-1.6-0.9-1.7c-0.8-0.2-1.6,0.5-2,1.7
			c-0.3,1.2,0,2.3,0.8,2.5c0.7,0.2,1.4-0.3,1.8-1.2l3,1.1c-0.4,1-0.7,2-0.8,3.1l-6.6,2.5c-0.5-0.8-1.3-1.3-1.9-1.1
			c-0.8,0.3-1,1.6-0.4,2.9c0.5,1.3,1.5,2.1,2.3,1.8c0.6-0.3,0.9-1.3,0.6-2.4l6.1-1.3c0.1,1.2,0.4,2.3,0.8,3.3l-4,3.2
			c-0.6-0.4-1.2-0.6-1.6-0.3c-0.5,0.4-0.5,1.4,0.2,2.3c0.6,0.8,1.6,1.2,2.1,0.8c0.4-0.4,0.5-1.1,0.1-1.8l4.1-2.3
			c0.8,1.3,1.8,2.5,3.1,3.5l0,0l-2,5.6c-1.1-0.3-2.1-0.1-2.4,0.6c-0.4,0.8,0.5,1.9,1.8,2.5c1.3,0.5,2.7,0.4,3-0.4
			c0.3-0.6-0.1-1.3-0.8-1.9l2.8-5c1.7,0.8,3.5,1.1,5.3,1.1l1.1,3.3c-0.8,0.2-1.4,0.8-1.4,1.3c0,0.8,1.1,1.4,2.4,1.4
			c1.3,0,2.4-0.7,2.4-1.5c0-0.7-0.8-1.3-1.9-1.4l-0.6-3.3c1.4-0.3,2.7-0.8,3.9-1.5l3.2,4.3c-0.9,1-1.2,2.1-0.7,2.6
			c0.6,0.6,1.8,0.3,2.8-0.7C-69.1,145.8-68.7,144.6-69.3,144z M-87.9,127.1c-0.3,0.5-1,0.5-1.4,0.2c-0.5-0.3-0.5-1-0.2-1.4
			c0.3-0.5,1-0.5,1.4-0.2C-87.6,126-87.5,126.6-87.9,127.1z M-81.4,126.2c-0.7,0.8-1.9,1-2.7,0.4c-0.8-0.7-1-1.9-0.4-2.7
			c0.7-0.8,1.9-1,2.7-0.4C-80.9,124.2-80.7,125.4-81.4,126.2z M-86.8,133.7c-0.7,1-2.1,1.1-3,0.4c-1-0.7-1.1-2.1-0.4-3
			c0.7-1,2.1-1.1,3-0.4S-86.1,132.8-86.8,133.7z M-77.1,124.4c-0.3,0.5-1,0.5-1.4,0.2c-0.5-0.3-0.5-1-0.2-1.4c0.3-0.5,1-0.5,1.4-0.2
			C-76.7,123.3-76.7,124-77.1,124.4z M-78.7,131.9c-0.4,0.6-1.3,0.7-2,0.3c-0.6-0.4-0.7-1.3-0.3-2c0.4-0.6,1.3-0.7,2-0.3
			C-78.4,130.3-78.2,131.2-78.7,131.9z M-82,136.2c-0.3,0.5-1,0.5-1.4,0.2c-0.5-0.3-0.5-1-0.2-1.4c0.3-0.5,1-0.5,1.4-0.2
			C-81.7,135.1-81.6,135.8-82,136.2z M-73.8,130c-0.3,0.4-0.9,0.5-1.4,0.2c-0.4-0.3-0.5-0.9-0.2-1.4c0.3-0.4,0.9-0.5,1.4-0.2
			C-73.6,128.9-73.5,129.6-73.8,130z M-75.3,136.5c-0.6,0.8-1.7,0.9-2.5,0.3s-0.9-1.7-0.3-2.5c0.6-0.8,1.7-0.9,2.5-0.3
			C-74.9,134.7-74.8,135.7-75.3,136.5z"/>
		<circle id="XMLID_146_" fill="#FFFF06" cx="-74.2" cy="71.2" r="4.6"/>
		<circle id="XMLID_144_" fill="#FFFF06" cx="-34.3" cy="112.5" r="2.7"/>
		<circle id="XMLID_138_" fill="#FFFF06" cx="-75.2" cy="161.5" r="2.7"/>
		<circle id="XMLID_132_" fill="#E69C0E" cx="-48.7" cy="132.6" r="3.7"/>
		<circle id="XMLID_130_" fill="#FFFF06" cx="-132.2" cy="98.1" r="3.7"/>
		<circle id="XMLID_115_" fill="#FFFF06" cx="-74.4" cy="97.6" r="2"/>
		<circle id="XMLID_110_" fill="#FFFF06" cx="-134.1" cy="127.1" r="2"/>
		<circle id="XMLID_109_" fill="#F4B07F" cx="-119.4" cy="117.4" r="1.6"/>
		<circle id="XMLID_108_" fill="#FFFF06" cx="-55" cy="52.4" r="2"/>
		<circle id="XMLID_106_" fill="#F4B07F" cx="-55" cy="52.4" r="1.6"/>
	</g>
</g>
<path fill="#365996" d="M-35.3,44.3c-14.3-10.1-31.1-15.5-48.6-15.5c-27.5,0-53.2,13.4-68.8,35.8c-12.6,18-17.5,39.9-14,61.7
	c3.6,22.4,15.9,42,34.7,55.2c13.9,9.8,30.3,15,47.6,15c27.4,0,53.2-13.4,69-35.7C11.1,123,2.2,70.7-35.3,44.3z M-83.9,31.3
	c16.9,0,33.2,5.2,47.1,15c36.4,25.7,45,76.5,19.3,113.1C-32.7,181.1-57.7,194-84.4,194c-16.6,0-32.5-5-46.1-14.5
	c-18.3-12.9-30.2-31.9-33.7-53.7c-3.4-21.3,1.4-42.5,13.6-59.8c15-21.6,39.7-34.6,66.2-34.8v0.1H-83.9z"/>
<g>
	<path fill="#3A6184" d="M-425.8,773.8c0.3-0.7,0.7-1.2,1.1-1.8c12.7-17.1,153.8-201.2,166.6-218.1c13.4-17.9,27.1-35.8,40.1-54.1
		c2.2-3.3,2.4-3.3,5.9-1.8c5.7,2.4,11.3,5,16.6,8.1c11.8,6.9,22.1,15.6,30.3,26.7c0.8,1.1,1.6,2.4,2.6,3.5c1.5,1.7,1.3,3.2,0.2,4.9
		C-173,558-337,829.1-347.7,845.9c-3.7,5.7-7,11.7-11.1,17.1c-30-1.2-88.1-24-66.6-88.6C-425.5,774.2-425.5,774-425.8,773.8z"/>
	<path fill="#CF9C6D" d="M-112.6,394.9c9.2,1.7,17.9,4.7,26.2,8.6c0.1,0.1,0.4,0.3,0.5,0.4c1.5,1.3,3.1,2.1,4.5,3.5
		c1.1,1.1,1.1,2.2,0.2,3.4c-1.3,1.6-2.5,3.1-3.9,4.5c-4.6,4.9-10.2,6.3-16.7,5.4c-2.5-0.3-5.1-0.9-7.5-1.6c-1.4-0.4-2.6-0.2-3.7,0.9
		c-1.9,1.9-3.9,3.8-6.1,5.5c-0.8,0.7-1.3,1.5-1.3,2.7c0.1,8.9,0.8,18,1.2,26.9c0.4,8.2,0.8,16.3,1.3,24.4c0.5,8.6,0.8,17.3,1.4,25.9
		c0.1,1.5,0.4,3.2-0.6,4.7c-4.4,1.6-8.8,2.3-13.3,2.9c-7.4,1-14.8,1.3-22.2-0.1c-1.2-0.2-1.8,0.1-2.4,1.2c-1.7,3.5-3.4,6.9-5.4,10.3
		c-1.7,2.7-2.7,6-5.1,8.3c-7.7-10.1-17-18.4-27.7-25c-6.1-3.7-12.5-6.6-18.9-9.5c7-8.4,14.7-16.2,22.6-23.8c1-0.9,1.4-1.8,1.3-3.1
		c-0.1-2.7,0.4-5.3,0.8-7.9c1.4-7.8,4.9-14.6,9.3-21.1c6.5-9.4,14.5-17.3,23.4-24.3c6.7-5.2,13.6-10.2,21.2-14.2
		c3.7-2,7.3-4.1,10.9-6.1C-119.7,395.4-116.3,394.7-112.6,394.9z"/>
	<path fill="#698CC8" d="M-83.5,414.9c4.9,0.1,9.7,0.2,14.7,0.2c0.7,0,1.4,0,1.9,0.4c0.3,0.1,0.4,0.4,0.5,0.7c0.3,1,0.2,1.8,0.2,2.7
		c-0.7,28.2-0.2,56.5-0.9,84.7c-0.2,2.2-0.1,4.4,0.2,6.6c0.3,1.5,0.2,3,0.1,4.5c0,1-0.2,1.9-1.1,2.3c-13.3-0.2-26.7-0.4-40-0.5
		c-4.5-0.1-7.7-1.8-9.1-6.2c-0.2-2.7-0.3-5.5-0.4-8.2c-0.2-5.6-0.4-11.3-0.7-16.9c-0.5-10.3-1.2-20.6-1.7-30.9
		c-0.5-8.8-0.8-17.6-1.4-26.4c0-1,0.3-1.6,1-2.2c1.7-1.5,3.6-2.7,4.9-4.4c2.4-3.1,5-3.3,8.7-2.2c7.9,2.5,15.5,2,21.7-4.3
		C-84.5,415-83.9,414.7-83.5,414.9z"/>
	<path fill="#B3C5E2" d="M-123.6,379c-0.2-4.7,1.1-6,5.7-5.9c27.4,0.4,54.8,0.9,82.3,1.3c0.8,0,1.6-0.2,2.5,0.3
		c-0.7,0.7-1.5,0.7-2.5,0.6c-5.5-0.1-10.8,0-16.3-0.3c-3.6-0.1-7.1-0.1-10.7-0.2c-3.2-0.1-3.3,0.1-3.3,3.1
		c-0.1,7.8-0.2,15.6-0.4,23.4c0,1.1,0.1,2.3-0.7,3.4c-0.6,0.3-1.2,0.4-1.8,0.4c-5.1-0.1-10.3-0.2-15.4-0.2c-0.8,0-1.5-0.2-2.2-0.6
		c-0.6,0.3-1.1-0.2-1.6-0.4c-5.8-3-11.9-4.9-18.1-6.6c-5.5-1.5-11.1-2.8-16.5,0.4C-122.9,391.5-123.1,385.2-123.6,379z"/>
	<path fill="#86A3D2" d="M-64.6,415c3.3,0.1,6.4,0.1,9.7,0.2c0.7,0,1.5,0,2,0.6c0.7,1.1,0.5,2.5,0.5,3.7c-0.1,9.3-0.3,18.5-0.6,27.8
		c0.3,7.1-0.6,14.3-0.8,21.4c-0.1,12.3-0.3,24.8-0.6,37.2c-0.1,3.8-0.4,7.7-0.9,11.4c-4.2-0.1-8.5-0.1-12.7-0.2
		c0.4-0.8,0.4-1.6,0.5-2.5c0.2-2.5-0.3-4.8-0.3-7.3c0.2-19.2,0.8-38.5,0.5-57.9c-0.2-11.2,0.2-22.5,0.4-33.7
		C-66.3,415.2-65.4,415.2-64.6,415z"/>
	<path fill="#CF9C6D" d="M-37.1,470.9c-0.6,0.1-0.8,0.5-1.1,0.5c0.3,0,0.8-0.4,1.4-0.4c1.1,0,2.2-0.4,3.2,0.2c4,1,5.7,3.8,5.4,8.3
		c-0.3,4.4-3.1,7.6-7.1,8.1c-1.8,0.2-3.6,0.6-5.4,0.9c-3.9,1.9-7.3,1.1-9.6-2.2c-1.2-1.8-2-3.9-1.7-6.1c0.3-3,2.4-5.2,4.8-6.9
		c-6.5-2.3-8.5-11.2-1.9-15.8c1.5-1.1,3-1.6,4.8-2c1-0.3,1.8-0.2,2.7-0.4c0.7-0.3,1.4-0.4,2.2-0.4c-1,0.1-1.9,0.1-2.8,0.5
		c-1,0-1.8,0.2-2.8,0.5c-4.8,1.3-7-1.2-8.2-4.7c-0.3-1.1-0.4-2.3-0.4-3.6c-0.2-3.6,0.9-6.6,4-8.4c4.3-2.7,9.1-2.6,13.9-2.2
		c1.6,0.3,3.3-0.2,4.9-0.3c6.7-0.4,9.4,4.1,7.8,11c-0.7,3.7-3.5,5.7-7.6,6.5c2.5,1,3.8,2.5,4,4.6c0.7,5.8-0.9,10.7-7.7,11.7
		C-34.9,470.9-35.9,470.9-37.1,470.9z"/>
	<path fill="#B3C5E2" d="M-29.9,379.4c-0.7,8.6-1.6,17.1-2.5,25.7c-0.1,0.4-0.6,0.7-1,0.8c-5.9,0.3-11.7,0-17.6-0.1
		c-0.5,0-1.2-0.2-1.6-0.7c-0.5-0.8-0.5-1.9-0.5-2.9c0.1-8.2,0.3-16.5,0.4-24.7c0-1.1-0.1-2.2,0.7-3c6.2,0,12.5,0.1,18.8,0.2
		C-30.5,375.3-29.7,376.1-29.9,379.4z"/>
	<path fill="#698CC8" d="M-41.1,493.9c-0.6,5.7-1,11.6-1.8,17.4c-0.3,3-2.1,5.2-5.3,6.1c-2.3,0.6-4.7,0.2-7,0.2
		c-0.4-0.8-0.4-1.7-0.4-2.5c-0.1-2.3,0.5-4.7,0.5-6.8c0.3-20.3,0.5-40.4,1.2-60.6c0.1-0.3,0.3-0.1,0.4,0c1.5,7,2.6,8,8.5,7.8
		c0.6-0.3,0.5,0,0.5,0.4c-1.1,0.4-2.1,0.7-3,1.2c-4.1,2.1-6.1,5.5-5.4,9.4c0.8,3.6,2.9,5.8,6.8,6.6c-1,0.8-1.8,1.5-2.6,2.2
		c-2.9,2.6-3.7,6-2.1,9.4c1.7,3.5,4.2,4.6,8.4,4c0.6-0.1,1.1-0.1,1.6-0.1C-40.7,490.2-40.9,491.8-41.1,493.9z"/>
	<path fill="#CF9C6D" d="M-39.6,436.4c-3.2,1-5.9,0-7.9-2.2c-4.4-4.9-2.5-13.6,3.7-16.3c1.9-0.8,3.9-1.3,5.8-2.1
		c1.4-0.4,2.9-1.6,4.5-0.6c4,0.3,6.3,2.7,7.4,6.2c1.2,3.3,0,6.2-2.3,8.7c-2,2-4.3,3.1-6.8,4C-36.3,435.6-38.1,435.9-39.6,436.4z"/>
	<path fill="#8EA8D6" d="M-51.6,416.8c-0.5,0-1-0.3-1.4-0.7c-4.5-0.1-9.2-0.1-13.7-0.2l0,0c-0.1-0.3,0-0.5,0.3-0.7
		c1-0.5,1.9-0.4,2.9-0.4c2.5,0,4.8,0.1,7.3,0.1c2.3,0,2.6-0.2,2.6-2.6c0-1.8,0.1-3.4,0.5-5.2c0.3-1.2,0.9-1.8,2.2-1.7
		c3.7,0.1,7.4,0.1,11.1,0.2c2.3-0.1,4.7,0.3,7-0.2c0-0.1,0.1-0.3,0.3-0.4c-0.3,3.4-0.7,6.8-1,10.3c-1.5-0.2-2.9,1.1-4.4,1
		C-42.4,417.3-47.1,416.7-51.6,416.8z"/>
	<path fill="#698CC8" d="M-42.6,418.1c-5.1,2-7.2,5.2-6.6,10.7c0.6,5.8,4.9,8.6,10.5,6.6c1.1-0.4,2.3-0.8,3.4-1.2
		c0,0.8-0.2,1.8-0.3,2.6c-2.6,0.2-5.2,0.6-7.8,0.8c-5.6,0.3-10.2,4.6-9.8,9.9c-0.1,0-0.3,0-0.4,0c0.2-10.6,0.3-21,0.5-31.5
		c5.1,0.1,10.1,0.2,15.2,0.2C-39.3,417.2-40.9,417.5-42.6,418.1z"/>
	<path fill="#A65525" d="M-37,470.9c0-0.1,0-0.1,0.1-0.3c1-0.1,1.8-0.2,2.7-0.4c0.3,0.3,0.5,0.6,0.8,0.8c-1.2,0-2.5,0-3.7-0.1
		C-37.1,471-37.1,471-37,470.9z"/>
	<path fill="#8DA7D6" d="M-83,415.6c-0.7,0-1.6,0.2-2.3-0.4c1.3-1.4,2.2-2.8,3.5-4.2c0.8-0.9,0.7-1.6-0.1-2.5
		c-1.2-1.4-3-2.2-4.3-3.5c6-0.5,12.2,0.1,18.2,0c0.8,0,1.4,0.4,1.5,1.1c0.6,3.2,1.1,6.2-0.3,9.2c0,0.1,0,0.3,0,0.4
		C-72,415.6-77.4,415.5-83,415.6z"/>
	<path fill="#A4B9DD" d="M-86.3,404.7c6.4,0.1,12.9,0.2,19.3,0.3c0.1-0.1,0.3-0.4,0.6-0.4c4.4-0.5,8.9-0.4,13.4,0.2
		c0.3,0.1,0.4,0.3,0.5,0.4c6.6,0.1,13,0.2,19.6,0.3c-0.7,0.7-1.5,0.4-2.3,0.4c-5.1-0.1-10.1-0.2-15.2-0.2c-1.4,0-1.9,0.2-2.2,1.7
		c-0.4,1.9-0.3,4-0.4,6c0,1.6-0.4,2.2-2.2,2.2c-4-0.2-7.8-0.1-11.7-0.2c0-2.5,0.2-4.8,0.1-7.1c0-1.9-0.5-3.2-3-3.1
		c-5.5,0-11-0.2-16.5-0.3C-86.3,404.8-86.3,404.7-86.3,404.7z"/>
	<path fill="#C3D0E7" d="M-66.6,376.2c0-1.5,0.4-2,2.1-2c4.2,0.1,8.4,0.1,12.6,0.2c-0.2,10.1-0.3,20.4-0.5,30.6
		c-4.9-0.1-9.7-0.2-14.7-0.2C-66.9,395.3-66.8,385.7-66.6,376.2z"/>
	<path fill="#6780AC" d="M-41.8,455c0,0,0.1,0,0.3,0c0.1,0.1,0.1,0.3,0,0.4c-0.8,0.1-1.8,0.2-2.6,0.4c-0.1-0.1-0.4-0.3-0.5-0.4
		C-43.7,454.7-42.8,455-41.8,455z"/>
	<path fill="#635C57" d="M-39.1,454.8c-0.8,0.3-1.5,0.4-2.3,0.5c-0.1-0.1-0.3-0.3-0.4-0.4C-41,454.2-40,454.7-39.1,454.8z"/>
	<path fill="#8B4A20" d="M-38.5,471.1c0.6-0.1,1-0.4,1.5-0.5c0,0.1,0,0.3,0,0.4C-37.4,471.6-38,471.7-38.5,471.1z"/>
</g>
<g>
	<circle fill="#365996" cx="17.1" cy="319.9" r="4"/>
	<path fill="none" stroke="#365996" stroke-width="1.5" stroke-miterlimit="10" d="M-31.6,180c0,0,49,53.7,49.2,134.2"/>
</g>
</svg>
